<svg xmlns="http://www.w3.org/2000/svg" viewBox="0 0 470 362.59766" width="512" height="395"><g fill="#ffc600"><path d="M169.988 120.098c31.01 0 56.238-25.23 56.238-56.238 0-31.01-25.229-56.238-56.238-56.238S113.75 32.85 113.75 63.86c0 31.01 25.229 56.238 56.238 56.238zm0-97.476c22.739 0 41.238 18.499 41.238 41.238s-18.498 41.238-41.238 41.238-41.238-18.5-41.238-41.238 18.499-41.238 41.238-41.238z"/><path d="M169.931 90.098c8.72 0 16.85-4.324 21.746-11.568a7.5 7.5 0 1 0-12.426-8.401 11.246 11.246 0 0 1-9.32 4.969c-3.683 0-7.142-1.82-9.251-4.868a7.5 7.5 0 0 0-10.436-1.9 7.5 7.5 0 0 0-1.898 10.436 26.263 26.263 0 0 0 21.585 11.332zM178.762 178.884c0 31.01 25.229 56.238 56.238 56.238s56.238-25.23 56.238-56.238c0-31.01-25.228-56.24-56.238-56.24-31.01 0-56.238 25.23-56.238 56.24zm97.476 0c0 22.739-18.499 41.238-41.238 41.238s-41.238-18.5-41.238-41.238 18.499-41.238 41.238-41.238 41.238 18.499 41.238 41.238z"/><path d="M225.691 185.254a7.499 7.499 0 0 0-10.436-1.9 7.5 7.5 0 0 0-1.898 10.436 26.263 26.263 0 0 0 21.585 11.332c8.72 0 16.85-4.324 21.746-11.568a7.5 7.5 0 1 0-12.426-8.401 11.246 11.246 0 0 1-9.32 4.969c-3.682 0-7.141-1.82-9.251-4.868zM104.977 235.122c31.01 0 56.238-25.23 56.238-56.238 0-31.01-25.229-56.238-56.238-56.238s-56.238 25.229-56.238 56.238 25.228 56.238 56.238 56.238zm0-97.477c22.739 0 41.238 18.5 41.238 41.238s-18.499 41.238-41.238 41.238-41.238-18.5-41.238-41.238 18.498-41.238 41.238-41.238z"/><path d="M104.977 205.122c8.72 0 16.85-4.324 21.746-11.568a7.5 7.5 0 1 0-12.426-8.401 11.246 11.246 0 0 1-9.32 4.969c-3.683 0-7.142-1.82-9.251-4.868a7.498 7.498 0 0 0-10.436-1.9 7.5 7.5 0 0 0-1.898 10.436 26.263 26.263 0 0 0 21.585 11.332zM150.987 268.819a7.501 7.501 0 0 0-3.852-9.883c-13.319-5.85-27.503-8.814-42.159-8.814C47.093 250.12 0 297.214 0 355.098a7.5 7.5 0 0 0 7.5 7.5 7.5 7.5 0 0 0 7.5-7.5c0-49.613 40.363-89.977 89.977-89.977 12.566 0 24.722 2.54 36.128 7.549a7.5 7.5 0 0 0 9.882-3.851zM308.785 178.884c0 31.01 25.229 56.238 56.238 56.238s56.238-25.23 56.238-56.238c0-31.01-25.229-56.238-56.238-56.238s-56.238 25.228-56.238 56.238zm56.238-41.24c22.739 0 41.238 18.5 41.238 41.239 0 22.738-18.499 41.238-41.238 41.238s-41.238-18.5-41.238-41.238 18.499-41.238 41.238-41.238z"/><path d="M364.966 205.122c8.72 0 16.85-4.324 21.746-11.568a7.5 7.5 0 1 0-12.426-8.401 11.246 11.246 0 0 1-9.32 4.969c-3.683 0-7.142-1.82-9.251-4.868a7.499 7.499 0 0 0-10.436-1.9 7.5 7.5 0 0 0-1.898 10.436 26.263 26.263 0 0 0 21.585 11.332zM365.023 250.12c-14.655 0-28.839 2.966-42.157 8.815a7.5 7.5 0 0 0 6.031 13.735c11.405-5.01 23.56-7.548 36.126-7.548 49.613 0 89.977 40.363 89.977 89.977a7.5 7.5 0 0 0 7.5 7.5 7.5 7.5 0 0 0 7.5-7.5c0-57.885-47.092-104.978-104.977-104.978zM235 250.122c-57.885 0-104.977 47.092-104.977 104.976a7.5 7.5 0 0 0 7.5 7.5 7.5 7.5 0 0 0 7.5-7.5c0-49.613 40.363-89.976 89.977-89.976 49.614 0 89.977 40.363 89.977 89.976a7.5 7.5 0 0 0 7.5 7.5 7.5 7.5 0 0 0 7.5-7.5c0-57.884-47.092-104.976-104.977-104.976zM243.773 63.86c0 31.01 25.229 56.238 56.238 56.238s56.238-25.23 56.238-56.238c0-31.01-25.229-56.238-56.238-56.238S243.773 32.85 243.773 63.86zm56.239-41.238c22.739 0 41.238 18.499 41.238 41.238s-18.499 41.238-41.238 41.238-41.238-18.5-41.238-41.238 18.498-41.238 41.238-41.238z"/><path d="M299.954 90.098c8.72 0 16.85-4.324 21.746-11.568a7.5 7.5 0 1 0-12.426-8.401 11.246 11.246 0 0 1-9.32 4.969c-3.683 0-7.142-1.82-9.251-4.868a7.5 7.5 0 1 0-12.334 8.536 26.264 26.264 0 0 0 21.585 11.332z"/></g></svg>