<svg xmlns="http://www.w3.org/2000/svg" viewBox="0 0 512 512" width="512" height="512"><path d="M10.586 420.056h-.137C4.679 420.056 0 424.734 0 430.505s4.679 10.449 10.449 10.449h.137c5.77 0 10.449-4.678 10.449-10.449s-4.679-10.449-10.449-10.449zM501.551 420.055h-49.87c4.795-5.65 7.697-12.955 7.697-20.927 0-17.86-14.53-32.392-32.392-32.392-17.862 0-32.392 14.531-32.392 32.392 0 7.974 2.902 15.277 7.697 20.927H213.52c4.795-5.65 7.697-12.955 7.697-20.927 0-17.86-14.53-32.392-32.392-32.392-17.862 0-32.392 14.531-32.392 32.392 0 7.974 2.902 15.277 7.697 20.927H44.389c-5.77 0-10.449 4.678-10.449 10.449s4.679 10.449 10.449 10.449h457.162c5.77 0 10.449-4.678 10.449-10.449s-4.679-10.449-10.449-10.449zm-312.726-9.433c-6.337 0-11.494-5.157-11.494-11.494s5.157-11.494 11.494-11.494 11.494 5.157 11.494 11.494c-.001 6.337-5.157 11.494-11.494 11.494zm238.161 0c-6.337 0-11.494-5.157-11.494-11.494s5.156-11.494 11.494-11.494c6.337 0 11.494 5.157 11.494 11.494s-5.157 11.494-11.494 11.494z" fill="#ffc600"/><path d="M511.999 280.601c.001-50.576-35.816-92.938-83.416-103.07v-64.69c0-11.523 9.375-20.898 20.898-20.898h7.14v13.598c0 5.771 4.679 10.449 10.449 10.449h34.307c5.77 0 10.449-4.678 10.449-10.449V81.495c0-5.771-4.679-10.449-10.449-10.449h-51.896c-12.474 0-23.683 5.5-31.347 14.195-7.664-8.695-18.873-14.195-31.347-14.195H334.89c-5.77 0-10.449 4.678-10.449 10.449v24.047c0 5.771 4.679 10.449 10.449 10.449h34.307c5.77 0 10.449-4.678 10.449-10.449V91.944h7.141c11.523 0 20.898 9.375 20.898 20.898v62.395c-.354-.003-7.702-.014-7.702-.014v-14.26c0-5.771-4.679-10.449-10.449-10.449H313.59c-5.77 0-10.449 4.678-10.449 10.449v14.26h-98.56v-14.26c0-5.771-4.679-10.449-10.449-10.449h-75.944c-5.77 0-10.449 4.678-10.449 10.449v14.26H76.278c-17.285 0-31.347 14.062-31.347 31.347v192.724c0 5.771 4.679 10.449 10.449 10.449h86.815c5.762-.013 10.426-4.687 10.426-10.449 0-19.963 16.241-36.205 36.204-36.205s36.204 16.241 36.204 36.205c0 5.771 4.679 10.449 10.449 10.449h144.854c5.77 0 10.449-4.678 10.449-10.449 0-19.963 16.242-36.205 36.205-36.205s36.204 16.241 36.204 36.205c0 5.759 4.661 10.433 10.421 10.449l27.912.076h.029c5.757 0 10.432-4.659 10.448-10.421l-.002-.053.002-.051V280.601zM477.518 91.944h13.409v3.149h-13.409v-3.149zm-118.77 3.148h-13.409v-3.149h13.409v3.149zm130.088 166.139h-70.341v-29.257h57.146a84.111 84.111 0 0 1 13.195 29.257zm-164.797-89.82h55.046v3.811h-55.046v-3.811zm-195.403 0h55.046v3.811h-55.046v-3.811zm-62.807 60.722h29.257v29.098H65.829v-29.098zm224.653 156.712h-45.514c-4.924-26.513-28.226-46.654-56.143-46.654-27.926 0-51.232 20.151-56.148 46.675l-8.242.019c-.261-.02-.522-.04-.789-.04H65.829v-74.324h224.653v74.324zm71.835 0h-21.703v-37.398c0-5.771-4.679-10.449-10.449-10.449s-10.449 4.678-10.449 10.449v37.398h-8.337V233.143h50.938v155.702zm128.785.047l-7.967-.022c-4.913-26.526-28.222-46.679-56.149-46.679-17.558 0-33.287 7.971-43.771 20.478V314.52h107.887v74.372zm0-95.269H383.215v-70.929c0-5.771-4.679-10.449-10.449-10.449H300.93c-5.77 0-10.449 4.678-10.449 10.449v70.929H65.829v-11.494h39.706c5.77 0 10.449-4.678 10.449-10.449v-49.996c0-5.771-4.679-10.449-10.449-10.449H65.829v-4.665c0-5.762 4.687-10.449 10.449-10.449h330.343c17.782 0 34.288 5.536 47.915 14.956h-46.492c-5.77 0-10.449 4.678-10.449 10.449v50.155c0 5.771 4.679 10.449 10.449 10.449h83.058v11.493z" fill="#ffc600"/><path d="M189.127 211.076h-53.266c-5.77 0-10.449 4.678-10.449 10.449v50.155c0 5.771 4.679 10.449 10.449 10.449h53.266c5.77 0 10.449-4.678 10.449-10.449v-50.155c0-5.771-4.68-10.449-10.449-10.449zm-10.449 50.155H146.31v-29.257h32.368v29.257zM270.977 211.076h-53.266c-5.77 0-10.449 4.678-10.449 10.449v50.155c0 5.771 4.679 10.449 10.449 10.449h53.266c5.77 0 10.449-4.678 10.449-10.449v-50.155c0-5.771-4.68-10.449-10.449-10.449zm-10.449 50.155H228.16v-29.257h32.368v29.257zM330.166 307.057c-5.77 0-10.449 4.678-10.449 10.449v.137c0 5.771 4.679 10.449 10.449 10.449s10.449-4.678 10.449-10.449v-.137c0-5.771-4.679-10.449-10.449-10.449zM93.693 71.046H41.796C18.75 71.046 0 89.795 0 112.842v277.945c0 5.771 4.679 10.449 10.449 10.449s10.449-4.678 10.449-10.449V112.842c0-11.523 9.375-20.898 20.898-20.898h7.14v13.598c0 5.771 4.679 10.449 10.449 10.449h34.308c5.77 0 10.449-4.678 10.449-10.449V81.495c0-5.771-4.679-10.449-10.449-10.449zM83.244 95.093h-13.41v-3.149h13.41v3.149z" fill="#ffc600"/></svg>