<?xml version="1.0" encoding="iso-8859-1"?>
<!-- Generator: Adobe Illustrator 19.0.0, SVG Export Plug-In . SVG Version: 6.00 Build 0)  -->
<svg xmlns="http://www.w3.org/2000/svg" xmlns:xlink="http://www.w3.org/1999/xlink" version="1.1" id="Capa_1" x="0px" y="0px" viewBox="0 0 511.999 511.999" style="enable-background:new 0 0 511.999 511.999;" xml:space="preserve" width="512px" height="512px">
<g>
	<g>
		<path d="M214.032,133.749h-53.881c-4.143,0-7.5,3.357-7.5,7.5s3.357,7.5,7.5,7.5h53.881c4.143,0,7.5-3.357,7.5-7.5    S218.174,133.749,214.032,133.749z" fill="#ffc600"/>
	</g>
</g>
<g>
	<g>
		<path d="M110.025,147.941l-6.694-6.693l6.694-6.693c2.929-2.93,2.929-7.678,0-10.607c-2.93-2.928-7.678-2.928-10.607,0    c-7.716,8.599-13.082,10.636-13.082,17.3c0,2.722,1.061,5.279,2.982,7.2c8.891,8.107,10.296,12.295,15.403,12.295    C111.345,160.744,114.762,152.681,110.025,147.941z" fill="#ffc600"/>
	</g>
</g>
<g>
	<g>
		<path d="M351.848,67.852h-53.881c-4.143,0-7.5,3.357-7.5,7.5s3.357,7.5,7.5,7.5h53.881c4.143,0,7.5-3.357,7.5-7.5    S355.99,67.852,351.848,67.852z" fill="#ffc600"/>
	</g>
</g>
<g>
	<g>
		<path d="M422.682,68.15l-10.101-10.099c-2.93-2.928-7.678-2.928-10.608,0c-2.929,2.93-2.929,7.678,0,10.607l6.694,6.693    l-6.694,6.693c-2.929,2.93-2.929,7.678,0,10.607c2.931,2.929,7.678,2.928,10.608,0l10.101-10.101    C426.654,78.575,426.669,72.137,422.682,68.15z" fill="#ffc600"/>
	</g>
</g>
<g>
	<g>
		<path d="M437.483,115.799c8.103,0,14.693-6.592,14.693-14.692V48.689c0-7.603-6.185-13.787-13.788-13.787    c-28.422,0-145.919,0-161.389,0V21.038c0-9.508-6.423-17.849-15.575-20.273c-13.81-3.779-26.425,6.997-26.425,20.273v26.06    c0,4.143,3.357,7.5,7.5,7.5s7.5-3.357,7.5-7.5v-26.06c0-3.761,3.493-6.748,7.397-5.824c0.1,0.068,4.605,1.082,4.605,5.824    c0,37.575,0,281.447,0,319.451h-12.001c0-50.933,0-206.118,0-258.392c0-4.143-3.357-7.5-7.5-7.5s-7.5,3.357-7.5,7.5V100.8H134.106    H73.611c-7.604,0-13.788,6.186-13.788,13.787v52.417c0,8.102,6.592,14.692,14.693,14.692c5.157,0,156.402,0,160.484,0    c0,8.6,0,247.024,0,261.302h-7.999c-10.752,0-19.499,8.748-19.499,19.499V470h-34.769c-10.99,0-20.076,8.496-20.919,19.31    c-1.288,11.445,8.248,22.689,20.919,22.689h24.77c4.143,0,7.5-3.358,7.5-7.5c0-4.143-3.357-7.5-7.5-7.5h-24.77    c-3.693,0-6.773-3.372-5.786-7.541c0.695-2.626,3.075-4.46,5.786-4.46h166.534c2.711,0,5.091,1.834,5.798,4.502    c0.978,4.214-2.191,7.499-5.798,7.499H232.5c-4.143,0-7.5,3.357-7.5,7.5c0,4.142,3.357,7.5,7.5,7.5h106.766    c12.985,0,23.642-12.027,20.412-25.89C357.296,476.363,348.695,470,339.267,470h-34.769v-7.502    c0-10.752-8.748-19.499-19.499-19.499h-7.999c0-16.619,0-169.647,0-195.405c4.074,0,155.335,0,160.484,0    c8.103,0,14.693-6.592,14.693-14.692v-52.417c0-5.327-3.043-9.949-7.476-12.243c-4.294-2.223,1.295-1.544-102.294-1.544    c-4.143,0-7.5,3.357-7.5,7.5s3.357,7.5,7.5,7.5h27.987v50.898h-93.394v-50.898h30.409c4.143,0,7.5-3.357,7.5-7.5    s-3.357-7.5-7.5-7.5h-30.409v-50.898C281.073,115.799,432.335,115.799,437.483,115.799z M385.393,49.901h51.785v50.898h-51.785    V49.901z M276.999,49.901h93.394v50.898h-93.394V49.901z M126.606,166.697H74.821v-50.898h51.785V166.697z M249.999,355.488H262    v36.256h-12.001V355.488z M249.999,406.743H262V443h-12.001V406.743z M141.605,166.697v-50.898h93.394v50.898H141.605z     M284.998,457.999c2.439,0,4.5,2.061,4.5,4.5V470h-66.997v-7.501c0-2.439,2.061-4.5,4.5-4.5    C233.682,457.999,278.45,457.999,284.998,457.999z M385.393,181.696h51.784v50.898h-51.784V181.696z" fill="#ffc600"/>
	</g>
</g>
<g>
	<g>
		<path d="M351.848,199.646h-53.881c-4.143,0-7.5,3.358-7.5,7.5s3.357,7.5,7.5,7.5h53.881c4.143,0,7.5-3.358,7.5-7.5    C359.348,203.003,355.991,199.646,351.848,199.646z" fill="#ffc600"/>
	</g>
</g>
<g>
	<g>
		<path d="M422.682,199.946l-10.1-10.1c-2.93-2.928-7.678-2.928-10.608,0c-2.929,2.93-2.929,7.678,0,10.607l6.694,6.693    l-6.694,6.693c-4.74,4.741-1.318,12.803,5.304,12.803c1.919,0,3.839-0.732,5.304-2.196l10.098-10.099    C426.662,210.368,426.662,203.927,422.682,199.946z" fill="#ffc600"/>
	</g>
</g>
<g>
</g>
<g>
</g>
<g>
</g>
<g>
</g>
<g>
</g>
<g>
</g>
<g>
</g>
<g>
</g>
<g>
</g>
<g>
</g>
<g>
</g>
<g>
</g>
<g>
</g>
<g>
</g>
<g>
</g>
</svg>
