<svg xmlns="http://www.w3.org/2000/svg" viewBox="0 0 511.999 511.999"><path d="M467.308 133.012c0 110.473-85.218 201.403-193.369 210.539H238.06C129.91 334.414 44.691 243.484 44.691 133.012H8.813c0 66.076 25.698 128.163 72.361 174.826 42.413 42.414 97.573 67.502 156.886 71.719h35.878c59.313-4.218 114.471-29.305 156.887-71.719 46.662-46.662 72.361-108.75 72.361-174.826h-35.878z" fill="#ffd66e"/><path d="M390.893 133.012c0 68.298-51.024 124.897-116.953 133.697h-35.878c-65.931-8.8-116.954-65.399-116.954-133.697H85.229c0 45.647 17.755 88.541 49.991 120.779 27.977 27.976 63.98 45.036 102.841 49.06h35.878c38.861-4.024 74.863-21.083 102.839-49.06 32.237-32.237 49.991-75.131 49.991-120.779h-35.876z" fill="#ffbf1f"/><path d="M314.476 133.012c0 25.988-17.045 48.06-40.536 55.651h-35.878c-23.494-7.591-40.537-29.662-40.537-55.651h-35.878c0 45.893 32.941 84.219 76.416 92.623h35.878c43.474-8.404 76.415-46.731 76.415-92.623h-35.88z" fill="#ffd66e"/><path d="M273.94 461.855V133.012h-35.878v328.845c-83.133 0-105.23 41.306-105.23 41.306h246.337c0-.001-22.099-41.308-105.229-41.308z" fill="#ffbf1f"/><path d="M391.173 511.951H120.827a8.789 8.789 0 0 1 0-17.578h270.346a8.789 8.789 0 0 1 0 17.578z" fill="#ffd66e"/><path d="M437.04 314.052c48.322-48.323 74.935-112.618 74.935-181.04a8.789 8.789 0 0 0-8.789-8.789h-9.15V8.789a8.789 8.789 0 0 0-17.578 0v115.434h-9.15a8.789 8.789 0 0 0-8.789 8.789c0 101.16-76.467 187.534-175.791 200.746v-23.153c38.151-5.619 72.679-23.014 100.266-50.6 33.896-33.896 52.565-78.997 52.565-126.993a8.789 8.789 0 0 0-8.789-8.789h-9.15V8.789a8.789 8.789 0 0 0-17.578 0v115.434h-9.149a8.789 8.789 0 0 0-8.789 8.789c0 59.539-42.063 110.842-99.376 123.248v-23.634c44.69-11.97 76.416-52.754 76.416-99.613a8.789 8.789 0 0 0-8.789-8.789h-9.15V8.789a8.789 8.789 0 0 0-17.578 0v115.434h-9.15a8.789 8.789 0 0 0-8.789 8.789c0 17.302-8.862 32.925-22.959 41.891v-41.891a8.789 8.789 0 0 0-8.789-8.789h-9.15V8.789a8.789 8.789 0 0 0-17.578 0v115.434h-9.15a8.789 8.789 0 0 0-8.789 8.789v41.892c-14.098-8.966-22.96-24.589-22.96-41.892a8.789 8.789 0 0 0-8.789-8.789h-9.15V8.789a8.789 8.789 0 0 0-17.578 0v115.434h-9.15a8.789 8.789 0 0 0-8.789 8.789c0 46.859 31.726 87.642 76.416 99.613v23.634c-57.312-12.407-99.377-63.709-99.377-123.248a8.789 8.789 0 0 0-8.789-8.789h-9.15V8.789a8.789 8.789 0 0 0-17.578 0v115.434h-9.151a8.789 8.789 0 0 0-8.789 8.789c0 47.996 18.669 93.096 52.566 126.993 27.586 27.586 62.115 44.98 100.267 50.6v23.153C129.948 320.545 53.48 234.17 53.48 133.012a8.789 8.789 0 0 0-8.789-8.789h-9.15V8.789a8.789 8.789 0 0 0-17.578 0v115.434h-9.15a8.789 8.789 0 0 0-8.789 8.789c0 68.424 26.613 132.719 74.935 181.04 41.6 41.601 96.127 67.532 154.312 73.558v65.61c-65.244 2.297-92.621 29.921-101.104 41.153h-7.341a8.789 8.789 0 0 0 0 17.578h11.195c.27.024.539.048.807.048.246 0 .49-.029.734-.048h257.61a8.789 8.789 0 0 0 0-17.578h-7.342c-8.482-11.232-35.86-38.856-101.103-41.153v-65.61c58.186-6.027 112.712-31.958 154.313-73.558zm-163.1 156.592c39.969 0 64.411 10.07 77.877 18.517a81.078 81.078 0 0 1 7.375 5.211H152.807a81.382 81.382 0 0 1 7.376-5.211c13.466-8.447 37.909-18.517 77.878-18.517a8.789 8.789 0 0 0 8.789-8.789v-82.3a8.79 8.79 0 0 0-8.166-8.767c-57.015-4.054-110.746-28.618-151.296-69.166-42.927-42.928-67.458-99.391-69.628-159.823h18.317C38.15 194.03 58.662 243.61 94.365 282.246c37.48 40.558 88.249 65.44 142.956 70.061a8.785 8.785 0 0 0 9.528-8.758v-40.7a8.792 8.792 0 0 0-7.884-8.743c-37.216-3.853-70.943-19.944-97.531-46.533-28.5-28.5-45.066-65.779-47.185-105.775h18.338c4.166 67.862 56.21 124.53 124.311 133.62a8.786 8.786 0 0 0 9.951-8.712v-41.074a8.786 8.786 0 0 0-7.12-8.628c-37.246-7.2-65.019-38.116-68.844-75.206h18.418c3.329 25.536 20.999 47.128 46.056 55.225a8.787 8.787 0 0 0 11.491-8.363v-46.862h18.301v46.862a8.788 8.788 0 0 0 11.492 8.363c25.057-8.097 42.726-29.689 46.055-55.225h18.418c-3.825 37.089-31.598 68.005-68.843 75.206a8.79 8.79 0 0 0-7.12 8.628v41.074a8.785 8.785 0 0 0 9.951 8.712c68.099-9.09 120.142-65.757 124.31-133.62h18.336c-2.119 39.996-18.684 77.275-47.184 105.775-26.587 26.588-60.312 42.679-97.53 46.533a8.79 8.79 0 0 0-7.884 8.743v40.7c0 2.46 1.03 4.806 2.842 6.471a8.778 8.778 0 0 0 6.687 2.287c54.706-4.622 105.476-29.503 142.955-70.061 35.703-38.635 56.215-88.215 58.289-140.447h18.317c-2.17 60.43-26.701 116.893-69.63 159.823-40.548 40.548-94.279 65.113-151.295 69.166a8.79 8.79 0 0 0-8.166 8.767v82.3a8.788 8.788 0 0 0 8.789 8.789z"/></svg>