<svg xmlns="http://www.w3.org/2000/svg" viewBox="0 0 395.448 395.448" width="512" height="512"><g fill="#ffc600"><path d="M197.724 0C88.698 0 0 88.698 0 197.724s88.698 197.724 197.724 197.724 197.724-88.698 197.724-197.724S306.749 0 197.724 0zM311.08 54.516a184.385 184.385 0 0 1 26.886 26.213c-4.268-.746-8.262-.667-12.005.249-7.242 1.771-13.015 6.614-16.693 14.002-.87 1.747-2.663 2.755-4.591 2.545-2.277-.239-4.038-2.072-4.096-4.263-.391-14.842 6.071-30.1 10.499-38.746zM71.829 65.411c15.759-15.001 34.185-27.221 54.484-35.873 8.375 5.728 31.504 22.647 48.593 45.583a11.502 11.502 0 0 1 1.932 9.768 11.515 11.515 0 0 1-6.397 7.647c-17.979 8.228-41.804 20.989-53.2 35.062-2.64 3.262-6.904 4.719-10.87 3.713-15.208-3.858-27.427.746-34.407 12.961-8.816 15.425 3.474 30.436 14.318 43.681a545.613 545.613 0 0 1 3.689 4.54c-11.385-6.76-20.088-15.504-25.925-26.114-10.072-18.313-16.807-50.656 7.783-100.968zM15 197.724c0-35.864 10.393-69.342 28.315-97.596-7.704 33.718-1.022 57.825 7.588 73.481 9.185 16.694 23.906 29.502 43.756 38.069 4.085 1.763 7.141 5.343 8.176 9.583 0 0 .43 1.848.614 2.764 1.376 6.834 2.418 17.008.905 30.005-2.225 19.197 6.309 38.036 22.269 49.164l14.934 10.42c-.932 10.643-2.225 37.514 5.501 59.682C70.873 351.276 15 280.905 15 197.724zm360.291 30.559a28.07 28.07 0 0 0-10.354-20.201c-6.064-4.906-13.942-7.035-21.613-5.844l-.65.098c-5.855.855-11.691-.644-16.425-4.221-4.816-3.641-7.907-8.961-8.702-14.98-.874-6.623-1.183-12.962-.919-18.842a7.5 7.5 0 0 0-7.155-7.829 7.496 7.496 0 0 0-7.829 7.155c-.304 6.757.043 13.983 1.032 21.479 1.325 10.031 6.484 18.903 14.528 24.983 7.959 6.017 17.773 8.536 27.64 7.097l.787-.119c3.548-.55 7.053.403 9.873 2.685a13.039 13.039 0 0 1 4.812 9.384c.73 12.922 3.499 24.15 8.229 33.453-26.223 68.83-92.898 117.866-170.821 117.866-7.15 0-14.201-.427-21.139-1.23 2.492-2.537 5.47-5.597 8.994-9.257a7.5 7.5 0 0 0-10.806-10.402 1121.068 1121.068 0 0 1-12.181 12.481c-10.291-24.143-5.732-60.667-5.68-61.074a7.5 7.5 0 0 0-3.145-7.123l-18.562-12.952c-11.427-7.967-17.539-21.43-15.95-35.131 1.244-10.699 1.077-21.176-.423-30.754 13.196-3.554 26.006-5.429 34.947-6.395 6.573-.706 13.053 1.476 17.763 5.994 10.872 10.434 27.706 22.6 50.033 36.16a26.76 26.76 0 0 1 12.486 18.367 26.654 26.654 0 0 1-5.636 21.391c-6.662 8.139-14.81 17.499-24.216 27.82a7.5 7.5 0 0 0 11.086 10.104c9.585-10.517 17.907-20.08 24.737-28.424a41.642 41.642 0 0 0 8.813-33.422 41.755 41.755 0 0 0-19.485-28.656c-21.091-12.809-37.492-24.622-47.435-34.163-7.917-7.593-18.76-11.268-29.757-10.084-9.05.978-21.85 2.836-35.262 6.302-2.716-11.629-11.266-22.078-19.019-31.547-10.025-12.245-16.34-20.721-12.902-26.737 2.219-3.882 6.467-8.714 17.696-5.863 9.614 2.438 19.906-1.021 26.215-8.814 7.464-9.216 24.434-20.176 47.785-30.862 7.335-3.356 12.688-9.759 14.687-17.566 1.998-7.803.382-15.986-4.434-22.45-14.279-19.165-31.997-34.142-43.613-42.889 17.191-5.372 35.464-8.27 54.401-8.27 37.351 0 72.114 11.273 101.083 30.584-5.147 9.593-13.732 28.625-13.219 48.073.254 9.685 7.786 17.762 17.52 18.786.676.071 1.35.106 2.021.106 7.35 0 14.239-4.197 17.568-10.883 2.521-5.063 5.764-5.857 6.83-6.118 3.346-.818 10.996-.624 25.231 9.304a75.113 75.113 0 0 1-10.463-.543c-5.72-.705-11.393.726-15.979 4.023-3.006 2.159-5.86 4.692-8.486 7.527a7.5 7.5 0 0 0 11.006 10.192 41.755 41.755 0 0 1 6.234-5.539c1.517-1.091 3.436-1.559 5.392-1.316a90.21 90.21 0 0 0 20.318.185c11.322 23.756 17.669 50.321 17.669 78.342 0 13.48-1.48 26.62-4.264 39.276a92.53 92.53 0 0 1-.892-8.717z"/><path d="M202.296 346.013c-.18-.45-.409-.89-.68-1.29-.28-.42-.59-.8-.939-1.14a7.006 7.006 0 0 0-1.141-.94 7.56 7.56 0 0 0-1.29-.69c-.45-.18-.93-.33-1.399-.42-.971-.2-1.971-.2-2.94 0-.47.09-.95.24-1.399.42a7.411 7.411 0 0 0-2.431 1.63 6.9 6.9 0 0 0-.939 1.14c-.271.4-.5.84-.69 1.29a7.762 7.762 0 0 0-.57 2.87c0 .49.051.98.15 1.46.09.48.24.95.42 1.41a7.397 7.397 0 0 0 1.629 2.43c.34.35.73.66 1.141.93.399.27.84.51 1.29.69.449.19.93.33 1.399.43a7.334 7.334 0 0 0 2.941 0c.47-.1.949-.24 1.399-.43.45-.18.891-.42 1.29-.69.42-.27.8-.58 1.141-.93a7.167 7.167 0 0 0 1.619-2.43c.19-.46.341-.93.431-1.41.1-.48.149-.97.149-1.46a7.406 7.406 0 0 0-.581-2.87zM233.492 33.418c-1.216-1.094-12.959-10.78-50.395-13.899-5.521-.462-7.855 3.223-8.44 4.362-2.737 5.327.681 9.345 5.854 15.428 5.976 7.026 15.978 18.786 17.526 30.654a7.5 7.5 0 0 0 13.388 3.593l23-30a7.499 7.499 0 0 0-.933-10.138zm-25.224 19.605c-3.014-6.288-6.982-11.919-10.698-16.626 9.178 1.545 15.466 3.461 19.563 5.064l-8.865 11.562zM317.318 135.493a7.729 7.729 0 0 0-2.7-1.12c-.97-.19-1.96-.19-2.93 0a7.69 7.69 0 0 0-2.7 1.12c-.41.27-.79.59-1.14.93-.34.35-.66.73-.931 1.14-.27.41-.5.85-.689 1.3-.19.45-.33.92-.431 1.4-.09.49-.14.98-.14 1.47s.05.98.14 1.46c.099.479.239.95.43 1.41.189.45.42.88.689 1.29.271.41.591.79.931 1.14a7.55 7.55 0 0 0 5.31 2.2 7.556 7.556 0 0 0 2.86-.58c.46-.18.89-.42 1.3-.69.41-.27.79-.58 1.14-.93.34-.35.66-.73.931-1.14.27-.41.5-.84.689-1.29.19-.46.33-.93.431-1.41a7.584 7.584 0 0 0-2.05-6.77c-.35-.34-.729-.66-1.14-.93z"/></g></svg>