<?xml version="1.0" encoding="iso-8859-1"?>
<!-- Generator: Adobe Illustrator 19.0.0, SVG Export Plug-In . SVG Version: 6.00 Build 0)  -->
<svg xmlns="http://www.w3.org/2000/svg" xmlns:xlink="http://www.w3.org/1999/xlink" version="1.1" id="Capa_1" x="0px" y="0px" viewBox="0 0 512 512" style="enable-background:new 0 0 512 512;" xml:space="preserve" width="512px" height="512px">
<g>
	<g>
		<path d="M474.414,426.02c2.914-4.88,4.594-10.578,4.594-16.664v-18.877c0-21.206-17.253-38.458-38.459-38.458    c-4.85,0-9.489,0.911-13.767,2.557c-4.56-5.368-10.182-9.686-16.458-12.703c2.713-4.572,4.277-9.902,4.277-15.593v-17.245    c0-19.851-16.149-36-36-36s-36,16.149-36,36v17.245c0,5.691,1.564,11.021,4.277,15.593c-6.165,2.964-11.702,7.178-16.219,12.415    c-4.065-1.466-8.444-2.269-13.008-2.269c-4.823,0-9.438,0.901-13.696,2.529c-4.556-5.355-10.169-9.663-16.435-12.675    c2.713-4.572,4.277-9.902,4.277-15.593v-17.245c0-19.851-16.149-36-36-36s-36,16.149-36,36v17.245    c0,5.691,1.564,11.021,4.277,15.593c-6.219,2.99-11.797,7.254-16.336,12.554c-4.173-1.555-8.683-2.409-13.391-2.409    c-4.681,0-9.167,0.843-13.32,2.381c-4.534-5.288-10.104-9.542-16.312-12.526c2.713-4.572,4.277-9.902,4.277-15.593v-17.245    c0-19.851-16.149-36-36-36s-36,16.149-36,36v17.245c0,5.691,1.564,11.021,4.277,15.593c-6.23,2.995-11.816,7.27-16.359,12.583    c-4.192-1.572-8.727-2.437-13.461-2.437c-21.206,0-38.458,17.252-38.458,38.458v18.877c0,6.085,1.68,11.784,4.594,16.664    C15.615,434.592,0,455.967,0,480.935v21.048c0,5.522,4.478,10,10,10h492c5.522,0,10-4.478,10-10v-21.048    C512,455.967,496.385,434.591,474.414,426.02z M422.093,390.479c0-10.178,8.28-18.458,18.458-18.458s18.458,8.281,18.458,18.458    v18.877c0,6.951-5.655,12.606-12.607,12.606h-11.703c-6.951,0-12.606-5.655-12.606-12.606V390.479z M378.603,293.038    c8.822,0,16,7.178,16,16v17.245c0,5.875-4.779,10.654-10.654,10.654h-10.692c-5.874,0-10.653-4.779-10.653-10.654v-17.245h-0.001    C362.603,300.216,369.781,293.038,378.603,293.038z M299.194,390.479c0-10.178,8.28-18.458,18.458-18.458    c10.178,0,18.458,8.281,18.458,18.458v18.877c0,6.951-5.655,12.606-12.607,12.606H311.8c-6.951,0-12.606-5.655-12.606-12.606    V390.479z M255.798,293.038c8.822,0,16,7.178,16,16v17.245c0,5.875-4.779,10.654-10.654,10.654h-10.692    c-5.874,0-10.653-4.779-10.653-10.654v-17.245h-0.001C239.798,300.216,246.976,293.038,255.798,293.038z M175.891,390.479    c0-10.178,8.28-18.458,18.458-18.458c10.177,0,18.458,8.281,18.458,18.458v18.877c0,6.951-5.655,12.606-12.607,12.606h-11.703    c-6.951,0-12.606-5.655-12.606-12.606V390.479z M132.993,293.038c8.822,0,16,7.178,16,16v17.245    c0,5.875-4.779,10.654-10.654,10.654h-10.692c-5.874,0-10.653-4.779-10.653-10.654v-17.245h-0.001    C116.993,300.216,124.171,293.038,132.993,293.038z M71.449,372.021c10.179,0,18.459,8.28,18.459,18.458v18.877    c0,6.951-5.655,12.606-12.607,12.606H65.598c-6.951,0-12.606-5.655-12.606-12.606v-18.877h-0.001    C52.991,380.301,61.271,372.021,71.449,372.021z M122.899,491.983H20v-11.048c0-21.468,17.465-38.933,38.933-38.933h25.033    c21.468,0,38.933,17.465,38.933,38.933V491.983z M132.898,448.13c-6.675-9.925-16.292-17.704-27.585-22.11    c2.915-4.88,4.595-10.579,4.595-16.664v-18.877c0-9.203-3.253-17.659-8.665-24.286c5.568-5.818,13.348-9.256,21.565-9.256h4.838    h10.692h4.839c8.167,0,15.902,3.395,21.462,9.147c-5.465,6.643-8.75,15.142-8.75,24.395v18.877c0,6.085,1.68,11.784,4.594,16.664    C149.191,430.426,139.574,438.206,132.898,448.13z M245.798,491.982h-102.9v-11.048c0-21.468,17.466-38.933,38.934-38.933h25.033    c21.468,0,38.933,17.465,38.933,38.933V491.982z M256,448.445c-6.683-10.073-16.377-17.973-27.788-22.425    c2.914-4.88,4.594-10.578,4.594-16.664v-18.877c0-9.228-3.269-17.705-8.708-24.34c5.565-5.786,13.322-9.202,21.514-9.202h4.838    h10.692h4.839c8.302,0,16.156,3.509,21.734,9.436c-5.325,6.6-8.523,14.985-8.523,24.106v18.877c0,6.085,1.68,11.784,4.594,16.664    C272.377,430.472,262.683,438.372,256,448.445z M369.102,491.983h-102.9v-11.048c0-21.468,17.465-38.933,38.933-38.933h25.033    c21.468,0,38.934,17.465,38.934,38.933V491.983z M379.102,448.13c-6.675-9.925-16.292-17.704-27.586-22.11    c2.914-4.88,4.594-10.579,4.594-16.664v-18.877c0-9.359-3.364-17.945-8.942-24.62c5.544-5.618,13.188-8.922,21.25-8.922h4.838    h10.692h4.839c8.328,0,16.204,3.53,21.785,9.49c-5.3,6.592-8.481,14.955-8.481,24.052v18.877c0,6.085,1.68,11.784,4.594,16.664    C395.393,430.426,385.777,438.206,379.102,448.13z M492.001,491.982L492.001,491.982H389.102v-11.048    c0-21.468,17.465-38.933,38.933-38.933h25.033c21.468,0,38.933,17.465,38.933,38.933V491.982z" fill="#ffc600"/>
	</g>
</g>
<g>
	<g>
		<path d="M256.5,245.982H256c-5.522,0-10,4.478-10,10c0,5.522,4.478,10,10,10h0.5c5.522,0,10-4.478,10-10    C266.5,250.46,262.022,245.982,256.5,245.982z" fill="#ffc600"/>
	</g>
</g>
<g>
	<g>
		<path d="M363.062,205.982h-13.729v-33.574c0-21.475-13.056-40.669-32.472-48.827V60.877c0-33.559-27.303-60.861-60.861-60.861    s-60.861,27.303-60.861,60.861v62.476c-19.526,8.108-32.682,27.384-32.682,48.917v33.712h-13.52c-5.522,0-10,4.478-10,10v40    c0.001,5.523,4.478,10,10.001,10h30.972v31.56c0,5.522,4.478,10,10,10c5.522,0,10-4.478,10-10v-31.56h19.424    c5.522,0,10-4.478,10-10c0-5.522-4.478-10-10-10h-60.396v-20h194.125v20H292c-5.522,0-10,4.478-10,10c0,5.522,4.478,10,10,10    h19.909v31.56c0,5.522,4.478,10,10,10c5.522,0,10-4.478,10-10v-31.56h31.153c5.522,0,10-4.478,10-10v-40    C373.062,210.46,368.584,205.982,363.062,205.982z M182.457,205.982V172.27c0-11.621,6.158-22.182,15.717-28.074l13.876,61.786    H182.457z M229.086,190.565l-11.898-52.977l12.005-3.32L229.086,190.565z M262.768,205.983h-13.713l0.145-75.496    c0.482,0.023,0.966,0.037,1.453,0.037h10.693c0.525,0,1.047-0.013,1.566-0.04L262.768,205.983z M272,99.869    c0,5.875-4.779,10.654-10.653,10.654h-10.693c-5.874,0-10.653-4.779-10.653-10.654V84.744c5.684,2.054,11.709,3.12,17.781,3.12    H272V99.869z M282.798,190.589l0.107-56.025l11.975,3.271L282.798,190.589z M296.861,117.645l-8.982-2.454    c2.615-4.511,4.121-9.742,4.121-15.321V77.864c0-5.522-4.478-10-10-10h-24.219c-5.552,0-11.042-1.444-15.877-4.177l-6.984-3.947    c-3.096-1.75-6.888-1.724-9.96,0.069c-3.071,1.792-4.96,5.08-4.96,8.637v31.423c0,5.482,1.454,10.629,3.986,15.086l-8.847,2.447    V60.877c0-22.531,18.33-40.861,40.861-40.861s40.861,18.33,40.861,40.861V117.645z M329.333,205.982h-29.541l14.083-61.491    c9.414,5.919,15.458,16.39,15.458,27.917V205.982z" fill="#ffc600"/>
	</g>
</g>
<g>
</g>
<g>
</g>
<g>
</g>
<g>
</g>
<g>
</g>
<g>
</g>
<g>
</g>
<g>
</g>
<g>
</g>
<g>
</g>
<g>
</g>
<g>
</g>
<g>
</g>
<g>
</g>
<g>
</g>
</svg>
