<?xml version="1.0" encoding="iso-8859-1"?>
<!-- Generator: Adobe Illustrator 19.0.0, SVG Export Plug-In . SVG Version: 6.00 Build 0)  -->
<svg xmlns="http://www.w3.org/2000/svg" xmlns:xlink="http://www.w3.org/1999/xlink" version="1.1" id="Layer_1" x="0px" y="0px" viewBox="0 0 512 512" style="enable-background:new 0 0 512 512;" xml:space="preserve" width="512px" height="512px">
<g>
	<g>
		<g>
			<path d="M490.667,42.668H21.334C9.571,42.668,0,52.238,0,64.001v384.001c0,11.761,9.571,21.331,21.334,21.331h469.333     c11.763,0,21.333-9.57,21.333-21.331V64.001C512,52.238,502.43,42.668,490.667,42.668z M21.334,64.003l469.331-0.002v21.333     H21.334V64.003z M21.335,448.001l-0.001-341.333h469.331v288l0.004,53.329L21.335,448.001z" fill="#ffc600"/>
			<path d="M53.333,265.785c-5.892,0-10.667,4.776-10.667,10.667v54.214c0,5.89,4.776,10.667,10.667,10.667     s10.667-4.778,10.667-10.667v-54.214C64.001,270.561,59.225,265.785,53.333,265.785z" fill="#ffc600"/>
			<path d="M53.331,256.478c5.891,0,10.667-4.778,10.667-10.667v-0.256c0-5.892-4.777-10.668-10.667-10.668     c-5.892,0-10.667,4.776-10.667,10.668v0.256C42.664,251.7,47.439,256.478,53.331,256.478z" fill="#ffc600"/>
			<path d="M458.669,384.001H192.817c-4.403-12.418-16.259-21.337-30.168-21.337c-13.907,0-25.764,8.919-30.167,21.337h-79.15     c-5.892,0-10.667,4.776-10.667,10.667c0,5.891,4.776,10.667,10.667,10.667h79.152c4.405,12.412,16.259,21.329,30.163,21.329     s25.76-8.917,30.166-21.329h265.854c5.891,0,10.667-4.777,10.667-10.667C469.336,388.776,464.56,384.001,458.669,384.001z      M173.316,394.686c-0.013,5.869-4.792,10.643-10.666,10.643c-5.881,0-10.665-4.785-10.665-10.665     c0-5.882,4.784-10.665,10.665-10.665c5.876,0,10.656,4.776,10.666,10.646c0,0.009-0.002,0.015-0.002,0.022     C173.314,394.674,173.316,394.68,173.316,394.686z" fill="#ffc600"/>
			<path d="M458.664,234.445c5.891,0,10.667-4.778,10.667-10.667v-0.25c0-5.892-4.777-10.668-10.667-10.668     c-5.892,0-10.667,4.776-10.667,10.668v0.25C447.996,229.668,452.772,234.445,458.664,234.445z" fill="#ffc600"/>
			<path d="M458.667,203.547c5.891,0,10.667-4.778,10.667-10.667v-54.214c0-5.892-4.777-10.667-10.667-10.667     c-5.892,0-10.667,4.776-10.667,10.667v54.214C447.999,198.769,452.774,203.547,458.667,203.547z" fill="#ffc600"/>
			<path d="M225.535,278.511c3.603,6.217,10.309,10.08,17.5,10.08c3.543,0,7.041-0.94,10.11-2.715l19.946-11.518     c0.179-0.105,0.355-0.212,0.527-0.328l19.197-11.085c3.167-1.777,5.797-4.383,7.613-7.544c5.542-9.647,2.204-22.012-7.43-27.56     l-19.21-11.092c-0.243-0.153-0.487-0.302-0.737-0.444l-19.083-11.02c-3.265-2.1-7.038-3.209-10.944-3.209     c-11.158,0-20.236,9.076-20.236,20.233v46.064c0,0.315,0.015,0.627,0.042,0.936C222.979,272.53,223.905,275.688,225.535,278.511z      M244.125,224.238l18.297,10.567c0.039,0.021,0.078,0.044,0.116,0.065l-0.087-0.046c0.153,0.098,0.306,0.192,0.463,0.284     l17.726,10.234l-18.229,10.526c-0.179,0.105-0.355,0.212-0.527,0.325l-17.759,10.255V224.238z" fill="#ffc600"/>
			<path d="M256,341.784c53.185,0,96.453-43.271,96.453-96.453S309.185,148.88,256,148.88c-53.183,0-96.452,43.268-96.452,96.451     C159.548,298.515,202.818,341.784,256,341.784z M256,170.215c41.42,0,75.118,33.696,75.118,75.116     c0,41.42-33.699,75.118-75.118,75.118c-41.42,0-75.117-33.699-75.117-75.118S214.581,170.215,256,170.215z" fill="#ffc600"/>
		</g>
	</g>
</g>
<g>
</g>
<g>
</g>
<g>
</g>
<g>
</g>
<g>
</g>
<g>
</g>
<g>
</g>
<g>
</g>
<g>
</g>
<g>
</g>
<g>
</g>
<g>
</g>
<g>
</g>
<g>
</g>
<g>
</g>
</svg>
