<svg xmlns="http://www.w3.org/2000/svg" viewBox="0 0 512.001 512.001" width="512" height="512"><path d="M340.47 302.931l-3.519-3.519c-4.165-4.166-10.919-4.165-15.085.001-4.165 4.165-4.164 10.919.001 15.085l3.519 3.519c2.083 2.083 4.812 3.124 7.541 3.124s5.46-1.042 7.543-3.125c4.167-4.166 4.166-10.92 0-15.085z" fill="#ffc600"/><path d="M511.999 171.834a10.667 10.667 0 0 0-3.123-7.73L375.361 30.601c-4.165-4.164-10.919-4.164-15.085 0l-62.852 62.851c-23.086-15.17-53.974-12.496-74.225 7.755l-.54.54-70.277-70.277c-4.164-4.164-10.919-4.164-15.085 0L3.124 165.645a10.67 10.67 0 0 0 0 15.084l70.416 70.406c-.921.76-1.82 1.55-2.669 2.399L39.015 285.39c-14.738 14.738-14.738 38.722.001 53.461l3.306 3.306c7.136 7.143 16.629 11.078 26.731 11.078.197 0 .393-.012.59-.014-.003.195-.014.389-.014.586 0 10.097 3.933 19.589 11.073 26.731l3.307 3.308c7.137 7.143 16.629 11.078 26.731 11.078.197 0 .393-.012.589-.014-.003.195-.014.389-.014.586 0 10.097 3.934 19.589 11.075 26.732l3.305 3.306c7.136 7.143 16.629 11.08 26.731 11.08.204 0 .406-.012.61-.015-.151 9.875 3.522 19.798 11.04 27.317l3.309 3.31c7.141 7.14 16.635 11.074 26.731 11.074s19.589-3.934 26.73-11.074l1.817-1.815 7.357 7.357c7.581 7.581 17.661 11.756 28.381 11.756 10.713 0 20.792-4.173 28.391-11.756a39.885 39.885 0 0 0 10.433-18.233c5.957 3.382 12.717 5.193 19.763 5.193 10.727 0 20.811-4.175 28.395-11.76a39.832 39.832 0 0 0 10.416-18.239c5.969 3.389 12.733 5.202 19.776 5.202 10.72 0 20.8-4.175 28.38-11.756a39.876 39.876 0 0 0 10.428-18.23c5.956 3.38 12.714 5.189 19.757 5.189 10.727 0 20.811-4.175 28.39-11.756 7.583-7.582 11.759-17.664 11.759-28.385s-4.176-20.803-11.759-28.385l-61.695-61.695 107.773-100.46a10.69 10.69 0 0 0 3.391-7.619zM80.701 327.076a16.359 16.359 0 0 1-11.649 4.828 16.346 16.346 0 0 1-11.643-4.826l-3.309-3.309c-6.421-6.422-6.421-16.871 0-23.293l31.856-31.855a16.372 16.372 0 0 1 4.989-3.41c.385.042.772.068 1.159.068 1.871 0 3.737-.501 5.398-1.479.052 0 .106-.01.158-.01 4.299 0 8.448 1.692 11.587 4.83l3.313 3.313a16.337 16.337 0 0 1 4.822 11.637c0 4.4-1.714 8.538-4.827 11.65l-31.854 31.856zm41.686 41.689a16.37 16.37 0 0 1-11.649 4.826 16.344 16.344 0 0 1-11.642-4.825l-3.311-3.311a16.366 16.366 0 0 1-4.826-11.646c0-4.397 1.714-8.533 4.826-11.645l.005-.005 22.986-22.985.003-.003a16.355 16.355 0 0 1 11.645-4.826 16.36 16.36 0 0 1 11.646 4.826l3.313 3.312a16.343 16.343 0 0 1 4.822 11.638c0 4.4-1.714 8.539-4.826 11.65l-6.971 6.971c-.119.113-.237.225-.356.346l-15.665 15.677zm44.994 38.376l-.002.003-3.308 3.308a16.362 16.362 0 0 1-11.648 4.825 16.345 16.345 0 0 1-11.643-4.827l-3.31-3.31a16.366 16.366 0 0 1-4.826-11.646c0-4.395 1.713-8.529 4.825-11.644l.002-.001 15.846-15.847c6.416-6.245 16.785-6.175 23.124.167l3.306 3.306c6.421 6.427 6.422 16.877.003 23.295l-12.364 12.365c0 .002-.003.004-.005.006zm44.751 37.448a16.234 16.234 0 0 1-3.062 4.238l-3.311 3.31c-6.42 6.421-16.868 6.422-23.292 0l-3.309-3.309c-6.421-6.422-6.421-16.871 0-23.294l3.296-3.296.014-.013c6.421-6.421 16.869-6.421 23.292 0l3.309 3.31a16.43 16.43 0 0 1 3.063 19.054zm235.311-87.9a18.688 18.688 0 0 1 5.51 13.3c0 5.023-1.957 9.747-5.511 13.301-3.552 3.551-8.277 5.507-13.306 5.507s-9.748-1.953-13.295-5.508l-16.846-16.846-.017-.017a.291.291 0 0 0-.018-.016l-.01-.011-40.661-40.654c-4.165-4.166-10.919-4.165-15.085.001-4.165 4.165-4.164 10.919.001 15.085l40.661 40.654.002.002.033.033c7.297 7.332 7.282 19.248-.036 26.565a18.678 18.678 0 0 1-13.295 5.507 18.72 18.72 0 0 1-13.306-5.507l-16.835-16.835-.027-.025-.029-.032-50.11-50.098c-4.165-4.164-10.919-4.163-15.085.002-4.165 4.165-4.164 10.919.001 15.086l50.11 50.098.004.003.028.029c7.291 7.333 7.275 19.253-.033 26.569a18.695 18.695 0 0 1-13.306 5.507c-5.028 0-9.748-1.953-13.297-5.51l-50.107-50.096c-4.165-4.164-10.919-4.164-15.086 0-4.165 4.165-4.165 10.919 0 15.086l33.134 33.126c.026.027.048.055.075.082 7.333 7.333 7.333 19.267.008 26.593-3.563 3.557-8.291 5.516-13.313 5.516a18.677 18.677 0 0 1-13.295-5.508l-11.081-11.081a37.702 37.702 0 0 0-9.868-36.147l-3.309-3.31c-4.947-4.946-11.022-8.35-17.645-9.978 5.42-13.611 2.637-29.761-8.362-40.77l-3.31-3.31c-5.872-5.87-13.25-9.396-20.93-10.575.614-2.722.94-5.53.94-8.388 0-10.101-3.934-19.594-11.075-26.727l-3.309-3.31a37.589 37.589 0 0 0-19.807-10.415 37.985 37.985 0 0 0 1.369-10.098c0-10.101-3.934-19.594-11.075-26.727l-3.309-3.31c-7.835-7.834-18.415-11.723-29.202-10.981L25.75 173.184 144.841 54.099l62.733 62.732-39.036 39.027c-7.573 7.574-11.745 17.653-11.745 28.38 0 10.72 4.169 20.8 11.745 28.391 7.583 7.582 17.665 11.758 28.389 11.758 10.726 0 20.806-4.177 28.381-11.757l39.038-39.028 113.585 113.576.005.005 69.507 69.506zm-61.704-91.873L260.893 139.979c-4.165-4.164-10.919-4.164-15.086 0-4.165 4.165-4.165 10.919 0 15.086l3.453 3.452-39.039 39.031a18.666 18.666 0 0 1-13.293 5.506 18.686 18.686 0 0 1-13.297-5.503c-3.55-3.556-5.504-8.285-5.504-13.313s1.952-9.75 5.495-13.294l46.574-46.563.006-.006.006-.006 8.076-8.075c14.56-14.561 37.715-14.938 52.692-.878.308.291.607.581.905.879l30.58 30.569c4.166 4.164 10.919 4.163 15.085-.003 4.165-4.165 4.163-10.919-.002-15.085l-24.14-24.131L367.82 53.23l118.159 118.15-100.24 93.436z" fill="#ffc600"/></svg>