<svg xmlns="http://www.w3.org/2000/svg" viewBox="0 0 512 478" width="512" height="478"><path d="M85.513 359.351c2.953-1.67 6.065-3.089 8.86-5.012.298-.205 0-.723 0-1.085v-5.423c0-.724-.229-1.484 0-2.17.256-.767.889-1.385 1.085-2.17.175-.701-.324-1.522 0-2.169.161-.323.761.162 1.084 0 .458-.229.801-.66 1.085-1.085a9.178 9.178 0 0 0 1.085-2.17c.114-.342-.256-.828 0-1.084.511-.511 1.483.229 2.17 0 .766-.256 1.402-.829 2.169-1.085.343-.114.742.115 1.085 0 .767-.255 1.385-.888 2.17-1.084 1.074-.27 4.462.32 5.423 0 .767-.256 1.402-.83 2.17-1.085.342-.115.722 0 1.084 0 .723 0 1.483.229 2.17 0 .97-.324 1.254-1.712 2.169-2.17.647-.323 1.658.512 2.17 0 .255-.255-.256-.829 0-1.084.255-.256.741.114 1.084 0 .767-.256 1.385-.89 2.17-1.085.701-.176 1.483.229 2.17 0 .484-.162.627-.856 1.084-1.085.323-.162.742.114 1.085 0 .767-.256 1.385-.889 2.17-1.085.7-.175 1.483.229 2.169 0 .485-.161.627-.856 1.084-1.084.324-.162.83.255 1.085 0 .784-.784-1.928-3.134 2.17-1.085.323.162-.256.829 0 1.085.255.255.829-.256 1.084 0 .256.255-.255.829 0 1.084.572.572 1.403.83 2.17 1.085.343.114.829-.256 1.085 0 .255.256-.256.83 0 1.085.511.511 1.522-.324 2.17 0 4.514 2.257-1.16-.075 1.084 2.17.256.255.829-.256 1.085 0 .255.255-.324.922 0 1.084.647.323 1.658-.511 2.17 0 .51.511-.324 1.523 0 2.17.16.323.76-.162 1.084 0 4.514 2.257-1.16-.075 1.085 2.169.255.256.723 0 1.084 0 1.314 0 5.775-.245 6.509 0 .343.114-.256.83 0 1.085s.829-.256 1.085 0c.255.255-.324.923 0 1.085.646.323 1.446 0 2.17 0 1.05 0 5.86-.216 6.508 0 .767.255 1.402.829 2.17 1.084.323.108 7.499.031 7.592 0 .97-.323 1.319-1.602 2.17-2.17.673-.448 1.598-.512 2.17-1.084 2.244-2.244-3.43.088 1.084-2.17.294-.146 6.041 0 6.509 0 .361 0 .76.162 1.084 0 .458-.228.628-.855 1.085-1.084.323-.162.761.162 1.085 0 .457-.229.627-.856 1.084-1.085.324-.162.762.162 1.085 0 .458-.229.628-.856 1.085-1.085.323-.161.761.162 1.085 0 .457-.228.627-.856 1.084-1.084.868-.434 2.387.433 3.255 0 .323-.162-.256-.83 0-1.085.297-.297 3.75.294 4.339 0 .457-.229.627-.856 1.084-1.085.324-.162.724 0 1.085 0h6.509c2.17 0 5.956-.552 7.593 1.085.256.256-.2.784 0 1.085.567.85 1.602 1.318 2.17 2.17.2.3-.256.828 0 1.084.255.255.76-.162 1.084 0 .457.229.66.8 1.085 1.085.432.288 4.26 2.051 4.339 2.169.401.602-.324 1.523 0 2.17.162.323.829-.256 1.085 0 .571.571.513 1.597 1.084 2.169.316.316 3.809-.354 4.34 0 .026.018 4.105 3.873 4.338 4.339.162.323-.161.761 0 1.085.229.457.723.723 1.085 1.085.362.361.627.856 1.085 1.084.43.215 3.032-.222 3.254 0 .256.256 0 .723 0 1.085V360.847c0 .724.323 1.523 0 2.17-.162.323-.761-.162-1.085 0-.457.229-.627.856-1.084 1.085-.647.323-1.484-.229-2.17 0-.767.255-1.402.829-2.17 1.084-.342.115-.829-.255-1.084 0-.256.256.255.83 0 1.085-.256.256-.723 0-1.085 0H226.712c-.362 0-1.085.362-1.085 0 0-.361 1.446 0 1.085 0H208.27c-.361 0-.742-.114-1.085 0-.767.256-1.402.83-2.169 1.085-.647.216-5.458 0-6.509 0H165.967c-.492 0-6.22-.145-6.51 0-.457.229-.627.856-1.084 1.085-.324.161-.723 0-1.085 0H117.152c-.723 0-1.467.175-2.169 0-1.11-.278-2.145-.808-3.254-1.085-.446-.111-2.038.131-2.17 0-.255-.256.256-.83 0-1.085-.043-.044-3.94 0-4.339 0-.723 0-1.468.176-2.17 0-1.108-.277-2.132-.86-3.253-1.085-.71-.141-1.447 0-2.17 0h-3.254c-.723 0-1.523.324-2.17 0-.323-.161.256-.829 0-1.084-2.244-2.245.088 3.43-2.17-1.085-.16-.323-.36-1.085 0-1.085.362 0 .362 1.085 0 1.085-2.56 0-.22-1.521-1.084-2.17-.999-.75-2.29-.997-3.436-1.496z" fill="#ffc600"/><path d="M93.288 367.356H88.95c-6.169 0-.714-.485-5.424 1.085-.631.21-5.762 0-6.508 0-.362 0-.742-.115-1.085 0-.767.255-1.402.829-2.17 1.084-.685.23-1.446 0-2.169 0H66.17c-.49 0-6.219.145-6.508 0-.457-.228-.627-.856-1.085-1.084-.647-.324-1.522.323-2.17 0-.914-.458-1.254-1.712-2.169-2.17-.647-.323-1.658.512-2.17 0-.255-.255.256-.829 0-1.085-.51-.51-1.567.402-2.169 0-.85-.567-1.318-1.602-2.17-2.169-.48-.32-4.813.305-5.423 0-.323-.162 0-.723 0-1.085v-7.593c0-4.344.323-.276-2.17-6.508-.134-.336.115-.742 0-1.085-.255-.767-.828-1.403-1.084-2.17-.114-.343 0-.723 0-1.084-.362-.724-.83-1.403-1.085-2.17-.249-.746.32-2.614 0-3.254-.229-.458-.923-.6-1.085-1.085-.228-.686 0-1.446 0-2.17v-2.169-9.763-6.508c0-.362-.255-.83 0-1.085.256-.256.83.256 1.085 0 .256-.256-.162-.761 0-1.085.229-.457.801-.659 1.085-1.084 2.188-3.282-.019-1.057 2.17-4.34.283-.425.855-.627 1.084-1.084.165-.33 0-2.766 0-3.254v-8.678-19.526-6.508-2.17c0-.361-.162-.761 0-1.084.229-.458.856-.628 1.085-1.085.165-.33 0-2.766 0-3.254v-10.848-26.034-9.762c0-.874-.227-3.659 0-4.34.256-.766.829-1.402 1.085-2.169.228-.686-.324-1.523 0-2.17.228-.457.856-.627 1.084-1.084.162-.324 0-.723 0-1.085v-1.085c0-.92-.199-5.91 0-6.508.162-.485.856-.628 1.085-1.085.165-.33 0-2.766 0-3.254v-7.593c0-.258.122-4.096 0-4.34-.229-.457-.856-.627-1.085-1.084-.311-.623.291-5.635 0-6.509-.323-.97-1.846-1.199-2.17-2.17-.457-1.371.648-3.044 0-4.338-.457-.915-1.711-1.255-2.169-2.17-.485-.97 0-2.169 0-3.254v-6.508-24.95-30.372-4.34V94c0-.362-.255-.83 0-1.085.512-.511 1.658.512 2.17 0 .256-.255-.256-.829 0-1.084.043-.044 3.94 0 4.339 0h2.17c.36 0 1.084-.362 1.084 0 0 .361-1.446 0-1.085 0H100.881c.362 0 .923.323 1.085 0 .324-.647-.511-1.659 0-2.17.511-.511 1.446 0 2.17 0H111.729c.361 0 .761-.162 1.085 0 .457.229.627.856 1.084 1.085.647.323 1.523-.324 2.17 0 .457.228.627.856 1.085 1.085.323.161.723 0 1.084 0h31.458c.693 0 6.195-.157 6.508 0 3.409 1.704.728 2.531 4.34 3.254.63.126 6.24-.134 6.508 0 .723.361.513 1.598 1.085 2.17.26.26 4.078-.262 4.339 0 .255.255-.256.828 0 1.084.255.256.723 0 1.084 0h11.933c.605 0 4.927.166 5.423 0 .485-.162.628-.856 1.085-1.085.64-.32 2.508.249 3.254 0 .767-.255 1.403-.829 2.17-1.085.686-.228 1.522.324 2.17 0 .457-.228.599-.923 1.084-1.084.686-.229 1.446 0 2.17 0h10.847c4.237 0 .114.323 4.339-1.085.68-.227 3.466 0 4.339 0 .873 0 3.658-.227 4.339 0 .767.256 1.385.889 2.17 1.085.7.175 1.446 0 2.169 0h7.593c1.085 0 2.284-.485 3.254 0 .324.161-.255.829 0 1.084.256.256.723 0 1.085 0H286.373c.361 0 .761.162 1.085 0 .914-.457 1.254-1.712 2.17-2.169.284-.143 3.77 0 4.338 0h1.085c.361 0 1.085-.362 1.085 0s-1.447 0-1.085 0c.723 0 1.523-.323 2.17 0 .323.162.36 1.085 0 1.085-.362 0-.362-1.085 0-1.085.51 0 .722.723 1.084 1.085.362.361.856.627 1.085 1.084.434.868-.434 2.387 0 3.255.229.457.856.627 1.085 1.084.161.324 0 .724 0 1.085v7.593c0 .724-.176 1.468 0 2.17.277 1.11.807 2.145 1.084 3.254.176.702 0 1.447 0 2.17v4.339c0 .361.362 1.084 0 1.084-.361 0 0-1.446 0-1.084v74.847c0 1.185-.234 4.722 0 5.424.256.767.83 1.402 1.085 2.17.227.68 0 3.465 0 4.338v16.271c0 1.085.343 2.226 0 3.255-.162.485-.856.627-1.085 1.084-.161.324 0 .724 0 1.085v9.763c0 .723.324 1.523 0 2.17-.161.323-.829-.256-1.084 0-.256.255 0 .723 0 1.084V257.797c0 .712.204 2.642 0 3.254-.256.767-.83 1.402-1.085 2.17-.216.646 0 5.457 0 6.508 0 .361.162.761 0 1.085-.229.457-.856.627-1.085 1.084-.232.464 0 4.995 0 5.424v48.814c0 .361.162.76 0 1.084-.229.458-.856.628-1.085 1.085-.346.693.291 3.466 0 4.34-.255.766-.829 1.402-1.084 2.169-.217.65 0 4.558 0 5.423v13.017c0 .489-.165 2.924 0 3.254.228.458.856.628 1.084 1.085.162.324 0 .723 0 1.085v10.848c0 .723.324 1.522 0 2.169-.161.323-.829-.256-1.084 0-.256.256.361 1.085 0 1.085-.512 0-.6-.923-1.085-1.085-.686-.229-1.523.323-2.17 0-.323-.162.256-.83 0-1.085-.255-.256-.761.162-1.084 0-.915-.457-1.319-1.602-2.17-2.17-.673-.448-1.497-.636-2.17-1.084-.425-.284-.627-.856-1.084-1.085-.463-.231-4.995 0-5.424 0h-20.61c-.567 0-4.054-.142-4.339 0-.457.229-.627.856-1.085 1.085-.323.162-.723 0-1.084 0h-5.425c-.36 0-.828.256-1.084 0-.256-.256 0-.723 0-1.085v-1.085-11.932-4.339-1.084c0-.362-.362-1.085 0-1.085s.362 1.085 0 1.085c-2.167 0-.438-2.608-1.085-3.255-2.244-2.244.088 3.43-2.17-1.084-.16-.324.162-.762 0-1.085-.228-.458-.855-.628-1.084-1.085-.162-.323.256-.829 0-1.085-.256-.255-.829.256-1.085 0-.255-.255.256-.829 0-1.084-2.244-2.245.088 3.43-2.17-1.085-.16-.324.256-.83 0-1.085-.255-.256-.783.2-1.084 0-.85-.567-1.318-1.602-2.17-2.17-.3-.2-.76.162-1.084 0-.458-.228-.628-.855-1.085-1.084-.323-.162-.761.162-1.085 0-4.964-2.482 4.603.45-3.254-2.17-.343-.114-.742.115-1.085 0-.767-.255-1.385-.888-2.17-1.084-.7-.176-1.46.141-2.169 0-1.12-.225-2.145-.808-3.254-1.085-.35-.088-.761.162-1.085 0-.457-.229-.627-.856-1.084-1.085-.682-.34-3.658.341-4.34 0-.457-.229-.627-.856-1.084-1.085-.323-.161-.761.162-1.085 0-.457-.228-.6-.923-1.085-1.084-4.938 0-.062.511-3.254-1.085-.323-.162-.829.256-1.085 0-.255-.256.256-.83 0-1.085-.571-.572-1.597-.513-2.17-1.085-.255-.255.202-.784 0-1.084-.566-.851-1.601-1.319-2.169-2.17-.2-.3.115-.742 0-1.085-2.619-7.857.313 1.71-2.169-3.254-.323-.647.401-1.568 0-2.17-.567-.85-1.712-1.254-2.17-2.169-.646-1.293.351-2.936 0-4.339-1.31-5.238-.515.054-2.169-3.254-.028-.057-.028-3.198 0-3.254 1.464-2.928.486.037 2.17-1.085.85-.567 1.254-1.712 2.169-2.17.647-.323 1.658.512 2.17 0 .51-.51-.324-1.522 0-2.169.161-.323.741.114 1.084 0 .767-.256 1.598-.513 2.17-1.085.255-.255-.256-.829 0-1.085.168-.168 2.832.141 3.254 0 .767-.255 1.402-.829 2.17-1.084.685-.229 1.658.511 2.169 0 .256-.256-.256-.83 0-1.085.256-.256.761.162 1.085 0 .457-.229.723-.723 1.084-1.085.362-.361.923-.6 1.085-1.085.229-.686-.323-1.522 0-2.169.162-.323.83.256 1.085 0 .256-.256-.114-.742 0-1.085.256-.767.829-1.402 1.085-2.17.114-.342-.362-1.084 0-1.084.361 0 0 1.446 0 1.085 0-.723-.324-1.523 0-2.17.161-.323.829.256 1.084 0 .256-.255-.255-.829 0-1.084.572-.572 1.598-.514 2.17-1.085.511-.512-.511-1.658 0-2.17.256-.255.829.256 1.085 0 .255-.255-.256-.829 0-1.084.255-.256.923.323 1.084 0 .324-.647 0-1.447 0-2.17v-6.508-2.17c0-.361-.114-.742 0-1.085 1.409-4.224 1.085-.101 1.085-4.339v-2.17c0-.722-.323-1.522 0-2.169.162-.323.923.324 1.085 0 .323-.646-.229-1.483 0-2.17 1.128-3.385.723.362 2.17-1.084.221-.222-.216-2.824 0-3.254.228-.457.855-.627 1.084-1.085.324-.647-.323-1.523 0-2.17 1.112-2.223 2.89.005 4.34-2.169.4-.602-.23-1.483 0-2.17.24-.723 4.007-3.677 4.338-4.338.323-.647 0-1.447 0-2.17v-5.424c0-.361-.162-.76 0-1.084.583-1.166 1.685-2.044 2.17-3.255.402-1.007 0-2.169 0-3.254v-8.678-8.678c0-.918.194-3.755 0-4.339-.162-.485-.857-.627-1.085-1.084-.324-.647.323-1.523 0-2.17-.229-.457-.856-.627-1.085-1.085-.162-.323.162-.761 0-1.084-.229-.458-.856-.628-1.085-1.085-.323-.647.324-1.523 0-2.17-.228-.457-.8-.659-1.084-1.084-1.336-2.003-1.92-4.506-3.255-6.509-.283-.425-.856-.627-1.084-1.085-.162-.323 0-.723 0-1.084-.362-.723-.637-1.497-1.085-2.17-1.411-2.116-.524-.536-2.17-1.085a9.178 9.178 0 0 1-2.17-1.084c-2.148.108-.512-1.598-1.084-2.17-.572-.572-1.497-.636-2.17-1.085-.425-.283-.627-.856-1.084-1.084-.324-.162-.761.161-1.085 0-.828-.415-2.52-3.01-3.254-3.255-.686-.228-1.523.324-2.17 0-.323-.161.162-.76 0-1.084-.103-.208-4.13-4.235-4.339-4.34-.323-.161-.76.162-1.084 0-.915-.457-1.255-1.711-2.17-2.169-.323-.161-.784.2-1.085 0-.85-.567-1.446-1.446-2.17-2.17-.36-.36-.855-.627-1.084-1.084-.165-.33 0-2.766 0-3.254v-7.593-6.509c0-.362.256-.829 0-1.085-.255-.255-.829.256-1.085 0-.255-.255.256-.829 0-1.084-.255-.256-.829.255-1.084 0-.169-.169.14-2.833 0-3.255l-1.085-2.17c-.362 0-.83.257-1.085 0-.255-.255.162-.76 0-1.084-.228-.457-.856-.627-1.085-1.085-.161-.323 0-.723 0-1.084-.361-.724-.636-1.497-1.084-2.17-.284-.425-.856-.627-1.085-1.085-.162-.323.256-.829 0-1.084-.256-.256-.742.114-1.085 0-.767-.256-1.402-.83-2.17-1.085-.342-.114-.722 0-1.084 0-1.281 0-5.863.215-6.508 0-.086-.029-3.226-3.17-3.255-3.254-.228-.686.229-1.484 0-2.17-.161-.485-.856-.627-1.084-1.085-1.336-2.671 3.148.98-1.085-3.254-.256-.256-.723 0-1.085 0s-.829-.256-1.085 0c-.255.256.256.83 0 1.085-.511.511-1.567-.401-2.17 0-3.637 2.425-.717 2.17-3.253 2.17h-8.678c-.362 0-1.085.361-1.085 0 0-.362 1.446 0 1.085 0h-2.17c-.263 0-3.22-.035-3.254 0-.572.571-.513 1.597-1.085 2.169-.256.256-.723 0-1.085 0-.723 0-1.567-.401-2.17 0-.672.448-.512 1.598-1.084 2.17-.256.255-.829-.256-1.085 0-.255.255.162.76 0 1.084-.228.457-.856.628-1.084 1.085-.162.323.255.829 0 1.085-.256.255-.83-.256-1.085 0-.572.571-.513 1.597-1.085 2.17-.256.255-.829-.257-1.085 0-.255.255.256.828 0 1.084-4.233 4.233-.582-.251-3.254 1.085-.457.228-.6.923-1.085 1.084-.005.002-3.253 0-3.254 0-4.233 4.234.251.583-1.085 3.255-.228.457-.856.627-1.084 1.084-.324.647.323 1.523 0 2.17-.229.457-.856.627-1.085 1.085-.162.323.162.76 0 1.084-.229.458-.856.628-1.085 1.085-.161.323.362 1.085 0 1.085-.361 0 0-1.447 0-1.085v16.271c0 .362.256.83 0 1.085-.922.922-2.406 1.18-3.254 2.17-13.81 16.11 1.577-.295-4.339 7.593-.614.818-1.602 1.318-2.17 2.17-.2.3.201.783 0 1.084l-2.169 2.17c0 .361.162.76 0 1.084-.446.893-3.804 3.537-4.339 4.34-.2.3.256.828 0 1.084-.256.256-.829-.256-1.085 0-.571.572-.513 1.598-1.084 2.17-.572.571-1.598.512-2.17 1.084-.572.572-.513 1.598-1.085 2.17-.255.255-.761-.162-1.084 0-.458.228-.724.723-1.085 1.084-.362.362-.723 1.447-1.085 1.085-.362-.361 1.085-1.596 1.085-1.085 0 .809-.412 1.721-1.085 2.17-.602.401-1.568-.401-2.17 0-.672.448-.512 1.598-1.084 2.17-.256.255-.83-.256-1.085 0-.572.571-.513 1.597-1.085 2.169-.255.256-.829-.256-1.084 0-.572.572-.637 1.497-1.085 2.17-.567.85-1.712 1.254-2.17 2.169-.161.323 0 .723 0 1.085v3.254c0 .723.724 2.17 0 2.17-.723 0 0-2.893 0-2.17V229.593c0 2.275-.604 5.904 1.085 7.593.256.256.83-.255 1.085 0 .256.256 0 .724 0 1.085.723 0 1.523-.323 2.17 0 .323.162-.201.784 0 1.085.567.85 1.446 1.446 2.169 2.17.361.361.627.855 1.085 1.084.323.162 1.084-.361 1.084 0 0 .362-1.408-.162-1.084 0l3.254 1.085c.361.362.627.856 1.085 1.085.323.161.829-.256 1.084 0 .572.571.83 1.402 1.085 2.17.235.705 0 6.684 0 7.592v1.085c0 .362-.162.761 0 1.085.229.457.923.6 1.085 1.085.165.496 0 4.818 0 5.423v1.085c0 .362-.162.761 0 1.085.228.457.856.627 1.085 1.085.161.323 0 .723 0 1.084 0 .723-.176 1.468 0 2.17.196.784.829 1.402 1.084 2.17.229.685-.228 1.483 0 2.169.256.767.83 1.402 1.085 2.17.229.685-.229 1.483 0 2.169.256.767.83 1.402 1.085 2.17.114.342-.162.76 0 1.084.228.457 1.446.723 1.085 1.085-.362.361-1.597-1.085-1.085-1.085.808 0 1.446.723 2.17 1.085.722.361 1.597.513 2.169 1.085.255.255-.256.829 0 1.084.289.29 4.982-.294 5.423 0 .673.449.514 1.598 1.085 2.17.001 0 3.25-.002 3.254 0 .486.161.724.723 1.085 1.084.362.362.856.628 1.085 1.085.162.324-.162.762 0 1.085 2.257 4.514-.075-1.16 2.17 1.085.255.255-.256.829 0 1.084.255.256.829-.255 1.084 0 .256.256 0 .724 0 1.085 0 .723-.323 1.523 0 2.17.162.323.742-.115 1.085 0 .767.255 1.402.829 2.17 1.084.342.115.76-.161 1.084 0 2.399 1.2.337.674 1.085 2.17.229.457.856.627 1.085 1.085.161.323 0 .723 0 1.084v1.085c0 .567.142 4.054 0 4.34-.229.457-.856.627-1.085 1.084-.162.323.114.742 0 1.085-.256.767-.889 1.385-1.085 2.17-.443 1.773.825 2.299-1.085 3.253-.323.162-.76-.161-1.084 0-.915.458-1.255 1.713-2.17 2.17-.647.323-1.658-.511-2.17 0-.255.256.162.761 0 1.085-.457.914-1.711 1.254-2.169 2.17-.323.646.512 1.657 0 2.169-.255.255-.742-.115-1.085 0-.767.255-1.807 1.808-2.169 1.084-.362-.723 2.741-1.656 2.17-1.084-.922.921-2.473 1.126-3.255 2.17-.434.578 0 1.445 0 2.169v8.678c0 1.552.512 2.456-1.085 3.254-.693.346-3.465-.291-4.338 0-.768.255-1.403.829-2.17 1.085-1.16.386-4.507-.459-5.424 0-.323.161.256.829 0 1.084-.133.133-2.86-.098-3.254 0-1.11.278-2.145.808-3.254 1.085-1.008.252-4.778-.323-5.424 0-.457.229-.627.856-1.085 1.085-.323.161-.723 0-1.084 0h-2.17c-1.845 0-3.937-.403-5.424 1.085-.255.255.256.829 0 1.084-.255.256-.829-.255-1.084 0-.035.035 0 2.991 0 3.255v7.593c0 .361.161.761 0 1.084-.23.458-.856.628-1.085 1.085-.028.057-.028 3.198 0 3.254.453.906 2.345 1.73 2.17 2.17-.672 1.679-3.255 2.531-3.255 4.339 0 3.09 2.367 5.719 3.254 8.678.208.693.324 1.523 0 2.17-.161.323-1.084.361-1.084 0 0-.362 1.084.361 1.084 0 0-.512-.856-.628-1.084-1.085-.198-.396 0-4.8 0-5.424" fill="#ffe070"/><path fill="#fff" fill-rule="evenodd" d="M82.441 371.695h43.39v10.847h-43.39z"/><path d="M333.017 231.763c-.369-2.094-7.217-.598-8.678-1.085-.97-.323-1.2-1.846-2.17-2.17-.583-.194-3.42 0-4.338 0h-11.933c-.723 0-1.522.324-2.17 0-.323-.161.163-.76 0-1.084-.228-.458-.855-.628-1.084-1.085-.323-.647.511-1.658 0-2.17-.256-.255-.829.256-1.085 0-.542-.542.543-2.711 0-3.254-.571-.571-1.72-.412-2.17-1.084-.208-.314 0-5.634 0-6.509v-18.44-21.696-7.593c0-.258-.12-4.096 0-4.339.23-.457.857-.627 1.086-1.085.294-.588-.297-4.042 0-4.338.255-.256.923.323 1.084 0 .485-.97 0-2.17 0-3.255v-8.678-24.949-19.525c0-.43-.231-4.96 0-5.424 1.2-2.398.674-.337 2.17-1.085.457-.228.627-.856 1.085-1.084.64-.32 2.508.248 3.254 0 .767-.256 1.402-.83 2.17-1.085.68-.227 3.465 0 4.338 0h9.763c1.142 0 4.525.224 5.424 0 1.109-.278 2.145-.808 3.254-1.085 1.545-.386 3.969.485 5.424 0 .485-.162.6-.923 1.084-1.085 1.03-.343 2.17 0 3.255 0H356.88c.713 0 2.643.204 3.255 0 .767-.255 1.402-.829 2.17-1.084.342-.115.722 0 1.084 0h15.187c.722 0 1.483-.23 2.169 0 .767.255 1.385.888 2.17 1.084.804.202 4.005-.333 4.338 0 .256.256-.255.83 0 1.085.256.256.723 0 1.085 0h7.593c1.447 0 2.907-.205 4.34 0 1.131.162 2.144.807 3.253 1.085.351.087.724 0 1.085 0h13.017c.723 0 1.484-.229 2.17 0 1.534.511 2.837 1.569 4.339 2.17.495.197 3.608 0 4.339 0h14.102c.36 0 .741-.115 1.084 0 .767.255 1.402.828 2.17 1.084.873.291 3.645-.347 4.338 0 .458.229.6.923 1.085 1.085.496.165 3.857-.242 4.34 0 .457.228.627.856 1.084 1.084.238.12 6.428.027 6.508 0 .486-.161.628-.856 1.085-1.084.324-.162 1.085-.362 1.085 0 0 .361-1.446 0-1.085 0 .258 0 4.096-.122 4.34 0 4.514 2.257-1.16-.075 1.084 2.17.256.255.829-.256 1.085 0 .255.255-.162.76 0 1.084.228.457.856.627 1.084 1.085.162.323 0 .723 0 1.084v2.17c0 1.84.406 3.933-1.084 5.424-.256.255-.83-.256-1.085 0-.256.255 0 .723 0 1.084V222c0 .362.256.83 0 1.085s-.923-.324-1.085 0c-.485.97 0 2.17 0 3.254 0 .362.324.923 0 1.085-.537.268-3.83-.339-4.339 0-.85.567-1.255 1.712-2.17 2.17-.46.23-4.514 0-5.423 0h-7.593c-1.085 0-2.19.212-3.254 0-1.122-.225-2.145-.808-3.255-1.086-.393-.098-3.121.133-3.254 0-.256-.255.256-.829 0-1.084-.222-.222-2.824.215-3.254 0-.458-.229-.628-.856-1.085-1.085-.323-.162-.829.256-1.085 0-.255-.256 0-.723 0-1.085v-1.085-7.593-1.084c0-.362.256-.83 0-1.085-.255-.256-.923.323-1.084 0-.324-.647.228-1.484 0-2.17-.162-.485-.857-.627-1.085-1.084-.162-.324.162-.762 0-1.085-.566-1.132-2.624-1.716-2.17-2.17.362-.361 1.542 1.314 1.085 1.085-1.166-.583-2.044-1.685-3.254-2.17-.672-.268-1.484.23-2.17 0-.97-.323-1.254-1.712-2.17-2.169-.323-.162-.828.256-1.084 0-.256-.256.256-.829 0-1.085-.16-.16-3.254.128-3.254 0 0-.361 1.085.362 1.085 0 0-.511-.724-.723-1.085-1.084-.362-.362-.6-.923-1.085-1.085-.738-.246-4.848.287-5.424 0-.457-.229-.627-.856-1.084-1.085-.647-.323-1.523.323-2.17 0-.915-.457-1.255-1.712-2.17-2.17-.323-.161-.722 0-1.084 0-.362-.361-.627-.855-1.085-1.084-.647-.324-1.658.511-2.17 0-.255-.256.256-.83 0-1.085-.255-.256-.828.256-1.084 0-.256-.256 0-.723 0-1.085v-2.17-8.677-2.17c0-.723-.229-1.483 0-2.17.323-.97 1.712-1.254 2.17-2.169.161-.323-.256-.829 0-1.084.255-.256.76.161 1.084 0 .915-.458 1.255-1.712 2.17-2.17 1.496-.748.97 1.314 2.17-1.085.16-.323 0-.723 0-1.084v-2.17-5.424-7.593-3.254c0-.362-.362-1.085 0-1.085.36 0 0 1.447 0 1.085 0-.258.12-4.096 0-4.339-.23-.457-.857-.627-1.086-1.085-.323-.647.324-1.522 0-2.17-.228-.457-.856-.627-1.084-1.084-.32-.64.248-2.508 0-3.254-.256-.767-.83-1.403-1.085-2.17-.114-.343.162-.761 0-1.084-1.34-2.681-1.085.374-1.085-2.17v-1.085c0-.723-.723-2.17 0-2.17s.229 2.856 0 2.17c-1.155-3.467-1.085-4.033-1.085-6.508 0-.723.23-1.484 0-2.17-.161-.485-1.446-.723-1.084-1.084.361-.362 1.446 1.446 1.084 1.084-.723-.723-1.318-1.602-2.17-2.17-.211-.14-4.928 0-5.423 0-1.503 0-5.319-.237-6.508 0-1.121.225-2.133.861-3.255 1.086-1.063.212-2.201-.263-3.254 0-1.109.277-2.145.807-3.254 1.084-1.085.272-2.17-.542-3.254 0-2.893 1.447 3.254 1.085-1.085 1.085-.398 0-4.295-.043-4.339 0-.256.256.162.761 0 1.085-.229.457-.723 1.446-1.085 1.085-.361-.362 1.596-1.085 1.085-1.085-9.444 0-1.405.32-3.254 2.17-.256.255-.762-.162-1.085 0-.457.228-.627.855-1.085 1.084-1.023 2.69-2.924.613-4.339 1.085-1.715.571-3.33 1.74-4.339 3.254-.107.162 0 2.898 0 3.254v6.509c0 .488.165 2.924 0 3.254-.228.457-.856.627-1.084 1.085-.165.33 0 2.765 0 3.254v7.593c0 .618-.074 4.228 0 4.34.448.672 1.597.512 2.17 1.084.255.256 0 .723 0 1.085 0 .723-.324 1.522 0 2.17.16.323.76-.163 1.084 0 1.291.645 1.514 2.169 1.085 2.169-.362 0-.162-1.408 0-1.085.511 1.023.66 2.193 1.084 3.254.3.75.889 1.385 1.085 2.17.192.768-.274 5.012 0 5.423l2.17 2.17c0 .361-.162.761 0 1.085.228.457.723.723 1.084 1.084.362.362.628.856 1.085 1.085.323.162.83-.256 1.085 0s-.162.761 0 1.085c.229.457.856.627 1.085 1.085.161.323 0 .723 0 1.084 0 .362.361 1.085 0 1.085-.362 0 .361-1.085 0-1.085-.35 0-1.567 1.868-2.17 2.17-.323.162-.761-.162-1.085 0-.457.229-.627.856-1.084 1.085-.647.323-1.659-.512-2.17 0-.572.571-.513 1.597-1.085 2.17-.255.255-.829-.257-1.084 0-.256.255.161.76 0 1.084-.23.457-.801.66-1.085 1.085-.449.672-.513 1.597-1.085 2.17-.542.541-2.712-.543-3.254 0-.256.255.256.828 0 1.084-.262.262-4.56-.288-5.424 0-7.857 2.619 1.71-.313-3.254 2.17-.64.32-2.508-.25-3.254 0-.723.36-1.447.722-2.17 1.084 0 .362.256.83 0 1.085s-.761-.162-1.085 0c-2.398 1.199-.336.673-1.084 2.17-.229.457-.856.627-1.085 1.084-.434.868.434 2.386 0 3.254-.457.915-1.712 1.255-2.17 2.17-.161.323 0 .723 0 1.085V223.085c0 .361.162.761 0 1.084-.228.458-.856.628-1.084 1.085-.162.324.161.762 0 1.085-2.108 4.215-1.085-5.387-1.085 5.424z" fill="#ffc600"/><path d="M324.944 359.351c-.563 1.945-.82 4.007-1.69 5.835-.063.134-3.199 0-4.339 0h-10.847c-.489 0-2.924.166-3.254 0-1.597-.798-1.085-1.702-1.085-3.254v-2.17-7.593c0-1.324.42-2.5-1.085-3.254-3.254-1.627 1.808 3.616-1.085-2.17-.457-.914-1.602-1.318-2.17-2.169-.155-.233 0-3.64 0-4.339V329.39v-6.509c0-.723.23-1.483 0-2.17-2.618-7.856.314 1.711-2.169-3.253-.165-.33 0-3.59 0-4.34v-9.762-32.542-14.102-5.424c0-.723-.228-1.483 0-2.17.256-.766.83-1.402 1.085-2.169.347-1.04-.335-4.419 0-5.424.162-.485.856-.627 1.085-1.084.34-.682-.341-3.658 0-4.34 1.34-2.68 1.085.375 1.085-2.169 0-2.892-.362.362 1.084-1.085.256-.255-.323-.923 0-1.084.647-.324 1.447 0 2.17 0h13.017c.361 0 .761.161 1.085 0 .457-.229.627-.856 1.084-1.085.324-.162.742.114 1.085 0 .767-.256 1.402-.83 2.17-1.085.343-.114.723 0 1.084 0 1.022 0 4.807.206 5.424 0 .485-.161.627-.856 1.085-1.085.493-.246 5.187.06 5.423 0 .497-.124.628-.856 1.085-1.084.28-.14 5.74 0 6.509 0 .723 0 2.17-.723 2.17 0s-2.894 0-2.17 0h9.763c.36 0 .741-.115 1.084 0 .767.255 1.403.829 2.17 1.084 1.306.436 1.948-.435 3.254 0 .485.162.627.857 1.085 1.085.323.162.723 0 1.084 0h6.509c1.085 0 2.202-.263 3.254 0 .496.124.6.923 1.085 1.085.686.229 1.446 0 2.17 0H418.711c.723 0 1.483-.229 2.17 0 .484.162.588.96 1.084 1.085 1.052.263 2.17 0 3.254 0h8.678c1.085 0 2.284-.485 3.255 0 .323.161-.343.97 0 1.084 1.029.343 2.19-.212 3.254 0 .793.159 1.376.927 2.17 1.085 1.772.355 3.615 0 5.423 0 .723 0 1.483-.228 2.17 0 .485.162 1.446.723 1.084 1.085-.361.362-1.596-1.085-1.085-1.085.809 0 1.403.83 2.17 1.085.343.114.723 0 1.085 0h6.508c1.085 0 2.225.343 3.254 0 .486-.162.628-.856 1.085-1.085.324-.161.723 0 1.085 0s.829-.255 1.085 0c.255.256-.162.762 0 1.085.228.457.856.627 1.084 1.085.162.323-.161.761 0 1.084.23.458.856.628 1.085 1.085.324.647-.323 1.523 0 2.17.229.457.856.627 1.085 1.084.196.393 0 4.67 0 5.424v1.085c0 .361.361 1.085 0 1.085-.362 0 0-1.447 0-1.085v10.848c0 .36-.114.741 0 1.084.256.767.829 1.403 1.085 2.17.204.612 0 2.541 0 3.254v9.763c0 .873-.227 3.658 0 4.339.255.767.829 1.402 1.084 2.169.343 1.03-.263 2.202 0 3.254.196.785.83 1.403 1.085 2.17.227.68 0 3.465 0 4.339v20.61c0 .429.232 4.96 0 5.424-.229.457-.856.627-1.085 1.084-.346.694.291 3.466 0 4.34-.255.766-.829 1.402-1.084 2.169-.228.683 0 4.446 0 5.424v17.356c0 .59.177 3.43-1.085 2.169-.362-.362 1.085-1.596 1.085-1.085 0 .809-.889 1.385-1.085 2.17-.175.701.323 1.522 0 2.17-.162.323-.923-.324-1.085 0-.488.975.488 5.532 0 6.508-.323.647-1.523-.324-2.17 0-.457.228-.722.723-1.084 1.084-.723.724-1.602 1.319-2.17 2.17-.2.3.115.742 0 1.085-.255.767-.668 1.476-1.084 2.17l-2.17 3.253c-.361 0-.829-.255-1.085 0-.571.572-.513 1.598-1.084 2.17-.256.256-.723 0-1.085 0-.58 0-5.113.155-5.424 0-.457-.229-.627-.856-1.085-1.085-.43-.215-3.032.222-3.254 0-.255-.256.256-.829 0-1.085-.511-.51-1.522.324-2.17 0-.457-.228-.659-.8-1.084-1.084-.202-.135-4.27-2.1-4.339-2.17-.256-.255.256-.829 0-1.085l-2.17-1.084c0-.362.256-.83 0-1.085-.255-.256-.829.256-1.084 0-.169-.168.14-2.832 0-3.254-2.62-7.858.313 1.71-2.17-3.255-.161-.323.162-.76 0-1.084-.228-.458-.856-.628-1.084-1.085-.162-.323.161-.761 0-1.085-.23-.457-.857-.627-1.085-1.085-.324-.646.511-1.658 0-2.169-.256-.256-.83.256-1.085 0-.168-.168.14-2.832 0-3.254-2.619-7.857.313 1.71-2.17-3.254-.161-.324.256-.83 0-1.085-.255-.256-1.084.361-1.084 0 0-.362 1.34.255 1.085 0-4.234-4.234-.583.25-3.255-1.085-.457-.229-.627-.856-1.084-1.085-.647-.323-1.523.324-2.17 0-.457-.228-.627-.856-1.085-1.084-.681-.341-3.657.34-4.339 0-.323-.162.256-.83 0-1.085-.255-.256-.723 0-1.084 0h-5.424c-.362 0-.83.255-1.085 0-.572-.572-.513-1.598-1.085-2.17-.21-.21-5.027.198-5.423 0-.915-.457-1.319-1.602-2.17-2.17-.3-.2-.761.163-1.085 0-2.191-1.095-.364-2.176-1.084-4.338-.115-.343-.923.323-1.085 0-.323-.647.175-1.468 0-2.17-.196-.784-.83-1.402-1.085-2.17-.114-.342.162-.76 0-1.084-.228-.457-.856-.627-1.085-1.085-.028-.056-.028-3.197 0-3.254a2.486 2.486 0 0 1 1.085-1.085c.868-.434 2.387.434 3.254 0 .458-.228.628-.856 1.085-1.084.647-.324 1.523.323 2.17 0 2.469-2.47-.225-.287 2.17-1.085.766-.256 1.445-.723 2.169-1.085.723-.361 1.597-.513 2.17-1.085.255-.255-.362-1.084 0-1.084.36 0 0 1.446 0 1.084v-17.356-2.169c0-.362-.257-.83 0-1.085.255-.255.828.256 1.084 0 .256-.255 0-.723 0-1.085v-7.593c0-.361.256-.829 0-1.084-.256-.256-.83.255-1.085 0-.256-.256 0-.724 0-1.085 0-.755.196-5.032 0-5.424-.457-.915-1.846-1.2-2.17-2.17-.384-1.152.385-3.186 0-4.338-2.618-7.858.313 1.71-2.169-3.255-.323-.646.401-1.567 0-2.17-.567-.85-1.602-1.318-2.17-2.169-.2-.3.256-.829 0-1.084-.005-.006-3.217.009-3.254 0-5.632-1.409 1.158-1.085-4.339-1.085-1.084 0-2.284.485-3.254 0-.323-.162.256-.83 0-1.085-.255-.256-.723 0-1.085 0h-4.339c-.361 0-.76-.162-1.084 0-.458.229-.66.801-1.085 1.085-.673.448-1.446.723-2.17 1.085-.723.361-1.402.829-2.169 1.084-.343.115-.723 0-1.085 0-.361.362-.627.856-1.084 1.085-.324.162-.83-.256-1.085 0-.256.256.255.83 0 1.085-.512.511-1.523-.324-2.17 0-.457.229-.627.856-1.084 1.085-.324.161-.724 0-1.085 0-.723 0-1.484-.23-2.17 0-.485.161-.627.856-1.084 1.084-.43.215-3.033-.221-3.255 0-.255.256.162.762 0 1.085-2.257 4.515.075-1.16-2.17 1.085-.255.255.257.829 0 1.085-.255.255-.828-.256-1.084 0-.256.255.323.923 0 1.084-2.07 1.035-2.09-1.243-3.254 1.085-.324.647.323 1.523 0 2.17-.229.457-.923.6-1.085 1.084-.343 1.03 0 2.17 0 3.255 0 .488.165 2.924 0 3.254-.229.457-.856.627-1.085 1.085-.336.671.321 4.018 0 4.338-.255.256-.829-.255-1.084 0-.035.035 0 2.992 0 3.255v8.678c0 .567-.143 4.053 0 4.339.228.457.856.627 1.084 1.084.162.324 0 .724 0 1.085 0 .723-.228 1.484 0 2.17 1.129 3.386.724-.362 2.17 1.084.511.512-.324 1.523 0 2.17.229.457.856.627 1.085 1.085.346.692-.334 4.756 0 5.423.161.324.829-.255 1.084 0 .256.256 0 .724 0 1.085 0 1.612-.264 2.99 1.085 4.34.511.51 1.523-.324 2.17 0 .457.228.627.855 1.084 1.084.324.162.83-.256 1.085 0 .256.256-.162.761 0 1.085.229.457.856.627 1.085 1.084.162.324.361 1.085 0 1.085-.362 0 0-1.446 0-1.085v4.34c0 .262.035 3.219 0 3.254-.256.255-.723 0-1.085 0h-1.085c-.945 0-6.108-.2-6.508 0-.458.228-.628.856-1.085 1.084-.684.342-4.74-.342-5.424 0-.457.229-.627.856-1.084 1.085-.647.323-1.523-.323-2.17 0-.457.229-.6.923-1.085 1.085-.686.228-1.483-.229-2.17 0-.484.162-.722.723-1.084 1.085-.361.361-.8.659-1.085 1.084-.448.673-.723 1.447-1.084 2.17l-1.085 2.17c-.362 0-.83-.256-1.085 0-.511.51.324 1.522 0 2.169-.229.457-.723.723-1.085 1.085 0 .723.23 1.483 0 2.169-.72 2.159-1.012.506-2.17 1.085-.456.228-.722.723-1.084 1.084-.723.724-1.318 1.603-2.17 2.17-.3.2-.76-.162-1.084 0-2.29 1.145-.478 3.603-1.085 5.424-.447 1.34-1.205 1.084-2.17 1.084-.36 0-1.084.362-1.084 0 0-.361.723 0 1.085 0l-4.819-1.496" fill="#ffd440"/><path d="M486.881 51.51H306.759c.002-.179.014-.355.014-.534 0-27.995-22.777-50.772-50.772-50.772-27.995 0-50.772 22.777-50.772 50.772 0 .18.012.356.014.534H25.119C11.268 51.51 0 62.778 0 76.629v307.842c0 13.851 11.268 25.119 25.119 25.119h161.942l-6.547 52.376h-18.576a8.017 8.017 0 0 0 0 16.034h188.125a8.017 8.017 0 0 0 0-16.034h-18.576l-6.547-52.376h161.942c13.851 0 25.119-11.268 25.119-25.119V76.629C512 62.778 500.732 51.51 486.881 51.51zM256 16.237c19.155 0 34.739 15.584 34.739 34.739 0 19.155-15.584 34.739-34.739 34.739-19.155 0-34.739-15.584-34.739-34.739 0-19.155 15.584-34.739 34.739-34.739zm34.739 85.511v257.603h-35.273v-5.31a25.087 25.087 0 0 0-17.176-23.83l-27.918-9.307a9.118 9.118 0 0 1-1.5-.669c-.096-.088-.186-.18-.288-.263a8.055 8.055 0 0 0-1.338-.896c-1.911-1.688-3.087-4.125-3.087-6.792v-12.648l13.035-6.518a25.068 25.068 0 0 0 13.69-19.351l2.01-16.079c9.17-12.039 14.021-26.193 14.021-40.976 0-25.046-13.99-47.094-35.065-59.774a34.48 34.48 0 0 0 .86-7.624c0-20.924-18.941-37.946-42.221-37.946-23.28 0-42.221 17.022-42.221 37.946 0 2.577.29 5.129.856 7.628-21.073 12.68-35.061 34.726-35.061 59.77 0 14.823 4.845 28.938 14.019 40.973l2.011 16.084a25.066 25.066 0 0 0 13.691 19.351l13.035 6.518v12.648a9.07 9.07 0 0 1-6.212 8.618l-27.918 9.307a25.087 25.087 0 0 0-17.176 23.83v5.31H50.238V101.748zm-120.25 59.858c33.3 0 60.392 24.72 60.392 55.106a50.37 50.37 0 0 1-.228 4.719l-28.663-30.569a8.02 8.02 0 0 0-5.72-2.532 8.04 8.04 0 0 0-5.798 2.347c-22.979 22.979-78.223 23.307-78.774 23.308-.518 0-1.03.057-1.532.155 1.48-29.196 27.967-52.534 60.323-52.534zm-26.188-12.292c0-12.083 11.748-21.912 26.188-21.912s26.188 9.83 26.188 21.912c0 .186-.021.369-.027.555-8.165-2.778-16.976-4.296-26.161-4.296-9.186 0-17.998 1.518-26.163 4.296-.006-.185-.025-.369-.025-.555zm51.251 58.123l24.236 25.848-4.811 38.496a9.069 9.069 0 0 1-4.952 7l-27.823 13.912c-7.335 3.666-16.09 3.665-23.424 0l-27.823-13.912a9.064 9.064 0 0 1-4.952-7l-5.262-42.097c16.634-1.028 52.262-5.215 74.811-22.247zm-42.7 104.849v-4.676a42.28 42.28 0 0 0 17.637 3.857 42.28 42.28 0 0 0 17.637-3.857v4.676c0 5.02 1.498 9.76 4.112 13.753a34.62 34.62 0 0 1-21.749 7.659 34.757 34.757 0 0 1-21.747-7.662 25.062 25.062 0 0 0 4.11-13.75zm17.637 37.445a50.591 50.591 0 0 0 34.648-13.679c.056.019.109.044.165.062l27.918 9.307a9.072 9.072 0 0 1 6.212 8.62v5.31H101.545v-5.31a9.075 9.075 0 0 1 6.212-8.62l27.918-9.307c.056-.018.108-.043.164-.062a50.791 50.791 0 0 0 34.65 13.679zm26.183 112.234l6.547-52.376h105.563l6.546 52.376zm299.295-77.494c0 5.01-4.076 9.086-9.086 9.086H25.119c-5.01 0-9.086-4.076-9.086-9.086V76.629c0-5.01 4.076-9.086 9.086-9.086h182.899a50.823 50.823 0 0 0 11.005 18.171H42.221a8.017 8.017 0 0 0-8.017 8.017v273.637a8.017 8.017 0 0 0 8.017 8.017h427.557a8.017 8.017 0 0 0 8.017-8.017V93.731a8.017 8.017 0 0 0-8.017-8.017H292.977a50.817 50.817 0 0 0 11.005-18.171H486.88c5.01 0 9.086 4.076 9.086 9.086v307.842zm-71.404-188.716l-15.177-3.795v-2.482c5.363-4.722 8.551-11.569 8.551-18.787v-42.756a8.017 8.017 0 0 0-8.017-8.017h-34.205c-13.851 0-25.119 11.268-25.119 25.119v25.653c0 7.218 3.188 14.065 8.551 18.787v2.482l-15.178 3.795a25.082 25.082 0 0 0-19.026 24.369v2.409h-18.171V101.748h154.99v120.785h-18.171v-2.409a25.082 25.082 0 0 0-19.028-24.369zm-53.366-17.261c-2.859-1.664-4.566-4.581-4.566-7.802v-25.653c0-5.01 4.076-9.086 9.086-9.086h26.188v34.739c0 3.221-1.707 6.138-4.566 7.802a8.018 8.018 0 0 0-3.985 6.929v12.798a8.016 8.016 0 0 0 6.072 7.777l21.25 5.313a9.071 9.071 0 0 1 6.882 8.814v2.408h-86.58v-2.409a9.07 9.07 0 0 1 6.882-8.814l21.251-5.312a8.014 8.014 0 0 0 6.072-7.777v-12.798a8.017 8.017 0 0 0-3.986-6.929zm90.565 60.073v120.785h-18.171v-2.409a25.083 25.083 0 0 0-19.027-24.369l-15.177-3.795v-2.482c5.363-4.722 8.551-11.569 8.551-18.787v-42.756a8.017 8.017 0 0 0-8.017-8.017h-34.205c-13.851 0-25.119 11.268-25.119 25.119v25.653c0 7.218 3.188 14.064 8.551 18.787v2.482l-15.178 3.795a25.083 25.083 0 0 0-19.026 24.369v2.409h-18.171V238.567zm-90.565 76.745c-2.859-1.664-4.566-4.581-4.566-7.802v-25.653c0-5.01 4.076-9.086 9.086-9.086h26.188v34.739c0 3.221-1.707 6.138-4.566 7.802a8.017 8.017 0 0 0-3.985 6.929v12.798a8.016 8.016 0 0 0 6.072 7.777l21.25 5.312a9.074 9.074 0 0 1 6.883 8.815v2.408h-86.58v-2.409a9.072 9.072 0 0 1 6.882-8.815l21.251-5.311a8.017 8.017 0 0 0 6.072-7.777v-12.798a8.023 8.023 0 0 0-3.987-6.929z"/><path d="M256 34.408c-9.136 0-16.568 7.432-16.568 16.568 0 9.136 7.432 16.568 16.568 16.568 9.136 0 16.568-7.432 16.568-16.568 0-9.136-7.432-16.568-16.568-16.568z"/></svg>