<?xml version="1.0" encoding="iso-8859-1"?>
<!-- Generator: Adobe Illustrator 19.0.0, SVG Export Plug-In . SVG Version: 6.00 Build 0)  -->
<svg xmlns="http://www.w3.org/2000/svg" xmlns:xlink="http://www.w3.org/1999/xlink" version="1.1" id="Layer_1" x="0px" y="0px" viewBox="0 0 512 512" style="enable-background:new 0 0 512 512;" xml:space="preserve" width="512px" height="512px">
<g>
	<g>
		<g>
			<path d="M399.159,0H112.841C88.567,0,68.818,19.749,68.818,44.024v423.951c0,24.275,19.749,44.024,44.023,44.024h286.317     c24.275,0,44.024-19.749,44.024-44.024V44.024C443.183,19.749,423.433,0,399.159,0z M399.159,489.979H112.841     c-12.133,0-22.002-9.87-22.002-22.003V44.024c0-12.133,9.87-22.003,22.002-22.003h286.317c12.133,0,22.003,9.87,22.003,22.003     v423.951h0.001C421.162,480.108,411.291,489.979,399.159,489.979z" fill="#ffc600"/>
			<path d="M388.13,44.043H123.872c-6.08,0-11.011,4.93-11.011,11.011v358.951c0,6.081,4.931,11.011,11.011,11.011H388.13     c6.08,0,11.011-4.93,11.011-11.011V55.054C399.14,48.973,394.21,44.043,388.13,44.043z M377.119,402.994H134.882V66.065h242.237     V402.994z" fill="#ffc600"/>
			<path d="M261.469,446.486h-16.516c-6.08,0-11.011,4.93-11.011,11.011c0,6.081,4.931,11.011,11.011,11.011h16.516     c6.08,0,11.011-4.929,11.011-11.011C272.479,451.416,267.549,446.486,261.469,446.486z" fill="#ffc600"/>
			<path d="M173.42,129.743h165.161c6.08,0,11.011-4.93,11.011-11.011s-4.931-11.011-11.011-11.011H173.42     c-6.08,0-11.011,4.93-11.011,11.011S167.34,129.743,173.42,129.743z" fill="#ffc600"/>
			<path d="M338.581,151.765h-105.19c-6.08,0-11.011,4.93-11.011,11.011s4.931,11.011,11.011,11.011h105.19     c6.08,0,11.011-4.93,11.011-11.011S344.661,151.765,338.581,151.765z" fill="#ffc600"/>
			<path d="M173.42,173.786h7.486c6.08,0,11.011-4.93,11.011-11.011s-4.931-11.011-11.011-11.011h-7.486     c-6.08,0-11.011,4.93-11.011,11.011S167.34,173.786,173.42,173.786z" fill="#ffc600"/>
			<path d="M173.42,217.829h165.161c6.08,0,11.011-4.93,11.011-11.011c0-6.081-4.931-11.011-11.011-11.011H173.42     c-6.08,0-11.011,4.93-11.011,11.011C162.409,212.899,167.34,217.829,173.42,217.829z" fill="#ffc600"/>
			<path d="M173.42,261.872h165.161c6.08,0,11.011-4.93,11.011-11.011s-4.931-11.011-11.011-11.011H173.42     c-6.08,0-11.011,4.93-11.011,11.011S167.34,261.872,173.42,261.872z" fill="#ffc600"/>
			<path d="M338.581,283.894h-4.992c-6.08,0-11.011,4.93-11.011,11.011s4.931,11.011,11.011,11.011h4.992     c6.08,0,11.011-4.93,11.011-11.011S344.661,283.894,338.581,283.894z" fill="#ffc600"/>
			<path d="M173.42,305.915h124.568c6.08,0,11.011-4.93,11.011-11.011s-4.931-11.011-11.011-11.011H173.42     c-6.08,0-11.011,4.93-11.011,11.011S167.34,305.915,173.42,305.915z" fill="#ffc600"/>
			<path d="M173.42,349.958h165.161c6.08,0,11.011-4.93,11.011-11.011s-4.931-11.011-11.011-11.011H173.42     c-6.08,0-11.011,4.93-11.011,11.011S167.34,349.958,173.42,349.958z" fill="#ffc600"/>
		</g>
	</g>
</g>
<g>
</g>
<g>
</g>
<g>
</g>
<g>
</g>
<g>
</g>
<g>
</g>
<g>
</g>
<g>
</g>
<g>
</g>
<g>
</g>
<g>
</g>
<g>
</g>
<g>
</g>
<g>
</g>
<g>
</g>
</svg>
