<?xml version="1.0" encoding="iso-8859-1"?>
<!-- Generator: Adobe Illustrator 19.0.0, SVG Export Plug-In . SVG Version: 6.00 Build 0)  -->
<svg xmlns="http://www.w3.org/2000/svg" xmlns:xlink="http://www.w3.org/1999/xlink" version="1.1" id="Layer_1" x="0px" y="0px" viewBox="0 0 470.139 470.139" style="enable-background:new 0 0 470.139 470.139;" xml:space="preserve" width="512px" height="512px">
<g id="XMLID_923_">
	<g>
		<g>
			<path d="M419.951,266.679H398.27c0-15.002,0-120.465,0-135.717c0-17.038-13.862-30.9-30.9-30.9h-48.677v-7.138     c0-46.111-37.514-83.626-83.625-83.626c-46.111,0-83.626,37.514-83.626,83.626v7.138h-48.676c-17.038,0-30.9,13.862-30.9,30.9     c0,7.33,0,127.827,0,135.717h-21.68C22.513,266.679,0,289.193,0,316.866v60.449c0,27.673,22.513,50.186,50.186,50.186H77.87     c9.648,19.721,29.917,33.339,53.312,33.339h207.775c23.395,0,43.663-13.617,53.312-33.339h27.684     c27.673,0,50.186-22.513,50.186-50.186v-60.449C470.137,289.193,447.624,266.679,419.951,266.679z M71.867,397.5H50.186     C39.056,397.5,30,388.445,30,377.314v-60.449c0-11.131,9.056-20.186,20.186-20.186h21.681V397.5z M181.442,92.926     c0-29.569,24.057-53.626,53.626-53.626c29.569,0,53.625,24.056,53.625,53.626v7.138H181.442V92.926z M367.971,405.673     c-2.021,14.206-14.259,25.166-29.015,25.166H131.181c-14.756,0-26.994-10.961-29.016-25.166c0-10.767-0.299-157.47-0.299-168.226     c10.709,7.171,23.575,11.363,37.403,11.363h191.598c13.828,0,26.694-4.191,37.403-11.363     C368.27,248.207,367.971,394.898,367.971,405.673z M368.27,181.408c0,20.624-16.779,37.403-37.403,37.403H139.27     c-20.624,0-37.403-16.779-37.403-37.403c-0.001-15.021-0.001-35.255-0.001-50.444c0-0.496,0.404-0.9,0.9-0.9H367.37     c0.496,0,0.9,0.404,0.9,0.9C368.27,146.15,368.27,166.389,368.27,181.408z M440.137,377.314c0,11.13-9.056,20.186-20.186,20.186     H398.27V296.679h21.681c11.13,0,20.186,9.055,20.186,20.186V377.314z" fill="#FFFFFF"/>
			<path d="M316.835,342.921H153.302c-8.284,0-15,6.716-15,15s6.716,15,15,15h163.533c8.284,0,15-6.716,15-15     S325.119,342.921,316.835,342.921z" fill="#FFFFFF"/>
		</g>
	</g>
</g>
<g>
</g>
<g>
</g>
<g>
</g>
<g>
</g>
<g>
</g>
<g>
</g>
<g>
</g>
<g>
</g>
<g>
</g>
<g>
</g>
<g>
</g>
<g>
</g>
<g>
</g>
<g>
</g>
<g>
</g>
</svg>
