<?xml version="1.0" encoding="UTF-8" standalone="no"?>
<!-- Generator: Adobe Illustrator 19.0.0, SVG Export Plug-In . SVG Version: 6.00 Build 0)  -->

<svg
   xmlns:dc="http://purl.org/dc/elements/1.1/"
   xmlns:cc="http://creativecommons.org/ns#"
   xmlns:rdf="http://www.w3.org/1999/02/22-rdf-syntax-ns#"
   xmlns:svg="http://www.w3.org/2000/svg"
   xmlns="http://www.w3.org/2000/svg"
   xmlns:sodipodi="http://sodipodi.sourceforge.net/DTD/sodipodi-0.dtd"
   xmlns:inkscape="http://www.inkscape.org/namespaces/inkscape"
   version="1.1"
   id="Layer_1"
   x="0px"
   y="0px"
   viewBox="0 0 512 478"
   xml:space="preserve"
   sodipodi:docname="icon-distance-learning-colorful.svg"
   width="512"
   height="478"
   inkscape:version="0.92.2 (5c3e80d, 2017-08-06)"><metadata
     id="metadata350"><rdf:RDF><cc:Work
         rdf:about=""><dc:format>image/svg+xml</dc:format><dc:type
           rdf:resource="http://purl.org/dc/dcmitype/StillImage" /><dc:title></dc:title></cc:Work></rdf:RDF></metadata><defs
     id="defs348" /><sodipodi:namedview
     pagecolor="#ffffff"
     bordercolor="#666666"
     borderopacity="1"
     objecttolerance="10"
     gridtolerance="10"
     guidetolerance="10"
     inkscape:pageopacity="0"
     inkscape:pageshadow="2"
     inkscape:window-width="1366"
     inkscape:window-height="706"
     id="namedview346"
     showgrid="false"
     inkscape:zoom="0.921875"
     inkscape:cx="284.49923"
     inkscape:cy="254.86947"
     inkscape:window-x="-8"
     inkscape:window-y="-8"
     inkscape:window-maximized="1"
     inkscape:current-layer="Layer_1" /><path
     style="fill:#ffc600;stroke:none;stroke-width:1px;stroke-linecap:butt;stroke-linejoin:miter;stroke-opacity:1;fill-opacity:1"
     d="m 85.513,359.351 c 2.953294,-1.67067 6.064653,-3.08853 8.859881,-5.01202 0.297871,-0.20497 0,-0.72316 0,-1.08474 0,-1.80791 0,-3.61582 0,-5.42373 0,-0.72317 -0.228684,-1.48344 0,-2.16949 0.255677,-0.76703 0.888651,-1.38511 1.084746,-2.16949 0.175393,-0.70158 -0.323409,-1.52268 0,-2.1695 0.161705,-0.3234 0.761337,0.16171 1.084746,0 0.457369,-0.22868 0.801097,-0.65927 1.084746,-1.08474 0.448487,-0.67273 0.829068,-1.40246 1.084745,-2.16949 0.114343,-0.34303 -0.255677,-0.82907 0,-1.08475 0.511355,-0.51135 1.483436,0.22869 2.169496,0 0.76703,-0.25568 1.40246,-0.82907 2.16949,-1.08474 0.34302,-0.11435 0.74172,0.11434 1.08474,0 0.76703,-0.25568 1.38511,-0.88866 2.16949,-1.08475 1.0753,-0.26883 4.4632,0.32018 5.42373,0 0.76703,-0.25568 1.40246,-0.82907 2.1695,-1.08475 0.34302,-0.11434 0.72316,0 1.08474,0 0.72316,0 1.48344,0.22869 2.16949,0 0.97023,-0.32341 1.25476,-1.71212 2.16949,-2.16949 0.64682,-0.32341 1.65814,0.51136 2.1695,0 0.25567,-0.25568 -0.25568,-0.82907 0,-1.08474 0.25567,-0.25568 0.74171,0.11434 1.08474,0 0.76703,-0.25568 1.38511,-0.88865 2.16949,-1.08475 0.70157,-0.17539 1.48344,0.22868 2.16949,0 0.48512,-0.1617 0.62738,-0.85606 1.08475,-1.08475 0.32341,-0.1617 0.74172,0.11435 1.08475,0 0.76703,-0.25567 1.38511,-0.88865 2.16949,-1.08474 0.70157,-0.17539 1.48344,0.22868 2.16949,0 0.48511,-0.16171 0.62738,-0.85606 1.08474,-1.08475 0.32341,-0.1617 0.82907,0.25568 1.08475,0 0.78343,-0.78342 -1.92844,-3.13371 2.16949,-1.08474 0.32341,0.1617 -0.25568,0.82907 0,1.08474 0.25568,0.25568 0.82907,-0.25567 1.08475,0 0.25567,0.25568 -0.25568,0.82907 0,1.08475 0.57171,0.57171 1.40246,0.82907 2.16949,1.08474 0.34303,0.11435 0.82907,-0.25567 1.08474,0 0.25568,0.25568 -0.25567,0.82907 0,1.08475 0.51136,0.51135 1.52268,-0.32341 2.1695,0 4.51445,2.25723 -1.15964,-0.0749 1.08474,2.16949 0.25568,0.25568 0.82907,-0.25568 1.08475,0 0.25568,0.25568 -0.32341,0.92304 0,1.08475 0.64682,0.32341 1.65814,-0.51136 2.16949,0 0.51135,0.51135 -0.32341,1.52267 0,2.16949 0.1617,0.32341 0.76134,-0.16171 1.08475,0 4.51445,2.25723 -1.15964,-0.0749 1.08474,2.16949 0.25568,0.25568 0.72316,0 1.08475,0 1.31328,0 5.77473,-0.24458 6.50847,0 0.34303,0.11434 -0.25568,0.82907 0,1.08475 0.25568,0.25567 0.82907,-0.25568 1.08475,0 0.25567,0.25567 -0.32341,0.92304 0,1.08474 0.64681,0.32341 1.44632,0 2.16949,0 1.05097,0 5.86167,-0.2156 6.50847,0 0.76703,0.25568 1.40246,0.82907 2.16949,1.08475 0.32374,0.10791 7.49982,0.0311 7.59323,0 0.97022,-0.32341 1.31854,-1.6022 2.16949,-2.16949 0.67273,-0.44849 1.59778,-0.51304 2.16949,-1.08475 2.24438,-2.24438 -3.42971,0.0877 1.08474,-2.16949 0.29354,-0.14677 6.04123,0 6.50848,0 0.36158,0 0.76134,0.1617 1.08474,0 0.45737,-0.22869 0.62738,-0.85606 1.08475,-1.08475 0.32341,-0.1617 0.76134,0.16171 1.08475,0 0.45736,-0.22868 0.62737,-0.85606 1.08474,-1.08474 0.32341,-0.16171 0.76134,0.1617 1.08475,0 0.45737,-0.22869 0.62737,-0.85606 1.08474,-1.08475 0.32341,-0.1617 0.76134,0.16171 1.08475,0 0.45737,-0.22868 0.62738,-0.85606 1.08474,-1.08474 0.8678,-0.4339 2.38645,0.43389 3.25424,0 0.32341,-0.16171 -0.25568,-0.82907 0,-1.08475 0.29681,-0.29681 3.75052,0.29423 4.33899,0 0.45736,-0.22868 0.62737,-0.85606 1.08474,-1.08475 0.32341,-0.1617 0.72316,0 1.08475,0 0.36158,0 0.72316,0 1.08474,0 1.80791,0 3.61582,0 5.42373,0 2.16999,0 5.9564,-0.55207 7.59322,1.08475 0.25568,0.25568 -0.20057,0.78389 0,1.08475 0.5673,0.85094 1.6022,1.31854 2.16949,2.16949 0.20057,0.30085 -0.25567,0.82907 0,1.08474 0.25568,0.25568 0.76134,-0.1617 1.08475,0 0.45737,0.22869 0.65927,0.8011 1.08474,1.08475 0.43214,0.28809 4.26046,2.05169 4.33899,2.16949 0.40114,0.60171 -0.32341,1.52267 0,2.16949 0.1617,0.32341 0.82907,-0.25567 1.08474,0 0.57171,0.57171 0.51304,1.59778 1.08475,2.16949 0.31567,0.31567 3.80855,-0.35362 4.33898,0 0.027,0.018 4.10608,3.87318 4.33899,4.33899 0.1617,0.32341 -0.16171,0.76133 0,1.08474 0.22868,0.45737 0.72316,0.72317 1.08474,1.08475 0.36158,0.36158 0.62738,0.85606 1.08475,1.08474 0.43009,0.21505 3.03247,-0.22176 3.25423,0 0.25568,0.25568 0,0.72317 0,1.08475 0,0.36158 0,0.72316 0,1.08475 0,3.25423 0,6.50847 0,9.76271 0,0.72316 0.32341,1.52267 0,2.16949 -0.1617,0.32341 -0.76133,-0.16171 -1.08474,0 -0.45737,0.22868 -0.62738,0.85606 -1.08475,1.08474 -0.64681,0.32341 -1.48344,-0.22868 -2.16949,0 -0.76703,0.25568 -1.40246,0.82907 -2.16949,1.08475 -0.34303,0.11434 -0.82907,-0.25568 -1.08475,0 -0.25567,0.25568 0.25568,0.82907 0,1.08475 -0.25567,0.25567 -0.72316,0 -1.08474,0 -0.36158,0 -0.72317,0 -1.08475,0 -3.25424,0 -6.50847,0 -9.76271,0 -0.36158,0 -0.72316,0 -1.08475,0 -0.36158,0 -1.08474,0.36158 -1.08474,0 0,-0.36159 1.44633,0 1.08474,0 -2.16949,0 -4.33898,0 -6.50847,0 -3.25424,0 -6.50847,0 -9.76271,0 -0.72317,0 -1.44633,0 -2.16949,0 -0.36159,0 -0.74172,-0.11435 -1.08475,0 -0.76703,0.25567 -1.40246,0.82907 -2.16949,1.08474 -0.6468,0.2156 -5.4575,0 -6.50848,0 -4.70056,0 -9.40113,0 -14.10169,0 -6.14689,0 -12.29379,0 -18.44068,0 -0.49073,0 -6.21939,-0.14454 -6.50847,0 -0.45737,0.22869 -0.62738,0.85606 -1.08475,1.08475 -0.32341,0.1617 -0.72316,0 -1.08474,0 -0.36159,0 -0.72317,0 -1.08475,0 -2.16949,0 -4.33898,0 -6.50847,0 -5.06215,0 -10.1243,0 -15.18645,0 -4.33898,0 -8.67796,0 -13.01694,0 -1.44633,0 -2.89266,0 -4.33899,0 -0.72316,0 -1.46792,0.17539 -2.16949,0 -1.10928,-0.27732 -2.14495,-0.80743 -3.25424,-1.08475 -0.44535,-0.11134 -2.038,0.13149 -2.16949,0 -0.25567,-0.25567 0.25568,-0.82907 0,-1.08474 -0.0436,-0.0437 -3.94062,0 -4.33898,0 -0.72316,0 -1.46792,0.17539 -2.16949,0 -1.10929,-0.27732 -2.13302,-0.86051 -3.25424,-1.08475 -0.70912,-0.14182 -1.446327,0 -2.169491,0 -1.084746,0 -2.169492,0 -3.254238,0 -0.723163,0 -1.522674,0.32341 -2.169491,0 -0.323409,-0.1617 0.255677,-0.82907 0,-1.08475 -2.244378,-2.24437 0.08773,3.42971 -2.169492,-1.08474 -0.161704,-0.32341 -0.361582,-1.08475 0,-1.08475 0.361582,0 0.361582,1.08475 0,1.08475 -2.56089,0 -0.221744,-1.52121 -1.084745,-2.16949 -0.998862,-0.75034 -2.290769,-0.99764 -3.436153,-1.49646 z"
     id="path3541"
     inkscape:connector-curvature="0" /><path
     style="fill:#ffe070;fill-opacity:1;stroke:none;stroke-width:1px;stroke-linecap:butt;stroke-linejoin:miter;stroke-opacity:1"
     d="m 93.288136,367.35593 c -1.446328,0 -2.892656,0 -4.338983,0 -6.168946,0 -0.714153,-0.48511 -5.423729,1.08475 -0.631625,0.21054 -5.762093,0 -6.508475,0 -0.361582,0 -0.741719,-0.11434 -1.084746,0 -0.767031,0.25567 -1.40246,0.82907 -2.169491,1.08474 -0.686054,0.22869 -1.446328,0 -2.169492,0 -1.807909,0 -3.615819,0 -5.423728,0 -0.490731,0 -6.219391,0.14455 -6.508475,0 -0.457369,-0.22868 -0.627377,-0.85606 -1.084746,-1.08474 -0.646817,-0.32341 -1.522674,0.32341 -2.169491,0 -0.914738,-0.45737 -1.254754,-1.71212 -2.169492,-2.16949 -0.646817,-0.32341 -1.658137,0.51135 -2.169491,0 -0.255677,-0.25568 0.255677,-0.82907 0,-1.08475 -0.511354,-0.51135 -1.567783,0.40114 -2.169492,0 -0.850944,-0.5673 -1.318547,-1.60219 -2.169491,-2.16949 -0.480298,-0.3202 -4.814267,0.30473 -5.423729,0 -0.323409,-0.16171 0,-0.72316 0,-1.08475 0,-2.53107 0,-5.06214 0,-7.59322 0,-4.34396 0.323408,-0.27622 -2.169492,-6.50847 -0.134288,-0.33572 0.114342,-0.74172 0,-1.08475 -0.255677,-0.76703 -0.829068,-1.40246 -1.084746,-2.16949 -0.114342,-0.34303 0,-0.72316 0,-1.08474 -0.361581,-0.72317 -0.829068,-1.40247 -1.084745,-2.1695 -0.248708,-0.74612 0.320011,-2.61421 0,-3.25423 -0.228685,-0.45737 -0.923042,-0.59964 -1.084746,-1.08475 -0.228685,-0.68605 0,-1.44633 0,-2.16949 0,-0.72316 0,-1.44633 0,-2.16949 0,-3.25424 0,-6.50848 0,-9.76271 0,-2.1695 0,-4.33899 0,-6.50848 0,-0.36158 -0.255677,-0.82907 0,-1.08474 0.255677,-0.25568 0.829069,0.25567 1.084746,0 0.255677,-0.25568 -0.161705,-0.76134 0,-1.08475 0.228684,-0.45737 0.801097,-0.65927 1.084745,-1.08475 2.188035,-3.28205 -0.01854,-1.05693 2.169492,-4.33898 0.283648,-0.42547 0.856061,-0.62738 1.084746,-1.08474 0.165062,-0.33013 0,-2.76572 0,-3.25424 0,-2.89266 0,-5.78531 0,-8.67797 0,-6.50847 0,-13.01695 0,-19.52542 0,-2.16949 0,-4.33899 0,-6.50848 0,-0.72316 0,-1.44632 0,-2.16949 0,-0.36158 -0.161705,-0.76134 0,-1.08474 0.228684,-0.45737 0.856061,-0.62738 1.084746,-1.08475 0.165062,-0.33012 0,-2.76571 0,-3.25424 0,-3.61582 0,-7.23164 0,-10.84745 0,-8.67797 0,-17.35594 0,-26.0339 0,-3.25424 0,-6.50848 0,-9.76271 0,-0.87326 -0.226949,-3.65814 0,-4.33899 0.255677,-0.76703 0.829068,-1.40246 1.084745,-2.16949 0.228685,-0.68605 -0.323408,-1.52267 0,-2.16949 0.228685,-0.45737 0.856062,-0.62738 1.084746,-1.08475 0.161704,-0.32341 0,-0.72316 0,-1.08474 0,-0.36158 0,-0.72317 0,-1.08475 0,-0.92056 -0.199332,-5.91048 0,-6.50847 0.161704,-0.48512 0.856061,-0.62738 1.084746,-1.08475 0.165062,-0.33012 0,-2.76571 0,-3.25424 0,-2.53107 0,-5.06214 0,-7.59322 0,-0.25776 0.121562,-4.09585 0,-4.33898 -0.228685,-0.45737 -0.856061,-0.62738 -1.084746,-1.08474 -0.311404,-0.62281 0.291134,-5.63508 0,-6.50848 -0.323409,-0.97023 -1.846083,-1.19926 -2.169491,-2.16949 -0.457369,-1.37211 0.646817,-3.04535 0,-4.33898 -0.457369,-0.91474 -1.712123,-1.25476 -2.169492,-2.1695 -0.485113,-0.97022 0,-2.16949 0,-3.25423 0,-2.16949 0,-4.33899 0,-6.50848 0,-8.31638 0,-16.63277 0,-24.94915 0,-10.12429 0,-20.24859 0,-30.372881 0,-1.446328 0,-2.892656 0,-4.338983 0,-0.361582 0,-0.723164 0,-1.084746 0,-0.361582 -0.255677,-0.829069 0,-1.084746 0.511354,-0.511354 1.658137,0.511354 2.169492,0 0.255677,-0.255677 -0.255677,-0.829069 0,-1.084746 0.04365,-0.04365 3.940624,0 4.338983,0 0.723163,0 1.446327,0 2.169491,0 0.361582,0 1.084746,-0.361582 1.084746,0 0,0.361582 -1.446328,0 -1.084746,0 1.80791,0 3.615819,0 5.423729,0 5.423729,0 10.847458,0 16.271186,0 8.139491,0 17.654577,0 22.779661,0 2.169492,0 4.338983,0 6.508479,0 0.36158,0 0.92304,0.323409 1.08474,0 0.32341,-0.646817 -0.51135,-1.658137 0,-2.169491 0.51136,-0.511354 1.44633,0 2.16949,0 0.36159,0 0.72317,0 1.08475,0 1.80791,0 3.61582,0 5.42373,0 0.36158,0 0.72316,0 1.08474,0 0.36159,0 0.76134,-0.161705 1.08475,0 0.45737,0.228684 0.62738,0.856061 1.08475,1.084746 0.64681,0.323408 1.52267,-0.323409 2.16949,0 0.45737,0.228684 0.62737,0.856061 1.08474,1.084745 0.32341,0.161705 0.72317,0 1.08475,0 0.72316,0 1.44633,0 2.16949,0 2.89266,0 5.78531,0 8.67797,0 6.87005,0 13.74011,0 20.61017,0 0.69328,0 6.19556,-0.156453 6.50847,0 3.4086,1.704299 0.72713,2.531867 4.33898,3.254238 0.63022,0.126043 6.24085,-0.133813 6.50848,0 0.72316,0.361581 0.51303,1.59778 1.08474,2.169491 0.26103,0.261024 4.07796,-0.261023 4.33899,0 0.25567,0.255677 -0.25568,0.829069 0,1.084746 0.25567,0.255677 0.72316,0 1.08474,0 0.36158,0 0.72317,0 1.08475,0 3.61582,0 7.23164,0 10.84746,0 0.60545,0 4.92717,0.165519 5.42372,0 0.48512,-0.161705 0.62738,-0.856061 1.08475,-1.084746 0.64002,-0.320011 2.50811,0.248708 3.25424,0 0.76703,-0.255677 1.40246,-0.829069 2.16949,-1.084746 0.68605,-0.228684 1.52267,0.323409 2.16949,0 0.45737,-0.228684 0.59963,-0.923041 1.08475,-1.084745 0.68605,-0.228685 1.44632,0 2.16949,0 3.61582,0 7.23164,0 10.84746,0 4.2375,0 0.11452,0.323408 4.33898,-1.084746 0.68084,-0.226948 3.46572,0 4.33898,0 0.87326,0 3.65814,-0.226948 4.33898,0 0.76704,0.255677 1.38511,0.88865 2.1695,1.084746 0.70157,0.175393 1.44632,0 2.16949,0 2.53107,0 5.06214,0 7.59322,0 1.08474,0 2.28401,-0.485113 3.25424,0 0.3234,0.161704 -0.25568,0.829068 0,1.084745 0.25567,0.255677 0.72316,0 1.08474,0 0.72316,0 1.44633,0 2.16949,0 2.89266,0 5.78531,0 8.67797,0 7.9548,0 15.9096,0 23.86441,0 2.53107,0 5.06214,0 7.59322,0 0.36158,0 0.72316,0 1.08474,0 0.36158,0 0.76134,0.161705 1.08475,0 0.91474,-0.457369 1.25475,-1.712122 2.16949,-2.169491 0.28522,-0.142613 3.77175,0 4.33898,0 0.36158,0 0.72317,0 1.08475,0 0.36158,0 1.08474,-0.361582 1.08474,0 0,0.361582 -1.44632,0 -1.08474,0 0.72316,0 1.52267,-0.323409 2.16949,0 0.32341,0.161704 0.36158,1.084746 0,1.084746 -0.36158,0 -0.36158,-1.084746 0,-1.084746 0.51135,0 0.72316,0.723164 1.08474,1.084746 0.36159,0.361581 0.85607,0.627376 1.08475,1.084745 0.4339,0.867797 -0.4339,2.386441 0,3.254238 0.22869,0.457369 0.85606,0.627381 1.08475,1.084741 0.1617,0.32341 0,0.72317 0,1.08475 0,0.36158 0,0.72316 0,1.08475 0,2.16949 0,4.33898 0,6.50847 0,0.72316 -0.1754,1.46792 0,2.16949 0.27732,1.10928 0.80742,2.14496 1.08474,3.25424 0.1754,0.70157 0,1.44633 0,2.16949 0,1.08475 0,2.16949 0,3.25424 0,0.36158 0,0.72316 0,1.08474 0,0.36159 0.36158,1.08475 0,1.08475 -0.36158,0 0,-1.44633 0,-1.08475 0,1.44633 0,2.89266 0,4.33899 0,4.33898 0,8.67796 0,13.01695 0,14.82485 0,29.64971 0,44.47457 0,4.33899 0,8.67797 0,13.01695 0,1.18444 -0.23384,4.72222 0,5.42373 0.25568,0.76703 0.82907,1.40246 1.08475,2.16949 0.22695,0.68085 0,3.46573 0,4.33898 0,3.61582 0,7.23164 0,10.84746 0,1.80791 0,3.61582 0,5.42373 0,1.08475 0.34302,2.22516 0,3.25424 -0.16171,0.48511 -0.85606,0.62738 -1.08475,1.08474 -0.1617,0.32341 0,0.72317 0,1.08475 0,0.36158 0,0.72316 0,1.08475 0,2.16949 0,4.33898 0,6.50847 0,0.72316 0,1.44633 0,2.16949 0,0.72317 0.32341,1.52268 0,2.16949 -0.1617,0.32341 -0.82907,-0.25567 -1.08474,0 -0.25568,0.25568 0,0.72317 0,1.08475 0,2.89265 0,5.78531 0,8.67797 0,2.16949 0,4.33898 0,6.50847 0,0.71279 0.204,2.64223 0,3.25424 -0.25568,0.76703 -0.82907,1.40246 -1.08475,2.16949 -0.2156,0.6468 0,5.4575 0,6.50847 0,0.36159 0.16171,0.76134 0,1.08475 -0.22868,0.45737 -0.85606,0.62738 -1.08475,1.08474 -0.23163,0.46328 0,4.99492 0,5.42373 0,3.61582 0,7.23164 0,10.84746 0,9.76271 0,19.52543 0,29.28814 0,2.53107 0,5.06214 0,7.59322 0,0.36158 0,0.72316 0,1.08474 0,0.36159 0.16171,0.76134 0,1.08475 -0.22868,0.45737 -0.85606,0.62738 -1.08474,1.08474 -0.34659,0.69318 0.29104,3.46588 0,4.33899 -0.25568,0.76703 -0.82907,1.40246 -1.08475,2.16949 -0.21693,0.65079 0,4.55815 0,5.42373 0,4.33898 0,8.67796 0,13.01695 0,0.48852 -0.16506,2.92411 0,3.25423 0.22869,0.45737 0.85606,0.62738 1.08475,1.08475 0.1617,0.32341 0,0.72316 0,1.08475 0,0.72316 0,1.44632 0,2.16949 0,2.16949 0,4.33898 0,6.50847 0,0.72317 0,1.44633 0,2.16949 0,0.72317 0.32341,1.52268 0,2.1695 -0.16171,0.3234 -0.82907,-0.25568 -1.08475,0 -0.25567,0.25567 0.36159,1.08474 0,1.08474 -0.51135,0 -0.59963,-0.92304 -1.08474,-1.08474 -0.68606,-0.22869 -1.52268,0.3234 -2.16949,0 -0.32341,-0.16171 0.25567,-0.82907 0,-1.08475 -0.25568,-0.25568 -0.76134,0.1617 -1.08475,0 -0.91474,-0.45737 -1.31855,-1.6022 -2.16949,-2.16949 -0.67273,-0.44849 -1.49676,-0.63626 -2.16949,-1.08475 -0.42548,-0.28365 -0.62738,-0.85606 -1.08475,-1.08474 -0.46328,-0.23164 -4.99491,0 -5.42373,0 -3.9774,0 -7.9548,0 -11.9322,0 -2.89266,0 -5.78531,0 -8.67797,0 -0.56723,0 -4.05376,-0.14262 -4.33898,0 -0.45737,0.22868 -0.62738,0.85606 -1.08475,1.08474 -0.3234,0.16171 -0.72316,0 -1.08474,0 -0.36158,0 -0.72317,0 -1.08475,0 -1.44632,0 -2.89265,0 -4.33898,0 -0.36158,0 -0.82907,0.25568 -1.08475,0 -0.25567,-0.25567 0,-0.72316 0,-1.08474 0,-0.36159 0,-0.72317 0,-1.08475 0,-3.9774 0,-7.9548 0,-11.9322 0,-1.44633 0,-2.89266 0,-4.33899 0,-0.36158 0,-0.72316 0,-1.08474 0,-0.36158 -0.36158,-1.08475 0,-1.08475 0.36159,0 0.36159,1.08475 0,1.08475 -2.16739,0 -0.43843,-2.60793 -1.08474,-3.25424 -2.24438,-2.24438 0.0877,3.42971 -2.16949,-1.08474 -0.16171,-0.32341 0.1617,-0.76134 0,-1.08475 -0.22869,-0.45737 -0.85606,-0.62738 -1.08475,-1.08475 -0.1617,-0.3234 0.25568,-0.82906 0,-1.08474 -0.25568,-0.25568 -0.82907,0.25568 -1.08474,0 -0.25568,-0.25568 0.25567,-0.82907 0,-1.08475 -2.24438,-2.24438 0.0877,3.42971 -2.1695,-1.08474 -0.1617,-0.32341 0.25568,-0.82907 0,-1.08475 -0.25567,-0.25568 -0.78389,0.20057 -1.08474,0 -0.85095,-0.5673 -1.31855,-1.60219 -2.16949,-2.16949 -0.30086,-0.20057 -0.76134,0.1617 -1.08475,0 -0.45737,-0.22869 -0.62738,-0.85606 -1.08475,-1.08475 -0.3234,-0.1617 -0.76133,0.16171 -1.08474,0 -4.96446,-2.48222 4.60303,0.4496 -3.25424,-2.16949 -0.34302,-0.11434 -0.74172,0.11434 -1.08474,0 -0.76704,-0.25568 -1.38511,-0.88865 -2.1695,-1.08474 -0.70157,-0.1754 -1.46037,0.14182 -2.16949,0 -1.12121,-0.22425 -2.14495,-0.80743 -3.25423,-1.08475 -0.35079,-0.0877 -0.76134,0.1617 -1.08475,0 -0.45737,-0.22868 -0.62738,-0.85606 -1.08475,-1.08475 -0.68178,-0.34089 -3.65719,0.3409 -4.33898,0 -0.45737,-0.22868 -0.62738,-0.85606 -1.08474,-1.08474 -0.32341,-0.16171 -0.76134,0.1617 -1.08475,0 -0.45737,-0.22869 -0.59963,-0.92304 -1.08475,-1.08475 -4.93807,0 -0.062,0.51136 -3.25423,-1.08474 -0.32341,-0.16171 -0.82907,0.25567 -1.08475,0 -0.25568,-0.25568 0.25568,-0.82907 0,-1.08475 -0.57171,-0.57171 -1.59778,-0.51303 -2.16949,-1.08474 -0.25568,-0.25568 0.20057,-0.7839 0,-1.08475 -0.5673,-0.85094 -1.6022,-1.31855 -2.16949,-2.16949 -0.20057,-0.30086 0.11434,-0.74172 0,-1.08475 -2.61909,-7.85726 0.31273,1.71022 -2.16949,-3.25423 -0.32341,-0.64682 0.40114,-1.56779 0,-2.1695 -0.5673,-0.85094 -1.71213,-1.25475 -2.1695,-2.16949 -0.64681,-1.29363 0.35079,-2.93584 0,-4.33898 -1.30954,-5.23818 -0.51549,0.0538 -2.16949,-3.25424 -0.0284,-0.0568 -0.0284,-3.19749 0,-3.25424 1.46372,-2.92743 0.48621,0.0374 2.16949,-1.08474 0.85095,-0.5673 1.25476,-1.71212 2.1695,-2.16949 0.64681,-0.32341 1.65813,0.51135 2.16949,0 0.51135,-0.51136 -0.32341,-1.52268 0,-2.16949 0.1617,-0.32341 0.74172,0.11434 1.08474,0 0.76703,-0.25568 1.59778,-0.51304 2.1695,-1.08475 0.25567,-0.25568 -0.25568,-0.82907 0,-1.08475 0.16833,-0.16833 2.83213,0.1407 3.25423,0 0.76703,-0.25567 1.40246,-0.82906 2.16949,-1.08474 0.68606,-0.22869 1.65814,0.51135 2.1695,0 0.25567,-0.25568 -0.25568,-0.82907 0,-1.08475 0.25567,-0.25567 0.76133,0.16171 1.08474,0 0.45737,-0.22868 0.72316,-0.72316 1.08475,-1.08474 0.36158,-0.36158 0.92304,-0.59964 1.08474,-1.08475 0.22869,-0.68605 -0.32341,-1.52267 0,-2.16949 0.16171,-0.32341 0.82907,0.25568 1.08475,0 0.25568,-0.25568 -0.11434,-0.74172 0,-1.08475 0.25568,-0.76703 0.82907,-1.40246 1.08474,-2.16949 0.11435,-0.34302 -0.36158,-1.08474 0,-1.08474 0.36159,0 0,1.44632 0,1.08474 0,-0.72316 -0.3234,-1.52267 0,-2.16949 0.16171,-0.32341 0.82907,0.25568 1.08475,0 0.25568,-0.25568 -0.25568,-0.82907 0,-1.08474 0.57171,-0.57172 1.59778,-0.51304 2.16949,-1.08475 0.51136,-0.51135 -0.51135,-1.65814 0,-2.16949 0.25568,-0.25568 0.82907,0.25568 1.08475,0 0.25567,-0.25568 -0.25568,-0.82907 0,-1.08475 0.25567,-0.25567 0.92304,0.32341 1.08474,0 0.32341,-0.64682 0,-1.44633 0,-2.16949 0,-2.16949 0,-4.33898 0,-6.50847 0,-0.72317 0,-1.44633 0,-2.1695 0,-0.36158 -0.11434,-0.74171 0,-1.08474 1.40816,-4.22446 1.08475,-0.10148 1.08475,-4.33898 0,-0.72317 0,-1.44633 0,-2.1695 0,-0.72316 -0.32341,-1.52267 0,-2.16949 0.1617,-0.32341 0.92304,0.32341 1.08474,0 0.32341,-0.64681 -0.22868,-1.48344 0,-2.16949 1.12862,-3.38584 0.72317,0.36158 2.1695,-1.08474 0.22176,-0.22177 -0.21505,-2.82415 0,-3.25424 0.22868,-0.45737 0.85606,-0.62738 1.08474,-1.08475 0.32341,-0.64681 -0.32341,-1.52267 0,-2.16949 1.11167,-2.22333 2.89007,0.004 4.33898,-2.16949 0.40114,-0.60171 -0.22868,-1.48344 0,-2.16949 0.24135,-0.72403 4.00822,-3.67745 4.33899,-4.33899 0.32341,-0.64681 0,-1.44632 0,-2.16949 0,-1.80791 0,-3.61582 0,-5.42373 0,-0.36158 -0.16171,-0.76133 0,-1.08474 0.58303,-1.16607 1.68531,-2.04378 2.16949,-3.25424 0.40286,-1.00716 0,-2.16949 0,-3.25424 0,-2.89265 0,-5.78531 0,-8.67796 0,-2.89266 0,-5.78531 0,-8.67797 0,-0.9184 0.19439,-3.75582 0,-4.33898 -0.1617,-0.48511 -0.85606,-0.62738 -1.08475,-1.08475 -0.32341,-0.64681 0.32341,-1.52267 0,-2.16949 -0.22868,-0.45737 -0.85606,-0.62738 -1.08474,-1.08474 -0.16171,-0.32341 0.1617,-0.76134 0,-1.08475 -0.22869,-0.45737 -0.85606,-0.62738 -1.08475,-1.08475 -0.32341,-0.64681 0.32341,-1.52267 0,-2.16949 -0.22868,-0.45737 -0.8011,-0.65927 -1.08474,-1.08474 -1.33508,-2.00261 -1.91917,-4.50587 -3.25424,-6.50848 -0.28365,-0.42547 -0.85606,-0.62737 -1.08475,-1.08474 -0.1617,-0.32341 0,-0.72317 0,-1.08475 -0.36158,-0.72316 -0.63626,-1.49676 -1.08474,-2.16949 -1.41088,-2.11632 -0.52358,-0.53611 -2.16949,-1.08475 -0.76704,-0.25567 -1.49676,-0.63626 -2.1695,-1.08474 -2.14894,0.10828 -0.51303,-1.59778 -1.08474,-2.16949 -0.57171,-0.57171 -1.49676,-0.63626 -2.16949,-1.08475 -0.42548,-0.28365 -0.62738,-0.85606 -1.08475,-1.08475 -0.32341,-0.1617 -0.76134,0.16171 -1.08474,0 -0.82863,-0.41431 -2.51971,-3.00939 -3.25424,-3.25423 -0.68606,-0.22869 -1.52268,0.32341 -2.16949,0 -0.32341,-0.16171 0.1617,-0.76134 0,-1.08475 -0.10382,-0.20764 -4.13134,-4.23516 -4.33899,-4.33898 -0.3234,-0.16171 -0.76133,0.1617 -1.08474,0 -0.91474,-0.45737 -1.25476,-1.71212 -2.16949,-2.16949 -0.32341,-0.16171 -0.78389,0.20057 -1.08475,0 -0.85094,-0.5673 -1.44633,-1.44633 -2.16949,-2.16949 -0.36158,-0.36159 -0.85606,-0.62738 -1.08475,-1.08475 -0.16506,-0.33013 0,-2.76571 0,-3.25424 0,-2.53107 0,-5.06214 0,-7.59322 0,-2.16949 0,-4.33898 0,-6.50847 0,-0.36158 0.25568,-0.82907 0,-1.08475 -0.25567,-0.25568 -0.82907,0.25568 -1.08474,0 -0.25568,-0.25568 0.25567,-0.82907 0,-1.08474 -0.25568,-0.25568 -0.82907,0.25567 -1.08475,0 -0.16834,-0.16834 0.1407,-2.83214 0,-3.25424 -0.36158,-0.72317 -0.72316,-1.44633 -1.08474,-2.16949 -0.36159,0 -0.82907,0.25567 -1.08475,0 -0.25568,-0.25568 0.1617,-0.76134 0,-1.08475 -0.22868,-0.45737 -0.85606,-0.62738 -1.08475,-1.08474 -0.1617,-0.32341 0,-0.72317 0,-1.08475 -0.36158,-0.72316 -0.63625,-1.49676 -1.08474,-2.16949 -0.28365,-0.42547 -0.85606,-0.62738 -1.08475,-1.08475 -0.1617,-0.32341 0.25568,-0.82907 0,-1.08474 -0.25567,-0.25568 -0.74172,0.11434 -1.08474,0 -0.76703,-0.25568 -1.40246,-0.82907 -2.16949,-1.08475 -0.34303,-0.11434 -0.72317,0 -1.08475,0 -1.28131,0 -5.86342,0.21502 -6.50847,0 -0.0851,-0.0284 -3.22587,-3.16911 -3.25424,-3.25424 -0.22869,-0.68605 0.22868,-1.48343 0,-2.16949 -0.16171,-0.48511 -0.85606,-0.62737 -1.08475,-1.08474 -1.33584,-2.67168 3.14873,0.97923 -1.08474,-3.25424 -0.25568,-0.25568 -0.72317,0 -1.08475,0 -0.36158,0 -0.82907,-0.25568 -1.08474,0 -0.25568,0.25568 0.25567,0.82907 0,1.08475 -0.51136,0.51135 -1.56779,-0.40114 -2.1695,0 -3.63775,2.42516 -0.71807,2.16949 -3.25423,2.16949 -2.53108,0 -5.06215,0 -7.59322,0 -0.36159,0 -0.72317,0 -1.08475,0 -0.36158,0 -1.08475,0.36158 -1.08475,0 0,-0.36159 1.44633,0 1.08475,0 -0.72316,0 -1.44633,0 -2.16949,0 -0.26308,0 -3.21935,-0.0349 -3.25424,0 -0.57171,0.57171 -0.51303,1.59778 -1.08474,2.16949 -0.25568,0.25568 -0.72317,0 -1.08475,0 -0.72316,0 -1.56778,-0.40114 -2.16949,0 -0.67273,0.44849 -0.51304,1.59778 -1.08475,2.16949 -0.25567,0.25568 -0.82907,-0.25568 -1.08474,0 -0.25568,0.25568 0.1617,0.76134 0,1.08475 -0.22869,0.45736 -0.85606,0.62737 -1.08475,1.08474 -0.1617,0.32341 0.25568,0.82907 0,1.08475 -0.25568,0.25567 -0.82907,-0.25568 -1.08474,0 -0.57172,0.57171 -0.51304,1.59778 -1.08475,2.16949 -0.25568,0.25568 -0.82907,-0.25568 -1.08475,0 -0.25567,0.25568 0.25568,0.82907 0,1.08474 -4.23347,4.23348 -0.58256,-0.25109 -3.25423,1.08475 -0.45737,0.22868 -0.59964,0.92304 -1.08475,1.08475 -0.005,0.002 -3.2532,-0.001 -3.25424,0 -4.23347,4.23347 0.2511,0.58256 -1.08474,3.25423 -0.22869,0.45737 -0.85606,0.62738 -1.08475,1.08475 -0.32341,0.64682 0.32341,1.52267 0,2.16949 -0.22868,0.45737 -0.85606,0.62738 -1.08474,1.08475 -0.16171,0.3234 0.1617,0.76133 0,1.08474 -0.22869,0.45737 -0.85607,0.62738 -1.08475,1.08475 -0.1617,0.32341 0.36158,1.08474 0,1.08474 -0.36158,0 0,-1.44632 0,-1.08474 0,5.06214 0,10.12429 0,15.18644 0,0.36158 0,0.72316 0,1.08474 0,0.36159 0.25568,0.82907 0,1.08475 -0.92186,0.92186 -2.4058,1.17965 -3.25424,2.16949 -13.80927,16.11082 1.57681,-0.29449 -4.33898,7.59322 -0.61362,0.81817 -1.6022,1.31855 -2.16949,2.16949 -0.20057,0.30086 0.20057,0.78389 0,1.08475 -0.72317,0.72316 -1.44633,1.44633 -2.16949,2.16949 0,0.36158 0.1617,0.76134 0,1.08475 -0.44617,0.89233 -3.80414,3.53672 -4.33899,4.33898 -0.20057,0.30085 0.25568,0.82907 0,1.08475 -0.25567,0.25567 -0.82906,-0.25568 -1.08474,0 -0.57171,0.57171 -0.51304,1.59778 -1.08475,2.16949 -0.57171,0.57171 -1.59778,0.51303 -2.16949,1.08474 -0.57171,0.57171 -0.51303,1.59778 -1.08474,2.16949 -0.25568,0.25568 -0.76134,-0.1617 -1.08475,0 -0.45737,0.22869 -0.72316,0.72317 -1.08475,1.08475 -0.36158,0.36158 -0.72316,1.44633 -1.08474,1.08475 -0.36158,-0.36159 1.08474,-1.5961 1.08474,-1.08475 0,0.80852 -0.41201,1.721 -1.08474,2.16949 -0.60171,0.40114 -1.56778,-0.40114 -2.16949,0 -0.67273,0.44849 -0.51304,1.59778 -1.08475,2.16949 -0.25568,0.25568 -0.82907,-0.25567 -1.08475,0 -0.57171,0.57171 -0.51303,1.59778 -1.08474,2.16949 -0.25568,0.25568 -0.82907,-0.25567 -1.08475,0 -0.57171,0.57172 -0.63626,1.49677 -1.08474,2.1695 -0.5673,0.85094 -1.71213,1.25475 -2.16949,2.16949 -0.16171,0.32341 0,0.72316 0,1.08474 0,1.08475 0,2.16949 0,3.25424 0,0.72316 0.72316,2.16949 0,2.16949 -0.72317,0 0,-2.89265 0,-2.16949 0,1.80791 0,3.61582 0,5.42373 0,3.9774 0,7.9548 0,11.9322 0,3.61582 0,7.23164 0,10.84746 0,2.27507 -0.60455,5.90393 1.08474,7.59322 0.25568,0.25568 0.82907,-0.25568 1.08475,0 0.25567,0.25568 0,0.72316 0,1.08475 0.72316,0 1.52267,-0.32341 2.16949,0 0.32341,0.1617 -0.20057,0.78389 0,1.08474 0.5673,0.85095 1.44633,1.44633 2.16949,2.16949 0.36158,0.36159 0.62738,0.85606 1.08475,1.08475 0.32341,0.1617 1.08474,-0.36158 1.08474,0 0,0.36158 -1.40815,-0.1617 -1.08474,0 1.08474,0.36158 2.16949,0.72316 3.25423,1.08475 0.36159,0.36158 0.62738,0.85606 1.08475,1.08474 0.32341,0.16171 0.82907,-0.25568 1.08475,0 0.57171,0.57171 0.82906,1.40246 1.08474,2.16949 0.23539,0.70616 0,6.68507 0,7.59322 0,0.36158 0,0.72317 0,1.08475 0,0.36158 -0.1617,0.76134 0,1.08474 0.22869,0.45737 0.92304,0.59964 1.08475,1.08475 0.16552,0.49656 0,4.81827 0,5.42373 0,0.36158 0,0.72316 0,1.08474 0,0.36159 -0.16171,0.76134 0,1.08475 0.22868,0.45737 0.85606,0.62738 1.08474,1.08475 0.16171,0.3234 0,0.72316 0,1.08474 0,0.72317 -0.17539,1.46792 0,2.16949 0.1961,0.78438 0.82907,1.40246 1.08475,2.16949 0.22868,0.68606 -0.22869,1.48344 0,2.1695 0.25568,0.76703 0.82907,1.40246 1.08474,2.16949 0.22869,0.68605 -0.22868,1.48344 0,2.16949 0.25568,0.76703 0.82907,1.40246 1.08475,2.16949 0.11434,0.34303 -0.1617,0.76134 0,1.08475 0.22868,0.45737 1.44633,0.72316 1.08475,1.08474 -0.36159,0.36158 -1.5961,-1.08474 -1.08475,-1.08474 0.80852,0 1.44633,0.72316 2.16949,1.08474 0.72317,0.36158 1.59778,0.51304 2.16949,1.08475 0.25568,0.25568 -0.25567,0.82907 0,1.08474 0.28918,0.28918 4.9826,-0.29409 5.42373,0 0.67273,0.44849 0.51304,1.59778 1.08475,2.1695 10e-4,0.001 3.24932,-0.002 3.25423,0 0.48512,0.1617 0.72317,0.72316 1.08475,1.08474 0.36158,0.36158 0.85606,0.62738 1.08475,1.08475 0.1617,0.32341 -0.16171,0.76133 0,1.08474 2.25722,4.51445 -0.0749,-1.15963 2.16949,1.08475 0.25567,0.25568 -0.25568,0.82907 0,1.08474 0.25567,0.25568 0.82907,-0.25567 1.08474,0 0.25568,0.25568 0,0.72317 0,1.08475 0,0.72316 -0.32341,1.52267 0,2.16949 0.16171,0.32341 0.74172,-0.11434 1.08475,0 0.76703,0.25568 1.40246,0.82907 2.16949,1.08475 0.34303,0.11434 0.76134,-0.16171 1.08475,0 2.39843,1.19921 0.33662,0.67324 1.08474,2.16949 0.22869,0.45737 0.85606,0.62738 1.08475,1.08474 0.1617,0.32341 0,0.72317 0,1.08475 0,0.36158 0,0.72316 0,1.08475 0,0.56723 0.14261,4.05375 0,4.33898 -0.22869,0.45737 -0.85606,0.62738 -1.08475,1.08475 -0.1617,0.3234 0.11434,0.74171 0,1.08474 -0.25567,0.76703 -0.88865,1.38511 -1.08474,2.16949 -0.4435,1.77398 0.82495,2.29939 -1.08475,3.25424 -0.32341,0.1617 -0.76134,-0.1617 -1.08475,0 -0.91473,0.45737 -1.25475,1.71212 -2.16949,2.16949 -0.64681,0.32341 -1.65813,-0.51135 -2.16949,0 -0.25568,0.25568 0.16171,0.76134 0,1.08475 -0.45737,0.91473 -1.71212,1.25475 -2.16949,2.16949 -0.32341,0.64682 0.51135,1.65814 0,2.16949 -0.25568,0.25568 -0.74172,-0.11434 -1.08475,0 -0.76703,0.25568 -1.8079,1.80791 -2.16949,1.08475 -0.36158,-0.72317 2.74121,-1.65646 2.16949,-1.08475 -0.92185,0.92186 -2.47201,1.12653 -3.25423,2.16949 -0.4339,0.57853 0,1.44633 0,2.16949 0,2.16949 0,4.33899 0,6.50848 0,0.72316 0,1.44633 0,2.16949 0,1.55223 0.51135,2.45619 -1.08475,3.25424 -0.69317,0.34658 -3.46587,-0.29104 -4.33898,0 -0.76703,0.25567 -1.40246,0.82907 -2.16949,1.08474 -1.15933,0.38644 -4.50657,-0.45858 -5.42373,0 -0.32341,0.16171 0.25568,0.82907 0,1.08475 -0.13288,0.13287 -2.8605,-0.0984 -3.25424,0 -1.10928,0.27732 -2.14495,0.80742 -3.25424,1.08474 -1.00787,0.25197 -4.77737,-0.32317 -5.42373,0 -0.45736,0.22869 -0.62737,0.85607 -1.08474,1.08475 -0.32341,0.1617 -0.72316,0 -1.08475,0 -0.72316,0 -1.44632,0 -2.16949,0 -1.84554,0 -3.936687,-0.40229 -5.423727,1.08475 -0.255677,0.25567 0.255677,0.82906 0,1.08474 -0.255677,0.25568 -0.829069,-0.25568 -1.084746,0 -0.03489,0.0349 0,2.99116 0,3.25424 0,1.80791 0,3.61582 0,5.42373 0,0.72316 0,1.44632 0,2.16949 0,0.36158 0.161705,0.76134 0,1.08474 -0.228684,0.45737 -0.856061,0.62738 -1.084746,1.08475 -0.02837,0.0568 -0.02837,3.19749 0,3.25424 0.452742,0.90548 2.345278,1.73002 2.169492,2.16949 -0.671441,1.6786 -3.254237,2.53107 -3.254237,4.33898 0,3.08936 2.366517,5.7189 3.254237,8.67797 0.2078,0.69266 0.323409,1.52267 0,2.16949 -0.161704,0.32341 -1.084746,0.36158 -1.084746,0 0,-0.36158 1.084746,0.36158 1.084746,0 0,-0.51135 -0.856061,-0.62738 -1.084746,-1.08475 -0.197682,-0.39536 0,-4.7987 0,-5.42372"
     id="path3535"
     inkscape:connector-curvature="0" /><rect
     style="opacity:1;fill:#ffffff;fill-opacity:1;fill-rule:evenodd;stroke:none;stroke-opacity:1"
     id="rect3537"
     width="43.389832"
     height="10.847458"
     x="82.440681"
     y="371.69492" /><path
     style="fill:#ffc600;stroke:none;stroke-width:1px;stroke-linecap:butt;stroke-linejoin:miter;stroke-opacity:1;fill-opacity:1"
     d="m 333.01695,231.76271 c -0.36863,-2.09372 -7.217,-0.59775 -8.67797,-1.08474 -0.97022,-0.32341 -1.19926,-1.84609 -2.16949,-2.1695 -0.58316,-0.19438 -3.42058,0 -4.33898,0 -3.25424,0 -6.50848,0 -9.76271,0 -0.72317,0 -1.44633,0 -2.16949,0 -0.72317,0 -1.52268,0.32341 -2.1695,0 -0.3234,-0.1617 0.16171,-0.76133 0,-1.08474 -0.22868,-0.45737 -0.85606,-0.62738 -1.08474,-1.08475 -0.32341,-0.64681 0.51135,-1.65813 0,-2.16949 -0.25568,-0.25568 -0.82907,0.25568 -1.08475,0 -0.54237,-0.54237 0.54238,-2.71186 0,-3.25424 -0.57171,-0.57171 -1.721,-0.41201 -2.16949,-1.08474 -0.20871,-0.31307 0,-5.63342 0,-6.50848 0,-6.14689 0,-12.29378 0,-18.44067 0,-7.23164 0,-14.46328 0,-21.69492 0,-2.53107 0,-5.06215 0,-7.59322 0,-0.25777 -0.12156,-4.09586 0,-4.33898 0.22869,-0.45737 0.85606,-0.62738 1.08475,-1.08475 0.29423,-0.58846 -0.29681,-4.04217 0,-4.33898 0.25567,-0.25568 0.92304,0.32341 1.08474,0 0.48512,-0.97023 0,-2.16949 0,-3.25424 0,-2.89265 0,-5.78531 0,-8.67797 0,-9.56346 0,-17.94075 0,-24.94915 0,-6.50847 0,-13.01695 0,-19.525421 0,-0.428814 -0.23164,-4.960452 0,-5.423729 1.19922,-2.398433 0.67324,-0.33662 2.16949,-1.084746 0.45737,-0.228684 0.62738,-0.856061 1.08475,-1.084746 0.64002,-0.320011 2.50811,0.248708 3.25424,0 0.76703,-0.255677 1.40246,-0.829068 2.16949,-1.084745 0.68084,-0.226949 3.46572,0 4.33898,0 3.25424,0 6.50848,0 9.76271,0 1.14226,0 4.52481,0.224731 5.42373,0 1.10928,-0.277321 2.14496,-0.807426 3.25424,-1.084746 1.54523,-0.386308 3.9687,0.485009 5.42373,0 0.48511,-0.161705 0.59963,-0.923042 1.08474,-1.084746 1.02908,-0.343027 2.1695,0 3.25424,0 2.16949,0 4.33898,0 6.50848,0 2.53107,0 5.06214,0 7.59322,0 0.71279,0 2.64222,0.204004 3.25423,0 0.76703,-0.255677 1.40246,-0.829069 2.16949,-1.084746 0.34303,-0.114342 0.72317,0 1.08475,0 0.72316,0 1.44633,0 2.16949,0 2.89266,0 5.78531,0 8.67797,0 1.44633,0 2.89265,0 4.33898,0 0.72317,0 1.48344,-0.228684 2.16949,0 0.76703,0.255677 1.38511,0.888651 2.16949,1.084746 0.80517,0.201292 4.00603,-0.332957 4.33899,0 0.25567,0.255677 -0.25568,0.829069 0,1.084746 0.25567,0.255677 0.72316,0 1.08474,0 0.36159,0 0.72317,0 1.08475,0 2.16949,0 4.33898,0 6.50847,0 1.44633,0 2.9072,-0.204542 4.33899,0 1.13193,0.161704 2.14495,0.807425 3.25423,1.084746 0.35079,0.0877 0.72317,0 1.08475,0 2.16949,0 4.33898,0 6.50847,0 2.1695,0 4.33899,0 6.50848,0 0.72316,0 1.48344,-0.228685 2.16949,0 1.53406,0.511354 2.8376,1.568936 4.33898,2.169491 0.49547,0.198186 3.60849,0 4.33899,0 3.9774,0 7.9548,0 11.9322,0 0.72316,0 1.44633,0 2.16949,0 0.36158,0 0.74172,-0.114342 1.08475,0 0.76703,0.255677 1.40246,0.829069 2.16949,1.084746 0.87311,0.291037 3.64581,-0.346588 4.33898,0 0.45737,0.228684 0.59963,0.923041 1.08475,1.084746 0.49615,0.165382 3.85629,-0.241344 4.33898,0 0.45737,0.228684 0.62738,0.856061 1.08475,1.084745 0.23816,0.119083 6.428,0.02683 6.50847,0 0.48511,-0.161704 0.62738,-0.856061 1.08475,-1.084745 0.32341,-0.161705 1.08474,-0.361582 1.08474,0 0,0.361581 -1.44633,0 -1.08474,0 0.25777,0 4.09586,-0.121563 4.33898,0 4.51445,2.257226 -1.15963,-0.07489 1.08475,2.169491 0.25567,0.255677 0.82906,-0.255677 1.08474,0 0.25568,0.255677 -0.1617,0.761337 0,1.084746 0.22869,0.457369 0.85606,0.627377 1.08475,1.084746 0.1617,0.323408 0,0.723161 0,1.084741 0,0.72317 0,1.44633 0,2.1695 0,1.84025 0.40574,3.93323 -1.08475,5.42372 -0.25568,0.25568 -0.82907,-0.25567 -1.08474,0 -0.25568,0.25568 0,0.72317 0,1.08475 0,0.36158 0,0.72316 0,1.08475 0,4.70056 0,9.40113 0,14.10169 0,31.02471 0,55.50863 0,86.77966 0,3.61582 0,7.23164 0,10.84746 0,0.36158 0.25567,0.82907 0,1.08475 -0.25568,0.25567 -0.92305,-0.32341 -1.08475,0 -0.48511,0.97022 0,2.16949 0,3.25423 0,0.36158 0.32341,0.92304 0,1.08475 -0.53714,0.26857 -3.83087,-0.33874 -4.33898,0 -0.85095,0.5673 -1.25476,1.71212 -2.16949,2.16949 -0.46104,0.23052 -4.51472,0 -5.42373,0 -2.53108,0 -5.06215,0 -7.59322,0 -1.08475,0 -2.19056,0.21274 -3.25424,0 -1.12122,-0.22424 -2.14496,-0.80742 -3.25424,-1.08475 -0.39374,-0.0984 -3.12136,0.13288 -3.25424,0 -0.25567,-0.25567 0.25568,-0.82906 0,-1.08474 -0.22176,-0.22176 -2.82414,0.21505 -3.25423,0 -0.45737,-0.22869 -0.62738,-0.85606 -1.08475,-1.08475 -0.32341,-0.1617 -0.82907,0.25568 -1.08474,0 -0.25568,-0.25567 0,-0.72316 0,-1.08474 0,-0.36158 0,-0.72317 0,-1.08475 0,-2.53107 0,-5.06215 0,-7.59322 0,-0.36158 0,-0.72316 0,-1.08474 0,-0.36159 0.25567,-0.82907 0,-1.08475 -0.25568,-0.25568 -0.92305,0.32341 -1.08475,0 -0.32341,-0.64682 0.22868,-1.48344 0,-2.16949 -0.1617,-0.48512 -0.85606,-0.62738 -1.08475,-1.08475 -0.1617,-0.32341 0.16171,-0.76133 0,-1.08474 -0.56582,-1.13165 -2.62352,-1.71546 -2.16949,-2.1695 0.36158,-0.36158 1.54212,1.31344 1.08475,1.08475 -1.16607,-0.58303 -2.04378,-1.68531 -3.25424,-2.16949 -0.67144,-0.26858 -1.48344,0.22868 -2.16949,0 -0.97023,-0.32341 -1.25475,-1.71212 -2.16949,-2.16949 -0.32341,-0.16171 -0.82907,0.25567 -1.08475,0 -0.25568,-0.25568 0.25568,-0.82907 0,-1.08475 -0.15952,-0.15952 -3.25424,0.12762 -3.25424,0 0,-0.36158 1.08475,0.36158 1.08475,0 0,-0.51135 -0.72316,-0.72316 -1.08475,-1.08474 -0.36158,-0.36159 -0.59963,-0.92305 -1.08474,-1.08475 -0.73795,-0.24598 -4.84856,0.28759 -5.42373,0 -0.45737,-0.22868 -0.62738,-0.85606 -1.08475,-1.08475 -0.64681,-0.3234 -1.52267,0.32341 -2.16949,0 -0.91474,-0.45736 -1.25475,-1.71212 -2.16949,-2.16949 -0.32341,-0.1617 -0.72316,0 -1.08474,0 -0.36159,-0.36158 -0.62738,-0.85606 -1.08475,-1.08474 -0.64682,-0.32341 -1.65814,0.51135 -2.16949,0 -0.25568,-0.25568 0.25568,-0.82907 0,-1.08475 -0.25568,-0.25568 -0.82907,0.25568 -1.08475,0 -0.25567,-0.25568 0,-0.72316 0,-1.08474 0,-0.72317 0,-1.44633 0,-2.1695 0,-2.89265 0,-5.78531 0,-8.67796 0,-0.72317 0,-1.44633 0,-2.16949 0,-0.72317 -0.22868,-1.48344 0,-2.16949 0.32341,-0.97023 1.71212,-1.25476 2.16949,-2.1695 0.16171,-0.32341 -0.25567,-0.82907 0,-1.08474 0.25568,-0.25568 0.76134,0.1617 1.08475,0 0.91474,-0.45737 1.25475,-1.71212 2.16949,-2.16949 1.49625,-0.74813 0.97028,1.31368 2.16949,-1.08475 0.16171,-0.32341 0,-0.72316 0,-1.08475 0,-0.72316 0,-1.44632 0,-2.16949 0,-1.80791 0,-3.61582 0,-5.42373 0,-2.53107 0,-5.06214 0,-7.59322 0,-1.08474 0,-2.16949 0,-3.25423 0,-0.36159 -0.36158,-1.08475 0,-1.08475 0.36158,0 0,1.44633 0,1.08475 0,-0.25777 0.12156,-4.09586 0,-4.33899 -0.22868,-0.45737 -0.85606,-0.62737 -1.08474,-1.08474 -0.32341,-0.64682 0.32341,-1.52268 0,-2.16949 -0.22869,-0.45737 -0.85606,-0.62738 -1.08475,-1.08475 -0.32001,-0.64002 0.24871,-2.50811 0,-3.25424 -0.25568,-0.76703 -0.82907,-1.40246 -1.08474,-2.16949 -0.11435,-0.34302 0.1617,-0.76134 0,-1.08474 -1.34043,-2.68085 -1.08475,0.37443 -1.08475,-2.1695 0,-0.36158 0,-0.72316 0,-1.08474 0,-0.72317 -0.72316,-2.16949 0,-2.16949 0.72316,0 0.22868,2.85554 0,2.16949 -1.15566,-3.46697 -1.08475,-4.0333 -1.08475,-6.50848 0,-0.72316 0.22869,-1.48343 0,-2.16949 -0.1617,-0.48511 -1.44632,-0.72316 -1.08474,-1.08474 0.36158,-0.36158 1.44633,1.44632 1.08474,1.08474 -0.72316,-0.72316 -1.31854,-1.60219 -2.16949,-2.16949 -0.21202,-0.14135 -4.92885,0 -5.42373,0 -1.50304,0 -5.31872,-0.23795 -6.50847,0 -1.12122,0.22424 -2.13302,0.8605 -3.25424,1.08475 -1.06368,0.21273 -2.20188,-0.26309 -3.25424,0 -1.10928,0.27732 -2.14495,0.80742 -3.25423,1.08474 -1.08475,0.27119 -2.16949,-0.54237 -3.25424,0 -2.89266,1.44633 3.25424,1.08475 -1.08475,1.08475 -0.39835,0 -4.29533,-0.0436 -4.33898,0 -0.25568,0.25568 0.16171,0.76134 0,1.08474 -0.22868,0.45737 -0.72316,1.44633 -1.08474,1.08475 -0.36159,-0.36158 1.5961,-1.08475 1.08474,-1.08475 -9.44426,0 -1.40525,0.32051 -3.25424,2.1695 -0.25567,0.25567 -0.76133,-0.16171 -1.08474,0 -0.45737,0.22868 -0.62738,0.85606 -1.08475,1.08474 -1.0237,2.68993 -2.92465,0.6133 -4.33898,1.08475 -1.71486,0.57162 -3.32991,1.74062 -4.33898,3.25423 -0.10775,0.16163 0,2.89801 0,3.25424 0,2.16949 0,4.33898 0,6.50848 0,0.48852 0.16506,2.92411 0,3.25423 -0.22869,0.45737 -0.85607,0.62738 -1.08475,1.08475 -0.16506,0.33012 0,2.76571 0,3.25424 0,2.53107 0,5.06214 0,7.59322 0,0.61743 -0.074,4.22793 0,4.33898 0.44849,0.67273 1.59778,0.51303 2.16949,1.08475 0.25568,0.25567 0,0.72316 0,1.08474 0,0.72317 -0.32341,1.52268 0,2.16949 0.16171,0.32341 0.76134,-0.1617 1.08475,0 1.29152,0.64577 1.51371,2.16949 1.08474,2.16949 -0.36158,0 -0.1617,-1.40815 0,-1.08474 0.51136,1.02271 0.66009,2.1926 1.08475,3.25424 0.30028,0.75069 0.88865,1.38511 1.08474,2.16949 0.19214,0.76854 -0.27408,5.0126 0,5.42373 0.72317,0.72316 1.44633,1.44632 2.1695,2.16949 0,0.36158 -0.16171,0.76134 0,1.08474 0.22868,0.45737 0.72316,0.72317 1.08474,1.08475 0.36158,0.36158 0.62738,0.85606 1.08475,1.08475 0.32341,0.1617 0.82907,-0.25568 1.08474,0 0.25568,0.25567 -0.1617,0.76133 0,1.08474 0.22869,0.45737 0.85607,0.62738 1.08475,1.08475 0.1617,0.32341 0,0.72316 0,1.08474 0,0.36158 0.36158,1.08475 0,1.08475 -0.36158,0 0.36158,-1.08475 0,-1.08475 -0.34977,0 -1.56677,1.86813 -2.16949,2.16949 -0.32341,0.16171 -0.76134,-0.1617 -1.08475,0 -0.45737,0.22869 -0.62737,0.85607 -1.08474,1.08475 -0.64682,0.32341 -1.65814,-0.51135 -2.1695,0 -0.57171,0.57171 -0.51303,1.59778 -1.08474,2.16949 -0.25568,0.25568 -0.82907,-0.25568 -1.08475,0 -0.25567,0.25568 0.16171,0.76134 0,1.08475 -0.22868,0.45737 -0.80109,0.65927 -1.08474,1.08474 -0.44849,0.67273 -0.51304,1.59778 -1.08475,2.16949 -0.54237,0.54238 -2.71186,-0.54237 -3.25424,0 -0.25567,0.25568 0.25568,0.82907 0,1.08475 -0.26236,0.26236 -4.55897,-0.28825 -5.42372,0 -7.85727,2.61909 1.71021,-0.31274 -3.25424,2.16949 -0.64002,0.32001 -2.50812,-0.24871 -3.25424,0 -0.72316,0.36158 -1.44633,0.72317 -2.16949,1.08475 0,0.36158 0.25568,0.82907 0,1.08474 -0.25568,0.25568 -0.76134,-0.1617 -1.08475,0 -2.39843,1.19922 -0.33662,0.67324 -1.08474,2.16949 -0.22869,0.45737 -0.85606,0.62738 -1.08475,1.08475 -0.4339,0.8678 0.4339,2.38644 0,3.25424 -0.45737,0.91474 -1.71212,1.25475 -2.16949,2.16949 -0.1617,0.32341 0,0.72316 0,1.08475 0,0.36158 0,0.72316 0,1.08474 0,1.80791 0,3.61582 0,5.42373 0,0.36158 0,0.72316 0,1.08475 0,0.36158 0.16171,0.76133 0,1.08474 -0.22868,0.45737 -0.85606,0.62738 -1.08474,1.08475 -0.16171,0.32341 0.1617,0.76133 0,1.08474 -2.10746,4.21491 -1.08475,-5.38739 -1.08475,5.42373 z"
     id="path3539"
     inkscape:connector-curvature="0" /><path
     style="fill:#ffd440;stroke:none;stroke-width:1px;stroke-linecap:butt;stroke-linejoin:miter;stroke-opacity:1;fill-opacity:1"
     d="m 324.944,359.351 c -0.56325,1.94515 -0.82021,4.00658 -1.68976,5.83544 -0.0637,0.13395 -3.19922,0 -4.33899,0 -3.61581,0 -7.23163,0 -10.84745,0 -0.48853,0 -2.92412,0.16506 -3.25424,0 -1.5961,-0.79805 -1.08475,-1.702 -1.08475,-3.25424 0,-0.72316 0,-1.44632 0,-2.16949 0,-2.53107 0,-5.06215 0,-7.59322 0,-1.32413 0.42093,-2.5014 -1.08474,-3.25424 -3.25424,-1.62711 1.80791,3.61582 -1.08475,-2.16949 -0.45737,-0.91474 -1.60219,-1.31854 -2.16949,-2.16949 -0.15538,-0.23307 0,-3.63966 0,-4.33898 0,-3.61582 0,-7.23164 0,-10.84746 0,-2.16949 0,-4.33898 0,-6.50847 0,-0.72317 0.22869,-1.48344 0,-2.1695 -2.61909,-7.85726 0.31274,1.71022 -2.16949,-3.25423 -0.1649,-0.3298 0,-3.58995 0,-4.33899 0,-3.25423 0,-6.50847 0,-9.76271 0,-10.84746 0,-21.69491 0,-32.54237 0,-4.70057 0,-9.40113 0,-14.1017 0,-1.80791 0,-3.61581 0,-5.42372 0,-0.72317 -0.22869,-1.48344 0,-2.1695 0.25568,-0.76703 0.82907,-1.40246 1.08474,-2.16949 0.34648,-1.03941 -0.33497,-4.41881 0,-5.42373 0.16171,-0.48511 0.85607,-0.62737 1.08475,-1.08474 0.34089,-0.68179 -0.34089,-3.6572 0,-4.33899 1.34042,-2.68084 1.08475,0.37444 1.08475,-2.16949 0,-2.89265 -0.36159,0.36159 1.08474,-1.08474 0.25568,-0.25568 -0.32341,-0.92304 0,-1.08475 0.64682,-0.32341 1.44633,0 2.16949,0 2.1695,0 4.33899,0 6.50848,0 1.80791,0 3.61582,0 5.42373,0 0.36158,0 0.72316,0 1.08474,0 0.36158,0 0.76134,0.16171 1.08475,0 0.45737,-0.22868 0.62738,-0.85606 1.08474,-1.08474 0.32341,-0.16171 0.74172,0.11434 1.08475,0 0.76703,-0.25568 1.40246,-0.82907 2.16949,-1.08475 0.34303,-0.11434 0.72317,0 1.08475,0 1.02165,0 4.80666,0.20569 5.42373,0 0.48511,-0.1617 0.62737,-0.85606 1.08474,-1.08475 0.49356,-0.24677 5.18722,0.0591 5.42373,0 0.49609,-0.12402 0.62738,-0.85606 1.08475,-1.08474 0.28046,-0.14023 5.7396,0 6.50847,0 0.72317,0 2.16949,-0.72317 2.16949,0 0,0.72316 -2.89265,0 -2.16949,0 1.08475,0 2.16949,0 3.25424,0 1.44633,0 2.89265,0 4.33898,0 0.72317,0 1.44633,0 2.16949,0 0.36158,0 0.74172,-0.11434 1.08475,0 0.76703,0.25568 1.40246,0.82907 2.16949,1.08474 1.30611,0.43537 1.94813,-0.43536 3.25424,0 0.48511,0.16171 0.62737,0.85607 1.08474,1.08475 0.32341,0.1617 0.72317,0 1.08475,0 0.36158,0 0.72316,0 1.08474,0 1.80791,0 3.61582,0 5.42373,0 1.08475,0 2.20188,-0.26309 3.25424,0 0.49609,0.12402 0.59963,0.92304 1.08475,1.08475 0.68605,0.22868 1.44632,0 2.16949,0 2.89265,0 5.78531,0 8.67796,0 8.67797,0 17.35594,0 26.0339,0 2.53108,0 5.06215,0 7.59322,0 0.72317,0 1.44633,0 2.16949,0 0.72317,0 1.48344,-0.22869 2.1695,0 0.48511,0.1617 0.58866,0.96072 1.08474,1.08474 1.05236,0.26309 2.16949,0 3.25424,0 2.89265,0 5.78531,0 8.67797,0 1.08474,0 2.28401,-0.48511 3.25423,0 0.32341,0.16171 -0.34302,0.97041 0,1.08475 1.02908,0.34302 2.19056,-0.21274 3.25424,0 0.79282,0.15856 1.37667,0.92618 2.16949,1.08474 1.7728,0.35456 3.61582,0 5.42373,0 0.72316,0 1.48344,-0.22868 2.16949,0 0.48511,0.16171 1.44633,0.72317 1.08475,1.08475 -0.36158,0.36158 -1.5961,-1.08475 -1.08475,-1.08475 0.80852,0 1.40246,0.82907 2.16949,1.08475 0.34303,0.11434 0.72317,0 1.08475,0 2.16949,0 4.33898,0 6.50847,0 1.08475,0 2.22516,0.34303 3.25424,0 0.48511,-0.16171 0.62738,-0.85606 1.08475,-1.08475 0.32341,-0.1617 0.72316,0 1.08474,0 0.36158,0 0.82907,-0.25567 1.08475,0 0.25568,0.25568 -0.16171,0.76134 0,1.08475 0.22868,0.45737 0.85606,0.62738 1.08474,1.08474 0.16171,0.32341 -0.1617,0.76134 0,1.08475 0.22869,0.45737 0.85607,0.62738 1.08475,1.08475 0.32341,0.64681 -0.32341,1.52267 0,2.16949 0.22868,0.45737 0.85606,0.62737 1.08475,1.08474 0.19614,0.39228 0,4.66925 0,5.42373 0,0.36158 0,0.72317 0,1.08475 0,0.36158 0.36158,1.08474 0,1.08474 -0.36159,0 0,-1.44632 0,-1.08474 0,1.44633 0,2.89265 0,4.33898 0,1.44633 0,2.89266 0,4.33898 0,0.72317 0,1.44633 0,2.1695 0,0.36158 -0.11435,0.74171 0,1.08474 0.25567,0.76703 0.82906,1.40246 1.08474,2.16949 0.20401,0.61202 0,2.54145 0,3.25424 0,3.25424 0,6.50847 0,9.76271 0,0.87326 -0.22695,3.65814 0,4.33899 0.25568,0.76703 0.82907,1.40246 1.08475,2.16949 0.34302,1.02908 -0.26309,2.20188 0,3.25423 0.19609,0.78439 0.82907,1.40246 1.08474,2.1695 0.22695,0.68084 0,3.46572 0,4.33898 0,3.61582 0,7.23164 0,10.84746 0,3.25423 0,6.50847 0,9.76271 0,0.42881 0.23164,4.96045 0,5.42373 -0.22868,0.45737 -0.85606,0.62737 -1.08474,1.08474 -0.34659,0.69318 0.29103,3.46587 0,4.33899 -0.25568,0.76703 -0.82907,1.40246 -1.08475,2.16949 -0.22758,0.68274 0,4.44597 0,5.42373 0,3.61582 0,7.23163 0,10.84745 0,2.1695 0,4.33899 0,6.50848 0,0.58984 0.17686,3.43109 -1.08474,2.16949 -0.36159,-0.36158 1.08474,-1.5961 1.08474,-1.08475 0,0.80853 -0.88865,1.38511 -1.08474,2.1695 -0.1754,0.70157 0.3234,1.52267 0,2.16949 -0.16171,0.32341 -0.92305,-0.32341 -1.08475,0 -0.48777,0.97554 0.48777,5.53293 0,6.50847 -0.32341,0.64682 -1.52267,-0.32341 -2.16949,0 -0.45737,0.22869 -0.72317,0.72317 -1.08475,1.08475 -0.72316,0.72316 -1.60219,1.31854 -2.16949,2.16949 -0.20057,0.30085 0.11434,0.74172 0,1.08474 -0.25568,0.76704 -0.66876,1.47619 -1.08474,2.1695 -0.72317,1.08474 -1.44633,2.16949 -2.1695,3.25423 -0.36158,0 -0.82907,-0.25567 -1.08474,0 -0.57171,0.57171 -0.51304,1.59778 -1.08475,2.1695 -0.25567,0.25567 -0.72316,0 -1.08474,0 -0.57949,0 -5.11328,0.15522 -5.42373,0 -0.45737,-0.22869 -0.62738,-0.85607 -1.08475,-1.08475 -0.43009,-0.21505 -3.03247,0.22176 -3.25424,0 -0.25567,-0.25568 0.25568,-0.82907 0,-1.08475 -0.51135,-0.51135 -1.52267,0.32341 -2.16949,0 -0.45737,-0.22868 -0.65927,-0.80109 -1.08474,-1.08474 -0.20206,-0.13471 -4.26948,-2.09998 -4.33899,-2.16949 -0.25567,-0.25568 0.25568,-0.82907 0,-1.08475 -0.72316,-0.36158 -1.44632,-0.72316 -2.16949,-1.08475 0,-0.36158 0.25568,-0.82906 0,-1.08474 -0.25567,-0.25568 -0.82907,0.25568 -1.08474,0 -0.16834,-0.16834 0.1407,-2.83214 0,-3.25424 -2.61909,-7.85726 0.31273,1.71022 -2.16949,-3.25424 -0.16171,-0.3234 0.1617,-0.76133 0,-1.08474 -0.22869,-0.45737 -0.85607,-0.62738 -1.08475,-1.08475 -0.1617,-0.32341 0.1617,-0.76133 0,-1.08474 -0.22868,-0.45737 -0.85606,-0.62738 -1.08475,-1.08475 -0.3234,-0.64682 0.51136,-1.65814 0,-2.16949 -0.25567,-0.25568 -0.82906,0.25568 -1.08474,0 -0.16834,-0.16834 0.1407,-2.83214 0,-3.25424 -2.61909,-7.85726 0.31273,1.71022 -2.16949,-3.25423 -0.16171,-0.32341 0.25567,-0.82907 0,-1.08475 -0.25568,-0.25568 -1.08475,0.36158 -1.08475,0 0,-0.36158 1.34042,0.25568 1.08475,0 -4.23348,-4.23348 -0.58256,0.25109 -3.25424,-1.08475 -0.45737,-0.22868 -0.62738,-0.85606 -1.08475,-1.08474 -0.64681,-0.32341 -1.52267,0.32341 -2.16949,0 -0.45737,-0.22869 -0.62737,-0.85606 -1.08474,-1.08475 -0.68179,-0.34089 -3.6572,0.3409 -4.33899,0 -0.32341,-0.1617 0.25568,-0.82907 0,-1.08474 -0.25567,-0.25568 -0.72316,0 -1.08474,0 -1.80791,0 -3.61582,0 -5.42373,0 -0.36158,0 -0.82907,0.25567 -1.08475,0 -0.57171,-0.57171 -0.51303,-1.59778 -1.08474,-2.16949 -0.21114,-0.21114 -5.02764,0.19804 -5.42373,0 -0.91474,-0.45737 -1.31855,-1.6022 -2.16949,-2.1695 -0.30086,-0.20057 -0.76134,0.16171 -1.08475,0 -2.19147,-1.09573 -0.36415,-2.1772 -1.08474,-4.33898 -0.11435,-0.34303 -0.92305,0.32341 -1.08475,0 -0.32341,-0.64682 0.17539,-1.46792 0,-2.16949 -0.1961,-0.78438 -0.82907,-1.40246 -1.08475,-2.16949 -0.11434,-0.34303 0.16171,-0.76134 0,-1.08475 -0.22868,-0.45737 -0.85606,-0.62738 -1.08474,-1.08474 -0.0284,-0.0567 -0.0284,-3.19749 0,-3.25424 0.22868,-0.45737 0.62737,-0.85606 1.08474,-1.08475 0.8678,-0.4339 2.38644,0.4339 3.25424,0 0.45737,-0.22868 0.62738,-0.85606 1.08475,-1.08474 0.64681,-0.32341 1.52267,0.32341 2.16949,0 2.46903,-2.46904 -0.22466,-0.2867 2.16949,-1.08475 0.76703,-0.25568 1.44633,-0.72316 2.16949,-1.08474 0.72317,-0.36159 1.59778,-0.51304 2.16949,-1.08475 0.25568,-0.25568 -0.36158,-1.08475 0,-1.08475 0.36158,0 0,1.44633 0,1.08475 0,-5.78531 0,-11.57062 0,-17.35593 0,-0.72317 0,-1.44633 0,-2.16949 0,-0.36159 -0.25567,-0.82907 0,-1.08475 0.25568,-0.25568 0.82907,0.25568 1.08475,0 0.25568,-0.25568 0,-0.72316 0,-1.08475 0,-2.53107 0,-5.06214 0,-7.59322 0,-0.36158 0.25568,-0.82906 0,-1.08474 -0.25568,-0.25568 -0.82907,0.25568 -1.08475,0 -0.25567,-0.25568 0,-0.72317 0,-1.08475 0,-0.75448 0.19614,-5.03145 0,-5.42373 -0.45737,-0.91473 -1.84608,-1.19926 -2.16949,-2.16949 -0.38422,-1.15266 0.38422,-3.18632 0,-4.33898 -2.61909,-7.85727 0.31274,1.71022 -2.16949,-3.25424 -0.32341,-0.64682 0.40114,-1.56778 0,-2.16949 -0.5673,-0.85094 -1.6022,-1.31855 -2.16949,-2.16949 -0.20057,-0.30086 0.25568,-0.82907 0,-1.08475 -0.006,-0.006 -3.21798,0.009 -3.25424,0 -5.63262,-1.40815 1.15801,-1.08474 -4.33898,-1.08474 -1.08475,0 -2.28401,0.48511 -3.25424,0 -0.32341,-0.16171 0.25568,-0.82907 0,-1.08475 -0.25568,-0.25568 -0.72316,0 -1.08475,0 -1.44632,0 -2.89265,0 -4.33898,0 -0.36158,0 -0.76134,-0.1617 -1.08474,0 -0.45737,0.22869 -0.65928,0.8011 -1.08475,1.08475 -0.67273,0.44848 -1.44633,0.72316 -2.16949,1.08474 -0.72317,0.36159 -1.40246,0.82907 -2.16949,1.08475 -0.34303,0.11434 -0.72317,0 -1.08475,0 -0.36158,0.36158 -0.62738,0.85606 -1.08474,1.08474 -0.32341,0.16171 -0.82907,-0.25567 -1.08475,0 -0.25568,0.25568 0.25568,0.82907 0,1.08475 -0.51135,0.51135 -1.52267,-0.32341 -2.16949,0 -0.45737,0.22868 -0.62738,0.85606 -1.08475,1.08475 -0.32341,0.1617 -0.72316,0 -1.08474,0 -0.72317,0 -1.48344,-0.22869 -2.16949,0 -0.48512,0.1617 -0.62738,0.85606 -1.08475,1.08474 -0.43009,0.21505 -3.03248,-0.22176 -3.25424,0 -0.25567,0.25568 0.16171,0.76134 0,1.08475 -2.25722,4.51445 0.0749,-1.15963 -2.16949,1.08474 -0.25568,0.25568 0.25568,0.82907 0,1.08475 -0.25568,0.25568 -0.82907,-0.25568 -1.08475,0 -0.25567,0.25568 0.32341,0.92304 0,1.08474 -2.06964,1.03483 -2.09032,-1.24308 -3.25423,1.08475 -0.32341,0.64682 0.32341,1.52267 0,2.16949 -0.22869,0.45737 -0.92304,0.59963 -1.08475,1.08475 -0.34302,1.02908 0,2.16949 0,3.25424 0,0.48852 0.16506,2.92411 0,3.25423 -0.22868,0.45737 -0.85606,0.62738 -1.08474,1.08475 -0.33596,0.6719 0.32095,4.01802 0,4.33898 -0.25568,0.25568 -0.82907,-0.25568 -1.08475,0 -0.0349,0.0349 0,2.99116 0,3.25424 0,2.89265 0,5.78531 0,8.67796 0,0.56724 -0.14261,4.05376 0,4.33899 0.22868,0.45737 0.85606,0.62737 1.08475,1.08474 0.1617,0.32341 0,0.72317 0,1.08475 0,0.72316 -0.22869,1.48344 0,2.16949 1.12861,3.38584 0.72316,-0.36158 2.16949,1.08475 0.51135,0.51135 -0.32341,1.52267 0,2.16949 0.22868,0.45737 0.85606,0.62738 1.08474,1.08474 0.34606,0.69211 -0.33361,4.75651 0,5.42373 0.16171,0.32341 0.82907,-0.25567 1.08475,0 0.25568,0.25568 0,0.72317 0,1.08475 0,1.61157 -0.26406,2.99018 1.08474,4.33898 0.51136,0.51136 1.52268,-0.32341 2.1695,0 0.45737,0.22869 0.62737,0.85606 1.08474,1.08475 0.32341,0.1617 0.82907,-0.25568 1.08475,0 0.25568,0.25567 -0.16171,0.76133 0,1.08474 0.22868,0.45737 0.85606,0.62738 1.08474,1.08475 0.16171,0.32341 0.36159,1.08474 0,1.08474 -0.36158,0 0,-1.44632 0,-1.08474 0,1.44633 0,2.89265 0,4.33898 0,0.26308 0.0349,3.21935 0,3.25424 -0.25567,0.25568 -0.72316,0 -1.08474,0 -0.36158,0 -0.72317,0 -1.08475,0 -0.94489,0 -6.10809,-0.20019 -6.50847,0 -0.45737,0.22868 -0.62738,0.85606 -1.08475,1.08475 -0.68433,0.34216 -4.73939,-0.34217 -5.42373,0 -0.45737,0.22868 -0.62737,0.85606 -1.08474,1.08474 -0.64682,0.32341 -1.52268,-0.32341 -2.16949,0 -0.45737,0.22869 -0.59964,0.92304 -1.08475,1.08475 -0.68605,0.22868 -1.48344,-0.22869 -2.16949,0 -0.48511,0.1617 -0.72317,0.72316 -1.08475,1.08474 -0.36158,0.36158 -0.80109,0.65928 -1.08474,1.08475 -0.44849,0.67273 -0.72317,1.44633 -1.08475,2.16949 -0.36158,0.72316 -0.72316,1.44633 -1.08474,2.16949 -0.36159,0 -0.82907,-0.25568 -1.08475,0 -0.51135,0.51136 0.32341,1.52268 0,2.16949 -0.22868,0.45737 -0.72316,0.72317 -1.08475,1.08475 0,0.72316 0.22869,1.48344 0,2.16949 -0.71953,2.15859 -1.01243,0.50621 -2.16949,1.08475 -0.45737,0.22868 -0.72316,0.72316 -1.08474,1.08474 -0.72317,0.72317 -1.31855,1.6022 -2.16949,2.16949 -0.30086,0.20057 -0.76134,-0.1617 -1.08475,0 -2.29059,1.1453 -0.47777,3.60279 -1.08475,5.42373 -0.4468,1.34042 -1.20527,1.08475 -2.16949,1.08475 -0.36158,0 -1.08474,0.36158 -1.08474,0 0,-0.36158 0.72316,0 1.08474,0 -1.60624,-0.49882 -3.21247,-0.99764 -4.81871,-1.49646"
     id="path3543"
     inkscape:connector-curvature="0" /><g
     id="g307"
     transform="translate(0,-16.899)"><g
       id="g305"><path
         d="M 486.881,68.409 H 306.759 c 0.002,-0.179 0.014,-0.355 0.014,-0.534 0,-27.995 -22.777,-50.772 -50.772,-50.772 -27.995,0 -50.772,22.777 -50.772,50.772 0,0.18 0.012,0.356 0.014,0.534 H 25.119 C 11.268,68.409 0,79.677 0,93.528 V 401.37 c 0,13.851 11.268,25.119 25.119,25.119 h 161.942 l -6.547,52.376 h -18.576 c -4.427,0 -8.017,3.589 -8.017,8.017 0,4.427 3.589,8.017 8.017,8.017 h 188.125 c 4.427,0 8.017,-3.589 8.017,-8.017 0,-4.427 -3.589,-8.017 -8.017,-8.017 h -18.576 l -6.547,-52.376 h 161.942 c 13.851,0 25.119,-11.268 25.119,-25.119 V 93.528 C 512,79.677 500.732,68.409 486.881,68.409 Z M 256,33.136 c 19.155,0 34.739,15.584 34.739,34.739 0,19.155 -15.584,34.739 -34.739,34.739 -19.155,0 -34.739,-15.584 -34.739,-34.739 0,-19.155 15.584,-34.739 34.739,-34.739 z m 34.739,85.511 V 376.25 h -35.273 v -5.31 c 0,-10.829 -6.903,-20.406 -17.176,-23.83 l -27.918,-9.307 c -0.528,-0.176 -1.024,-0.408 -1.5,-0.669 -0.096,-0.088 -0.186,-0.18 -0.288,-0.263 -0.423,-0.349 -0.871,-0.647 -1.338,-0.896 -1.911,-1.688 -3.087,-4.125 -3.087,-6.792 v -12.648 l 13.035,-6.518 c 7.528,-3.765 12.647,-10.999 13.69,-19.351 l 2.01,-16.079 c 9.17,-12.039 14.021,-26.193 14.021,-40.976 0,-25.046 -13.99,-47.094 -35.065,-59.774 0.565,-2.496 0.86,-5.044 0.86,-7.624 0,-20.924 -18.941,-37.946 -42.221,-37.946 -23.28,0 -42.221,17.022 -42.221,37.946 0,2.577 0.29,5.129 0.856,7.628 -21.073,12.68 -35.061,34.726 -35.061,59.77 0,14.823 4.845,28.938 14.019,40.973 l 2.011,16.084 c 1.044,8.352 6.162,15.588 13.691,19.351 l 13.035,6.518 v 12.648 c 0,3.917 -2.496,7.381 -6.212,8.618 l -27.918,9.307 c -10.273,3.424 -17.176,13.001 -17.176,23.83 v 5.31 H 50.238 V 118.647 Z m -120.25,59.858 c 33.3,0 60.392,24.72 60.392,55.106 0,1.583 -0.081,3.156 -0.228,4.719 L 201.99,207.761 c -1.485,-1.583 -3.549,-2.497 -5.72,-2.532 -2.177,-0.027 -4.263,0.812 -5.798,2.347 -22.979,22.979 -78.223,23.307 -78.774,23.308 -0.518,0 -1.03,0.057 -1.532,0.155 1.48,-29.196 27.967,-52.534 60.323,-52.534 z m -26.188,-12.292 c 0,-12.083 11.748,-21.912 26.188,-21.912 14.44,0 26.188,9.83 26.188,21.912 0,0.186 -0.021,0.369 -0.027,0.555 -8.165,-2.778 -16.976,-4.296 -26.161,-4.296 -9.186,0 -17.998,1.518 -26.163,4.296 -0.006,-0.185 -0.025,-0.369 -0.025,-0.555 z m 51.251,58.123 24.236,25.848 -4.811,38.496 c -0.378,3.022 -2.229,5.638 -4.952,7 l -27.823,13.912 c -7.335,3.666 -16.09,3.665 -23.424,0 L 130.955,295.68 c -2.724,-1.362 -4.575,-3.978 -4.952,-7 l -5.262,-42.097 c 16.634,-1.028 52.262,-5.215 74.811,-22.247 z m -42.7,104.849 v -4.676 c 5.573,2.56 11.602,3.857 17.637,3.857 6.035,0 12.064,-1.297 17.637,-3.857 v 4.676 c 0,5.02 1.498,9.76 4.112,13.753 -6.115,4.92 -13.741,7.659 -21.749,7.659 -7.962,0 -15.622,-2.746 -21.747,-7.662 2.613,-3.992 4.11,-8.732 4.11,-13.75 z m 17.637,37.445 c 12.991,0 25.294,-4.928 34.648,-13.679 0.056,0.019 0.109,0.044 0.165,0.062 l 27.918,9.307 c 3.717,1.239 6.212,4.702 6.212,8.62 v 5.31 H 101.545 v -5.31 c 0,-3.918 2.497,-7.381 6.212,-8.62 l 27.918,-9.307 c 0.056,-0.018 0.108,-0.043 0.164,-0.062 9.361,8.741 21.733,13.679 34.65,13.679 z m 26.183,112.234 6.547,-52.376 h 105.563 l 6.546,52.376 z M 495.967,401.37 c 0,5.01 -4.076,9.086 -9.086,9.086 H 25.119 c -5.01,0 -9.086,-4.076 -9.086,-9.086 V 93.528 c 0,-5.01 4.076,-9.086 9.086,-9.086 h 182.899 c 2.367,6.835 6.151,13.007 11.005,18.171 H 42.221 c -4.427,0 -8.017,3.589 -8.017,8.017 v 273.637 c 0,4.427 3.589,8.017 8.017,8.017 h 427.557 c 4.427,0 8.017,-3.589 8.017,-8.017 V 110.63 c 0,-4.427 -3.589,-8.017 -8.017,-8.017 H 292.977 c 4.854,-5.164 8.639,-11.337 11.005,-18.171 H 486.88 c 5.01,0 9.086,4.076 9.086,9.086 V 401.37 Z m -71.404,-188.716 -15.177,-3.795 v -2.482 c 5.363,-4.722 8.551,-11.569 8.551,-18.787 v -42.756 c 0,-4.427 -3.589,-8.017 -8.017,-8.017 h -34.205 c -13.851,0 -25.119,11.268 -25.119,25.119 v 25.653 c 0,7.218 3.188,14.065 8.551,18.787 v 2.482 l -15.178,3.795 c -11.202,2.8 -19.026,12.821 -19.026,24.369 v 2.409 H 306.772 V 118.647 h 154.99 v 120.785 h -18.171 v -2.409 c 0,-11.548 -7.824,-21.568 -19.028,-24.369 z m -53.366,-17.261 c -2.859,-1.664 -4.566,-4.581 -4.566,-7.802 v -25.653 c 0,-5.01 4.076,-9.086 9.086,-9.086 h 26.188 v 34.739 c 0,3.221 -1.707,6.138 -4.566,7.802 -2.467,1.436 -3.985,4.075 -3.985,6.929 v 12.798 c 0,3.678 2.503,6.885 6.072,7.777 l 21.25,5.313 c 4.052,1.012 6.882,4.637 6.882,8.814 v 2.408 h -86.58 v -2.409 c 0,-4.177 2.829,-7.801 6.882,-8.814 l 21.251,-5.312 c 3.569,-0.891 6.072,-4.098 6.072,-7.777 v -12.798 c -10e-4,-2.856 -1.519,-5.494 -3.986,-6.929 z m 90.565,60.073 v 120.785 h -18.171 v -2.409 c 0,-11.547 -7.824,-21.568 -19.027,-24.369 l -15.177,-3.795 v -2.482 c 5.363,-4.722 8.551,-11.569 8.551,-18.787 v -42.756 c 0,-4.427 -3.589,-8.017 -8.017,-8.017 h -34.205 c -13.851,0 -25.119,11.268 -25.119,25.119 v 25.653 c 0,7.218 3.188,14.064 8.551,18.787 v 2.482 l -15.178,3.795 c -11.202,2.801 -19.026,12.821 -19.026,24.369 v 2.409 H 306.773 V 255.466 Z m -90.565,76.745 c -2.859,-1.664 -4.566,-4.581 -4.566,-7.802 v -25.653 c 0,-5.01 4.076,-9.086 9.086,-9.086 h 26.188 v 34.739 c 0,3.221 -1.707,6.138 -4.566,7.802 -2.467,1.435 -3.985,4.075 -3.985,6.929 v 12.798 c 0,3.678 2.503,6.885 6.072,7.777 l 21.25,5.312 c 4.052,1.013 6.883,4.638 6.883,8.815 v 2.408 h -86.58 v -2.409 c 0,-4.177 2.829,-7.802 6.882,-8.815 l 21.251,-5.311 c 3.569,-0.893 6.072,-4.099 6.072,-7.777 V 339.14 c -0.002,-2.855 -1.52,-5.493 -3.987,-6.929 z"
         id="path303"
         inkscape:connector-curvature="0" /></g></g><g
     id="g313"
     transform="translate(0,-16.899)"><g
       id="g311"><path
         d="m 256,51.307 c -9.136,0 -16.568,7.432 -16.568,16.568 0,9.136 7.432,16.568 16.568,16.568 9.136,0 16.568,-7.432 16.568,-16.568 0,-9.136 -7.432,-16.568 -16.568,-16.568 z"
         id="path309"
         inkscape:connector-curvature="0" /></g></g><g
     id="g315"
     transform="translate(0,-34)" /><g
     id="g317"
     transform="translate(0,-34)" /><g
     id="g319"
     transform="translate(0,-34)" /><g
     id="g321"
     transform="translate(0,-34)" /><g
     id="g323"
     transform="translate(0,-34)" /><g
     id="g325"
     transform="translate(0,-34)" /><g
     id="g327"
     transform="translate(0,-34)" /><g
     id="g329"
     transform="translate(0,-34)" /><g
     id="g331"
     transform="translate(0,-34)" /><g
     id="g333"
     transform="translate(0,-34)" /><g
     id="g335"
     transform="translate(0,-34)" /><g
     id="g337"
     transform="translate(0,-34)" /><g
     id="g339"
     transform="translate(0,-34)" /><g
     id="g341"
     transform="translate(0,-34)" /><g
     id="g343"
     transform="translate(0,-34)" /></svg>