<?xml version="1.0" encoding="UTF-8" standalone="no"?>
<!-- Generator: Adobe Illustrator 19.0.0, SVG Export Plug-In . SVG Version: 6.00 Build 0)  -->

<svg
   xmlns:dc="http://purl.org/dc/elements/1.1/"
   xmlns:cc="http://creativecommons.org/ns#"
   xmlns:rdf="http://www.w3.org/1999/02/22-rdf-syntax-ns#"
   xmlns:svg="http://www.w3.org/2000/svg"
   xmlns="http://www.w3.org/2000/svg"
   xmlns:sodipodi="http://sodipodi.sourceforge.net/DTD/sodipodi-0.dtd"
   xmlns:inkscape="http://www.inkscape.org/namespaces/inkscape"
   version="1.1"
   id="Layer_1"
   x="0px"
   y="0px"
   viewBox="0 0 512 478"
   xml:space="preserve"
   sodipodi:docname="icon-distance-learning.svg"
   width="512"
   height="478"
   inkscape:version="0.92.2 (5c3e80d, 2017-08-06)"><metadata
     id="metadata350"><rdf:RDF><cc:Work
         rdf:about=""><dc:format>image/svg+xml</dc:format><dc:type
           rdf:resource="http://purl.org/dc/dcmitype/StillImage" /><dc:title></dc:title></cc:Work></rdf:RDF></metadata><defs
     id="defs348" /><sodipodi:namedview
     pagecolor="#ffffff"
     bordercolor="#666666"
     borderopacity="1"
     objecttolerance="10"
     gridtolerance="10"
     guidetolerance="10"
     inkscape:pageopacity="0"
     inkscape:pageshadow="2"
     inkscape:window-width="1366"
     inkscape:window-height="706"
     id="namedview346"
     showgrid="false"
     inkscape:zoom="0.4609375"
     inkscape:cx="256"
     inkscape:cy="124.69998"
     inkscape:window-x="-8"
     inkscape:window-y="-8"
     inkscape:window-maximized="1"
     inkscape:current-layer="Layer_1" /><g
     id="g307"
     transform="translate(0,-16.899)"><g
       id="g305"><path
         d="M 486.881,68.409 H 306.759 c 0.002,-0.179 0.014,-0.355 0.014,-0.534 0,-27.995 -22.777,-50.772 -50.772,-50.772 -27.995,0 -50.772,22.777 -50.772,50.772 0,0.18 0.012,0.356 0.014,0.534 H 25.119 C 11.268,68.409 0,79.677 0,93.528 V 401.37 c 0,13.851 11.268,25.119 25.119,25.119 h 161.942 l -6.547,52.376 h -18.576 c -4.427,0 -8.017,3.589 -8.017,8.017 0,4.427 3.589,8.017 8.017,8.017 h 188.125 c 4.427,0 8.017,-3.589 8.017,-8.017 0,-4.427 -3.589,-8.017 -8.017,-8.017 h -18.576 l -6.547,-52.376 h 161.942 c 13.851,0 25.119,-11.268 25.119,-25.119 V 93.528 C 512,79.677 500.732,68.409 486.881,68.409 Z M 256,33.136 c 19.155,0 34.739,15.584 34.739,34.739 0,19.155 -15.584,34.739 -34.739,34.739 -19.155,0 -34.739,-15.584 -34.739,-34.739 0,-19.155 15.584,-34.739 34.739,-34.739 z m 34.739,85.511 V 376.25 h -35.273 v -5.31 c 0,-10.829 -6.903,-20.406 -17.176,-23.83 l -27.918,-9.307 c -0.528,-0.176 -1.024,-0.408 -1.5,-0.669 -0.096,-0.088 -0.186,-0.18 -0.288,-0.263 -0.423,-0.349 -0.871,-0.647 -1.338,-0.896 -1.911,-1.688 -3.087,-4.125 -3.087,-6.792 v -12.648 l 13.035,-6.518 c 7.528,-3.765 12.647,-10.999 13.69,-19.351 l 2.01,-16.079 c 9.17,-12.039 14.021,-26.193 14.021,-40.976 0,-25.046 -13.99,-47.094 -35.065,-59.774 0.565,-2.496 0.86,-5.044 0.86,-7.624 0,-20.924 -18.941,-37.946 -42.221,-37.946 -23.28,0 -42.221,17.022 -42.221,37.946 0,2.577 0.29,5.129 0.856,7.628 -21.073,12.68 -35.061,34.726 -35.061,59.77 0,14.823 4.845,28.938 14.019,40.973 l 2.011,16.084 c 1.044,8.352 6.162,15.588 13.691,19.351 l 13.035,6.518 v 12.648 c 0,3.917 -2.496,7.381 -6.212,8.618 l -27.918,9.307 c -10.273,3.424 -17.176,13.001 -17.176,23.83 v 5.31 H 50.238 V 118.647 Z m -120.25,59.858 c 33.3,0 60.392,24.72 60.392,55.106 0,1.583 -0.081,3.156 -0.228,4.719 L 201.99,207.761 c -1.485,-1.583 -3.549,-2.497 -5.72,-2.532 -2.177,-0.027 -4.263,0.812 -5.798,2.347 -22.979,22.979 -78.223,23.307 -78.774,23.308 -0.518,0 -1.03,0.057 -1.532,0.155 1.48,-29.196 27.967,-52.534 60.323,-52.534 z m -26.188,-12.292 c 0,-12.083 11.748,-21.912 26.188,-21.912 14.44,0 26.188,9.83 26.188,21.912 0,0.186 -0.021,0.369 -0.027,0.555 -8.165,-2.778 -16.976,-4.296 -26.161,-4.296 -9.186,0 -17.998,1.518 -26.163,4.296 -0.006,-0.185 -0.025,-0.369 -0.025,-0.555 z m 51.251,58.123 24.236,25.848 -4.811,38.496 c -0.378,3.022 -2.229,5.638 -4.952,7 l -27.823,13.912 c -7.335,3.666 -16.09,3.665 -23.424,0 L 130.955,295.68 c -2.724,-1.362 -4.575,-3.978 -4.952,-7 l -5.262,-42.097 c 16.634,-1.028 52.262,-5.215 74.811,-22.247 z m -42.7,104.849 v -4.676 c 5.573,2.56 11.602,3.857 17.637,3.857 6.035,0 12.064,-1.297 17.637,-3.857 v 4.676 c 0,5.02 1.498,9.76 4.112,13.753 -6.115,4.92 -13.741,7.659 -21.749,7.659 -7.962,0 -15.622,-2.746 -21.747,-7.662 2.613,-3.992 4.11,-8.732 4.11,-13.75 z m 17.637,37.445 c 12.991,0 25.294,-4.928 34.648,-13.679 0.056,0.019 0.109,0.044 0.165,0.062 l 27.918,9.307 c 3.717,1.239 6.212,4.702 6.212,8.62 v 5.31 H 101.545 v -5.31 c 0,-3.918 2.497,-7.381 6.212,-8.62 l 27.918,-9.307 c 0.056,-0.018 0.108,-0.043 0.164,-0.062 9.361,8.741 21.733,13.679 34.65,13.679 z m 26.183,112.234 6.547,-52.376 h 105.563 l 6.546,52.376 z M 495.967,401.37 c 0,5.01 -4.076,9.086 -9.086,9.086 H 25.119 c -5.01,0 -9.086,-4.076 -9.086,-9.086 V 93.528 c 0,-5.01 4.076,-9.086 9.086,-9.086 h 182.899 c 2.367,6.835 6.151,13.007 11.005,18.171 H 42.221 c -4.427,0 -8.017,3.589 -8.017,8.017 v 273.637 c 0,4.427 3.589,8.017 8.017,8.017 h 427.557 c 4.427,0 8.017,-3.589 8.017,-8.017 V 110.63 c 0,-4.427 -3.589,-8.017 -8.017,-8.017 H 292.977 c 4.854,-5.164 8.639,-11.337 11.005,-18.171 H 486.88 c 5.01,0 9.086,4.076 9.086,9.086 V 401.37 Z m -71.404,-188.716 -15.177,-3.795 v -2.482 c 5.363,-4.722 8.551,-11.569 8.551,-18.787 v -42.756 c 0,-4.427 -3.589,-8.017 -8.017,-8.017 h -34.205 c -13.851,0 -25.119,11.268 -25.119,25.119 v 25.653 c 0,7.218 3.188,14.065 8.551,18.787 v 2.482 l -15.178,3.795 c -11.202,2.8 -19.026,12.821 -19.026,24.369 v 2.409 H 306.772 V 118.647 h 154.99 v 120.785 h -18.171 v -2.409 c 0,-11.548 -7.824,-21.568 -19.028,-24.369 z m -53.366,-17.261 c -2.859,-1.664 -4.566,-4.581 -4.566,-7.802 v -25.653 c 0,-5.01 4.076,-9.086 9.086,-9.086 h 26.188 v 34.739 c 0,3.221 -1.707,6.138 -4.566,7.802 -2.467,1.436 -3.985,4.075 -3.985,6.929 v 12.798 c 0,3.678 2.503,6.885 6.072,7.777 l 21.25,5.313 c 4.052,1.012 6.882,4.637 6.882,8.814 v 2.408 h -86.58 v -2.409 c 0,-4.177 2.829,-7.801 6.882,-8.814 l 21.251,-5.312 c 3.569,-0.891 6.072,-4.098 6.072,-7.777 v -12.798 c -10e-4,-2.856 -1.519,-5.494 -3.986,-6.929 z m 90.565,60.073 v 120.785 h -18.171 v -2.409 c 0,-11.547 -7.824,-21.568 -19.027,-24.369 l -15.177,-3.795 v -2.482 c 5.363,-4.722 8.551,-11.569 8.551,-18.787 v -42.756 c 0,-4.427 -3.589,-8.017 -8.017,-8.017 h -34.205 c -13.851,0 -25.119,11.268 -25.119,25.119 v 25.653 c 0,7.218 3.188,14.064 8.551,18.787 v 2.482 l -15.178,3.795 c -11.202,2.801 -19.026,12.821 -19.026,24.369 v 2.409 H 306.773 V 255.466 Z m -90.565,76.745 c -2.859,-1.664 -4.566,-4.581 -4.566,-7.802 v -25.653 c 0,-5.01 4.076,-9.086 9.086,-9.086 h 26.188 v 34.739 c 0,3.221 -1.707,6.138 -4.566,7.802 -2.467,1.435 -3.985,4.075 -3.985,6.929 v 12.798 c 0,3.678 2.503,6.885 6.072,7.777 l 21.25,5.312 c 4.052,1.013 6.883,4.638 6.883,8.815 v 2.408 h -86.58 v -2.409 c 0,-4.177 2.829,-7.802 6.882,-8.815 l 21.251,-5.311 c 3.569,-0.893 6.072,-4.099 6.072,-7.777 V 339.14 c -0.002,-2.855 -1.52,-5.493 -3.987,-6.929 z"
         id="path303"
         inkscape:connector-curvature="0" /></g></g><g
     id="g313"
     transform="translate(0,-16.899)"><g
       id="g311"><path
         d="m 256,51.307 c -9.136,0 -16.568,7.432 -16.568,16.568 0,9.136 7.432,16.568 16.568,16.568 9.136,0 16.568,-7.432 16.568,-16.568 0,-9.136 -7.432,-16.568 -16.568,-16.568 z"
         id="path309"
         inkscape:connector-curvature="0" /></g></g><g
     id="g315"
     transform="translate(0,-34)" /><g
     id="g317"
     transform="translate(0,-34)" /><g
     id="g319"
     transform="translate(0,-34)" /><g
     id="g321"
     transform="translate(0,-34)" /><g
     id="g323"
     transform="translate(0,-34)" /><g
     id="g325"
     transform="translate(0,-34)" /><g
     id="g327"
     transform="translate(0,-34)" /><g
     id="g329"
     transform="translate(0,-34)" /><g
     id="g331"
     transform="translate(0,-34)" /><g
     id="g333"
     transform="translate(0,-34)" /><g
     id="g335"
     transform="translate(0,-34)" /><g
     id="g337"
     transform="translate(0,-34)" /><g
     id="g339"
     transform="translate(0,-34)" /><g
     id="g341"
     transform="translate(0,-34)" /><g
     id="g343"
     transform="translate(0,-34)" /></svg>