<?xml version="1.0" encoding="iso-8859-1"?>
<!-- Generator: Adobe Illustrator 19.0.0, SVG Export Plug-In . SVG Version: 6.00 Build 0)  -->
<svg xmlns="http://www.w3.org/2000/svg" xmlns:xlink="http://www.w3.org/1999/xlink" version="1.1" id="Capa_1" x="0px" y="0px" viewBox="0 0 512 512" style="enable-background:new 0 0 512 512;" xml:space="preserve" width="512px" height="512px">
<g>
	<g>
		<g>
			<path d="M492,30c-20.955,0-434.445,0-472,0C8.954,30,0,38.954,0,50s8.954,20,20,20h26v246c0,11.046,8.954,20,20,20h170v50     c0,11.046,8.954,20,20,20s20-8.954,20-20v-50h170c11.046,0,20-8.954,20-20V70h26c11.046,0,20-8.954,20-20S503.046,30,492,30z      M426,296H86V70h340V296z" fill="#FFFFFF"/>
			<circle cx="256" cy="457" r="25" fill="#FFFFFF"/>
		</g>
	</g>
</g>
<g>
</g>
<g>
</g>
<g>
</g>
<g>
</g>
<g>
</g>
<g>
</g>
<g>
</g>
<g>
</g>
<g>
</g>
<g>
</g>
<g>
</g>
<g>
</g>
<g>
</g>
<g>
</g>
<g>
</g>
</svg>
