<svg xmlns="http://www.w3.org/2000/svg" viewBox="0 0 512 512" width="512" height="512"><g fill="#ffc600"><path d="M399.159 0H112.841C88.567 0 68.818 19.749 68.818 44.024v423.951c0 24.275 19.749 44.024 44.023 44.024h286.317c24.275 0 44.024-19.749 44.024-44.024V44.024C443.183 19.749 423.433 0 399.159 0zm0 489.979H112.841c-12.133 0-22.002-9.87-22.002-22.003V44.024c0-12.133 9.87-22.003 22.002-22.003h286.317c12.133 0 22.003 9.87 22.003 22.003v423.951h.001c0 12.133-9.871 22.004-22.003 22.004z"/><path d="M388.13 44.043H123.872c-6.08 0-11.011 4.93-11.011 11.011v358.951c0 6.081 4.931 11.011 11.011 11.011H388.13c6.08 0 11.011-4.93 11.011-11.011V55.054c-.001-6.081-4.931-11.011-11.011-11.011zm-11.011 358.951H134.882V66.065h242.237v336.929zM261.469 446.486h-16.516c-6.08 0-11.011 4.93-11.011 11.011 0 6.081 4.931 11.011 11.011 11.011h16.516c6.08 0 11.011-4.929 11.011-11.011-.001-6.081-4.931-11.011-11.011-11.011z"/><path d="M173.42 129.743h165.161c6.08 0 11.011-4.93 11.011-11.011s-4.931-11.011-11.011-11.011H173.42c-6.08 0-11.011 4.93-11.011 11.011s4.931 11.011 11.011 11.011zM338.581 151.765h-105.19c-6.08 0-11.011 4.93-11.011 11.011s4.931 11.011 11.011 11.011h105.19c6.08 0 11.011-4.93 11.011-11.011s-4.931-11.011-11.011-11.011zM173.42 173.786h7.486c6.08 0 11.011-4.93 11.011-11.011s-4.931-11.011-11.011-11.011h-7.486c-6.08 0-11.011 4.93-11.011 11.011s4.931 11.011 11.011 11.011zM173.42 217.829h165.161c6.08 0 11.011-4.93 11.011-11.011 0-6.081-4.931-11.011-11.011-11.011H173.42c-6.08 0-11.011 4.93-11.011 11.011 0 6.081 4.931 11.011 11.011 11.011zM173.42 261.872h165.161c6.08 0 11.011-4.93 11.011-11.011s-4.931-11.011-11.011-11.011H173.42c-6.08 0-11.011 4.93-11.011 11.011s4.931 11.011 11.011 11.011zM338.581 283.894h-4.992c-6.08 0-11.011 4.93-11.011 11.011s4.931 11.011 11.011 11.011h4.992c6.08 0 11.011-4.93 11.011-11.011s-4.931-11.011-11.011-11.011zM173.42 305.915h124.568c6.08 0 11.011-4.93 11.011-11.011s-4.931-11.011-11.011-11.011H173.42c-6.08 0-11.011 4.93-11.011 11.011s4.931 11.011 11.011 11.011zM173.42 349.958h165.161c6.08 0 11.011-4.93 11.011-11.011s-4.931-11.011-11.011-11.011H173.42c-6.08 0-11.011 4.93-11.011 11.011s4.931 11.011 11.011 11.011z"/></g></svg>