<?xml version="1.0" encoding="iso-8859-1"?>
<!-- Generator: Adobe Illustrator 16.0.0, SVG Export Plug-In . SVG Version: 6.00 Build 0)  -->
<!DOCTYPE svg PUBLIC "-//W3C//DTD SVG 1.1//EN" "http://www.w3.org/Graphics/SVG/1.1/DTD/svg11.dtd">
<svg xmlns="http://www.w3.org/2000/svg" xmlns:xlink="http://www.w3.org/1999/xlink" version="1.1" id="Capa_1" x="0px" y="0px" width="512px" height="512px" viewBox="0 0 188.888 188.888" style="enable-background:new 0 0 188.888 188.888;" xml:space="preserve">
<g>
	<g>
		<path d="M162.632,15.646c-11.547-8.693-30.855-4.811-44.389-3.809c0.182-2.409-0.138-5.031-0.143-7.163    c-0.006-2.531-2.121-4.696-4.674-4.674c-13.448,0.117-26.9,1.029-40.242,2.725c-2.06,0.262-4.562,1.746-4.249,4.249    c0.365,2.918,0.74,5.636,1.556,8.249c-14.417,1.079-28.839,2.078-43.298,2.606c-2.877,0.105-5.213,2.306-5.242,5.242    c-0.286,28.464-6.186,59.893,3.588,87.324c0.578,1.622,1.749,2.442,3.01,2.718c0.221,0.181,0.444,0.361,0.713,0.521    c12.167,7.191,29.425,2.246,42.532,0.368c2.745-0.393,5.498-0.638,8.251-0.887c-0.71,1.961-0.996,4.247-1.686,6.124    c-3.514,9.561-9.466,18.487-14.667,27.184c-5.322,8.898-23.279,28.635-19.367,39.749c0.892,2.534,4.134,3.748,6.178,1.631    c9.213-9.538,15.559-24.527,22.401-35.995c6.382-10.695,16.687-26.007,14.92-39.235c6.775-0.341,13.567-0.367,20.366-0.303    c-0.395,7.127,4.027,15.514,6.619,21.174c6.751,14.737,16.352,28.134,23.012,42.905c0.014,0.172,0.001,0.343,0.045,0.514    c0.994,3.893,1.065,4.297,3.274,7.498c3.149,4.564,11.589,1.861,9.483-3.998c-4.914-13.676-13.067-26.015-20.301-38.534    c-5.58-9.661-9.154-19.53-13.275-29.448c14.515,0.232,29.049,0.496,43.52-1.236c2.174-0.261,4.688-1.402,5.098-3.882    c3.651-22.038,1.779-44.083,2.981-66.269C169.089,32.804,170.136,21.295,162.632,15.646z M153.292,101.438    c-16.877,2.017-34.18,0.923-51.115,0.45c-9.549-0.266-18.76-0.271-28.214,1.131c-10.717,1.59-29.276,7.779-39.64,1.956    c-0.539-0.304-1.067-0.47-1.586-0.573c-4.378-24.947-1.065-51.102-0.398-76.34c28.143-1.192,56.19-3.761,84.297-5.572    c11.408-0.735,27.808-4.149,38.713,0.792c6.605,2.994,2.249,29.164,2.279,34.33C157.661,62.811,160.714,100.551,153.292,101.438z" fill="#FFFFFF"/>
		<path d="M132.118,37.163c-8.552,10.056-16.424,21.601-22.341,33.634c-8.228-8.798-16.384-17.518-22.161-28.268    c-1.12-2.085-4.454-3.204-6.472-1.697c-14.39,10.749-23.768,26.364-35.808,39.474c-3.194,3.479,2.256,8.688,5.106,5.106    c11.578-10.12,19.837-23.613,31.646-33.403c6.953,11.494,16.536,20.88,25.591,30.848c2.739,3.015,6.837,0.969,8.149-2.152    c5.871-13.951,16.786-24.696,23.297-38.137C141.204,38.274,135.597,33.073,132.118,37.163z" fill="#FFFFFF"/>
	</g>
</g>
<g>
</g>
<g>
</g>
<g>
</g>
<g>
</g>
<g>
</g>
<g>
</g>
<g>
</g>
<g>
</g>
<g>
</g>
<g>
</g>
<g>
</g>
<g>
</g>
<g>
</g>
<g>
</g>
<g>
</g>
</svg>
