<svg xmlns="http://www.w3.org/2000/svg" viewBox="0 0 512 512" width="512" height="512"><g fill="#ffc600"><path d="M490.667 42.668H21.334C9.571 42.668 0 52.238 0 64.001v384.001c0 11.761 9.571 21.331 21.334 21.331h469.333c11.763 0 21.333-9.57 21.333-21.331V64.001c0-11.763-9.57-21.333-21.333-21.333zM21.334 64.003l469.331-.002v21.333H21.334V64.003zm.001 383.998l-.001-341.333h469.331v288l.004 53.329-469.334.004z"/><path d="M53.333 265.785c-5.892 0-10.667 4.776-10.667 10.667v54.214c0 5.89 4.776 10.667 10.667 10.667S64 336.555 64 330.666v-54.214c.001-5.891-4.775-10.667-10.667-10.667zM53.331 256.478c5.891 0 10.667-4.778 10.667-10.667v-.256c0-5.892-4.777-10.668-10.667-10.668-5.892 0-10.667 4.776-10.667 10.668v.256c0 5.889 4.775 10.667 10.667 10.667zM458.669 384.001H192.817c-4.403-12.418-16.259-21.337-30.168-21.337-13.907 0-25.764 8.919-30.167 21.337h-79.15c-5.892 0-10.667 4.776-10.667 10.667s4.776 10.667 10.667 10.667h79.152c4.405 12.412 16.259 21.329 30.163 21.329s25.76-8.917 30.166-21.329h265.854c5.891 0 10.667-4.777 10.667-10.667.002-5.892-4.774-10.667-10.665-10.667zm-285.353 10.685c-.013 5.869-4.792 10.643-10.666 10.643-5.881 0-10.665-4.785-10.665-10.665 0-5.882 4.784-10.665 10.665-10.665 5.876 0 10.656 4.776 10.666 10.646l-.002.022.002.019zM458.664 234.445c5.891 0 10.667-4.778 10.667-10.667v-.25c0-5.892-4.777-10.668-10.667-10.668-5.892 0-10.667 4.776-10.667 10.668v.25c-.001 5.89 4.775 10.667 10.667 10.667zM458.667 203.547c5.891 0 10.667-4.778 10.667-10.667v-54.214c0-5.892-4.777-10.667-10.667-10.667-5.892 0-10.667 4.776-10.667 10.667v54.214c-.001 5.889 4.774 10.667 10.667 10.667zM225.535 278.511c3.603 6.217 10.309 10.08 17.5 10.08 3.543 0 7.041-.94 10.11-2.715l19.946-11.518c.179-.105.355-.212.527-.328l19.197-11.085a20.16 20.16 0 0 0 7.613-7.544c5.542-9.647 2.204-22.012-7.43-27.56l-19.21-11.092a18.934 18.934 0 0 0-.737-.444l-19.083-11.02a20.16 20.16 0 0 0-10.944-3.209c-11.158 0-20.236 9.076-20.236 20.233v46.064c0 .315.015.627.042.936a20.289 20.289 0 0 0 2.705 9.202zm18.59-54.273l18.297 10.567.116.065-.087-.046c.153.098.306.192.463.284l17.726 10.234-18.229 10.526a12.19 12.19 0 0 0-.527.325l-17.759 10.255v-42.21z"/><path d="M256 341.784c53.185 0 96.453-43.271 96.453-96.453S309.185 148.88 256 148.88c-53.183 0-96.452 43.268-96.452 96.451 0 53.184 43.27 96.453 96.452 96.453zm0-171.569c41.42 0 75.118 33.696 75.118 75.116S297.419 320.449 256 320.449c-41.42 0-75.117-33.699-75.117-75.118s33.698-75.116 75.117-75.116z"/></g></svg>