<?xml version="1.0" encoding="iso-8859-1"?>
<!-- Generator: Adobe Illustrator 19.0.0, SVG Export Plug-In . SVG Version: 6.00 Build 0)  -->
<svg version="1.1" id="Layer_1" xmlns="http://www.w3.org/2000/svg" xmlns:xlink="http://www.w3.org/1999/xlink" x="0px" y="0px"
	 viewBox="0 0 511.999 511.999" style="enable-background:new 0 0 511.999 511.999;" xml:space="preserve">
<path style="fill:#FFD66E;" d="M467.308,133.012c0,110.473-85.218,201.403-193.369,210.539H238.06
	C129.91,334.414,44.691,243.484,44.691,133.012H8.813c0,66.076,25.698,128.163,72.361,174.826
	c42.413,42.414,97.573,67.502,156.886,71.719h35.878c59.313-4.218,114.471-29.305,156.887-71.719
	c46.662-46.662,72.361-108.75,72.361-174.826L467.308,133.012L467.308,133.012z"/>
<path style="fill:#FFBF1F;" d="M390.893,133.012c0,68.298-51.024,124.897-116.953,133.697h-35.878
	c-65.931-8.8-116.954-65.399-116.954-133.697H85.229c0,45.647,17.755,88.541,49.991,120.779
	c27.977,27.976,63.98,45.036,102.841,49.06h35.878c38.861-4.024,74.863-21.083,102.839-49.06
	c32.237-32.237,49.991-75.131,49.991-120.779H390.893z"/>
<path style="fill:#FFD66E;" d="M314.476,133.012c0,25.988-17.045,48.06-40.536,55.651h-35.878
	c-23.494-7.591-40.537-29.662-40.537-55.651h-35.878c0,45.893,32.941,84.219,76.416,92.623h35.878
	c43.474-8.404,76.415-46.731,76.415-92.623H314.476z"/>
<path style="fill:#FFBF1F;" d="M273.94,461.855V133.012h-35.878v328.845c-83.133,0-105.23,41.306-105.23,41.306h246.337
	C379.169,503.162,357.07,461.855,273.94,461.855z"/>
<path style="fill:#FFD66E;" d="M391.173,511.951H120.827c-4.854,0-8.789-3.935-8.789-8.789s3.935-8.789,8.789-8.789h270.346
	c4.854,0,8.789,3.935,8.789,8.789S396.026,511.951,391.173,511.951z"/>
<path d="M437.04,314.052c48.322-48.323,74.935-112.618,74.935-181.04c0-4.854-3.935-8.789-8.789-8.789h-9.15V8.789
	c0-4.854-3.935-8.789-8.789-8.789s-8.789,3.935-8.789,8.789v115.434h-9.15c-4.854,0-8.789,3.935-8.789,8.789
	c0,101.16-76.467,187.534-175.791,200.746v-23.153c38.151-5.619,72.679-23.014,100.266-50.6
	c33.896-33.896,52.565-78.997,52.565-126.993c0-4.854-3.935-8.789-8.789-8.789h-9.15V8.789c0-4.854-3.935-8.789-8.789-8.789
	s-8.789,3.935-8.789,8.789v115.434h-9.149c-4.854,0-8.789,3.935-8.789,8.789c0,59.539-42.063,110.842-99.376,123.248v-23.634
	c44.69-11.97,76.416-52.754,76.416-99.613c0-4.854-3.935-8.789-8.789-8.789h-9.15V8.789c0-4.854-3.935-8.789-8.789-8.789
	c-4.854,0-8.789,3.935-8.789,8.789v115.434h-9.15c-4.854,0-8.789,3.935-8.789,8.789c0,17.302-8.862,32.925-22.959,41.891v-41.891
	c0-4.854-3.935-8.789-8.789-8.789h-9.15V8.789c0-4.854-3.935-8.789-8.789-8.789c-4.854,0-8.789,3.935-8.789,8.789v115.434h-9.15
	c-4.854,0-8.789,3.935-8.789,8.789v41.892c-14.098-8.966-22.96-24.589-22.96-41.892c0-4.854-3.935-8.789-8.789-8.789h-9.15V8.789
	c0-4.854-3.935-8.789-8.789-8.789s-8.789,3.935-8.789,8.789v115.434h-9.15c-4.854,0-8.789,3.935-8.789,8.789
	c0,46.859,31.726,87.642,76.416,99.613v23.634c-57.312-12.407-99.377-63.709-99.377-123.248c0-4.854-3.935-8.789-8.789-8.789h-9.15
	V8.789c0-4.854-3.935-8.789-8.789-8.789c-4.854,0-8.789,3.935-8.789,8.789v115.434h-9.151c-4.854,0-8.789,3.935-8.789,8.789
	c0,47.996,18.669,93.096,52.566,126.993c27.586,27.586,62.115,44.98,100.267,50.6v23.153
	C129.948,320.545,53.48,234.17,53.48,133.012c0-4.854-3.935-8.789-8.789-8.789h-9.15V8.789C35.541,3.935,31.606,0,26.752,0
	s-8.789,3.935-8.789,8.789v115.434h-9.15c-4.854,0-8.789,3.935-8.789,8.789c0,68.424,26.613,132.719,74.935,181.04
	c41.6,41.601,96.127,67.532,154.312,73.558v65.61c-65.244,2.297-92.621,29.921-101.104,41.153h-7.341
	c-4.854,0-8.789,3.935-8.789,8.789s3.935,8.789,8.789,8.789h11.195c0.27,0.024,0.539,0.048,0.807,0.048
	c0.246,0,0.49-0.029,0.734-0.048H379.11c0.023,0,0.046,0,0.069,0h11.993c4.854,0,8.789-3.935,8.789-8.789s-3.935-8.789-8.789-8.789
	h-7.342c-8.482-11.232-35.86-38.856-101.103-41.153v-65.61C340.913,381.583,395.439,355.652,437.04,314.052z M273.94,470.644
	c39.969,0,64.411,10.07,77.877,18.517c2.8,1.757,5.24,3.514,7.375,5.211H152.807c2.135-1.696,4.578-3.455,7.376-5.211
	c13.466-8.447,37.909-18.517,77.878-18.517c4.854,0,8.789-3.935,8.789-8.789v-82.3c0-4.612-3.565-8.44-8.166-8.767
	c-57.015-4.054-110.746-28.618-151.296-69.166C44.461,258.694,19.93,202.231,17.76,141.799h18.317
	C38.15,194.03,58.662,243.61,94.365,282.246c37.48,40.558,88.249,65.44,142.956,70.061c2.449,0.204,4.876-0.622,6.687-2.287
	c1.812-1.665,2.841-4.011,2.841-6.471v-40.7c0-4.503-3.405-8.278-7.884-8.743c-37.216-3.853-70.943-19.944-97.531-46.533
	c-28.5-28.5-45.066-65.779-47.185-105.775h18.338c4.166,67.862,56.21,124.53,124.311,133.62c2.515,0.336,5.045-0.43,6.952-2.098
	c1.906-1.669,2.999-4.079,2.999-6.614v-41.074c0-4.211-2.986-7.83-7.12-8.628c-37.246-7.2-65.019-38.116-68.844-75.206h18.418
	c3.329,25.536,20.999,47.128,46.056,55.225c2.674,0.865,5.602,0.397,7.874-1.257s3.617-4.296,3.617-7.106v-46.862h18.301v46.862
	c0,2.811,1.345,5.452,3.618,7.106c2.271,1.653,5.196,2.124,7.874,1.257c25.057-8.097,42.726-29.689,46.055-55.225h18.418
	c-3.825,37.089-31.598,68.005-68.843,75.206c-4.134,0.8-7.12,4.419-7.12,8.628v41.074c0,2.533,1.093,4.944,2.999,6.614
	c1.906,1.669,4.437,2.433,6.952,2.098c68.099-9.09,120.142-65.757,124.31-133.62h18.336c-2.119,39.996-18.684,77.275-47.184,105.775
	c-26.587,26.588-60.312,42.679-97.53,46.533c-4.479,0.464-7.884,4.238-7.884,8.743v40.7c0,2.46,1.03,4.806,2.842,6.471
	c1.809,1.664,4.223,2.492,6.687,2.287c54.706-4.622,105.476-29.503,142.955-70.061c35.703-38.635,56.215-88.215,58.289-140.447
	h18.317c-2.17,60.43-26.701,116.893-69.63,159.823c-40.548,40.548-94.279,65.113-151.295,69.166
	c-4.601,0.327-8.166,4.155-8.166,8.767v82.3C265.151,466.71,269.086,470.644,273.94,470.644z"/>
<g>
</g>
<g>
</g>
<g>
</g>
<g>
</g>
<g>
</g>
<g>
</g>
<g>
</g>
<g>
</g>
<g>
</g>
<g>
</g>
<g>
</g>
<g>
</g>
<g>
</g>
<g>
</g>
<g>
</g>
</svg>
