<svg xmlns="http://www.w3.org/2000/svg" viewBox="0 0 512 478" width="512" height="478"><path d="M486.881 51.51H306.759c.002-.179.014-.355.014-.534 0-27.995-22.777-50.772-50.772-50.772-27.995 0-50.772 22.777-50.772 50.772 0 .18.012.356.014.534H25.119C11.268 51.51 0 62.778 0 76.629v307.842c0 13.851 11.268 25.119 25.119 25.119h161.942l-6.547 52.376h-18.576a8.017 8.017 0 0 0 0 16.034h188.125a8.017 8.017 0 0 0 0-16.034h-18.576l-6.547-52.376h161.942c13.851 0 25.119-11.268 25.119-25.119V76.629C512 62.778 500.732 51.51 486.881 51.51zM256 16.237c19.155 0 34.739 15.584 34.739 34.739 0 19.155-15.584 34.739-34.739 34.739-19.155 0-34.739-15.584-34.739-34.739 0-19.155 15.584-34.739 34.739-34.739zm34.739 85.511v257.603h-35.273v-5.31a25.087 25.087 0 0 0-17.176-23.83l-27.918-9.307a9.118 9.118 0 0 1-1.5-.669c-.096-.088-.186-.18-.288-.263a8.055 8.055 0 0 0-1.338-.896c-1.911-1.688-3.087-4.125-3.087-6.792v-12.648l13.035-6.518a25.068 25.068 0 0 0 13.69-19.351l2.01-16.079c9.17-12.039 14.021-26.193 14.021-40.976 0-25.046-13.99-47.094-35.065-59.774a34.48 34.48 0 0 0 .86-7.624c0-20.924-18.941-37.946-42.221-37.946-23.28 0-42.221 17.022-42.221 37.946 0 2.577.29 5.129.856 7.628-21.073 12.68-35.061 34.726-35.061 59.77 0 14.823 4.845 28.938 14.019 40.973l2.011 16.084a25.066 25.066 0 0 0 13.691 19.351l13.035 6.518v12.648a9.07 9.07 0 0 1-6.212 8.618l-27.918 9.307a25.087 25.087 0 0 0-17.176 23.83v5.31H50.238V101.748zm-120.25 59.858c33.3 0 60.392 24.72 60.392 55.106a50.37 50.37 0 0 1-.228 4.719l-28.663-30.569a8.02 8.02 0 0 0-5.72-2.532 8.04 8.04 0 0 0-5.798 2.347c-22.979 22.979-78.223 23.307-78.774 23.308-.518 0-1.03.057-1.532.155 1.48-29.196 27.967-52.534 60.323-52.534zm-26.188-12.292c0-12.083 11.748-21.912 26.188-21.912s26.188 9.83 26.188 21.912c0 .186-.021.369-.027.555-8.165-2.778-16.976-4.296-26.161-4.296-9.186 0-17.998 1.518-26.163 4.296-.006-.185-.025-.369-.025-.555zm51.251 58.123l24.236 25.848-4.811 38.496a9.069 9.069 0 0 1-4.952 7l-27.823 13.912c-7.335 3.666-16.09 3.665-23.424 0l-27.823-13.912a9.064 9.064 0 0 1-4.952-7l-5.262-42.097c16.634-1.028 52.262-5.215 74.811-22.247zm-42.7 104.849v-4.676a42.28 42.28 0 0 0 17.637 3.857 42.28 42.28 0 0 0 17.637-3.857v4.676c0 5.02 1.498 9.76 4.112 13.753a34.62 34.62 0 0 1-21.749 7.659 34.757 34.757 0 0 1-21.747-7.662 25.062 25.062 0 0 0 4.11-13.75zm17.637 37.445a50.591 50.591 0 0 0 34.648-13.679c.056.019.109.044.165.062l27.918 9.307a9.072 9.072 0 0 1 6.212 8.62v5.31H101.545v-5.31a9.075 9.075 0 0 1 6.212-8.62l27.918-9.307c.056-.018.108-.043.164-.062a50.791 50.791 0 0 0 34.65 13.679zm26.183 112.234l6.547-52.376h105.563l6.546 52.376zm299.295-77.494c0 5.01-4.076 9.086-9.086 9.086H25.119c-5.01 0-9.086-4.076-9.086-9.086V76.629c0-5.01 4.076-9.086 9.086-9.086h182.899a50.823 50.823 0 0 0 11.005 18.171H42.221a8.017 8.017 0 0 0-8.017 8.017v273.637a8.017 8.017 0 0 0 8.017 8.017h427.557a8.017 8.017 0 0 0 8.017-8.017V93.731a8.017 8.017 0 0 0-8.017-8.017H292.977a50.817 50.817 0 0 0 11.005-18.171H486.88c5.01 0 9.086 4.076 9.086 9.086v307.842zm-71.404-188.716l-15.177-3.795v-2.482c5.363-4.722 8.551-11.569 8.551-18.787v-42.756a8.017 8.017 0 0 0-8.017-8.017h-34.205c-13.851 0-25.119 11.268-25.119 25.119v25.653c0 7.218 3.188 14.065 8.551 18.787v2.482l-15.178 3.795a25.082 25.082 0 0 0-19.026 24.369v2.409h-18.171V101.748h154.99v120.785h-18.171v-2.409a25.082 25.082 0 0 0-19.028-24.369zm-53.366-17.261c-2.859-1.664-4.566-4.581-4.566-7.802v-25.653c0-5.01 4.076-9.086 9.086-9.086h26.188v34.739c0 3.221-1.707 6.138-4.566 7.802a8.018 8.018 0 0 0-3.985 6.929v12.798a8.016 8.016 0 0 0 6.072 7.777l21.25 5.313a9.071 9.071 0 0 1 6.882 8.814v2.408h-86.58v-2.409a9.07 9.07 0 0 1 6.882-8.814l21.251-5.312a8.014 8.014 0 0 0 6.072-7.777v-12.798a8.017 8.017 0 0 0-3.986-6.929zm90.565 60.073v120.785h-18.171v-2.409a25.083 25.083 0 0 0-19.027-24.369l-15.177-3.795v-2.482c5.363-4.722 8.551-11.569 8.551-18.787v-42.756a8.017 8.017 0 0 0-8.017-8.017h-34.205c-13.851 0-25.119 11.268-25.119 25.119v25.653c0 7.218 3.188 14.064 8.551 18.787v2.482l-15.178 3.795a25.083 25.083 0 0 0-19.026 24.369v2.409h-18.171V238.567zm-90.565 76.745c-2.859-1.664-4.566-4.581-4.566-7.802v-25.653c0-5.01 4.076-9.086 9.086-9.086h26.188v34.739c0 3.221-1.707 6.138-4.566 7.802a8.017 8.017 0 0 0-3.985 6.929v12.798a8.016 8.016 0 0 0 6.072 7.777l21.25 5.312a9.074 9.074 0 0 1 6.883 8.815v2.408h-86.58v-2.409a9.072 9.072 0 0 1 6.882-8.815l21.251-5.311a8.017 8.017 0 0 0 6.072-7.777v-12.798a8.023 8.023 0 0 0-3.987-6.929z"/><path d="M256 34.408c-9.136 0-16.568 7.432-16.568 16.568 0 9.136 7.432 16.568 16.568 16.568 9.136 0 16.568-7.432 16.568-16.568 0-9.136-7.432-16.568-16.568-16.568z"/></svg>