<svg xmlns="http://www.w3.org/2000/svg" viewBox="0 0 511.999 511.999" width="512" height="512"><path d="M214.032 133.749h-53.881c-4.143 0-7.5 3.357-7.5 7.5s3.357 7.5 7.5 7.5h53.881c4.143 0 7.5-3.357 7.5-7.5s-3.358-7.5-7.5-7.5zM110.025 147.941l-6.694-6.693 6.694-6.693a7.5 7.5 0 0 0-10.607-10.607c-7.716 8.599-13.082 10.636-13.082 17.3 0 2.722 1.061 5.279 2.982 7.2 8.891 8.107 10.296 12.295 15.403 12.295 6.624.001 10.041-8.062 5.304-12.802zM351.848 67.852h-53.881c-4.143 0-7.5 3.357-7.5 7.5s3.357 7.5 7.5 7.5h53.881c4.143 0 7.5-3.357 7.5-7.5s-3.358-7.5-7.5-7.5zM422.682 68.15l-10.101-10.099a7.5 7.5 0 1 0-10.608 10.607l6.694 6.693-6.694 6.693a7.5 7.5 0 1 0 10.608 10.607l10.101-10.101c3.972-3.975 3.987-10.413 0-14.4z" fill="#ffc600"/><path d="M437.483 115.799c8.103 0 14.693-6.592 14.693-14.692V48.689c0-7.603-6.185-13.787-13.788-13.787H276.999V21.038c0-9.508-6.423-17.849-15.575-20.273-13.81-3.779-26.425 6.997-26.425 20.273v26.06c0 4.143 3.357 7.5 7.5 7.5s7.5-3.357 7.5-7.5v-26.06c0-3.761 3.493-6.748 7.397-5.824.1.068 4.605 1.082 4.605 5.824v319.451H250V82.097c0-4.143-3.357-7.5-7.5-7.5s-7.5 3.357-7.5 7.5V100.8H73.611c-7.604 0-13.788 6.186-13.788 13.787v52.417c0 8.102 6.592 14.692 14.693 14.692H235v261.302h-7.999c-10.752 0-19.499 8.748-19.499 19.499V470h-34.769c-10.99 0-20.076 8.496-20.919 19.31-1.288 11.445 8.248 22.689 20.919 22.689h24.77a7.5 7.5 0 0 0 7.5-7.5c0-4.143-3.357-7.5-7.5-7.5h-24.77c-3.693 0-6.773-3.372-5.786-7.541a5.994 5.994 0 0 1 5.786-4.46h166.534c2.711 0 5.091 1.834 5.798 4.502.978 4.214-2.191 7.499-5.798 7.499H232.5a7.499 7.499 0 0 0-7.5 7.5 7.5 7.5 0 0 0 7.5 7.5h106.766c12.985 0 23.642-12.027 20.412-25.89A21.006 21.006 0 0 0 339.267 470h-34.769v-7.502c0-10.752-8.748-19.499-19.499-19.499H277V247.594h160.484c8.103 0 14.693-6.592 14.693-14.692v-52.417c0-5.327-3.043-9.949-7.476-12.243-4.294-2.223 1.295-1.544-102.294-1.544-4.143 0-7.5 3.357-7.5 7.5s3.357 7.5 7.5 7.5h27.987v50.898H277v-50.898h30.409c4.143 0 7.5-3.357 7.5-7.5s-3.357-7.5-7.5-7.5H277V115.8l160.483-.001zm-52.09-65.898h51.785v50.898h-51.785V49.901zm-108.394 0h93.394v50.898h-93.394V49.901zM126.606 166.697H74.821v-50.898h51.785v50.898zm123.393 188.791H262v36.256h-12.001v-36.256zm0 51.255H262V443h-12.001v-36.257zM141.605 166.697v-50.898h93.394v50.898h-93.394zm143.393 291.302c2.439 0 4.5 2.061 4.5 4.5V470h-66.997v-7.501c0-2.439 2.061-4.5 4.5-4.5h57.997zm100.395-276.303h51.784v50.898h-51.784v-50.898z" fill="#ffc600"/><path d="M351.848 199.646h-53.881c-4.143 0-7.5 3.358-7.5 7.5s3.357 7.5 7.5 7.5h53.881a7.5 7.5 0 0 0 7.5-7.5c0-4.143-3.357-7.5-7.5-7.5zM422.682 199.946l-10.1-10.1a7.5 7.5 0 1 0-10.608 10.607l6.694 6.693-6.694 6.693c-4.74 4.741-1.318 12.803 5.304 12.803a7.481 7.481 0 0 0 5.304-2.196l10.098-10.099a10.175 10.175 0 0 0 .002-14.401z" fill="#ffc600"/></svg>