<svg xmlns="http://www.w3.org/2000/svg" viewBox="0 0 512 512" width="512" height="512"><path d="M474.414 426.02a32.401 32.401 0 0 0 4.594-16.664v-18.877c0-21.206-17.253-38.458-38.459-38.458-4.85 0-9.489.911-13.767 2.557a50.063 50.063 0 0 0-16.458-12.703 30.46 30.46 0 0 0 4.277-15.593v-17.245c0-19.851-16.149-36-36-36s-36 16.149-36 36v17.245a30.46 30.46 0 0 0 4.277 15.593 50.074 50.074 0 0 0-16.219 12.415 38.268 38.268 0 0 0-13.008-2.269c-4.823 0-9.438.901-13.696 2.529a50.063 50.063 0 0 0-16.435-12.675 30.46 30.46 0 0 0 4.277-15.593v-17.245c0-19.851-16.149-36-36-36s-36 16.149-36 36v17.245a30.46 30.46 0 0 0 4.277 15.593 50.088 50.088 0 0 0-16.336 12.554 38.268 38.268 0 0 0-13.391-2.409c-4.681 0-9.167.843-13.32 2.381a50.058 50.058 0 0 0-16.312-12.526 30.46 30.46 0 0 0 4.277-15.593v-17.245c0-19.851-16.149-36-36-36s-36 16.149-36 36v17.245a30.46 30.46 0 0 0 4.277 15.593 50.08 50.08 0 0 0-16.359 12.583 38.258 38.258 0 0 0-13.461-2.437c-21.206 0-38.458 17.252-38.458 38.458v18.877c0 6.085 1.68 11.784 4.594 16.664C15.615 434.592 0 455.967 0 480.935v21.048c0 5.522 4.478 10 10 10h492c5.522 0 10-4.478 10-10v-21.048c0-24.968-15.615-46.344-37.586-54.915zm-52.321-35.541c0-10.178 8.28-18.458 18.458-18.458s18.458 8.281 18.458 18.458v18.877c0 6.951-5.655 12.606-12.607 12.606h-11.703c-6.951 0-12.606-5.655-12.606-12.606v-18.877zm-43.49-97.441c8.822 0 16 7.178 16 16v17.245c0 5.875-4.779 10.654-10.654 10.654h-10.692c-5.874 0-10.653-4.779-10.653-10.654v-17.245h-.001c0-8.822 7.178-16 16-16zm-79.409 97.441c0-10.178 8.28-18.458 18.458-18.458 10.178 0 18.458 8.281 18.458 18.458v18.877c0 6.951-5.655 12.606-12.607 12.606H311.8c-6.951 0-12.606-5.655-12.606-12.606v-18.877zm-43.396-97.441c8.822 0 16 7.178 16 16v17.245c0 5.875-4.779 10.654-10.654 10.654h-10.692c-5.874 0-10.653-4.779-10.653-10.654v-17.245h-.001c0-8.822 7.178-16 16-16zm-79.907 97.441c0-10.178 8.28-18.458 18.458-18.458 10.177 0 18.458 8.281 18.458 18.458v18.877c0 6.951-5.655 12.606-12.607 12.606h-11.703c-6.951 0-12.606-5.655-12.606-12.606v-18.877zm-42.898-97.441c8.822 0 16 7.178 16 16v17.245c0 5.875-4.779 10.654-10.654 10.654h-10.692c-5.874 0-10.653-4.779-10.653-10.654v-17.245h-.001c0-8.822 7.178-16 16-16zm-61.544 78.983c10.179 0 18.459 8.28 18.459 18.458v18.877c0 6.951-5.655 12.606-12.607 12.606H65.598c-6.951 0-12.606-5.655-12.606-12.606v-18.877h-.001c0-10.178 8.28-18.458 18.458-18.458zm51.45 119.962H20v-11.048c0-21.468 17.465-38.933 38.933-38.933h25.033c21.468 0 38.933 17.465 38.933 38.933v11.048zm9.999-43.853a59.252 59.252 0 0 0-27.585-22.11 32.395 32.395 0 0 0 4.595-16.664v-18.877c0-9.203-3.253-17.659-8.665-24.286 5.568-5.818 13.348-9.256 21.565-9.256h20.369c8.167 0 15.902 3.395 21.462 9.147-5.465 6.643-8.75 15.142-8.75 24.395v18.877c0 6.085 1.68 11.784 4.594 16.664a59.268 59.268 0 0 0-27.585 22.11zm112.9 43.852h-102.9v-11.048c0-21.468 17.466-38.933 38.934-38.933h25.033c21.468 0 38.933 17.465 38.933 38.933v11.048zM256 448.445c-6.683-10.073-16.377-17.973-27.788-22.425a32.401 32.401 0 0 0 4.594-16.664v-18.877c0-9.228-3.269-17.705-8.708-24.34 5.565-5.786 13.322-9.202 21.514-9.202h20.369c8.302 0 16.156 3.509 21.734 9.436-5.325 6.6-8.523 14.985-8.523 24.106v18.877c0 6.085 1.68 11.784 4.594 16.664-11.409 4.452-21.103 12.352-27.786 22.425zm113.102 43.538h-102.9v-11.048c0-21.468 17.465-38.933 38.933-38.933h25.033c21.468 0 38.934 17.465 38.934 38.933v11.048zm10-43.853a59.25 59.25 0 0 0-27.586-22.11 32.404 32.404 0 0 0 4.594-16.664v-18.877c0-9.359-3.364-17.945-8.942-24.62 5.544-5.618 13.188-8.922 21.25-8.922h20.369c8.328 0 16.204 3.53 21.785 9.49-5.3 6.592-8.481 14.955-8.481 24.052v18.877c0 6.085 1.68 11.784 4.594 16.664a59.258 59.258 0 0 0-27.583 22.11zm112.899 43.852H389.102v-11.048c0-21.468 17.465-38.933 38.933-38.933h25.033c21.468 0 38.933 17.465 38.933 38.933v11.048zM256.5 245.982h-.5c-5.522 0-10 4.478-10 10s4.478 10 10 10h.5c5.522 0 10-4.478 10-10s-4.478-10-10-10z" fill="#ffc600"/><path d="M363.062 205.982h-13.729v-33.574c0-21.475-13.056-40.669-32.472-48.827V60.877C316.861 27.318 289.558.016 256 .016s-60.861 27.303-60.861 60.861v62.476c-19.526 8.108-32.682 27.384-32.682 48.917v33.712h-13.52c-5.522 0-10 4.478-10 10v40c.001 5.523 4.478 10 10.001 10h30.972v31.56c0 5.522 4.478 10 10 10s10-4.478 10-10v-31.56h19.424c5.522 0 10-4.478 10-10s-4.478-10-10-10h-60.396v-20h194.125v20H292c-5.522 0-10 4.478-10 10s4.478 10 10 10h19.909v31.56c0 5.522 4.478 10 10 10s10-4.478 10-10v-31.56h31.153c5.522 0 10-4.478 10-10v-40c0-5.522-4.478-10-10-10zm-180.605 0V172.27c0-11.621 6.158-22.182 15.717-28.074l13.876 61.786h-29.593zm46.629-15.417l-11.898-52.977 12.005-3.32-.107 56.297zm33.682 15.418h-13.713l.145-75.496c.482.023.966.037 1.453.037h10.693c.525 0 1.047-.013 1.566-.04l-.144 75.499zM272 99.869c0 5.875-4.779 10.654-10.653 10.654h-10.693c-5.874 0-10.653-4.779-10.653-10.654V84.744a52.366 52.366 0 0 0 17.781 3.12H272v12.005zm10.798 90.72l.107-56.025 11.975 3.271-12.082 52.754zm14.063-72.944l-8.982-2.454A30.455 30.455 0 0 0 292 99.87V77.864c0-5.522-4.478-10-10-10h-24.219a32.327 32.327 0 0 1-15.877-4.177l-6.984-3.947A9.998 9.998 0 0 0 220 68.446v31.423a30.45 30.45 0 0 0 3.986 15.086l-8.847 2.447V60.877c0-22.531 18.33-40.861 40.861-40.861s40.861 18.33 40.861 40.861v56.768zm32.472 88.337h-29.541l14.083-61.491c9.414 5.919 15.458 16.39 15.458 27.917v33.574z" fill="#ffc600"/></svg>