<?xml version="1.0" encoding="iso-8859-1"?>
<!-- Generator: Adobe Illustrator 19.0.0, SVG Export Plug-In . SVG Version: 6.00 Build 0)  -->
<svg xmlns="http://www.w3.org/2000/svg" xmlns:xlink="http://www.w3.org/1999/xlink" version="1.1" id="Layer_1" x="0px" y="0px" viewBox="0 0 512 512" style="enable-background:new 0 0 512 512;" xml:space="preserve" width="512px" height="512px">
<g>
	<g>
		<path d="M10.586,420.056h-0.137C4.679,420.056,0,424.734,0,430.505s4.679,10.449,10.449,10.449h0.137    c5.77,0,10.449-4.678,10.449-10.449S16.356,420.056,10.586,420.056z" fill="#ffc600"/>
	</g>
</g>
<g>
	<g>
		<path d="M501.551,420.055h-49.87c4.795-5.65,7.697-12.955,7.697-20.927c0-17.86-14.53-32.392-32.392-32.392    c-17.862,0-32.392,14.531-32.392,32.392c0,7.974,2.902,15.277,7.697,20.927H213.52c4.795-5.65,7.697-12.955,7.697-20.927    c0-17.86-14.53-32.392-32.392-32.392c-17.862,0-32.392,14.531-32.392,32.392c0,7.974,2.902,15.277,7.697,20.927H44.389    c-5.77,0-10.449,4.678-10.449,10.449s4.679,10.449,10.449,10.449h457.162c5.77,0,10.449-4.678,10.449-10.449    S507.321,420.055,501.551,420.055z M188.825,410.622c-6.337,0-11.494-5.157-11.494-11.494c0-6.337,5.157-11.494,11.494-11.494    c6.337,0,11.494,5.157,11.494,11.494C200.318,405.465,195.162,410.622,188.825,410.622z M426.986,410.622    c-6.337,0-11.494-5.157-11.494-11.494c0-6.337,5.156-11.494,11.494-11.494c6.337,0,11.494,5.157,11.494,11.494    C438.48,405.465,433.323,410.622,426.986,410.622z" fill="#ffc600"/>
	</g>
</g>
<g>
	<g>
		<path d="M511.999,280.601c0.001-50.576-35.816-92.938-83.416-103.07v-64.69c0-11.523,9.375-20.898,20.898-20.898h7.14v13.598    c0,5.771,4.679,10.449,10.449,10.449h34.307c5.77,0,10.449-4.678,10.449-10.449V81.495c0-5.771-4.679-10.449-10.449-10.449    h-51.896c-12.474,0-23.683,5.5-31.347,14.195c-7.664-8.695-18.873-14.195-31.347-14.195H334.89    c-5.77,0-10.449,4.678-10.449,10.449v24.047c0,5.771,4.679,10.449,10.449,10.449h34.307c5.77,0,10.449-4.678,10.449-10.449V91.944    h7.141c11.523,0,20.898,9.375,20.898,20.898v62.395c-0.354-0.003-7.702-0.014-7.702-0.014v-14.26    c0-5.771-4.679-10.449-10.449-10.449H313.59c-5.77,0-10.449,4.678-10.449,10.449v14.26h-98.56v-14.26    c0-5.771-4.679-10.449-10.449-10.449h-75.944c-5.77,0-10.449,4.678-10.449,10.449v14.26H76.278    c-17.285,0-31.347,14.062-31.347,31.347v192.724c0,5.771,4.679,10.449,10.449,10.449h86.815    c5.762-0.013,10.426-4.687,10.426-10.449c0-19.963,16.241-36.205,36.204-36.205s36.204,16.241,36.204,36.205    c0,5.771,4.679,10.449,10.449,10.449h144.854c5.77,0,10.449-4.678,10.449-10.449c0-19.963,16.242-36.205,36.205-36.205    s36.204,16.241,36.204,36.205c0,5.759,4.661,10.433,10.421,10.449l27.912,0.076c0.01,0,0.02,0,0.029,0    c5.757,0,10.432-4.659,10.448-10.421c0-0.018-0.002-0.036-0.002-0.053c0-0.017,0.002-0.033,0.002-0.051V280.601z M477.518,91.944    h13.409v3.149h-13.409V91.944z M358.748,95.092h-13.409v-3.149h13.409V95.092z M488.836,261.231h-70.341v-29.257h57.146    C481.782,240.666,486.321,250.558,488.836,261.231z M324.039,171.411h55.046v3.811h-55.046V171.411z M128.636,171.411h55.046    v3.811h-55.046V171.411z M65.829,232.133h29.257v29.098H65.829V232.133z M290.482,388.845h-45.514    c-4.924-26.513-28.226-46.654-56.143-46.654c-27.926,0-51.232,20.151-56.148,46.675l-8.242,0.019    c-0.261-0.02-0.522-0.04-0.789-0.04H65.829v-74.324h224.653V388.845z M362.317,388.845h-21.703v-37.398    c0-5.771-4.679-10.449-10.449-10.449c-5.77,0-10.449,4.678-10.449,10.449v37.398h-8.337V233.143h50.938V388.845z M491.102,388.892    l-7.967-0.022c-4.913-26.526-28.222-46.679-56.149-46.679c-17.558,0-33.287,7.971-43.771,20.478v-48.149h107.887V388.892z     M491.102,293.623H383.215v-70.929c0-5.771-4.679-10.449-10.449-10.449h-71.836c-5.77,0-10.449,4.678-10.449,10.449v70.929H65.829    v-11.494h39.706c5.77,0,10.449-4.678,10.449-10.449v-49.996c0-5.771-4.679-10.449-10.449-10.449H65.829v-4.665    c0-5.762,4.687-10.449,10.449-10.449h330.343c17.782,0,34.288,5.536,47.915,14.956h-46.492c-5.77,0-10.449,4.678-10.449,10.449    v50.155c0,5.771,4.679,10.449,10.449,10.449h83.058V293.623z" fill="#ffc600"/>
	</g>
</g>
<g>
	<g>
		<path d="M189.127,211.076h-53.266c-5.77,0-10.449,4.678-10.449,10.449v50.155c0,5.771,4.679,10.449,10.449,10.449h53.266    c5.77,0,10.449-4.678,10.449-10.449v-50.155C199.576,215.754,194.896,211.076,189.127,211.076z M178.678,261.231H146.31v-29.257    h32.368V261.231z" fill="#ffc600"/>
	</g>
</g>
<g>
	<g>
		<path d="M270.977,211.076h-53.266c-5.77,0-10.449,4.678-10.449,10.449v50.155c0,5.771,4.679,10.449,10.449,10.449h53.266    c5.77,0,10.449-4.678,10.449-10.449v-50.155C281.426,215.754,276.746,211.076,270.977,211.076z M260.528,261.231H228.16v-29.257    h32.368V261.231z" fill="#ffc600"/>
	</g>
</g>
<g>
	<g>
		<path d="M330.166,307.057c-5.77,0-10.449,4.678-10.449,10.449v0.137c0,5.771,4.679,10.449,10.449,10.449    c5.77,0,10.449-4.678,10.449-10.449v-0.137C340.615,311.735,335.936,307.057,330.166,307.057z" fill="#ffc600"/>
	</g>
</g>
<g>
	<g>
		<path d="M93.693,71.046H41.796C18.75,71.046,0,89.795,0,112.842v277.945c0,5.771,4.679,10.449,10.449,10.449    c5.77,0,10.449-4.678,10.449-10.449V112.842c0-11.523,9.375-20.898,20.898-20.898h7.14v13.598c0,5.771,4.679,10.449,10.449,10.449    h34.308c5.77,0,10.449-4.678,10.449-10.449V81.495C104.142,75.724,99.463,71.046,93.693,71.046z M83.244,95.093h-13.41v-3.149    h13.41V95.093z" fill="#ffc600"/>
	</g>
</g>
<g>
</g>
<g>
</g>
<g>
</g>
<g>
</g>
<g>
</g>
<g>
</g>
<g>
</g>
<g>
</g>
<g>
</g>
<g>
</g>
<g>
</g>
<g>
</g>
<g>
</g>
<g>
</g>
<g>
</g>
</svg>
