<svg xmlns="http://www.w3.org/2000/svg" viewBox="0 0 512.001 392.00002" width="512.001" height="392"><path fill="#ffc600" fill-rule="evenodd" d="M390.413 350.954h113.989V388H390.413z"/><path d="M390.413 350.954c.95-.884 2.044-1.633 2.85-2.65.708-.895-1.267-1.9-1.9-2.85-.176-.263 0-.633 0-.95v-.95-13.298c0-.957.175-5.174 0-5.7-.284-.85-1.5-1.098-1.9-1.9-.258-.515.26-3.54 0-3.799-.224-.224-.634 0-.95 0 0-.633.283-1.333 0-1.9-.283-.566-1.617.567-1.9 0-.283-.566.2-1.299 0-1.9-.142-.424-.808-.525-.95-.95-.2-.6.2-1.299 0-1.9-.142-.424-.75-.549-.95-.95-.141-.282.142-.666 0-.95-.2-.4-.841-.515-.95-.95-.307-1.228 0-2.532 0-3.799v-2.85-.95c0-.316-.141-.666 0-.95 1.05-2.1.59-.294 1.9-.95.4-.2.55-.749.95-.95.566-.282 1.285.155 1.9 0 .971-.242 1.878-.706 2.85-.949.39-.097 1.784.115 1.9 0 .223-.224-.225-.726 0-.95.223-.224.633 0 .95 0h1.9c.348 0 3.76.038 3.799 0 .5-.5.449-1.4.95-1.9.224-.224.633 0 .95 0 .764 0 3.203-.198 3.8 0 6.88 2.294-1.498-.274 2.849 1.9.566.283 1.452-.448 1.9 0 .224.224-.224.726 0 .95.447.448 1.299-.2 1.9 0 .671.224 1.399.45 1.9.95.5.5.557 1.31.95 1.9.248.372.808.525.95.95.2.6-.352 1.373 0 1.9.392.589 1.398.449 1.899.95.224.223-.224.725 0 .95.224.223.667-.142.95 0 .4.2.55.749.95.95.566.282 1.333-.284 1.9 0 .4.2.525.807.95.95.6.2 1.299-.201 1.9 0 .849.282 1.098 1.498 1.9 1.899.288.144 2.421 0 2.849 0h12.349c.95 0 2 .425 2.85 0 .566-.283-.284-1.333 0-1.9.2-.4.75-.55.95-.95.14-.283-.1-.65 0-.95.223-.671.725-1.228.95-1.9.1-.3-.225-.726 0-.95.5-.5 1.398-.449 1.9-.95.223-.223-.225-.725 0-.95.223-.223.725.225.949 0 .224-.223-.224-.725 0-.95.5-.5 1.31-.556 1.9-.95.372-.247.55-.749.95-.949.589-.294 4.166.292 4.75 0 .282-.142-.284-.808 0-.95.566-.283 1.266 0 1.9 0 .316 0 .725.224.949 0 .224-.224-.224-.726 0-.95.224-.224.633 0 .95 0 .956 0 5.174-.175 5.7 0 2.069-.355.316 1.583.95 1.9.566.283 1.298-.2 1.899 0 .425.142.55.75.95.95.56.28 2.196-.218 2.85 0l1.9.95c0 .316-.224.726 0 .95.474.475 2.374-.475 2.85 0 .223.224-.225.726 0 .95.223.224.725-.224.95 0 .223.224-.225.726 0 .95.447.447 1.298-.2 1.899 0 .672.223 1.228.726 1.9.95.6.2 1.333-.284 1.9 0 2.1 1.05.294.589.95 1.9.51 1.02 1.214 1.936 1.9 2.849.268.358.749.55.95.95.14.283-.225.726 0 .95.223.224.666-.142.95 0 .4.2.549.75.949.95.283.141.686-.176.95 0 .745.497 1.155 1.403 1.9 1.9.263.175.726-.224.95 0 .224.223-.224.726 0 .95.5.5 1.399.449 1.9.95.223.223-.1.649 0 .95.223.671.557 1.31.95 1.9.248.372.808.524.95.949.284.855-.286 1.995 0 2.85.223.671.725 1.228.95 1.9.295.886-.293 3.871 0 4.75.14.424.749.548.95.949.14.283 0 .633 0 .95v12.349c0 .428-.145 2.56 0 2.85.2.4.749.549.949.95.142.283 0 .633 0 .95v5.699c0 .316.283.808 0 .95-.566.283-1.299-.2-1.9 0-.633.21-3.256 3.663-3.8 3.8-.921.23-1.948-.301-2.85 0 0 .844.225 1.508-.949 1.9-1.202.4-2.598-.401-3.8 0-.424.14-.55.749-.95.949-.343.172-4.088 0-4.75 0h-82.642c-.803 0-3.288.17-3.799 0-.425-.142-.633-.633-.95-.95-.316-.317-.75-.55-.95-.95-.141-.282 0-5.3 0-5.7v-2.849c0-.317.307-1.03 0-.95-1.07.281-1.9 1.133-2.85 1.7" fill="#ffc600"/><path fill="#ffe073" fill-rule="evenodd" d="M3.8 350.954h113.989V388H3.8z"/><path d="M3.8 350.954c1.266-1.2 2.68-2.26 3.8-3.6.021-.026 0-3.456 0-3.8v-16.148c0-.349-.039-3.761 0-3.8.223-.223.633 0 .95 0 .632-.633 1.362-1.183 1.899-1.9 3.277-4.369-1.932.998 1.9-4.749.175-.263.808.283.95 0 .283-.566 0-1.266 0-1.9 0-.316-.224-.726 0-.95.224-.223.726.224.95 0 .447-.447-.284-1.333 0-1.9.2-.4.808-.524.95-.95.2-.6-.284-1.333 0-1.9 2.137 0-.159.318.95-1.899.141-.283.666.142.95 0 .4-.2.749-.55.95-.95l.95-2.85c.316 0 .725.224.95 0 .474-.474-.476-2.374 0-2.85.223-.223.725.225.949 0 .224-.223-.283-.808 0-.95.566-.282 1.299.201 1.9 0 .425-.14.55-.749.95-.95.283-.14.726.225.95 0 .224-.223-.284-.807 0-.949 4.324 0 .054.448 2.85-.95.288-.144 2.421 0 2.85 0h5.699c.95 0 1.928.23 2.85 0 .686-.172 1.227-.726 1.9-.95.3-.1.649.1.949 0 .672-.224 1.228-.726 1.9-.95.3-.1.65.1.95 0 .671-.224 1.213-.778 1.9-.95.614-.153 1.285.154 1.9 0 .686-.171 1.212-.778 1.9-.95 1.228-.307 2.597.401 3.799 0 .425-.141.55-.75.95-.95.76-.38 2.09.38 2.85 0 3.953-1.976-1.016.066.95-1.9.223-.223.633 0 .95 0h5.699c.316 0 .666-.14.95 0 .4.201.549.75.95.95.376.189 2.655-.194 2.85 0 .5.501.449 1.4.95 1.9.5.501 1.398.45 1.899.95.448.448-.283 1.334 0 1.9.2.4.75.55.95.95.142.283-.176.687 0 .95.497.745 1.362 1.183 1.9 1.9.425.566.557 1.31.95 1.9.496.745 1.499 1.098 1.9 1.9.141.283-.224.725 0 .95.223.223.808-.284.95 0 0 5.382-.634.316.95 1.9.447.447-.449 1.451 0 1.899.223.224.633 0 .95 0H94.99c.317 0 .65.1.95 0 3.792-1.264.446-1.396 2.85-3.8.223-.224.726.224.95 0 .447-.447-.284-1.333 0-1.9.544-1.088 1.981-1.32 2.85-1.9.372-.248.549-.749.95-.95.282-.14.725.225.949 0 .224-.223-.224-.725 0-.95 1.965-1.964-.077 3.004 1.9-.949.506-1.013-.94-1.27.95-1.9.6-.2 1.285.154 1.9 0 .686-.172 1.205-.81 1.9-.95 1.862-.372 3.825.313 5.699 0 .987-.164 1.878-.707 2.85-.95.7-.175 4.071 0 4.75 0h4.749c.633 0 1.299-.2 1.9 0 .671.224 1.228.726 1.9.95.3.1.725-.224.95 0 .5.5.448 1.4.95 1.9.223.224.807-.283.949 0 .283.567-.2 1.3 0 1.9.142.425.75.55.95.95.142.283-.142.667 0 .95 1.977 3.953-.066-1.016 1.9.95.224.224 0 .633 0 .95 0 1.303.498 3.075-.95 3.8-.607.303-3.035-.256-3.8 0-.672.223-1.228.725-1.9.95-.3.1-.726-.225-.95 0-.223.223.284.807 0 .949-.566.283-1.299-.2-1.9 0-.424.142-.549.75-.95.95-.282.142-.808-.283-.95 0-.282.566.634 1.9 0 1.9-.632 0 .634-1.9 0-1.9-1.532 0-.714 3.093-.95 3.8-.223.671-.725 1.228-.949 1.9-.1.3 0 .633 0 .95 0 .95.186 1.918 0 2.849-.139.694-.726 1.228-.95 1.9-.1.3.142.667 0 .95-.2.4-.75.55-.95.95-.38.76.38 2.09 0 2.85-.2.4-.75.549-.95.95-.38.76.38 2.09 0 2.849-.2.4-.75.55-.95.95-.141.283 0 .633 0 .95v5.7c0 .316.142.666 0 .95-1.976 3.952.066-1.016-1.9.95-.223.223 0 .632 0 .949v5.7c0 2.227.224-.448-.95 1.9-.294.588.292 4.166 0 4.749-.141.283-.808-.283-.95 0-.138.278 0 4.922 0 5.7 0 .316.142.666 0 .95-.2.4-.633.632-.95.95-.316.316-.577.7-.95.949-.588.393-1.31.557-1.899.95-.372.248-.55.75-.95.95-.283.141-.65-.1-.95 0-.671.224-1.213.778-1.9.95-.921.23-1.9 0-2.85 0-.235 0-3.72-.052-3.799 0-.745.497-1.099 1.499-1.9 1.9-.356.178-5.134 0-5.7 0H12.349c-.225 0-3.586.106-3.799 0-3.953-1.977 1.016.065-.95-1.9-.224-.224-.666.141-.95 0-.8-.4-1.05-1.617-1.9-1.9-.6-.2-1.333.283-1.9 0-.076-.038.138-3.388 0-3.8-.223-.671-.449-1.399-.95-1.9-.223-.223-.725.224-.95 0-.223-.223 0-.633 0-.95 0-.316-.223-.725 0-.95.225-.223.634 0 .95 0l1.9-3.05z" fill="#ffe073"/><path d="M175.839 344.935a7.5 7.5 0 0 0-7.5 7.5v32.064a7.5 7.5 0 0 0 15 0v-32.064a7.5 7.5 0 0 0-7.5-7.5zM336.161 344.935a7.5 7.5 0 0 0-7.5 7.5v32.064a7.5 7.5 0 0 0 15 0v-32.064a7.5 7.5 0 0 0-7.5-7.5zM115.063 185.405c-17.416-8.708-50.069-8.808-51.451-8.808a7.5 7.5 0 0 0-.002 15c8.438.005 32.923 1.313 44.745 7.224a7.502 7.502 0 0 0 6.708-13.416zM39.564 328.903a7.5 7.5 0 0 0-7.5 7.5V384.5a7.5 7.5 0 0 0 15 0v-48.097a7.5 7.5 0 0 0-7.5-7.5z"/><path d="M494.56 300.893l-30.372-15.184a.515.515 0 0 1-.286-.462l.002-15.265c12.468-8.585 21.293-22.157 23.501-38.085 5.608-9.691 8.563-20.637 8.563-31.767 0-20.755-9.994-39.217-25.419-50.835a32.187 32.187 0 0 0 1.371-9.286c0-19.606-17.749-35.557-39.564-35.557s-39.564 15.951-39.564 35.557c0 3.173.462 6.28 1.366 9.289a63.936 63.936 0 0 0-20.815 27.126c-1.859-18.269-3.795-39.866-5.652-65.024-2.45-33.194-14.388-61.226-34.522-81.064C313.188 10.648 286.503.242 256 .242s-57.188 10.406-77.167 30.093c-20.134 19.839-32.072 47.871-34.522 81.064a2659.702 2659.702 0 0 1-1.974 25.117H71.629c-26.236 0-47.581 21.345-47.581 47.581v.447c0 6.11 1.444 12.229 4.177 17.694l3.839 7.679v12.245c0 19.406 9.563 36.819 24.048 47.298v10.832a3.141 3.141 0 0 1-2.268 3.007l-30.963 8.847C9.409 295.994 0 308.468 0 322.479V384.5a7.5 7.5 0 0 0 15 0v-62.021c0-7.35 4.936-13.893 12.002-15.912l30.964-8.847a17.81 17.81 0 0 0 3.188-1.266l19.007 19.007V384.5a7.5 7.5 0 0 0 15 0v-69.039l19.14-19.14c2.558 1.255 5.107 1.985 6.975 2.519l7.603 2.172c-10.303 7.326-16.653 19.275-16.653 32.232v51.254a7.5 7.5 0 0 0 15 0v-51.254a24.577 24.577 0 0 1 14.641-22.47l42.88-18.939a79.55 79.55 0 0 0 71.254 44.051c30.472 0 57.838-17.104 71.267-44.045l42.867 18.933a24.577 24.577 0 0 1 14.641 22.47v51.254a7.5 7.5 0 0 0 15 0v-51.254c0-9.594-3.487-18.632-9.472-25.658l11.607-5.803 8.713 8.28a31.454 31.454 0 0 0 21.733 8.686c7.818 0 15.64-2.896 21.732-8.686l8.712-8.279 25.052 12.525c5.643 2.821 9.148 8.493 9.148 14.802v55.388a7.5 7.5 0 0 0 15 0v-55.388c-.001-12.026-6.684-22.839-17.441-28.218zm-62.205-181.442c13.544 0 24.564 9.222 24.564 20.557 0 .475-.038.946-.076 1.416a63.256 63.256 0 0 0-24.488-4.908 63.25 63.25 0 0 0-24.484 4.907c-.039-.47-.08-.94-.08-1.415 0-11.335 11.02-20.557 24.564-20.557zM87.662 301.749l-17.09-17.09c.353-1.408.542-2.873.542-4.368v-3.164a52.542 52.542 0 0 0 16.569 2.648 55.7 55.7 0 0 0 16.525-2.498v3.011c0 1.627.167 3.103.464 4.451zm-1.255-36.995c-21.694-.649-39.343-19.757-39.343-42.592v-14.016a7.496 7.496 0 0 0-.792-3.354l-4.631-9.262a24.7 24.7 0 0 1-2.593-10.986v-.447c0-17.965 14.616-32.581 32.581-32.581h64.646v31.135c0 5.031-1.189 10.07-3.44 14.57l-3.785 7.57a7.499 7.499 0 0 0-.792 3.354v16.032c0 11.074-4.378 21.422-12.328 29.136-7.946 7.71-18.437 11.777-29.523 11.441zm62.683 26.432l-23.693-6.769c-6.19-1.768-6.189-2.458-6.189-4.127l.002-10.333a56.309 56.309 0 0 0 7.168-5.879 56.577 56.577 0 0 0 4.24-4.611 15.378 15.378 0 0 0 5.439 6.124c6.012 3.893 17.357 10.36 34.041 16.316zM256 320.887a64.581 64.581 0 0 1-57.523-35.115l10.917-4.822a23.544 23.544 0 0 0 14.025-21.526v-17.996A87.198 87.198 0 0 0 256 247.71a87.201 87.201 0 0 0 32.581-6.282v17.996a23.543 23.543 0 0 0 14.025 21.526l10.915 4.821c-11.013 21.499-33.028 35.116-57.521 35.116zm65.034-48.196l-12.368-5.463a8.536 8.536 0 0 1-5.085-7.805v-25.785c24.102-15.637 40.081-42.782 40.081-73.59v-14.063c0-9.14-3.886-17.762-10.662-23.654-15.069-13.106-49.18-35.977-108.318-41.891a7.5 7.5 0 1 0-1.492 14.926c55.005 5.5 86.242 26.347 99.967 38.284 3.499 3.042 5.505 7.539 5.505 12.335v14.063c0 40.065-32.596 72.661-72.661 72.661-40.065 0-72.661-32.596-72.661-72.661v-6.274c0-2.882 1.598-5.522 4.274-7.063 9.377-5.399 21.743-15.401 27.406-32.388a7.5 7.5 0 0 0-14.231-4.743c-4.172 12.516-13.538 20.031-20.66 24.132-7.272 4.187-11.79 11.875-11.79 20.063v6.274c0 30.809 15.978 57.953 40.081 73.59v25.785a8.537 8.537 0 0 1-5.085 7.805l-12.369 5.463c-24.156-6.463-39.634-15.08-46.757-19.691-.142-.092-.222-.197-.182-.434 2.616-15.464 9.338-60.069 15.244-140.063 2.178-29.515 12.583-54.235 30.09-71.485C206.476 24.156 229.519 15.242 256 15.242c26.481 0 49.524 8.914 66.639 25.777 17.507 17.25 27.912 41.969 30.091 71.484 5.905 79.991 12.627 124.598 15.244 140.063.04.238-.04.343-.183.435-7.133 4.617-22.611 13.229-46.757 19.69zm79.773 12.555a.513.513 0 0 1-.285.462l-23.498 11.749c-.279-.131-.547-.278-.829-.403l-34.291-15.145c16.676-5.954 28.019-12.418 34.039-16.316a15.417 15.417 0 0 0 6.821-15.528l-.177-1.058a55.478 55.478 0 0 0 18.22 20.975zm42.946 13.945c-6.391 6.076-16.405 6.075-22.798 0l-6.971-6.624a15.52 15.52 0 0 0 1.822-7.321v-7.981a55.758 55.758 0 0 0 16.548 2.509c5.753 0 11.31-.884 16.547-2.509l-.001 7.979c0 2.619.646 5.119 1.823 7.324zm-11.398-34.418c-20.766 0-38.11-15.55-40.343-36.171a7.503 7.503 0 0 0-1.065-3.117c-4.714-7.677-7.205-16.445-7.205-25.357 0-26.804 21.807-48.612 48.613-48.612 26.805 0 48.613 21.808 48.613 48.613a48.12 48.12 0 0 1-2.466 15.171c-21.296-21.635-58.759-30.114-60.565-30.512a7.503 7.503 0 0 0-9.114 7.324c0 .049-.342 5.252-5.819 10.729a7.5 7.5 0 0 0 0 10.606 7.5 7.5 0 0 0 10.606 0c4.218-4.218 6.696-8.499 8.15-12.114 12.62 3.749 38.813 13.217 50.568 29.836-3.336 19.329-20.08 33.604-39.973 33.604z"/><path d="M472.436 338.813a7.5 7.5 0 0 0-7.5 7.5V384.5a7.5 7.5 0 0 0 15 0v-38.187a7.5 7.5 0 0 0-7.5-7.5z"/></svg>