<svg xmlns="http://www.w3.org/2000/svg" viewBox="0 0 480 309.375" width="512" height="330"><path d="M48 157.375c-17.673 0-32 14.327-32 32 0 17.673 14.327 32 32 32 17.673 0 32-14.327 32-32 0-17.673-14.327-32-32-32zm0 48c-8.837 0-16-7.163-16-16s7.163-16 16-16 16 7.163 16 16-7.163 16-16 16zM48 229.375c-26.51 0-48 21.49-48 48v24a8 8 0 0 0 16 0v-24c0-17.673 14.327-32 32-32 17.673 0 32 14.327 32 32v24a8 8 0 0 0 16 0v-24c0-26.51-21.49-48-48-48zM176 157.375c-17.673 0-32 14.327-32 32 0 17.673 14.327 32 32 32 17.673 0 32-14.327 32-32 0-17.673-14.327-32-32-32zm0 48c-8.837 0-16-7.163-16-16s7.163-16 16-16 16 7.163 16 16-7.163 16-16 16zM176 229.375c-26.51 0-48 21.49-48 48v24a8 8 0 0 0 16 0v-24c0-17.673 14.327-32 32-32 17.673 0 32 14.327 32 32v24a8 8 0 0 0 16 0v-24c0-26.51-21.49-48-48-48zM304 157.375c-17.673 0-32 14.327-32 32 0 17.673 14.327 32 32 32 17.673 0 32-14.327 32-32 0-17.673-14.327-32-32-32zm0 48c-8.837 0-16-7.163-16-16s7.163-16 16-16 16 7.163 16 16-7.163 16-16 16zM304 229.375c-26.51 0-48 21.49-48 48v24a8 8 0 0 0 16 0v-24c0-17.673 14.327-32 32-32 17.673 0 32 14.327 32 32v24a8 8 0 0 0 16 0v-24c0-26.51-21.49-48-48-48zM432 157.375c-17.673 0-32 14.327-32 32 0 17.673 14.327 32 32 32 17.673 0 32-14.327 32-32 0-17.673-14.327-32-32-32zm0 48c-8.837 0-16-7.163-16-16s7.163-16 16-16 16 7.163 16 16-7.163 16-16 16zM432 229.375c-26.499.026-47.974 21.501-48 48v24a8 8 0 0 0 16 0v-24c0-17.673 14.327-32 32-32 17.673 0 32 14.327 32 32v24a8 8 0 0 0 16 0v-24c-.026-26.499-21.501-47.974-48-48zM48 5.375c-17.673 0-32 14.327-32 32 0 17.673 14.327 32 32 32 17.673 0 32-14.327 32-32 0-17.673-14.327-32-32-32zm0 48c-8.837 0-16-7.163-16-16s7.163-16 16-16 16 7.163 16 16-7.163 16-16 16z" fill="#ffc600"/><path d="M48 77.375c-26.51 0-48 21.49-48 48v24a8 8 0 0 0 16 0v-24c0-17.673 14.327-32 32-32 17.673 0 32 14.327 32 32v24a8 8 0 0 0 16 0v-24c0-26.51-21.49-48-48-48zM176 5.375c-17.673 0-32 14.327-32 32 0 17.673 14.327 32 32 32 17.673 0 32-14.327 32-32 0-17.673-14.327-32-32-32zm0 48c-8.837 0-16-7.163-16-16s7.163-16 16-16 16 7.163 16 16-7.163 16-16 16zM176 77.375c-26.51 0-48 21.49-48 48v24a8 8 0 0 0 16 0v-24c0-17.673 14.327-32 32-32 17.673 0 32 14.327 32 32v24a8 8 0 0 0 16 0v-24c0-26.51-21.49-48-48-48zM304 5.375c-17.673 0-32 14.327-32 32 0 17.673 14.327 32 32 32 17.673 0 32-14.327 32-32 0-17.673-14.327-32-32-32zm0 48c-8.837 0-16-7.163-16-16s7.163-16 16-16 16 7.163 16 16-7.163 16-16 16zM304 77.375c-26.51 0-48 21.49-48 48v24a8 8 0 0 0 16 0v-24c0-17.673 14.327-32 32-32 17.673 0 32 14.327 32 32v24a8 8 0 0 0 16 0v-24c0-26.51-21.49-48-48-48zM432 5.375c-17.673 0-32 14.327-32 32 0 17.673 14.327 32 32 32 17.673 0 32-14.327 32-32 0-17.673-14.327-32-32-32zm0 48c-8.837 0-16-7.163-16-16s7.163-16 16-16 16 7.163 16 16-7.163 16-16 16zM432 77.375c-26.499.026-47.974 21.501-48 48v24a8 8 0 0 0 16 0v-24c0-17.673 14.327-32 32-32 17.673 0 32 14.327 32 32v24a8 8 0 0 0 16 0v-24c-.026-26.499-21.501-47.974-48-48z" fill="#ffc600"/></svg>