<?xml version="1.0" encoding="UTF-8" standalone="no"?>
<!-- Generator: Adobe Illustrator 19.0.0, SVG Export Plug-In . SVG Version: 6.00 Build 0)  -->

<svg
   xmlns:dc="http://purl.org/dc/elements/1.1/"
   xmlns:cc="http://creativecommons.org/ns#"
   xmlns:rdf="http://www.w3.org/1999/02/22-rdf-syntax-ns#"
   xmlns:svg="http://www.w3.org/2000/svg"
   xmlns="http://www.w3.org/2000/svg"
   xmlns:sodipodi="http://sodipodi.sourceforge.net/DTD/sodipodi-0.dtd"
   xmlns:inkscape="http://www.inkscape.org/namespaces/inkscape"
   version="1.1"
   id="Layer_1"
   x="0px"
   y="0px"
   viewBox="0 0 512.001 392.00002"
   xml:space="preserve"
   sodipodi:docname="icon-professional-community-colorful.svg"
   width="512.00098"
   height="392"
   inkscape:version="0.92.2 (5c3e80d, 2017-08-06)"><metadata
     id="metadata154"><rdf:RDF><cc:Work
         rdf:about=""><dc:format>image/svg+xml</dc:format><dc:type
           rdf:resource="http://purl.org/dc/dcmitype/StillImage" /><dc:title></dc:title></cc:Work></rdf:RDF></metadata><defs
     id="defs152" /><sodipodi:namedview
     pagecolor="#ffffff"
     bordercolor="#666666"
     borderopacity="1"
     objecttolerance="10"
     gridtolerance="10"
     guidetolerance="10"
     inkscape:pageopacity="0"
     inkscape:pageshadow="2"
     inkscape:window-width="1366"
     inkscape:window-height="706"
     id="namedview150"
     showgrid="false"
     inkscape:zoom="1.0527324"
     inkscape:cx="256.00049"
     inkscape:cy="180.00777"
     inkscape:window-x="-8"
     inkscape:window-y="-8"
     inkscape:window-maximized="1"
     inkscape:current-layer="Layer_1" /><rect
     style="opacity:1;fill:#ffc600;fill-opacity:1;fill-rule:evenodd;stroke:none"
     id="rect2906"
     width="113.98907"
     height="37.046455"
     x="390.4126"
     y="350.95355" /><path
     style="fill:#ffc600;stroke:none;stroke-width:1px;stroke-linecap:butt;stroke-linejoin:miter;stroke-opacity:1;fill-opacity:1"
     d="m 390.4126,350.95355 c 0.94991,-0.88312 2.04462,-1.63249 2.84973,-2.64936 0.70868,-0.89507 -1.26654,-1.89982 -1.89981,-2.84973 -0.17564,-0.26346 0,-0.63327 0,-0.94991 0,-0.31664 0,-0.63327 0,-0.94991 0,-4.43291 0,-8.86582 0,-13.29873 0,-0.9566 0.1751,-5.17413 0,-5.69945 -0.28321,-0.84962 -1.49931,-1.09878 -1.89982,-1.89982 -0.25766,-0.51531 0.25991,-3.53972 0,-3.79963 -0.2239,-0.2239 -0.63328,0 -0.94991,0 0,-0.63328 0.28321,-1.33341 0,-1.89982 -0.28321,-0.56642 -1.61661,0.56641 -1.89982,0 -0.28321,-0.56642 0.20026,-1.29905 0,-1.89982 -0.1416,-0.42481 -0.8083,-0.5251 -0.94991,-0.94991 -0.20026,-0.60077 0.20026,-1.29904 0,-1.89982 -0.1416,-0.42481 -0.74965,-0.54939 -0.94991,-0.94991 -0.1416,-0.2832 0.14161,-0.6667 0,-0.94991 -0.20026,-0.40051 -0.8413,-0.51548 -0.94991,-0.9499 -0.30718,-1.22873 0,-2.5331 0,-3.79964 0,-0.94991 0,-1.89982 0,-2.84973 0,-0.31663 0,-0.63327 0,-0.94991 0,-0.31663 -0.1416,-0.6667 0,-0.94991 1.05015,-2.1003 0.58956,-0.29477 1.89982,-0.9499 0.40052,-0.20026 0.54939,-0.74966 0.94991,-0.94991 0.56642,-0.28321 1.28545,0.15359 1.89982,0 0.97139,-0.24285 1.87833,-0.70706 2.84973,-0.94991 0.38999,-0.0975 1.78467,0.11514 1.89981,0 0.2239,-0.2239 -0.22389,-0.72602 0,-0.94991 0.2239,-0.2239 0.63328,0 0.94991,0 0.63328,0 1.26655,0 1.89982,0 0.34884,0 3.76141,0.0382 3.79964,0 0.50064,-0.50065 0.44926,-1.39917 0.94991,-1.89982 0.22389,-0.2239 0.63327,0 0.9499,0 0.76471,0 3.20343,-0.19874 3.79964,0 6.88059,2.29353 -1.49763,-0.27386 2.84973,1.89982 0.56641,0.28321 1.45202,-0.44779 1.89982,0 0.22389,0.22389 -0.2239,0.72601 0,0.94991 0.44779,0.44779 1.29904,-0.20026 1.89981,0 0.67169,0.22389 1.39918,0.44926 1.89982,0.94991 0.50065,0.50064 0.55717,1.31071 0.94991,1.89981 0.24839,0.37259 0.80831,0.5251 0.94991,0.94991 0.20026,0.60078 -0.35128,1.37291 0,1.89982 0.39274,0.58911 1.39917,0.44926 1.89982,0.94991 0.22389,0.2239 -0.2239,0.72601 0,0.94991 0.22389,0.2239 0.6667,-0.1416 0.94991,0 0.40051,0.20026 0.54939,0.74965 0.94991,0.94991 0.56641,0.28321 1.3334,-0.28321 1.89981,0 0.40052,0.20026 0.5251,0.8083 0.94991,0.94991 0.60078,0.20026 1.29905,-0.20026 1.89982,0 0.84963,0.28321 1.09879,1.4993 1.89982,1.89982 0.28909,0.14454 2.42193,0 2.84973,0 2.21645,0 4.4329,0 6.64936,0 1.89982,0 3.79964,0 5.69945,0 0.94991,0 2.00011,0.42481 2.84973,0 0.56642,-0.28321 -0.28321,-1.33341 0,-1.89982 0.20026,-0.40052 0.74965,-0.54939 0.94991,-0.94991 0.1416,-0.28321 -0.10013,-0.64952 0,-0.94991 0.2239,-0.67169 0.72601,-1.22813 0.94991,-1.89982 0.10013,-0.30039 -0.2239,-0.72601 0,-0.94991 0.50064,-0.50064 1.39917,-0.44926 1.89982,-0.94991 0.22389,-0.22389 -0.2239,-0.72601 0,-0.94991 0.22389,-0.22389 0.72601,0.2239 0.94991,0 0.22389,-0.22389 -0.2239,-0.72601 0,-0.9499 0.50064,-0.50065 1.3107,-0.55717 1.89981,-0.94991 0.37259,-0.24839 0.5494,-0.74965 0.94991,-0.94991 0.58885,-0.29443 4.16654,0.2915 4.74955,0 0.28321,-0.14161 -0.28321,-0.80831 0,-0.94991 0.56641,-0.28321 1.26654,0 1.89982,0 0.31663,0 0.72601,0.22389 0.9499,0 0.2239,-0.2239 -0.22389,-0.72602 0,-0.94991 0.2239,-0.2239 0.63328,0 0.94991,0 0.95661,0 5.17414,-0.17511 5.69946,0 2.06939,-0.35505 0.31663,1.58318 0.94991,1.89982 0.56641,0.28321 1.29904,-0.20026 1.89981,0 0.42482,0.1416 0.5494,0.74965 0.94991,0.94991 0.56047,0.28023 2.19635,-0.2178 2.84973,0 0.63327,0.31663 1.26655,0.63327 1.89982,0.94991 0,0.31663 -0.2239,0.72601 0,0.9499 0.47495,0.47496 2.37477,-0.47495 2.84973,0 0.22389,0.2239 -0.2239,0.72602 0,0.94991 0.22389,0.2239 0.72601,-0.22389 0.9499,0 0.2239,0.2239 -0.22389,0.72602 0,0.94991 0.4478,0.44779 1.29905,-0.20026 1.89982,0 0.67169,0.2239 1.22813,0.72602 1.89982,0.94991 0.60078,0.20026 1.3334,-0.28321 1.89982,0 2.1003,1.05015 0.29478,0.58956 0.94991,1.89982 0.51056,1.02112 1.21483,1.93641 1.89982,2.84973 0.26867,0.35823 0.74965,0.54939 0.94991,0.94991 0.1416,0.2832 -0.2239,0.72601 0,0.9499 0.22389,0.2239 0.6667,-0.1416 0.9499,0 0.40052,0.20026 0.5494,0.74966 0.94991,0.94991 0.28321,0.14161 0.68645,-0.17563 0.94991,0 0.74517,0.49678 1.15465,1.40304 1.89982,1.89982 0.26346,0.17564 0.72601,-0.22389 0.94991,0 0.22389,0.2239 -0.2239,0.72601 0,0.94991 0.50065,0.50065 1.39917,0.44926 1.89982,0.94991 0.22389,0.2239 -0.10013,0.64952 0,0.94991 0.22389,0.67169 0.55717,1.31071 0.94991,1.89982 0.24839,0.37258 0.8083,0.52509 0.94991,0.94991 0.28497,0.85491 -0.28498,1.9948 0,2.84972 0.22389,0.67169 0.72601,1.22813 0.9499,1.89982 0.29536,0.88607 -0.29265,3.8716 0,4.74955 0.14161,0.42481 0.74965,0.54939 0.94991,0.9499 0.14161,0.28321 0,0.63328 0,0.94991 0,0.31664 0,0.63328 0,0.94991 0,1.58318 0,3.16637 0,4.74955 0,2.21645 0,4.43291 0,6.64936 0,0.4278 -0.14454,2.56064 0,2.84973 0.20026,0.40051 0.74965,0.54939 0.94991,0.94991 0.14161,0.28321 0,0.63327 0,0.94991 0,0.31663 0,0.63327 0,0.94991 0,1.58318 0,3.16636 0,4.74954 0,0.31664 0.28321,0.80831 0,0.94991 -0.56641,0.28321 -1.29904,-0.20026 -1.89982,0 -0.63311,0.21104 -3.25582,3.66368 -3.79963,3.79964 -0.92155,0.23038 -1.94857,-0.30039 -2.84973,0 0,0.84436 0.2239,1.50855 -0.94991,1.89981 -1.20155,0.40052 -2.59808,-0.40051 -3.79963,0 -0.42482,0.14161 -0.5494,0.74965 -0.94991,0.94991 -0.34352,0.17176 -4.08885,0 -4.74955,0 -4.11627,0 -8.23254,0 -12.34882,0 -12.66545,0 -25.3309,0 -37.99636,0 -8.23254,0 -16.46509,0 -24.69763,0 -2.53309,0 -5.06618,0 -7.59927,0 -0.80424,0 -3.28896,0.17023 -3.79964,0 -0.42481,-0.1416 -0.63327,-0.63327 -0.94991,-0.94991 -0.31663,-0.31663 -0.74965,-0.54939 -0.94991,-0.94991 -0.14128,-0.28257 0,-5.29986 0,-5.69945 0,-0.94991 0,-1.89982 0,-2.84973 0,-0.31663 0.30622,-1.03045 0,-0.94991 -1.06962,0.28134 -1.89982,1.13298 -2.84973,1.69946"
     id="path2932"
     inkscape:connector-curvature="0" /><rect
     style="opacity:1;fill:#ffe073;fill-opacity:1;fill-rule:evenodd;stroke:none;stroke-opacity:1"
     id="rect2906-2"
     width="113.98907"
     height="37.046455"
     x="3.7996497"
     y="350.95355" /><path
     style="fill:#ffe073;stroke:none;stroke-width:1px;stroke-linecap:butt;stroke-linejoin:miter;stroke-opacity:1;fill-opacity:1"
     d="m 3.7996497,350.95355 c 1.2665408,-1.19976 2.6812727,-2.2603 3.7996224,-3.59927 0.021714,-0.026 0,-3.4562 0,-3.79964 0,-5.38282 0,-10.76564 0,-16.14845 0,-0.34884 -0.038226,-3.76141 0,-3.79964 0.2238957,-0.22389 0.6332727,0 0.9499091,0 0.6332726,-0.63327 1.3624683,-1.18335 1.8998178,-1.89982 3.276946,-4.36926 -1.9316414,0.99765 1.899818,-4.74954 0.175638,-0.26346 0.808305,0.28321 0.949909,0 0.283208,-0.56642 0,-1.26655 0,-1.89982 0,-0.31664 -0.223895,-0.72601 0,-0.94991 0.223896,-0.2239 0.726014,0.2239 0.949909,0 0.447792,-0.44779 -0.283208,-1.3334 0,-1.89982 0.200259,-0.40051 0.808305,-0.52509 0.949909,-0.94991 0.200259,-0.60077 -0.283208,-1.3334 0,-1.89981 2.137296,0 -0.158318,0.31663 0.949909,-1.89982 0.141604,-0.28321 0.666701,0.1416 0.949909,0 0.400517,-0.20026 0.749651,-0.54939 0.949909,-0.94991 0.316637,-0.94991 0.633273,-1.89982 0.949909,-2.84973 0.316637,0 0.726014,0.2239 0.949909,0 0.474955,-0.47495 -0.474954,-2.37477 0,-2.84973 0.223896,-0.22389 0.726014,0.2239 0.949909,0 0.223896,-0.22389 -0.283208,-0.8083 0,-0.9499 0.566417,-0.28321 1.299043,0.20025 1.899818,0 0.424813,-0.14161 0.549393,-0.74966 0.949909,-0.94991 0.283209,-0.14161 0.726014,0.22389 0.949909,0 0.223896,-0.2239 -0.283208,-0.80831 0,-0.94991 4.324257,0 0.05433,0.44779 2.849728,-0.94991 0.289089,-0.14455 2.421928,0 2.849727,0 1.899818,0 3.799636,0 5.699454,0 0.949909,0 1.92818,0.23039 2.849727,0 0.68688,-0.17172 1.228131,-0.72602 1.899818,-0.94991 0.300387,-0.10013 0.649521,0.10013 0.949909,0 0.671687,-0.2239 1.228131,-0.72601 1.899818,-0.94991 0.300387,-0.10013 0.649521,0.10013 0.949909,0 0.671687,-0.2239 1.212937,-0.77819 1.899818,-0.94991 0.614365,-0.15359 1.285453,0.15359 1.899818,0 0.686881,-0.17172 1.212937,-0.77819 1.899818,-0.94991 1.228729,-0.30718 2.598086,0.40052 3.799636,0 0.424812,-0.1416 0.549392,-0.74965 0.949909,-0.94991 0.759927,-0.37996 2.0898,0.37997 2.849727,0 3.953294,-1.97664 -1.015486,0.0656 0.949909,-1.89981 0.223896,-0.2239 0.633273,0 0.949909,0 1.583182,0 3.166364,0 4.749545,0 0.316637,0 0.633273,0 0.949909,0 0.316637,0 0.666701,-0.14161 0.949909,0 0.400517,0.20025 0.549392,0.74965 0.949909,0.9499 0.376631,0.18832 2.655531,-0.19419 2.849727,0 0.500646,0.50065 0.449263,1.39918 0.949909,1.89982 0.500646,0.50065 1.399172,0.44927 1.899818,0.94991 0.447792,0.44779 -0.283208,1.3334 0,1.89982 0.200259,0.40052 0.749651,0.54939 0.949909,0.94991 0.141604,0.28321 -0.175638,0.68645 0,0.94991 0.49678,0.74517 1.362469,1.18335 1.899818,1.89982 0.424813,0.56641 0.55717,1.3107 0.949909,1.89981 0.49678,0.74517 1.499302,1.09879 1.899818,1.89982 0.141605,0.28321 -0.223895,0.72601 0,0.94991 0.223896,0.2239 0.808305,-0.28321 0.949909,0 0,5.38282 -0.633272,0.31664 0.94991,1.89982 0.447791,0.44779 -0.447792,1.45203 0,1.89982 0.223895,0.22389 0.633272,0 0.949909,0 0.316636,0 0.633272,0 0.949909,0 2.849727,0 5.699454,0 8.549181,0 1.266545,0 2.53309,0 3.799636,0 0.316636,0 0.649521,0.10013 0.949909,0 3.792641,-1.26422 0.44629,-1.3962 2.849727,-3.79964 0.223896,-0.2239 0.726013,0.2239 0.949909,0 0.447793,-0.44779 -0.283208,-1.3334 0,-1.89982 0.544493,-1.08899 1.981993,-1.32133 2.849723,-1.89982 0.37259,-0.24839 0.5494,-0.74965 0.94991,-0.9499 0.28321,-0.14161 0.72602,0.22389 0.94991,0 0.2239,-0.2239 -0.22389,-0.72602 0,-0.94991 1.9654,-1.9654 -0.0768,3.00338 1.89982,-0.94991 0.50662,-1.01324 -0.94036,-1.26973 0.94991,-1.89982 0.60077,-0.20026 1.28545,0.15359 1.89982,0 0.68688,-0.17172 1.20554,-0.81106 1.89982,-0.94991 1.86292,-0.37258 3.82548,0.31233 5.69945,0 0.98767,-0.16461 1.87833,-0.70706 2.84973,-0.94991 0.70123,-0.17531 4.07195,0 4.74954,0 1.58318,0 3.16636,0 4.74955,0 0.63327,0 1.29904,-0.20026 1.89981,0 0.67169,0.2239 1.22814,0.72601 1.89982,0.94991 0.30039,0.10013 0.72602,-0.2239 0.94991,0 0.50065,0.50065 0.44926,1.39917 0.94991,1.89982 0.2239,0.22389 0.80831,-0.28321 0.94991,0 0.28321,0.56641 -0.20026,1.29904 0,1.89982 0.1416,0.42481 0.74965,0.54939 0.94991,0.94991 0.1416,0.2832 -0.14161,0.6667 0,0.9499 1.97665,3.9533 -0.0656,-1.01548 1.89982,0.94991 0.22389,0.2239 0,0.63328 0,0.94991 0,1.30339 0.49868,3.07534 -0.94991,3.79964 -0.60701,0.3035 -3.03506,-0.25486 -3.79964,0 -0.67169,0.22389 -1.22813,0.72601 -1.89982,0.94991 -0.30038,0.10013 -0.72601,-0.2239 -0.94991,0 -0.22389,0.22389 0.28321,0.8083 0,0.94991 -0.56641,0.2832 -1.29904,-0.20026 -1.89981,0 -0.42482,0.1416 -0.5494,0.74965 -0.94991,0.94991 -0.28321,0.1416 -0.80831,-0.28321 -0.94991,0 -0.28321,0.56641 0.63327,1.89981 0,1.89981 -0.63327,0 0.63327,-1.89981 0,-1.89981 -1.53278,0 -0.71435,3.09294 -0.94991,3.79963 -0.2239,0.67169 -0.72601,1.22813 -0.94991,1.89982 -0.10013,0.30039 0,0.63327 0,0.94991 0,0.94991 0.18629,1.91826 0,2.84973 -0.13885,0.69427 -0.72601,1.22813 -0.94991,1.89981 -0.10013,0.30039 0.14161,0.6667 0,0.94991 -0.20026,0.40052 -0.74965,0.54939 -0.94991,0.94991 -0.37996,0.75993 0.37997,2.0898 0,2.84973 -0.20026,0.40052 -0.74965,0.54939 -0.94991,0.94991 -0.37996,0.75992 0.37997,2.0898 0,2.84972 -0.20026,0.40052 -0.74965,0.5494 -0.94991,0.94991 -0.1416,0.28321 0,0.63328 0,0.94991 0,0.31664 0,0.63328 0,0.94991 0,1.58318 0,3.16637 0,4.74955 0,0.31663 0.14161,0.6667 0,0.94991 -1.97664,3.95329 0.0656,-1.01549 -1.89981,0.94991 -0.2239,0.22389 0,0.63327 0,0.9499 0,1.89982 0,3.79964 0,5.69946 0,2.2277 0.22389,-0.44779 -0.94991,1.89982 -0.29443,0.58885 0.2915,4.16654 0,4.74954 -0.14161,0.28321 -0.80831,-0.28321 -0.94991,0 -0.13897,0.27794 0,4.92196 0,5.69946 0,0.31663 0.1416,0.6667 0,0.9499 -0.20026,0.40052 -0.63327,0.63328 -0.94991,0.94991 -0.31664,0.31664 -0.57732,0.70152 -0.94991,0.94991 -0.58911,0.39274 -1.31071,0.55717 -1.89982,0.94991 -0.37258,0.24839 -0.54939,0.74965 -0.94991,0.94991 -0.28321,0.1416 -0.64952,-0.10013 -0.94991,0 -0.67168,0.2239 -1.21293,0.77819 -1.89981,0.94991 -0.92155,0.23039 -1.89982,0 -2.84973,0 -0.23569,0 -3.7215,-0.0521 -3.79964,0 -0.74517,0.49678 -1.09878,1.4993 -1.89982,1.89982 -0.35635,0.17817 -5.133898,0 -5.699449,0 -4.432909,0 -8.865818,0 -13.298726,0 -11.398909,0 -22.797817,0 -34.196725,0 -9.49909,0 -18.99818,0 -28.497271,0 -2.53309,0 -5.066181,0 -7.599272,0 -0.225727,0 -3.5867325,0.10645 -3.7996358,0 -3.9532938,-1.97665 1.0154865,0.0656 -0.9499091,-1.89982 -0.2238957,-0.2239 -0.6667008,0.1416 -0.949909,0 -0.8010336,-0.40052 -1.0501936,-1.61661 -1.899818,-1.89982 -0.6007752,-0.20026 -1.3334017,0.28321 -1.899818,0 -0.07623,-0.0381 0.1372791,-3.3878 0,-3.79963 -0.2238957,-0.67169 -0.4492631,-1.39918 -0.9499091,-1.89982 -0.2238957,-0.2239 -0.7260133,0.22389 -0.94990898,0 -0.2238957,-0.2239 0,-0.63328 0,-0.94991 0,-0.31664 -0.2238957,-0.72602 0,-0.94991 0.22389568,-0.2239 0.63327268,0 0.94990898,0 0.6332773,-1.0167 1.2665545,-2.03339 1.8998317,-3.05009 z"
     id="path2936"
     inkscape:connector-curvature="0" /><g
     id="g87"
     transform="translate(0,-59.879)"><g
       id="g85"><path
         d="m 175.839,404.814 c -4.142,0 -7.5,3.358 -7.5,7.5 v 32.064 c 0,4.142 3.358,7.5 7.5,7.5 4.142,0 7.5,-3.358 7.5,-7.5 v -32.064 c 0,-4.142 -3.358,-7.5 -7.5,-7.5 z"
         id="path83"
         inkscape:connector-curvature="0" /></g></g><g
     id="g93"
     transform="translate(0,-59.879)"><g
       id="g91"><path
         d="m 336.161,404.814 c -4.142,0 -7.5,3.358 -7.5,7.5 v 32.064 c 0,4.142 3.358,7.5 7.5,7.5 4.142,0 7.5,-3.358 7.5,-7.5 v -32.064 c 0,-4.142 -3.358,-7.5 -7.5,-7.5 z"
         id="path89"
         inkscape:connector-curvature="0" /></g></g><g
     id="g99"
     transform="translate(0,-59.879)"><g
       id="g97"><path
         d="m 115.063,245.284 c -17.416,-8.708 -50.069,-8.808 -51.451,-8.808 -4.141,0 -7.498,3.356 -7.499,7.498 -10e-4,4.141 3.355,7.5 7.497,7.502 8.438,0.005 32.923,1.313 44.745,7.224 1.077,0.539 2.221,0.793 3.348,0.793 2.751,0 5.4,-1.52 6.714,-4.147 1.853,-3.705 0.351,-8.21 -3.354,-10.062 z"
         id="path95"
         inkscape:connector-curvature="0" /></g></g><g
     id="g105"
     transform="translate(0,-59.879)"><g
       id="g103"><path
         d="m 39.564,388.782 c -4.142,0 -7.5,3.358 -7.5,7.5 v 48.097 c 0,4.142 3.358,7.5 7.5,7.5 4.142,0 7.5,-3.358 7.5,-7.5 v -48.097 c 0,-4.141 -3.357,-7.5 -7.5,-7.5 z"
         id="path101"
         inkscape:connector-curvature="0" /></g></g><g
     id="g111"
     transform="translate(0,-59.879)"><g
       id="g109"><path
         d="m 494.56,360.772 -30.372,-15.184 c -0.176,-0.088 -0.286,-0.266 -0.286,-0.462 l 0.002,-15.265 c 12.468,-8.585 21.293,-22.157 23.501,-38.085 5.608,-9.691 8.563,-20.637 8.563,-31.767 0,-20.755 -9.994,-39.217 -25.419,-50.835 0.904,-3.011 1.371,-6.117 1.371,-9.286 0,-19.606 -17.749,-35.557 -39.564,-35.557 -21.815,0 -39.564,15.951 -39.564,35.557 0,3.173 0.462,6.28 1.366,9.289 -9.197,6.928 -16.449,16.296 -20.815,27.126 -1.859,-18.269 -3.795,-39.866 -5.652,-65.024 -2.45,-33.194 -14.388,-61.226 -34.522,-81.064 C 313.188,70.527 286.503,60.121 256,60.121 c -30.503,0 -57.188,10.406 -77.167,30.093 -20.134,19.839 -32.072,47.871 -34.522,81.064 -0.651,8.813 -1.311,17.166 -1.974,25.117 H 71.629 c -26.236,0 -47.581,21.345 -47.581,47.581 v 0.447 c 0,6.11 1.444,12.229 4.177,17.694 l 3.839,7.679 v 12.245 c 0,19.406 9.563,36.819 24.048,47.298 v 10.832 c 0,1.389 -0.933,2.625 -2.268,3.007 l -30.963,8.847 C 9.409,355.873 0,368.347 0,382.358 v 62.021 c 0,4.142 3.358,7.5 7.5,7.5 4.142,0 7.5,-3.358 7.5,-7.5 v -62.021 c 0,-7.35 4.936,-13.893 12.002,-15.912 l 30.964,-8.847 c 1.117,-0.319 2.178,-0.752 3.188,-1.266 l 19.007,19.007 v 69.039 c 0,4.142 3.358,7.5 7.5,7.5 4.142,0 7.5,-3.358 7.5,-7.5 V 375.34 l 19.14,-19.14 c 2.558,1.255 5.107,1.985 6.975,2.519 l 7.603,2.172 c -10.303,7.326 -16.653,19.275 -16.653,32.232 v 51.254 c 0,4.142 3.358,7.5 7.5,7.5 4.142,0 7.5,-3.358 7.5,-7.5 v -51.254 c 0,-9.722 5.747,-18.542 14.641,-22.47 l 42.88,-18.939 c 13.437,26.909 40.895,44.051 71.254,44.051 30.472,0 57.838,-17.104 71.267,-44.045 l 42.867,18.933 c 8.894,3.928 14.641,12.748 14.641,22.47 v 51.254 c 0,4.142 3.358,7.5 7.5,7.5 4.142,0 7.5,-3.358 7.5,-7.5 v -51.254 c 0,-9.594 -3.487,-18.632 -9.472,-25.658 l 11.607,-5.803 8.713,8.28 c 6.094,5.792 13.912,8.686 21.733,8.686 7.818,0 15.64,-2.896 21.732,-8.686 l 8.712,-8.279 25.052,12.525 c 5.643,2.821 9.148,8.493 9.148,14.802 v 55.388 c 0,4.142 3.358,7.5 7.5,7.5 4.142,0 7.5,-3.358 7.5,-7.5 V 388.99 C 512,376.964 505.317,366.151 494.56,360.772 Z M 432.355,179.33 c 13.544,0 24.564,9.222 24.564,20.557 0,0.475 -0.038,0.946 -0.076,1.416 -7.542,-3.158 -15.814,-4.908 -24.488,-4.908 -8.673,0 -16.944,1.75 -24.484,4.907 -0.039,-0.47 -0.08,-0.94 -0.08,-1.415 0,-11.335 11.02,-20.557 24.564,-20.557 z M 87.662,361.628 70.572,344.538 c 0.353,-1.408 0.542,-2.873 0.542,-4.368 v -3.164 c 4.718,1.549 9.694,2.468 14.843,2.622 0.577,0.018 1.151,0.026 1.726,0.026 5.688,0 11.241,-0.859 16.525,-2.498 v 3.011 c 0,1.627 0.167,3.103 0.464,4.451 z M 86.407,324.633 C 64.713,323.984 47.064,304.876 47.064,282.041 v -14.016 c 0,-1.164 -0.271,-2.313 -0.792,-3.354 l -4.631,-9.262 c -1.696,-3.394 -2.593,-7.192 -2.593,-10.986 v -0.447 c 0,-17.965 14.616,-32.581 32.581,-32.581 h 64.646 v 31.135 c 0,5.031 -1.189,10.07 -3.44,14.57 l -3.785,7.57 c -0.521,1.042 -0.792,2.19 -0.792,3.354 v 16.032 c 0,11.074 -4.378,21.422 -12.328,29.136 -7.946,7.71 -18.437,11.777 -29.523,11.441 z m 62.683,26.432 -23.693,-6.769 c -6.19,-1.768 -6.189,-2.458 -6.189,-4.127 l 0.002,-10.333 c 2.519,-1.745 4.921,-3.698 7.168,-5.879 1.512,-1.467 2.92,-3.011 4.24,-4.611 1.205,2.444 3.052,4.579 5.439,6.124 6.012,3.893 17.357,10.36 34.041,16.316 z M 256,380.766 c -24.402,0 -46.502,-13.64 -57.523,-35.115 l 10.917,-4.822 c 8.52,-3.763 14.025,-12.212 14.025,-21.526 v -17.996 c 10.077,4.049 21.073,6.282 32.581,6.282 11.508,0 22.503,-2.233 32.581,-6.282 v 17.996 c 0,9.314 5.505,17.764 14.025,21.526 l 10.915,4.821 C 302.508,367.149 280.493,380.766 256,380.766 Z m 65.034,-48.196 -12.368,-5.463 c -3.089,-1.364 -5.085,-4.428 -5.085,-7.805 v -25.785 c 24.102,-15.637 40.081,-42.782 40.081,-73.59 v -14.063 c 0,-9.14 -3.886,-17.762 -10.662,-23.654 -15.069,-13.106 -49.18,-35.977 -108.318,-41.891 -4.111,-0.412 -7.797,2.594 -8.209,6.717 -0.412,4.122 2.595,7.797 6.717,8.209 55.005,5.5 86.242,26.347 99.967,38.284 3.499,3.042 5.505,7.539 5.505,12.335 v 14.063 c 0,40.065 -32.596,72.661 -72.661,72.661 -40.065,0 -72.661,-32.596 -72.661,-72.661 v -6.274 c 0,-2.882 1.598,-5.522 4.274,-7.063 9.377,-5.399 21.743,-15.401 27.406,-32.388 1.31,-3.929 -0.814,-8.177 -4.744,-9.487 -3.928,-1.31 -8.177,0.814 -9.487,4.744 -4.172,12.516 -13.538,20.031 -20.66,24.132 -7.272,4.187 -11.79,11.875 -11.79,20.063 v 6.274 c 0,30.809 15.978,57.953 40.081,73.59 v 25.785 c 0,3.377 -1.996,6.44 -5.085,7.805 l -12.369,5.463 c -24.156,-6.463 -39.634,-15.08 -46.757,-19.691 -0.142,-0.092 -0.222,-0.197 -0.182,-0.434 2.616,-15.464 9.338,-60.069 15.244,-140.063 2.178,-29.515 12.583,-54.235 30.09,-71.485 17.115,-16.863 40.158,-25.777 66.639,-25.777 26.481,0 49.524,8.914 66.639,25.777 17.507,17.25 27.912,41.969 30.091,71.484 5.905,79.991 12.627,124.598 15.244,140.063 0.04,0.238 -0.04,0.343 -0.183,0.435 -7.133,4.617 -22.611,13.229 -46.757,19.69 z m 79.773,12.555 c 0,0.197 -0.109,0.374 -0.285,0.462 l -23.498,11.749 c -0.279,-0.131 -0.547,-0.278 -0.829,-0.403 l -34.291,-15.145 c 16.676,-5.954 28.019,-12.418 34.039,-16.316 5.172,-3.349 7.85,-9.443 6.821,-15.528 -0.056,-0.333 -0.117,-0.698 -0.177,-1.058 4.218,8.482 10.525,15.677 18.22,20.975 z m 42.946,13.945 c -6.391,6.076 -16.405,6.075 -22.798,0 l -6.971,-6.624 c 1.176,-2.204 1.822,-4.704 1.822,-7.321 v -7.981 c 5.238,1.625 10.794,2.509 16.548,2.509 5.753,0 11.31,-0.884 16.547,-2.509 l -0.001,7.979 c 0,2.619 0.646,5.119 1.823,7.324 z m -11.398,-34.418 c -20.766,0 -38.11,-15.55 -40.343,-36.171 -0.12,-1.105 -0.483,-2.169 -1.065,-3.117 -4.714,-7.677 -7.205,-16.445 -7.205,-25.357 0,-26.804 21.807,-48.612 48.613,-48.612 26.805,0 48.613,21.808 48.613,48.613 0,5.167 -0.843,10.285 -2.466,15.171 -21.296,-21.635 -58.759,-30.114 -60.565,-30.512 -2.218,-0.489 -4.54,0.055 -6.312,1.478 -1.771,1.424 -2.802,3.574 -2.802,5.846 0,0.049 -0.342,5.252 -5.819,10.729 -2.929,2.929 -2.929,7.678 0,10.606 2.929,2.929 7.678,2.929 10.606,0 4.218,-4.218 6.696,-8.499 8.15,-12.114 12.62,3.749 38.813,13.217 50.568,29.836 -3.336,19.329 -20.08,33.604 -39.973,33.604 z"
         id="path107"
         inkscape:connector-curvature="0" /></g></g><g
     id="g117"
     transform="translate(0,-59.879)"><g
       id="g115"><path
         d="m 472.436,398.692 c -4.142,0 -7.5,3.358 -7.5,7.5 v 38.187 c 0,4.142 3.358,7.5 7.5,7.5 4.142,0 7.5,-3.358 7.5,-7.5 v -38.187 c 0,-4.142 -3.358,-7.5 -7.5,-7.5 z"
         id="path113"
         inkscape:connector-curvature="0" /></g></g><g
     id="g119"
     transform="translate(0,-120.00097)" /><g
     id="g121"
     transform="translate(0,-120.00097)" /><g
     id="g123"
     transform="translate(0,-120.00097)" /><g
     id="g125"
     transform="translate(0,-120.00097)" /><g
     id="g127"
     transform="translate(0,-120.00097)" /><g
     id="g129"
     transform="translate(0,-120.00097)" /><g
     id="g131"
     transform="translate(0,-120.00097)" /><g
     id="g133"
     transform="translate(0,-120.00097)" /><g
     id="g135"
     transform="translate(0,-120.00097)" /><g
     id="g137"
     transform="translate(0,-120.00097)" /><g
     id="g139"
     transform="translate(0,-120.00097)" /><g
     id="g141"
     transform="translate(0,-120.00097)" /><g
     id="g143"
     transform="translate(0,-120.00097)" /><g
     id="g145"
     transform="translate(0,-120.00097)" /><g
     id="g147"
     transform="translate(0,-120.00097)" /></svg>