<?xml version="1.0" encoding="UTF-8" standalone="no"?>
<!-- Generator: Adobe Illustrator 19.0.0, SVG Export Plug-In . SVG Version: 6.00 Build 0)  -->

<svg
   xmlns:dc="http://purl.org/dc/elements/1.1/"
   xmlns:cc="http://creativecommons.org/ns#"
   xmlns:rdf="http://www.w3.org/1999/02/22-rdf-syntax-ns#"
   xmlns:svg="http://www.w3.org/2000/svg"
   xmlns="http://www.w3.org/2000/svg"
   xmlns:sodipodi="http://sodipodi.sourceforge.net/DTD/sodipodi-0.dtd"
   xmlns:inkscape="http://www.inkscape.org/namespaces/inkscape"
   version="1.1"
   id="Layer_1"
   x="0px"
   y="0px"
   viewBox="0 0 512.001 392.00002"
   xml:space="preserve"
   sodipodi:docname="icon-professional-community.svg"
   width="512.00098"
   height="392"
   inkscape:version="0.92.2 (5c3e80d, 2017-08-06)"><metadata
     id="metadata154"><rdf:RDF><cc:Work
         rdf:about=""><dc:format>image/svg+xml</dc:format><dc:type
           rdf:resource="http://purl.org/dc/dcmitype/StillImage" /><dc:title></dc:title></cc:Work></rdf:RDF></metadata><defs
     id="defs152" /><sodipodi:namedview
     pagecolor="#ffffff"
     bordercolor="#666666"
     borderopacity="1"
     objecttolerance="10"
     gridtolerance="10"
     guidetolerance="10"
     inkscape:pageopacity="0"
     inkscape:pageshadow="2"
     inkscape:window-width="1366"
     inkscape:window-height="706"
     id="namedview150"
     showgrid="false"
     inkscape:zoom="1.0527324"
     inkscape:cx="256.00049"
     inkscape:cy="256.00049"
     inkscape:window-x="-8"
     inkscape:window-y="-8"
     inkscape:window-maximized="1"
     inkscape:current-layer="Layer_1" /><g
     id="g87"
     transform="translate(0,-59.879)"><g
       id="g85"><path
         d="m 175.839,404.814 c -4.142,0 -7.5,3.358 -7.5,7.5 v 32.064 c 0,4.142 3.358,7.5 7.5,7.5 4.142,0 7.5,-3.358 7.5,-7.5 v -32.064 c 0,-4.142 -3.358,-7.5 -7.5,-7.5 z"
         id="path83"
         inkscape:connector-curvature="0" /></g></g><g
     id="g93"
     transform="translate(0,-59.879)"><g
       id="g91"><path
         d="m 336.161,404.814 c -4.142,0 -7.5,3.358 -7.5,7.5 v 32.064 c 0,4.142 3.358,7.5 7.5,7.5 4.142,0 7.5,-3.358 7.5,-7.5 v -32.064 c 0,-4.142 -3.358,-7.5 -7.5,-7.5 z"
         id="path89"
         inkscape:connector-curvature="0" /></g></g><g
     id="g99"
     transform="translate(0,-59.879)"><g
       id="g97"><path
         d="m 115.063,245.284 c -17.416,-8.708 -50.069,-8.808 -51.451,-8.808 -4.141,0 -7.498,3.356 -7.499,7.498 -10e-4,4.141 3.355,7.5 7.497,7.502 8.438,0.005 32.923,1.313 44.745,7.224 1.077,0.539 2.221,0.793 3.348,0.793 2.751,0 5.4,-1.52 6.714,-4.147 1.853,-3.705 0.351,-8.21 -3.354,-10.062 z"
         id="path95"
         inkscape:connector-curvature="0" /></g></g><g
     id="g105"
     transform="translate(0,-59.879)"><g
       id="g103"><path
         d="m 39.564,388.782 c -4.142,0 -7.5,3.358 -7.5,7.5 v 48.097 c 0,4.142 3.358,7.5 7.5,7.5 4.142,0 7.5,-3.358 7.5,-7.5 v -48.097 c 0,-4.141 -3.357,-7.5 -7.5,-7.5 z"
         id="path101"
         inkscape:connector-curvature="0" /></g></g><g
     id="g111"
     transform="translate(0,-59.879)"><g
       id="g109"><path
         d="m 494.56,360.772 -30.372,-15.184 c -0.176,-0.088 -0.286,-0.266 -0.286,-0.462 l 0.002,-15.265 c 12.468,-8.585 21.293,-22.157 23.501,-38.085 5.608,-9.691 8.563,-20.637 8.563,-31.767 0,-20.755 -9.994,-39.217 -25.419,-50.835 0.904,-3.011 1.371,-6.117 1.371,-9.286 0,-19.606 -17.749,-35.557 -39.564,-35.557 -21.815,0 -39.564,15.951 -39.564,35.557 0,3.173 0.462,6.28 1.366,9.289 -9.197,6.928 -16.449,16.296 -20.815,27.126 -1.859,-18.269 -3.795,-39.866 -5.652,-65.024 -2.45,-33.194 -14.388,-61.226 -34.522,-81.064 C 313.188,70.527 286.503,60.121 256,60.121 c -30.503,0 -57.188,10.406 -77.167,30.093 -20.134,19.839 -32.072,47.871 -34.522,81.064 -0.651,8.813 -1.311,17.166 -1.974,25.117 H 71.629 c -26.236,0 -47.581,21.345 -47.581,47.581 v 0.447 c 0,6.11 1.444,12.229 4.177,17.694 l 3.839,7.679 v 12.245 c 0,19.406 9.563,36.819 24.048,47.298 v 10.832 c 0,1.389 -0.933,2.625 -2.268,3.007 l -30.963,8.847 C 9.409,355.873 0,368.347 0,382.358 v 62.021 c 0,4.142 3.358,7.5 7.5,7.5 4.142,0 7.5,-3.358 7.5,-7.5 v -62.021 c 0,-7.35 4.936,-13.893 12.002,-15.912 l 30.964,-8.847 c 1.117,-0.319 2.178,-0.752 3.188,-1.266 l 19.007,19.007 v 69.039 c 0,4.142 3.358,7.5 7.5,7.5 4.142,0 7.5,-3.358 7.5,-7.5 V 375.34 l 19.14,-19.14 c 2.558,1.255 5.107,1.985 6.975,2.519 l 7.603,2.172 c -10.303,7.326 -16.653,19.275 -16.653,32.232 v 51.254 c 0,4.142 3.358,7.5 7.5,7.5 4.142,0 7.5,-3.358 7.5,-7.5 v -51.254 c 0,-9.722 5.747,-18.542 14.641,-22.47 l 42.88,-18.939 c 13.437,26.909 40.895,44.051 71.254,44.051 30.472,0 57.838,-17.104 71.267,-44.045 l 42.867,18.933 c 8.894,3.928 14.641,12.748 14.641,22.47 v 51.254 c 0,4.142 3.358,7.5 7.5,7.5 4.142,0 7.5,-3.358 7.5,-7.5 v -51.254 c 0,-9.594 -3.487,-18.632 -9.472,-25.658 l 11.607,-5.803 8.713,8.28 c 6.094,5.792 13.912,8.686 21.733,8.686 7.818,0 15.64,-2.896 21.732,-8.686 l 8.712,-8.279 25.052,12.525 c 5.643,2.821 9.148,8.493 9.148,14.802 v 55.388 c 0,4.142 3.358,7.5 7.5,7.5 4.142,0 7.5,-3.358 7.5,-7.5 V 388.99 C 512,376.964 505.317,366.151 494.56,360.772 Z M 432.355,179.33 c 13.544,0 24.564,9.222 24.564,20.557 0,0.475 -0.038,0.946 -0.076,1.416 -7.542,-3.158 -15.814,-4.908 -24.488,-4.908 -8.673,0 -16.944,1.75 -24.484,4.907 -0.039,-0.47 -0.08,-0.94 -0.08,-1.415 0,-11.335 11.02,-20.557 24.564,-20.557 z M 87.662,361.628 70.572,344.538 c 0.353,-1.408 0.542,-2.873 0.542,-4.368 v -3.164 c 4.718,1.549 9.694,2.468 14.843,2.622 0.577,0.018 1.151,0.026 1.726,0.026 5.688,0 11.241,-0.859 16.525,-2.498 v 3.011 c 0,1.627 0.167,3.103 0.464,4.451 z M 86.407,324.633 C 64.713,323.984 47.064,304.876 47.064,282.041 v -14.016 c 0,-1.164 -0.271,-2.313 -0.792,-3.354 l -4.631,-9.262 c -1.696,-3.394 -2.593,-7.192 -2.593,-10.986 v -0.447 c 0,-17.965 14.616,-32.581 32.581,-32.581 h 64.646 v 31.135 c 0,5.031 -1.189,10.07 -3.44,14.57 l -3.785,7.57 c -0.521,1.042 -0.792,2.19 -0.792,3.354 v 16.032 c 0,11.074 -4.378,21.422 -12.328,29.136 -7.946,7.71 -18.437,11.777 -29.523,11.441 z m 62.683,26.432 -23.693,-6.769 c -6.19,-1.768 -6.189,-2.458 -6.189,-4.127 l 0.002,-10.333 c 2.519,-1.745 4.921,-3.698 7.168,-5.879 1.512,-1.467 2.92,-3.011 4.24,-4.611 1.205,2.444 3.052,4.579 5.439,6.124 6.012,3.893 17.357,10.36 34.041,16.316 z M 256,380.766 c -24.402,0 -46.502,-13.64 -57.523,-35.115 l 10.917,-4.822 c 8.52,-3.763 14.025,-12.212 14.025,-21.526 v -17.996 c 10.077,4.049 21.073,6.282 32.581,6.282 11.508,0 22.503,-2.233 32.581,-6.282 v 17.996 c 0,9.314 5.505,17.764 14.025,21.526 l 10.915,4.821 C 302.508,367.149 280.493,380.766 256,380.766 Z m 65.034,-48.196 -12.368,-5.463 c -3.089,-1.364 -5.085,-4.428 -5.085,-7.805 v -25.785 c 24.102,-15.637 40.081,-42.782 40.081,-73.59 v -14.063 c 0,-9.14 -3.886,-17.762 -10.662,-23.654 -15.069,-13.106 -49.18,-35.977 -108.318,-41.891 -4.111,-0.412 -7.797,2.594 -8.209,6.717 -0.412,4.122 2.595,7.797 6.717,8.209 55.005,5.5 86.242,26.347 99.967,38.284 3.499,3.042 5.505,7.539 5.505,12.335 v 14.063 c 0,40.065 -32.596,72.661 -72.661,72.661 -40.065,0 -72.661,-32.596 -72.661,-72.661 v -6.274 c 0,-2.882 1.598,-5.522 4.274,-7.063 9.377,-5.399 21.743,-15.401 27.406,-32.388 1.31,-3.929 -0.814,-8.177 -4.744,-9.487 -3.928,-1.31 -8.177,0.814 -9.487,4.744 -4.172,12.516 -13.538,20.031 -20.66,24.132 -7.272,4.187 -11.79,11.875 -11.79,20.063 v 6.274 c 0,30.809 15.978,57.953 40.081,73.59 v 25.785 c 0,3.377 -1.996,6.44 -5.085,7.805 l -12.369,5.463 c -24.156,-6.463 -39.634,-15.08 -46.757,-19.691 -0.142,-0.092 -0.222,-0.197 -0.182,-0.434 2.616,-15.464 9.338,-60.069 15.244,-140.063 2.178,-29.515 12.583,-54.235 30.09,-71.485 17.115,-16.863 40.158,-25.777 66.639,-25.777 26.481,0 49.524,8.914 66.639,25.777 17.507,17.25 27.912,41.969 30.091,71.484 5.905,79.991 12.627,124.598 15.244,140.063 0.04,0.238 -0.04,0.343 -0.183,0.435 -7.133,4.617 -22.611,13.229 -46.757,19.69 z m 79.773,12.555 c 0,0.197 -0.109,0.374 -0.285,0.462 l -23.498,11.749 c -0.279,-0.131 -0.547,-0.278 -0.829,-0.403 l -34.291,-15.145 c 16.676,-5.954 28.019,-12.418 34.039,-16.316 5.172,-3.349 7.85,-9.443 6.821,-15.528 -0.056,-0.333 -0.117,-0.698 -0.177,-1.058 4.218,8.482 10.525,15.677 18.22,20.975 z m 42.946,13.945 c -6.391,6.076 -16.405,6.075 -22.798,0 l -6.971,-6.624 c 1.176,-2.204 1.822,-4.704 1.822,-7.321 v -7.981 c 5.238,1.625 10.794,2.509 16.548,2.509 5.753,0 11.31,-0.884 16.547,-2.509 l -0.001,7.979 c 0,2.619 0.646,5.119 1.823,7.324 z m -11.398,-34.418 c -20.766,0 -38.11,-15.55 -40.343,-36.171 -0.12,-1.105 -0.483,-2.169 -1.065,-3.117 -4.714,-7.677 -7.205,-16.445 -7.205,-25.357 0,-26.804 21.807,-48.612 48.613,-48.612 26.805,0 48.613,21.808 48.613,48.613 0,5.167 -0.843,10.285 -2.466,15.171 -21.296,-21.635 -58.759,-30.114 -60.565,-30.512 -2.218,-0.489 -4.54,0.055 -6.312,1.478 -1.771,1.424 -2.802,3.574 -2.802,5.846 0,0.049 -0.342,5.252 -5.819,10.729 -2.929,2.929 -2.929,7.678 0,10.606 2.929,2.929 7.678,2.929 10.606,0 4.218,-4.218 6.696,-8.499 8.15,-12.114 12.62,3.749 38.813,13.217 50.568,29.836 -3.336,19.329 -20.08,33.604 -39.973,33.604 z"
         id="path107"
         inkscape:connector-curvature="0" /></g></g><g
     id="g117"
     transform="translate(0,-59.879)"><g
       id="g115"><path
         d="m 472.436,398.692 c -4.142,0 -7.5,3.358 -7.5,7.5 v 38.187 c 0,4.142 3.358,7.5 7.5,7.5 4.142,0 7.5,-3.358 7.5,-7.5 v -38.187 c 0,-4.142 -3.358,-7.5 -7.5,-7.5 z"
         id="path113"
         inkscape:connector-curvature="0" /></g></g><g
     id="g119"
     transform="translate(0,-120.00097)" /><g
     id="g121"
     transform="translate(0,-120.00097)" /><g
     id="g123"
     transform="translate(0,-120.00097)" /><g
     id="g125"
     transform="translate(0,-120.00097)" /><g
     id="g127"
     transform="translate(0,-120.00097)" /><g
     id="g129"
     transform="translate(0,-120.00097)" /><g
     id="g131"
     transform="translate(0,-120.00097)" /><g
     id="g133"
     transform="translate(0,-120.00097)" /><g
     id="g135"
     transform="translate(0,-120.00097)" /><g
     id="g137"
     transform="translate(0,-120.00097)" /><g
     id="g139"
     transform="translate(0,-120.00097)" /><g
     id="g141"
     transform="translate(0,-120.00097)" /><g
     id="g143"
     transform="translate(0,-120.00097)" /><g
     id="g145"
     transform="translate(0,-120.00097)" /><g
     id="g147"
     transform="translate(0,-120.00097)" /></svg>