<svg width="200" height="200" xmlns="http://www.w3.org/2000/svg" viewBox="0 0 24 24"><path d="M5.5 21.5C2.467 21.5 0 19.033 0 16s2.467-5.5 5.5-5.5S11 12.967 11 16s-2.467 5.5-5.5 5.5zm0-10C3.019 11.5 1 13.519 1 16s2.019 4.5 4.5 4.5S10 18.481 10 16s-2.019-4.5-4.5-4.5z"/><path d="M.5 16.5A.5.5 0 0 1 0 16v-3C0 7.21 4.71 2.5 10.5 2.5a.5.5 0 0 1 0 1C5.262 3.5 1 7.762 1 13v3a.5.5 0 0 1-.5.5zM18.5 21.5c-3.033 0-5.5-2.467-5.5-5.5s2.467-5.5 5.5-5.5S24 12.967 24 16s-2.467 5.5-5.5 5.5zm0-10c-2.481 0-4.5 2.019-4.5 4.5s2.019 4.5 4.5 4.5S23 18.481 23 16s-2.019-4.5-4.5-4.5z"/><path d="M13.5 16.5a.5.5 0 0 1-.5-.5v-3c0-5.79 4.71-10.5 10.5-10.5a.5.5 0 0 1 0 1C18.262 3.5 14 7.762 14 13v3a.5.5 0 0 1-.5.5z"/></svg>