<svg id="Слой_1" xmlns="http://www.w3.org/2000/svg" viewBox="0 0 158 39.4"><style>.st0{fill:#003644}.st1{fill:#bbbdbf}.st2{fill:#00acbc}.st3{enable-background:new}</style><path class="st0" d="M1.6 27.8h3.5l6.1-10.7-6.1 10.7 6.1-10.7-3.1-.6.1-.1z"/><path class="st1" d="M16.3 12.8H6.1l2.4 4.3h7.8v3.2h-5.9l2.5 4.3h3.4v3.2h-4.8L1.1 9.6h15.2z"/><path class="st2" d="M19.6 27.8H23L33.7 9.6l-5.1 3.2-6.9 11.8h-2.2V12.8l-3.2-3.2v28.1l3.2-5.4z"/><path class="st0" d="M8.5 17.1h2.7l6.2-10.6 6 10.6h-3.9v3.2h5.9l4.3 7.5h3.6L17.4.4l-4.7 8.1-.4.7-.2.4-.7 1.2-3.2 5.6-.1.1z"/><path class="st2" d="M33.7 9.6l-5.1 3.2h-9.1l-3.2-3.2z"/><path class="st0" d="M34 20.6h118.9v7.2l-113.8.1z"/><path class="st2" d="M154.4 4.6h2.9v5.3h-2.9z"/><g class="st3"><path class="st0" d="M35.8 15h-1.1v.7H36v.6h-2v-3h1.9v.6h-1.2v.6h1.1v.5z"/></g><g class="st3"><path class="st0" d="M36.3 13.3c.2 0 .5-.1.9-.1s.7 0 .9.2c.2.1.4.3.4.6s-.2.5-.5.6c.3.1.6.4.6.7 0 .3-.1.5-.3.6-.2.2-.6.3-1.2.3h-.7v-2.9zm.7 1.1h.2c.4 0 .6-.1.6-.4 0-.2-.2-.4-.5-.4H37v.8zm0 1.4h.3c.3 0 .6-.1.6-.4 0-.3-.3-.4-.6-.4H37v.8z"/></g><g class="st3"><path class="st0" d="M39 13.3c.2 0 .5-.1.9-.1s.7.1.9.2c.2.2.3.4.3.7s-.1.6-.3.7c-.2.2-.6.3-1 .3h-.2v1.1H39v-2.9zm.7 1.3h.2c.4 0 .6-.2.6-.5s-.2-.4-.5-.4h-.3v.9z"/></g><g class="st3"><path class="st0" d="M43.3 15h-1.1v.7h1.2v.6h-1.9v-3h1.9v.6h-1.2v.6h1.1v.5zM44.6 13.2v2.3c.2-.4.4-.8.5-1.1l.7-1.2h.7v3h-.6v-.9V14c-.1.4-.3.8-.5 1.1l-.6 1.1H44v-3h.6zm.4-.7c0 .2.1.3.2.3s.2-.1.2-.3h.5c0 .4-.3.6-.7.6-.4 0-.6-.2-.7-.6h.5zM49.2 16.2c-.1.1-.4.1-.8.1-1 0-1.6-.7-1.6-1.5 0-1 .7-1.6 1.7-1.6.4 0 .6.1.7.1l-.1.5c-.1-.1-.3-.1-.6-.1-.5 0-1 .3-1 1 0 .6.4 1 1 1 .2 0 .4 0 .6-.1l.1.6z"/></g><g class="st3"><path class="st0" d="M50.2 13.2v1.3h.1l.8-1.3h.8l-1.1 1.4c.4.1.6.4.7.7.1.3.2.7.4 1h-.7c-.1-.2-.2-.4-.2-.7-.1-.3-.2-.6-.6-.6h-.1v1.3h-.7v-3h.6z"/></g><g class="st3"><path class="st0" d="M54.9 14.7c0 1-.6 1.6-1.5 1.6s-1.4-.7-1.4-1.5c0-.9.6-1.6 1.5-1.6s1.4.7 1.4 1.5zm-2.2 0c0 .6.3 1 .7 1 .5 0 .7-.4.7-1 0-.5-.3-1-.7-1-.4 0-.7.5-.7 1z"/></g><g class="st3"><path class="st0" d="M57.1 13.2v.6H56v2.5h-.7v-3h1.8z"/></g><g class="st3"><path class="st0" d="M60 14.7c0 1-.6 1.6-1.5 1.6s-1.4-.7-1.4-1.5c0-.9.6-1.6 1.5-1.6s1.4.7 1.4 1.5zm-2.2 0c0 .6.3 1 .7 1 .5 0 .7-.4.7-1 0-.5-.3-1-.7-1-.4 0-.7.5-.7 1zM62.1 15.5l-.2.8h-.7l.9-3h.9l.9 3h-.7l-.2-.8h-.9zm.7-.5l-.2-.6c-.1-.2-.1-.4-.2-.6 0 .2-.1.4-.1.6l-.1.6h.6zM66.1 13.2v.6H65v2.5h-.7v-3h1.8zM68.3 15h-1.1v.7h1.2v.6h-1.9v-3h1.9v.6h-1.2v.6h1.1v.5zM69.6 13.2v1.2h1.1v-1.2h.7v3h-.7V15h-1.1v1.3h-.7v-3h.7z"/></g><g class="st3"><path class="st0" d="M72.1 13.8h-.8v-.6h2.3v.6h-.8v2.5h-.7v-2.5z"/></g><g class="st3"><path class="st0" d="M76 16.2c-.1.1-.4.1-.8.1-1 0-1.6-.7-1.6-1.5 0-1 .7-1.6 1.7-1.6.4 0 .6.1.7.1l-.1.5c-.1-.1-.3-.1-.6-.1-.5 0-1 .3-1 1 0 .6.4 1 1 1 .2 0 .4 0 .6-.1l.1.6z"/></g><g class="st3"><path class="st0" d="M77.1 13.8h-.8v-.6h2.3v.6h-.8v2.5h-.7v-2.5z"/></g><g class="st3"><path class="st0" d="M78.9 13.3c.2 0 .5-.1.9-.1s.7 0 .9.2c.2.1.4.3.4.6s-.2.5-.5.6c.3.1.6.4.6.7 0 .3-.1.5-.3.6-.2.2-.6.3-1.2.3H79v-2.9zm.7 1.1h.2c.4 0 .6-.1.6-.4 0-.2-.2-.4-.5-.4h-.3v.8zm0 1.4h.3c.3 0 .6-.1.6-.4 0-.3-.3-.4-.6-.4h-.2v.8z"/></g><g class="st3"><path class="st0" d="M82.2 15.5l-.2.8h-.7l.9-3h.9l.9 3h-.7l-.2-.8h-.9zm.8-.5l-.2-.6c-.1-.2-.1-.4-.2-.6 0 .2-.1.4-.1.6l-.2.6h.7z"/></g><g class="st3"><path class="st0" d="M87.7 13.2v3H87v-2.5h-1.1v2.5h-.7v-3h2.5zM91 14.7c0 1-.6 1.6-1.5 1.6s-1.4-.7-1.4-1.5c0-.9.6-1.6 1.5-1.6s1.4.7 1.4 1.5zm-2.2 0c0 .6.3 1 .7 1 .5 0 .7-.4.7-1 0-.5-.3-1-.7-1-.4 0-.7.5-.7 1z"/></g><g class="st3"><path class="st0" d="M92.2 13.3c.2 0 .5-.1.9-.1s.7.1.9.2c.2.2.3.4.3.7s-.1.6-.3.7c-.2.2-.6.3-1 .3h-.2v1.1h-.7v-2.9zm.7 1.3h.2c.4 0 .6-.2.6-.5s-.2-.4-.5-.4h-.3v.9z"/></g><g class="st3"><path class="st0" d="M95.1 15.5l-.2.8h-.7l.9-3h.9l.9 3h-.7l-.2-.8h-.9zm.8-.5l-.2-.6c-.1-.2-.1-.4-.2-.6 0 .2-.1.4-.1.6l-.2.6h.7z"/></g><g class="st3"><path class="st0" d="M97.2 13.4c.2-.1.5-.2.9-.2.7 0 1.1.3 1.1.8 0 .4-.3.6-.6.7.4.1.7.3.7.7 0 .7-.7.9-1.2.9-.3 0-.7-.1-.9-.2l.1-.5c.1.1.5.2.7.2.3 0 .6-.1.6-.4 0-.3-.4-.4-.6-.4h-.3v-.5h.3c.3 0 .5-.1.5-.4 0-.2-.2-.3-.5-.3-.2 0-.5.1-.7.2l-.1-.6zM99.8 13.3c.2 0 .5-.1.9-.1s.7 0 .9.2c.2.1.4.3.4.6s-.2.5-.5.6c.3.1.6.4.6.7 0 .3-.1.5-.3.6-.2.2-.6.3-1.2.3h-.7v-2.9zm.6 1.1h.2c.4 0 .6-.1.6-.4 0-.2-.2-.4-.5-.4h-.3v.8zm0 1.4h.3c.3 0 .6-.1.6-.4 0-.3-.3-.4-.6-.4h-.2v.8zM103.1 13.2v2.3c.2-.4.4-.8.5-1.1l.7-1.2h.7v3h-.6v-.9V14c-.1.4-.3.8-.5 1.1l-.6 1.1h-.8v-3h.6zM106.2 13.8h-.8v-.6h2.3v.6h-.8v2.5h-.7v-2.5zM108.7 13.2v2.3c.2-.4.4-.8.5-1.1l.7-1.2h.7v3h-.6v-.9V14c-.1.4-.3.8-.5 1.1l-.6 1.1h-.9v-3h.7zM111.8 13.2v1.2h.4c.1-.7.6-1.2 1.3-1.2.9 0 1.3.7 1.3 1.5 0 1-.6 1.6-1.4 1.6-.8 0-1.2-.6-1.3-1.3h-.3v1.3h-.7v-3h.7zm2.4 1.5c0-.5-.2-1-.6-1s-.7.5-.7 1c0 .6.2 1 .7 1 .3.1.6-.4.6-1z"/></g><g class="st3"><path class="st0" d="M117.9 16.2c-.1.1-.4.1-.8.1-1 0-1.6-.7-1.6-1.5 0-1 .7-1.6 1.7-1.6.4 0 .6.1.7.1l-.1.5c-.1-.1-.3-.1-.6-.1-.5 0-1 .3-1 1 0 .6.4 1 1 1 .2 0 .4 0 .6-.1l.1.6zM118.4 13.3c.2 0 .5-.1.9-.1s.7 0 .9.2c.2.1.4.3.4.6s-.2.5-.5.6c.3.1.6.4.6.7 0 .3-.1.5-.3.6-.2.2-.6.3-1.2.3h-.7v-2.9zm.7 1.1h.2c.4 0 .6-.1.6-.4 0-.2-.2-.4-.5-.4h-.3v.8zm0 1.4h.3c.3 0 .6-.1.6-.4 0-.3-.3-.4-.6-.4h-.2v.8z"/></g><g class="st3"><path class="st0" d="M120.8 16.3c.1-.1.1-.2.2-.3.1-.3.2-.7.4-.9.1-.1.2-.1.3-.2-.3-.1-.6-.3-.6-.7 0-.3.1-.5.3-.6.2-.2.6-.2 1-.2.3 0 .6 0 .9.1v3h-.7v-1.2h-.2c-.1 0-.2 0-.3.1-.2.2-.3.6-.4.8 0 .1-.1.2-.1.3h-.8zm1.6-2.6h-.3c-.3 0-.5.1-.5.4 0 .3.3.4.6.4h.2v-.8z"/></g><g class="st3"><path class="st0" d="M123.3 13.4c.2-.1.5-.2.9-.2.7 0 1.1.3 1.1.8 0 .4-.3.6-.6.7.4.1.7.3.7.7 0 .7-.7.9-1.2.9-.3 0-.7-.1-.9-.2l.1-.5c.1.1.5.2.7.2.3 0 .6-.1.6-.4 0-.3-.4-.4-.6-.4h-.3v-.5h.3c.3 0 .5-.1.5-.4 0-.2-.2-.3-.5-.3-.2 0-.5.1-.7.2l-.1-.6z"/></g><g class="st3"><path class="st0" d="M127.6 15h-1.1v.7h1.2v.6h-1.9v-3h1.9v.6h-1.2v.6h1.1v.5z"/></g><g class="st3"><path class="st0" d="M128.7 13.2v2.3c.2-.4.4-.8.5-1.1l.7-1.2h.7v3h-.6v-.9V14c-.1.4-.3.8-.5 1.1l-.6 1.1h-.8v-3h.6zm.4-.7c0 .2.1.3.2.3s.2-.1.2-.3h.5c0 .4-.3.6-.7.6-.4 0-.6-.2-.7-.6h.5zM134.3 16.2c-.1.1-.4.1-.8.1-1 0-1.6-.7-1.6-1.5 0-1 .7-1.6 1.7-1.6.4 0 .6.1.7.1l-.1.5c-.1-.1-.3-.1-.6-.1-.5 0-1 .3-1 1 0 .6.4 1 1 1 .2 0 .4 0 .6-.1l.1.6z"/></g><g class="st3"><path class="st0" d="M136 13.2v2.3c.2-.4.4-.8.5-1.1l.7-1.2h.7v3h-.6v-.9V14c-.1.4-.3.8-.5 1.1l-.6 1.1h-.8v-3h.6zM138.4 13.4c.2-.1.5-.2.9-.2.7 0 1.1.3 1.1.8 0 .4-.3.6-.6.7.4.1.7.3.7.7 0 .7-.7.9-1.2.9-.3 0-.7-.1-.9-.2l.1-.5c.1.1.5.2.7.2.3 0 .6-.1.6-.4 0-.3-.4-.4-.6-.4h-.3v-.5h.3c.3 0 .5-.1.5-.4 0-.2-.2-.3-.5-.3-.2 0-.5.1-.7.2l-.1-.6z"/></g><g class="st3"><path class="st0" d="M140.8 13.3c.2 0 .5-.1.9-.1s.7.1.9.2c.2.2.3.4.3.7s-.1.6-.3.7c-.2.2-.6.3-1 .3h-.2v1.1h-.7v-2.9zm.6 1.3h.2c.4 0 .6-.2.6-.5s-.2-.4-.5-.4h-.3v.9z"/></g><g class="st3"><path class="st0" d="M143.8 15.5l-.2.8h-.7l.9-3h.9l.9 3h-.7l-.2-.8h-.9zm.7-.5l-.2-.6c-.1-.2-.1-.4-.2-.6 0 .2-.1.4-.1.6l-.2.6h.7zM146.6 13.2v2.3c.2-.4.4-.8.5-1.1l.7-1.2h.7v3h-.6v-.9V14c-.1.4-.3.8-.5 1.1l-.6 1.1h-.8v-3h.6zM151.4 13.2v3h-.7v-2.5h-.7v.7c0 .8-.1 1.4-.6 1.7-.2.1-.4.1-.6.1l-.1-.6c.1 0 .3-.1.3-.2.2-.2.2-.6.2-1v-1.3h2.2zM153.8 15h-1.1v.7h1.2v.6H152v-3h1.9v.6h-1.2v.6h1.1v.5zM157 15.1v-1.2l-.3 1.2-.4 1.2h-.5l-.3-1.2-.3-1.2v1.3l-.1 1.2h-.6l.2-3h.9l.3 1c.1.4.2.7.3 1.1.1-.4.2-.8.3-1.1l.3-1h.9l.2 3h-.9v-1.3z"/></g><g class="st3"><path class="st0" d="M27.8 7.1l-.4 1.3h-.3l1.3-3.7h.2l1.3 3.7h-.3l-.5-1.3h-1.3zm1.3-.3l-.4-1.2c-.1-.3-.1-.4-.2-.7-.1.2-.1.4-.2.6l-.4 1.3h1.2zM30.8 4.6v1.6h2V4.6h.2v3.7h-.3V6.5h-2v1.9h-.3V4.6h.4zM35.2 8.4c-.9 0-1.6-.7-1.6-1.9s.7-2 1.6-2c.9 0 1.6.7 1.6 1.9.1 1.4-.7 2-1.6 2zm.1-.2c.9 0 1.3-.8 1.3-1.7 0-.8-.4-1.7-1.3-1.7s-1.4.9-1.4 1.7c0 .9.5 1.7 1.4 1.7z"/></g><g class="st3"><path class="st0" d="M40.4 4.6v.2h-1.6V6h.5c.3 0 .6.1.9.2.3.2.5.5.5.9 0 .3-.1.6-.3.8-.3.3-.7.4-1.2.4h-.6V4.6h1.8zm-1.5 3.5h.4c.3 0 .7-.1.9-.3.1-.2.2-.4.2-.6 0-.3-.1-.6-.4-.7-.2-.1-.5-.2-.8-.2h-.4v1.8z"/></g><g class="st3"><path class="st0" d="M43 6.5h-1.5v1.6h1.6v.2h-1.9V4.6H43v.2h-1.5v1.4H43v.3zM45.2 8.4c-.9 0-1.6-.7-1.6-1.9s.7-2 1.6-2c.9 0 1.6.7 1.6 1.9 0 1.4-.8 2-1.6 2zm0-.2c.9 0 1.3-.8 1.3-1.7 0-.8-.4-1.7-1.3-1.7s-1.4.9-1.4 1.7c.1.9.6 1.7 1.4 1.7z"/></g><g class="st3"><path class="st0" d="M48.6 7l.8 1h-.3l-.8-1 .8-1h.3l-.8 1zm.8 0l.8 1h-.3l-.8-1 .8-1h.3l-.8 1z"/></g><g class="st3"><path class="st0" d="M53.2 8.2c-.2.1-.5.2-1 .2-.9 0-1.7-.6-1.7-1.9 0-1.1.7-1.9 1.8-1.9.5 0 .7.1.8.2V5c-.2-.1-.4-.2-.8-.2-1 0-1.6.6-1.6 1.7 0 1 .6 1.7 1.5 1.7.3 0 .6-.1.8-.2l.2.2z"/></g><g class="st3"><path class="st0" d="M53.8 7c0 .8.5 1.2 1 1.2.4 0 .6-.1.7-.1l.1.2c-.1.1-.4.2-.8.2-.7 0-1.2-.6-1.2-1.3 0-.9.5-1.4 1.2-1.4.8 0 1 .8 1 1.2v.2h-2zm1.6-.2c0-.4-.1-.9-.8-.9-.6 0-.8.5-.9.9h1.7z"/></g><g class="st3"><path class="st0" d="M56.3 5.7c.2 0 .4-.1.7-.1.4 0 1.1.1 1.1.7 0 .3-.2.5-.6.6.4 0 .7.3.7.7 0 .7-.8.8-1.3.8h-.6V5.7zm.2 2.4h.4c.3 0 .9-.1.9-.5 0-.5-.5-.5-1-.5h-.4v1zm.1-1.2h.4c.4 0 .8-.1.8-.5 0-.3-.3-.5-.8-.5h-.4v1z"/></g><g class="st3"><path class="st0" d="M58.9 7c0 .8.5 1.2 1 1.2.4 0 .6-.1.7-.1l.1.2c-.1.1-.4.2-.8.2-.7 0-1.2-.6-1.2-1.3 0-.9.5-1.4 1.2-1.4.8 0 1 .8 1 1.2v.2h-2zm1.6-.2c0-.4-.1-.9-.8-.9-.6 0-.8.5-.9.9h1.7zM61.4 6.6v-.8h.2v.5c.2-.3.5-.6 1-.6.7 0 1.1.6 1.1 1.3 0 .9-.6 1.4-1.2 1.4-.4 0-.7-.2-.9-.5v1.5h-.3V6.6zm.3.7v.2c.1.4.5.7.9.7.6 0 .9-.5.9-1.2 0-.6-.3-1.1-.9-1.1-.4 0-.7.3-.9.7v.7z"/></g><g class="st3"><path class="st0" d="M65.4 8.4c-.7 0-1.2-.5-1.2-1.4 0-.9.6-1.4 1.2-1.4.7 0 1.2.6 1.2 1.4 0 1-.6 1.4-1.2 1.4zm0-.2c.5 0 1-.5 1-1.2 0-.5-.3-1.2-1-1.2s-1 .6-1 1.2c.1.7.5 1.2 1 1.2zM68.3 6.7V7H67v-.3h1.3z"/></g><g class="st3"><path class="st0" d="M68.7 4.9c.2-.2.5-.3.9-.3.5 0 1 .3 1 .9 0 .5-.3.8-.8.9.5 0 .9.4.9 1 0 .7-.6 1.1-1.2 1.1-.3 0-.6-.1-.9-.2l.1-.3c.2.1.5.2.8.2.6 0 .9-.4.9-.8 0-.6-.6-.8-1.1-.8h-.1v-.3h.1c.5 0 1-.4 1-.8 0-.5-.3-.7-.7-.7-.3 0-.5.1-.7.3l-.2-.2z"/></g><g class="st3"><path class="st0" d="M72.9 7.7v.6h-.2v-.4c-.1.2-.4.4-.8.4-.5 0-.8-.4-.8-.7 0-.6.5-1 1.6-1v.1c0-.3 0-.8-.7-.8-.2 0-.5.1-.7.2l-.1-.2c.2-.2.5-.2.8-.2.8 0 .9.6.9 1v1zm-.2-.8c-.6 0-1.3.1-1.3.7 0 .4.2.6.5.6.4 0 .7-.3.8-.5v-.8z"/></g><g class="st3"><path class="st0" d="M75.7 5.7v2.6h-.3V5.9H74v2.4h-.3V5.7h2z"/></g><g class="st3"><path class="st0" d="M78.1 7.7v.6h-.2v-.4c-.1.2-.4.4-.8.4-.5 0-.8-.4-.8-.7 0-.6.5-1 1.6-1v.1c0-.3 0-.8-.7-.8-.2 0-.5.1-.7.2l-.1-.2c.2-.2.5-.2.8-.2.8 0 .9.6.9 1v1zm-.2-.8c-.6 0-1.3.1-1.3.7 0 .4.2.6.5.6.4 0 .7-.3.8-.5v-.8z"/></g><g class="st3"><path class="st0" d="M80.7 5.7v2.4h.3v1h-.2v-.8h-1.9v.8h-.2v-1h.2c0-.1 0-.3.1-.5.1-.4.2-.8.2-1.2v-.7h1.5zm-1.3.7c0 .4-.1.8-.2 1.2 0 .2-.1.4-.2.5h1.4V5.9h-1v.5zM81.3 6h.3l.8 1-.8 1h-.3l.8-1-.8-1zm.8 0h.3l.8 1-.8 1h-.3l.8-1-.8-1z"/></g><g class="st3"><path class="st0" d="M86.9 5.7v2.6h-.3V5.9h-1.5v2.4h-.3V5.7h2.1z"/></g><g class="st3"><path class="st0" d="M87.6 6.6v-.8h.2v.5c.2-.3.5-.6 1-.6.7 0 1.2.5 1.2 1.3 0 .9-.6 1.4-1.2 1.4-.4 0-.7-.2-.9-.5v1.5h-.3V6.6zm.3.7v.2c.1.4.5.7.9.7.6 0 .9-.5.9-1.2 0-.6-.3-1.1-.9-1.1-.4 0-.7.3-.9.7v.7z"/></g><g class="st3"><path class="st0" d="M90.9 5.7V8c.2-.3.3-.5.5-.8l1-1.5h.3v2.6h-.3V7 6c-.2.4-.4.6-.5.9-.3.4-.6 1-1 1.5h-.3V5.7h.3z"/></g><g class="st3"><path class="st0" d="M96.6 5.7v2.6h-.3V5.9h-1.5v2.4h-.3V5.7h2.1z"/></g><g class="st3"><path class="st0" d="M98.4 8.4c-.7 0-1.2-.5-1.2-1.4 0-.9.6-1.4 1.2-1.4.7 0 1.2.6 1.2 1.4 0 1-.6 1.4-1.2 1.4zm0-.2c.5 0 1-.5 1-1.2 0-.5-.3-1.2-1-1.2s-1 .6-1 1.2c.1.7.5 1.2 1 1.2z"/></g><g class="st3"><path class="st0" d="M102 5.7v2.4h.3v1h-.3v-.8h-1.9v.8h-.2v-1h.2c.1-.2.2-.4.3-.5.1-.4.2-.8.2-1.2v-.7h1.4zm-1.3.7c0 .4-.1.8-.2 1.2-.1.2-.1.4-.2.5h1.4V5.9h-1v.5z"/></g><g class="st3"><path class="st0" d="M104.7 5.7v2.4h.3v1h-.2v-.8h-1.9v.8h-.2v-1h.2c.1-.2.2-.4.3-.5.1-.4.2-.8.2-1.2v-.7h1.3zm-1.3.7c0 .4-.1.8-.2 1.2-.1.2-.1.4-.2.5h1.4V5.9h-1v.5z"/></g><g class="st3"><path class="st0" d="M105.7 7c0 .8.5 1.2 1 1.2.4 0 .6-.1.7-.1l.1.2c-.1.1-.4.2-.8.2-.7 0-1.2-.6-1.2-1.3 0-.9.5-1.4 1.2-1.4.8 0 1 .8 1 1.2v.2h-2zm1.6-.2c0-.4-.1-.9-.8-.9-.6 0-.8.5-.9.9h1.7z"/></g><g class="st3"><path class="st0" d="M108.2 6.6v-.8h.2v.5c.2-.3.5-.6 1-.6.7 0 1.1.6 1.1 1.3 0 .9-.6 1.4-1.2 1.4-.4 0-.7-.2-.9-.5v1.5h-.3V6.6zm.3.7v.2c.1.4.5.7.9.7.6 0 .9-.5.9-1.2 0-.6-.3-1.1-.9-1.1-.4 0-.7.3-.9.7v.7z"/></g><g class="st3"><path class="st0" d="M111.1 5.7l1 1.2h.1V5.7h.2v1.2h.1l1-1.2h.3l-1.1 1.2c.5 0 .7.2.9.7.1.2.2.5.3.7h-.3c-.1-.2-.2-.4-.2-.6-.2-.5-.5-.6-.9-.6h-.1v1.2h-.2V7.1h-.1c-.4 0-.7.1-.9.6l-.3.6h-.2c.1-.2.2-.5.3-.7.2-.5.4-.7.9-.7l-1.1-1.2h.3z"/></g><g class="st3"><path class="st0" d="M114.7 5.7v1.2h.1l1.2-1.2h.3l-1.2 1.2c.5 0 .8.3 1 .9.1.1.1.4.3.6h-.3c-.1-.1-.2-.3-.2-.5-.2-.5-.5-.7-1.1-.7h-.1v1.2h-.3V5.7h.3z"/></g><g class="st3"><path class="st0" d="M116.9 7c0 .8.5 1.2 1 1.2.4 0 .6-.1.7-.1l.1.2c-.1.1-.4.2-.8.2-.7 0-1.2-.6-1.2-1.3 0-.9.5-1.4 1.2-1.4.8 0 1 .8 1 1.2v.2h-2zm1.6-.2c0-.4-.1-.9-.8-.9-.6 0-.8.5-.9.9h1.7z"/></g><path class="st0" d="M154.4 20.5h2.9v7.3h-2.9z"/><path class="st2" d="M152.9 9.9h-28.8l-3.5-5.3h32.3z"/></svg>