<svg xmlns="http://www.w3.org/2000/svg" width="428" height="68" viewBox="0 0 4458 708" shape-rendering="geometricPrecision" text-rendering="geometricPrecision" image-rendering="optimizeQuality" fill-rule="evenodd" clip-rule="evenodd"><defs><style>.fil0{fill:#ea5c3b;fill-rule:nonzero}</style></defs><g id="Layer_x0020_1"><path class="fil0" d="M3352 64h50V15h-50zM3384 556c17-13 38-21 60-21 30 0 44 11 44 42h-28c-21 0-46 2-65 11-19 10-33 27-33 56 0 37 34 58 68 58 23 0 49-12 60-34h1c1 6 1 19 2 29h45c-1-15-2-29-2-44-1-14-1-29-1-49v-25c0-57-25-82-84-82-21 0-48 5-68 14l2 44zm94 91c-8 11-20 18-35 18-18 0-33-7-33-24 0-30 34-34 57-34h22c0 15-2 29-11 40zM3352 294h50V99h-50zM3735 467h51v-49h-51zM3985 30l-103 264h55l23-60h107l22 60h59L4044 30h-60zm-10 162l38-109h1l38 109h-77zM0 342v28c0 222 150 338 361 338 82 0 154-17 178-30V571c-33 13-89 31-167 31-115 0-188-77-188-241v-10c0-152 76-245 205-245 68 0 121 13 151 26V24C507 9 448-1 360-1 156-1 1 135 1 342zM3532 95c-61 0-91 46-91 103 0 64 37 101 102 101 27 0 48-5 67-15v-41c-19 11-40 20-65 20-32 0-53-18-56-49h135c0-68-20-118-92-118zm-42 83c2-26 17-46 45-46s40 21 41 46h-86zM3735 697h51V502h-51zM3732 131c19 0 30 3 45 9l4-38c-16-3-32-7-56-7-40 0-76 19-76 60 0 71 88 44 88 82 0 19-20 24-33 24-18 0-34-5-50-13l-3 42c19 5 38 8 58 8 41 0 81-18 81-64 0-70-88-50-88-81 0-17 16-22 29-22zM4178 64h50V15h-50zM4178 294h50V99h-50zM4100 529h-1v-27h-48v195h51v-95c0-25 8-65 44-65 33 0 33 33 33 56v104h51V574c0-44-20-76-66-76-27 0-48 9-64 31zM3599 502h-37v37h37v99c0 38 22 63 62 63 15 0 27-2 37-4l-2-40c-5 3-14 5-23 5-19 0-24-15-24-32v-91h45v-37h-45v-55l-51 16v39zM2706 625c0 44 20 76 66 76 26 0 48-12 64-31h1v27h48V502h-50v96c0 25-8 65-45 65-33 0-33-32-33-56V503h-51v123zM2474 601c0 56 37 100 102 100s103-44 103-100c0-64-44-103-103-103-57 0-102 39-102 103zm102-64c34 0 49 28 49 58 0 33-10 67-49 67-38 0-49-35-49-67 0-29 16-58 49-58zM2537 10v284h51v-96c0-25 8-65 44-65 33 0 33 33 33 56v104h51V170c0-44-20-76-66-76-27 0-49 12-61 31h-1V10h-51zM4408 122h-1c-15-19-33-27-58-27-60 0-82 48-82 101s22 102 82 102c24 0 44-7 59-26h1v22h49V10h-51v112zm-45 137c-33 0-43-36-43-63 0-26 9-63 42-63s45 35 45 63c0 27-11 63-44 63zM2443 67c19 0 37 3 57 14l4-44c-19-7-42-11-60-11-89 0-145 51-145 141 0 89 60 132 145 132 20 0 41-4 60-8l-2-44c-13 6-37 11-58 11-56 0-89-40-89-94s34-96 88-96zM2459 475v-42h-147v264h54V581h89v-41h-89v-65zM857 10L590 697h145l60-165h261l58 165h182L1022 10H856zm-27 423l90-253 98 253H829zM1832 113V10h-481v687h177V400h236V297h-236V113zM2926 697h51v-95c0-25 8-65 44-65 33 0 33 33 33 56v104h51V574c0-44-20-76-66-76-27 0-48 9-64 31h-1v-27h-48v195zM3815 601c0 56 37 100 102 100s102-44 102-100c0-64-44-103-102-103s-102 39-102 103zm102-64c33 0 49 28 49 58 0 33-11 67-49 67-39 0-49-35-49-67 0-29 16-58 49-58zM3137 599c0 53 22 103 82 103 24 0 44-7 60-26h1v22h49V414h-51v112h-1c-15-19-33-27-58-27-60 0-82 48-82 101zm95-62c32 0 45 35 45 62 0 28-11 64-44 64s-43-36-43-64c0-26 9-62 42-62zM2778 185c-19 10-33 27-33 56 0 37 34 58 68 58 23 0 49-12 60-34h1c1 6 1 19 2 29h45c-1-15-2-29-2-44-1-14-1-29-1-49v-25c0-57-25-82-84-82-21 0-48 5-68 14l2 44c17-13 38-21 60-21 30 0 44 11 44 42h-28c-21 0-46 2-66 11zm93 19c0 15-2 29-11 40-8 11-20 18-35 18-18 0-33-7-33-24 0-30 34-34 57-34h22zM3221 60v39h-37v37h37v99c0 38 22 63 61 63 15 0 27-2 38-4l-2-40c-5 3-14 5-23 5-20 0-24-15-24-32v-91h45V99h-45V44l-51 16zM2957 99v195h51v-72c0-28 0-80 41-80 9 0 18 2 23 4V95c-5-2-11-2-15-2-30 0-51 30-53 49h-1V98h-45zM3103 64h51V15h-51zM3103 294h51V99h-51z"/></g></svg>