<svg xmlns="http://www.w3.org/2000/svg" width="4110" height="1315" shape-rendering="geometricPrecision" text-rendering="geometricPrecision" image-rendering="optimizeQuality" fill-rule="evenodd" clip-rule="evenodd"><rect id="backgroundrect" width="100%" height="100%" fill="none"/><defs><style>.fil0,.fil4{fill:#0072b9;fill-rule:nonzero}.fil4{fill:#3b96d1}.fil1,.fil2,.fil3{fill:#5fb2e3;fill-rule:nonzero}.fil1,.fil3{fill:#81d4f7}.fil3{fill:#fff}</style></defs><g class="currentLayer"><title>Layer 1</title><g id="Layer_x0020_1"><path class="fil0" d="M1569.453 285.276v-1c0-59 47-106 110-106 36 0 61 11 83 29l-33 40c-15-12-29-19-49-19-29 0-52 24-52 56v1c0 33 23 57 55 57 14 0 25-3 33-8v-25h-40v-41h94v92c-22 18-51 32-89 32-64 0-111-44-111-106z" id="svg_1"/><path class="fil0" id="svg_2" d="M1812.453 182.276h164v48h-108v31h98v45h-98v32h110v49h-166z"/><path class="fil0" id="svg_3" d="M2019.453 182.276h52l84 108v-108h56v205h-49l-87-112v112h-56z"/><path class="fil0" id="svg_4" d="M2259.453 182.276h164v48h-108v31h98v45h-98v32h110v49h-166z"/><path class="fil0" d="M2450.453 356.276l32-38c20 16 43 24 66 24 15 0 24-5 24-14v-1c0-9-7-13-35-20-43-10-77-22-77-64v-1c0-38 30-65 79-65 35 0 62 9 84 27l-28 40c-19-13-39-20-57-20-14 0-20 6-20 13v1c0 9 7 13 36 20 47 10 76 25 76 64v1c0 42-33 66-83 66-36 0-70-11-96-34z" id="svg_5"/><path class="fil0" id="svg_6" d="M2669.453 387.276h57v-205h-57z"/><path class="fil0" d="M2759.453 356.276l31-38c20 16 43 24 66 24 15 0 24-5 24-14v-1c0-9-7-13-35-20-43-10-77-22-77-64v-1c0-38 30-65 79-65 35 0 62 9 84 27l-28 40c-19-13-39-20-57-20-14 0-20 6-20 13v1c0 9 7 13 36 20 47 10 76 25 76 64v1c0 42-33 66-83 66-36 0-70-11-96-34z" id="svg_7"/><path class="fil0" d="M1576.453 543.276h88c51 0 85 27 85 71v1c0 48-37 74-87 74h-28v58h-57v-204zm84 101c20 0 32-11 32-27v-1c0-17-13-27-33-27h-27v54h27z" id="svg_8"/><path class="fil0" id="svg_9" d="M1784.453 543.276h57v77h72v-77h57v205h-57v-78h-72v78h-57z"/><path class="fil0" id="svg_10" d="M2019.453 748.276h57v-205h-57z"/><path class="fil0" id="svg_11" d="M2125.453 543.276h56v155h99v50h-155z"/><path class="fil0" d="M2387.453 542.276h55l87 206h-61l-15-37h-79l-15 37h-59l87-206zm50 125l-23-58-23 58h46z" id="svg_12"/><path class="fil0" id="svg_13" d="M2560.453 543.276h53l84 108v-108h56v205h-50l-87-112v112h-56z"/><path class="fil0" id="svg_14" d="M2850.453 593.276h-61v-50h179v50h-61v155h-57z"/><path class="fil0" id="svg_15" d="M3005.453 543.276h56v77h73v-77h56v205h-56v-78h-73v78h-56z"/><path class="fil0" d="M3238.453 543.276h97c31 0 53 8 66 22 12 12 18 27 18 48v1c0 31-17 52-42 63l49 71h-65l-41-62h-25v62h-57v-204zm94 98c19 0 30-9 30-24v-1c0-16-12-24-31-24h-37v49h38z" id="svg_16"/><path class="fil0" d="M3453.453 646.276v-1c0-59 47-106 110-106s110 47 110 106v1c0 59-47 106-110 106s-110-47-110-106zm162 0v-1c0-30-21-55-52-55s-52 25-52 55v1c0 29 21 55 53 55 31 0 52-25 52-55z" id="svg_17"/><path class="fil0" d="M3714.453 543.276h88c51 0 85 27 85 71v1c0 48-37 74-87 74h-28v58h-57v-204zm84 101c20 0 32-11 32-27v-1c0-17-13-27-33-27h-27v54h27z" id="svg_18"/><path class="fil0" id="svg_19" d="M3976.453 671.276l-78-128h64l42 75 43-75h63l-78 127v78h-56z"/><path class="fil0" d="M1569.453 1007.276v-1c0-59 47-106 110-106 36 0 61 11 83 29l-33 40c-15-12-29-19-49-19-29 0-52 24-52 56v1c0 33 23 57 55 57 14 0 25-3 33-8v-25h-40v-41h94v92c-22 18-51 32-89 32-64 0-111-44-111-106z" id="svg_20"/><path class="fil0" d="M1812.453 905.276h97c31 0 53 8 67 22 12 12 18 27 18 48v1c0 31-17 52-42 63l49 71h-65l-41-62h-25v62h-57v-204zm94 98c19 0 30-9 30-24v-1c0-16-12-24-31-24h-37v49h38z" id="svg_21"/><path class="fil0" d="M2027.453 1007.276v-1c0-59 47-106 110-106s110 47 110 106v1c0 59-47 106-110 106s-110-47-110-106zm162 0v-1c0-30-21-55-52-55s-52 25-52 55v1c0 29 21 55 52 55s52-25 52-55z" id="svg_22"/><path class="fil0" d="M2285.453 1019.276v-115h57v113c0 29 15 43 38 43s38-13 38-42v-115h57v113c0 66-38 95-96 95s-94-29-94-93z" id="svg_23"/><path class="fil0" d="M2520.453 905.276h88c51 0 85 27 85 71v1c0 48-37 74-87 74h-28v58h-57v-204zm84 101c20 0 32-11 32-27v-1c0-17-13-27-33-27h-27v54h27z" id="svg_24"/><path class="fil1" d="M397.453 1047.276c225 296 374 351 527 142-97-10-219-40-369-87-59-19-111-37-158-55z" id="svg_25"/><path class="fil1" d="M407.453 213.276c20-11 52-17 97-15 1-1 1-2 2-3 23-40 45-73 68-100-398 68-756 301-473 594 2 2 4 5 6 7 48-89 154-186 255-302-9-89-5-153 46-180z" id="svg_26"/><path class="fil1" d="M884.453 77.276c127 131 223 393 261 520 13 44 25 86 34 125 50-104 92-197 107-244 83-262-128-383-402-402z" id="svg_27"/><path class="fil2" d="M397.453 1047.276c-81-97-175-217-291-352-66 123-24 231 291 352z" id="svg_28"/><path class="fil2" d="M574.453 95.276c104-18 212-24 311-18-91-93-197-119-311 18z" id="svg_29"/><path class="fil2" d="M1180.453 723.276c-89 183-206 401-256 467 278 28 344-109 256-467z" id="svg_30"/><path class="fil3" d="M1067.453 468.276c-26-61-122-141-295-204-119-44-206-62-268-65-46-2-77 4-97 15-51 27-55 91-46 180 10 99 38 229 37 375-3 422 356 197 498 65 153-141 214-265 171-366zm-192 245c-150 109-358 162-380-135-26-346 128-338 315-238 104 56 147 96 174 138 45 69-4 158-109 235z" id="svg_31"/><path class="fil0" d="M875.453 713.276c105-76 154-165 109-235-27-41-70-82-174-138-187-101-341-109-315 238 22 297 231 243 380 135z" id="svg_32"/><path class="fil4" d="M884.453 77.276c-99-7-206 0-311 18-22 27-45 60-68 100-1 1-1 2-2 3 61 3 148 22 268 65 173 64 269 143 295 204 43 101-18 225-171 366-143 132-501 356-498-65 1-146-27-276-37-375-101 116-207 213-255 302 116 136 210 255 291 352 46 18 99 36 158 55 150 48 272 77 369 87 50-66 167-284 256-467-10-39-21-81-34-125-38-127-134-390-261-520z" id="svg_33"/></g></g></svg>