<svg id="Слой_1" xmlns="http://www.w3.org/2000/svg" viewBox="0 0 65.2 21.7"><style>.st0{fill:#007dc3}.st1{fill:#fff}</style><path class="st0" d="M19.3.8L8.8 4.9.5 3.6l1.1 15.8 9.9 1.6 9.2-3.6L19.3.8zm-7.4 4.7h1v-.2l.1-.2v-.2l.2-.2.1-.2v-.1l.1.1.1.2.2.2V5h.2l.2.3h.2l.2-.1.2-.1.2-.1h.5-.1l-.1.3-.1.1-.2.2-.2.2-.1.2.1.2h.2l.1.3.2.1h.3l.1.1h-.2l-.2.1H15l-.3.3h-.2v.2l-.1.2-.1.2V8h-.1l-.2-.1-.2-.1-.2-.2-.1-.2-.1-.2-.2-.1-.3.1-.2.1-.1.1-.2.2-.3.1h-.2l.1-.3v-.2l.2-.1.1-.2v-.3l.1-.1-.1-.1-.1-.2-.2-.1-.1-.3-.2-.1.2-.2zm-1.6 6l-.1.1-.1.2-.3.4-.2.1-.6.4-.2.1h-.2l-.4.2-.4-.1h-.1l-.4-.1-.4.1-.1-.1v-.3l-.2-.1-.2-.4-.1-.1-.1-.2V11l.1-.2.1-.2.1-.2.2-.1.4-.1.1 1h.2l.2.1.2.2v.2h.4l.8-.1.2-.3.2-.5v-.7l.1-.4v-.3l-.2-.3v-.2l-.5-.4H8l-.3.1h-.2l-.4-.1H7l-.2.1-.2.2-.2.1h-.2l-.3.1h-.4l-.2.3-.3.1-.2.2.1 1.1.1.4.1.3.1.4v.1l.2.4.1.5.1.2.1.2.1.2.1.4.1.2v.2l.1.2v.6l.2.3.1.4.1.2v.1l-.1.2v.1l-.1.1h-.2l-.2.1.1.5-.1.1-.6.1L5 17v-.2l-.1-.2-.1-.7-.1-.4-.1-.4-.2-.4v-.1l-.2-.4v-.4l-.2-.4-.1-.4-.2-.4-.1-.5-.1-.4v-.2l-.2-.3-.1-.3-.2-.2-.2-.2-.1-.1.3-.2v-.4l.6-.7.2-.2.1-.1.4-.2.5-.3.6-.3h.3l.7-.3.2-.1.4-.2 1.3-.1.5-.1.6.1.1.1.2.1.5.4.2.2.1.1v.2l.1.4.2.3v.7l-.5 1.7zm6.6 4.4l-.1.5-.2.3h-.1l-.1.1-.1.2v.1l-.2.1-.1.2-.3.2h-.1l-.2.2h-.1v.2l-.2.1-.3.2-.1.1h-.4l-.3.1h-.6l-.4-.1h-.2l-.2-.2h-.1l-.1-.1-.1-.1h-.1l-.1-.1H12v-.2l-.1-.1-.1-.1h-.2v-.3l-.1-.2v-.1h.1l.1-.1h.1l.2-.1.2.1.1.4.2.3.2.1.1.1.1.1.2.2.2.1.4.1h.1l.1.1h.1l.1-.1h.2l.2-.1h.1l.3-.2.2-.2h.1l.3-.2.1-.1h.1l.2-.1v-.1h.2l.1-.2.2-.3.2-.4-.1-.9V15l-.5-.3v-.1l-.1-.2-.1-.2v-.1l-.1-.3-.1-.2-.1-.2V12.8l-.1-.2-.1-.3-.1-.1v-.3l-.1-.1v-.2l-.1-.2v-.2l-.1-.3v-.1l-.1-.2v-.1l-.2-.1-.1-.1V10l-.1-.2v-.1l-.1-.1-.1-.2h-.3l-.3.1-.3.1h-.2l-.4.1h-.1l-.3-.2v-.1l.1-.1.1-.1h.2l.6-.1.6-.1h.3l.5-.2H15l.2.1.1.3.1.1v.2l.1.1v.1l.1.3v.1l.1.1v.1l.1.2v.2l.1.3.1.2v.4l.1.1v.3l.1.2.1.4.1.2v.6l.1.1v.1l.1.1v.3l.1.2.1.2v.4l.1.1v.1h-.1.1v.1l.1.6-.1.2z"/><path class="st1" d="M11.9 5.5h1v-.2l.1-.2v-.2l.2-.2.1-.2v-.1l.1.1.1.2.2.2V5h.2l.2.3h.2l.2-.1.2-.1.2-.1h.5-.1l-.1.3-.1.1-.2.2-.2.2-.1.2.1.2h.2l.1.3.2.1h.3l.1.1h-.2l-.2.1H15l-.3.3h-.2v.2l-.1.2-.1.2V8h-.1l-.2-.1-.2-.1-.2-.2-.1-.2-.1-.2-.2-.1-.3.1-.2.1-.1.1-.2.2-.3.1h-.2l.1-.3v-.2l.2-.1.1-.2v-.3l.1-.1-.1-.1-.1-.2-.2-.1-.1-.3-.2-.1.2-.2zm-1.6 6l-.1.1-.1.2-.3.4-.2.1-.6.4-.2.1h-.2l-.4.2-.4-.1h-.1l-.4-.1-.4.1-.1-.1v-.3l-.2-.1-.2-.4-.1-.1-.1-.2V11l.1-.2.1-.2.1-.2.2-.1.4-.1.1 1h.2l.2.1.2.2v.2h.4l.8-.1.2-.3.2-.5v-.7l.1-.4v-.3l-.2-.3v-.2l-.5-.4H8l-.3.1h-.2l-.4-.1H7l-.2.1-.2.2-.2.1h-.2l-.3.1h-.4l-.2.3-.3.1-.2.2.1 1.1.1.4.1.3.1.4v.1l.2.4.1.5.1.2.1.2.1.2.1.4.1.2v.2l.1.2v.6l.2.3.1.4.1.2v.1l-.1.2v.1l-.1.1h-.2l-.2.1.1.5-.1.1-.6.1L5 17v-.2l-.1-.2-.1-.7-.1-.4-.1-.4-.2-.4v-.1l-.2-.4v-.4l-.2-.4-.1-.4-.2-.4-.1-.5-.1-.4v-.2l-.2-.3-.1-.3-.2-.2-.2-.2-.1-.1.3-.2v-.4l.6-.7.2-.2.1-.1.4-.2.5-.3.6-.3h.3l.7-.3.2-.1.4-.2 1.3-.1.5-.1.6.1.1.1.2.1.5.4.2.2.1.1v.2l.1.4.2.3v.7l-.5 1.7zm6.6 4.4l-.1.5-.2.3h-.1l-.1.1-.1.2v.1l-.2.1-.1.2-.3.2h-.1l-.2.2h-.1v.2l-.2.1-.3.2-.1.1h-.4l-.3.1h-.6l-.4-.1h-.2l-.2-.2h-.1l-.1-.1-.1-.1h-.1l-.1-.1H12v-.2l-.1-.1-.1-.1h-.2v-.3l-.1-.2v-.1h.1l.1-.1h.1l.2-.1.2.1.1.4.2.3.2.1.1.1.1.1.2.2.2.1.4.1h.1l.1.1h.1l.1-.1h.2l.2-.1h.1l.3-.2.2-.2h.1l.3-.2.1-.1h.1l.2-.1v-.1h.2l.1-.2.2-.3.2-.4-.1-.9V15l-.5-.3v-.1l-.1-.2-.1-.2v-.1l-.1-.3-.1-.2-.1-.2V12.8l-.1-.2-.1-.3-.1-.1v-.3l-.1-.1v-.2l-.1-.2v-.2l-.1-.3v-.1l-.1-.2v-.1l-.2-.1-.1-.1V10l-.1-.2v-.1l-.1-.1-.1-.2h-.3l-.3.1-.3.1h-.2l-.4.1h-.1l-.3-.2v-.1l.1-.1.1-.1h.2l.6-.1.6-.1h.3l.5-.2H15l.2.1.1.3.1.1v.2l.1.1v.1l.1.3v.1l.1.1v.1l.1.2v.2l.1.3.1.2v.4l.1.1v.3l.1.2.1.4.1.2v.6l.1.1v.1l.1.1v.3l.1.2.1.2v.4l.1.1v.1h-.1.1v.1l.1.6-.1.2z"/><path class="st0" d="M23.5 5.7h.2V6l.1.4V7l.2.4v.3l.1.2V8.2l-.1.2v5.3h.5l.4-.1h.2l.4-.2h.6l.3-.3h.1l.1.1.2.1h1.4l.4.4v.4l-.5.5h-1.4l-.4-.2h-.6l-.5.2h-.1l-1.3.4h-.3l-.2.1-.3.1-.1-.2-.1-.2v-.2l.1-6.2.1-.4v-.7l-.1-.5.1-.4v-.1l.2-.3.2-.1v-.1zM31 11.6l.1.2v.5l.2.1v.1l-.2.3v.9l.2.2v.2l-.1.2v.1l-.1.2-.1.2-.2.3-.1.2h-.3l-.4-.4-.2-.2-.1-.2V13.9l.1-.4v-.3l.2-.4v-.6l.3-.3.4-.3h.3zm-.3-3.3l.2.1v.2l.1.2V9.6l-.3.4h-.3l-.4-.3v-.2l-.2-.4v-.3l.5-.5h.4M35 6.7l.2.1v1.3l-.1.3V9l-.1.2v.2l-.2.5v.5l-.3.2v.5h.2l.7-.2h.4l.6.3.2.1.3.3.1.2.2.3.1.2v.5l-.2.5-.1.4-.4.5-.2.2-.2.1-.1.1-.3.4-.2.1-.1.1H35l-.3.2-.9-.3-.2-.1-.2-.1-.3-.3-.3-.3-.1-.2V14l-.1-.3v-.5l.1-.4v-.1l.3-.7v-.1l.2-.2v-.1l.1-.2.2-.4.1-.2.1-.2v-.1l.3-.7v-.1l.1-.3V9l.1-.2.1-.2.1-.2-.1-.2h-.1V8l.1-.2.1-.1.1-.1v-.8l.1-.1h.1l.1-.1h.2zm-.3 5.7h-.4l-.2-.1H34l-.1.3-.2.4v.4l.2.3v.1l.3.4h.1l.4.1h.1l.3-.1h.2l.1-.1.3-.1.2-.2v-.1l.2-.2.1-.1v-.7l-.2-.1-.2-.2-.1-.1-.2-.1-.2-.1H35l-.2.1-.1.2M43.6 9.8h.8v.2l.4.5v.7l-.3.3v.2l-.1.3v.2h-.5l-.1-.2-.2-.7v-.2h-.2v.1l-.5.1-.1.1-.4.3h-.2v.1l-.1.2-.4.4h-.3l-.6.6v.1l-.3.5-.2.4-.1.2v.5l-.1.1-.2.3-.2.2h-.5l-.1-.2V15l-.4-.7v-.4l-.2-.4.2-.4v-.5l.1-.4v-.4l.1-.1.1-.1h.1l.1-.1.2-.1h.2l.1.2.2.2v.2h.3l.4-.4.2-.2.1-.1.4-.3.2-.2h.1l.1-.2h.1l.3-.3v-.2h.3v.2h.2l.1-.1.2-.2.5-.1zM48 9.1h.2l.2.1.2.1h.2l.2.2v.1l.2.6.2.2v.1l-.2.2v.1l.1.1.1.3v.1l.3.3v.3l-.2.4.2.4v.4l.3.9v.4l.1.2.1.1v.2l-.2.2-.2.3-.1.1h-.3l-.2-.1-.4-.3-.2-.2-.2-.1h-.5l-.9.3h-.7L46 15h-.1l-.2-.2-.2-.3-.1-.2v-.4l.2-.4.1-.2.8-.8.2-.1.4-.3h.4l.5-.1h.2v-.3h-.1l-.1-.2v-.8l-.1-.2h-1.3l-.2-.2V10l.1-.2.1-.2.2-.2h.2l.4-.1h.4l.2-.2zm-.7 4.3l-.5.1v.5h.6l.4-.2.5-.2.2-.4h-1l-.2.2M56.3 9.8h.8v.2l.5.5v.7l-.4.3v.5l-.1.2h-.4l-.1-.2-.2-.7v-.2h-.2l-.1.1-.4.1-.1.1-.5.3H55v.1l-.1.2-.4.4h-.3l-.6.6v.1l-.3.5-.3.4v.5l-.1.2-.1.1-.1.3-.2.2H52l-.2-.2V15l-.3-.7-.1-.2v-.2l-.1-.4.1-.4v-.5l.2-.4v-.4l.1-.1v-.1h.1l.2-.1.2-.1h.2l.1.2.2.2v.2h.2l.4-.4.3-.2.1-.1.4-.3.2-.2h.1l.1-.2h.1l.3-.3v-.2h.2l.1.2h.1l.1-.1.3-.2.4-.1zM61.8 11l.4.3h-.1v.3l-.1.1v.2l-.2.6.1-.3-.4 1.1v.1l-.2.1v.3l-.3.5-.1.1-.1.1v.1l-.1.1v.1l-.1.2-.2.2-.1.2-.3.4-.1.2-.2.2v.2h-.1l-.3.2v.1l-.2.3-.2.2-.1.2-.1.1-.3.3h-.1v.2l-.5.2v.1h-.1l-.1.2-.3.2-.2.1-.2.1-.1.1-.1.1h-.1l-.2.2h-.2l-.1.1-.3.1-.2.1-.1.1-.1.1h-1.1l-.2-.1h-.2l-.3-.1h-.1l-.3-.1H53l-.2-.1-.2-.1h-.1l-.1-.1-.2-.1H52l-.1-.1-.2-.1-.2-.1h-.1l-.3-.3h-.2l-.3-.5-.1-.1v-.1l-.1-.2v-.3l.3-.3h.2l.1.1v.2l.1.2v.2l.2.3.3.3.3.1.5.2.4.2.1.1h.4l.2.2H54.1l.2.1.3-.1.3.1h.3l.4-.1.6-.2.1-.2h.2l.1-.1h.1v-.1h.2v-.2l.5-.4.1-.1.1-.1.1-.2.1-.1.3-.2.1-.2h.1l.2-.3.1-.1.1-.2.1-.2.5-.6.3-.5.1-.1v-.2l.1-.1.1-.1v-.1l.1-.1v-.1l-.2-.1-.1-.1V14l-.1-.1-.1-.1v-.1h-.2v-.1l-.6-1-.1-.1-.1-.2.1-.2h-.2V12l-.2-.1v-.1l-.1-.1v-.1l.3-.3h.7l.1.1h.1v.2l.2.1h.1v.7l.4.7.2.1v.1l.1.1.1.1h.1l.1-.1.2-.7.1-.1.2-.6.1-.3v-.1l.1-.2v-.1l.1-.1.2-.1zM63.5 10.4c.2 0 .3 0 .3-.1s-.1-.1-.2-.1h-.1v.2zm0 .5h-.2V10h.3c.2 0 .2 0 .3.1.1 0 .1.1.1.2s-.1.2-.2.2c.1 0 .1.1.2.2 0 .1 0 .2.1.2h-.2s0-.1-.1-.2c0-.1-.1-.1-.2-.1h-.1v.3zm-.5-.4c0 .4.3.7.7.7.4 0 .7-.3.7-.7 0-.4-.3-.7-.7-.7-.4 0-.7.3-.7.7m1.5 0c0 .5-.4.9-.9.9s-.9-.4-.9-.9.4-.9.9-.9c.6 0 .9.4.9.9"/></svg>