<svg xmlns="http://www.w3.org/2000/svg" viewBox="0 0 733.1 220.9"><style>.st0{fill:#3b9fd9}.st1{display:none}.st2{display:inline}.st3{fill:#fff}</style><g id="color"><path class="st0" d="M57.5 220.8c2.1-73.6 97.3-66.5 26.5-173.7 9.3 49.5-35.6 82.9-37.7 132.4C20.3 110.4 98.2 69.6 71.5 0c-30.8 78.1-135.9 80.1-14 220.8"/><path d="M311.8 126.3V41.8h40.5v12.7h-26v21.8h19.5V89h-19.5v37.5h-14.5zM395.8 97.3h-27.6v9.1c0 7.3 2.6 10.3 7.3 10.3 4.7 0 7.3-3 7.3-10.3V105h13.1c-.2 13.4-5.7 22.5-20.4 22.5-15 0-20.4-9.6-20.4-23.4V85.6c0-13.8 5.4-23.4 20.4-23.4s20.4 9.6 20.4 23.4v11.7zm-13.2-10.8v-3.3c0-7.3-2.6-10.3-7.3-10.3-4.7 0-7.3 3-7.3 10.3v3.3h14.6zM431.5 126.3v-6.6h-.2c-4.3 5.5-7.5 7.7-14.1 7.7-8.2 0-13.4-6.1-13.4-17.6V79.7c0-11.5 5.2-17.6 13.4-17.6 5.7 0 8.4 2.3 13.6 6.6v-27h13.1v84.6h-12.4zm-.7-50.1c-2.6-1.9-4.9-3.3-7.5-3.3-3.5 0-6.3 1.9-6.3 10.2v23.4c0 8.3 2.8 10.2 6.3 10.2 2.6 0 4.9-1.4 7.5-3.3V76.2zM493.4 97.3h-27.6v9.1c0 7.3 2.6 10.3 7.3 10.3 4.7 0 7.3-3 7.3-10.3V105h13.1c-.2 13.4-5.7 22.5-20.4 22.5-15 0-20.4-9.6-20.4-23.4V85.6c0-13.8 5.4-23.4 20.4-23.4 15 0 20.4 9.6 20.4 23.4v11.7zm-13.2-10.8v-3.3c0-7.3-2.6-10.3-7.3-10.3-4.7 0-7.3 3-7.3 10.3v3.3h14.6zM538.1 81.8c.7-12.8 8.8-19.7 21.1-19.7 12.2 0 19.1 5.6 19.1 17.1v40.4c0 2 .5 4.6.8 6.7h-12.5c-.1-1.8-.6-3.4-.7-4.9-4.9 4-9 6.1-15.3 6.1-8.9 0-13.4-6.1-13.4-14.2 0-13.8 9.1-21.4 28-28.6V81c0-5.3-2.1-8.1-6.4-8.1-6 0-7.3 3.5-7.5 8.9h-13.2zm27.1 12.5c-12 6.8-14.9 11.1-14.9 16.6 0 4.1 2.1 5.7 6.1 5.7 3.6 0 6.6-2.7 8.8-5.9V94.3zM584.4 74.1V63.3h7.3v-17h13.1v17h8.8v10.8h-8.8v36.3c0 3.3 1.4 5.1 4.5 5.1h4.3v11.3c-1.8.5-3.3.7-6.6.7-9.8 0-15.3-4.6-15.3-14.2V74.1h-7.3zM622.7 126.3v-63h13.1v63h-13.1zM644.6 85.6c0-13.8 5.4-23.4 20.4-23.4 15 0 20.4 9.6 20.4 23.4v18.5c0 13.8-5.4 23.4-20.4 23.4-15 0-20.4-9.6-20.4-23.4V85.6zm27.6-2.4c0-7.3-2.6-10.3-7.3-10.3-4.7 0-7.3 3-7.3 10.3v23.2c0 7.3 2.6 10.3 7.3 10.3 4.7 0 7.3-3 7.3-10.3V83.2zM693.7 126.3v-63h12.4v6.3c5.5-4.7 8.3-7.5 15.9-7.5 6.9 0 11 5 11 13.2v51h-13V77.5c0-3.2-1.9-4.6-4.7-4.6-2.8 0-5.4 1.8-8.4 4v49.4h-13.2zM188.1 120.6l7.9-10.9c5.2 4.3 9 3.8 9 3.8 5 0 7.3-2.9 7.3-9.3V41.7h14.5v63.7c0 13.9-7.8 22.1-20.8 22.1-.1.1-11.3.6-17.9-6.9zM138.6 41.7h14.5v63.9c0 6.2 2.5 9.3 7.7 9.3 5.3 0 7.7-3 7.7-9.3V41.7H183V105c0 14.6-8.4 22.5-22.3 22.5-13.8 0-22.3-8-22.3-22.5V41.7zM249.6 126.4h-14.1l15.6-84.7h18.1l15.6 84.7h-14.1l-2.6-18.8h-16l-2.5 18.8zm4.7-31.4H266l-5.7-36.4h-.3L254.3 95zM138.6 204.8v-53.5h8.5l11.2 30.6h.1v-30.6h8.3v53.5h-8L147 171.3h-.2v33.4h-8.2zM175.5 204.8v-53.5h24.6v8h-15.4V173h11.9v8h-11.9v15.7h16.5v8h-25.7zM226.2 151.2h7.6l6.2 34.1h.1l5.1-34.1h8.6l-9.4 53.5h-7.7l-6.7-35.4h-.1l-6.2 35.4H216l-10.2-53.5h8.6l5.6 34.1h.1l6.1-34.1zM292.1 204.8h-9.2v-22.3l-11.1-31.3h9.3l6.4 20.4h.1l6.2-20.4h9.3L292 182.5v22.3zM307.6 164.2c0-7.6 4.4-13.7 14.1-13.7 9.6 0 14.1 6.2 14.1 13.7v27.6c0 7.6-4.5 13.7-14.1 13.7s-14.1-6.2-14.1-13.7v-27.6zm9.2 27.4c0 4 1.2 5.9 4.9 5.9s4.9-1.9 4.9-5.9v-27.1c0-4-1.2-5.9-4.9-5.9s-4.9 1.9-4.9 5.9v27.1zM353.2 204.8H344v-53.5h12.9c10.3 0 15.6 4.4 15.6 15.8 0 8.6-3.3 12.1-6.5 13.5l7.8 24.3h-9.3l-6.5-22.2c-1.2.1-3.1.2-4.7.2v21.9zm0-29.6h3.3c5 0 6.8-1.8 6.8-8.2 0-6.4-1.9-8.2-6.8-8.2h-3.3v16.4zM380.6 204.8v-53.5h9.2V171h.1l9.6-19.8h9.2l-9.9 19.9 11.2 33.6h-9.3l-7.5-24.9h-.2l-3.3 5.9v19h-9.1z"/><circle cx="629.2" cy="47.7" r="8"/><path d="M515.1 90.7v35.6H502v-63h12.5v9.1c2.1-6.6 11.7-10.3 18.6-10.3v14.8c.1 0-18-2-18 13.8z"/></g><g id="white" class="st1"><g class="st2"><path class="st3" d="M57.5 220.8c2.1-73.6 97.3-66.5 26.5-173.7 9.3 49.5-35.6 82.9-37.7 132.4C20.3 110.4 98.2 69.6 71.5 0c-30.8 78.1-135.9 80.1-14 220.8M311.8 126.3V41.8h40.5v12.7h-26v21.8h19.5V89h-19.5v37.5h-14.5zM395.8 97.3h-27.6v9.1c0 7.3 2.6 10.3 7.3 10.3 4.7 0 7.3-3 7.3-10.3V105h13.1c-.2 13.4-5.7 22.5-20.4 22.5-15 0-20.4-9.6-20.4-23.4V85.6c0-13.8 5.4-23.4 20.4-23.4s20.4 9.6 20.4 23.4v11.7zm-13.2-10.8v-3.3c0-7.3-2.6-10.3-7.3-10.3-4.7 0-7.3 3-7.3 10.3v3.3h14.6zM431.5 126.3v-6.6h-.2c-4.3 5.5-7.5 7.7-14.1 7.7-8.2 0-13.4-6.1-13.4-17.6V79.7c0-11.5 5.2-17.6 13.4-17.6 5.7 0 8.4 2.3 13.6 6.6v-27h13.1v84.6h-12.4zm-.7-50.1c-2.6-1.9-4.9-3.3-7.5-3.3-3.5 0-6.3 1.9-6.3 10.2v23.4c0 8.3 2.8 10.2 6.3 10.2 2.6 0 4.9-1.4 7.5-3.3V76.2zM493.4 97.3h-27.6v9.1c0 7.3 2.6 10.3 7.3 10.3 4.7 0 7.3-3 7.3-10.3V105h13.1c-.2 13.4-5.7 22.5-20.4 22.5-15 0-20.4-9.6-20.4-23.4V85.6c0-13.8 5.4-23.4 20.4-23.4 15 0 20.4 9.6 20.4 23.4v11.7zm-13.2-10.8v-3.3c0-7.3-2.6-10.3-7.3-10.3-4.7 0-7.3 3-7.3 10.3v3.3h14.6zM538.1 81.8c.7-12.8 8.8-19.7 21.1-19.7 12.2 0 19.1 5.6 19.1 17.1v40.4c0 2 .5 4.6.8 6.7h-12.5c-.1-1.8-.6-3.4-.7-4.9-4.9 4-9 6.1-15.3 6.1-8.9 0-13.4-6.1-13.4-14.2 0-13.8 9.1-21.4 28-28.6V81c0-5.3-2.1-8.1-6.4-8.1-6 0-7.3 3.5-7.5 8.9h-13.2zm27.1 12.5c-12 6.8-14.9 11.1-14.9 16.6 0 4.1 2.1 5.7 6.1 5.7 3.6 0 6.6-2.7 8.8-5.9V94.3zM584.4 74.1V63.3h7.3v-17h13.1v17h8.8v10.8h-8.8v36.3c0 3.3 1.4 5.1 4.5 5.1h4.3v11.3c-1.8.5-3.3.7-6.6.7-9.8 0-15.3-4.6-15.3-14.2V74.1h-7.3zM622.7 126.3v-63h13.1v63h-13.1zM644.6 85.6c0-13.8 5.4-23.4 20.4-23.4 15 0 20.4 9.6 20.4 23.4v18.5c0 13.8-5.4 23.4-20.4 23.4-15 0-20.4-9.6-20.4-23.4V85.6zm27.6-2.4c0-7.3-2.6-10.3-7.3-10.3-4.7 0-7.3 3-7.3 10.3v23.2c0 7.3 2.6 10.3 7.3 10.3 4.7 0 7.3-3 7.3-10.3V83.2zM693.7 126.3v-63h12.4v6.3c5.5-4.7 8.3-7.5 15.9-7.5 6.9 0 11 5 11 13.2v51h-13V77.5c0-3.2-1.9-4.6-4.7-4.6-2.8 0-5.4 1.8-8.4 4v49.4h-13.2zM188.1 120.6l7.9-10.9c5.2 4.3 9 3.8 9 3.8 5 0 7.3-2.9 7.3-9.3V41.7h14.5v63.7c0 13.9-7.8 22.1-20.8 22.1-.1.1-11.3.6-17.9-6.9zM138.6 41.7h14.5v63.9c0 6.2 2.5 9.3 7.7 9.3 5.3 0 7.7-3 7.7-9.3V41.7H183V105c0 14.6-8.4 22.5-22.3 22.5-13.8 0-22.3-8-22.3-22.5V41.7zM249.6 126.4h-14.1l15.6-84.7h18.1l15.6 84.7h-14.1l-2.6-18.8h-16l-2.5 18.8zm4.7-31.4H266l-5.7-36.4h-.3L254.3 95zM138.6 204.8v-53.5h8.5l11.2 30.6h.1v-30.6h8.3v53.5h-8L147 171.3h-.2v33.4h-8.2zM175.5 204.8v-53.5h24.6v8h-15.4V173h11.9v8h-11.9v15.7h16.5v8h-25.7zM226.2 151.2h7.6l6.2 34.1h.1l5.1-34.1h8.6l-9.4 53.5h-7.7l-6.7-35.4h-.1l-6.2 35.4H216l-10.2-53.5h8.6l5.6 34.1h.1l6.1-34.1zM292.1 204.8h-9.2v-22.3l-11.1-31.3h9.3l6.4 20.4h.1l6.2-20.4h9.3L292 182.5v22.3zM307.6 164.2c0-7.6 4.4-13.7 14.1-13.7 9.6 0 14.1 6.2 14.1 13.7v27.6c0 7.6-4.5 13.7-14.1 13.7s-14.1-6.2-14.1-13.7v-27.6zm9.2 27.4c0 4 1.2 5.9 4.9 5.9s4.9-1.9 4.9-5.9v-27.1c0-4-1.2-5.9-4.9-5.9s-4.9 1.9-4.9 5.9v27.1zM353.2 204.8H344v-53.5h12.9c10.3 0 15.6 4.4 15.6 15.8 0 8.6-3.3 12.1-6.5 13.5l7.8 24.3h-9.3l-6.5-22.2c-1.2.1-3.1.2-4.7.2v21.9zm0-29.6h3.3c5 0 6.8-1.8 6.8-8.2 0-6.4-1.9-8.2-6.8-8.2h-3.3v16.4zM380.6 204.8v-53.5h9.2V171h.1l9.6-19.8h9.2l-9.9 19.9 11.2 33.6h-9.3l-7.5-24.9h-.2l-3.3 5.9v19h-9.1z"/><circle class="st3" cx="629.2" cy="47.7" r="8"/><path class="st3" d="M515.1 90.7v35.6H502v-63h12.5v9.1c2.1-6.6 11.7-10.3 18.6-10.3v14.8c.1 0-18-2-18 13.8z"/></g></g><g id="black" class="st1"><g class="st2"><path d="M57.5 220.8c2.1-73.6 97.3-66.5 26.5-173.7 9.3 49.5-35.6 82.9-37.7 132.4C20.3 110.4 98.2 69.6 71.5 0c-30.8 78.1-135.9 80.1-14 220.8M311.8 126.3V41.8h40.5v12.7h-26v21.8h19.5V89h-19.5v37.5h-14.5zM395.8 97.3h-27.6v9.1c0 7.3 2.6 10.3 7.3 10.3 4.7 0 7.3-3 7.3-10.3V105h13.1c-.2 13.4-5.7 22.5-20.4 22.5-15 0-20.4-9.6-20.4-23.4V85.6c0-13.8 5.4-23.4 20.4-23.4s20.4 9.6 20.4 23.4v11.7zm-13.2-10.8v-3.3c0-7.3-2.6-10.3-7.3-10.3-4.7 0-7.3 3-7.3 10.3v3.3h14.6zM431.5 126.3v-6.6h-.2c-4.3 5.5-7.5 7.7-14.1 7.7-8.2 0-13.4-6.1-13.4-17.6V79.7c0-11.5 5.2-17.6 13.4-17.6 5.7 0 8.4 2.3 13.6 6.6v-27h13.1v84.6h-12.4zm-.7-50.1c-2.6-1.9-4.9-3.3-7.5-3.3-3.5 0-6.3 1.9-6.3 10.2v23.4c0 8.3 2.8 10.2 6.3 10.2 2.6 0 4.9-1.4 7.5-3.3V76.2zM493.4 97.3h-27.6v9.1c0 7.3 2.6 10.3 7.3 10.3 4.7 0 7.3-3 7.3-10.3V105h13.1c-.2 13.4-5.7 22.5-20.4 22.5-15 0-20.4-9.6-20.4-23.4V85.6c0-13.8 5.4-23.4 20.4-23.4 15 0 20.4 9.6 20.4 23.4v11.7zm-13.2-10.8v-3.3c0-7.3-2.6-10.3-7.3-10.3-4.7 0-7.3 3-7.3 10.3v3.3h14.6zM538.1 81.8c.7-12.8 8.8-19.7 21.1-19.7 12.2 0 19.1 5.6 19.1 17.1v40.4c0 2 .5 4.6.8 6.7h-12.5c-.1-1.8-.6-3.4-.7-4.9-4.9 4-9 6.1-15.3 6.1-8.9 0-13.4-6.1-13.4-14.2 0-13.8 9.1-21.4 28-28.6V81c0-5.3-2.1-8.1-6.4-8.1-6 0-7.3 3.5-7.5 8.9h-13.2zm27.1 12.5c-12 6.8-14.9 11.1-14.9 16.6 0 4.1 2.1 5.7 6.1 5.7 3.6 0 6.6-2.7 8.8-5.9V94.3zM584.4 74.1V63.3h7.3v-17h13.1v17h8.8v10.8h-8.8v36.3c0 3.3 1.4 5.1 4.5 5.1h4.3v11.3c-1.8.5-3.3.7-6.6.7-9.8 0-15.3-4.6-15.3-14.2V74.1h-7.3zM622.7 126.3v-63h13.1v63h-13.1zM644.6 85.6c0-13.8 5.4-23.4 20.4-23.4 15 0 20.4 9.6 20.4 23.4v18.5c0 13.8-5.4 23.4-20.4 23.4-15 0-20.4-9.6-20.4-23.4V85.6zm27.6-2.4c0-7.3-2.6-10.3-7.3-10.3-4.7 0-7.3 3-7.3 10.3v23.2c0 7.3 2.6 10.3 7.3 10.3 4.7 0 7.3-3 7.3-10.3V83.2zM693.7 126.3v-63h12.4v6.3c5.5-4.7 8.3-7.5 15.9-7.5 6.9 0 11 5 11 13.2v51h-13V77.5c0-3.2-1.9-4.6-4.7-4.6-2.8 0-5.4 1.8-8.4 4v49.4h-13.2zM188.1 120.6l7.9-10.9c5.2 4.3 9 3.8 9 3.8 5 0 7.3-2.9 7.3-9.3V41.7h14.5v63.7c0 13.9-7.8 22.1-20.8 22.1-.1.1-11.3.6-17.9-6.9zM138.6 41.7h14.5v63.9c0 6.2 2.5 9.3 7.7 9.3 5.3 0 7.7-3 7.7-9.3V41.7H183V105c0 14.6-8.4 22.5-22.3 22.5-13.8 0-22.3-8-22.3-22.5V41.7zM249.6 126.4h-14.1l15.6-84.7h18.1l15.6 84.7h-14.1l-2.6-18.8h-16l-2.5 18.8zm4.7-31.4H266l-5.7-36.4h-.3L254.3 95zM138.6 204.8v-53.5h8.5l11.2 30.6h.1v-30.6h8.3v53.5h-8L147 171.3h-.2v33.4h-8.2zM175.5 204.8v-53.5h24.6v8h-15.4V173h11.9v8h-11.9v15.7h16.5v8h-25.7zM226.2 151.2h7.6l6.2 34.1h.1l5.1-34.1h8.6l-9.4 53.5h-7.7l-6.7-35.4h-.1l-6.2 35.4H216l-10.2-53.5h8.6l5.6 34.1h.1l6.1-34.1zM292.1 204.8h-9.2v-22.3l-11.1-31.3h9.3l6.4 20.4h.1l6.2-20.4h9.3L292 182.5v22.3zM307.6 164.2c0-7.6 4.4-13.7 14.1-13.7 9.6 0 14.1 6.2 14.1 13.7v27.6c0 7.6-4.5 13.7-14.1 13.7s-14.1-6.2-14.1-13.7v-27.6zm9.2 27.4c0 4 1.2 5.9 4.9 5.9s4.9-1.9 4.9-5.9v-27.1c0-4-1.2-5.9-4.9-5.9s-4.9 1.9-4.9 5.9v27.1zM353.2 204.8H344v-53.5h12.9c10.3 0 15.6 4.4 15.6 15.8 0 8.6-3.3 12.1-6.5 13.5l7.8 24.3h-9.3l-6.5-22.2c-1.2.1-3.1.2-4.7.2v21.9zm0-29.6h3.3c5 0 6.8-1.8 6.8-8.2 0-6.4-1.9-8.2-6.8-8.2h-3.3v16.4zM380.6 204.8v-53.5h9.2V171h.1l9.6-19.8h9.2l-9.9 19.9 11.2 33.6h-9.3l-7.5-24.9h-.2l-3.3 5.9v19h-9.1z"/><circle cx="629.2" cy="47.7" r="8"/><path d="M515.1 90.7v35.6H502v-63h12.5v9.1c2.1-6.6 11.7-10.3 18.6-10.3v14.8c.1 0-18-2-18 13.8z"/></g></g></svg>