<?xml version="1.0" encoding="utf-8"?>
<!-- Generator: Adobe Illustrator 22.0.1, SVG Export Plug-In . SVG Version: 6.00 Build 0)  -->
<svg version="1.1" id="Слой_2_1_" xmlns="http://www.w3.org/2000/svg" xmlns:xlink="http://www.w3.org/1999/xlink" x="0px"
	 y="0px" viewBox="0 0 408.2 296.3" style="enable-background:new 0 0 408.2 296.3;" xml:space="preserve">
<style type="text/css">
	.st0{enable-background:new    ;}
	.st1{fill:none;stroke:#000000;stroke-miterlimit:10;}
</style>
<g class="st0">
	<path d="M45.7,250c3.2-0.3,5.7-0.6,7.6-1.1l-1.1-3c-2-5.9-3.3-9.7-3.9-11.4c-0.6-1.7-1.2-3.2-1.7-4.7c-0.6-1.5-1-2.5-1.2-2.9
		c-0.6,0-1.6,0-3.1,0.1c-1.5,0.1-3.4,0.1-5.6,0.2c-2.2,0.1-4,0.2-5.5,0.3c-1.5,0.1-2.5,0.2-3.2,0.3c-0.1,0.3-0.4,1.3-0.9,3
		c-0.5,1.7-1.1,3.7-1.7,5.9c-0.6,2.3-1.2,4.5-1.7,6.7c-0.5,2.2-0.9,4.1-1.1,5.5c0.8,0.2,1.7,0.4,2.8,0.6c1.1,0.2,2.3,0.3,3.7,0.5
		l0.3,1.6c-0.5-0.1-1.2-0.1-2.1-0.1c-0.9,0-2.1-0.1-3.6-0.1c-2.3-0.1-4.1-0.1-5.6-0.1c-1.3,0-2.8,0-4.7,0.1s-3.2,0.1-4,0.2l0.2-1.6
		c2.2-0.3,4.3-0.6,6.5-1.1c0.6-1.1,1.8-3.8,3.5-8.1c1.7-4.3,3.7-9.4,5.9-15.2c2.2-5.8,4.1-10.8,5.6-14.9c1.5-4.1,2.7-7.4,3.7-9.9
		c-0.7-0.2-1.4-0.4-2.3-0.5c-0.9-0.1-2-0.3-3.4-0.5c-0.1,0-0.2,0-0.2,0l-0.1-1.6c0.5,0,1.2,0.1,2,0.1c0.8,0,1.9,0.1,3.3,0.1
		c2,0,3.5,0.1,4.5,0.1c2,0,4.3,0,6.8-0.1c1.7,0,3-0.1,3.9-0.1c1,0,1.7-0.1,2.2-0.1l-0.2,1.6c-2.4,0.3-4.3,0.6-5.7,1
		c0.2,0.7,0.6,1.9,1.2,3.7c0.6,1.8,1.2,3.7,2,5.9c0.8,2.2,1.6,4.6,2.5,7.2c0.9,2.6,1.7,4.7,2.3,6.3c0.5,1.3,1.1,3,2,5.4
		c0.9,2.3,1.8,4.7,2.7,7.1c1,2.4,1.9,4.7,2.9,6.9c1,2.2,1.8,4.1,2.6,5.6c1.6,0.3,3.8,0.7,6.6,1.1l0.2,1.6c-0.2-0.1-0.7-0.1-1.5-0.1
		c-0.8,0-2-0.1-3.6-0.1c-2.5-0.1-5-0.1-7.4-0.1c-1.6,0-3.7,0-6.4,0.1c-1.8,0-3.1,0.1-4.1,0.1c-1,0-1.7,0.1-2.2,0.1L45.7,250z
		 M43.9,221.7c-0.4-1.1-1-3-2-5.8c-0.9-2.6-1.8-5.3-2.8-8.2c-1-2.9-1.6-4.7-1.8-5.6h-0.2c-0.6,1.8-1.1,3.2-1.5,4.3
		c-0.4,1.1-1.3,3.6-2.7,7.4c-0.9,2.5-1.7,4.7-2.4,6.7c-0.7,2-1.2,3.3-1.4,3.9l15.8,0.3C44.6,223.8,44.3,222.8,43.9,221.7z"/>
</g>
<g class="st0">
	<path d="M108.5,219.3c0-3.5,0-6.7-0.1-9.9c0-1.7,0-3.4-0.1-5.1c-0.1-1.7-0.1-2.8-0.2-3.4c-0.9-0.2-2.1-0.3-3.9-0.6
		c-1.7-0.2-3.1-0.4-4.2-0.5l-0.2-1.6c0.9,0,2.7,0.1,5.3,0.2c2.6,0.1,5.2,0.1,7.8,0.1c2.9,0,5.6,0,8.3-0.1c1.6,0,2.8-0.1,3.7-0.1
		c0.9,0,1.5-0.1,1.9-0.1l-0.4,1.6c-0.6,0.1-1.9,0.2-3.9,0.5c-2.2,0.3-3.8,0.5-5,0.6c-0.1,0.6-0.1,1.6-0.2,3.3
		c-0.1,1.6-0.1,3.3-0.2,5c-0.1,3.1-0.1,6.8-0.1,11v2.7c0,6.5,0,11.8,0.1,16c0,2.4,0.1,4.5,0.2,6.4c0,1.9,0.1,3.1,0.2,3.5
		c4.2,0,7.8-0.4,10.9-1.1c3.1-0.8,5.5-1.7,7.1-2.7c0.4-1,0.8-2,1.2-3.3c0.4-1.2,0.8-2.5,1.1-4c0.2-0.6,0.3-1.1,0.4-1.4l1.8-0.3
		c-0.9,3.7-1.6,7.6-2.3,11.6c-0.7,4-1.2,8.4-1.7,13.2l-1.7-0.4c0-0.3,0-1.3,0.2-3.2c0.1-1.7,0.2-2.9,0.2-3.6c0-0.8,0-1.4,0-2
		c-0.4,0-1.5-0.1-3.4-0.2c-1.9-0.1-4.3-0.1-7.1-0.2c-2.8-0.1-5.1-0.1-7-0.1c-1.9,0-3.4,0-4.5,0c-2.2,0-4.5,0-7,0.1
		c-1.6,0-2.8,0.1-3.7,0.1c-0.9,0-1.6,0.1-2.1,0.1l0.3-1.6c0.9,0,1.5-0.1,1.7-0.1c0.3,0,1-0.1,2.1-0.3c1.2-0.2,2-0.3,2.7-0.4
		c0.6-0.1,1.1-0.2,1.5-0.3c0-0.8,0.1-2.3,0.2-4.5s0.1-4.4,0.1-6.6c0-4.2,0.1-8.9,0.1-14.2V219.3z"/>
</g>
<g class="st0">
	<path d="M181.6,222c0-1.8,0-3.9,0-6.5c0-2.6-0.1-4.6-0.1-6.2c-0.1-1.6-0.1-3.2-0.2-4.9c-0.1-1.7-0.1-2.8-0.2-3.4
		c-0.5-0.1-1.5-0.3-3-0.5c-1.5-0.2-2.7-0.3-3.5-0.5c-0.7,0-1.1-0.1-1.3-0.2l-0.3-1.6c1.8,0,3.9,0.1,6.5,0.2c2.6,0.1,4.9,0.1,6.8,0.1
		c4.2,0,7.9,0,11.2-0.1c3.1,0,5.5-0.1,7.4-0.2c1.9-0.1,3-0.2,3.5-0.3c0.3-1,0.5-2.2,0.6-3.5l1.7-0.3c-0.1,0.4-0.2,1.2-0.4,2.5
		c-0.2,1.3-0.3,2.8-0.4,4.3c-0.1,1.5-0.3,3.2-0.4,5c-0.2,1.8-0.3,3.1-0.3,3.7l-1.7-0.5v-5.4c-0.3-0.5-1.1-1-2.5-1.4
		c-1.4-0.4-2.9-0.7-4.7-1c-1.7-0.3-3.5-0.5-5.3-0.6c-1.8-0.1-3.3-0.2-4.4-0.2c-0.1,0.2-0.1,1.1-0.2,2.8c-0.1,1.7-0.1,3.6-0.2,5.9
		s-0.1,4.5-0.2,6.7c0,2.2,0,3.7,0,4.6v1.5c3.4,0,6.6-0.1,9.6-0.3c3.1-0.2,5-0.5,5.9-0.9c0.4-1,0.6-2.1,0.8-3.2l1.6-0.2
		c-0.1,0.3-0.1,0.8-0.3,1.8c-0.1,0.9-0.3,2.4-0.6,4.5c-0.7,5-1,7.6-1.1,7.8l-1.4-0.6c0.1-2.1,0.2-3.8,0.2-5c-1.1-0.6-3-1-5.6-1.2
		c-2.6-0.3-5.6-0.4-9.1-0.4v1.5c0,0.9,0,2.6,0,5c0,2.4,0.1,4.9,0.2,7.5c0.1,2.6,0.1,4.9,0.2,6.9c0,2,0.1,3.3,0.2,3.8
		c4.1,0,7.7-0.2,10.9-0.6c3.1-0.4,5.5-1.1,7.2-2c0.3-1.2,0.7-2.7,1.1-4.5c0.3-1,0.4-1.7,0.5-2.1l1.7-0.5c-0.1,0.5-0.3,1.5-0.6,3.2
		c-0.3,1.7-0.5,3.3-0.8,5c-0.3,1.7-0.5,3.5-0.7,5.3c-0.2,1.8-0.4,3.1-0.4,3.9l-1.6-0.3c0-2.3,0-3.8-0.1-4.6
		c-0.5-0.1-1.7-0.2-3.7-0.3c-2-0.1-4.2-0.1-6.5-0.2c-2.3-0.1-4.7-0.1-7.3-0.2c-2.6-0.1-4.6-0.1-6.1-0.1c-1.6,0-3.5,0-5.9,0.1
		c-2.4,0.1-4.2,0.1-5.6,0.2l0.4-1.6c0.9,0,2.1-0.2,3.9-0.4s3-0.4,3.9-0.6c0.1-0.4,0.2-1.4,0.2-3.2c0-1.8,0.1-3.6,0.2-5.4
		c0-1.9,0.1-4.3,0.1-7.2c0-3,0-5.5,0-7.7V222z"/>
</g>
<g class="st0">
	<path d="M336.1,220c0-2.9,0-6-0.1-9.5c-0.1-1.9-0.1-3.8-0.2-5.8c-0.1-1.9-0.1-3.2-0.2-3.8c-0.7-0.2-1.9-0.3-3.6-0.6
		c-1.8-0.2-3.2-0.4-4.3-0.5l-0.4-1.6c0.3,0,0.9,0.1,1.7,0.1c0.9,0,2,0.1,3.5,0.1c2.6,0,5.2,0.1,8,0.1c2.6,0,5.2,0,7.7-0.1
		c2.5-0.1,4-0.1,4.6-0.2l-0.4,1.6c-1.1,0.1-2.4,0.3-4,0.5c-1.6,0.2-2.7,0.4-3.3,0.6c-0.1,0.5-0.1,1.5-0.2,2.9
		c-0.1,1.4-0.2,2.9-0.2,4.3c-0.1,1.5-0.1,3.2-0.1,5.2c0,2,0,3.7,0,5v3.7h2.1c6.2,0.1,11,0.1,14.5,0.1c3.9,0,7.1,0,9.7-0.1
		c2.6,0,4.2-0.1,4.9-0.2v-3.5c0-4.6,0-8-0.1-10.2c0-1.8,0-3.3-0.1-4.6c-0.1-1.3-0.2-2.1-0.3-2.6c-0.7-0.2-1.8-0.4-3.4-0.6
		c-1.6-0.3-3-0.4-4.1-0.5l-0.4-1.6c0.3,0,0.9,0.1,1.7,0.1c0.8,0,2,0.1,3.5,0.1c2.5,0,5.1,0.1,7.8,0.1c2.7,0,5.3,0,7.8-0.1
		s4.1-0.1,4.7-0.2l-0.5,1.6c-0.5,0.1-1,0.1-1.5,0.2c-0.6,0.1-1.8,0.2-3.7,0.5c-1.1,0.2-1.9,0.3-2.4,0.4c-0.1,0.3-0.2,1.4-0.3,3.2
		c-0.1,1.9-0.1,3.9-0.1,6.1c-0.1,4.2-0.2,7.4-0.2,9.7v5.3c0,5.4,0,10.1,0.2,14.1c0,2.5,0.1,4.5,0.2,6.2c0.1,1.7,0.2,2.8,0.3,3.4
		c0.8,0.2,2.1,0.4,3.9,0.6c1.8,0.3,3,0.4,3.7,0.5l0.4,1.6c-0.4-0.1-1-0.1-1.8-0.1c-0.9,0-2.1-0.1-3.6-0.1c-2.6-0.1-4.9-0.1-7.2-0.1
		c-2,0-4.2,0-6.7,0.1c-1.6,0-2.9,0.1-3.8,0.1c-1,0-1.7,0.1-2.3,0.1l0.4-1.6c0.4,0,0.7-0.1,1.1-0.1c0.4,0,1.2-0.1,2.3-0.3
		c1.2-0.2,2.1-0.3,2.7-0.4c0.6-0.1,1.1-0.2,1.4-0.2c0.1-0.6,0.2-1.6,0.3-3c0.1-1.4,0.1-3.1,0.1-5c0-2.5,0.1-6.5,0.1-12v-4.4
		c-1.1,0.1-3.1,0.1-6,0.3c-2.9,0.1-6.3,0.3-10.2,0.5c-3.9,0.2-7.3,0.4-10.2,0.6c-2.9,0.2-4.5,0.3-4.8,0.3v2.6c0,1.6,0,3.4,0,5.4
		c0,2,0.1,4,0.2,6.1c0.1,2.1,0.2,3.9,0.2,5.3c0.1,1.5,0.1,2.6,0.2,3.3c1.1,0.3,2.3,0.5,3.9,0.7c1.5,0.2,2.7,0.3,3.4,0.4l0.4,1.6
		c-0.4-0.1-1-0.1-1.8-0.1c-0.9,0-2.1-0.1-3.7-0.1c-2.5-0.1-4.7-0.1-6.8-0.1c-2.3,0-4.7,0-7.2,0.1c-1.6,0-2.9,0.1-3.8,0.1
		c-1,0-1.7,0.1-2.2,0.1l0.5-1.6c0.9,0,2.2-0.2,4-0.5c1.8-0.3,3.1-0.5,3.8-0.6c0-0.9,0.1-2.3,0.2-4.3c0.1-2,0.1-4,0.1-5.9
		c0-3.6,0.1-7.5,0.1-11.7V220z"/>
</g>
<g class="st0">
	<path d="M267.7,223c0,5.2,0,10,0.1,14.5c0,2.6,0.1,5,0.2,7.3c0,2.3,0.1,3.7,0.2,4.2c0.9,0.2,2.2,0.3,4,0.5c1.8,0.2,3.6,0.4,5.6,0.6
		l0.4,1.6c-0.6-0.1-1.4-0.1-2.4-0.1c-1.1,0-2.5-0.1-4.4-0.1c-2.8-0.1-5.3-0.1-7.5-0.1c-2.3,0-4.6,0-7.1,0.1c-1.6,0-2.8,0.1-3.7,0.1
		c-0.9,0-1.6,0.1-2.1,0.1l0.3-1.6l1.5-0.2c2.3-0.3,3.7-0.5,4.4-0.6c0.7-0.1,1.4-0.2,2.1-0.3c0-0.8,0.1-2.4,0.2-4.7s0.1-4.7,0.1-7.1
		c0-4.4,0.1-9.3,0.1-14.5v-3c0-2.8,0-5.9-0.1-9.3c-0.1-1.9-0.1-3.7-0.2-5.6c-0.1-1.9-0.1-3.2-0.2-3.8c-0.6-0.2-1.6-0.4-3.1-0.6
		s-3-0.3-4.7-0.5c-0.2,0-0.3,0-0.3,0l-0.2-1.6c0.5,0,2.8,0,6.8,0c5.1,0,8.4-0.1,9.9-0.1c8.5,0,14.6,0.7,18.1,2.2
		c1.6,0.7,2.8,1.4,3.8,2.3c1,0.9,1.8,1.7,2.3,2.6c0.5,0.9,0.8,1.7,1,2.4c0.2,0.8,0.3,1.4,0.3,2c0,2.4-0.5,4.6-1.4,6.6
		c-0.9,2-2.2,3.8-3.8,5.4c-1.2,1.2-2.5,2.2-4,3.1c-1.5,0.9-3,1.6-4.5,2.2c-1.5,0.6-2.9,1-4.2,1.4c-1.3,0.4-2.3,0.6-3.1,0.7l0.2-1.9
		c1.1-0.3,2.2-0.7,3.4-1.2c1.2-0.5,2.4-1.3,3.7-2.4c1.3-1.1,2.4-2.5,3.3-4.4c0.9-1.9,1.4-4.1,1.4-6.8c0-2.3-0.5-4.4-1.6-6.1
		c-1.1-1.8-2.6-3.1-4.5-4.1c-1.2-0.6-2.6-1-4.4-1.2c-1.8-0.3-3.5-0.4-5.3-0.4c-0.1,0.6-0.1,1.6-0.2,3.2c-0.1,1.6-0.1,3.2-0.2,4.9
		c-0.1,3.1-0.1,6.9-0.1,11.3V223z"/>
</g>
<g class="st0">
	<path d="M9.1,295.7c0-0.2,0.1-0.5,0.1-0.9c0.1-0.4,0.1-0.9,0.2-1.4c0.1-0.6,0.1-1.1,0.2-1.6c0-0.5,0.1-0.9,0.1-1.2
		c0-0.2,0-0.7,0-1.5c0-0.3,0-0.7,0.1-1.3c0-0.6,0-1.1,0-1.5c0-0.1,0-0.3,0-0.5c0-0.1,0-0.2,0-0.2l0.7,0.2c0,0.3,0,0.8,0.1,1.4
		c0.1,0.6,0.1,1.1,0.1,1.3c0.4,1,1.1,1.9,2,2.5c0.9,0.6,1.8,0.9,2.9,0.9c1.3,0,2.3-0.4,3.2-1.1s1.3-1.7,1.3-2.8
		c0-0.6-0.1-1.1-0.3-1.6c-0.2-0.5-0.5-0.9-0.9-1.3c-0.4-0.4-0.8-0.7-1.2-1.1c-0.4-0.3-1-0.7-1.6-1.1l-0.1,0
		c-0.9-0.6-1.7-1.1-2.3-1.6c-0.6-0.5-1.2-1-1.7-1.5c-0.5-0.6-0.9-1.2-1.1-1.8c-0.3-0.7-0.4-1.4-0.4-2.3c0-0.6,0.1-1.3,0.4-1.9
		c0.3-0.6,0.6-1.2,1.2-1.8c0.5-0.5,1.2-1,2-1.3c0.8-0.3,1.8-0.5,2.9-0.5c0.8,0,1.6,0.1,2.3,0.2c0.7,0.1,1.4,0.2,1.9,0.4
		c0.1-0.3,0.2-0.9,0.4-1.7c0.1-0.4,0.1-0.7,0.2-0.9l0.7-0.1c-0.5,3.6-0.8,6.4-0.8,8.6l-0.7-0.3c0-0.8,0-1.6-0.1-2.4
		c-0.2-0.6-0.7-1.3-1.5-1.9c-0.8-0.6-1.7-0.9-2.7-0.9c-1.2,0-2.2,0.3-2.8,1c-0.7,0.6-1,1.4-1,2.2c0,0.8,0.3,1.5,0.9,2.1
		s1.6,1.3,2.9,2.1c0.2,0.1,0.5,0.3,0.7,0.4c0.8,0.5,1.5,1,2.1,1.4c0.6,0.4,1.1,0.9,1.6,1.5c0.5,0.6,0.9,1.2,1.1,1.9s0.4,1.6,0.4,2.5
		c0,1.1-0.2,2-0.6,2.9c-0.4,0.8-0.9,1.6-1.6,2.2c-0.7,0.6-1.5,1-2.5,1.3c-0.9,0.3-1.9,0.5-3,0.5c-0.8,0-1.6-0.1-2.4-0.2
		s-1.5-0.3-1.9-0.6c-0.1,0.3-0.2,0.7-0.3,1.4c-0.1,0.7-0.3,1.3-0.4,1.8L9.1,295.7z"/>
</g>
<g class="st0">
	<path d="M48.4,292.3c-1.6-0.5-3.1-1.4-4.4-2.8c-1.1-1.1-1.9-2.3-2.3-3.5S41,283.5,41,282c0-1.6,0.3-3.1,0.9-4.5s1.5-2.7,2.7-3.8
		s2.6-2,4.4-2.6c1.7-0.6,3.6-1,5.7-1c1.8,0,3.3,0.2,4.7,0.5c1.4,0.4,2.7,1,4,2c1.2,0.9,2.1,2,2.8,3.4c0.7,1.4,1,2.9,1,4.4
		c0,1.9-0.3,3.6-1,5.2c-0.7,1.6-1.6,2.9-2.9,4c-1.2,1.1-2.7,2-4.3,2.6s-3.4,0.9-5.4,0.9C51.8,293.1,50,292.8,48.4,292.3z
		 M58.3,291.1c1-0.5,1.9-1.1,2.6-2c0.8-0.8,1.3-1.8,1.8-2.9s0.6-2.3,0.6-3.5c0-1.6-0.3-3.1-0.8-4.5c-0.5-1.4-1.2-2.6-2.2-3.6
		s-2-1.8-3.2-2.4s-2.4-0.8-3.7-0.8c-1.1,0-2.2,0.2-3.3,0.6c-1.1,0.4-2,1-2.9,1.7c-0.9,0.8-1.6,1.8-2.1,2.9c-0.5,1.2-0.8,2.6-0.8,4.1
		c0,1.4,0.3,2.8,0.8,4.1s1.3,2.5,2.2,3.6s2.1,1.9,3.4,2.5c1.3,0.6,2.7,0.9,4.2,0.9C56.3,291.8,57.4,291.5,58.3,291.1z"/>
</g>
<g class="st0">
	<path d="M158,280.4c0-0.7,0-1.6,0-2.7c0-1.1,0-1.9,0-2.6c0-0.7,0-1.4-0.1-2.1c0-0.7-0.1-1.2-0.1-1.4c-0.2,0-0.6-0.1-1.3-0.2
		c-0.6-0.1-1.1-0.1-1.5-0.2c-0.3,0-0.4,0-0.5-0.1l-0.1-0.7c0.7,0,1.6,0,2.7,0.1c1.1,0,2,0,2.9,0c1.7,0,3.3,0,4.7,0
		c1.3,0,2.3,0,3.1-0.1c0.8,0,1.3-0.1,1.5-0.1c0.1-0.4,0.2-0.9,0.3-1.5l0.7-0.1c0,0.1-0.1,0.5-0.2,1.1c-0.1,0.6-0.1,1.2-0.2,1.8
		c-0.1,0.6-0.1,1.3-0.2,2.1s-0.1,1.3-0.1,1.6l-0.7-0.2v-2.3c-0.1-0.2-0.5-0.4-1.1-0.6c-0.6-0.2-1.2-0.3-1.9-0.4
		c-0.7-0.1-1.5-0.2-2.2-0.3c-0.8-0.1-1.4-0.1-1.8-0.1c0,0.1,0,0.5-0.1,1.2c0,0.7,0,1.5-0.1,2.5c0,1-0.1,1.9-0.1,2.8
		c0,0.9,0,1.6,0,1.9v0.6c1.4,0,2.7,0,4-0.1s2.1-0.2,2.5-0.4c0.1-0.4,0.3-0.9,0.3-1.3l0.7-0.1c0,0.1-0.1,0.3-0.1,0.7
		c-0.1,0.4-0.1,1-0.3,1.9c-0.3,2.1-0.4,3.2-0.4,3.3l-0.6-0.3c0-0.9,0.1-1.6,0.1-2.1c-0.5-0.2-1.2-0.4-2.3-0.5
		c-1.1-0.1-2.4-0.2-3.8-0.2v0.6c0,0.4,0,1.1,0,2.1c0,1,0,2.1,0.1,3.1c0,1.1,0.1,2,0.1,2.9c0,0.8,0,1.4,0.1,1.6
		c1.7,0,3.2-0.1,4.5-0.3c1.3-0.2,2.3-0.4,3-0.8c0.1-0.5,0.3-1.1,0.5-1.9c0.1-0.4,0.2-0.7,0.2-0.9l0.7-0.2c0,0.2-0.1,0.6-0.2,1.3
		c-0.1,0.7-0.2,1.4-0.3,2.1c-0.1,0.7-0.2,1.4-0.3,2.2c-0.1,0.8-0.2,1.3-0.2,1.6l-0.7-0.1c0-0.9,0-1.6,0-1.9c-0.2,0-0.7-0.1-1.6-0.1
		c-0.8,0-1.7-0.1-2.7-0.1s-2,0-3-0.1c-1.1,0-1.9,0-2.6,0c-0.6,0-1.5,0-2.4,0s-1.8,0.1-2.3,0.1l0.2-0.7c0.4,0,0.9-0.1,1.6-0.2
		c0.7-0.1,1.3-0.2,1.6-0.3c0-0.1,0.1-0.6,0.1-1.3c0-0.7,0-1.5,0.1-2.3c0-0.8,0-1.8,0-3c0-1.2,0-2.3,0-3.2V280.4z"/>
</g>
<g class="st0">
	<path d="M382.4,277.4c0-0.3,0-0.7-0.1-1.3c0-0.6-0.1-1-0.1-1.3c-0.2-0.4-0.5-0.8-0.9-1.2c-0.4-0.4-1-0.8-1.6-1.2
		c-0.7-0.4-1.4-0.7-2.3-0.9c-0.9-0.2-1.8-0.3-2.7-0.3c-1.4,0-2.7,0.2-3.8,0.7c-1.2,0.5-2.1,1.1-3,2c-0.8,0.8-1.4,1.8-1.9,2.9
		c-0.4,1.1-0.7,2.3-0.7,3.5c0,1.5,0.3,2.9,0.9,4.3s1.4,2.6,2.5,3.6s2.3,1.9,3.7,2.5c1.4,0.6,3,0.9,4.6,0.9c1.4,0,2.7-0.1,4-0.4
		c1.3-0.3,2.4-0.7,3.5-1.3l-0.4,1.3c-0.5,0.4-1.6,0.8-3.2,1.3c-1.6,0.4-3.5,0.6-5.7,0.6c-0.4,0-0.9,0-1.4,0c-0.5,0-1.1-0.1-1.8-0.2
		c-0.7-0.1-1.4-0.2-2.1-0.4c-0.7-0.2-1.3-0.4-1.9-0.7c-2-1-3.6-2.4-4.8-4c-1.2-1.7-1.7-3.5-1.7-5.6c0-2,0.5-3.9,1.4-5.5
		c0.9-1.6,2.1-2.9,3.6-3.9c1.5-1,3-1.7,4.5-2.1c1.5-0.4,3.1-0.5,4.9-0.5c1.2,0,2.5,0.1,3.7,0.3s2.2,0.4,2.8,0.5
		c0.1-0.1,0.1-0.4,0.3-0.9s0.2-0.9,0.3-1.3c0.1-0.3,0.1-0.5,0.1-0.6l0.7-0.2c-0.4,3.1-0.6,6.3-0.7,9.7L382.4,277.4z"/>
</g>
<g class="st0">
	<path d="M316.4,270.6c0.7,0,1.4,0,2.3-0.1c1.2,0,2.2,0,2.9-0.1s1.4-0.1,2-0.1c0.2,0.3,0.6,0.8,1.3,1.7c0.7,0.9,1.5,2,2.5,3.2
		c1,1.2,1.8,2.3,2.5,3.1c0.7,0.8,1.1,1.3,1.2,1.5c0.1,0.1,0.4,0.4,0.7,0.8c0.4,0.4,0.8,0.9,1.2,1.4c0.5,0.6,1,1.3,1.5,1.8
		s0.9,1.1,1.4,1.6c0.4,0.5,0.9,1,1.2,1.4c0.4,0.4,0.6,0.7,0.8,0.8c0-1.5,0-2.9,0-4.3c0-1.4,0-3-0.1-4.7c0-1.7-0.1-3.2-0.2-4.5
		c-0.1-1.3-0.2-2.2-0.4-2.5c-0.3-0.1-0.8-0.1-1.5-0.3c-0.7-0.1-1.2-0.2-1.7-0.2l-0.2-0.7c0.1,0,0.4,0,0.8,0s0.9,0,1.5,0
		c1,0,1.8,0,2.4,0c0.5,0,1.2,0,2,0c0.5,0,1,0,1.3,0s0.5,0,0.7,0l-0.1,0.7c-0.1,0-0.3,0.1-0.8,0.2c-0.8,0.1-1.3,0.2-1.6,0.3
		c-0.1,0.3-0.2,0.6-0.2,1.1c-0.1,0.5-0.1,1-0.1,1.6s-0.1,1.1-0.1,1.8c0,0.6-0.1,1.1-0.1,1.5c0,0.1,0,0.4,0,0.8c0,0.1,0,0.6,0,1.5
		s-0.1,2.1-0.1,3.9c0,0.9-0.1,2.1-0.1,3.4c0,1.4-0.1,2.5-0.1,3.4c0,0.9-0.1,1.7-0.1,2.4c0,0.7-0.1,1.1-0.1,1.3
		c-0.2-0.1-0.6-0.6-1.2-1.3s-1.4-1.5-2.1-2.4c-0.8-0.9-1.8-2-2.9-3.3s-1.9-2.3-2.5-2.9c-0.2-0.3-0.5-0.6-0.9-1.1s-0.6-0.7-0.7-0.8
		c-0.1-0.1-0.5-0.5-1.1-1.3c-0.6-0.8-1.4-1.7-2.4-2.9c-0.9-1.1-1.7-2.1-2.5-3c-0.8-0.9-1.3-1.5-1.5-1.7c0,0,0,0.1,0,0.1
		c0,0.3,0,0.5,0,0.6c0,0.8,0,2.2,0.1,4.1c0,1.9,0.1,3.8,0.2,5.7c0.1,1.9,0.1,3.6,0.2,5.1c0.1,1.5,0.2,2.4,0.3,2.6
		c0.2,0.1,0.5,0.1,1.1,0.2s1.2,0.1,1.9,0.2c0.1,0,0.2,0,0.3,0l0.1,0.7c-0.1,0-0.4,0-0.7,0s-0.9,0-1.5,0c-1,0-1.8,0-2.4,0
		c-0.6,0-1.3,0-2.3,0s-1.6,0.1-2,0.1l0.1-0.7l0.6-0.1c0.9-0.1,1.6-0.2,2-0.3c0.1-0.3,0.2-1.4,0.3-3.3c0.1-1.9,0.2-3.9,0.3-6.2
		s0.1-4.4,0.2-6.6c0.1-2.2,0.1-3.5,0.1-3.9c-0.4-0.1-0.9-0.2-1.6-0.2s-1.3-0.1-1.9-0.1L316.4,270.6z"/>
</g>
<g class="st0">
	<path d="M295.6,281.7c0,2.6,0,4.7,0,6.3c0,0.9,0,1.6,0.1,2.4c0,0.7,0,1.2,0.1,1.3c0.3,0.1,0.8,0.2,1.4,0.2c0.6,0.1,1.2,0.1,1.9,0.2
		l0.2,0.7c-0.2,0-0.4,0-0.8,0s-0.9,0-1.6,0c-1.1,0-2.3,0-3.4,0c-0.7,0-1.5,0-2.5,0c-0.6,0-1.2,0-1.5,0s-0.7,0-0.9,0l0.1-0.7
		c0.1,0,0.3,0,0.5,0c0.2,0,0.5-0.1,1.1-0.1s0.9-0.1,1.2-0.2s0.4-0.1,0.6-0.1c0-0.3,0-0.9,0.1-1.8c0-0.9,0-1.8,0-2.7
		c0-1.7,0-3.6,0-5.7v-1.9c0-1.2,0-2.5,0-4c0-0.8,0-1.6-0.1-2.4s0-1.3-0.1-1.6c-0.1,0-0.3-0.1-0.6-0.1s-0.6-0.1-1.1-0.2
		c-0.6-0.1-1.1-0.1-1.6-0.2l-0.2-0.7c0.3,0,1,0,2.2,0.1s2.4,0,3.8,0c0.9,0,1.9,0,2.8,0c0.6,0,1,0,1.3,0c0.3,0,0.5,0,0.7,0l-0.2,0.7
		c-0.1,0-0.6,0.1-1.3,0.2c-0.9,0.1-1.6,0.2-2,0.3c-0.1,0.3-0.1,1.1-0.1,2.5c0,1.4,0,3.3,0,5.6V281.7z"/>
</g>
<g class="st0">
	<path d="M106.5,277.4c0-0.3,0-0.7-0.1-1.3c0-0.6-0.1-1-0.1-1.3c-0.2-0.4-0.5-0.8-0.9-1.2c-0.4-0.4-1-0.8-1.6-1.2
		c-0.7-0.4-1.4-0.7-2.3-0.9c-0.9-0.2-1.8-0.3-2.7-0.3c-1.4,0-2.6,0.2-3.8,0.7c-1.2,0.5-2.1,1.1-3,2c-0.8,0.8-1.4,1.8-1.9,2.9
		c-0.4,1.1-0.7,2.3-0.7,3.5c0,1.5,0.3,2.9,0.9,4.3c0.6,1.4,1.4,2.6,2.5,3.6c1.1,1.1,2.3,1.9,3.7,2.5c1.4,0.6,3,0.9,4.6,0.9
		c1.4,0,2.7-0.1,4-0.4c1.3-0.3,2.4-0.7,3.5-1.3l-0.4,1.3c-0.5,0.4-1.6,0.8-3.2,1.3c-1.6,0.4-3.5,0.6-5.7,0.6c-0.4,0-0.9,0-1.4,0
		c-0.5,0-1.1-0.1-1.8-0.2c-0.7-0.1-1.4-0.2-2.1-0.4c-0.7-0.2-1.3-0.4-1.9-0.7c-2-1-3.6-2.4-4.8-4c-1.1-1.7-1.7-3.5-1.7-5.6
		c0-2,0.5-3.9,1.4-5.5c0.9-1.6,2.1-2.9,3.6-3.9c1.5-1,3-1.7,4.5-2.1s3.1-0.5,4.9-0.5c1.2,0,2.5,0.1,3.7,0.3c1.3,0.2,2.2,0.4,2.8,0.5
		c0.1-0.1,0.1-0.4,0.3-0.9c0.1-0.5,0.2-0.9,0.3-1.3c0.1-0.3,0.1-0.5,0.1-0.6l0.7-0.2c-0.4,3.1-0.6,6.3-0.7,9.7L106.5,277.4z"/>
</g>
<g class="st0">
	<path d="M132.6,281.7c0,2.6,0,4.7,0,6.3c0,0.9,0,1.6,0.1,2.4c0,0.7,0,1.2,0.1,1.3c0.3,0.1,0.8,0.2,1.4,0.2c0.6,0.1,1.2,0.1,1.9,0.2
		l0.2,0.7c-0.2,0-0.4,0-0.8,0s-0.9,0-1.6,0c-1.1,0-2.3,0-3.4,0c-0.7,0-1.5,0-2.5,0c-0.6,0-1.2,0-1.5,0s-0.7,0-0.9,0l0.1-0.7
		c0.1,0,0.3,0,0.5,0c0.2,0,0.5-0.1,1.1-0.1s0.9-0.1,1.2-0.2s0.4-0.1,0.6-0.1c0-0.3,0-0.9,0.1-1.8c0-0.9,0-1.8,0-2.7
		c0-1.7,0-3.6,0-5.7v-1.9c0-1.2,0-2.5,0-4c0-0.8,0-1.6-0.1-2.4s0-1.3-0.1-1.6c-0.1,0-0.3-0.1-0.6-0.1s-0.6-0.1-1.1-0.2
		c-0.6-0.1-1.1-0.1-1.6-0.2l-0.2-0.7c0.3,0,1,0,2.2,0.1s2.4,0,3.8,0c0.9,0,1.9,0,2.8,0c0.6,0,1,0,1.3,0c0.3,0,0.5,0,0.7,0l-0.2,0.7
		c-0.1,0-0.6,0.1-1.3,0.2c-0.9,0.1-1.6,0.2-2,0.3c-0.1,0.3-0.1,1.1-0.1,2.5c0,1.4,0,3.3,0,5.6V281.7z"/>
</g>
<g class="st0">
	<path d="M197.3,279.6c0-1.4,0-2.8,0-4.5c0-0.9,0-1.6-0.1-2.2c0-0.5,0-0.9-0.1-1.1c-2.2,0-4,0.1-5.3,0.4s-2.2,0.6-2.8,0.9
		c-0.1,0.3-0.2,0.6-0.2,0.9c-0.1,0.4-0.2,0.8-0.3,1.5c0,0.3-0.1,0.5-0.1,0.6l-0.7,0.2c0-0.3,0-0.5,0.1-0.7c0.1-1.3,0.2-2.6,0.3-3.8
		c0.1-1.2,0.1-2.4,0.1-3.4l0.7,0.1l0,0.2c0.1,0.9,0.1,1.5,0.2,1.8c0.1,0,0.5,0.1,1.2,0.1c0.7,0,1.5,0.1,2.5,0.1c0.9,0,2,0.1,3.2,0.1
		c1.2,0,2.3,0,3.2,0c1,0,2.1,0,3.2,0c1.1,0,2.3-0.1,3.4-0.1c1.1,0,2-0.1,2.7-0.1s1-0.1,1.1-0.1c0-0.1,0.1-0.3,0.2-0.6
		c0.1-0.3,0.1-0.6,0.2-0.9c0-0.1,0.1-0.3,0.1-0.4l0.8-0.1c0,0.2-0.1,0.7-0.2,1.5c-0.1,0.8-0.2,1.6-0.3,2.3c-0.1,0.7-0.2,1.6-0.3,2.5
		s-0.2,1.6-0.2,1.8l-0.7-0.2c0-0.4,0-0.9,0-1.4s0-1.1,0-1.8c-0.2-0.1-0.6-0.3-1.1-0.5c-0.6-0.2-1.3-0.3-2.1-0.4s-1.7-0.2-2.5-0.3
		c-0.9-0.1-1.7-0.1-2.4-0.1c0,0.2,0,0.6-0.1,1.3c0,0.7,0,1.4-0.1,2.1c0,1.6,0,3,0,4.4v1.4c0,1.5,0,3.3,0,5.4c0,1.3,0,2.3,0.1,3.1
		c0,0.8,0,1.5,0.1,2.1c0.2,0,0.6,0.1,1.2,0.2c0.6,0.1,1.3,0.1,2.2,0.2c0.2,0,0.4,0,0.6,0.1l0.1,0.7c-0.2,0-0.5,0-0.9,0
		c-0.4,0-1,0-1.8,0c-1.2,0-2.4,0-3.4,0c-0.9,0-2,0-3.2,0c-0.8,0-1.4,0-1.9,0c-0.4,0-0.8,0-1,0l0.2-0.7c0.2,0,0.6-0.1,1.1-0.1
		c0.5-0.1,1.5-0.2,3-0.3c0-0.5,0-1.3,0.1-2.3c0-1.1,0-2,0.1-2.8c0-2.1,0-3.9,0-5.4V279.6z"/>
</g>
<g class="st0">
	<path d="M236.3,284.7c0-0.4,0-0.7,0-1c0-0.3,0-0.7-0.1-1c-0.1-0.2-0.4-0.8-1.1-1.9c-0.7-1-1.4-2.2-2.3-3.5
		c-0.9-1.3-1.7-2.5-2.5-3.6c-0.8-1.1-1.4-1.8-1.7-2.1c-0.1-0.1-0.3-0.1-0.5-0.2s-0.6-0.1-0.9-0.2c-0.3-0.1-0.6-0.1-0.7-0.1l-0.1-0.7
		c0.3,0,0.9,0.1,1.8,0.1s2.2,0,3.6,0c1,0,1.9,0,2.7,0s1.4-0.1,1.6-0.1l-0.2,0.7c-0.2,0-0.6,0.1-1.2,0.2c-0.8,0.1-1.2,0.2-1.5,0.3
		c0.5,0.9,1,1.8,1.6,2.7c0.6,0.9,1.4,2.2,2.5,3.8c0.5,0.8,0.9,1.5,1.2,1.9c0.3,0.5,0.5,0.8,0.7,1.1c0.1-0.1,0.4-0.7,1-1.6
		c0.6-0.9,1.1-1.7,1.5-2.4c0.5-0.8,0.9-1.5,1.3-2.2s0.8-1.4,1.1-2c0.3-0.6,0.4-1,0.5-1.2c-0.3-0.1-0.7-0.1-1.2-0.2
		c-0.5-0.1-0.9-0.2-1.2-0.2l-0.1-0.7c0.2,0,0.7,0,1.5,0.1c0.7,0,1.6,0,2.5,0c0.8,0,1.5,0,2.2,0c0.7,0,1.2-0.1,1.6-0.1l-0.1,0.7
		l-0.5,0.1c-0.8,0.1-1.3,0.2-1.7,0.3c-0.2,0.1-0.6,0.6-1.4,1.5s-1.6,2.1-2.5,3.4c-1,1.3-1.8,2.6-2.5,3.7c-0.7,1.1-1.1,1.8-1.2,2.1
		c0,0.3-0.1,0.6-0.1,1c0,0.4,0,0.8,0,1.2v1.2c0,0.9,0,1.9,0,2.9c0,0.6,0,1.1,0.1,1.7c0,0.6,0,1,0.1,1.2c0.1,0,0.4,0.1,0.8,0.1
		s0.8,0.1,1.2,0.2c0.5,0.1,0.9,0.1,1.1,0.2l0.1,0.7c-0.3,0-1,0-2.1-0.1c-1.1,0-2.3,0-3.5,0c-0.7,0-1.4,0-2.3,0s-1.5,0.1-2,0.1
		l0.2-0.7c0.4,0,0.9-0.1,1.4-0.2c0.6-0.1,1-0.2,1.3-0.3c0-0.1,0-0.4,0.1-0.9c0-0.5,0-1,0.1-1.5c0-1,0-2.2,0-3.5V284.7z"/>
</g>
<g class="st0">
	<path d="M397.6,293l-0.1-3.4l3.6-0.7l0.2,3.4L397.6,293z"/>
</g>
<line class="st1" x1="4.4" y1="4.1" x2="4.4" y2="253.4"/>
<line class="st1" x1="311.3" y1="4.1" x2="311.3" y2="253.4"/>
<line class="st1" x1="404.8" y1="4.1" x2="404.8" y2="253.4"/>
<line class="st1" x1="235" y1="4.1" x2="235" y2="253.4"/>
<line class="st1" x1="159.2" y1="4.1" x2="159.2" y2="253.4"/>
<line class="st1" x1="83.9" y1="4.1" x2="83.9" y2="253.4"/>
</svg>
