<?xml version="1.0" encoding="utf-8"?>
<!-- Generator: Adobe Illustrator 22.0.1, SVG Export Plug-In . SVG Version: 6.00 Build 0)  -->
<svg version="1.1" id="Слой_1" xmlns="http://www.w3.org/2000/svg" xmlns:xlink="http://www.w3.org/1999/xlink" x="0px" y="0px"
	 viewBox="0 0 158 39.4" style="enable-background:new 0 0 158 39.4;" xml:space="preserve">
<style type="text/css">
	.st0{fill:#003644;}
	.st1{fill:#BBBDBF;}
	.st2{fill:#00ACBC;}
	.st3{enable-background:new    ;}
</style>
<polygon class="st0" points="1.6,27.8 5.1,27.8 11.2,17.1 5.1,27.8 11.2,17.1 8.1,16.5 8.2,16.4 "/>
<polygon class="st1" points="16.3,12.8 6.1,12.8 8.5,17.1 16.3,17.1 16.3,20.3 10.4,20.3 12.9,24.6 16.3,24.6 16.3,27.8 11.5,27.8 
	1.1,9.6 16.3,9.6 "/>
<polygon class="st2" points="19.6,27.8 23,27.8 33.7,9.6 28.6,12.8 21.7,24.6 19.5,24.6 19.5,12.8 16.3,9.6 16.3,37.7 19.5,32.3 "/>
<polygon class="st0" points="8.5,17.1 11.2,17.1 17.4,6.5 23.4,17.1 19.5,17.1 19.5,20.3 25.4,20.3 29.7,27.8 33.3,27.8 17.4,0.4 
	12.7,8.5 12.3,9.2 12.1,9.6 11.4,10.8 8.2,16.4 8.1,16.5 "/>
<polygon class="st2" points="33.7,9.6 28.6,12.8 19.5,12.8 16.3,9.6 "/>
<polygon class="st0" points="34,20.6 152.9,20.6 152.9,27.8 39.1,27.9 "/>
<rect x="154.4" y="4.6" class="st2" width="2.9" height="5.3"/>
<g class="st3">
	<path class="st0" d="M35.8,15h-1.1v0.7H36v0.6H34v-3h1.9v0.6h-1.2v0.6h1.1V15z"/>
</g>
<g class="st3">
	<path class="st0" d="M36.3,13.3c0.2,0,0.5-0.1,0.9-0.1c0.4,0,0.7,0,0.9,0.2c0.2,0.1,0.4,0.3,0.4,0.6c0,0.3-0.2,0.5-0.5,0.6v0
		c0.3,0.1,0.6,0.4,0.6,0.7c0,0.3-0.1,0.5-0.3,0.6c-0.2,0.2-0.6,0.3-1.2,0.3c-0.3,0-0.6,0-0.7,0V13.3z M37,14.4h0.2
		c0.4,0,0.6-0.1,0.6-0.4c0-0.2-0.2-0.4-0.5-0.4c-0.2,0-0.2,0-0.3,0V14.4z M37,15.8c0.1,0,0.1,0,0.3,0c0.3,0,0.6-0.1,0.6-0.4
		c0-0.3-0.3-0.4-0.6-0.4H37V15.8z"/>
</g>
<g class="st3">
	<path class="st0" d="M39,13.3c0.2,0,0.5-0.1,0.9-0.1c0.4,0,0.7,0.1,0.9,0.2c0.2,0.2,0.3,0.4,0.3,0.7s-0.1,0.6-0.3,0.7
		c-0.2,0.2-0.6,0.3-1,0.3c-0.1,0-0.2,0-0.2,0v1.1H39V13.3z M39.7,14.6c0.1,0,0.1,0,0.2,0c0.4,0,0.6-0.2,0.6-0.5
		c0-0.3-0.2-0.4-0.5-0.4c-0.1,0-0.2,0-0.3,0V14.6z"/>
</g>
<g class="st3">
	<path class="st0" d="M43.3,15h-1.1v0.7h1.2v0.6h-1.9v-3h1.9v0.6h-1.2v0.6h1.1V15z"/>
	<path class="st0" d="M44.6,13.2v0.9c0,0.5,0,1,0,1.4h0c0.2-0.4,0.4-0.8,0.5-1.1l0.7-1.2h0.7v3h-0.6v-0.9c0-0.5,0-0.9,0-1.3h0
		c-0.1,0.4-0.3,0.8-0.5,1.1l-0.6,1.1h-0.8v-3H44.6z M45,12.5c0,0.2,0.1,0.3,0.2,0.3c0.1,0,0.2-0.1,0.2-0.3h0.5
		c0,0.4-0.3,0.6-0.7,0.6c-0.4,0-0.6-0.2-0.7-0.6H45z"/>
	<path class="st0" d="M49.2,16.2c-0.1,0.1-0.4,0.1-0.8,0.1c-1,0-1.6-0.7-1.6-1.5c0-1,0.7-1.6,1.7-1.6c0.4,0,0.6,0.1,0.7,0.1
		l-0.1,0.5c-0.1-0.1-0.3-0.1-0.6-0.1c-0.5,0-1,0.3-1,1c0,0.6,0.4,1,1,1c0.2,0,0.4,0,0.6-0.1L49.2,16.2z"/>
</g>
<g class="st3">
	<path class="st0" d="M50.2,13.2v1.3h0.1l0.8-1.3h0.8l-1.1,1.4c0.4,0.1,0.6,0.4,0.7,0.7c0.1,0.3,0.2,0.7,0.4,1h-0.7
		c-0.1-0.2-0.2-0.4-0.2-0.7c-0.1-0.3-0.2-0.6-0.6-0.6h-0.1v1.3h-0.7v-3H50.2z"/>
</g>
<g class="st3">
	<path class="st0" d="M54.9,14.7c0,1-0.6,1.6-1.5,1.6c-0.9,0-1.4-0.7-1.4-1.5c0-0.9,0.6-1.6,1.5-1.6C54.4,13.2,54.9,13.9,54.9,14.7z
		 M52.7,14.7c0,0.6,0.3,1,0.7,1c0.5,0,0.7-0.4,0.7-1c0-0.5-0.3-1-0.7-1C53,13.7,52.7,14.2,52.7,14.7z"/>
</g>
<g class="st3">
	<path class="st0" d="M57.1,13.2v0.6h-1.1v2.5h-0.7v-3H57.1z"/>
</g>
<g class="st3">
	<path class="st0" d="M60,14.7c0,1-0.6,1.6-1.5,1.6c-0.9,0-1.4-0.7-1.4-1.5c0-0.9,0.6-1.6,1.5-1.6C59.5,13.2,60,13.9,60,14.7z
		 M57.8,14.7c0,0.6,0.3,1,0.7,1c0.5,0,0.7-0.4,0.7-1c0-0.5-0.3-1-0.7-1C58.1,13.7,57.8,14.2,57.8,14.7z"/>
	<path class="st0" d="M62.1,15.5l-0.2,0.8h-0.7l0.9-3H63l0.9,3h-0.7l-0.2-0.8H62.1z M62.8,15l-0.2-0.6c-0.1-0.2-0.1-0.4-0.2-0.6h0
		c0,0.2-0.1,0.4-0.1,0.6L62.2,15H62.8z"/>
	<path class="st0" d="M66.1,13.2v0.6H65v2.5h-0.7v-3H66.1z"/>
	<path class="st0" d="M68.3,15h-1.1v0.7h1.2v0.6h-1.9v-3h1.9v0.6h-1.2v0.6h1.1V15z"/>
	<path class="st0" d="M69.6,13.2v1.2h1.1v-1.2h0.7v3h-0.7V15h-1.1v1.3h-0.7v-3H69.6z"/>
</g>
<g class="st3">
	<path class="st0" d="M72.1,13.8h-0.8v-0.6h2.3v0.6h-0.8v2.5h-0.7V13.8z"/>
</g>
<g class="st3">
	<path class="st0" d="M76,16.2c-0.1,0.1-0.4,0.1-0.8,0.1c-1,0-1.6-0.7-1.6-1.5c0-1,0.7-1.6,1.7-1.6c0.4,0,0.6,0.1,0.7,0.1l-0.1,0.5
		c-0.1-0.1-0.3-0.1-0.6-0.1c-0.5,0-1,0.3-1,1c0,0.6,0.4,1,1,1c0.2,0,0.4,0,0.6-0.1L76,16.2z"/>
</g>
<g class="st3">
	<path class="st0" d="M77.1,13.8h-0.8v-0.6h2.3v0.6h-0.8v2.5h-0.7V13.8z"/>
</g>
<g class="st3">
	<path class="st0" d="M78.9,13.3c0.2,0,0.5-0.1,0.9-0.1c0.4,0,0.7,0,0.9,0.2c0.2,0.1,0.4,0.3,0.4,0.6c0,0.3-0.2,0.5-0.5,0.6v0
		c0.3,0.1,0.6,0.4,0.6,0.7c0,0.3-0.1,0.5-0.3,0.6c-0.2,0.2-0.6,0.3-1.2,0.3c-0.3,0-0.6,0-0.7,0V13.3z M79.6,14.4h0.2
		c0.4,0,0.6-0.1,0.6-0.4c0-0.2-0.2-0.4-0.5-0.4c-0.2,0-0.2,0-0.3,0V14.4z M79.6,15.8c0.1,0,0.1,0,0.3,0c0.3,0,0.6-0.1,0.6-0.4
		c0-0.3-0.3-0.4-0.6-0.4h-0.2V15.8z"/>
</g>
<g class="st3">
	<path class="st0" d="M82.2,15.5L82,16.3h-0.7l0.9-3h0.9l0.9,3h-0.7l-0.2-0.8H82.2z M83,15l-0.2-0.6c-0.1-0.2-0.1-0.4-0.2-0.6h0
		c0,0.2-0.1,0.4-0.1,0.6L82.3,15H83z"/>
</g>
<g class="st3">
	<path class="st0" d="M87.7,13.2v3H87v-2.5h-1.1v2.5h-0.7v-3H87.7z"/>
	<path class="st0" d="M91,14.7c0,1-0.6,1.6-1.5,1.6c-0.9,0-1.4-0.7-1.4-1.5c0-0.9,0.6-1.6,1.5-1.6C90.5,13.2,91,13.9,91,14.7z
		 M88.8,14.7c0,0.6,0.3,1,0.7,1c0.5,0,0.7-0.4,0.7-1c0-0.5-0.3-1-0.7-1C89.1,13.7,88.8,14.2,88.8,14.7z"/>
</g>
<g class="st3">
	<path class="st0" d="M92.2,13.3c0.2,0,0.5-0.1,0.9-0.1c0.4,0,0.7,0.1,0.9,0.2c0.2,0.2,0.3,0.4,0.3,0.7s-0.1,0.6-0.3,0.7
		c-0.2,0.2-0.6,0.3-1,0.3c-0.1,0-0.2,0-0.2,0v1.1h-0.7V13.3z M92.9,14.6c0.1,0,0.1,0,0.2,0c0.4,0,0.6-0.2,0.6-0.5
		c0-0.3-0.2-0.4-0.5-0.4c-0.1,0-0.2,0-0.3,0V14.6z"/>
</g>
<g class="st3">
	<path class="st0" d="M95.1,15.5l-0.2,0.8h-0.7l0.9-3H96l0.9,3h-0.7L96,15.5H95.1z M95.9,15l-0.2-0.6c-0.1-0.2-0.1-0.4-0.2-0.6h0
		c0,0.2-0.1,0.4-0.1,0.6L95.2,15H95.9z"/>
</g>
<g class="st3">
	<path class="st0" d="M97.2,13.4c0.2-0.1,0.5-0.2,0.9-0.2c0.7,0,1.1,0.3,1.1,0.8c0,0.4-0.3,0.6-0.6,0.7v0c0.4,0.1,0.7,0.3,0.7,0.7
		c0,0.7-0.7,0.9-1.2,0.9c-0.3,0-0.7-0.1-0.9-0.2l0.1-0.5c0.1,0.1,0.5,0.2,0.7,0.2c0.3,0,0.6-0.1,0.6-0.4c0-0.3-0.4-0.4-0.6-0.4h-0.3
		v-0.5H98c0.3,0,0.5-0.1,0.5-0.4c0-0.2-0.2-0.3-0.5-0.3c-0.2,0-0.5,0.1-0.7,0.2L97.2,13.4z"/>
	<path class="st0" d="M99.8,13.3c0.2,0,0.5-0.1,0.9-0.1c0.4,0,0.7,0,0.9,0.2c0.2,0.1,0.4,0.3,0.4,0.6c0,0.3-0.2,0.5-0.5,0.6v0
		c0.3,0.1,0.6,0.4,0.6,0.7c0,0.3-0.1,0.5-0.3,0.6c-0.2,0.2-0.6,0.3-1.2,0.3c-0.3,0-0.6,0-0.7,0V13.3z M100.4,14.4h0.2
		c0.4,0,0.6-0.1,0.6-0.4c0-0.2-0.2-0.4-0.5-0.4c-0.2,0-0.2,0-0.3,0V14.4z M100.4,15.8c0.1,0,0.1,0,0.3,0c0.3,0,0.6-0.1,0.6-0.4
		c0-0.3-0.3-0.4-0.6-0.4h-0.2V15.8z"/>
	<path class="st0" d="M103.1,13.2v0.9c0,0.5,0,1,0,1.4h0c0.2-0.4,0.4-0.8,0.5-1.1l0.7-1.2h0.7v3h-0.6v-0.9c0-0.5,0-0.9,0-1.3h0
		c-0.1,0.4-0.3,0.8-0.5,1.1l-0.6,1.1h-0.8v-3H103.1z"/>
	<path class="st0" d="M106.2,13.8h-0.8v-0.6h2.3v0.6h-0.8v2.5h-0.7V13.8z"/>
	<path class="st0" d="M108.7,13.2v0.9c0,0.5,0,1,0,1.4h0c0.2-0.4,0.4-0.8,0.5-1.1l0.7-1.2h0.7v3h-0.6v-0.9c0-0.5,0-0.9,0-1.3h0
		c-0.1,0.4-0.3,0.8-0.5,1.1l-0.6,1.1H108v-3H108.7z"/>
	<path class="st0" d="M111.8,13.2v1.2h0.4c0.1-0.7,0.6-1.2,1.3-1.2c0.9,0,1.3,0.7,1.3,1.5c0,1-0.6,1.6-1.4,1.6
		c-0.8,0-1.2-0.6-1.3-1.3h-0.3v1.3h-0.7v-3H111.8z M114.2,14.7c0-0.5-0.2-1-0.6-1s-0.7,0.5-0.7,1c0,0.6,0.2,1,0.7,1
		C113.9,15.8,114.2,15.3,114.2,14.7z"/>
</g>
<g class="st3">
	<path class="st0" d="M117.9,16.2c-0.1,0.1-0.4,0.1-0.8,0.1c-1,0-1.6-0.7-1.6-1.5c0-1,0.7-1.6,1.7-1.6c0.4,0,0.6,0.1,0.7,0.1
		l-0.1,0.5c-0.1-0.1-0.3-0.1-0.6-0.1c-0.5,0-1,0.3-1,1c0,0.6,0.4,1,1,1c0.2,0,0.4,0,0.6-0.1L117.9,16.2z"/>
	<path class="st0" d="M118.4,13.3c0.2,0,0.5-0.1,0.9-0.1c0.4,0,0.7,0,0.9,0.2c0.2,0.1,0.4,0.3,0.4,0.6c0,0.3-0.2,0.5-0.5,0.6v0
		c0.3,0.1,0.6,0.4,0.6,0.7c0,0.3-0.1,0.5-0.3,0.6c-0.2,0.2-0.6,0.3-1.2,0.3c-0.3,0-0.6,0-0.7,0V13.3z M119.1,14.4h0.2
		c0.4,0,0.6-0.1,0.6-0.4c0-0.2-0.2-0.4-0.5-0.4c-0.2,0-0.2,0-0.3,0V14.4z M119.1,15.8c0.1,0,0.1,0,0.3,0c0.3,0,0.6-0.1,0.6-0.4
		c0-0.3-0.3-0.4-0.6-0.4h-0.2V15.8z"/>
</g>
<g class="st3">
	<path class="st0" d="M120.8,16.3c0.1-0.1,0.1-0.2,0.2-0.3c0.1-0.3,0.2-0.7,0.4-0.9c0.1-0.1,0.2-0.1,0.3-0.2v0
		c-0.3-0.1-0.6-0.3-0.6-0.7c0-0.3,0.1-0.5,0.3-0.6c0.2-0.2,0.6-0.2,1-0.2c0.3,0,0.6,0,0.9,0.1v3h-0.7v-1.2h-0.2
		c-0.1,0-0.2,0-0.3,0.1c-0.2,0.2-0.3,0.6-0.4,0.8c0,0.1-0.1,0.2-0.1,0.3H120.8z M122.4,13.7c0,0-0.1,0-0.3,0c-0.3,0-0.5,0.1-0.5,0.4
		c0,0.3,0.3,0.4,0.6,0.4c0.1,0,0.2,0,0.2,0V13.7z"/>
</g>
<g class="st3">
	<path class="st0" d="M123.3,13.4c0.2-0.1,0.5-0.2,0.9-0.2c0.7,0,1.1,0.3,1.1,0.8c0,0.4-0.3,0.6-0.6,0.7v0c0.4,0.1,0.7,0.3,0.7,0.7
		c0,0.7-0.7,0.9-1.2,0.9c-0.3,0-0.7-0.1-0.9-0.2l0.1-0.5c0.1,0.1,0.5,0.2,0.7,0.2c0.3,0,0.6-0.1,0.6-0.4c0-0.3-0.4-0.4-0.6-0.4h-0.3
		v-0.5h0.3c0.3,0,0.5-0.1,0.5-0.4c0-0.2-0.2-0.3-0.5-0.3c-0.2,0-0.5,0.1-0.7,0.2L123.3,13.4z"/>
</g>
<g class="st3">
	<path class="st0" d="M127.6,15h-1.1v0.7h1.2v0.6h-1.9v-3h1.9v0.6h-1.2v0.6h1.1V15z"/>
</g>
<g class="st3">
	<path class="st0" d="M128.7,13.2v0.9c0,0.5,0,1,0,1.4h0c0.2-0.4,0.4-0.8,0.5-1.1l0.7-1.2h0.7v3h-0.6v-0.9c0-0.5,0-0.9,0-1.3h0
		c-0.1,0.4-0.3,0.8-0.5,1.1l-0.6,1.1h-0.8v-3H128.7z M129.1,12.5c0,0.2,0.1,0.3,0.2,0.3c0.1,0,0.2-0.1,0.2-0.3h0.5
		c0,0.4-0.3,0.6-0.7,0.6c-0.4,0-0.6-0.2-0.7-0.6H129.1z"/>
	<path class="st0" d="M134.3,16.2c-0.1,0.1-0.4,0.1-0.8,0.1c-1,0-1.6-0.7-1.6-1.5c0-1,0.7-1.6,1.7-1.6c0.4,0,0.6,0.1,0.7,0.1
		l-0.1,0.5c-0.1-0.1-0.3-0.1-0.6-0.1c-0.5,0-1,0.3-1,1c0,0.6,0.4,1,1,1c0.2,0,0.4,0,0.6-0.1L134.3,16.2z"/>
</g>
<g class="st3">
	<path class="st0" d="M136,13.2v0.9c0,0.5,0,1,0,1.4h0c0.2-0.4,0.4-0.8,0.5-1.1l0.7-1.2h0.7v3h-0.6v-0.9c0-0.5,0-0.9,0-1.3h0
		c-0.1,0.4-0.3,0.8-0.5,1.1l-0.6,1.1h-0.8v-3H136z"/>
	<path class="st0" d="M138.4,13.4c0.2-0.1,0.5-0.2,0.9-0.2c0.7,0,1.1,0.3,1.1,0.8c0,0.4-0.3,0.6-0.6,0.7v0c0.4,0.1,0.7,0.3,0.7,0.7
		c0,0.7-0.7,0.9-1.2,0.9c-0.3,0-0.7-0.1-0.9-0.2l0.1-0.5c0.1,0.1,0.5,0.2,0.7,0.2c0.3,0,0.6-0.1,0.6-0.4c0-0.3-0.4-0.4-0.6-0.4h-0.3
		v-0.5h0.3c0.3,0,0.5-0.1,0.5-0.4c0-0.2-0.2-0.3-0.5-0.3c-0.2,0-0.5,0.1-0.7,0.2L138.4,13.4z"/>
</g>
<g class="st3">
	<path class="st0" d="M140.8,13.3c0.2,0,0.5-0.1,0.9-0.1c0.4,0,0.7,0.1,0.9,0.2c0.2,0.2,0.3,0.4,0.3,0.7s-0.1,0.6-0.3,0.7
		c-0.2,0.2-0.6,0.3-1,0.3c-0.1,0-0.2,0-0.2,0v1.1h-0.7V13.3z M141.4,14.6c0.1,0,0.1,0,0.2,0c0.4,0,0.6-0.2,0.6-0.5
		c0-0.3-0.2-0.4-0.5-0.4c-0.1,0-0.2,0-0.3,0V14.6z"/>
</g>
<g class="st3">
	<path class="st0" d="M143.8,15.5l-0.2,0.8h-0.7l0.9-3h0.9l0.9,3h-0.7l-0.2-0.8H143.8z M144.5,15l-0.2-0.6c-0.1-0.2-0.1-0.4-0.2-0.6
		h0c0,0.2-0.1,0.4-0.1,0.6l-0.2,0.6H144.5z"/>
	<path class="st0" d="M146.6,13.2v0.9c0,0.5,0,1,0,1.4h0c0.2-0.4,0.4-0.8,0.5-1.1l0.7-1.2h0.7v3h-0.6v-0.9c0-0.5,0-0.9,0-1.3h0
		c-0.1,0.4-0.3,0.8-0.5,1.1l-0.6,1.1H146v-3H146.6z"/>
	<path class="st0" d="M151.4,13.2v3h-0.7v-2.5H150v0.7c0,0.8-0.1,1.4-0.6,1.7c-0.2,0.1-0.4,0.1-0.6,0.1l-0.1-0.6
		c0.1,0,0.3-0.1,0.3-0.2c0.2-0.2,0.2-0.6,0.2-1v-1.3H151.4z"/>
	<path class="st0" d="M153.8,15h-1.1v0.7h1.2v0.6H152v-3h1.9v0.6h-1.2v0.6h1.1V15z"/>
	<path class="st0" d="M157,15.1c0-0.4,0-0.8,0-1.2h0c-0.1,0.4-0.2,0.8-0.3,1.2l-0.4,1.2h-0.5l-0.3-1.2c-0.1-0.4-0.2-0.8-0.3-1.2h0
		c0,0.4,0,0.9,0,1.3l-0.1,1.2h-0.6l0.2-3h0.9l0.3,1c0.1,0.4,0.2,0.7,0.3,1.1h0c0.1-0.4,0.2-0.8,0.3-1.1l0.3-1h0.9l0.2,3H157
		L157,15.1z"/>
</g>
<g class="st3">
	<path class="st0" d="M27.8,7.1l-0.4,1.3h-0.3l1.3-3.7h0.2l1.3,3.7h-0.3l-0.5-1.3H27.8z M29.1,6.8l-0.4-1.2
		c-0.1-0.3-0.1-0.4-0.2-0.7h0c-0.1,0.2-0.1,0.4-0.2,0.6l-0.4,1.3H29.1z"/>
	<path class="st0" d="M30.8,4.6v1.6h2V4.6H33v3.7h-0.3V6.5h-2v1.9h-0.3V4.6H30.8z"/>
	<path class="st0" d="M35.2,8.4c-0.9,0-1.6-0.7-1.6-1.9c0-1.2,0.7-2,1.6-2c0.9,0,1.6,0.7,1.6,1.9C36.9,7.8,36.1,8.4,35.2,8.4
		L35.2,8.4z M35.3,8.2c0.9,0,1.3-0.8,1.3-1.7c0-0.8-0.4-1.7-1.3-1.7c-0.9,0-1.4,0.9-1.4,1.7C33.9,7.4,34.4,8.2,35.3,8.2L35.3,8.2z"
		/>
</g>
<g class="st3">
	<path class="st0" d="M40.4,4.6v0.2h-1.6v1.2c0.1,0,0.3,0,0.5,0c0.3,0,0.6,0.1,0.9,0.2c0.3,0.2,0.5,0.5,0.5,0.9
		c0,0.3-0.1,0.6-0.3,0.8c-0.3,0.3-0.7,0.4-1.2,0.4c-0.3,0-0.5,0-0.6,0V4.6H40.4z M38.9,8.1c0.1,0,0.3,0,0.4,0c0.3,0,0.7-0.1,0.9-0.3
		c0.1-0.2,0.2-0.4,0.2-0.6c0-0.3-0.1-0.6-0.4-0.7c-0.2-0.1-0.5-0.2-0.8-0.2c-0.1,0-0.3,0-0.4,0V8.1z"/>
</g>
<g class="st3">
	<path class="st0" d="M43,6.5h-1.5v1.6h1.6v0.2h-1.9V4.6h1.8v0.2h-1.5v1.4H43V6.5z"/>
	<path class="st0" d="M45.2,8.4c-0.9,0-1.6-0.7-1.6-1.9c0-1.2,0.7-2,1.6-2c0.9,0,1.6,0.7,1.6,1.9C46.8,7.8,46,8.4,45.2,8.4L45.2,8.4
		z M45.2,8.2c0.9,0,1.3-0.8,1.3-1.7c0-0.8-0.4-1.7-1.3-1.7c-0.9,0-1.4,0.9-1.4,1.7C43.9,7.4,44.4,8.2,45.2,8.2L45.2,8.2z"/>
</g>
<g class="st3">
	<path class="st0" d="M48.6,7l0.8,1h-0.3l-0.8-1l0.8-1h0.3L48.6,7z M49.4,7l0.8,1h-0.3l-0.8-1l0.8-1h0.3L49.4,7z"/>
</g>
<g class="st3">
	<path class="st0" d="M53.2,8.2c-0.2,0.1-0.5,0.2-1,0.2c-0.9,0-1.7-0.6-1.7-1.9c0-1.1,0.7-1.9,1.8-1.9c0.5,0,0.7,0.1,0.8,0.2L53.1,5
		c-0.2-0.1-0.4-0.2-0.8-0.2c-1,0-1.6,0.6-1.6,1.7c0,1,0.6,1.7,1.5,1.7c0.3,0,0.6-0.1,0.8-0.2L53.2,8.2z"/>
</g>
<g class="st3">
	<path class="st0" d="M53.8,7c0,0.8,0.5,1.2,1,1.2c0.4,0,0.6-0.1,0.7-0.1l0.1,0.2c-0.1,0.1-0.4,0.2-0.8,0.2c-0.7,0-1.2-0.6-1.2-1.3
		c0-0.9,0.5-1.4,1.2-1.4c0.8,0,1,0.8,1,1.2c0,0.1,0,0.1,0,0.2H53.8z M55.4,6.8c0-0.4-0.1-0.9-0.8-0.9c-0.6,0-0.8,0.5-0.9,0.9H55.4z"
		/>
</g>
<g class="st3">
	<path class="st0" d="M56.3,5.7c0.2,0,0.4-0.1,0.7-0.1c0.4,0,1.1,0.1,1.1,0.7c0,0.3-0.2,0.5-0.6,0.6v0c0.4,0,0.7,0.3,0.7,0.7
		c0,0.7-0.8,0.8-1.3,0.8c-0.2,0-0.5,0-0.6,0V5.7z M56.5,8.1c0.2,0,0.3,0,0.4,0c0.3,0,0.9-0.1,0.9-0.5c0-0.5-0.5-0.5-1-0.5h-0.4V8.1z
		 M56.6,6.9H57c0.4,0,0.8-0.1,0.8-0.5c0-0.3-0.3-0.5-0.8-0.5c-0.2,0-0.3,0-0.4,0V6.9z"/>
</g>
<g class="st3">
	<path class="st0" d="M58.9,7c0,0.8,0.5,1.2,1,1.2c0.4,0,0.6-0.1,0.7-0.1l0.1,0.2c-0.1,0.1-0.4,0.2-0.8,0.2c-0.7,0-1.2-0.6-1.2-1.3
		c0-0.9,0.5-1.4,1.2-1.4c0.8,0,1,0.8,1,1.2c0,0.1,0,0.1,0,0.2H58.9z M60.5,6.8c0-0.4-0.1-0.9-0.8-0.9c-0.6,0-0.8,0.5-0.9,0.9H60.5z"
		/>
	<path class="st0" d="M61.4,6.6c0-0.3,0-0.6,0-0.8h0.2l0,0.5h0c0.2-0.3,0.5-0.6,1-0.6c0.7,0,1.1,0.6,1.1,1.3c0,0.9-0.6,1.4-1.2,1.4
		c-0.4,0-0.7-0.2-0.9-0.5h0v1.5h-0.3V6.6z M61.7,7.3c0,0.1,0,0.1,0,0.2c0.1,0.4,0.5,0.7,0.9,0.7c0.6,0,0.9-0.5,0.9-1.2
		c0-0.6-0.3-1.1-0.9-1.1c-0.4,0-0.7,0.3-0.9,0.7c0,0.1,0,0.2,0,0.2V7.3z"/>
</g>
<g class="st3">
	<path class="st0" d="M65.4,8.4c-0.7,0-1.2-0.5-1.2-1.4c0-0.9,0.6-1.4,1.2-1.4c0.7,0,1.2,0.6,1.2,1.4C66.6,8,66,8.4,65.4,8.4
		L65.4,8.4z M65.4,8.2c0.5,0,1-0.5,1-1.2c0-0.5-0.3-1.2-1-1.2c-0.7,0-1,0.6-1,1.2C64.5,7.7,64.9,8.2,65.4,8.2L65.4,8.2z"/>
	<path class="st0" d="M68.3,6.7V7H67V6.7H68.3z"/>
</g>
<g class="st3">
	<path class="st0" d="M68.7,4.9c0.2-0.2,0.5-0.3,0.9-0.3c0.5,0,1,0.3,1,0.9c0,0.5-0.3,0.8-0.8,0.9v0c0.5,0,0.9,0.4,0.9,1
		c0,0.7-0.6,1.1-1.2,1.1c-0.3,0-0.6-0.1-0.9-0.2L68.7,8c0.2,0.1,0.5,0.2,0.8,0.2c0.6,0,0.9-0.4,0.9-0.8c0-0.6-0.6-0.8-1.1-0.8h-0.1
		V6.3h0.1c0.5,0,1-0.4,1-0.8c0-0.5-0.3-0.7-0.7-0.7c-0.3,0-0.5,0.1-0.7,0.3L68.7,4.9z"/>
</g>
<g class="st3">
	<path class="st0" d="M72.9,7.7c0,0.2,0,0.4,0,0.6h-0.2l0-0.4h0c-0.1,0.2-0.4,0.4-0.8,0.4c-0.5,0-0.8-0.4-0.8-0.7c0-0.6,0.5-1,1.6-1
		V6.7c0-0.3,0-0.8-0.7-0.8c-0.2,0-0.5,0.1-0.7,0.2l-0.1-0.2c0.2-0.2,0.5-0.2,0.8-0.2c0.8,0,0.9,0.6,0.9,1V7.7z M72.7,6.9
		c-0.6,0-1.3,0.1-1.3,0.7c0,0.4,0.2,0.6,0.5,0.6c0.4,0,0.7-0.3,0.8-0.5c0-0.1,0-0.1,0-0.2V6.9z"/>
</g>
<g class="st3">
	<path class="st0" d="M75.7,5.7v2.6h-0.3V5.9H74v2.4h-0.3V5.7H75.7z"/>
</g>
<g class="st3">
	<path class="st0" d="M78.1,7.7c0,0.2,0,0.4,0,0.6h-0.2l0-0.4h0c-0.1,0.2-0.4,0.4-0.8,0.4c-0.5,0-0.8-0.4-0.8-0.7c0-0.6,0.5-1,1.6-1
		V6.7c0-0.3,0-0.8-0.7-0.8c-0.2,0-0.5,0.1-0.7,0.2l-0.1-0.2c0.2-0.2,0.5-0.2,0.8-0.2c0.8,0,0.9,0.6,0.9,1V7.7z M77.9,6.9
		c-0.6,0-1.3,0.1-1.3,0.7c0,0.4,0.2,0.6,0.5,0.6c0.4,0,0.7-0.3,0.8-0.5c0-0.1,0-0.1,0-0.2V6.9z"/>
</g>
<g class="st3">
	<path class="st0" d="M80.7,5.7v2.4h0.3l0,1h-0.2l0-0.8h-1.9l0,0.8h-0.2l0-1h0.2C78.9,8,78.9,7.8,79,7.6c0.1-0.4,0.2-0.8,0.2-1.2
		V5.7H80.7z M79.4,6.4c0,0.4-0.1,0.8-0.2,1.2C79.2,7.8,79.1,8,79,8.1h1.4V5.9h-1V6.4z"/>
	<path class="st0" d="M81.3,6h0.3l0.8,1l-0.8,1h-0.3l0.8-1L81.3,6z M82.1,6h0.3l0.8,1l-0.8,1h-0.3l0.8-1L82.1,6z"/>
</g>
<g class="st3">
	<path class="st0" d="M86.9,5.7v2.6h-0.3V5.9h-1.5v2.4h-0.3V5.7H86.9z"/>
</g>
<g class="st3">
	<path class="st0" d="M87.6,6.6c0-0.3,0-0.6,0-0.8h0.2l0,0.5h0c0.2-0.3,0.5-0.6,1-0.6C89.5,5.7,90,6.2,90,7c0,0.9-0.6,1.4-1.2,1.4
		c-0.4,0-0.7-0.2-0.9-0.5h0v1.5h-0.3V6.6z M87.9,7.3c0,0.1,0,0.1,0,0.2c0.1,0.4,0.5,0.7,0.9,0.7c0.6,0,0.9-0.5,0.9-1.2
		c0-0.6-0.3-1.1-0.9-1.1c-0.4,0-0.7,0.3-0.9,0.7c0,0.1,0,0.2,0,0.2V7.3z"/>
</g>
<g class="st3">
	<path class="st0" d="M90.9,5.7V7c0,0.4,0,0.7,0,1l0,0c0.2-0.3,0.3-0.5,0.5-0.8l1-1.5h0.3v2.6h-0.3V7c0-0.4,0-0.7,0-1h0
		c-0.2,0.4-0.4,0.6-0.5,0.9c-0.3,0.4-0.6,1-1,1.5h-0.3V5.7H90.9z"/>
</g>
<g class="st3">
	<path class="st0" d="M96.6,5.7v2.6h-0.3V5.9h-1.5v2.4h-0.3V5.7H96.6z"/>
</g>
<g class="st3">
	<path class="st0" d="M98.4,8.4c-0.7,0-1.2-0.5-1.2-1.4c0-0.9,0.6-1.4,1.2-1.4c0.7,0,1.2,0.6,1.2,1.4C99.6,8,99,8.4,98.4,8.4
		L98.4,8.4z M98.4,8.2c0.5,0,1-0.5,1-1.2c0-0.5-0.3-1.2-1-1.2c-0.7,0-1,0.6-1,1.2C97.5,7.7,97.9,8.2,98.4,8.2L98.4,8.2z"/>
</g>
<g class="st3">
	<path class="st0" d="M102,5.7v2.4h0.3l0,1H102l0-0.8h-1.9l0,0.8h-0.2l0-1h0.2c0.1-0.2,0.2-0.4,0.3-0.5c0.1-0.4,0.2-0.8,0.2-1.2V5.7
		H102z M100.7,6.4c0,0.4-0.1,0.8-0.2,1.2c-0.1,0.2-0.1,0.4-0.2,0.5h1.4V5.9h-1V6.4z"/>
</g>
<g class="st3">
	<path class="st0" d="M104.7,5.7v2.4h0.3l0,1h-0.2l0-0.8h-1.9l0,0.8h-0.2l0-1h0.2c0.1-0.2,0.2-0.4,0.3-0.5c0.1-0.4,0.2-0.8,0.2-1.2
		V5.7H104.7z M103.4,6.4c0,0.4-0.1,0.8-0.2,1.2c-0.1,0.2-0.1,0.4-0.2,0.5h1.4V5.9h-1V6.4z"/>
</g>
<g class="st3">
	<path class="st0" d="M105.7,7c0,0.8,0.5,1.2,1,1.2c0.4,0,0.6-0.1,0.7-0.1l0.1,0.2c-0.1,0.1-0.4,0.2-0.8,0.2c-0.7,0-1.2-0.6-1.2-1.3
		c0-0.9,0.5-1.4,1.2-1.4c0.8,0,1,0.8,1,1.2c0,0.1,0,0.1,0,0.2H105.7z M107.3,6.8c0-0.4-0.1-0.9-0.8-0.9c-0.6,0-0.8,0.5-0.9,0.9
		H107.3z"/>
</g>
<g class="st3">
	<path class="st0" d="M108.2,6.6c0-0.3,0-0.6,0-0.8h0.2l0,0.5h0c0.2-0.3,0.5-0.6,1-0.6c0.7,0,1.1,0.6,1.1,1.3c0,0.9-0.6,1.4-1.2,1.4
		c-0.4,0-0.7-0.2-0.9-0.5h0v1.5h-0.3V6.6z M108.5,7.3c0,0.1,0,0.1,0,0.2c0.1,0.4,0.5,0.7,0.9,0.7c0.6,0,0.9-0.5,0.9-1.2
		c0-0.6-0.3-1.1-0.9-1.1c-0.4,0-0.7,0.3-0.9,0.7c0,0.1,0,0.2,0,0.2V7.3z"/>
</g>
<g class="st3">
	<path class="st0" d="M111.1,5.7l1,1.2h0.1V5.7h0.2v1.2h0.1l1-1.2h0.3l-1.1,1.2c0.5,0,0.7,0.2,0.9,0.7c0.1,0.2,0.2,0.5,0.3,0.7h-0.3
		c-0.1-0.2-0.2-0.4-0.2-0.6c-0.2-0.5-0.5-0.6-0.9-0.6h-0.1v1.2h-0.2V7.1h-0.1c-0.4,0-0.7,0.1-0.9,0.6c-0.1,0.2-0.2,0.4-0.3,0.6h-0.2
		c0.1-0.2,0.2-0.5,0.3-0.7c0.2-0.5,0.4-0.7,0.9-0.7l-1.1-1.2H111.1z"/>
</g>
<g class="st3">
	<path class="st0" d="M114.7,5.7v1.2h0.1l1.2-1.2h0.3l-1.2,1.2c0.5,0,0.8,0.3,1,0.9c0.1,0.1,0.1,0.4,0.3,0.6h-0.3
		c-0.1-0.1-0.2-0.3-0.2-0.5c-0.2-0.5-0.5-0.7-1.1-0.7h-0.1v1.2h-0.3V5.7H114.7z"/>
</g>
<g class="st3">
	<path class="st0" d="M116.9,7c0,0.8,0.5,1.2,1,1.2c0.4,0,0.6-0.1,0.7-0.1l0.1,0.2c-0.1,0.1-0.4,0.2-0.8,0.2c-0.7,0-1.2-0.6-1.2-1.3
		c0-0.9,0.5-1.4,1.2-1.4c0.8,0,1,0.8,1,1.2c0,0.1,0,0.1,0,0.2H116.9z M118.5,6.8c0-0.4-0.1-0.9-0.8-0.9c-0.6,0-0.8,0.5-0.9,0.9
		H118.5z"/>
</g>
<rect x="154.4" y="20.5" class="st0" width="2.9" height="7.3"/>
<polygon class="st2" points="152.9,9.9 124.1,9.9 120.6,4.6 152.9,4.6 "/>
</svg>
