<svg xmlns="http://www.w3.org/2000/svg" id="Слой_1" viewBox="0 0 1715 550" width="1715" height="550"><style id="style53">.st0{fill:#ffe073}.st1{fill:#ffc600}.st2{fill:#fff}.st3{fill:none;stroke:#fff;stroke-width:22;stroke-linecap:round;stroke-miterlimit:10}</style><g id="Layer_1" transform="translate(0 34.6)"><path class="st0" id="polygon56" fill="#ffe073" d="M201.3 505.4l-40.8-20-60-33-82-116v-122l25-83 72-75 91-37z"/><path class="st1" id="polyline58" fill="#ffc600" d="M375.5 38.4l79 67 58.9 128.8-32.9 132.1-77 94.1-77 45-128-6V16.3l169 12.6"/><g id="g64"><g id="g62"><path class="st2" d="M439.5 77.4c-48.4-48.4-112.6-75-181-75s-132.7 26.6-181 75c-48.4 48.4-75 112.6-75 181s26.6 132.7 75 181c48.4 48.4 112.6 75 181 75s132.7-26.6 181-75c48.4-48.4 75-112.6 75-181s-26.6-132.6-75-181zM258.5 494C128.6 494 22.9 388.3 22.9 258.4c0-129.9 105.7-235.6 235.6-235.6 129.9 0 235.6 105.7 235.6 235.6 0 129.9-105.7 235.6-235.6 235.6z" id="path60" fill="#fff"/></g></g><g id="g70"><g id="g68"><path class="st2" d="M412.6 397.1c-4-4-10.5-4-14.4 0-37.2 37.5-86.8 58.1-139.6 58.1-5.6 0-10.2 4.6-10.2 10.2s4.6 10.2 10.2 10.2c58.3 0 113-22.8 154.1-64.1 3.9-3.9 3.9-10.4-.1-14.4z" id="path66" fill="#fff"/></g></g><g id="g76"><g id="g74"><path class="st2" d="M442.7 353.7c-4.9-2.8-11.1-1.2-13.9 3.7-1.4 2.4-2.9 4.9-4.4 7.2-3 4.7-1.7 11.1 3.1 14.1 1.7 1.1 3.6 1.6 5.5 1.6 3.4 0 6.6-1.7 8.6-4.7 1.7-2.6 3.3-5.3 4.9-8 2.7-4.9 1-11.1-3.8-13.9z" id="path72" fill="#fff"/></g></g><path class="st3" id="line78" fill="none" stroke="#fff" stroke-width="22" stroke-linecap="round" stroke-miterlimit="10" d="M198.5 450.4v-246"/><path class="st3" id="line80" fill="none" stroke="#fff" stroke-width="22" stroke-linecap="round" stroke-miterlimit="10" d="M201.3 202.5l262-111.2"/><path class="st3" id="line82" fill="none" stroke="#fff" stroke-width="22" stroke-linecap="round" stroke-miterlimit="10" d="M198.9 200.6l103.9-75.4"/><path class="st3" id="line84" fill="none" stroke="#fff" stroke-width="22" stroke-linecap="round" stroke-miterlimit="10" d="M332.3 99.7l23.6-17.2"/><path class="st3" id="line86" fill="none" stroke="#fff" stroke-width="22" stroke-linecap="round" stroke-miterlimit="10" d="M196.7 200.4l-125.4-98"/></g><text style="line-height:1.25" x="225.855" y="370.227" id="text108" font-weight="400" font-size="26.667" font-family="sans-serif" letter-spacing="0" word-spacing="0" stroke-width=".754"/><g style="line-height:1.25" id="text112" font-weight="400" font-size="396.003" font-family="aMavickFont" letter-spacing="0" word-spacing="0" stroke-width="5.68" fill="#fff"><path d="M737.81 398.48h-84.35V244.038q0-38.016-26.532-38.016-26.928 0-26.928 38.016v161.174q0 38.016 36.828 38.016h171.074q11.088 0 17.424-5.148 6.336-5.544 6.336-16.632 0-11.484-6.336-17.028-6.336-5.94-17.424-5.94h-17.028V244.038q0-38.016-26.533-38.016-26.532 0-26.532 38.016z" style="-inkscape-font-specification:aMavickFont" id="path92"/><path d="M974.106 209.19h-59.797q-22.572 0-29.7 9.108-7.128 8.712-7.128 28.116v163.154q0 19.008 7.128 26.532 7.524 7.128 28.908 7.128h62.173q38.016 0 38.016-24.552 0-24.948-38.016-24.948h-45.145V349.77h37.62q37.62 0 37.62-24.552t-37.62-24.552h-37.62V258.69h43.56q38.017 0 38.017-24.552 0-24.948-38.016-24.948z" style="-inkscape-font-specification:aMavickFont" id="path94"/><path d="M1123.133 408.38v-59.797h98.209v59.797q0 37.62 26.532 37.62t26.532-37.62V244.038q0-38.016-26.532-38.016t-26.532 38.016v55.045h-98.21v-55.045q0-38.016-26.531-38.016-26.533 0-26.533 38.016V408.38q0 37.62 26.533 37.62 26.532 0 26.532-37.62z" style="-inkscape-font-specification:aMavickFont" id="path96"/><path d="M1359.473 258.69h19.8v149.69q0 37.62 26.532 37.62t26.532-37.62V258.69h19.8q38.017 0 38.017-24.552 0-24.948-38.016-24.948h-92.665q-38.017 0-38.017 24.948 0 24.552 38.017 24.552z" style="-inkscape-font-specification:aMavickFont" id="path98"/><path d="M1616.355 319.675h-22.968v-61.38h22.968q36.828 0 36.828 30.492 0 30.888-36.828 30.888zm-22.968 88.705v-40.393h36.036q38.809 0 60.193-20.988Q1711 325.615 1711 288.787q0-36.433-22.968-57.817-22.572-21.78-62.965-21.78h-47.916q-22.572 0-29.7 9.108-7.129 8.712-7.129 28.116V408.38q0 37.62 26.533 37.62 26.532 0 26.532-37.62z" style="-inkscape-font-specification:aMavickFont" id="path100"/></g><g style="line-height:1.25" id="text145" font-weight="400" font-size="208.044" font-family="aMavickFont" letter-spacing="0" word-spacing="0" stroke-width="5.201" fill="#fff"><path d="M639.944 97.774h-12.066V65.527h12.066q19.349 0 19.349 16.02 0 16.227-19.349 16.227zm-12.066 46.602v-21.22h18.932q20.388 0 31.623-11.027 11.234-11.234 11.234-30.582 0-19.14-12.067-30.375-11.858-11.442-33.079-11.442h-25.173q-11.858 0-15.603 4.785Q600 49.092 600 59.286v85.09q0 19.764 13.939 19.764t13.939-19.764z" style="-inkscape-font-specification:aMavickFont" id="path73"/><path d="M768.194 39.73h-31.415q-11.858 0-15.603 4.785-3.745 4.577-3.745 14.771V145q0 9.986 3.745 13.94 3.953 3.744 15.187 3.744h32.663q19.972 0 19.972-12.899 0-13.107-19.972-13.107h-23.717v-23.092h19.764q19.764 0 19.764-12.9 0-12.898-19.764-12.898H745.31V65.736h22.885q19.972 0 19.972-12.9 0-13.106-19.972-13.106z" style="-inkscape-font-specification:aMavickFont" id="path75"/><path d="M877.277 164.14q17.06 0 27.462-6.033 10.402-6.241 10.402-14.147 0-4.785-3.537-8.322-3.537-3.745-7.697-3.745-4.785 0-10.819 3.121-6.033 2.913-14.563 2.913-13.73 0-22.052-9.57t-8.322-26.422q0-17.268 8.114-27.254 8.321-10.194 21.428-10.194 7.698 0 13.731 2.497 6.033 2.288 10.61 2.288 4.577 0 8.114-3.536 3.537-3.745 3.537-8.53 0-3.745-2.705-7.074-2.704-3.537-7.49-6.033-4.784-2.705-11.442-4.369-6.657-1.664-14.563-1.664-12.483 0-23.3 4.577-10.611 4.369-18.517 12.69-7.905 8.114-12.482 19.973-4.577 11.65-4.577 26.005 0 14.563 4.16 26.214 4.37 11.65 12.067 19.764 7.906 8.113 18.724 12.482 10.818 4.37 23.717 4.37z" style="-inkscape-font-specification:aMavickFont" id="path77"/><path d="M983.656 187.025q4.16 0 7.49-1.872 3.328-1.665 6.449-9.57l44.73-115.049q1.04-2.496 1.455-4.993.417-2.496.417-4.577 0-6.033-3.33-9.362-3.12-3.536-9.57-3.536-5.408 0-8.321 3.12-2.913 2.913-5.617 9.986l-22.053 58.669h-.624l-24.133-59.709q-2.705-6.45-5.41-9.154-2.704-2.912-7.489-2.912-6.033 0-9.778 3.952-3.537 3.953-3.537 9.987 0 4.16 1.665 7.905l34.743 85.922-7.906 19.765q-1.664 3.952-1.664 8.113 0 6.034 3.12 9.57 3.121 3.745 9.363 3.745z" style="-inkscape-font-specification:aMavickFont" id="path79"/><path d="M1112.92 97.774h-12.067V65.527h12.066q19.348 0 19.348 16.02 0 16.227-19.348 16.227zm-12.067 46.602v-21.22h18.932q20.388 0 31.622-11.027 11.235-11.234 11.235-30.582 0-19.14-12.067-30.375-11.858-11.442-33.079-11.442h-25.173q-11.859 0-15.603 4.785-3.745 4.577-3.745 14.771v85.09q0 19.764 13.939 19.764t13.939-19.764z" style="-inkscape-font-specification:aMavickFont" id="path81"/><path d="M1249.074 164.14q17.06 0 27.462-6.033 10.402-6.241 10.402-14.147 0-4.785-3.537-8.322-3.536-3.745-7.697-3.745-4.785 0-10.818 3.121-6.034 2.913-14.563 2.913-13.731 0-22.053-9.57-8.322-9.57-8.322-26.422 0-17.268 8.114-27.254 8.322-10.194 21.428-10.194 7.698 0 13.731 2.497 6.034 2.288 10.61 2.288 4.577 0 8.114-3.536 3.537-3.745 3.537-8.53 0-3.745-2.705-7.074-2.704-3.537-7.49-6.033-4.784-2.705-11.442-4.369-6.657-1.664-14.563-1.664-12.482 0-23.3 4.577-10.61 4.369-18.517 12.69-7.905 8.114-12.482 19.973-4.577 11.65-4.577 26.005 0 14.563 4.16 26.214 4.37 11.65 12.067 19.764 7.906 8.113 18.724 12.482 10.819 4.37 23.717 4.37z" style="-inkscape-font-specification:aMavickFont" id="path83"/><path d="M1345.467 144.376v-31.415h51.595v31.415q0 19.764 13.939 19.764t13.939-19.764V58.038q0-19.972-13.94-19.972-13.938 0-13.938 19.972v28.918h-51.595V58.038q0-19.972-13.94-19.972-13.938 0-13.938 19.972v86.338q0 19.764 13.939 19.764t13.939-19.764z" style="-inkscape-font-specification:aMavickFont" id="path85"/><path d="M1476.287 136.887V104.64h8.946q19.14 0 19.14 16.227 0 16.02-19.14 16.02zm0-57.837V58.038q0-19.972-13.939-19.972t-13.939 19.972v84.882q0 10.194 3.745 14.979 3.745 4.785 15.604 4.785h21.012q21.012 0 32.871-11.442 12.066-11.443 12.066-30.375 0-19.348-11.234-30.582-11.026-11.235-31.415-11.235zm101.11 65.326V58.038q0-19.972-14.147-19.972-13.94 0-13.94 19.972v86.338q0 19.764 13.94 19.764 14.147 0 14.147-19.764z" style="-inkscape-font-specification:aMavickFont" id="path87"/><path d="M1657.325 38.274q-12.691 0-20.597-6.034-7.905-6.24-7.905-13.939 0-4.368 2.288-6.865 2.497-2.705 6.657-2.705 4.161 0 5.618 1.873 1.664 1.664 2.912 3.745 1.457 2.08 3.537 3.952 2.289 1.665 7.49 1.665 5.2 0 7.281-1.665 2.289-1.872 3.537-3.952 1.248-2.08 2.705-3.745 1.664-1.873 5.825-1.873 4.369 0 6.657 2.705 2.497 2.497 2.497 6.865 0 7.906-7.906 13.94-7.906 6.033-20.596 6.033zm25.797 49.514v56.588q0 19.764 13.939 19.764T1711 144.376V56.998q0-9.154-3.12-13.94-2.913-4.992-9.779-4.992-4.785 0-8.114 2.496-3.328 2.289-6.657 6.658l-51.803 68.446V58.038q0-19.972-13.939-19.972t-13.939 19.972v89.459q0 8.53 2.913 12.69 2.913 3.953 9.57 3.953 4.577 0 8.322-1.872 3.952-2.08 7.905-7.49z" style="-inkscape-font-specification:aMavickFont" id="path89"/></g><g style="line-height:1.25;-inkscape-font-specification:aMavickFont" id="text149" font-weight="400" font-size="85.576" font-family="aMavickFont" letter-spacing="0" word-spacing="0" fill="#fff" stroke-width="2.139"><path d="M620.88 497.826H607.96q-4.878 0-6.419 1.968-1.54 1.882-1.54 6.076v35.257q0 4.108 1.54 5.734 1.626 1.54 6.247 1.54h13.436q8.215 0 8.215-5.306 0-5.391-8.215-5.391h-9.756v-9.499h8.13q8.13 0 8.13-5.306 0-5.305-8.13-5.305h-8.13v-9.071h9.414q8.215 0 8.215-5.306 0-5.391-8.215-5.391z" id="path103"/><path d="M649.234 548.401h11.382q8.814 0 13.435-4.108 4.622-4.193 4.622-11.125 0-4.706-1.969-7.274-1.968-2.652-6.418-4.107v-.171q3.594-1.797 4.792-4.621 1.198-2.824 1.198-6.59 0-5.733-4.877-9.156-4.793-3.423-12.58-3.423h-9.414q-4.877 0-6.418 1.968-1.54 1.882-1.54 6.076v35.257q0 4.108 1.54 5.734 1.626 1.54 6.247 1.54zm3.68-9.927V526.58h5.563q4.62 0 6.332 1.455 1.712 1.37 1.712 4.792 0 2.739-1.712 4.193-1.711 1.455-6.161 1.455zm0-20.88v-9.927h4.964q6.76 0 6.76 4.878 0 2.738-1.455 3.936-1.455 1.113-5.305 1.113z" id="path105"/><path d="M707.522 521.701h-4.963v-13.264h4.963q7.959 0 7.959 6.59 0 6.674-7.959 6.674zm-4.963 19.17v-8.73h7.787q8.387 0 13.008-4.535 4.621-4.621 4.621-12.58 0-7.873-4.963-12.494-4.878-4.706-13.607-4.706H699.05q-4.878 0-6.418 1.968-1.54 1.882-1.54 6.076v35q0 8.13 5.733 8.13 5.734 0 5.734-8.13z" id="path107"/><path d="M760.276 497.826h-12.922q-4.878 0-6.418 1.968-1.54 1.882-1.54 6.076v35.257q0 4.108 1.54 5.734 1.626 1.54 6.247 1.54h13.435q8.216 0 8.216-5.306 0-5.391-8.216-5.391h-9.755v-9.499h8.13q8.13 0 8.13-5.306 0-5.305-8.13-5.305h-8.13v-9.071h9.413q8.215 0 8.215-5.306 0-5.391-8.215-5.391z" id="path109"/><path d="M803.092 497.226q-5.22 0-8.472-2.481-3.252-2.568-3.252-5.734 0-1.797.942-2.824 1.026-1.112 2.738-1.112t2.31.77q.685.684 1.199 1.54.599.856 1.454 1.626.942.685 3.081.685 2.14 0 2.995-.685.942-.77 1.455-1.626.514-.856 1.113-1.54.684-.77 2.396-.77 1.797 0 2.738 1.112 1.027 1.027 1.027 2.824 0 3.252-3.252 5.734-3.252 2.481-8.472 2.481zm10.612 20.368v23.276q0 8.13 5.733 8.13 5.734 0 5.734-8.13v-35.942q0-3.765-1.284-5.733-1.198-2.054-4.022-2.054-1.968 0-3.337 1.027-1.37.941-2.739 2.738l-21.308 28.155v-23.705q0-8.215-5.734-8.215-5.733 0-5.733 8.215v36.798q0 3.509 1.198 5.22Q783.41 549 786.148 549q1.883 0 3.423-.77 1.626-.856 3.252-3.08z" id="path111"/><path d="M862.475 549q7.018 0 11.296-2.482 4.28-2.567 4.28-5.819 0-1.968-1.456-3.423-1.454-1.54-3.166-1.54-1.968 0-4.45 1.283-2.482 1.198-5.99 1.198-5.648 0-9.071-3.936-3.423-3.937-3.423-10.868 0-7.103 3.337-11.21 3.423-4.194 8.814-4.194 3.167 0 5.648 1.027 2.482.941 4.365.941t3.337-1.454q1.455-1.54 1.455-3.51 0-1.54-1.112-2.909-1.113-1.454-3.081-2.481-1.968-1.113-4.707-1.797-2.738-.685-5.99-.685-5.135 0-9.585 1.883-4.364 1.797-7.616 5.22-3.252 3.337-5.134 8.215-1.883 4.792-1.883 10.697 0 5.99 1.711 10.783 1.797 4.792 4.964 8.13 3.252 3.337 7.702 5.134 4.45 1.797 9.755 1.797z" id="path113"/><path d="M890.658 505.356v35.514q0 8.13 5.734 8.13 5.733 0 5.733-8.13v-11.98l2.054-1.626 15.233 17.714q1.54 1.883 2.91 2.995 1.454 1.027 3.337 1.027 1.882 0 3.594-1.54 1.711-1.54 1.711-3.766 0-2.31-2.91-5.733l-15.489-17.372 11.724-11.553q2.91-2.91 3.68-4.108.856-1.198.856-2.31 0-2.14-1.797-3.766-1.712-1.711-3.851-1.711-1.54 0-3.08 1.198-1.541 1.198-3.253 2.91l-14.719 15.147v-11.04q0-8.215-5.733-8.215-5.734 0-5.734 8.215z" id="path115"/><path d="M942.541 523.156q0 5.905 1.712 10.697 1.797 4.707 4.963 8.13 3.166 3.337 7.616 5.22 4.45 1.797 9.927 1.797 5.477 0 9.927-1.797 4.536-1.883 7.702-5.22 3.166-3.423 4.878-8.13 1.711-4.792 1.711-10.697 0-5.905-1.797-10.697-1.711-4.792-4.963-8.215-3.167-3.423-7.617-5.22-4.45-1.883-9.84-1.883-5.392 0-9.842 1.883-4.45 1.797-7.702 5.22-3.166 3.423-4.963 8.215-1.712 4.792-1.712 10.697zm12.494 0q0-7.274 3.338-11.382 3.337-4.193 8.643-4.193 5.391 0 8.729 4.193 3.337 4.108 3.337 11.382 0 7.017-3.423 11.04-3.337 4.021-8.643 4.021-5.306 0-8.643-4.022-3.338-4.022-3.338-11.039z" id="path117"/><path d="M1003.478 505.87v35q0 8.13 5.734 8.13 5.733 0 5.733-8.13v-32.347h9.414q8.215 0 8.215-5.306 0-5.391-8.215-5.391h-12.922q-4.878 0-6.419 1.968-1.54 1.882-1.54 6.076z" id="path119"/><path d="M1044.664 523.156q0 5.905 1.712 10.697 1.797 4.707 4.963 8.13 3.166 3.337 7.616 5.22 4.45 1.797 9.927 1.797 5.477 0 9.927-1.797 4.536-1.883 7.702-5.22 3.166-3.423 4.878-8.13 1.711-4.792 1.711-10.697 0-5.905-1.797-10.697-1.711-4.792-4.963-8.215-3.167-3.423-7.617-5.22-4.45-1.883-9.84-1.883-5.392 0-9.842 1.883-4.45 1.797-7.702 5.22-3.166 3.423-4.963 8.215-1.712 4.792-1.712 10.697zm12.494 0q0-7.274 3.338-11.382 3.337-4.193 8.643-4.193 5.391 0 8.729 4.193 3.337 4.108 3.337 11.382 0 7.017-3.423 11.04-3.337 4.021-8.643 4.021-5.306 0-8.643-4.022-3.338-4.022-3.338-11.039z" id="path121"/><path d="M1148.83 540.87v-32.86h21.222v32.86q0 8.13 5.734 8.13 5.733 0 5.733-8.13v-34.915q0-8.13-7.873-8.13h-28.411q-7.873 0-7.873 8.13v34.915q0 8.13 5.733 8.13 5.734 0 5.734-8.13z" id="path123"/><path d="M1209.446 521.701h-4.963v-13.264h4.963q7.959 0 7.959 6.59 0 6.674-7.959 6.674zm-4.963 19.17v-8.73h7.787q8.387 0 13.008-4.535 4.621-4.621 4.621-12.58 0-7.873-4.963-12.494-4.878-4.706-13.607-4.706h-10.355q-4.878 0-6.418 1.968-1.54 1.882-1.54 6.076v35q0 8.13 5.733 8.13 5.734 0 5.734-8.13z" id="path125"/><path d="M1240.72 523.156q0 5.905 1.712 10.697 1.797 4.707 4.963 8.13 3.167 3.337 7.617 5.22 4.45 1.797 9.926 1.797 5.477 0 9.927-1.797 4.536-1.883 7.702-5.22 3.166-3.423 4.878-8.13 1.711-4.792 1.711-10.697 0-5.905-1.797-10.697-1.711-4.792-4.963-8.215-3.166-3.423-7.616-5.22-4.45-1.883-9.842-1.883-5.39 0-9.84 1.883-4.45 1.797-7.703 5.22-3.166 3.423-4.963 8.215-1.712 4.792-1.712 10.697zm12.494 0q0-7.274 3.338-11.382 3.337-4.193 8.643-4.193 5.391 0 8.729 4.193 3.337 4.108 3.337 11.382 0 7.017-3.423 11.04-3.337 4.021-8.643 4.021-5.306 0-8.643-4.022-3.337-4.022-3.337-11.039z" id="path127"/><path d="M1325.79 549q7.017 0 11.296-2.482 4.279-2.567 4.279-5.819 0-1.968-1.455-3.423-1.455-1.54-3.166-1.54-1.969 0-4.45 1.283-2.482 1.198-5.99 1.198-5.649 0-9.072-3.936-3.423-3.937-3.423-10.868 0-7.103 3.338-11.21 3.423-4.194 8.814-4.194 3.166 0 5.648 1.027 2.482.941 4.364.941 1.883 0 3.338-1.454 1.455-1.54 1.455-3.51 0-1.54-1.113-2.909-1.112-1.454-3.08-2.481-1.969-1.113-4.707-1.797-2.739-.685-5.99-.685-5.135 0-9.585 1.883-4.365 1.797-7.616 5.22-3.252 3.337-5.135 8.215-1.883 4.792-1.883 10.697 0 5.99 1.712 10.783 1.797 4.792 4.963 8.13 3.252 3.337 7.702 5.134 4.45 1.797 9.756 1.797z" id="path129"/><path d="M1361.589 548.401h11.381q8.815 0 13.436-4.108 4.62-4.193 4.62-11.125 0-4.706-1.967-7.274-1.969-2.652-6.419-4.107v-.171q3.595-1.797 4.793-4.621 1.198-2.824 1.198-6.59 0-5.733-4.878-9.156-4.792-3.423-12.58-3.423h-9.413q-4.878 0-6.418 1.968-1.54 1.882-1.54 6.076v35.257q0 4.108 1.54 5.734 1.626 1.54 6.247 1.54zm3.68-9.927V526.58h5.562q4.621 0 6.333 1.455 1.711 1.37 1.711 4.792 0 2.739-1.712 4.193-1.711 1.455-6.161 1.455zm0-20.88v-9.927h4.963q6.76 0 6.76 4.878 0 2.738-1.454 3.936-1.455 1.113-5.306 1.113z" id="path131"/><path d="M1424.327 497.826h-12.922q-4.878 0-6.418 1.968-1.54 1.882-1.54 6.076v35.257q0 4.108 1.54 5.734 1.625 1.54 6.246 1.54h13.436q8.215 0 8.215-5.306 0-5.391-8.215-5.391h-9.756v-9.499h8.13q8.13 0 8.13-5.306 0-5.305-8.13-5.305h-8.13v-9.071h9.414q8.215 0 8.215-5.306 0-5.391-8.215-5.391z" id="path133"/><path d="M1480.065 538.73h13.435v-33.374q0-8.215 5.734-8.215 5.819 0 5.819 8.215v33.375h3.85q2.397 0 3.766 1.284 1.37 1.283 1.37 3.85 0 2.482-1.37 3.51-1.369 1.026-3.765 1.026h-56.138q-7.873 0-7.873-8.215v-34.83q0-8.215 5.734-8.215 5.733 0 5.733 8.215v33.375h13.436v-33.375q0-4.107 1.112-6.161 1.113-2.054 4.022-2.054 2.91 0 4.022 2.054 1.113 2.054 1.113 6.161z" id="path135"/><path d="M1543.498 497.826h-12.922q-4.878 0-6.418 1.968-1.54 1.882-1.54 6.076v35.257q0 4.108 1.54 5.734 1.626 1.54 6.247 1.54h13.435q8.216 0 8.216-5.306 0-5.391-8.216-5.391h-9.755v-9.499h8.13q8.13 0 8.13-5.306 0-5.305-8.13-5.305h-8.13v-9.071h9.413q8.215 0 8.215-5.306 0-5.391-8.215-5.391z" id="path137"/><path d="M1575.703 540.87v-12.922h21.223v12.922q0 8.13 5.733 8.13 5.734 0 5.734-8.13v-35.514q0-8.215-5.734-8.215-5.733 0-5.733 8.215v11.895h-21.223v-11.895q0-8.215-5.734-8.215-5.733 0-5.733 8.215v35.514q0 8.13 5.733 8.13 5.734 0 5.734-8.13z" id="path139"/><path d="M1650.908 517.594v23.276q0 8.13 5.734 8.13 5.733 0 5.733-8.13v-35.942q0-3.765-1.283-5.733-1.198-2.054-4.022-2.054-1.969 0-3.338 1.027-1.37.941-2.738 2.738l-21.309 28.155v-23.705q0-8.215-5.733-8.215-5.734 0-5.734 8.215v36.798q0 3.509 1.198 5.22 1.198 1.626 3.937 1.626 1.882 0 3.423-.77 1.626-.856 3.252-3.08z" id="path141"/><path d="M1699.447 508.437v12.323h-5.305q-3.51 0-5.477-1.626-1.883-1.712-1.883-4.707 0-2.824 1.883-4.364 1.882-1.626 5.305-1.626zM1711 540.87v-35q0-4.194-1.626-6.076-1.54-1.968-6.333-1.968h-8.985q-9.328 0-14.291 4.364-4.964 4.364-4.964 11.382 0 5.476 3.167 9.156 3.166 3.594 8.9 4.536l-9.072 10.098q-3.423 3.765-3.423 6.589 0 2.225 1.54 3.68 1.627 1.369 4.023 1.369 1.711 0 3.08-.856 1.37-.941 2.996-2.824l13.435-16.944v12.494q0 8.13 5.82 8.13 5.733 0 5.733-8.13z" id="path143"/></g></svg>