<?xml version="1.0" encoding="UTF-8"?>
<!DOCTYPE svg PUBLIC "-//W3C//DTD SVG 1.0//EN" "http://www.w3.org/TR/2001/REC-SVG-20010904/DTD/svg10.dtd">
<!-- Creator: CorelDRAW X6 -->
<svg xmlns="http://www.w3.org/2000/svg" xml:space="preserve" width="100%" height="100%" version="1.0" style="shape-rendering:geometricPrecision; text-rendering:geometricPrecision; image-rendering:optimizeQuality; fill-rule:evenodd; clip-rule:evenodd"
viewBox="0 0 1400 1400"
 xmlns:xlink="http://www.w3.org/1999/xlink">
 <defs>
  <style type="text/css">
   <![CDATA[
    .str0 {stroke:#FEFEFE;stroke-width:25}
    .fil1 {fill:none}
    .fil2 {fill:#FEFEFE}
    .fil0 {fill:#004B8F}
   ]]>
  </style>
 </defs>
 <g id="Layer_x0020_1">
  <metadata id="CorelCorpID_0Corel-Layer"/>
  <circle class="fil0" cx="700" cy="700" r="700"/>
  <circle class="fil1 str0" cx="700" cy="700" r="650"/>
  <g id="_698075904">
   <path class="fil2" d="M1038 312c-28,-22 15,-46 10,-69 4,5 12,18 11,32 -1,16 -18,22 -21,38zm-141 0c-28,-22 15,-46 10,-69 4,5 12,18 11,32 -1,16 -18,22 -21,38zm-98 0c-28,-22 15,-46 10,-69 4,5 12,18 11,32 -1,16 -18,22 -21,38zm-95 0c-28,-22 15,-46 10,-69 4,5 12,18 11,32 -1,16 -18,22 -21,38zm-93 0c-28,-22 15,-46 10,-69 4,5 12,18 11,32 -1,16 -18,22 -21,38zm-96 0c-28,-22 15,-46 10,-69 4,5 12,18 11,32 -1,16 -18,22 -21,38zm-154 0c-28,-22 15,-46 10,-69 4,5 12,18 11,32 -1,16 -18,22 -21,38zm18 108l0 256c59,6 42,-232 0,-256zm-31 -3c-34,10 -61,137 0,243l0 -243zm662 -5c-9,13 -18,34 -20,63l0 201 30 -25 0 -239c-3,0 -6,0 -10,0zm-662 -93l31 0c0,9 0,17 0,26 78,63 106,358 0,408l0 71 -31 -37 0 -60c-59,-102 -113,-303 0,-383l0 -25zm672 2l31 -1 0 299 10 -13 0 59 -10 12 0 127 -31 32 0 -127 -30 25 0 127 -37 26 0 -127c-16,8 -26,-25 -39,-38l39 -21 0 -212c1,-32 18,-73 32,-107 16,-40 32,-43 35,-62zm-232 -2l36 1 0 439c23,-8 34,-29 43,-59 12,-42 15,-99 15,-160l0 -220 36 0c-1,81 1,156 0,238 -1,60 -12,122 -27,184 19,-1 27,33 27,41l0 125 -36 16c0,-36 0,-81 0,-117 0,-10 -11,-5 -57,10l0 127 -36 9 0 -126c-25,4 -26,-36 -40,-53l40 -7 0 -447zm-191 1c12,0 24,0 36,0l0 445 57 5c0,-155 -1,-295 -1,-450 12,0 24,0 36,0l0 450 8 1 15 59 -24 -1 0 129 -36 0 1 -129 -57 -5 0 129 -36 -7 0 -125c-33,-12 -17,-42 -25,-63l25 4c0,-153 0,-288 0,-441zm-65 0c-3,11 -6,15 -23,31l0 378 55 21 0 59 -55 -21 1 71c66,8 65,31 61,81 -97,-4 -98,-96 -97,-98l-1 -72c-34,-9 -24,-47 -30,-72l30 13 0 -364c14,-10 21,-15 29,-25l30 0z"/>
   <path class="fil2" d="M527 1262l0 -20 16 0 0 -16 21 0 0 -16 119 0 0 -118 0 0 -11 0 0 -22c0,-14 -43,-8 -122,-39 -87,-34 -194,-112 -198,-229 125,283 586,283 711,0 -4,117 -111,194 -198,229 -79,31 -122,26 -122,39l0 22 -11 0 0 0 0 118 119 0 0 16 21 0 0 16 16 0 0 20 -360 0z"/>
  </g>
 </g>
</svg>
