<?xml version="1.0" encoding="utf-8"?>
<!-- Generator: Adobe Illustrator 21.1.0, SVG Export Plug-In . SVG Version: 6.00 Build 0)  -->
<svg version="1.1" xmlns="http://www.w3.org/2000/svg" xmlns:xlink="http://www.w3.org/1999/xlink" x="0px" y="0px"
	 viewBox="0 0 733.1 220.9" style="enable-background:new 0 0 733.1 220.9;" xml:space="preserve">
<style type="text/css">
	.st0{fill:#3B9FD9;}
	.st1{display:none;}
	.st2{display:inline;}
	.st3{fill:#FFFFFF;}
</style>
<g id="color">
	<g>
		<g>
			<g>
				<g>
					<path class="st0" d="M57.5,220.8c2.1-73.6,97.3-66.5,26.5-173.7c9.3,49.5-35.6,82.9-37.7,132.4C20.3,110.4,98.2,69.6,71.5,0
						C40.7,78.1-64.4,80.1,57.5,220.8"/>
				</g>
			</g>
		</g>
		<path d="M311.8,126.3V41.8h40.5v12.7h-26v21.8h19.5v12.7h-19.5v37.5H311.8z"/>
		<path d="M395.8,97.3h-27.6v9.1c0,7.3,2.6,10.3,7.3,10.3c4.7,0,7.3-3,7.3-10.3V105h13.1c-0.2,13.4-5.7,22.5-20.4,22.5
			c-15,0-20.4-9.6-20.4-23.4V85.6c0-13.8,5.4-23.4,20.4-23.4s20.4,9.6,20.4,23.4V97.3z M382.6,86.5v-3.3c0-7.3-2.6-10.3-7.3-10.3
			c-4.7,0-7.3,3-7.3,10.3v3.3H382.6z"/>
		<path d="M431.5,126.3v-6.6h-0.2c-4.3,5.5-7.5,7.7-14.1,7.7c-8.2,0-13.4-6.1-13.4-17.6V79.7c0-11.5,5.2-17.6,13.4-17.6
			c5.7,0,8.4,2.3,13.6,6.6v-27h13.1v84.6H431.5z M430.8,76.2c-2.6-1.9-4.9-3.3-7.5-3.3c-3.5,0-6.3,1.9-6.3,10.2v23.4
			c0,8.3,2.8,10.2,6.3,10.2c2.6,0,4.9-1.4,7.5-3.3V76.2z"/>
		<path d="M493.4,97.3h-27.6v9.1c0,7.3,2.6,10.3,7.3,10.3c4.7,0,7.3-3,7.3-10.3V105h13.1c-0.2,13.4-5.7,22.5-20.4,22.5
			c-15,0-20.4-9.6-20.4-23.4V85.6c0-13.8,5.4-23.4,20.4-23.4c15,0,20.4,9.6,20.4,23.4V97.3z M480.2,86.5v-3.3
			c0-7.3-2.6-10.3-7.3-10.3c-4.7,0-7.3,3-7.3,10.3v3.3H480.2z"/>
		<path d="M538.1,81.8c0.7-12.8,8.8-19.7,21.1-19.7c12.2,0,19.1,5.6,19.1,17.1v40.4c0,2,0.5,4.6,0.8,6.7h-12.5
			c-0.1-1.8-0.6-3.4-0.7-4.9c-4.9,4-9,6.1-15.3,6.1c-8.9,0-13.4-6.1-13.4-14.2c0-13.8,9.1-21.4,28-28.6V81c0-5.3-2.1-8.1-6.4-8.1
			c-6,0-7.3,3.5-7.5,8.9H538.1z M565.2,94.3c-12,6.8-14.9,11.1-14.9,16.6c0,4.1,2.1,5.7,6.1,5.7c3.6,0,6.6-2.7,8.8-5.9V94.3z"/>
		<path d="M584.4,74.1V63.3h7.3v-17h13.1v17h8.8v10.8h-8.8v36.3c0,3.3,1.4,5.1,4.5,5.1h4.3v11.3c-1.8,0.5-3.3,0.7-6.6,0.7
			c-9.8,0-15.3-4.6-15.3-14.2V74.1H584.4z"/>
		<path d="M622.7,126.3v-63h13.1v63H622.7z"/>
		<path d="M644.6,85.6c0-13.8,5.4-23.4,20.4-23.4c15,0,20.4,9.6,20.4,23.4v18.5c0,13.8-5.4,23.4-20.4,23.4c-15,0-20.4-9.6-20.4-23.4
			V85.6z M672.2,83.2c0-7.3-2.6-10.3-7.3-10.3c-4.7,0-7.3,3-7.3,10.3v23.2c0,7.3,2.6,10.3,7.3,10.3c4.7,0,7.3-3,7.3-10.3V83.2z"/>
		<path d="M693.7,126.3v-63h12.4v6.3c5.5-4.7,8.3-7.5,15.9-7.5c6.9,0,11,5,11,13.2v51H720V77.5c0-3.2-1.9-4.6-4.7-4.6
			c-2.8,0-5.4,1.8-8.4,4v49.4H693.7z"/>
		<path d="M188.1,120.6l7.9-10.9c5.2,4.3,9,3.8,9,3.8c5,0,7.3-2.9,7.3-9.3V41.7h14.5v63.7c0,13.9-7.8,22.1-20.8,22.1
			C205.9,127.6,194.7,128.1,188.1,120.6z"/>
		<path d="M138.6,41.7h14.5v63.9c0,6.2,2.5,9.3,7.7,9.3c5.3,0,7.7-3,7.7-9.3V41.7h14.5V105c0,14.6-8.4,22.5-22.3,22.5
			c-13.8,0-22.3-8-22.3-22.5V41.7z"/>
		<path d="M249.6,126.4h-14.1l15.6-84.7h18.1l15.6,84.7h-14.1l-2.6-18.8h-16L249.6,126.4z M254.3,95H266l-5.7-36.4H260L254.3,95z"/>
		<g>
			<path d="M138.6,204.8v-53.5h8.5l11.2,30.6h0.1v-30.6h8.3v53.5h-8L147,171.3h-0.2v33.4H138.6z"/>
			<path d="M175.5,204.8v-53.5h24.6v8h-15.4V173h11.9v8h-11.9v15.7h16.5v8H175.5z"/>
			<path d="M226.2,151.2h7.6l6.2,34.1h0.1l5.1-34.1h8.6l-9.4,53.5h-7.7l-6.7-35.4h-0.1l-6.2,35.4H216l-10.2-53.5h8.6l5.6,34.1h0.1
				L226.2,151.2z"/>
			<path d="M292.1,204.8h-9.2v-22.3l-11.1-31.3h9.3l6.4,20.4h0.1l6.2-20.4h9.3l-11.1,31.3V204.8z"/>
			<path d="M307.6,164.2c0-7.6,4.4-13.7,14.1-13.7c9.6,0,14.1,6.2,14.1,13.7v27.6c0,7.6-4.5,13.7-14.1,13.7
				c-9.6,0-14.1-6.2-14.1-13.7V164.2z M316.8,191.6c0,4,1.2,5.9,4.9,5.9c3.7,0,4.9-1.9,4.9-5.9v-27.1c0-4-1.2-5.9-4.9-5.9
				c-3.7,0-4.9,1.9-4.9,5.9V191.6z"/>
			<path d="M353.2,204.8H344v-53.5h12.9c10.3,0,15.6,4.4,15.6,15.8c0,8.6-3.3,12.1-6.5,13.5l7.8,24.3h-9.3l-6.5-22.2
				c-1.2,0.1-3.1,0.2-4.7,0.2V204.8z M353.2,175.2h3.3c5,0,6.8-1.8,6.8-8.2c0-6.4-1.9-8.2-6.8-8.2h-3.3V175.2z"/>
			<path d="M380.6,204.8v-53.5h9.2V171h0.1l9.6-19.8h9.2l-9.9,19.9l11.2,33.6h-9.3l-7.5-24.9H393l-3.3,5.9v19H380.6z"/>
		</g>
		<circle cx="629.2" cy="47.7" r="8"/>
		<path d="M515.1,90.7v35.6H502V63.3h12.5l0,9.1c2.1-6.6,11.7-10.3,18.6-10.3v14.8C533.2,76.9,515.1,74.9,515.1,90.7z"/>
	</g>
</g>
<g id="white" class="st1">
	<g class="st2">
		<g>
			<g>
				<g>
					<path class="st3" d="M57.5,220.8c2.1-73.6,97.3-66.5,26.5-173.7c9.3,49.5-35.6,82.9-37.7,132.4C20.3,110.4,98.2,69.6,71.5,0
						C40.7,78.1-64.4,80.1,57.5,220.8"/>
				</g>
			</g>
		</g>
		<path class="st3" d="M311.8,126.3V41.8h40.5v12.7h-26v21.8h19.5v12.7h-19.5v37.5H311.8z"/>
		<path class="st3" d="M395.8,97.3h-27.6v9.1c0,7.3,2.6,10.3,7.3,10.3c4.7,0,7.3-3,7.3-10.3V105h13.1c-0.2,13.4-5.7,22.5-20.4,22.5
			c-15,0-20.4-9.6-20.4-23.4V85.6c0-13.8,5.4-23.4,20.4-23.4s20.4,9.6,20.4,23.4V97.3z M382.6,86.5v-3.3c0-7.3-2.6-10.3-7.3-10.3
			c-4.7,0-7.3,3-7.3,10.3v3.3H382.6z"/>
		<path class="st3" d="M431.5,126.3v-6.6h-0.2c-4.3,5.5-7.5,7.7-14.1,7.7c-8.2,0-13.4-6.1-13.4-17.6V79.7c0-11.5,5.2-17.6,13.4-17.6
			c5.7,0,8.4,2.3,13.6,6.6v-27h13.1v84.6H431.5z M430.8,76.2c-2.6-1.9-4.9-3.3-7.5-3.3c-3.5,0-6.3,1.9-6.3,10.2v23.4
			c0,8.3,2.8,10.2,6.3,10.2c2.6,0,4.9-1.4,7.5-3.3V76.2z"/>
		<path class="st3" d="M493.4,97.3h-27.6v9.1c0,7.3,2.6,10.3,7.3,10.3c4.7,0,7.3-3,7.3-10.3V105h13.1c-0.2,13.4-5.7,22.5-20.4,22.5
			c-15,0-20.4-9.6-20.4-23.4V85.6c0-13.8,5.4-23.4,20.4-23.4c15,0,20.4,9.6,20.4,23.4V97.3z M480.2,86.5v-3.3
			c0-7.3-2.6-10.3-7.3-10.3c-4.7,0-7.3,3-7.3,10.3v3.3H480.2z"/>
		<path class="st3" d="M538.1,81.8c0.7-12.8,8.8-19.7,21.1-19.7c12.2,0,19.1,5.6,19.1,17.1v40.4c0,2,0.5,4.6,0.8,6.7h-12.5
			c-0.1-1.8-0.6-3.4-0.7-4.9c-4.9,4-9,6.1-15.3,6.1c-8.9,0-13.4-6.1-13.4-14.2c0-13.8,9.1-21.4,28-28.6V81c0-5.3-2.1-8.1-6.4-8.1
			c-6,0-7.3,3.5-7.5,8.9H538.1z M565.2,94.3c-12,6.8-14.9,11.1-14.9,16.6c0,4.1,2.1,5.7,6.1,5.7c3.6,0,6.6-2.7,8.8-5.9V94.3z"/>
		<path class="st3" d="M584.4,74.1V63.3h7.3v-17h13.1v17h8.8v10.8h-8.8v36.3c0,3.3,1.4,5.1,4.5,5.1h4.3v11.3
			c-1.8,0.5-3.3,0.7-6.6,0.7c-9.8,0-15.3-4.6-15.3-14.2V74.1H584.4z"/>
		<path class="st3" d="M622.7,126.3v-63h13.1v63H622.7z"/>
		<path class="st3" d="M644.6,85.6c0-13.8,5.4-23.4,20.4-23.4c15,0,20.4,9.6,20.4,23.4v18.5c0,13.8-5.4,23.4-20.4,23.4
			c-15,0-20.4-9.6-20.4-23.4V85.6z M672.2,83.2c0-7.3-2.6-10.3-7.3-10.3c-4.7,0-7.3,3-7.3,10.3v23.2c0,7.3,2.6,10.3,7.3,10.3
			c4.7,0,7.3-3,7.3-10.3V83.2z"/>
		<path class="st3" d="M693.7,126.3v-63h12.4v6.3c5.5-4.7,8.3-7.5,15.9-7.5c6.9,0,11,5,11,13.2v51H720V77.5c0-3.2-1.9-4.6-4.7-4.6
			c-2.8,0-5.4,1.8-8.4,4v49.4H693.7z"/>
		<path class="st3" d="M188.1,120.6l7.9-10.9c5.2,4.3,9,3.8,9,3.8c5,0,7.3-2.9,7.3-9.3V41.7h14.5v63.7c0,13.9-7.8,22.1-20.8,22.1
			C205.9,127.6,194.7,128.1,188.1,120.6z"/>
		<path class="st3" d="M138.6,41.7h14.5v63.9c0,6.2,2.5,9.3,7.7,9.3c5.3,0,7.7-3,7.7-9.3V41.7h14.5V105c0,14.6-8.4,22.5-22.3,22.5
			c-13.8,0-22.3-8-22.3-22.5V41.7z"/>
		<path class="st3" d="M249.6,126.4h-14.1l15.6-84.7h18.1l15.6,84.7h-14.1l-2.6-18.8h-16L249.6,126.4z M254.3,95H266l-5.7-36.4H260
			L254.3,95z"/>
		<g>
			<path class="st3" d="M138.6,204.8v-53.5h8.5l11.2,30.6h0.1v-30.6h8.3v53.5h-8L147,171.3h-0.2v33.4H138.6z"/>
			<path class="st3" d="M175.5,204.8v-53.5h24.6v8h-15.4V173h11.9v8h-11.9v15.7h16.5v8H175.5z"/>
			<path class="st3" d="M226.2,151.2h7.6l6.2,34.1h0.1l5.1-34.1h8.6l-9.4,53.5h-7.7l-6.7-35.4h-0.1l-6.2,35.4H216l-10.2-53.5h8.6
				l5.6,34.1h0.1L226.2,151.2z"/>
			<path class="st3" d="M292.1,204.8h-9.2v-22.3l-11.1-31.3h9.3l6.4,20.4h0.1l6.2-20.4h9.3l-11.1,31.3V204.8z"/>
			<path class="st3" d="M307.6,164.2c0-7.6,4.4-13.7,14.1-13.7c9.6,0,14.1,6.2,14.1,13.7v27.6c0,7.6-4.5,13.7-14.1,13.7
				c-9.6,0-14.1-6.2-14.1-13.7V164.2z M316.8,191.6c0,4,1.2,5.9,4.9,5.9c3.7,0,4.9-1.9,4.9-5.9v-27.1c0-4-1.2-5.9-4.9-5.9
				c-3.7,0-4.9,1.9-4.9,5.9V191.6z"/>
			<path class="st3" d="M353.2,204.8H344v-53.5h12.9c10.3,0,15.6,4.4,15.6,15.8c0,8.6-3.3,12.1-6.5,13.5l7.8,24.3h-9.3l-6.5-22.2
				c-1.2,0.1-3.1,0.2-4.7,0.2V204.8z M353.2,175.2h3.3c5,0,6.8-1.8,6.8-8.2c0-6.4-1.9-8.2-6.8-8.2h-3.3V175.2z"/>
			<path class="st3" d="M380.6,204.8v-53.5h9.2V171h0.1l9.6-19.8h9.2l-9.9,19.9l11.2,33.6h-9.3l-7.5-24.9H393l-3.3,5.9v19H380.6z"/>
		</g>
		<circle class="st3" cx="629.2" cy="47.7" r="8"/>
		<path class="st3" d="M515.1,90.7v35.6H502V63.3h12.5l0,9.1c2.1-6.6,11.7-10.3,18.6-10.3v14.8C533.2,76.9,515.1,74.9,515.1,90.7z"
			/>
	</g>
</g>
<g id="black" class="st1">
	<g class="st2">
		<g>
			<g>
				<g>
					<path d="M57.5,220.8c2.1-73.6,97.3-66.5,26.5-173.7c9.3,49.5-35.6,82.9-37.7,132.4C20.3,110.4,98.2,69.6,71.5,0
						C40.7,78.1-64.4,80.1,57.5,220.8"/>
				</g>
			</g>
		</g>
		<path d="M311.8,126.3V41.8h40.5v12.7h-26v21.8h19.5v12.7h-19.5v37.5H311.8z"/>
		<path d="M395.8,97.3h-27.6v9.1c0,7.3,2.6,10.3,7.3,10.3c4.7,0,7.3-3,7.3-10.3V105h13.1c-0.2,13.4-5.7,22.5-20.4,22.5
			c-15,0-20.4-9.6-20.4-23.4V85.6c0-13.8,5.4-23.4,20.4-23.4s20.4,9.6,20.4,23.4V97.3z M382.6,86.5v-3.3c0-7.3-2.6-10.3-7.3-10.3
			c-4.7,0-7.3,3-7.3,10.3v3.3H382.6z"/>
		<path d="M431.5,126.3v-6.6h-0.2c-4.3,5.5-7.5,7.7-14.1,7.7c-8.2,0-13.4-6.1-13.4-17.6V79.7c0-11.5,5.2-17.6,13.4-17.6
			c5.7,0,8.4,2.3,13.6,6.6v-27h13.1v84.6H431.5z M430.8,76.2c-2.6-1.9-4.9-3.3-7.5-3.3c-3.5,0-6.3,1.9-6.3,10.2v23.4
			c0,8.3,2.8,10.2,6.3,10.2c2.6,0,4.9-1.4,7.5-3.3V76.2z"/>
		<path d="M493.4,97.3h-27.6v9.1c0,7.3,2.6,10.3,7.3,10.3c4.7,0,7.3-3,7.3-10.3V105h13.1c-0.2,13.4-5.7,22.5-20.4,22.5
			c-15,0-20.4-9.6-20.4-23.4V85.6c0-13.8,5.4-23.4,20.4-23.4c15,0,20.4,9.6,20.4,23.4V97.3z M480.2,86.5v-3.3
			c0-7.3-2.6-10.3-7.3-10.3c-4.7,0-7.3,3-7.3,10.3v3.3H480.2z"/>
		<path d="M538.1,81.8c0.7-12.8,8.8-19.7,21.1-19.7c12.2,0,19.1,5.6,19.1,17.1v40.4c0,2,0.5,4.6,0.8,6.7h-12.5
			c-0.1-1.8-0.6-3.4-0.7-4.9c-4.9,4-9,6.1-15.3,6.1c-8.9,0-13.4-6.1-13.4-14.2c0-13.8,9.1-21.4,28-28.6V81c0-5.3-2.1-8.1-6.4-8.1
			c-6,0-7.3,3.5-7.5,8.9H538.1z M565.2,94.3c-12,6.8-14.9,11.1-14.9,16.6c0,4.1,2.1,5.7,6.1,5.7c3.6,0,6.6-2.7,8.8-5.9V94.3z"/>
		<path d="M584.4,74.1V63.3h7.3v-17h13.1v17h8.8v10.8h-8.8v36.3c0,3.3,1.4,5.1,4.5,5.1h4.3v11.3c-1.8,0.5-3.3,0.7-6.6,0.7
			c-9.8,0-15.3-4.6-15.3-14.2V74.1H584.4z"/>
		<path d="M622.7,126.3v-63h13.1v63H622.7z"/>
		<path d="M644.6,85.6c0-13.8,5.4-23.4,20.4-23.4c15,0,20.4,9.6,20.4,23.4v18.5c0,13.8-5.4,23.4-20.4,23.4c-15,0-20.4-9.6-20.4-23.4
			V85.6z M672.2,83.2c0-7.3-2.6-10.3-7.3-10.3c-4.7,0-7.3,3-7.3,10.3v23.2c0,7.3,2.6,10.3,7.3,10.3c4.7,0,7.3-3,7.3-10.3V83.2z"/>
		<path d="M693.7,126.3v-63h12.4v6.3c5.5-4.7,8.3-7.5,15.9-7.5c6.9,0,11,5,11,13.2v51H720V77.5c0-3.2-1.9-4.6-4.7-4.6
			c-2.8,0-5.4,1.8-8.4,4v49.4H693.7z"/>
		<path d="M188.1,120.6l7.9-10.9c5.2,4.3,9,3.8,9,3.8c5,0,7.3-2.9,7.3-9.3V41.7h14.5v63.7c0,13.9-7.8,22.1-20.8,22.1
			C205.9,127.6,194.7,128.1,188.1,120.6z"/>
		<path d="M138.6,41.7h14.5v63.9c0,6.2,2.5,9.3,7.7,9.3c5.3,0,7.7-3,7.7-9.3V41.7h14.5V105c0,14.6-8.4,22.5-22.3,22.5
			c-13.8,0-22.3-8-22.3-22.5V41.7z"/>
		<path d="M249.6,126.4h-14.1l15.6-84.7h18.1l15.6,84.7h-14.1l-2.6-18.8h-16L249.6,126.4z M254.3,95H266l-5.7-36.4H260L254.3,95z"/>
		<g>
			<path d="M138.6,204.8v-53.5h8.5l11.2,30.6h0.1v-30.6h8.3v53.5h-8L147,171.3h-0.2v33.4H138.6z"/>
			<path d="M175.5,204.8v-53.5h24.6v8h-15.4V173h11.9v8h-11.9v15.7h16.5v8H175.5z"/>
			<path d="M226.2,151.2h7.6l6.2,34.1h0.1l5.1-34.1h8.6l-9.4,53.5h-7.7l-6.7-35.4h-0.1l-6.2,35.4H216l-10.2-53.5h8.6l5.6,34.1h0.1
				L226.2,151.2z"/>
			<path d="M292.1,204.8h-9.2v-22.3l-11.1-31.3h9.3l6.4,20.4h0.1l6.2-20.4h9.3l-11.1,31.3V204.8z"/>
			<path d="M307.6,164.2c0-7.6,4.4-13.7,14.1-13.7c9.6,0,14.1,6.2,14.1,13.7v27.6c0,7.6-4.5,13.7-14.1,13.7
				c-9.6,0-14.1-6.2-14.1-13.7V164.2z M316.8,191.6c0,4,1.2,5.9,4.9,5.9c3.7,0,4.9-1.9,4.9-5.9v-27.1c0-4-1.2-5.9-4.9-5.9
				c-3.7,0-4.9,1.9-4.9,5.9V191.6z"/>
			<path d="M353.2,204.8H344v-53.5h12.9c10.3,0,15.6,4.4,15.6,15.8c0,8.6-3.3,12.1-6.5,13.5l7.8,24.3h-9.3l-6.5-22.2
				c-1.2,0.1-3.1,0.2-4.7,0.2V204.8z M353.2,175.2h3.3c5,0,6.8-1.8,6.8-8.2c0-6.4-1.9-8.2-6.8-8.2h-3.3V175.2z"/>
			<path d="M380.6,204.8v-53.5h9.2V171h0.1l9.6-19.8h9.2l-9.9,19.9l11.2,33.6h-9.3l-7.5-24.9H393l-3.3,5.9v19H380.6z"/>
		</g>
		<circle cx="629.2" cy="47.7" r="8"/>
		<path d="M515.1,90.7v35.6H502V63.3h12.5l0,9.1c2.1-6.6,11.7-10.3,18.6-10.3v14.8C533.2,76.9,515.1,74.9,515.1,90.7z"/>
	</g>
</g>
</svg>
