<svg id="Слой_1" xmlns="http://www.w3.org/2000/svg" viewBox="0 0 163.7 36.9"><style>.st0{fill:#0054a5}.st1{fill:#00abbc}</style><path class="st0" d="M.4 23.2h8.2l.9-1.2H2.7l5.8-7.4-.8-.8z"/><path class="st0" d="M4.9 20.9h5.4l.9-1.1h-4l2.8-3.6-.8-.8z"/><path class="st1" d="M11.2 25.5v-3.9l1.1-1.4v3.4l5.4 4.5v8.4h-1.1V30z"/><path class="st1" d="M15.5 36.5h-1.1v-4.1l-5.3-4.5v-3.5l1-1.4v3l5.4 4.5zM25.2 25.5v-3.9l-1.1-1.4v3.4l-5.4 4.5v8.4h1.1V30z"/><path class="st1" d="M20.9 36.5H22v-4.1l5.3-4.5v-3.5l-1-1.4v3l-5.4 4.5z"/><path class="st0" d="M9.7 11.1l.8.8L18.2 2l7.7 9.9.8-.8L18.2.2z"/><path class="st0" d="M18.2 3.8l-6.9 8.9.8.8 6.1-7.9 6.1 7.9.8-.8z"/><path class="st0" d="M24.6 6.6l.8 1.1h6.1L18.2 21.5 4.9 7.7H11l.8-1.1H2.3l15.9 16.5L34.1 6.6zM28.7 13.8l-.8.8 5.8 7.4h-6.8l.9 1.2H36z"/><path class="st0" d="M27.2 15.4l-.8.8 2.8 3.6h-4l.9 1.1h5.3z"/><path class="st1" d="M110.5 32.1s-.9 2.1-2 4.5h-2.4l2.2-4.7c.3-.7.4-1.2.3-1.5-.2-.3-.6-.4-1.2-.4h-3.8v-3.1h2.2v1.5h2.7c1.2 0 1.9.6 2.2 1.4.2.9.1 1.6-.2 2.3M117 36.6c-.6-1-2.3-3.4-2.9-4.1-.3.3-.5.9-.5 1.3v2.8h-2.2v-2.3c0-.9.7-2.2 2-2.9l-2.4-3h2.7l2.7 3.7c.5-.2.5-1.2.5-1.6v-2.1h2.2v1.8c0 .9-.6 2.3-1.9 2.8.8 1.2 2.4 3.5 2.4 3.5H117zM126.6 36.6h-2.2v-5c0-1.4-.9-1.8-2.1-1.8-.7 0-1.4.2-1.9.3v-1.5c.9-.3 1.8-.3 2.8-.3 1.5 0 3.4.9 3.4 2.8v5.5zM138 33.3c-.3 2.2-2.5 3.6-4.6 3.6-1.5 0-3.2-.3-4.1-1.4-.8-1-1-2.5-1.1-3.8 0 0-.2-2.4-.3-3.1h2.2c.1 1.4.2 2.8.4 4.2.9.1 1.7-.5 1.8-1.7 0 0 .2-1.6.3-2.5h2.2c-.1.9-.2 1.8-.3 2.9-.2 1.6-1.3 2.5-3.2 2.5h-.5c.2 1.2 1 1.6 2.4 1.6 1.9 0 2.6-1.5 2.7-3.1 0 0 .3-3.2.4-3.9h2.3c-.2 1.5-.6 4.7-.6 4.7M139.9 33.3v-4.8h2.2v4.2c-.7.3-1.7.5-2.2.6M73.3 14.7V10c0-1-.6-1.9-1.8-1.9h-1.2v4.8c0 1.3-.9 2-2.2 2-.6 0-1.4-.1-1.6-.3v-1.4c.3.1.5.2.8.2.8 0 .9-.5.9-1V8.8l.2-.7h-1.8V6.6h5.5c2.2 0 3.3 1.3 3.3 3.2v4.8h-2.1zM76.5 11.4V6.6h2.2v4.2c-.8.3-1.7.5-2.2.6M85.6 8.2v6.5h-2.2V8.2h-3.8V6.6h7.1v1.6zM87.8 6.6H90v8.1h-2.2zM91.5 14.7v-4.4c.6-.2 1.5-.3 2.2-.4v4.8h-2.2zm5 0v-4.6c0-1.3-1-2.1-2.5-2.1-.7 0-1.8.1-2.7.3V6.8c1.1-.3 2.4-.3 3.5-.3 1.7 0 3.9.8 3.9 2.8v5.4h-2.2zM99.7 11.4V6.6h2.2v4.2c-.8.3-1.7.5-2.2.6M103.3 14.7v-4.4c.6-.2 1.5-.3 2.2-.4v4.8h-2.2zm5 0v-4.6c0-1.3-1-2.1-2.5-2.1-.7 0-1.8.1-2.7.3V6.8c1.1-.3 2.4-.3 3.5-.3 1.7 0 3.9.8 3.9 2.8v5.4h-2.2zM122 14.7V10c0-1-.6-1.9-1.8-1.9H119v4.8c0 1.3-.9 2-2.2 2-.6 0-1.4-.1-1.6-.3v-1.4c.3.1.5.2.8.2.8 0 .9-.5.9-1V8.8l.2-.7h-1.8V6.6h5.5c2.2 0 3.3 1.3 3.3 3.2v4.8H122zM125.8 6.6h2.2v8.1h-2.2zM129.2 14.7v-1.5h2.2v-4c0-.7-.5-1.1-1.2-1.1-.3 0-.6 0-.8.1V6.7c.6-.1 1-.2 1.6-.2 1.8 0 2.6 1 2.6 2.6v5.6h-4.4zM136.8 14.9c-.9 0-1.5-.1-2.1-.4V13c.4.3 1.1.4 1.9.4 1.8 0 2.3-1.1 2.3-2.9 0-1.7-.7-2.6-2.2-2.6-.8 0-1.5.2-1.9.4V6.8c.9-.3 1.3-.3 2.2-.3 2.6 0 4.2 1.6 4.2 4.1-.1 2.8-1.5 4.3-4.4 4.3M142.4 6.6h2.2v8.1h-2.2zM150 7.8c-1.7 0-2 2-2 2.9 0 1.3.4 2.8 2 2.8 1.5 0 1.9-1.5 1.9-2.8 0-1-.3-2.9-1.9-2.9m0 7.1c-2.8 0-4.1-1.8-4.1-4.3s1.3-4.3 4.1-4.3 4.1 1.8 4.1 4.3c0 2.6-1.3 4.3-4.1 4.3M155.4 14.7v-4.4c.6-.2 1.5-.3 2.2-.4v4.8h-2.2zm5 0v-4.6c0-1.3-1-2.1-2.5-2.1-.7 0-1.8.1-2.7.3V6.8c1.1-.3 2.4-.3 3.5-.3 1.7 0 3.9.8 3.9 2.8v5.4h-2.2z"/><path class="st0" d="M46.2 8.2v6.5h-1.8V8.2h-2V6.6h5.7v1.6zM53.7 14.7v-3.4h-2.9v3.4h-1.9V6.6h1.9v3.1h2.9V6.6h1.9v8.1zM57.2 14.7V6.6h4.6v1.6h-2.7v1.6h2.5v1.5h-2.5v1.8h2.7v1.6zM46.2 30.1v1.7h2.5v1.5h-2.5v3.2h-1.8v-8h4.4v1.6zM53.3 30c-1 0-1.9.8-1.9 2.4 0 1.6.6 2.5 1.9 2.5.9 0 1.9-.7 1.9-2.5 0-1.5-.7-2.4-1.9-2.4m-.1 6.7c-2.5 0-3.7-1.6-3.7-4.1 0-2.6 1.8-4.3 4-4.3 2.1 0 3.7 1.2 3.7 4.1 0 2.6-1.8 4.3-4 4.3M60.6 29.9h-.5V32h.5c.8 0 1.3-.4 1.3-1.1-.1-.6-.4-1-1.3-1m1.5 6.6l-1.9-3.2h-.1v3.2h-1.9v-8.1c.7 0 1.6-.1 2.5-.1 1.9 0 3 .7 3 2.4 0 1.1-.7 2-1.8 2.2l.6.9 1.7 2.6h-2.1zM67.7 28.5h1.9v8.1h-1.9zM72.6 36.7c-.6 0-1.1-.1-1.6-.2l.1-1.7c.5.2 1.1.3 1.7.3.7 0 1.2-.3 1.2-.9 0-1.4-3.2-.7-3.2-3.4 0-1.5 1.2-2.5 3.2-2.5.4 0 1 .1 1.5.1l-.1 1.6c-.5-.1-1-.2-1.4-.2-.8 0-1.1.3-1.1.8 0 1.3 3.2.8 3.2 3.3-.2 1.6-1.5 2.8-3.5 2.8M79.4 29.9h-.5V32h.5c.8 0 1.3-.4 1.3-1.1-.1-.6-.5-1-1.3-1m1.4 6.6l-1.9-3.2h-.1v3.2H77v-8.1c.7 0 1.6-.1 2.5-.1 1.9 0 3 .7 3 2.4 0 1.1-.7 2-1.8 2.2l.6.9 1.7 2.6h-2.2zM87.3 32c-.2-.5-.3-.9-.4-1.3-.1.4-.2.9-.4 1.4l-.5 1.5h1.9l-.6-1.6zm1.5 4.5l-.5-1.5h-2.8l-.5 1.5h-1.9l2.7-8.1H88l2.8 8.1h-2zM91.5 36.5v-8h4.6V30h-2.7v1.6h2.5v1.5h-2.5v1.8h2.7v1.6zM97.3 36.5v-8h1.9v6.4h2.4v1.6z"/><path class="st1" d="M134.8 23v4.4h-2.2v-3.5c0-.9-.2-1.9-.7-2.9 0 0-1.2-2.3-1.7-3.4h2.4c.6 1.2 1.3 2.6 1.8 4.2.5-.2 1.1-.9 1.1-2.4v-1.8h2.2v2.1c.1 1.3-1.2 3-2.9 3.3M144.9 25.6h-2.2v-4.9c0-1.4-.9-1.8-2.1-1.8-.7 0-1.4.2-1.8.3v-1.5c.9-.3 1.8-.3 2.7-.3 1.5 0 3.3.9 3.3 2.7l.1 5.5zM152.1 25.6c-.6-1-2.2-3.3-2.8-4.1-.3.3-.5.9-.5 1.3v2.8h-2.2v-2.2c0-.9.7-2.2 2-2.8l-2.3-3h2.7l2.6 3.6c.5-.2.5-1.1.5-1.6v-2h2.2v1.8c0 .9-.5 2.3-1.9 2.8.7 1.2 2.4 3.4 2.4 3.4h-2.7zM162.3 21.1s-.9 2-2 4.5H158l2.2-4.7c.3-.7.4-1.2.3-1.5-.2-.3-.6-.4-1.2-.4h-3.7v-3h2.2v1.5h2.7c1.2 0 1.9.6 2.1 1.4.2.8 0 1.5-.3 2.2"/><path class="st0" d="M43.9 25.7c-.5 0-.8 0-1.1-.1V24c.2.1.4.1.7.1.5 0 .8-.2.8-1v-5.6h1.9v5.7c0 1.4-.5 2.5-2.3 2.5M47.8 25.6v-8.1h4.5v1.6h-2.7v1.6h2.6v1.5h-2.6V24h2.7v1.6zM62 25.6h-2.3l-1-3.8c-.1-.5-.2-1.2-.3-1.8l-.3 1.8-1 3.9H55l-2-8.1h2l.9 3.9c.1.5.2 1.1.3 1.7.1-.6.2-1.1.3-1.6l1-4h1.9l1.1 3.9c.1.5.2 1.1.3 1.7.1-.6.2-1.2.3-1.7l.9-3.9h2l-2 8zM64.9 17.5h1.9v8.1h-1.9zM69.7 25.7c-.6 0-1.1-.1-1.6-.2l.1-1.7c.5.2 1.1.3 1.7.3.7 0 1.2-.3 1.2-.9 0-1.4-3.2-.7-3.2-3.4 0-1.5 1.2-2.5 3.2-2.5.4 0 1 0 1.5.1l-.1 1.6c-.5-.1-1-.2-1.4-.2-.8 0-1.1.3-1.1.8 0 1.3 3.2.8 3.2 3.3-.2 1.7-1.4 2.8-3.5 2.8M79 25.6v-3.4h-3v3.4h-1.9v-8.1H76v3.1h3v-3.1h1.8v8.1zM88.2 21c-.2-.5-.3-.9-.4-1.3-.1.4-.2.9-.4 1.4l-.5 1.5h1.9l-.6-1.6zm1.5 4.6l-.5-1.5h-2.8l-.5 1.5h-1.8l2.7-8.1h2.1l2.8 8.1h-2zM98.5 19.5c-.6-.3-1.4-.4-2.1-.4-1.5 0-2.5 1-2.5 2.5s.8 2.4 2.3 2.4c.3 0 .5 0 .8-.1v-2.6h1.9v3.9c-.8.3-1.8.5-2.8.5-2.6 0-4.1-1.5-4.1-4 0-2.6 1.8-4.3 4.6-4.3.8 0 1.6.1 2.3.3l-.4 1.8zM100.2 25.6v-8.1h4.5v1.6H102v1.6h2.6v1.5H102V24h2.7v1.6zM110.5 25.6l-1.9-3.5c-.3-.6-.6-1.2-.8-1.8 0 .6.1 1.4.1 2.2v3.1H106v-8.1h2.4l1.8 3.2c.4.7.7 1.4 1 2-.1-.7-.1-1.8-.1-2.5v-2.7h1.8v8.1h-2.4zM117.7 25.7c-3 0-3.8-2-3.8-3.8 0-2.6 1.4-4.4 4.1-4.4.6 0 1.1.1 1.6.2l-.2 1.7c-.5-.1-1-.2-1.5-.2-1.3 0-2 .9-2 2.4 0 1.6.6 2.5 2.1 2.5.4 0 1-.1 1.4-.3l.2 1.7c-.5.1-1.2.2-1.9.2M124.4 22.8v2.8h-1.9v-2.8l-2.5-5.3h2l.9 2.1c.2.5.4.9.5 1.3.2-.5.4-.9.6-1.5l.9-1.9h2l-2.5 5.3z"/></svg>