<?xml version="1.0" encoding="utf-8"?>
<!-- Generator: Adobe Illustrator 22.0.1, SVG Export Plug-In . SVG Version: 6.00 Build 0)  -->
<svg version="1.1" id="Слой_1" xmlns="http://www.w3.org/2000/svg" xmlns:xlink="http://www.w3.org/1999/xlink" x="0px" y="0px"
	 viewBox="0 0 103.4 104.5" style="enable-background:new 0 0 103.4 104.5;" xml:space="preserve">
<style type="text/css">
	.st0{fill:#1A4176;}
	.st1{fill:#FFFFFF;}
</style>
<path class="st0" d="M52.4,2.2c27.6,0,50,22.4,50,50s-22.4,50-50,50s-50-22.4-50-50C2.4,24.5,24.8,2.2,52.4,2.2"/>
<path class="st1" d="M52.5,2.2c3,0,5.9,0.3,8.8,0.8c-0.8,6.7-3.9,12.8-8.4,17.3c-4.3,4.3-10,7.3-16.3,8.3v9.2c8.9-1,16.8-5,22.8-11
	c5.6-5.6,9.5-13,10.8-21.3c2.9,1.1,5.6,2.4,8.2,4c-1.9,9.1-6.5,17.2-12.8,23.5c-7.6,7.6-17.7,12.6-29,13.7V55
	c13.6-1.1,25.8-7,34.9-16.1c6.6-6.6,11.5-14.8,14.2-24c2.5,2.2,4.8,4.7,6.8,7.4C89.1,30.8,84,38.6,77.6,45
	C66.9,55.7,52.5,62.6,36.4,63.7l-0.2,35.8c-3.1-1-6-2.4-8.8-4l0.1-31.8c-9-0.6-17.4-3.1-25-7c-0.1-1.5-0.2-3-0.2-4.6
	c0-1.9,0.1-3.7,0.3-5.5c7.3,4.6,15.8,7.5,25,8.2v-8.3C19,45.7,11,42.6,4.4,37.8c0.9-3,2-5.8,3.4-8.5c5.6,4.5,12.4,7.5,19.9,8.3v-9.1
	c-5.7-0.8-10.9-3.3-15-6.9c1.8-2.3,3.8-4.5,6-6.5c2.6,2.2,5.7,3.7,9.1,4.4v-11c2.8-1.6,5.7-2.9,8.8-3.9l-0.1,14.9
	c3.9-0.9,7.3-2.8,10-5.5C49.7,10.9,51.9,6.8,52.5,2.2"/>
<path class="st0" d="M34,68.9c0,0.3,0,0.5-0.1,0.7s-0.2,0.4-0.4,0.5s-0.3,0.2-0.5,0.3c-0.2,0.1-0.4,0.1-0.6,0.2c-0.2,0-0.5,0-0.7,0
	H31v-3h0.9c0.2,0,0.4,0,0.6,0s0.4,0,0.6,0.1c0.2,0,0.3,0.1,0.5,0.2c0.1,0.1,0.3,0.2,0.3,0.4C33.9,68.4,34,68.6,34,68.9 M35.4,68.8
	c0-0.4-0.1-0.8-0.2-1.1c-0.1-0.3-0.3-0.5-0.5-0.7s-0.5-0.3-0.8-0.4s-0.6-0.1-0.9-0.1s-0.7,0-1,0h-2.5v7.6h1.4v-2.5h0.9
	c0.4,0,0.7,0,1-0.1s0.7-0.2,1-0.3c0.3-0.1,0.6-0.3,0.8-0.5s0.4-0.5,0.6-0.8C35.3,69.5,35.4,69.2,35.4,68.8"/>
<path class="st1" d="M40.2,71.7h-2.1c0-0.2,0-0.5,0.1-0.6c0.1-0.2,0.2-0.3,0.4-0.4s0.4-0.1,0.6-0.1c0.3,0,0.5,0.1,0.6,0.2
	s0.3,0.2,0.3,0.4C40.2,71.2,40.2,71.4,40.2,71.7L40.2,71.7z M41.2,71.8c0-0.4-0.1-0.8-0.2-1.1c-0.1-0.3-0.4-0.5-0.7-0.7
	s-0.7-0.2-1.1-0.2c-0.3,0-0.6,0.1-0.9,0.2c-0.3,0.1-0.5,0.3-0.7,0.4c-0.2,0.2-0.3,0.4-0.4,0.7c-0.1,0.3-0.1,0.6-0.1,0.9
	c0,0.4,0.1,0.8,0.2,1.1c0.1,0.3,0.3,0.5,0.5,0.7s0.5,0.3,0.8,0.4s0.7,0.1,1,0.1c0.2,0,0.3,0,0.5,0s0.4,0,0.5,0
	c0.2,0,0.3-0.1,0.5-0.1v-0.6c-0.2,0-0.4,0-0.6,0.1c-0.2,0-0.4,0-0.6,0c-0.2,0-0.3,0-0.5,0s-0.3-0.1-0.5-0.1s-0.3-0.1-0.4-0.2
	c-0.1-0.1-0.2-0.2-0.3-0.3c-0.1-0.1-0.1-0.3-0.1-0.5h3c0-0.1,0-0.2,0-0.3C41.2,72,41.2,71.9,41.2,71.8"/>
<polygon class="st1" points="45.4,70.6 45.4,69.9 42.1,69.9 42.1,74.2 43.1,74.2 43.1,70.6 "/>
<polygon class="st1" points="50.1,74.2 50.1,69.9 49.1,69.9 47.1,72.9 47.1,69.9 46,69.9 46,74.2 47,74.2 49.1,71.1 49.1,74.2 "/>
<path class="st1" d="M54.5,72c0,0.2,0,0.4-0.1,0.6c0,0.2-0.1,0.3-0.2,0.5c-0.1,0.1-0.2,0.3-0.4,0.3c-0.2,0.1-0.3,0.1-0.6,0.1
	c-0.2,0-0.4,0-0.6-0.1c-0.2-0.1-0.3-0.2-0.4-0.3C52.1,73,52,72.8,52,72.6s0-0.4,0-0.6s0-0.4,0.1-0.6s0.1-0.3,0.2-0.5
	c0.1-0.1,0.2-0.3,0.4-0.3c0.2-0.1,0.3-0.1,0.6-0.1c0.2,0,0.4,0,0.6,0.1c0.2,0.1,0.3,0.2,0.4,0.3c0.1,0.1,0.2,0.3,0.2,0.5
	S54.5,71.8,54.5,72 M55.5,72c0-0.5-0.1-0.9-0.3-1.2c-0.2-0.3-0.4-0.6-0.8-0.7c-0.3-0.2-0.7-0.3-1.2-0.3c-0.3,0-0.6,0.1-0.9,0.2
	c-0.3,0.1-0.5,0.3-0.7,0.5s-0.4,0.4-0.5,0.7c0,0.2-0.1,0.5-0.1,0.8c0,0.5,0.1,0.9,0.3,1.2c0.2,0.3,0.4,0.6,0.8,0.8
	c0.3,0.2,0.7,0.3,1.2,0.3c0.3,0,0.6-0.1,0.9-0.2c0.3-0.1,0.5-0.3,0.7-0.5s0.4-0.4,0.5-0.7C55.5,72.6,55.5,72.3,55.5,72"/>
<polygon class="st1" points="60.5,74.2 60.5,69.9 59.5,69.9 59.5,71.6 57.5,71.6 57.5,69.9 56.5,69.9 56.5,74.2 57.5,74.2 
	57.5,72.4 59.5,72.4 59.5,74.2 "/>
<path class="st1" d="M64.4,72.5C64.4,72.6,64.4,72.6,64.4,72.5c0,0.1-0.1,0.1-0.1,0.2v0.1c-0.1,0.2-0.2,0.3-0.3,0.4
	c-0.1,0.1-0.3,0.2-0.4,0.3c-0.2,0.1-0.3,0.1-0.5,0.1c-0.1,0-0.2,0-0.3-0.1c-0.1,0-0.2-0.1-0.2-0.2c-0.1-0.1-0.1-0.2-0.1-0.3
	c0-0.1,0-0.3,0.1-0.4s0.1-0.2,0.2-0.2c0.1-0.1,0.2-0.1,0.3-0.1s0.2,0,0.4-0.1c0.1,0,0.2,0,0.4,0h0.7v0.3H64.4z M65.5,74.2
	c0-0.3,0-0.6-0.1-1c0-0.3,0-0.6,0-1c0-0.3,0-0.5,0-0.7s0-0.4,0-0.6s-0.1-0.3-0.1-0.5c-0.1-0.1-0.2-0.2-0.3-0.3
	c-0.1-0.1-0.3-0.2-0.5-0.2s-0.5-0.1-0.8-0.1c-0.1,0-0.2,0-0.4,0c-0.1,0-0.3,0-0.4,0c-0.1,0-0.3,0-0.4,0.1c-0.1,0-0.3,0.1-0.4,0.1
	v0.6c0.2,0,0.4-0.1,0.7-0.1c0.2,0,0.5,0,0.7,0s0.4,0,0.5,0c0.1,0,0.2,0.1,0.3,0.1c0.1,0.1,0.1,0.2,0.2,0.3c0,0.1,0.1,0.3,0.1,0.5
	l0,0h-0.8c-0.2,0-0.4,0-0.6,0c-0.2,0-0.4,0.1-0.6,0.1c-0.2,0.1-0.4,0.2-0.5,0.3c-0.2,0.1-0.3,0.3-0.4,0.4c-0.1,0.2-0.1,0.4-0.1,0.6
	s0,0.4,0.1,0.5s0.2,0.3,0.3,0.4s0.3,0.2,0.4,0.2c0.2,0,0.3,0.1,0.5,0.1c0.3,0,0.7-0.1,1-0.2c0.3-0.1,0.5-0.4,0.7-0.6
	c0,0.1,0,0.3,0,0.4s0,0.3,0.1,0.4h0.8V74.2z"/>
<path class="st1" d="M70.5,74.2v-4.3h-3.2c0,0.5-0.1,1-0.1,1.4s-0.1,0.7-0.2,1s-0.1,0.5-0.2,0.6c-0.1,0.2-0.1,0.3-0.2,0.4
	s-0.2,0.1-0.2,0.2c-0.1,0-0.2,0-0.3,0c-0.1,0-0.1,0-0.2,0h-0.1v0.7l0,0c0,0,0,0,0.1,0H66c0.2,0,0.5,0,0.7-0.1s0.4-0.2,0.5-0.3
	c0.1-0.2,0.3-0.4,0.4-0.6c0.1-0.3,0.2-0.6,0.3-1c0.1-0.4,0.1-0.9,0.2-1.5h1.4v3.6L70.5,74.2L70.5,74.2z"/>
<path class="st1" d="M74.3,72.8c0,0.1,0,0.3-0.1,0.4s-0.1,0.2-0.2,0.2s-0.2,0.1-0.4,0.1c-0.2,0-0.3,0-0.5,0h-0.4v-1.3h0.4
	c0.2,0,0.4,0,0.6,0s0.3,0.1,0.4,0.2C74.2,72.5,74.3,72.6,74.3,72.8 M75.3,72.8c0-0.3-0.1-0.5-0.2-0.6c-0.1-0.2-0.3-0.3-0.5-0.4
	s-0.4-0.1-0.7-0.2c-0.3,0-0.5,0-0.8,0h-0.5v-1.7h-1v4.3h1.5c0.2,0,0.4,0,0.6,0s0.4-0.1,0.6-0.1c0.2-0.1,0.3-0.1,0.5-0.2
	c0.1-0.1,0.3-0.2,0.4-0.4C75.3,73.2,75.3,73,75.3,72.8"/>
<polygon class="st1" points="80.2,74.2 80.2,69.9 79.2,69.9 79.2,71.6 77.2,71.6 77.2,69.9 76.2,69.9 76.2,74.2 77.2,74.2 
	77.2,72.4 79.2,72.4 79.2,74.2 "/>
<path class="st1" d="M83.9,72.8c0,0.1,0,0.3-0.1,0.4s-0.1,0.2-0.2,0.2s-0.2,0.1-0.4,0.1c-0.2,0-0.3,0-0.5,0h-0.2v-1.3h0.3
	c0.2,0,0.4,0,0.6,0s0.3,0.1,0.4,0.2C83.8,72.5,83.9,72.6,83.9,72.8 M84.9,72.8c0-0.3-0.1-0.5-0.2-0.6c-0.1-0.2-0.3-0.3-0.5-0.4
	s-0.4-0.1-0.7-0.2c-0.3,0-0.5,0-0.8,0h-0.3v-1.7h-1v4.3h1.4c0.2,0,0.4,0,0.6,0s0.4-0.1,0.6-0.1c0.2-0.1,0.3-0.1,0.5-0.2
	c0.1-0.1,0.3-0.2,0.4-0.4C84.9,73.2,84.9,73,84.9,72.8 M86.4,69.9h-1v4.3h1V69.9z"/>
<path class="st1" d="M91.2,68h-0.7c0,0.2,0,0.4-0.1,0.5s-0.1,0.2-0.3,0.3c-0.1,0.1-0.3,0.1-0.5,0.1c-0.1,0-0.2,0-0.3,0
	c-0.1,0-0.2-0.1-0.2-0.1C89,68.6,89,68.6,89,68.4c0-0.1,0-0.3,0-0.4h-0.8c0,0.2,0,0.4,0.1,0.5c0,0.2,0.1,0.3,0.2,0.4
	s0.3,0.2,0.5,0.3c0.2,0.1,0.4,0.1,0.7,0.1c0.3,0,0.6,0,0.8-0.1c0.2-0.1,0.4-0.2,0.5-0.3c0.1-0.1,0.2-0.3,0.2-0.4
	C91.1,68.3,91.2,68.2,91.2,68 M91.7,74.2v-4.3h-1l-2.1,3v-3h-1v4.3h1l2.1-3v3H91.7z"/>
<polygon class="st0" points="34.3,84.1 34.3,83.1 30.9,83.1 30.9,80.8 33.4,80.8 33.4,79.7 30.9,79.7 30.9,77.6 34.3,77.6 
	34.3,76.5 29.5,76.5 29.5,84.1 "/>
<path class="st1" d="M40.3,82.8c0,0.1,0,0.3-0.1,0.3c-0.1,0.1-0.1,0.1-0.2,0.2c-0.1,0-0.2,0.1-0.4,0.1s-0.3,0-0.6,0h-0.7v-1.2H39
	c0.2,0,0.3,0,0.5,0s0.3,0,0.4,0.1c0.1,0,0.2,0.1,0.3,0.2S40.3,82.7,40.3,82.8 M40.2,81c0,0.2-0.1,0.4-0.2,0.5
	c-0.1,0.1-0.3,0.1-0.6,0.1h-1v-1.1h1.1c0.1,0,0.2,0,0.2,0c0.1,0,0.2,0,0.2,0.1c0.1,0,0.1,0.1,0.2,0.2C40.1,80.8,40.2,80.9,40.2,81
	 M41.3,82.8c0-0.2,0-0.3-0.1-0.4c0-0.1-0.1-0.2-0.2-0.3c0-0.1-0.1-0.1-0.2-0.2c-0.1,0-0.2-0.1-0.3-0.1s-0.1,0-0.2,0
	c-0.1,0-0.1,0-0.1,0s0,0,0.1,0s0.1,0,0.2-0.1c0.1,0,0.2-0.1,0.2-0.2c0.1-0.1,0.2-0.2,0.2-0.3C41,81.1,41,81,41,80.8
	c0-0.2,0-0.4-0.1-0.5s-0.1-0.2-0.3-0.3c-0.1-0.1-0.2-0.1-0.3-0.2c-0.1,0-0.2,0-0.4-0.1c-0.1,0-0.2,0-0.3,0h-2.4V84H39
	c0.1,0,0.3,0,0.5,0s0.3,0,0.5-0.1c0.2,0,0.3-0.1,0.5-0.1c0.1-0.1,0.3-0.1,0.4-0.2c0.1-0.1,0.2-0.2,0.3-0.4
	C41.3,83.2,41.3,83,41.3,82.8"/>
<path class="st1" d="M45.3,81.7c0,0.2,0,0.4-0.1,0.6s-0.1,0.4-0.2,0.5c-0.1,0.2-0.3,0.3-0.4,0.4c-0.2,0.1-0.4,0.1-0.6,0.1
	c-0.1,0-0.2,0-0.3,0s-0.2,0-0.3-0.1v-1.8c0-0.2,0.1-0.4,0.2-0.5c0.1-0.1,0.3-0.3,0.4-0.3c0.2-0.1,0.3-0.1,0.5-0.1s0.3,0,0.4,0.1
	c0.1,0.1,0.2,0.2,0.3,0.3c0.1,0.1,0.1,0.2,0.2,0.4C45.3,81.4,45.3,81.6,45.3,81.7 M46.3,81.7c0-0.3,0-0.5-0.1-0.7s-0.2-0.4-0.3-0.6
	s-0.3-0.3-0.5-0.4s-0.5-0.1-0.7-0.1s-0.4,0-0.5,0.1c-0.2,0.1-0.3,0.2-0.5,0.3c-0.2,0.1-0.3,0.3-0.4,0.4v-0.8h-1V86h1v-1.9
	c0.1,0,0.3,0,0.4,0.1c0.1,0,0.3,0,0.4,0c0.3,0,0.5,0,0.8-0.1c0.2-0.1,0.4-0.2,0.6-0.4c0.2-0.2,0.3-0.3,0.4-0.5
	c0.1-0.2,0.2-0.4,0.3-0.7C46.3,82.2,46.3,81.9,46.3,81.7"/>
<path class="st1" d="M50.1,81.7H48c0-0.2,0-0.5,0.1-0.6c0.1-0.2,0.2-0.3,0.4-0.4s0.4-0.1,0.6-0.1c0.3,0,0.5,0.1,0.6,0.2
	c0.2,0.1,0.3,0.2,0.3,0.4C50.1,81.2,50.1,81.4,50.1,81.7L50.1,81.7z M51.1,81.8c0-0.4-0.1-0.8-0.2-1.1c-0.1-0.3-0.4-0.5-0.7-0.7
	s-0.7-0.2-1.1-0.2c-0.3,0-0.6,0.1-0.9,0.2c-0.3,0.1-0.5,0.3-0.7,0.4c-0.2,0.2-0.3,0.4-0.4,0.7C47,81.3,47,81.6,47,82
	s0.1,0.8,0.2,1.1c0.1,0.3,0.3,0.5,0.5,0.7s0.5,0.3,0.8,0.4s0.7,0.1,1,0.1c0.2,0,0.3,0,0.5,0s0.4,0,0.5,0c0.2,0,0.3-0.1,0.5-0.1v-0.6
	c-0.2,0-0.4,0-0.6,0.1c-0.2,0-0.4,0-0.6,0c-0.2,0-0.3,0-0.5,0s-0.3-0.1-0.5-0.1s-0.3-0.1-0.4-0.2c-0.1-0.1-0.2-0.2-0.3-0.3
	C48,82.7,48,82.5,48,82.3h3c0-0.1,0-0.2,0-0.3C51.1,82,51.1,81.9,51.1,81.8"/>
<path class="st1" d="M55.5,78h-0.7c0,0.2,0,0.4-0.1,0.5s-0.1,0.2-0.3,0.3c-0.1,0.1-0.3,0.1-0.5,0.1c-0.1,0-0.2,0-0.3,0
	s-0.2-0.1-0.2-0.1c-0.1-0.1-0.1-0.2-0.1-0.3c0-0.1,0-0.3,0-0.4h-0.8c0,0.2,0,0.4,0.1,0.5c0,0.2,0.1,0.3,0.2,0.4
	c0.1,0.1,0.3,0.2,0.5,0.3c0.2,0.1,0.4,0.1,0.7,0.1s0.6,0,0.8-0.1s0.4-0.2,0.5-0.3c0.1-0.1,0.2-0.3,0.2-0.4
	C55.5,78.3,55.5,78.1,55.5,78 M56,84.1v-4.3h-1l-2.1,3v-3h-1v4.3h1l2.1-3v3H56z"/>
<path class="st1" d="M60.4,83.4c-0.1,0-0.3,0-0.4,0c-0.1,0-0.3,0-0.4,0c-0.2,0-0.5,0-0.7-0.1s-0.4-0.1-0.5-0.2
	c-0.2-0.1-0.3-0.3-0.4-0.4c0-0.2,0-0.4,0-0.7s0.1-0.6,0.2-0.8c0.1-0.2,0.3-0.4,0.5-0.4c0.2-0.1,0.5-0.1,0.8-0.1c0.1,0,0.3,0,0.4,0
	c0.1,0,0.3,0,0.4,0V80c-0.2-0.1-0.3-0.1-0.5-0.1s-0.3,0-0.5,0c-0.5,0-0.9,0.1-1.3,0.2c-0.3,0.2-0.6,0.4-0.8,0.7
	C57.1,81.1,57,81.5,57,82c0,0.4,0.1,0.8,0.2,1c0.1,0.3,0.3,0.5,0.5,0.7s0.5,0.3,0.8,0.4s0.6,0.1,1,0.1c0.2,0,0.3,0,0.5,0
	s0.3-0.1,0.5-0.1L60.4,83.4L60.4,83.4z"/>
<path class="st1" d="M65.2,84.1l-0.3-0.8c-0.1-0.3-0.3-0.6-0.4-0.8c-0.1-0.2-0.2-0.4-0.4-0.5c-0.1-0.1-0.3-0.2-0.4-0.2
	c0.1,0,0.2-0.1,0.3-0.1c0.1-0.1,0.2-0.1,0.3-0.3c0.1-0.1,0.2-0.3,0.2-0.5c0-0.1,0.1-0.2,0.1-0.3c0-0.1,0.1-0.1,0.1-0.2h0.1
	c0.1,0,0.1,0,0.2,0h0.1v-0.7H65h-0.1c-0.1,0-0.1,0-0.2,0c-0.2,0-0.3,0-0.4,0.1c-0.1,0-0.2,0.1-0.2,0.2c-0.1,0.1-0.1,0.3-0.2,0.4
	c-0.1,0.2-0.2,0.4-0.2,0.6c-0.1,0.2-0.2,0.3-0.2,0.3c-0.1,0.1-0.2,0.1-0.2,0.2c-0.1,0-0.2,0-0.2,0h-0.7v-1.8h-1V84h1v-1.9H63
	c0.1,0,0.3,0,0.4,0.1c0.1,0.1,0.2,0.1,0.3,0.2s0.2,0.2,0.2,0.4c0.1,0.1,0.1,0.3,0.2,0.5l0.3,0.7h0.8V84.1z"/>
<polygon class="st1" points="70.1,84.1 70.1,79.8 69.1,79.8 67.1,82.9 67.1,79.8 66.1,79.8 66.1,84.1 67,84.1 69.1,81.1 69.1,84.1 
	"/>
<path class="st1" d="M74.9,78h-0.7c0,0.2,0,0.4-0.1,0.5s-0.1,0.2-0.3,0.3c-0.1,0.1-0.3,0.1-0.5,0.1c-0.1,0-0.2,0-0.3,0
	c-0.1,0-0.2-0.1-0.2-0.1c-0.1-0.1-0.1-0.2-0.1-0.3c0-0.1,0-0.3,0-0.4h-0.8c0,0.2,0,0.4,0.1,0.5c0,0.2,0.1,0.3,0.2,0.4
	s0.3,0.2,0.5,0.3c0.2,0.1,0.4,0.1,0.7,0.1c0.3,0,0.6,0,0.8-0.1c0.2-0.1,0.4-0.2,0.5-0.3c0.1-0.1,0.2-0.3,0.2-0.4
	C74.8,78.3,74.9,78.1,74.9,78 M75.3,84.1v-4.3h-1l-2.1,3v-3h-1v4.3h1l2.1-3v3H75.3z"/>
<path class="st0" d="M33.2,90.1c0.2,0,0.4-0.1,0.5-0.3c0.2-0.1,0.3-0.3,0.5-0.6c0.1-0.3,0.3-0.6,0.4-0.9c0.1-0.2,0.1-0.3,0.2-0.4
	c0.1-0.1,0.1-0.2,0.2-0.2c0.1,0,0.1-0.1,0.2-0.1c0.1,0,0.1,0,0.2,0c0.1,0,0.1,0,0.2,0c0.1,0,0.1,0,0.2,0v-1c0,0-0.1,0-0.2-0.1
	c-0.1,0-0.1,0-0.2,0c-0.1,0-0.2,0-0.4,0s-0.4,0-0.6,0.1c-0.1,0.1-0.3,0.2-0.4,0.3c-0.1,0.1-0.2,0.3-0.3,0.6
	c-0.1,0.4-0.3,0.8-0.4,1.1c-0.1,0.3-0.3,0.5-0.4,0.7c-0.1,0.2-0.3,0.3-0.4,0.4c-0.1,0.1-0.2,0.1-0.3,0.2c-0.1,0-0.2,0-0.3,0h-1v-3.3
	h-1.4v7.6h1.4v-3.3h0.9c0.2,0,0.5,0,0.6,0.1c0.2,0.1,0.3,0.2,0.5,0.4c0.1,0.2,0.3,0.4,0.4,0.7c0.1,0.3,0.3,0.6,0.4,1l0.5,1.1h1.6
	L35.4,93c-0.2-0.5-0.4-0.9-0.6-1.2c-0.2-0.3-0.4-0.6-0.5-0.9c-0.2-0.2-0.3-0.4-0.5-0.6C33.6,90.2,33.4,90.1,33.2,90.1"/>
<path class="st1" d="M40.6,92c0,0.2,0,0.4-0.1,0.6s-0.1,0.3-0.2,0.5c-0.1,0.1-0.2,0.3-0.4,0.3c-0.2,0.1-0.3,0.1-0.6,0.1
	c-0.2,0-0.4,0-0.6-0.1c-0.2-0.1-0.3-0.2-0.4-0.3c-0.1-0.1-0.2-0.3-0.2-0.5C38,92.4,38,92.2,38,92s0-0.4,0.1-0.6s0.1-0.3,0.2-0.5
	c0.1-0.1,0.2-0.3,0.4-0.3c0.2-0.1,0.3-0.1,0.6-0.1c0.2,0,0.4,0,0.6,0.1c0.2,0.1,0.3,0.2,0.4,0.3c0.1,0.1,0.2,0.3,0.2,0.5
	C40.6,91.6,40.6,91.8,40.6,92 M41.6,91.9c0-0.5-0.1-0.9-0.3-1.2c-0.2-0.3-0.4-0.6-0.8-0.7c-0.3-0.2-0.7-0.3-1.2-0.3
	c-0.3,0-0.6,0.1-0.9,0.2c-0.3,0.1-0.5,0.3-0.7,0.5s-0.4,0.4-0.5,0.7C37.1,91.4,37,91.7,37,92c0,0.5,0.1,0.9,0.3,1.2
	c0.2,0.3,0.4,0.6,0.8,0.8c0.3,0.2,0.7,0.3,1.2,0.3c0.3,0,0.6-0.1,0.9-0.2c0.3-0.1,0.5-0.3,0.7-0.5s0.4-0.4,0.5-0.7
	C41.5,92.6,41.6,92.3,41.6,91.9"/>
<polygon class="st1" points="46.6,94.1 46.6,89.8 45.6,89.8 45.6,91.6 43.5,91.6 43.5,89.8 42.5,89.8 42.5,94.1 43.5,94.1 
	43.5,92.3 45.6,92.3 45.6,94.1 "/>
<polygon class="st1" points="51,90.6 51,89.8 47.8,89.8 47.8,94.1 48.8,94.1 48.8,90.6 "/>
<path class="st1" d="M54.8,91.7c0,0.2,0,0.4-0.1,0.6s-0.1,0.4-0.2,0.5c-0.1,0.2-0.3,0.3-0.4,0.4c-0.2,0.1-0.4,0.1-0.6,0.1
	c-0.1,0-0.2,0-0.3,0s-0.2,0-0.3-0.1v-1.8c0-0.2,0.1-0.3,0.2-0.5c0.1-0.1,0.3-0.3,0.4-0.3c0.2-0.1,0.3-0.1,0.5-0.1s0.3,0,0.4,0.1
	c0.1,0.1,0.2,0.2,0.3,0.3c0.1,0.1,0.1,0.2,0.2,0.4C54.7,91.4,54.8,91.5,54.8,91.7 M55.7,91.6c0-0.3,0-0.5-0.1-0.7s-0.2-0.4-0.3-0.6
	S55,90,54.8,89.9s-0.5-0.1-0.7-0.1s-0.4,0-0.5,0.1c-0.2,0.1-0.3,0.2-0.5,0.3c-0.2,0.1-0.3,0.3-0.4,0.4v-0.8h-1v6.1h1V94
	c0.1,0,0.3,0,0.4,0.1c0.1,0,0.3,0,0.4,0c0.3,0,0.5,0,0.8-0.1c0.2-0.1,0.4-0.2,0.6-0.4c0.2-0.2,0.3-0.3,0.4-0.5
	c0.1-0.2,0.2-0.4,0.3-0.7C55.7,92.2,55.7,91.9,55.7,91.6"/>
<path class="st1" d="M59.5,91.6h-2.1c0-0.2,0-0.5,0.1-0.6c0.1-0.2,0.2-0.3,0.4-0.4s0.4-0.1,0.6-0.1c0.3,0,0.5,0.1,0.6,0.2
	s0.3,0.2,0.3,0.4C59.5,91.2,59.5,91.4,59.5,91.6L59.5,91.6z M60.5,91.8c0-0.4-0.1-0.8-0.2-1.1c-0.1-0.3-0.4-0.5-0.7-0.7
	s-0.7-0.2-1.1-0.2c-0.3,0-0.6,0.1-0.9,0.2c-0.3,0.1-0.5,0.3-0.7,0.4c-0.2,0.2-0.3,0.4-0.4,0.7c-0.1,0.3-0.1,0.6-0.1,0.9
	c0,0.4,0.1,0.8,0.2,1.1c0.1,0.3,0.3,0.5,0.5,0.7s0.5,0.3,0.8,0.4s0.7,0.1,1,0.1c0.2,0,0.3,0,0.5,0s0.4,0,0.5,0
	c0.2,0,0.3-0.1,0.5-0.1v-0.7c-0.2,0-0.4,0-0.6,0.1c-0.2,0-0.4,0-0.6,0c-0.2,0-0.3,0-0.5,0s-0.3-0.1-0.5-0.1s-0.3-0.1-0.4-0.2
	c-0.1-0.1-0.2-0.2-0.3-0.3c-0.1-0.1-0.1-0.3-0.1-0.5h3c0-0.1,0-0.2,0-0.3C60.5,91.9,60.5,91.9,60.5,91.8"/>
<path class="st1" d="M64.6,93.4c-0.1,0-0.3,0-0.4,0s-0.3,0-0.4,0c-0.2,0-0.5,0-0.7-0.1s-0.4-0.1-0.5-0.2c-0.2-0.1-0.3-0.3-0.4-0.4
	c-0.1-0.2-0.1-0.4-0.1-0.7c0-0.3,0.1-0.6,0.2-0.8c0.1-0.2,0.3-0.4,0.5-0.4c0.2-0.1,0.5-0.1,0.8-0.1c0.1,0,0.3,0,0.4,0s0.3,0,0.4,0
	V90c-0.2-0.1-0.3-0.1-0.5-0.1c-0.2,0-0.3,0-0.5,0c-0.5,0-0.9,0.1-1.3,0.2c-0.3,0.2-0.6,0.4-0.8,0.7C61.1,91.1,61,91.5,61,92
	c0,0.4,0.1,0.8,0.2,1c0.1,0.3,0.3,0.5,0.5,0.7s0.5,0.3,0.8,0.4s0.6,0.1,1,0.1c0.2,0,0.3,0,0.5,0s0.3-0.1,0.5-0.1L64.6,93.4
	L64.6,93.4z"/>
<path class="st1" d="M68.6,93.4c-0.1,0-0.3,0-0.4,0s-0.3,0-0.4,0c-0.2,0-0.5,0-0.7-0.1s-0.4-0.1-0.5-0.2c-0.2-0.1-0.3-0.3-0.4-0.4
	c-0.1-0.2-0.1-0.4-0.1-0.7c0-0.3,0.1-0.6,0.2-0.8c0.1-0.2,0.3-0.4,0.5-0.4c0.2-0.1,0.5-0.1,0.8-0.1c0.1,0,0.3,0,0.4,0s0.3,0,0.4,0
	V90c-0.2-0.1-0.3-0.1-0.5-0.1s-0.3,0-0.5,0c-0.5,0-0.9,0.1-1.3,0.2c-0.3,0.2-0.6,0.4-0.8,0.7C65.1,91.1,65,91.5,65,92
	c0,0.4,0.1,0.8,0.2,1c0.1,0.3,0.3,0.5,0.5,0.7s0.5,0.3,0.8,0.4s0.6,0.1,1,0.1c0.2,0,0.3,0,0.5,0s0.3-0.1,0.5-0.1v-0.7H68.6z"/>
</svg>
