<svg xmlns="http://www.w3.org/2000/svg" id="Слой_1" viewBox="0 0 515 550" width="515" height="550"><style id="style53">.st0{fill:#ffe073}.st1{fill:#ffc600}.st2{fill:#fff}.st3{fill:none;stroke:#fff;stroke-width:22;stroke-linecap:round;stroke-miterlimit:10}</style><g id="Layer_1" transform="translate(0 34.6)"><path class="st0" id="polygon56" fill="#ffe073" d="M115.5 56.4l91-37-5.2 486-40.8-20-60-33-82-116v-122l25-83z"/><path class="st1" id="polyline58" fill="#ffc600" d="M375.5 38.4l79 67 58.9 128.8-32.9 132.1-77 94.1-77 45-128-6V16.3l169 12.6"/><g id="g64"><g id="g62"><path class="st2" d="M439.5 77.4c-48.4-48.4-112.6-75-181-75s-132.7 26.6-181 75c-48.4 48.4-75 112.6-75 181s26.6 132.7 75 181c48.4 48.4 112.6 75 181 75s132.7-26.6 181-75c48.4-48.4 75-112.6 75-181s-26.6-132.6-75-181zM258.5 494C128.6 494 22.9 388.3 22.9 258.4c0-129.9 105.7-235.6 235.6-235.6 129.9 0 235.6 105.7 235.6 235.6 0 129.9-105.7 235.6-235.6 235.6z" id="path60" fill="#fff"/></g></g><g id="g70"><g id="g68"><path class="st2" d="M412.6 397.1c-4-4-10.5-4-14.4 0-37.2 37.5-86.8 58.1-139.6 58.1-5.6 0-10.2 4.6-10.2 10.2s4.6 10.2 10.2 10.2c58.3 0 113-22.8 154.1-64.1 3.9-3.9 3.9-10.4-.1-14.4z" id="path66" fill="#fff"/></g></g><g id="g76"><g id="g74"><path class="st2" d="M442.7 353.7c-4.9-2.8-11.1-1.2-13.9 3.7-1.4 2.4-2.9 4.9-4.4 7.2-3 4.7-1.7 11.1 3.1 14.1 1.7 1.1 3.6 1.6 5.5 1.6 3.4 0 6.6-1.7 8.6-4.7 1.7-2.6 3.3-5.3 4.9-8 2.7-4.9 1-11.1-3.8-13.9z" id="path72" fill="#fff"/></g></g><path class="st3" id="line78" fill="none" stroke="#fff" stroke-width="22" stroke-linecap="round" stroke-miterlimit="10" d="M198.5 450.4v-246"/><path class="st3" id="line80" fill="none" stroke="#fff" stroke-width="22" stroke-linecap="round" stroke-miterlimit="10" d="M201.3 202.5l262-111.2"/><path class="st3" id="line82" fill="none" stroke="#fff" stroke-width="22" stroke-linecap="round" stroke-miterlimit="10" d="M198.9 200.6l103.9-75.4"/><path class="st3" id="line84" fill="none" stroke="#fff" stroke-width="22" stroke-linecap="round" stroke-miterlimit="10" d="M332.3 99.7l23.6-17.2"/><path class="st3" id="line86" fill="none" stroke="#fff" stroke-width="22" stroke-linecap="round" stroke-miterlimit="10" d="M196.7 200.4l-125.4-98"/></g><text style="line-height:1.25" x="225.855" y="370.227" id="text108" font-weight="400" font-size="26.667" font-family="sans-serif" letter-spacing="0" word-spacing="0" stroke-width=".754"/></svg>