<svg id="Слой_1" xmlns="http://www.w3.org/2000/svg" viewBox="0 0 189.2 200.4"><style>.st0{display:none}.st1,.st2{display:inline}.st1{enable-background:new}.st2{fill:none}.st3{enable-background:new}.st4{fill:#bcb3ad}.st5{fill:#966eb4}.st6{fill:#333}.st7{fill:#cfba82}.st8{fill:none;stroke:#fff;stroke-width:5;stroke-miterlimit:10}.st9{display:inline;opacity:.5}</style><g id="Слой_1_2_"><g id="Слой_1_1_" class="st0"><path class="st2" d="M33.7 191.9H189v10.7H33.7z"/></g><g class="st3" id="Слой_8"><path class="st4" d="M36.4 199.4v-5.7h1.3c.9 0 1.6.1 2 .2.6.2 1.1.5 1.4 1 .3.5.5 1.1.5 1.7 0 .6-.1 1.1-.4 1.5-.3.4-.6.8-1 1s-1 .3-1.8.3h-2zm.6-.5h.7c.9 0 1.5 0 1.8-.1.5-.1.8-.4 1.1-.8.3-.4.4-.8.4-1.3 0-.6-.1-1-.4-1.4-.3-.4-.7-.7-1.2-.8-.4-.1-1-.2-1.9-.2H37v4.6zM42.8 193.7h.6v4.3c0 .2.1.4.2.6s.3.3.5.4c.2.1.5.2.7.2s.4 0 .6-.1c.2-.1.3-.2.5-.3.1-.1.2-.3.3-.5 0-.1.1-.4.1-.9v-3.5h.6v3.5c0 .5-.1.9-.2 1.2s-.3.6-.7.8c-.3.2-.7.4-1.2.4s-.9-.1-1.3-.3c-.4-.2-.6-.5-.7-.9-.1-.2-.1-.6-.1-1.2v-3.7h.1zM47.9 194.2v-.6h3.4v.6h-1.4v5.2h-.6v-5.2h-1.4zM57.9 194.7l-.5.3c-.3-.3-.6-.6-1-.7-.4-.2-.8-.3-1.2-.3-.5 0-1 .1-1.4.3s-.8.5-1 .9-.3.8-.3 1.3c0 .7.3 1.3.8 1.8s1.2.7 2 .7c.9 0 1.6-.3 2.2-.9l.5.3c-.3.4-.7.6-1.2.8s-1 .3-1.6.3c-1.1 0-1.9-.3-2.6-1-.5-.6-.8-1.2-.8-2s.3-1.5 1-2.1c.6-.6 1.4-.9 2.4-.9.6 0 1.1.1 1.6.3.5.3.8.6 1.1.9zM59.2 193.7h.6v2.4H63v-2.4h.6v5.7H63v-2.8h-3.2v2.8h-.6v-5.7zM69.5 193.7h.6v3.9c0 .6-.1 1-.2 1.2s-.3.4-.5.6c-.2.1-.5.2-.8.2s-.5 0-.7-.1-.5-.2-.8-.5l.3-.5c.3.2.6.4.8.4.1.1.3.1.4.1.2 0 .3 0 .5-.1.1-.1.2-.2.3-.4.1-.2.1-.5.1-1v-3.8zM71.7 193.7h3.6v.6h-2.9v1.8h2.9v.6h-2.9v2.3h2.9v.6h-3.5l-.1-5.9zM76 193.7h.6l1.3 4.1 1.8-4.1h.1l1.8 4.1 1.3-4.1h.6l-1.8 5.7h-.1l-1.8-4.3-1.9 4.3h-.1l-1.8-5.7zM84.5 193.7h.6v5.7h-.6v-5.7zM86 198.4l.5-.3c.4.6.8.9 1.3.9.2 0 .4 0 .6-.1s.3-.2.4-.4.1-.3.1-.5-.1-.4-.2-.6c-.2-.3-.5-.6-1.1-.9-.5-.4-.8-.6-1-.8-.2-.3-.3-.6-.3-.9 0-.3.1-.5.2-.7s.3-.4.5-.5.5-.2.8-.2.6.1.8.2c.3.1.5.4.8.7l-.5.4c-.2-.3-.4-.5-.6-.6s-.3-.1-.5-.1c-.3 0-.5.1-.6.2-.2.1-.2.3-.2.5 0 .1 0 .2.1.4.1.1.2.2.3.4.1.1.3.3.8.6.5.4.9.7 1.1 1s.3.6.3.9c0 .4-.2.8-.5 1.1s-.8.5-1.2.5c-.4 0-.7-.1-1-.3-.4-.2-.7-.5-.9-.9zM90.9 193.7h.6v2.4h3.2v-2.4h.6v5.7h-.6v-2.8h-3.2v2.8h-.6v-5.7zM99.2 193.7h.6v2.4h3.2v-2.4h.6v5.7h-.6v-2.8h-3.2v2.8h-.6v-5.7zM105.2 193.7h.6v4.3c0 .2.1.4.2.6s.3.3.5.4c.2.1.5.2.7.2s.4 0 .6-.1.3-.2.5-.3c.1-.1.2-.3.3-.5 0-.1.1-.4.1-.9v-3.5h.6v3.5c0 .5-.1.9-.2 1.2s-.3.6-.7.8c-.3.2-.7.4-1.2.4s-.9-.1-1.3-.3-.6-.5-.7-.9c-.1-.2-.1-.6-.1-1.2l.1-3.7zM110.5 199.4l.9-5.7h.1l2.5 4.7 2.5-4.7h.1l.9 5.7h-.6l-.6-4.1-2.2 4.1h-.1l-2.2-4.1-.6 4.1h-.7zM121.3 193.7l2.9 5.7h-.7l-1-1.9h-2.7l-1 1.9h-.7l2.9-5.7h.3zm-.1 1.2l-1.1 2.1h2.1l-1-2.1zM125.2 199.4v-5.7h.1l4.1 4.4v-4.4h.6v5.7h-.1l-4.1-4.4v4.4h-.6zM131.5 193.7h.6v5.7h-.6v-5.7zM132.9 194.2v-.6h3.4v.6h-1.4v5.2h-.6v-5.2h-1.4zM139.8 193.7l2.9 5.7h-.7l-1-1.9h-2.7l-1 1.9h-.7l2.9-5.7h.3zm-.1 1.2l-1.1 2.1h2.1l-1-2.1zM143.7 193.7h1.2c.7 0 1.2 0 1.4.1.4.1.7.2.9.5s.3.6.3.9c0 .3-.1.6-.2.8-.2.2-.4.4-.7.5s-.7.2-1.2.2l2.2 2.7h-.8l-2.2-2.7h-.4v2.7h-.6v-5.7h.1zm.6.5v2h1.1c.4 0 .7 0 .9-.1s.4-.2.5-.3.2-.3.2-.5-.1-.4-.2-.5c-.1-.2-.3-.3-.4-.3-.2-.1-.5-.1-.9-.1h-1.2v-.2zM148.8 193.7h.6v5.7h-.6v-5.7zM153.4 193.7l2.9 5.7h-.7l-1-1.9h-2.7l-1 1.9h-.7l2.9-5.7h.3zm-.1 1.2l-1.1 2.1h2.1l-1-2.1zM157.2 199.4v-5.7h.1l4.1 4.4v-4.4h.6v5.7l-4.1-4.4v4.4h-.7zM166 193.7h3.1v.6h-2.5v1.8h2.5v.6h-2.5v2.8h-.6v-5.8zM170.3 193.7h.6v4.3c0 .2.1.4.2.6.1.2.3.3.5.4.2.1.5.2.7.2s.4 0 .6-.1c.2-.1.3-.2.5-.3.1-.1.2-.3.3-.5 0-.1.1-.4.1-.9v-3.5h.6v3.5c0 .5-.1.9-.2 1.2-.1.3-.3.6-.7.8-.3.2-.7.4-1.2.4s-.9-.1-1.3-.3c-.4-.2-.6-.5-.7-.9-.1-.2-.1-.6-.1-1.2l.1-3.7zM175.9 199.4v-5.7h.1l4.1 4.4v-4.4h.6v5.7h-.1l-4.1-4.4v4.4h-.6zM182.3 199.4v-5.7h1.3c.9 0 1.6.1 2 .2.6.2 1.1.5 1.4 1 .3.5.5 1.1.5 1.7 0 .6-.1 1.1-.4 1.5s-.6.8-1 1-1 .3-1.8.3h-2zm.6-.5h.7c.9 0 1.5 0 1.8-.1.5-.1.8-.4 1.1-.8.3-.4.4-.8.4-1.3 0-.6-.1-1-.4-1.4s-.7-.7-1.2-.8c-.4-.1-1-.2-1.9-.2h-.4v4.6h-.1z"/></g><g class="st3" id="Слой_7"><path class="st5" d="M36.5 187.1h1.3c.1 0 .1 0 .1-.1s0-.4-.1-1-.2-1.1-.3-1.7-.2-1.1-.3-1.4c0-.1 0-.1-.1-.1H36.2l-.1-.1v-.1c.1-.1.2-.4.4-.7s.4-.6.5-.7l.1-.1c.1 0 .1.1.2.2 0 0 0 .1.1.2 0 .1.1.2.1.2l.1.1h3c.6 0 1 .2 1.3.7.1.2.2.8.2 1.6s.1 1.7.1 2.5v1.1c-.1.3-.2.6-.4.9l-.1.1h-.2v-.1-1.1c0-1-.1-1.8-.1-2.4 0-.7-.1-1.1-.1-1.4-.1-.3-.1-.5-.3-.6s-.3-.2-.4-.2h-2.4v.2c.1.4.2.9.2 1.5s.2 1.1.2 1.4v.5c0 .2-.1.5-.2.8-.1.3-.2.6-.2.8 0 .1-.1.2-.3.2h-2v-.2c.2-.4.4-.7.6-1zM45.5 183.8c0-.1-.1-.2-.2-.3-.1-.2-.4-.4-.8-.6-.4-.3-.7-.5-1-.6l-.1-.1v-.1c0-.1.1-.3.3-.5s.3-.4.3-.5h.1c.4.2.8.5 1.2.8s.7.6.9.8c.1.1.2.3.2.4 0 .1.1.3.1.4 0 .2-.1.5-.2.8s-.4.7-.6 1.2c-.1.1-.1.2-.1.2l-.1.1-.4.4c-.2.1-.3.2-.4.2 0 0-.1 0-.1-.1v-.1l.6-1.2c.2-.4.2-.7.2-.9.1-.2.1-.2.1-.3zM50.7 182.8c0-.1-.1-.1-.1-.1H48c-.1 0-.1 0-.2-.1l-.1-.1c0-.1.1-.3.3-.7s.4-.7.5-.8l.1-.1c.1 0 .1.1.1.2 0 .2.1.3.1.3 0 .1.1.1.2.1h1.6s.1 0 .1-.1l.4-.4c.2-.2.3-.2.4-.2.1 0 .1 0 .1.1v.2c0 .1 0 .1.1.2 0 .1.1.1.2.1h.6l.1.1v.1l-.4.8s0 .1-.1.1H52c-.1 0-.2 0-.3.1s-.1.2-.1.3v.7c0 .6 0 1.4.1 2.5v.9c0 .2 0 .3-.1.4-.1.2-.1.3-.2.4-.1.1-.1.3-.2.4l-.1.1c-.1.1 0 0-.1 0h-.1c-.1 0 0-.1 0-.1-.1-1.4-.2-3.2-.2-5.4.1.1 0 .1 0 0zM53.9 187.6c.1-.2.2-.3.2-.4 0 0 0-.1.1-.1h1.6c.1 0 .1 0 .1-.1v-.3-.8c0-.4 0-.9-.1-1.4 0-.3-.1-.6-.2-.8s-.2-.4-.4-.6c-.2-.2-.7-.5-1.4-1l-.1-.1v-.2c.1-.1.1-.2.3-.4.1-.2.2-.3.3-.4l.1-.1c.1 0 .1 0 .2.1s.3.2.5.4.4.3.6.4l.4.4c.1.1.2.2.3.4.1.1.1.3.1.5s.1.5.1.7v2c0 .3 0 .5-.1.7s-.2.5-.3.7-.2.5-.4.7c0 .1-.1.1-.1.1h-2.2c-.1 0-.1 0-.1-.1v-.1c.4.1.4 0 .5-.2zM59.1 187.3c.1 0 .1-.1 0 0 .1-.1.1-.1.2-.1 1-.3 1.6-.7 2.1-1.1.2-.3.4-.6.5-1s.2-.8.2-1.3c0-.2 0-.3-.1-.5 0-.2-.1-.3-.1-.3 0-.1-.1-.1-.1-.2h-3c-.1 0-.1 0-.2-.1l-.2-.2c-.1-.1-.1-.4-.1-.6 0-.2 0-.5-.1-.9 0-.4-.1-.6-.2-.8v-.1s0-.1.1-.2.1-.3.3-.4.2-.3.3-.3h.1s.1 0 .1.1c.1.1.1.3.2.6s.1.5.1.7v.8c0 .1 0 .2.1.3 0 .1.1.1.1.1H62c.3 0 .6.1.7.4s.2.6.2 1c0 .2 0 .4-.1.7 0 .2-.1.4-.1.5s-.1.2-.1.3c-.1.3-.2.6-.4 1s-.4.8-.6 1.1-.4.6-.6.8c-.2.2-.5.4-.9.5s-.8.3-1.2.4H58.6v-.1c0-.1.1-.2.2-.4.2-.4.2-.5.3-.7 0 .1 0 0 0 0zM66.2 188.5c0-.1 0-.1 0 0 0-2.2-.1-3.7-.1-4.5 0-.1 0-.2-.1-.3 0-.1-.1-.2-.2-.3-.2-.2-.4-.4-.7-.6-.3-.2-.6-.4-.8-.5l-.1-.1V181.9c.1-.1.2-.3.3-.5.1-.2.2-.3.3-.4H65.1c.4.2.9.6 1.4 1.1.2.2.3.4.4.5.1.2.1.4.1.6V187.6c-.1.1-.2.3-.3.5-.1.2-.2.3-.3.3-.1.1-.1.1-.2.1.1 0 0 0 0 0zM72.7 182.7H69c-.1 0-.2 0-.3-.1-.1 0-.1-.1-.1-.2v-.1c.1-.2.2-.4.5-.7s.4-.5.5-.6c.1 0 .1-.1.1-.1.1 0 .1 0 .1.1V181.3s0 .1.1.1l.1.1h3c.2 0 .3 0 .5.1.1 0 .3.1.4.3.2.1.3.3.4.5s.1.5.2.7c.1.9.1 2.3.1 4.1V187.5c0 .1-.1.3-.2.5s-.2.4-.3.4h-.2V187.2c0-.9 0-1.7-.1-2.2s-.1-1-.1-1.4c-.2-.6-.5-.9-1-.9zm-3.4 2.1c.1-.1.1-.3.2-.4s.2-.3.3-.5h.1c.1 0 .1.1.1.2 0 .3.1.8.1 1.6v1.7c0 .1 0 .2-.1.3-.1.3-.3.6-.4.8 0 0 0 .1-.1.1h-.1-.1c-.1 0 0-.1 0-.1-.1-2-.2-3.1-.2-3.3.2-.3.2-.4.2-.4zM79.1 187.1h1.3c.1 0 .1 0 .1-.1s0-.4-.1-1-.2-1.1-.3-1.7-.2-1.1-.3-1.4c0-.1 0-.1-.1-.1H78.8l-.1-.1v-.1c.1-.1.2-.4.4-.7s.4-.6.5-.7l.1-.1c.1 0 .1.1.2.2 0 0 0 .1.1.2 0 .1.1.2.1.2l.1.1h3c.6 0 1 .2 1.3.7.1.2.2.8.2 1.6s.1 1.7.1 2.5v1.1c-.1.3-.2.6-.4.9l-.1.1h-.2v-.1-1.1c0-1-.1-1.8-.1-2.4 0-.7-.1-1.1-.1-1.4-.1-.3-.1-.5-.3-.6s-.3-.2-.4-.2h-2.4v.2c.1.4.2.9.2 1.5s.2 1.1.2 1.4v.5c0 .2-.1.5-.2.8s-.2.6-.2.8c0 .1-.1.2-.3.2H78.6v-.2c.1-.4.3-.7.5-1zM88 183.8c0-.1-.1-.2-.2-.3-.1-.2-.4-.4-.8-.6-.4-.3-.7-.5-1-.6l-.1-.1v-.1c0-.1.1-.3.3-.5s.3-.4.3-.5h.1c.4.2.8.5 1.2.8.4.3.7.6.9.8.1.1.2.3.2.4 0 .1.1.3.1.4 0 .2-.1.5-.2.8s-.4.7-.6 1.2c-.1.1-.1.2-.1.2l-.1.1-.4.4c-.2.1-.3.2-.4.2 0 0-.1 0-.1-.1v-.1l.6-1.2c.2-.4.2-.7.2-.9.2-.2.2-.2.1-.3zM93.3 182.8c0-.1-.1-.1-.1-.1h-2.6c-.1 0-.1 0-.2-.1l-.1-.1c0-.1.1-.3.3-.7s.4-.7.5-.8l.1-.1c.1 0 .1.1.1.2 0 .2.1.3.1.3 0 .1.1.1.2.1h1.6s.1 0 .1-.1l.4-.4c.2-.2.3-.2.4-.2s.1 0 .1.1v.2c0 .1 0 .1.1.2 0 .1.1.1.2.1h.6l.1.1v.1l-.4.8s0 .1-.1.1h-.1c-.1 0-.2 0-.3.1-.1.1-.1.2-.1.3v.7c0 .6 0 1.4.1 2.5v.9c0 .2 0 .3-.1.4-.1.2-.1.3-.2.4-.1.1-.1.3-.2.4l-.1.1c-.1.1 0 0-.1 0h-.1c-.1 0 0-.1 0-.1-.1-1.4-.2-3.2-.2-5.4 0 .1 0 .1 0 0zM98.5 188.5c0-.1 0-.1 0 0 0-2.2-.1-3.7-.1-4.5 0-.1 0-.2-.1-.3s-.1-.2-.2-.3c-.2-.2-.4-.4-.7-.6-.3-.2-.6-.4-.8-.5l-.1-.1V181.9c.1-.1.2-.3.3-.5.1-.2.2-.3.3-.4H97.4c.4.2.9.6 1.4 1.1.2.2.3.4.4.5.1.2.1.4.1.6V187.6c-.1.1-.2.3-.3.5-.1.2-.2.3-.3.3-.1.1-.1.1-.2.1zM105 182.7h-3.8c-.1 0-.2 0-.3-.1-.1 0-.1-.1-.1-.2v-.1c.1-.2.2-.4.5-.7.2-.3.4-.5.5-.6.1 0 .1-.1.1-.1.1 0 .1 0 .1.1V181.3s0 .1.1.1l.1.1h3c.2 0 .3 0 .5.1.1 0 .3.1.4.3.2.1.3.3.4.5s.1.5.2.7c.1.9.1 2.3.1 4.1V187.5c0 .1-.1.3-.2.5s-.2.4-.3.4h-.2V187.2c0-.9 0-1.7-.1-2.2s-.1-1-.1-1.4c-.1-.6-.4-.9-.9-.9zm-3.4 2.1c.1-.1.1-.3.2-.4.1-.2.2-.3.3-.5h.1c.1 0 .1.1.1.2 0 .3.1.8.1 1.6v1.7c0 .1 0 .2-.1.3-.1.3-.3.6-.4.8 0 0 0 .1-.1.1h-.1-.1c-.1 0 0-.1 0-.1-.1-2-.2-3.1-.2-3.3.1-.3.1-.4.2-.4zM110.3 183.8c0-.1-.1-.2-.2-.3-.1-.2-.4-.4-.8-.6-.4-.3-.7-.5-1-.6l-.1-.1v-.1c0-.1.1-.3.3-.5.2-.3.3-.4.3-.5h.1c.4.2.8.5 1.2.8s.7.6.9.8c.1.1.2.3.2.4 0 .1.1.3.1.4 0 .2-.1.5-.2.8s-.4.7-.6 1.2c-.1.1-.1.2-.1.2l-.1.1-.4.4c-.2.2-.3.2-.4.2 0 0-.1 0-.1-.1v-.1l.6-1.2c.2-.4.2-.7.2-.9.2-.2.1-.2.1-.3zM115.7 187.1h1.3c.1 0 .1 0 .1-.1s0-.4-.1-1-.2-1.1-.3-1.7c-.1-.6-.2-1.1-.3-1.4 0-.1 0-.1-.1-.1H115.4l-.1-.1v-.1c.1-.1.2-.4.4-.7.2-.3.4-.6.5-.7l.1-.1c.1 0 .1.1.2.2 0 0 0 .1.1.2s.1.2.1.2l.1.1h3c.6 0 1 .2 1.3.7.1.2.2.8.2 1.6s.1 1.7.1 2.5v1.1c-.1.3-.2.6-.4.9l-.1.1c-.1.1 0 0-.1 0h-.1v-.1-1.1c0-1-.1-1.8-.1-2.4 0-.7-.1-1.1-.1-1.4-.1-.3-.1-.5-.3-.6s-.3-.2-.4-.2h-2.4v.2c.1.4.2.9.2 1.5s.2 1.1.2 1.4v.5c0 .2-.1.5-.2.8s-.2.6-.2.8c0 .1-.1.2-.3.2h-1.8-.1c-.1 0 0 0 0-.1v-.1c.1-.4.3-.7.5-1zM124.6 183.8c0-.1-.1-.2-.2-.3-.1-.2-.4-.4-.8-.6-.4-.3-.7-.5-1-.6l-.1-.1v-.1c0-.1.1-.3.3-.5s.3-.4.3-.5h.1c.4.2.8.5 1.2.8s.7.6.9.8c.1.1.2.3.2.4 0 .1.1.3.1.4 0 .2-.1.5-.2.8-.2.3-.4.7-.6 1.2-.1.1-.1.2-.1.2l-.1.1-.4.4c-.2.1-.3.2-.4.2 0 0-.1 0-.1-.1v-.1l.6-1.2c.2-.4.2-.7.2-.9.2-.2.2-.2.1-.3zM130.2 183.1c-.3-.3-.6-.4-.9-.4h-2.1c-.1 0-.2 0-.2-.1-.1 0-.1-.1-.1-.1v-.1c0-.1.2-.3.4-.7s.4-.6.5-.7l.1-.1h.1c.1 0 .1.1.1.2v.2c0 .1.1.2.1.2h1.4c.2 0 .4 0 .6.1.2.1.4.3.6.5.2.2.4.6.5 1s.2.9.2 1.6c0 .7.1 1.5.1 2.4V187.4c-.1.4-.3.7-.4 1 0 .1-.1.1-.1.1h-.1v-.1c0-.1 0-.5-.1-1.2 0-.7 0-1.2-.1-1.7s-.1-.9-.1-1.2c-.1-.5-.2-.9-.5-1.2zM134.2 185.8c-.1-.5-.2-.9-.3-1.3l-.3-1.2c-.1-.5-.3-.9-.5-1.2v-.1s0-.1.1-.1c.2-.3.4-.6.7-.9h.1s.1 0 .1.1c.3.5.5 1.4.7 2.5 0 .1 0 .3.1.6.2 1.2.3 1.9.4 2.2.1.2.1.4.2.5 0 .1.1.2.2.2.1.1.2.1.3.1h.4c.3 0 .6-.1 1-.2s.6-.3.8-.4c.3-.3.5-.6.6-1s.2-.8.2-1.2-.1-.7-.2-1-.3-.5-.5-.7-.5-.3-.8-.3-.5.1-.7.2c-.2.1-.4.3-.6.5-.1.1-.1.1-.2.1h-.1v-.1s.1-.2.2-.5.2-.5.2-.5v-.1l.1-.1c.2-.2.5-.3.7-.4s.5-.1.7-.1c.4 0 .7.1 1 .4.3.2.5.6.7 1s.2.8.2 1.2c0 .5-.1 1-.2 1.4-.1.4-.3.8-.6 1.3-.3.6-.8 1.1-1.3 1.4-.5.4-1.1.5-1.7.5-.4 0-.8-.2-.9-.5-.1-.1-.1-.2-.2-.4 0-.1-.1-.3-.1-.5-.3-.5-.4-.9-.5-1.4zM142.6 183.8c0-.1-.1-.2-.2-.3-.1-.2-.4-.4-.8-.6-.4-.3-.7-.5-1-.6l-.1-.1v-.1c0-.1.1-.3.3-.5s.3-.4.3-.5h.1c.4.2.8.5 1.2.8s.7.6.9.8c.1.1.2.3.2.4 0 .1.1.3.1.4 0 .2-.1.5-.2.8-.2.3-.4.7-.7 1.2-.1.1-.1.2-.1.2l-.1.1-.4.4c-.2.1-.3.2-.4.2 0 0-.1 0-.1-.1v-.1l.6-1.2c.2-.4.2-.7.2-.9.3-.2.3-.2.2-.3zM145.1 187.6c.1-.2.2-.3.2-.4 0 0 0-.1.1-.1h1.6c.1 0 .1 0 .1-.1v-.3-.8c0-.4 0-.9-.1-1.4 0-.3-.1-.6-.2-.8s-.2-.4-.4-.6c-.2-.2-.7-.5-1.4-1l-.1-.1v-.2c.1-.1.1-.2.3-.4.1-.2.2-.3.3-.4l.1-.1c.1 0 .1 0 .2.1s.3.2.5.4.4.3.6.4l.4.4c.1.1.2.2.3.4.1.1.1.3.1.5s.1.5.1.7v2c0 .3 0 .5-.1.7s-.2.5-.3.7c-.1.3-.2.5-.4.7 0 .1-.1.1-.1.1h-2.2c-.1 0-.1 0-.1-.1v-.1c.3.1.4 0 .5-.2zM150.4 183.9c-.1-.3-.2-.5-.3-.8-.1-.2-.2-.4-.4-.7-.1-.1-.1-.1-.1-.2v-.2c.2-.4.5-.8.7-1h.2c.3.3.5.8.7 1.3s.3 1 .3 1.4c.3-.7.6-1.3.9-1.7.4-.4.8-.7 1.3-.7.3 0 .6.1.8.3s.4.4.6.7c.2.3.3.6.4.9.1.3.2.7.2 1.2s.1.9.1 1.3v.4c0 .2 0 .3-.1.5 0 .2-.1.4-.2.7-.1.3-.2.5-.3.6 0 .1-.1.1-.1.2s-.1 0-.2 0h-3.2c-.1 0-.1 0-.1-.1v-.1c0-.1.1-.2.3-.4.1-.2.2-.3.3-.4v-.1s0-.1.1-.1h2.7s.1-.1.1-.2v-.9c0-.4-.1-.8-.1-1.2-.1-.4-.2-.8-.3-1-.1-.3-.3-.6-.5-.8s-.5-.3-.8-.3c-.2 0-.5.1-.7.2l-.6.6c-.2.2-.3.5-.4.8-.1.2-.1.4-.2.7-.1.3-.1.5-.2.7-.1.2-.1.5-.2.9s-.2.6-.2.8c0 .1-.1.2-.1.2-.1.2-.3.4-.4.6s-.2.3-.3.4h-.1s-.1 0-.1-.1c0 0 0-.1.1-.3 0-.1.1-.3.1-.5.2-.6.3-1.1.4-1.6.1-.5.2-.9.2-1.3-.2-.1-.3-.4-.3-.7zM159.1 188.5c-.1-.1-.1-.1 0 0 0-2.2-.1-3.7-.1-4.5 0-.1 0-.2-.1-.3 0-.1-.1-.2-.2-.3-.2-.2-.4-.4-.7-.6s-.6-.4-.8-.5l-.1-.1V181.9c.1-.1.2-.3.3-.5s.2-.3.3-.4H158c.4.2.9.6 1.4 1.1.2.2.3.4.4.5.1.2.1.4.1.6V187.6c-.1.1-.2.3-.3.5s-.2.3-.3.3c-.1.1-.2.1-.2.1zM165.6 182.7h-3.8c-.1 0-.2 0-.3-.1-.1 0-.1-.1-.1-.2v-.1c.1-.2.2-.4.4-.7s.4-.5.5-.6c.1 0 .1-.1.1-.1.1 0 .1 0 .1.1V181.3c0 .1 0 .1.1.1l.1.1h3c.2 0 .3 0 .5.1.1 0 .3.1.4.3.2.1.3.3.4.5.1.2.1.5.2.7.1.9.1 2.3.1 4.1V187.5c0 .1-.1.3-.2.5s-.2.4-.3.4h-.2V187.2c0-.9 0-1.7-.1-2.2s-.1-1-.1-1.4c0-.6-.3-.9-.8-.9zm-3.5 2.1c.1-.1.1-.3.2-.4.1-.2.2-.3.3-.5h.1c.1 0 .1.1.1.2 0 .3.1.8.1 1.6v1.7c0 .1 0 .2-.1.3-.1.3-.3.6-.4.8 0 0 0 .1-.1.1h-.1-.1c-.1 0 0-.1 0-.1-.1-2-.2-3.1-.2-3.3.2-.3.2-.4.2-.4zM173.5 187.1c0-1-.1-1.9-.1-2.8 0-.2 0-.4-.1-.6 0-.1-.1-.3-.3-.4-.2-.2-.4-.4-.7-.6-.3-.2-.6-.4-.8-.5-.1 0-.1-.1-.1-.2v-.1s0-.1.1-.1l.6-.9.1-.1h.1c.2.1.4.3.7.5s.5.4.7.6c.1.1.3.3.3.4s.1.3.2.6c.1.5.1 2 .1 4.4V189.9c0 .1 0 .1-.1.2-.1.3-.3.5-.5.7h-.2v-.1-3.6zM178.9 183.1c-.3-.3-.6-.4-.9-.4h-2.1c-.1 0-.2 0-.2-.1-.1 0-.1-.1-.1-.1v-.1c0-.1.2-.3.4-.7s.4-.6.5-.7l.1-.1h.1c.1 0 .1.1.1.2v.2c0 .1.1.2.1.2h1.4c.2 0 .4 0 .6.1s.4.3.6.5c.2.2.4.6.5 1s.2.9.2 1.6c0 .7.1 1.5.1 2.4V187.4c-.1.4-.3.7-.4 1 0 .1-.1.1-.1.1h-.1v-.1c0-.1 0-.5-.1-1.2 0-.7 0-1.2-.1-1.7s-.1-.9-.1-1.2c0-.5-.2-.9-.5-1.2zM182.4 182.8c-.1 0-.2-.1-.3-.1h-.2c-.1 0-.1-.1-.1-.1v-.1c.1-.3.3-.5.5-.8s.3-.5.5-.6c.1-.1.1-.1.2-.1h.1s0 .1.1.1v.2c0 .1.1.1.1.2s.1.1.2.1h3.6c.2 0 .4.1.5.2.1.1.3.3.3.5s.1.4.1.6c0 .4 0 .8-.1 1.2s-.2.8-.4 1.2c-.4 1.1-1 2-1.7 2.4-.2.1-.5.3-.8.5s-.5.3-.6.3-.1 0-.1-.1.1-.2.2-.5.2-.4.2-.5.1-.1.1-.1.1 0 .1-.1c.4-.1.7-.2.9-.4.2-.1.5-.3.7-.5s.3-.5.4-.8c.1-.2.1-.4.2-.8.1-.3.1-.7.1-.9 0-.3 0-.6-.1-.7-.1-.2-.2-.3-.5-.3h-3s-.1 0-.1.1l-.1.1v7.2c-.1.1-.1.3-.2.4-.1.2-.2.3-.3.4l-.1.1h-.1v-.1-1-.9c0-1.4 0-2.6-.1-3.4s-.1-1.7-.2-2.6c.1-.2.1-.3 0-.3z"/></g><g class="st3" id="Слой_6"><path class="st6" d="M46.7 152.7c0-4.4 3.6-7.8 8.6-7.8 5.6 0 8.3 3.7 8.3 7.6 0 4.5-3.7 7.7-8.3 7.7-5.4.1-8.6-3.5-8.6-7.5zm14.5.5c0-3.7-1.8-7.6-6.3-7.6-2.5 0-5.7 1.6-5.7 6.4 0 3.3 1.7 7.5 6.5 7.5 2.7.1 5.5-1.9 5.5-6.3zM37.7 151.5c0 .6.1.6.8.6h1.6c1 0 1.8 0 2-.1.3-.1.5-.2.6-.8l.2-.9c.1-.1.5-.1.6 0 0 .5-.1 1.4-.1 2.2s.1 1.6.1 2.2c-.1.1-.5.1-.6 0l-.2-.9c-.1-.4-.3-.7-.8-.8-.3-.1-.9-.1-1.9-.1h-1.6c-.7 0-.8 0-.8.6v3.1c0 2.3 0 2.7 1.5 2.8l.8.1c.1.1.1.5 0 .6-1.4 0-2.2-.1-3.2-.1-1.1 0-1.9 0-3 .1-.1-.1-.2-.4 0-.6l.6-.1c1.4-.2 1.4-.4 1.4-2.8v-8c0-2.3 0-2.6-1.4-2.8h-.4c-.1-.1-.1-.5 0-.6 1 0 1.8.1 2.8.1h4.4c1.5 0 2.9 0 3.2-.1 0 1 0 2.1.1 2.9-.1.1-.4.2-.6.1-.2-1-.5-1.8-1.7-2.1-.5-.1-1.3-.1-2.3-.1h-1.5c-.7 0-.7 0-.7.9l.1 4.6zM80.7 156.1c0 .7 0 3.3.1 3.9 0 .1-.2.2-.5.2-.3-.4-1-1.2-3.1-3.4l-5.6-5.9c-.6-.7-2.3-2.5-2.8-3-.1.3-.1.8-.1 1.4v4.8c0 1 0 3.9.4 4.6.1.2.6.4 1.2.4l.7.1c.1.2.1.4 0 .6-1.1 0-1.9-.1-2.8-.1-1 0-1.7 0-2.5.1-.2-.1-.2-.4 0-.6l.6-.1c.6-.1.9-.2 1.1-.4.3-.8.3-3.5.3-4.6v-6.4c0-.6 0-1.1-.5-1.6-.3-.3-.9-.5-1.5-.5h-.4c-.1-.1-.1-.5 0-.6 1 .1 2.3.1 2.7.1.4 0 .8 0 1.1-.1.5 1.1 3.3 4.1 4.1 4.9l2.3 2.4c1.7 1.7 2.8 3 4 4 .1-.1.1-.5.1-.9v-4.8c0-1 0-3.9-.5-4.6-.1-.2-.5-.3-1.5-.4h-.4c-.2-.1-.1-.5 0-.6 1.1 0 1.9.1 2.8.1 1 0 1.7 0 2.5-.1.2.1.2.4 0 .6h-.3c-.8.1-1.3.3-1.3.5-.4.8-.4 3.6-.4 4.6l.2 5.4zM86.6 148.2c0-1.6-.1-2-1.1-2.2l-.5-.1c-.2-.1-.2-.5 0-.6 2-.1 4-.2 6-.2s3.7.1 5.3.7c3.2 1.1 4.9 3.6 4.9 6.5 0 2.8-1.5 5.2-4.2 6.6-1.6.8-3.5 1.1-5.4 1.1-1.5 0-3.1-.2-3.9-.2-1 0-1.9 0-3 .1-.1-.1-.2-.4 0-.6l.6-.1c1.4-.2 1.4-.4 1.4-2.8l-.1-8.2zm2 7.9c0 1.2 0 1.9.4 2.4.5.7 1.4.9 3 .9 4.7 0 6.8-2.8 6.8-6.9 0-2.4-1.3-6.6-7.6-6.6-1.4 0-2.2.2-2.4.3-.2.1-.2.7-.2 1.7v8.2zM107.6 160.3c-2 0-3.3-.6-3.8-.8-.3-.5-.6-2.1-.6-3.1.1-.2.5-.2.6-.1.4 1.1 1.3 3.3 4.1 3.3 2 0 3-1.2 3-2.6 0-1-.2-2.1-2-3.1l-2.3-1.4c-1.2-.7-2.6-2-2.6-3.8 0-2.1 1.8-3.8 4.9-3.8.7 0 1.6.1 2.2.3.3.1.6.1.8.1.2.5.4 1.8.4 2.7-.1.1-.5.2-.6.1-.3-1.1-1-2.5-3.3-2.5-2.4 0-2.9 1.4-2.9 2.5 0 1.3 1.2 2.2 2 2.7l1.9 1.1c1.5.9 3 2.2 3 4.3.4 2.4-1.6 4.1-4.8 4.1z"/></g><path class="st7" d="M.6.3h99.5v99.5H.6z" id="Слой_2_1_"/><path class="st8" d="M50 106.9l60-60" id="Слой_3"/><g class="st3" id="Слой_4"><path class="st6" d="M27.9 112c0-2.6 0-2.8-1.5-2.9h-.6c-.1-.1-.1-.5 0-.6 1.4 0 2.2.1 3.2.1s1.8 0 2.8-.1c.1.1.2.5 0 .6h-.4c-1.4.2-1.5.5-1.5 2.9v8.5c0 1.8-.1 3.4-.6 4.5-.8 1.8-2.5 3.3-4.8 3.3-.3 0-1 0-1-.5 0-.4.4-1.1.9-1.1.3 0 .6 0 .9.1s.7.2 1 .2c.5 0 .8-.3 1-.6.6-1.1.6-4.5.6-5.8V112zM34.1 116.3c0-4.6 3.6-8.1 8.6-8.1 5.6 0 8.4 3.8 8.4 7.9 0 4.6-3.7 8-8.4 8-5.4 0-8.6-3.7-8.6-7.8zm14.5.4c0-3.8-1.8-7.9-6.4-7.9-2.5 0-5.8 1.6-5.8 6.7 0 3.4 1.7 7.8 6.5 7.8 3 0 5.7-2 5.7-6.6zM53.3 116.3c0-4.6 3.6-8.1 8.6-8.1 5.6 0 8.4 3.8 8.4 7.9 0 4.6-3.7 8-8.4 8-5.4 0-8.6-3.7-8.6-7.8zm14.5.4c0-3.8-1.8-7.9-6.4-7.9-2.5 0-5.8 1.6-5.8 6.7 0 3.4 1.7 7.8 6.5 7.8 3 0 5.7-2 5.7-6.6zM74.5 111.5c0-1.6-.1-2.1-1.1-2.2l-.5-.1c-.2-.1-.2-.5 0-.6 2.1-.1 4-.2 6.1-.2 2 0 3.7.1 5.3.7 3.3 1.1 4.9 3.7 4.9 6.8 0 2.9-1.5 5.4-4.2 6.9-1.6.8-3.6 1.1-5.4 1.1-1.5 0-3.1-.2-3.9-.2-1 0-1.9 0-3 .1-.1-.1-.2-.4 0-.6l.6-.1c1.4-.2 1.4-.5 1.4-2.9l-.2-8.7zm1.9 8.2c0 1.2.1 2 .5 2.5.5.7 1.4.9 3 .9 4.7 0 6.8-2.9 6.8-7.2 0-2.5-1.3-6.8-7.6-6.8-1.4 0-2.2.2-2.4.3-.2.1-.2.7-.2 1.7l-.1 8.6zM95.6 124.1c-2 0-3.3-.6-3.8-.9-.3-.5-.6-2.1-.7-3.2.1-.2.5-.2.6-.1.4 1.2 1.4 3.4 4.2 3.4 2 0 3-1.3 3-2.6 0-1-.2-2.1-2-3.2l-2.3-1.4c-1.2-.8-2.6-2.1-2.6-4 0-2.2 1.8-4 4.9-4 .7 0 1.6.1 2.2.3.3.1.7.1.8.1.2.6.4 1.8.4 2.8-.1.1-.5.2-.6.1-.3-1.1-1-2.6-3.3-2.6-2.4 0-2.9 1.5-2.9 2.6 0 1.3 1.2 2.3 2.1 2.8l1.9 1.2c1.5.9 3 2.2 3 4.4.3 2.5-1.8 4.3-4.9 4.3z"/></g><g class="st3" id="Слой_5"><path class="st6" d="M37.9 134.4c-1.2 0-1.2 0-1.2.7v3.1c0 2.3.1 2.6 1.5 2.8l.7.1c.1.1.1.5 0 .6-1.3 0-2.1-.1-3.1-.1s-1.9 0-2.8.1c-.1-.1-.2-.4 0-.6l.4-.1c1.4-.2 1.4-.4 1.4-2.8v-8c0-2.3-.2-2.7-1.4-2.8h-.6c-.1-.1-.1-.5 0-.6 1.2 0 2 .1 3 .1.9 0 1.8 0 2.8-.1.1.1.2.5 0 .6h-.5c-1.4.1-1.5.5-1.5 2.8v2.6c0 .7 0 .7 1.2.7h6.9c1.2 0 1.2 0 1.2-.7v-2.6c0-2.3 0-2.7-1.5-2.8h-.5c-.1-.1-.1-.5 0-.6 1.1 0 1.9.1 2.9.1.9 0 1.8 0 2.9-.1.1.1.2.5 0 .6h-.5c-1.4.1-1.5.5-1.5 2.8v8c0 2.3 0 2.6 1.5 2.8l.6.1c.1.1.1.5 0 .6-1.2 0-2-.1-2.9-.1-1 0-1.9 0-2.9.1-.1-.1-.2-.4 0-.6l.5-.1c1.5-.2 1.5-.4 1.5-2.8v-3.1c0-.7 0-.7-1.2-.7h-6.9zM65.5 132.5c0-1.4.3-3.9-.2-4.6-.2-.3-.6-.4-1.2-.5h-.6c-.1-.2-.1-.4 0-.5.9 0 1.8.1 2.8.1s1.7 0 2.5-.1c.2.1.2.4 0 .5h-.6c-.6 0-1.1.2-1.2.5-.3.7-.3 3.3-.3 4.5v2.5c0 1.9-.3 4-1.7 5.3-1 1-2.8 1.6-4.6 1.6-1.7 0-3.3-.3-4.5-1.2-1.3-1-1.9-2.6-1.9-5.2v-5.2c0-2.3 0-2.7-1.5-2.8h-.6c-.1-.1-.1-.5 0-.5 1.2 0 2 .1 3 .1s1.8 0 3-.1c.1.1.2.4 0 .5h-.6c-1.4.1-1.5.5-1.5 2.8v4.8c0 3.6 1.2 5.9 4.9 5.9 3.5 0 4.8-2.5 4.8-5.9v-2.5zM78.6 135.7c.6 1 1.1 2.1 1.7 3 .7-1 1.3-2.2 1.9-3.3l2.3-4.2c1.1-2 1.8-3.2 1.8-4.3.8.1 1.3.1 1.8.1.6 0 1.4 0 2.2-.1.1.1.1.5 0 .6h-.5c-1.5.1-1.7.6-1.7 2.1 0 2.4.1 6.5.3 9.7.1 1.1 0 1.7 1.2 1.8l.8.1c.1.1.1.5 0 .6-1 0-2-.1-2.9-.1-.8 0-1.9 0-2.9.1-.2-.1-.2-.4 0-.6l.7-.1c1.2-.1 1.2-.5 1.2-1.9l-.1-9.3c-.2.2-1.1 2-1.6 2.9l-2.2 3.9c-1.1 2-2.2 4-2.6 5.1 0 .1-.1.1-.2.1 0 0-.2 0-.2-.1-.4-1.2-1.6-3.4-2.1-4.4l-2.2-4.3c-.5-1-1-2.2-1.5-3.2-.1 1.4-.2 2.7-.2 4-.1 1.4-.2 3.3-.2 5.2 0 1.6.1 2 1.1 2.1l.9.1c.2.1.1.5 0 .6-.8 0-1.8-.1-2.7-.1-.8 0-1.6 0-2.5.1-.1-.1-.2-.4 0-.6l.5-.1c1-.1 1.4-.3 1.5-1.8s.3-2.7.4-4.9c.1-1.8.2-3.7.3-5 0-1.4-.1-1.7-1.6-1.9h-.4c-.1-.1-.1-.5.1-.6.7 0 1.3.1 1.9.1s1.2 0 2-.1c-.1.9.5 2.2 1.3 3.7l2.4 5zM101.1 136.4c-.2-.5-.3-.6-1-.6h-3.7c-.6 0-.8.1-.9.5l-.8 2.3c-.4 1-.5 1.6-.5 1.8 0 .3.1.4.7.4l.8.1c.2.1.2.5 0 .6-.6 0-1.4 0-2.5-.1-.8 0-1.7 0-2.3.1-.1-.1-.2-.4 0-.6l.8-.1c.6 0 1.1-.3 1.5-1.1.4-1 1.1-2.5 2.1-5l2.5-6c.3-.8.5-1.2.4-1.6.6-.2 1-.6 1.3-.8.1 0 .3 0 .4.2.3 1 .7 2 1.1 3l3.3 8.9c.7 1.9 1 2.2 2.1 2.4l.7.1c.2.1.1.5 0 .6-1 0-1.8-.1-2.9-.1-1.2 0-2.1 0-2.8.1-.2-.1-.2-.4 0-.6l.7-.1c.5 0 .8-.2.8-.4s-.1-.6-.3-1.2l-1.5-2.8zm-4.8-1.9c-.2.5-.2.5.5.5h3c.7 0 .8-.1.5-.7l-1.3-3.6c-.2-.5-.4-1.1-.6-1.4-.1.1-.3.6-.6 1.3l-1.5 3.9zM122.5 137.8c0 .7 0 3.3.1 3.9 0 .1-.2.2-.5.2-.3-.4-1-1.2-3.1-3.4l-5.6-5.9c-.7-.7-2.3-2.5-2.8-3-.1.3-.1.8-.1 1.4v4.8c0 1 0 3.9.4 4.6.1.2.6.4 1.2.4l.8.1c.1.2.1.4 0 .6-1.1 0-1.9-.1-2.8-.1-1 0-1.7 0-2.5.1-.2-.1-.2-.4 0-.6l.7-.1c.6-.1.9-.2 1.1-.4.3-.8.3-3.5.3-4.6v-6.4c0-.6 0-1.1-.5-1.6-.3-.3-.9-.5-1.5-.5h-.4c-.1-.1-.1-.5 0-.6 1 .1 2.3.1 2.7.1.4 0 .8 0 1.1-.1.5 1.1 3.3 4.1 4.1 4.9l2.3 2.4c1.7 1.7 2.9 3 4 4 .1-.1.1-.5.1-.9v-4.8c0-1 0-3.9-.5-4.6-.1-.2-.5-.3-1.5-.4h-.4c-.2-.1-.1-.5 0-.6 1.1 0 1.9.1 2.9.1s1.7 0 2.5-.1c.2.1.2.4 0 .6h-.3c-.8.1-1.3.3-1.4.5-.4.8-.4 3.6-.4 4.6v5.4zM128.4 130.3c0-2.4 0-2.7-1.5-2.8h-.6c-.1-.1-.1-.5 0-.6 1.2 0 2 .1 3 .1s1.8 0 3-.1c.1.1.2.5 0 .6h-.6c-1.4.1-1.5.5-1.5 2.8v7.9c0 2.4 0 2.7 1.5 2.8l.6.1c.1.1.1.5 0 .6-1.2 0-2-.1-3-.1s-1.8 0-3 .1c-.1-.1-.2-.4 0-.6l.6-.1c1.4-.2 1.5-.5 1.5-2.8v-7.9zM142.6 138.3c0 2.3-.2 2.7 1.3 2.8l.8.1c.1.1.1.5 0 .6-1.4 0-2.2-.1-3.2-.1s-1.8 0-3.4.1c-.1-.1-.2-.4 0-.6l.9-.1c1.4-.1 1.5-.4 1.5-2.8v-9.9c0-.7 0-.7-.7-.7h-1.3c-1 0-2.4 0-3 .6-.6.5-.8 1-1.1 1.5-.2.1-.5 0-.6-.2.4-1 .8-2.4.9-3.3.1 0 .4-.1.5 0 .1.7.9.7 2.1.7h9.8c1.3 0 1.5 0 1.9-.6.1 0 .4 0 .4.1-.3.9-.4 2.7-.4 3.4-.1.2-.5.2-.6 0-.1-.6-.2-1.4-.6-1.6-.6-.4-1.5-.6-2.8-.6h-1.7c-.7 0-.7 0-.7.8v9.8zM159.3 136.4c-.2-.5-.3-.6-1-.6h-3.7c-.6 0-.8.1-.9.5l-.8 2.3c-.4 1-.5 1.6-.5 1.8 0 .3.1.4.7.4l.8.1c.2.1.2.5 0 .6-.6 0-1.4 0-2.5-.1-.8 0-1.7 0-2.3.1-.1-.1-.2-.4 0-.6l.8-.1c.6 0 1.1-.3 1.5-1.1.4-1 1.1-2.5 2.1-5l2.5-6c.3-.8.5-1.2.4-1.6.6-.2 1-.6 1.3-.8.1 0 .3 0 .4.2.3 1 .7 2 1.1 3l3.3 8.9c.7 1.9 1 2.2 2.1 2.4l.7.1c.2.1.1.5 0 .6-1 0-1.8-.1-2.9-.1-1.2 0-2.1 0-2.8.1-.2-.1-.2-.4 0-.6l.7-.1c.5 0 .8-.2.8-.4s-.1-.6-.3-1.2l-1.5-2.8zm-4.8-1.9c-.2.5-.2.5.5.5h3c.7 0 .8-.1.5-.7l-1.3-3.6c-.2-.5-.4-1.1-.6-1.4-.1.1-.3.6-.6 1.3l-1.5 3.9zM167.7 130.3c0-2.4 0-2.7-1.5-2.8h-.6c-.1-.1-.1-.5 0-.6 1.2 0 2 .1 3 .1s1.8 0 3-.1c.1.1.2.5 0 .6h-.6c-1.4.1-1.5.5-1.5 2.8v7.9c0 2.4 0 2.7 1.5 2.8l.6.1c.1.1.1.5 0 .6-1.2 0-2-.1-3-.1s-1.8 0-3 .1c-.1-.1-.2-.4 0-.6l.6-.1c1.4-.2 1.5-.5 1.5-2.8v-7.9zM175.8 130.3c0-2.1-.1-2.5-1.1-2.6l-.8-.1c-.2-.1-.2-.5 0-.6 1.4-.1 3-.2 5.4-.2 1.5 0 2.9.1 4 .7 1.2.6 2 1.6 2 3.1 0 2.1-1.8 3.3-3 3.7-.1.1 0 .4.1.5 1.9 2.9 3.2 4.6 4.9 5.9.4.3 1 .6 1.7.6.1 0 .1.2 0 .3-.2.1-.6.1-1.1.1-2.1 0-3.3-.6-5-2.8-.6-.8-1.6-2.4-2.4-3.4-.4-.5-.8-.7-1.7-.7-1.1 0-1.1 0-1.1.5v2.8c0 2.3 0 2.6 1.5 2.8l.5.1c.1.1.1.5 0 .6-1.1 0-1.9-.1-2.9-.1s-1.9 0-3 .1c-.1-.1-.2-.4 0-.6l.6-.1c1.4-.2 1.5-.4 1.5-2.8l-.1-7.8zm2 3.2c0 .4 0 .6.1.7.1.1.4.1 1.7.1.9 0 1.8-.1 2.5-.6s1.2-1.2 1.2-2.8c0-1.8-1.2-3.4-3.9-3.4-1.5 0-1.6.1-1.6.7v5.3z"/></g></g></svg>