<?xml version="1.0" encoding="utf-8"?>
<!-- Generator: Adobe Illustrator 22.0.1, SVG Export Plug-In . SVG Version: 6.00 Build 0)  -->
<svg version="1.1" id="Слой_1" xmlns="http://www.w3.org/2000/svg" xmlns:xlink="http://www.w3.org/1999/xlink" x="0px" y="0px"
	 viewBox="0 0 65.2 21.7" style="enable-background:new 0 0 65.2 21.7;" xml:space="preserve">
<style type="text/css">
	.st0{fill:#007DC3;}
	.st1{fill:#FFFFFF;}
</style>
<path class="st0" d="M19.3,0.8L8.8,4.9L0.5,3.6l1.1,15.8l9.9,1.6l9.2-3.6L19.3,0.8z M11.9,5.5h1l0-0.2l0.1-0.2L13,4.9l0.2-0.2
	l0.1-0.2l0-0.1l0.1,0.1l0.1,0.2l0.2,0.2L13.7,5L13.9,5l0.2,0.3l0.2,0l0.2-0.1l0.2-0.1L14.9,5l0.2,0h0.3L15.3,5l-0.1,0.3l-0.1,0.1
	l-0.2,0.2l-0.2,0.2L14.6,6l0.1,0.2l0.2,0L15,6.5l0.2,0.1l0.3,0l0.1,0.1l-0.2,0l-0.2,0.1L15,6.8l-0.3,0.3l-0.1,0l-0.1,0v0.2l-0.1,0.2
	l-0.1,0.2V8l-0.1,0l0,0L14,7.9l-0.2-0.1l-0.2-0.2l-0.1-0.2l-0.1-0.2l-0.2-0.1l-0.3,0.1l-0.2,0.1l-0.1,0.1l-0.2,0.2l-0.3,0.1h-0.2
	L12,7.4V7.2l0.2-0.1l0.1-0.2V6.6l0.1-0.1l-0.1-0.1l-0.1-0.2l-0.2-0.1l-0.1-0.3l-0.2-0.1L11.9,5.5z M10.3,11.5l-0.1,0.1l-0.1,0.2
	l-0.3,0.4l-0.2,0.1l-0.6,0.4l-0.2,0.1H8.6l-0.4,0.2l-0.4-0.1H7.7l-0.4-0.1l-0.4,0.1l-0.1-0.1v-0.3l-0.2-0.1L6.4,12l-0.1-0.1
	l-0.1-0.2L6.2,11l0.1-0.2l0.1-0.2l0.1-0.2l0.2-0.1l0.4-0.1l0.1,1h0.2l0.2,0.1l0.2,0.2l0,0.2l0.2,0l0.2,0l0.8-0.1l0.2-0.3l0.2-0.5
	l0-0.2l0-0.5l0.1-0.4l0-0.3L9.3,9.1V8.9L8.8,8.5H8.4L8,8.5L7.7,8.6H7.5L7.1,8.5H7L6.8,8.6L6.6,8.8L6.4,8.9H6.2L5.9,9H5.5L5.3,9.3
	L5,9.4L4.8,9.6l0.1,1.1l0.1,0.4l0.1,0.3l0.1,0.4v0.1l0.2,0.4l0.1,0.5l0.1,0.2l0.1,0.2l0.1,0.2l0.1,0.4l0.1,0.2L6,14.2l0.1,0.2
	L6.1,15l0.2,0.3l0.1,0.4l0.1,0.2l0,0v0.1l-0.1,0.2v0.1l-0.1,0.1l-0.2,0l-0.2,0.1L6,17l-0.1,0.1l-0.6,0.1L5,17v-0.1L5,16.8l-0.1-0.2
	l-0.1-0.7l-0.1-0.4l-0.1-0.4l-0.2-0.4v-0.1l-0.2-0.4v-0.4l-0.2-0.4l-0.1-0.4l-0.2-0.4l-0.1-0.5l-0.1-0.4l0-0.2l-0.2-0.3l-0.1-0.3
	l-0.2-0.2l-0.2-0.2l-0.1-0.1L3,10.2l0-0.4l0.6-0.7l0.2-0.2l0.1-0.1l0.4-0.2l0.5-0.3l0.6-0.3h0.3l0.7-0.3l0.2-0.1l0.4-0.2l1.3-0.1
	l0.5-0.1l0.6,0.1l0.1,0.1l0.2,0.1l0.5,0.4l0.2,0.2l0.1,0.1l0,0.2l0.1,0.4l0.2,0.3l0,0.7L10.3,11.5z M16.9,15.9L16.9,15.9l-0.1,0.5
	l-0.2,0.3l-0.1,0l-0.1,0.1L16.3,17l0,0.1l-0.2,0.1L16,17.4l-0.3,0.2l-0.1,0l-0.2,0.2v0h-0.1L15.3,18l-0.2,0.1l-0.3,0.2l-0.1,0.1
	h-0.1l-0.2,0h-0.1L14,18.5h-0.5l-0.1,0L13,18.4h-0.2l-0.2-0.2h-0.1l-0.1-0.1l-0.1-0.1v0h-0.1l-0.1-0.1l-0.1,0L12,17.7l-0.1-0.1
	l-0.1-0.1l0,0l-0.2,0l0-0.3L11.5,17v-0.1h0.1l0.1-0.1h0.1l0.2-0.1h0l0.2,0.1l0.1,0.4v0l0.2,0.3l0.2,0.1l0.1,0.1l0.1,0.1l0.2,0.2
	l0.2,0.1l0.4,0.1h0.1l0.1,0.1H14l0.1-0.1h0l0.1,0h0.1l0.2-0.1h0.1l0.3-0.2l0.2-0.2h0.1l0.3-0.2l0.1-0.1l0.1,0l0.2-0.1v-0.1h0.2v0
	l0.1-0.2l0.2-0.3l0.2-0.4l-0.1-0.9l0-0.1v-0.3L16,14.7v-0.1l-0.1-0.2l-0.1-0.2v-0.1l-0.1-0.3l-0.1-0.2l-0.1-0.2v-0.2L15.5,13l0-0.2
	l-0.1-0.2l-0.1-0.3l-0.1-0.1v-0.3l-0.1-0.1v-0.2l-0.1-0.2v-0.2l-0.1-0.3v-0.1l-0.1-0.2v-0.1l-0.2-0.1l-0.1-0.1V10l-0.1-0.2V9.7
	l-0.1-0.1l-0.1-0.2h-0.3l-0.3,0.1l-0.3,0.1l-0.2,0l-0.4,0.1h-0.1l-0.3-0.2V9.4l0.1-0.1l0.1-0.1l0.1,0h0.1l0.6-0.1L13.9,9l0.3,0
	l0.5-0.2l0.1,0H15l0.2,0.1l0.1,0.3l0.1,0.1v0.2l0.1,0.1v0.1l0.1,0.3v0.1l0.1,0.1v0.1l0.1,0.2v0.1l0,0.1l0.1,0.3l0.1,0.2v0.4l0.1,0.1
	v0.3l0.1,0.2l0.1,0.4l0.1,0.2l0,0.3l0,0.1l0,0.1v0.1l0.1,0.1v0.1l0.1,0.1V14l0.1,0.2l0.1,0.2l0,0.2v0.2l0.1,0.1v0.1L16.8,15v0h0.1
	l0,0.1l0.1,0.6L16.9,15.9z"/>
<path class="st1" d="M11.9,5.5h1l0-0.2l0.1-0.2L13,4.9l0.2-0.2l0.1-0.2l0-0.1l0.1,0.1l0.1,0.2l0.2,0.2L13.7,5L13.9,5l0.2,0.3l0.2,0
	l0.2-0.1l0.2-0.1L14.9,5l0.2,0h0.3L15.3,5l-0.1,0.3l-0.1,0.1l-0.2,0.2l-0.2,0.2L14.6,6l0.1,0.2l0.2,0L15,6.5l0.2,0.1l0.3,0l0.1,0.1
	l-0.2,0l-0.2,0.1L15,6.8l-0.3,0.3l-0.1,0l-0.1,0v0.2l-0.1,0.2l-0.1,0.2V8l-0.1,0l0,0L14,7.9l-0.2-0.1l-0.2-0.2l-0.1-0.2l-0.1-0.2
	l-0.2-0.1l-0.3,0.1l-0.2,0.1l-0.1,0.1l-0.2,0.2l-0.3,0.1h-0.2L12,7.4V7.2l0.2-0.1l0.1-0.2V6.6l0.1-0.1l-0.1-0.1l-0.1-0.2l-0.2-0.1
	l-0.1-0.3l-0.2-0.1L11.9,5.5z M10.3,11.5l-0.1,0.1l-0.1,0.2l-0.3,0.4l-0.2,0.1l-0.6,0.4l-0.2,0.1H8.6l-0.4,0.2l-0.4-0.1H7.7
	l-0.4-0.1l-0.4,0.1l-0.1-0.1v-0.3l-0.2-0.1L6.4,12l-0.1-0.1l-0.1-0.2L6.2,11l0.1-0.2l0.1-0.2l0.1-0.2l0.2-0.1l0.4-0.1l0.1,1h0.2
	l0.2,0.1l0.2,0.2l0,0.2l0.2,0l0.2,0l0.8-0.1l0.2-0.3l0.2-0.5l0-0.2l0-0.5l0.1-0.4l0-0.3L9.3,9.1V8.9L8.8,8.5H8.4L8,8.5L7.7,8.6H7.5
	L7.1,8.5H7L6.8,8.6L6.6,8.8L6.4,8.9H6.2L5.9,9H5.5L5.3,9.3L5,9.4L4.8,9.6l0.1,1.1l0.1,0.4l0.1,0.3l0.1,0.4v0.1l0.2,0.4l0.1,0.5
	l0.1,0.2l0.1,0.2l0.1,0.2l0.1,0.4l0.1,0.2L6,14.2l0.1,0.2L6.1,15l0.2,0.3l0.1,0.4l0.1,0.2l0,0v0.1l-0.1,0.2v0.1l-0.1,0.1l-0.2,0
	l-0.2,0.1L6,17l-0.1,0.1l-0.6,0.1L5,17v-0.1L5,16.8l-0.1-0.2l-0.1-0.7l-0.1-0.4l-0.1-0.4l-0.2-0.4v-0.1l-0.2-0.4v-0.4l-0.2-0.4
	l-0.1-0.4l-0.2-0.4l-0.1-0.5l-0.1-0.4l0-0.2l-0.2-0.3l-0.1-0.3l-0.2-0.2l-0.2-0.2l-0.1-0.1L3,10.2l0-0.4l0.6-0.7l0.2-0.2l0.1-0.1
	l0.4-0.2l0.5-0.3l0.6-0.3h0.3l0.7-0.3l0.2-0.1l0.4-0.2l1.3-0.1l0.5-0.1l0.6,0.1l0.1,0.1l0.2,0.1l0.5,0.4l0.2,0.2l0.1,0.1l0,0.2
	l0.1,0.4l0.2,0.3l0,0.7L10.3,11.5z M16.9,15.9L16.9,15.9l-0.1,0.5l-0.2,0.3l-0.1,0l-0.1,0.1L16.3,17l0,0.1l-0.2,0.1L16,17.4
	l-0.3,0.2l-0.1,0l-0.2,0.2v0h-0.1L15.3,18l-0.2,0.1l-0.3,0.2l-0.1,0.1h-0.1l-0.2,0h-0.1L14,18.5h-0.5l-0.1,0L13,18.4h-0.2l-0.2-0.2
	h-0.1l-0.1-0.1l-0.1-0.1v0h-0.1l-0.1-0.1l-0.1,0L12,17.7l-0.1-0.1l-0.1-0.1l0,0l-0.2,0l0-0.3L11.5,17v-0.1h0.1l0.1-0.1h0.1l0.2-0.1
	h0l0.2,0.1l0.1,0.4v0l0.2,0.3l0.2,0.1l0.1,0.1l0.1,0.1l0.2,0.2l0.2,0.1l0.4,0.1h0.1l0.1,0.1H14l0.1-0.1h0l0.1,0h0.1l0.2-0.1h0.1
	l0.3-0.2l0.2-0.2h0.1l0.3-0.2l0.1-0.1l0.1,0l0.2-0.1v-0.1h0.2v0l0.1-0.2l0.2-0.3l0.2-0.4l-0.1-0.9l0-0.1v-0.3L16,14.7v-0.1l-0.1-0.2
	l-0.1-0.2v-0.1l-0.1-0.3l-0.1-0.2l-0.1-0.2v-0.2L15.5,13l0-0.2l-0.1-0.2l-0.1-0.3l-0.1-0.1v-0.3l-0.1-0.1v-0.2l-0.1-0.2v-0.2
	l-0.1-0.3v-0.1l-0.1-0.2v-0.1l-0.2-0.1l-0.1-0.1V10l-0.1-0.2V9.7l-0.1-0.1l-0.1-0.2h-0.3l-0.3,0.1l-0.3,0.1l-0.2,0l-0.4,0.1h-0.1
	l-0.3-0.2V9.4l0.1-0.1l0.1-0.1l0.1,0h0.1l0.6-0.1L13.9,9l0.3,0l0.5-0.2l0.1,0H15l0.2,0.1l0.1,0.3l0.1,0.1v0.2l0.1,0.1v0.1l0.1,0.3
	v0.1l0.1,0.1v0.1l0.1,0.2v0.1l0,0.1l0.1,0.3l0.1,0.2v0.4l0.1,0.1v0.3l0.1,0.2l0.1,0.4l0.1,0.2l0,0.3l0,0.1l0,0.1v0.1l0.1,0.1v0.1
	l0.1,0.1V14l0.1,0.2l0.1,0.2l0,0.2v0.2l0.1,0.1v0.1L16.8,15v0h0.1l0,0.1l0.1,0.6L16.9,15.9z"/>
<polygon class="st0" points="23.5,5.7 23.7,5.7 23.7,6 23.8,6.4 23.8,7 24,7.4 24,7.7 24.1,7.9 24.1,8 24.1,8.1 24.1,8.2 24,8.4 
	24,9.1 24,12.9 24,13.7 24.5,13.7 24.9,13.6 25.1,13.6 25.5,13.4 26.1,13.4 26.4,13.1 26.5,13.1 26.6,13.2 26.8,13.3 28.2,13.3 
	28.6,13.7 28.6,14.1 28.1,14.6 26.7,14.6 26.3,14.4 25.7,14.4 25.2,14.6 25.1,14.6 23.8,15 23.5,15 23.3,15.1 23.3,15.1 23,15.2 
	23,15.2 22.9,15 22.8,14.8 22.8,14.6 22.9,8.4 23,8 23,7.3 22.9,6.8 23,6.4 23,6.3 23.2,6 23.4,5.9 23.4,5.8 "/>
<path class="st0" d="M31,11.6l0.1,0.2v0.5l0.2,0.1v0.1l-0.2,0.3v0.9l0.2,0.2v0.2l-0.1,0.2v0.1l-0.1,0.2l-0.1,0.2L31,14.8l-0.2,0.3
	l-0.1,0.2h-0.3L30,14.9l-0.2-0.2l-0.1-0.2l0-0.2v-0.4l0.1-0.4v-0.3l0.2-0.4v-0.6l0.3-0.3l0.4-0.3H31z M30.7,8.3l0.2,0.1v0.2l0.1,0.2
	L31,8.9v0.7L30.7,10h-0.3L30,9.7V9.5l-0.2-0.4V8.8l0.5-0.5H30.7"/>
<path class="st0" d="M35,6.7l0.2,0.1v0.1L35.2,7l0,0.1v1l-0.1,0.3V9l-0.1,0.2L35,9.4l-0.2,0.5v0.5l-0.3,0.2v0.5h0.2l0.7-0.2h0.3
	l0.1,0l0.6,0.3l0.2,0.1l0.3,0.3l0.1,0.2l0.2,0.3l0.1,0.2v0.5l-0.2,0.5l-0.1,0.4l-0.4,0.5l-0.2,0.2l-0.2,0.1l-0.1,0.1L35.8,15
	l-0.2,0.1l-0.1,0.1l-0.2,0H35l-0.3,0.2l-0.9-0.3L33.6,15l-0.2-0.1l-0.3-0.3l-0.3-0.3l-0.1-0.2V14l-0.1-0.3v-0.5l0.1-0.4v-0.1
	l0.3-0.7v-0.1l0.2-0.2v-0.1l0.1-0.2l0.2-0.4l0.1-0.2l0.1-0.2v-0.1L34,9.8V9.7l0.1-0.3V9l0.1-0.2l0.1-0.2l0.1-0.2l-0.1-0.2l-0.1,0V8
	l0.1-0.2l0.1-0.1l0.1-0.1V7.1L34.5,7l0-0.2l0.1-0.1l0.1,0l0.1-0.1H35z M34.7,12.4h-0.4l-0.2-0.1l-0.1,0H34l-0.1,0.3L33.7,13v0.4
	l0.2,0.3v0.1l0.3,0.4h0.1l0.4,0.1h0.1l0.3-0.1h0.2l0.1-0.1l0.3-0.1l0.2-0.2l0-0.1l0.2-0.2l0.1-0.1v-0.5l0-0.2L36,12.6l-0.2-0.2
	l-0.1-0.1l-0.2-0.1l-0.2-0.1H35l-0.2,0.1L34.7,12.4"/>
<polygon class="st0" points="43.6,9.8 44.4,9.8 44.4,10 44.8,10.5 44.8,11.2 44.5,11.5 44.5,11.7 44.4,12 44.4,12.2 44.4,12.2 
	43.9,12.2 43.9,12.2 43.8,12 43.6,11.3 43.6,11.1 43.4,11.1 43.4,11.2 42.9,11.3 42.8,11.4 42.4,11.7 42.2,11.7 42.2,11.8 42.1,12 
	41.7,12.4 41.4,12.4 40.8,13 40.8,13.1 40.5,13.6 40.3,14 40.2,14.2 40.2,14.5 40.2,14.7 40.1,14.8 39.9,15.1 39.7,15.3 39.2,15.3 
	39.1,15.1 39.1,15 38.7,14.3 38.7,14.1 38.7,13.9 38.5,13.5 38.7,13.1 38.7,12.6 38.8,12.2 38.8,12 38.8,11.8 38.9,11.7 39,11.6 
	39.1,11.6 39.2,11.5 39.4,11.4 39.6,11.4 39.7,11.6 39.9,11.8 39.9,12 40.2,12 40.6,11.6 40.8,11.4 40.9,11.3 41.3,11 41.5,10.8 
	41.6,10.8 41.7,10.6 41.8,10.6 42.1,10.3 42.1,10.1 42.4,10.1 42.4,10.3 42.6,10.3 42.7,10.2 42.9,10 43.4,9.9 "/>
<path class="st0" d="M48,9.1h0.2l0.2,0.1l0.2,0.1h0.2l0.2,0.2v0.1l0.2,0.6l0.2,0.2v0.1l-0.2,0.2v0.1l0.1,0.1l0.1,0.3v0.1l0.3,0.3
	v0.3l-0.2,0.4l0.2,0.4v0.4l0.3,0.9v0.4l0.1,0.2l0.1,0.1v0.2l-0.2,0.2l-0.2,0.3l-0.1,0.1h-0.3l-0.2-0.1l-0.4-0.3l-0.2-0.2l-0.2-0.1
	h-0.5L47,15.1h-0.7L46,15l-0.1,0l-0.2-0.2l-0.2-0.3l-0.1-0.2l0-0.2l0-0.2l0.2-0.4l0.1-0.2l0.8-0.8l0.2-0.1l0.4-0.3l0.2,0h0.2L48,12
	h0.2v-0.3l-0.1,0l-0.1-0.2v-0.6L48,10.7l-0.1-0.2h-1.3l-0.2-0.2V10l0.1-0.2l0.1-0.2V9.6l0.2-0.2H47l0.4-0.1h0.2l0.2,0L48,9.1z
	 M47.3,13.4l-0.5,0.1V14h0.6l0.4-0.2l0.5-0.2l0.2-0.4h-1L47.3,13.4"/>
<polygon class="st0" points="56.3,9.8 57.1,9.8 57.1,10 57.6,10.5 57.6,11.2 57.2,11.5 57.2,11.7 57.2,12 57.1,12.2 57.1,12.2 
	56.7,12.2 56.7,12.2 56.6,12 56.4,11.3 56.4,11.1 56.2,11.1 56.1,11.2 55.7,11.3 55.6,11.4 55.1,11.7 55,11.7 55,11.8 54.9,12 
	54.5,12.4 54.2,12.4 53.6,13 53.6,13.1 53.3,13.6 53,14 53,14.2 53,14.5 52.9,14.7 52.8,14.8 52.7,15.1 52.5,15.3 52,15.3 
	51.8,15.1 51.8,15 51.5,14.3 51.4,14.1 51.4,13.9 51.3,13.5 51.4,13.1 51.4,12.6 51.6,12.2 51.6,12 51.6,11.8 51.7,11.7 51.7,11.6 
	51.8,11.6 52,11.5 52.2,11.4 52.4,11.4 52.5,11.6 52.7,11.8 52.7,12 52.9,12 53.3,11.6 53.6,11.4 53.7,11.3 54.1,11 54.3,10.8 
	54.4,10.8 54.5,10.6 54.6,10.6 54.9,10.3 54.9,10.1 55.1,10.1 55.2,10.3 55.3,10.3 55.4,10.2 55.7,10 56.1,9.9 "/>
<polygon class="st0" points="61.8,11 61.8,11 62.2,11.3 62.1,11.3 62.1,11.6 62,11.7 62,11.9 61.8,12.5 61.9,12.2 61.5,13.3 
	61.5,13.4 61.3,13.5 61.3,13.8 61,14.3 60.9,14.4 60.8,14.5 60.8,14.6 60.7,14.7 60.7,14.8 60.6,15 60.4,15.2 60.3,15.4 60,15.8 
	59.9,16 59.7,16.2 59.7,16.4 59.6,16.4 59.3,16.6 59.3,16.7 59.1,17 58.9,17.2 58.8,17.4 58.7,17.5 58.4,17.8 58.3,17.8 58.3,18 
	57.8,18.2 57.8,18.3 57.7,18.3 57.7,18.3 57.6,18.5 57.3,18.7 57.1,18.8 56.9,18.9 56.8,19 56.7,19.1 56.6,19.1 56.4,19.3 
	56.3,19.3 56.2,19.3 56.1,19.4 55.8,19.5 55.6,19.6 55.5,19.7 55.4,19.8 54.3,19.8 54.1,19.7 53.9,19.7 53.6,19.6 53.5,19.6 
	53.2,19.5 53.1,19.5 53,19.5 52.8,19.4 52.6,19.3 52.5,19.3 52.4,19.2 52.2,19.1 52,19.1 51.9,19 51.7,18.9 51.5,18.8 51.4,18.8 
	51.1,18.5 50.9,18.5 50.6,18 50.5,17.9 50.5,17.8 50.4,17.6 50.4,17.3 50.7,17 50.9,17 51,17.1 51,17.3 51.1,17.5 51.1,17.6 
	51.1,17.7 51.3,18 51.6,18.3 51.9,18.4 52.4,18.6 52.8,18.8 52.9,18.9 53,18.9 53.3,18.9 53.5,19.1 53.7,19.1 53.9,19.1 54.1,19.1 
	54.3,19.2 54.6,19.1 54.9,19.2 55.2,19.2 55.6,19.1 56.2,18.9 56.3,18.7 56.5,18.7 56.6,18.6 56.7,18.6 56.7,18.5 56.9,18.5 
	56.9,18.4 56.9,18.3 57.4,17.9 57.5,17.8 57.6,17.7 57.7,17.5 57.8,17.4 58.1,17.2 58.2,17 58.3,17 58.5,16.7 58.6,16.6 58.7,16.4 
	58.8,16.2 59.3,15.6 59.6,15.1 59.7,15 59.7,14.9 59.7,14.8 59.8,14.7 59.9,14.6 59.9,14.5 60,14.4 60,14.3 59.8,14.2 59.7,14.1 
	59.7,14 59.6,13.9 59.5,13.8 59.5,13.7 59.3,13.7 59.3,13.6 58.7,12.6 58.6,12.5 58.5,12.3 58.6,12.1 58.4,12.1 58.4,12 58.2,11.9 
	58.2,11.8 58.1,11.7 58.1,11.6 58.4,11.3 59.1,11.3 59.2,11.4 59.3,11.4 59.3,11.6 59.5,11.7 59.6,11.7 59.6,12.4 60,13.1 
	60.2,13.2 60.2,13.3 60.3,13.4 60.4,13.5 60.5,13.5 60.6,13.4 60.8,12.7 60.9,12.6 61.1,12 61.2,11.7 61.2,11.6 61.3,11.4 
	61.3,11.3 61.4,11.2 61.6,11.1 61.6,11.1 "/>
<path class="st0" d="M63.5,10.4L63.5,10.4c0.2,0,0.3,0,0.3-0.1c0-0.1-0.1-0.1-0.2-0.1c-0.1,0-0.1,0-0.1,0V10.4z M63.5,10.9h-0.2V10
	c0.1,0,0.2,0,0.3,0c0.2,0,0.2,0,0.3,0.1c0.1,0,0.1,0.1,0.1,0.2c0,0.1-0.1,0.2-0.2,0.2v0c0.1,0,0.1,0.1,0.2,0.2c0,0.1,0,0.2,0.1,0.2
	h-0.2c0,0,0-0.1-0.1-0.2c0-0.1-0.1-0.1-0.2-0.1h-0.1V10.9z M63,10.5c0,0.4,0.3,0.7,0.7,0.7c0.4,0,0.7-0.3,0.7-0.7
	c0-0.4-0.3-0.7-0.7-0.7C63.3,9.8,63,10.1,63,10.5 M64.5,10.5c0,0.5-0.4,0.9-0.9,0.9c-0.5,0-0.9-0.4-0.9-0.9c0-0.5,0.4-0.9,0.9-0.9
	C64.2,9.6,64.5,10,64.5,10.5"/>
</svg>
