<?xml version="1.0" encoding="utf-8"?>
<!-- Generator: Adobe Illustrator 22.0.1, SVG Export Plug-In . SVG Version: 6.00 Build 0)  -->
<svg version="1.1" id="Слой_1" xmlns="http://www.w3.org/2000/svg" xmlns:xlink="http://www.w3.org/1999/xlink" x="0px" y="0px"
	 viewBox="0 0 163.7 36.9" style="enable-background:new 0 0 163.7 36.9;" xml:space="preserve">
<style type="text/css">
	.st0{fill:#0054A5;}
	.st1{fill:#00ABBC;}
</style>
<polygon class="st0" points="0.4,23.2 8.6,23.2 9.5,22 2.7,22 8.5,14.6 7.7,13.8 "/>
<polygon class="st0" points="4.9,20.9 10.3,20.9 11.2,19.8 7.2,19.8 10,16.2 9.2,15.4 "/>
<polygon class="st1" points="11.2,25.5 11.2,21.6 12.3,20.2 12.3,23.6 17.7,28.1 17.7,36.5 16.6,36.5 16.6,30 "/>
<polygon class="st1" points="15.5,36.5 14.4,36.5 14.4,32.4 9.1,27.9 9.1,24.4 10.1,23 10.1,26 15.5,30.5 "/>
<polygon class="st1" points="25.2,25.5 25.2,21.6 24.1,20.2 24.1,23.6 18.7,28.1 18.7,36.5 19.8,36.5 19.8,30 "/>
<polygon class="st1" points="20.9,36.5 22,36.5 22,32.4 27.3,27.9 27.3,24.4 26.3,23 26.3,26 20.9,30.5 "/>
<polygon class="st0" points="9.7,11.1 10.5,11.9 18.2,2 25.9,11.9 26.7,11.1 18.2,0.2 "/>
<polygon class="st0" points="18.2,3.8 11.3,12.7 12.1,13.5 18.2,5.6 24.3,13.5 25.1,12.7 "/>
<polygon class="st0" points="24.6,6.6 25.4,7.7 31.5,7.7 18.2,21.5 4.9,7.7 11,7.7 11.8,6.6 2.3,6.6 18.2,23.1 34.1,6.6 "/>
<polygon class="st0" points="28.7,13.8 27.9,14.6 33.7,22 26.9,22 27.8,23.2 36,23.2 "/>
<polygon class="st0" points="27.2,15.4 26.4,16.2 29.2,19.8 25.2,19.8 26.1,20.9 31.4,20.9 "/>
<path class="st1" d="M110.5,32.1c0,0-0.9,2.1-2,4.5h-2.4l2.2-4.7c0.3-0.7,0.4-1.2,0.3-1.5c-0.2-0.3-0.6-0.4-1.2-0.4h-3.8v-3.1h2.2
	v1.5h2.7c1.2,0,1.9,0.6,2.2,1.4C110.9,30.7,110.8,31.4,110.5,32.1"/>
<path class="st1" d="M117,36.6c-0.6-1-2.3-3.4-2.9-4.1c-0.3,0.3-0.5,0.9-0.5,1.3v2.8h-2.2v-2.3c0-0.9,0.7-2.2,2-2.9l-2.4-3h2.7
	l2.7,3.7c0.5-0.2,0.5-1.2,0.5-1.6v-2.1h2.2v1.8c0,0.9-0.6,2.3-1.9,2.8c0.8,1.2,2.4,3.5,2.4,3.5H117z"/>
<path class="st1" d="M126.6,36.6h-2.2v-5c0-1.4-0.9-1.8-2.1-1.8c-0.7,0-1.4,0.2-1.9,0.3v-1.5c0.9-0.3,1.8-0.3,2.8-0.3
	c1.5,0,3.4,0.9,3.4,2.8L126.6,36.6L126.6,36.6z"/>
<path class="st1" d="M138,33.3c-0.3,2.2-2.5,3.6-4.6,3.6c-1.5,0-3.2-0.3-4.1-1.4c-0.8-1-1-2.5-1.1-3.8c0,0-0.2-2.4-0.3-3.1h2.2
	c0.1,1.4,0.2,2.8,0.4,4.2c0.9,0.1,1.7-0.5,1.8-1.7c0,0,0.2-1.6,0.3-2.5h2.2c-0.1,0.9-0.2,1.8-0.3,2.9c-0.2,1.6-1.3,2.5-3.2,2.5h-0.5
	c0.2,1.2,1,1.6,2.4,1.6c1.9,0,2.6-1.5,2.7-3.1c0,0,0.3-3.2,0.4-3.9h2.3C138.4,30.1,138,33.3,138,33.3"/>
<path class="st1" d="M139.9,33.3v-4.8h2.2v4.2C141.4,33,140.4,33.2,139.9,33.3"/>
<path class="st1" d="M73.3,14.7V10c0-1-0.6-1.9-1.8-1.9h-1.2v4.8c0,1.3-0.9,2-2.2,2c-0.6,0-1.4-0.1-1.6-0.3v-1.4
	c0.3,0.1,0.5,0.2,0.8,0.2c0.8,0,0.9-0.5,0.9-1V8.8l0.2-0.7h-1.8V6.6h5.5c2.2,0,3.3,1.3,3.3,3.2v4.8H73.3z"/>
<path class="st1" d="M76.5,11.4V6.6h2.2v4.2C77.9,11.1,77,11.3,76.5,11.4"/>
<polygon class="st1" points="85.6,8.2 85.6,14.7 83.4,14.7 83.4,8.2 79.6,8.2 79.6,6.6 86.7,6.6 86.7,8.2 "/>
<rect x="87.8" y="6.6" class="st1" width="2.2" height="8.1"/>
<path class="st1" d="M91.5,14.7v-4.4c0.6-0.2,1.5-0.3,2.2-0.4v4.8H91.5z M96.5,14.7v-4.6c0-1.3-1-2.1-2.5-2.1
	c-0.7,0-1.8,0.1-2.7,0.3V6.8c1.1-0.3,2.4-0.3,3.5-0.3c1.7,0,3.9,0.8,3.9,2.8v5.4H96.5z"/>
<path class="st1" d="M99.7,11.4V6.6h2.2v4.2C101.1,11.1,100.2,11.3,99.7,11.4"/>
<path class="st1" d="M103.3,14.7v-4.4c0.6-0.2,1.5-0.3,2.2-0.4v4.8H103.3z M108.3,14.7v-4.6c0-1.3-1-2.1-2.5-2.1
	c-0.7,0-1.8,0.1-2.7,0.3V6.8c1.1-0.3,2.4-0.3,3.5-0.3c1.7,0,3.9,0.8,3.9,2.8v5.4H108.3z"/>
<path class="st1" d="M122,14.7V10c0-1-0.6-1.9-1.8-1.9h-1.2v4.8c0,1.3-0.9,2-2.2,2c-0.6,0-1.4-0.1-1.6-0.3v-1.4
	c0.3,0.1,0.5,0.2,0.8,0.2c0.8,0,0.9-0.5,0.9-1V8.8l0.2-0.7h-1.8V6.6h5.5c2.2,0,3.3,1.3,3.3,3.2v4.8H122z"/>
<rect x="125.8" y="6.6" class="st1" width="2.2" height="8.1"/>
<path class="st1" d="M129.2,14.7v-1.5h2.2v-4c0-0.7-0.5-1.1-1.2-1.1c-0.3,0-0.6,0-0.8,0.1V6.7c0.6-0.1,1-0.2,1.6-0.2
	c1.8,0,2.6,1,2.6,2.6v5.6H129.2z"/>
<path class="st1" d="M136.8,14.9c-0.9,0-1.5-0.1-2.1-0.4V13c0.4,0.3,1.1,0.4,1.9,0.4c1.8,0,2.3-1.1,2.3-2.9c0-1.7-0.7-2.6-2.2-2.6
	c-0.8,0-1.5,0.2-1.9,0.4V6.8c0.9-0.3,1.3-0.3,2.2-0.3c2.6,0,4.2,1.6,4.2,4.1C141.1,13.4,139.7,14.9,136.8,14.9"/>
<rect x="142.4" y="6.6" class="st1" width="2.2" height="8.1"/>
<path class="st1" d="M150,7.8c-1.7,0-2,2-2,2.9c0,1.3,0.4,2.8,2,2.8c1.5,0,1.9-1.5,1.9-2.8C151.9,9.7,151.6,7.8,150,7.8 M150,14.9
	c-2.8,0-4.1-1.8-4.1-4.3c0-2.5,1.3-4.3,4.1-4.3c2.8,0,4.1,1.8,4.1,4.3C154.1,13.2,152.8,14.9,150,14.9"/>
<path class="st1" d="M155.4,14.7v-4.4c0.6-0.2,1.5-0.3,2.2-0.4v4.8H155.4z M160.4,14.7v-4.6c0-1.3-1-2.1-2.5-2.1
	c-0.7,0-1.8,0.1-2.7,0.3V6.8c1.1-0.3,2.4-0.3,3.5-0.3c1.7,0,3.9,0.8,3.9,2.8v5.4H160.4z"/>
<polygon class="st0" points="46.2,8.2 46.2,14.7 44.4,14.7 44.4,8.2 42.4,8.2 42.4,6.6 48.1,6.6 48.1,8.2 "/>
<polygon class="st0" points="53.7,14.7 53.7,11.3 50.8,11.3 50.8,14.7 48.9,14.7 48.9,6.6 50.8,6.6 50.8,9.7 53.7,9.7 53.7,6.6 
	55.6,6.6 55.6,14.7 "/>
<polygon class="st0" points="57.2,14.7 57.2,6.6 61.8,6.6 61.8,8.2 59.1,8.2 59.1,9.8 61.6,9.8 61.6,11.3 59.1,11.3 59.1,13.1 
	61.8,13.1 61.8,14.7 "/>
<polygon class="st0" points="46.2,30.1 46.2,31.8 48.7,31.8 48.7,33.3 46.2,33.3 46.2,36.5 44.4,36.5 44.4,28.5 48.8,28.5 
	48.8,30.1 "/>
<path class="st0" d="M53.3,30c-1,0-1.9,0.8-1.9,2.4c0,1.6,0.6,2.5,1.9,2.5c0.9,0,1.9-0.7,1.9-2.5C55.2,30.9,54.5,30,53.3,30
	 M53.2,36.7c-2.5,0-3.7-1.6-3.7-4.1c0-2.6,1.8-4.3,4-4.3c2.1,0,3.7,1.2,3.7,4.1C57.2,35,55.4,36.7,53.2,36.7"/>
<path class="st0" d="M60.6,29.9c-0.2,0-0.4,0-0.5,0V32c0.1,0,0.3,0,0.5,0c0.8,0,1.3-0.4,1.3-1.1C61.8,30.3,61.5,29.9,60.6,29.9
	 M62.1,36.5l-1.9-3.2h-0.1v3.2h-1.9v-8.1c0.7,0,1.6-0.1,2.5-0.1c1.9,0,3,0.7,3,2.4c0,1.1-0.7,2-1.8,2.2c0.2,0.3,0.4,0.6,0.6,0.9
	l1.7,2.6H62.1z"/>
<rect x="67.7" y="28.5" class="st0" width="1.9" height="8.1"/>
<path class="st0" d="M72.6,36.7c-0.6,0-1.1-0.1-1.6-0.2l0.1-1.7c0.5,0.2,1.1,0.3,1.7,0.3c0.7,0,1.2-0.3,1.2-0.9
	c0-1.4-3.2-0.7-3.2-3.4c0-1.5,1.2-2.5,3.2-2.5c0.4,0,1,0.1,1.5,0.1l-0.1,1.6c-0.5-0.1-1-0.2-1.4-0.2c-0.8,0-1.1,0.3-1.1,0.8
	c0,1.3,3.2,0.8,3.2,3.3C75.9,35.5,74.6,36.7,72.6,36.7"/>
<path class="st0" d="M79.4,29.9c-0.2,0-0.4,0-0.5,0V32c0.1,0,0.3,0,0.5,0c0.8,0,1.3-0.4,1.3-1.1C80.6,30.3,80.2,29.9,79.4,29.9
	 M80.8,36.5l-1.9-3.2h-0.1v3.2H77v-8.1c0.7,0,1.6-0.1,2.5-0.1c1.9,0,3,0.7,3,2.4c0,1.1-0.7,2-1.8,2.2c0.2,0.3,0.4,0.6,0.6,0.9
	l1.7,2.6H80.8z"/>
<path class="st0" d="M87.3,32c-0.2-0.5-0.3-0.9-0.4-1.3h0c-0.1,0.4-0.2,0.9-0.4,1.4L86,33.6h1.9L87.3,32z M88.8,36.5L88.3,35h-2.8
	l-0.5,1.5h-1.9l2.7-8.1H88l2.8,8.1H88.8z"/>
<polygon class="st0" points="91.5,36.5 91.5,28.5 96.1,28.5 96.1,30 93.4,30 93.4,31.6 95.9,31.6 95.9,33.1 93.4,33.1 93.4,34.9 
	96.1,34.9 96.1,36.5 "/>
<polygon class="st0" points="97.3,36.5 97.3,28.5 99.2,28.5 99.2,34.9 101.6,34.9 101.6,36.5 "/>
<path class="st1" d="M134.8,23v4.4h-2.2v-3.5c0-0.9-0.2-1.9-0.7-2.9c0,0-1.2-2.3-1.7-3.4h2.4c0.6,1.2,1.3,2.6,1.8,4.2
	c0.5-0.2,1.1-0.9,1.1-2.4v-1.8h2.2v2.1C137.8,21,136.5,22.7,134.8,23"/>
<path class="st1" d="M144.9,25.6h-2.2v-4.9c0-1.4-0.9-1.8-2.1-1.8c-0.7,0-1.4,0.2-1.8,0.3v-1.5c0.9-0.3,1.8-0.3,2.7-0.3
	c1.5,0,3.3,0.9,3.3,2.7L144.9,25.6L144.9,25.6z"/>
<path class="st1" d="M152.1,25.6c-0.6-1-2.2-3.3-2.8-4.1c-0.3,0.3-0.5,0.9-0.5,1.3v2.8h-2.2v-2.2c0-0.9,0.7-2.2,2-2.8l-2.3-3h2.7
	l2.6,3.6c0.5-0.2,0.5-1.1,0.5-1.6v-2h2.2v1.8c0,0.9-0.5,2.3-1.9,2.8c0.7,1.2,2.4,3.4,2.4,3.4H152.1z"/>
<path class="st1" d="M162.3,21.1c0,0-0.9,2-2,4.5H158l2.2-4.7c0.3-0.7,0.4-1.2,0.3-1.5c-0.2-0.3-0.6-0.4-1.2-0.4h-3.7v-3h2.2v1.5
	h2.7c1.2,0,1.9,0.6,2.1,1.4C162.8,19.7,162.6,20.4,162.3,21.1"/>
<path class="st0" d="M43.9,25.7c-0.5,0-0.8,0-1.1-0.1v-1.6c0.2,0.1,0.4,0.1,0.7,0.1c0.5,0,0.8-0.2,0.8-1v-5.6h1.9v5.7
	C46.2,24.6,45.7,25.7,43.9,25.7"/>
<polygon class="st0" points="47.8,25.6 47.8,17.5 52.3,17.5 52.3,19.1 49.6,19.1 49.6,20.7 52.2,20.7 52.2,22.2 49.6,22.2 49.6,24 
	52.3,24 52.3,25.6 "/>
<path class="st0" d="M62,25.6h-2.3l-1-3.8c-0.1-0.5-0.2-1.2-0.3-1.8h0c-0.1,0.6-0.2,1.2-0.3,1.8l-1,3.9h-2.1l-2-8.1h2l0.9,3.9
	c0.1,0.5,0.2,1.1,0.3,1.7h0c0.1-0.6,0.2-1.1,0.3-1.6l1-4h1.9l1.1,3.9c0.1,0.5,0.2,1.1,0.3,1.7h0c0.1-0.6,0.2-1.2,0.3-1.7l0.9-3.9H64
	L62,25.6z"/>
<rect x="64.9" y="17.5" class="st0" width="1.9" height="8.1"/>
<path class="st0" d="M69.7,25.7c-0.6,0-1.1-0.1-1.6-0.2l0.1-1.7c0.5,0.2,1.1,0.3,1.7,0.3c0.7,0,1.2-0.3,1.2-0.9
	c0-1.4-3.2-0.7-3.2-3.4c0-1.5,1.2-2.5,3.2-2.5c0.4,0,1,0,1.5,0.1l-0.1,1.6c-0.5-0.1-1-0.2-1.4-0.2c-0.8,0-1.1,0.3-1.1,0.8
	c0,1.3,3.2,0.8,3.2,3.3C73,24.6,71.8,25.7,69.7,25.7"/>
<polygon class="st0" points="79,25.6 79,22.2 76,22.2 76,25.6 74.1,25.6 74.1,17.5 76,17.5 76,20.6 79,20.6 79,17.5 80.8,17.5 
	80.8,25.6 "/>
<path class="st0" d="M88.2,21c-0.2-0.5-0.3-0.9-0.4-1.3h0c-0.1,0.4-0.2,0.9-0.4,1.4l-0.5,1.5h1.9L88.2,21z M89.7,25.6l-0.5-1.5h-2.8
	l-0.5,1.5h-1.8l2.7-8.1h2.1l2.8,8.1H89.7z"/>
<path class="st0" d="M98.5,19.5c-0.6-0.3-1.4-0.4-2.1-0.4c-1.5,0-2.5,1-2.5,2.5c0,1.5,0.8,2.4,2.3,2.4c0.3,0,0.5,0,0.8-0.1v-2.6h1.9
	v3.9c-0.8,0.3-1.8,0.5-2.8,0.5c-2.6,0-4.1-1.5-4.1-4c0-2.6,1.8-4.3,4.6-4.3c0.8,0,1.6,0.1,2.3,0.3L98.5,19.5z"/>
<polygon class="st0" points="100.2,25.6 100.2,17.5 104.7,17.5 104.7,19.1 102,19.1 102,20.7 104.6,20.7 104.6,22.2 102,22.2 
	102,24 104.7,24 104.7,25.6 "/>
<path class="st0" d="M110.5,25.6l-1.9-3.5c-0.3-0.6-0.6-1.2-0.8-1.8c0,0.6,0.1,1.4,0.1,2.2v3.1H106v-8.1h2.4l1.8,3.2
	c0.4,0.7,0.7,1.4,1,2c-0.1-0.7-0.1-1.8-0.1-2.5v-2.7h1.8v8.1H110.5z"/>
<path class="st0" d="M117.7,25.7c-3,0-3.8-2-3.8-3.8c0-2.6,1.4-4.4,4.1-4.4c0.6,0,1.1,0.1,1.6,0.2l-0.2,1.7c-0.5-0.1-1-0.2-1.5-0.2
	c-1.3,0-2,0.9-2,2.4c0,1.6,0.6,2.5,2.1,2.5c0.4,0,1-0.1,1.4-0.3l0.2,1.7C119.1,25.6,118.4,25.7,117.7,25.7"/>
<path class="st0" d="M124.4,22.8v2.8h-1.9v-2.8l-2.5-5.3h2l0.9,2.1c0.2,0.5,0.4,0.9,0.5,1.3h0c0.2-0.5,0.4-0.9,0.6-1.5l0.9-1.9h2
	L124.4,22.8z"/>
</svg>
