<?xml version="1.0" encoding="UTF-8"?>
<!DOCTYPE svg PUBLIC "-//W3C//DTD SVG 1.1//EN" "http://www.w3.org/Graphics/SVG/1.1/DTD/svg11.dtd">
<!-- Creator: CorelDRAW X6 -->
<svg xmlns="http://www.w3.org/2000/svg" xml:space="preserve" width="4.45833in" height="0.708331in" version="1.1" style="shape-rendering:geometricPrecision; text-rendering:geometricPrecision; image-rendering:optimizeQuality; fill-rule:evenodd; clip-rule:evenodd"
viewBox="0 0 4458 708"
 xmlns:xlink="http://www.w3.org/1999/xlink">
 <defs>
  <style type="text/css">
   <![CDATA[
    .fil0 {fill:#EA5C3B;fill-rule:nonzero}
   ]]>
  </style>
 </defs>
 <g id="Layer_x0020_1">
  <metadata id="CorelCorpID_0Corel-Layer"/>
  <polygon class="fil0" points="3352,64 3402,64 3402,15 3352,15 "/>
  <path class="fil0" d="M3384 556c17,-13 38,-21 60,-21 30,0 44,11 44,42l-28 0c-21,0 -46,2 -65,11 -19,10 -33,27 -33,56 0,37 34,58 68,58 23,0 49,-12 60,-34l1 0c1,6 1,19 2,29l45 0c-1,-15 -2,-29 -2,-44 -1,-14 -1,-29 -1,-49l0 -25c0,-57 -25,-82 -84,-82 -21,0 -48,5 -68,14l2 44zm94 91c-8,11 -20,18 -35,18 -18,0 -33,-7 -33,-24 0,-30 34,-34 57,-34l22 0c0,15 -2,29 -11,40z"/>
  <polygon class="fil0" points="3352,294 3402,294 3402,99 3352,99 "/>
  <polygon class="fil0" points="3735,467 3786,467 3786,418 3735,418 "/>
  <path class="fil0" d="M3985 30l-103 264 55 0 23 -60 107 0 22 60 59 0 -104 -264 -60 0zm-10 162l38 -109 1 0 38 109 -77 0z"/>
  <path class="fil0" d="M0 342l0 28c0,222 150,338 361,338 82,0 154,-17 178,-30l0 -107c-33,13 -89,31 -167,31 -115,0 -188,-77 -188,-241l0 -10c0,-152 76,-245 205,-245 68,0 121,13 151,26l0 -108c-33,-15 -92,-25 -180,-25 -204,0 -359,136 -359,343z"/>
  <path class="fil0" d="M3532 95c-61,0 -91,46 -91,103 0,64 37,101 102,101 27,0 48,-5 67,-15l0 -41c-19,11 -40,20 -65,20 -32,0 -53,-18 -56,-49l135 0c0,-68 -20,-118 -92,-118zm-42 83c2,-26 17,-46 45,-46 28,0 40,21 41,46l-86 0z"/>
  <polygon class="fil0" points="3735,697 3786,697 3786,502 3735,502 "/>
  <path class="fil0" d="M3732 131c19,0 30,3 45,9l4 -38c-16,-3 -32,-7 -56,-7 -40,0 -76,19 -76,60 0,71 88,44 88,82 0,19 -20,24 -33,24 -18,0 -34,-5 -50,-13l-3 42c19,5 38,8 58,8 41,0 81,-18 81,-64 0,-70 -88,-50 -88,-81 0,-17 16,-22 29,-22z"/>
  <polygon class="fil0" points="4178,64 4228,64 4228,15 4178,15 "/>
  <polygon class="fil0" points="4178,294 4228,294 4228,99 4178,99 "/>
  <path class="fil0" d="M4100 529l-1 0 0 -27 -48 0 0 195 51 0 0 -95c0,-25 8,-65 44,-65 33,0 33,33 33,56l0 104 51 0 0 -123c0,-44 -20,-76 -66,-76 -27,0 -48,9 -64,31z"/>
  <path class="fil0" d="M3599 502l-37 0 0 37 37 0 0 99c0,38 22,63 62,63 15,0 27,-2 37,-4l-2 -40c-5,3 -14,5 -23,5 -19,0 -24,-15 -24,-32l0 -91 45 0 0 -37 -45 0 0 -55 -51 16 0 39z"/>
  <path class="fil0" d="M2706 625c0,44 20,76 66,76 26,0 48,-12 64,-31l1 0 0 27 48 0 0 -195 -50 0 0 96c0,25 -8,65 -45,65 -33,0 -33,-32 -33,-56l0 -104 -51 0 0 123z"/>
  <path class="fil0" d="M2474 601c0,56 37,100 102,100 65,0 103,-44 103,-100 0,-64 -44,-103 -103,-103 -57,0 -102,39 -102,103zm102 -64c34,0 49,28 49,58 0,33 -10,67 -49,67 -38,0 -49,-35 -49,-67 0,-29 16,-58 49,-58z"/>
  <path class="fil0" d="M2537 10l0 284 51 0 0 -96c0,-25 8,-65 44,-65 33,0 33,33 33,56l0 104 51 0 0 -123c0,-44 -20,-76 -66,-76 -27,0 -49,12 -61,31l-1 0 0 -115 -51 0z"/>
  <path class="fil0" d="M4408 122l-1 0c-15,-19 -33,-27 -58,-27 -60,0 -82,48 -82,101 0,53 22,102 82,102 24,0 44,-7 59,-26l1 0 0 22 49 0 0 -284 -51 0 0 112zm-45 137c-33,0 -43,-36 -43,-63 0,-26 9,-63 42,-63 33,0 45,35 45,63 0,27 -11,63 -44,63z"/>
  <path class="fil0" d="M2443 67c19,0 37,3 57,14l4 -44c-19,-7 -42,-11 -60,-11 -89,0 -145,51 -145,141 0,89 60,132 145,132 20,0 41,-4 60,-8l-2 -44c-13,6 -37,11 -58,11 -56,0 -89,-40 -89,-94 0,-54 34,-96 88,-96z"/>
  <polygon class="fil0" points="2459,475 2459,433 2312,433 2312,697 2366,697 2366,581 2455,581 2455,540 2366,540 2366,475 "/>
  <path class="fil0" d="M857 10l-267 687 145 0 60 -165 261 0 58 165 182 0 -274 -687 -166 0zm-27 423l90 -253 98 253 -189 0z"/>
  <polygon class="fil0" points="1832,113 1832,10 1351,10 1351,697 1528,697 1528,400 1764,400 1764,297 1528,297 1528,113 "/>
  <path class="fil0" d="M2926 697l51 0 0 -95c0,-25 8,-65 44,-65 33,0 33,33 33,56l0 104 51 0 0 -123c0,-44 -20,-76 -66,-76 -27,0 -48,9 -64,31l-1 0 0 -27 -48 0 0 195z"/>
  <path class="fil0" d="M3815 601c0,56 37,100 102,100 65,0 102,-44 102,-100 0,-64 -44,-103 -102,-103 -58,0 -102,39 -102,103zm102 -64c33,0 49,28 49,58 0,33 -11,67 -49,67 -39,0 -49,-35 -49,-67 0,-29 16,-58 49,-58z"/>
  <path class="fil0" d="M3137 599c0,53 22,103 82,103 24,0 44,-7 60,-26l1 0 0 22 49 0 0 -284 -51 0 0 112 -1 0c-15,-19 -33,-27 -58,-27 -60,0 -82,48 -82,101zm95 -62c32,0 45,35 45,62 0,28 -11,64 -44,64 -33,0 -43,-36 -43,-64 0,-26 9,-62 42,-62z"/>
  <path class="fil0" d="M2778 185c-19,10 -33,27 -33,56 0,37 34,58 68,58 23,0 49,-12 60,-34l1 0c1,6 1,19 2,29l45 0c-1,-15 -2,-29 -2,-44 -1,-14 -1,-29 -1,-49l0 -25c0,-57 -25,-82 -84,-82 -21,0 -48,5 -68,14l2 44c17,-13 38,-21 60,-21 30,0 44,11 44,42l-28 0c-21,0 -46,2 -66,11zm93 19c0,15 -2,29 -11,40 -8,11 -20,18 -35,18 -18,0 -33,-7 -33,-24 0,-30 34,-34 57,-34l22 0z"/>
  <path class="fil0" d="M3221 60l0 39 -37 0 0 37 37 0 0 99c0,38 22,63 61,63 15,0 27,-2 38,-4l-2 -40c-5,3 -14,5 -23,5 -20,0 -24,-15 -24,-32l0 -91 45 0 0 -37 -45 0 0 -55 -51 16z"/>
  <path class="fil0" d="M2957 99l0 195 51 0 0 -72c0,-28 0,-80 41,-80 9,0 18,2 23,4l0 -51c-5,-2 -11,-2 -15,-2 -30,0 -51,30 -53,49l-1 0 0 -44 -45 0z"/>
  <polygon class="fil0" points="3103,64 3154,64 3154,15 3103,15 "/>
  <polygon class="fil0" points="3103,294 3154,294 3154,99 3103,99 "/>
 </g>
</svg>
