<svg xmlns="http://www.w3.org/2000/svg" version="1" viewBox="0 0 1400 1400" shape-rendering="geometricPrecision" text-rendering="geometricPrecision" image-rendering="optimizeQuality" fill-rule="evenodd" clip-rule="evenodd"><defs><style>.str0{stroke:#fefefe;stroke-width:25}.fil1{fill:none}.fil2{fill:#fefefe}.fil0{fill:#004b8f}</style></defs><g id="Layer_x0020_1"><circle class="fil0" cx="700" cy="700" r="700"/><circle class="fil1 str0" cx="700" cy="700" r="650"/><g id="_698075904"><path class="fil2" d="M1038 312c-28-22 15-46 10-69 4 5 12 18 11 32-1 16-18 22-21 38zm-141 0c-28-22 15-46 10-69 4 5 12 18 11 32-1 16-18 22-21 38zm-98 0c-28-22 15-46 10-69 4 5 12 18 11 32-1 16-18 22-21 38zm-95 0c-28-22 15-46 10-69 4 5 12 18 11 32-1 16-18 22-21 38zm-93 0c-28-22 15-46 10-69 4 5 12 18 11 32-1 16-18 22-21 38zm-96 0c-28-22 15-46 10-69 4 5 12 18 11 32-1 16-18 22-21 38zm-154 0c-28-22 15-46 10-69 4 5 12 18 11 32-1 16-18 22-21 38zm18 108v256c59 6 42-232 0-256zm-31-3c-34 10-61 137 0 243V417zm662-5c-9 13-18 34-20 63v201l30-25V412h-10zm-662-93h31v26c78 63 106 358 0 408v71l-31-37v-60c-59-102-113-303 0-383v-25zm672 2l31-1v299l10-13v59l-10 12v127l-31 32V709l-30 25v127l-37 26V760c-16 8-26-25-39-38l39-21V489c1-32 18-73 32-107 16-40 32-43 35-62zm-232-2l36 1v439c23-8 34-29 43-59 12-42 15-99 15-160V320h36c-1 81 1 156 0 238-1 60-12 122-27 184 19-1 27 33 27 41v125l-36 16V807c0-10-11-5-57 10v127l-36 9V827c-25 4-26-36-40-53l40-7V320zm-191 1h36v445l57 5c0-155-1-295-1-450h36v450l8 1 15 59-24-1v129h-36l1-129-57-5v129l-36-7V821c-33-12-17-42-25-63l25 4V321zm-65 0c-3 11-6 15-23 31v378l55 21v59l-55-21 1 71c66 8 65 31 61 81-97-4-98-96-97-98l-1-72c-34-9-24-47-30-72l30 13V347c14-10 21-15 29-25h30z"/><path class="fil2" d="M527 1262v-20h16v-16h21v-16h119v-118h-11v-22c0-14-43-8-122-39-87-34-194-112-198-229 125 283 586 283 711 0-4 117-111 194-198 229-79 31-122 26-122 39v22h-11v118h119v16h21v16h16v20H528z"/></g></g></svg>