<svg id="Слой_1" xmlns="http://www.w3.org/2000/svg" viewBox="0 0 103.4 104.5"><style>.st0{fill:#1a4176}.st1{fill:#fff}</style><path class="st0" d="M52.4 2.2c27.6 0 50 22.4 50 50s-22.4 50-50 50-50-22.4-50-50c0-27.7 22.4-50 50-50"/><path class="st1" d="M52.5 2.2c3 0 5.9.3 8.8.8-.8 6.7-3.9 12.8-8.4 17.3-4.3 4.3-10 7.3-16.3 8.3v9.2c8.9-1 16.8-5 22.8-11 5.6-5.6 9.5-13 10.8-21.3 2.9 1.1 5.6 2.4 8.2 4-1.9 9.1-6.5 17.2-12.8 23.5-7.6 7.6-17.7 12.6-29 13.7V55c13.6-1.1 25.8-7 34.9-16.1 6.6-6.6 11.5-14.8 14.2-24 2.5 2.2 4.8 4.7 6.8 7.4C89.1 30.8 84 38.6 77.6 45 66.9 55.7 52.5 62.6 36.4 63.7l-.2 35.8c-3.1-1-6-2.4-8.8-4l.1-31.8c-9-.6-17.4-3.1-25-7-.1-1.5-.2-3-.2-4.6 0-1.9.1-3.7.3-5.5 7.3 4.6 15.8 7.5 25 8.2v-8.3C19 45.7 11 42.6 4.4 37.8c.9-3 2-5.8 3.4-8.5 5.6 4.5 12.4 7.5 19.9 8.3v-9.1c-5.7-.8-10.9-3.3-15-6.9 1.8-2.3 3.8-4.5 6-6.5 2.6 2.2 5.7 3.7 9.1 4.4v-11c2.8-1.6 5.7-2.9 8.8-3.9l-.1 14.9c3.9-.9 7.3-2.8 10-5.5 3.2-3.1 5.4-7.2 6-11.8"/><path class="st0" d="M34 68.9c0 .3 0 .5-.1.7s-.2.4-.4.5-.3.2-.5.3c-.2.1-.4.1-.6.2H31v-3h1.5c.2 0 .4 0 .6.1.2 0 .3.1.5.2.1.1.3.2.3.4 0 .1.1.3.1.6m1.4-.1c0-.4-.1-.8-.2-1.1-.1-.3-.3-.5-.5-.7s-.5-.3-.8-.4-.6-.1-.9-.1h-3.5v7.6h1.4v-2.5h.9c.4 0 .7 0 1-.1s.7-.2 1-.3c.3-.1.6-.3.8-.5s.4-.5.6-.8c.1-.4.2-.7.2-1.1"/><path class="st1" d="M40.2 71.7h-2.1c0-.2 0-.5.1-.6.1-.2.2-.3.4-.4s.4-.1.6-.1c.3 0 .5.1.6.2s.3.2.3.4c.1 0 .1.2.1.5zm1 .1c0-.4-.1-.8-.2-1.1-.1-.3-.4-.5-.7-.7s-.7-.2-1.1-.2c-.3 0-.6.1-.9.2-.3.1-.5.3-.7.4-.2.2-.3.4-.4.7-.1.3-.1.6-.1.9 0 .4.1.8.2 1.1.1.3.3.5.5.7s.5.3.8.4.7.1 1 .1h1c.2 0 .3-.1.5-.1v-.6c-.2 0-.4 0-.6.1h-1.1c-.2 0-.3-.1-.5-.1s-.3-.1-.4-.2l-.3-.3c-.1-.1-.1-.3-.1-.5h3v-.3c.1-.3.1-.4.1-.5M45.4 70.6v-.7h-3.3v4.3h1v-3.6zM50.1 74.2v-4.3h-1l-2 3v-3H46v4.3h1l2.1-3.1v3.1zM54.5 72c0 .2 0 .4-.1.6 0 .2-.1.3-.2.5-.1.1-.2.3-.4.3-.2.1-.3.1-.6.1-.2 0-.4 0-.6-.1-.2-.1-.3-.2-.4-.3-.1-.1-.2-.3-.2-.5V72c0-.2 0-.4.1-.6s.1-.3.2-.5c.1-.1.2-.3.4-.3.2-.1.3-.1.6-.1.2 0 .4 0 .6.1.2.1.3.2.4.3.1.1.2.3.2.5v.6m1 0c0-.5-.1-.9-.3-1.2-.2-.3-.4-.6-.8-.7-.3-.2-.7-.3-1.2-.3-.3 0-.6.1-.9.2-.3.1-.5.3-.7.5s-.4.4-.5.7c0 .2-.1.5-.1.8 0 .5.1.9.3 1.2.2.3.4.6.8.8.3.2.7.3 1.2.3.3 0 .6-.1.9-.2.3-.1.5-.3.7-.5s.4-.4.5-.7c.1-.3.1-.6.1-.9M60.5 74.2v-4.3h-1v1.7h-2v-1.7h-1v4.3h1v-1.8h2v1.8zM64.4 72.5c0 .1 0 .1 0 0 0 .1-.1.1-.1.2v.1c-.1.2-.2.3-.3.4-.1.1-.3.2-.4.3-.2.1-.3.1-.5.1-.1 0-.2 0-.3-.1-.1 0-.2-.1-.2-.2-.1-.1-.1-.2-.1-.3 0-.1 0-.3.1-.4s.1-.2.2-.2c.1-.1.2-.1.3-.1s.2 0 .4-.1h1.1v.3h-.2zm1.1 1.7c0-.3 0-.6-.1-1v-1-.7-.6c0-.2-.1-.3-.1-.5l-.3-.3c-.1-.1-.3-.2-.5-.2s-.5-.1-.8-.1h-.8c-.1 0-.3 0-.4.1-.1 0-.3.1-.4.1v.6c.2 0 .4-.1.7-.1H64c.1 0 .2.1.3.1.1.1.1.2.2.3 0 .1.1.3.1.5h-1.4c-.2 0-.4.1-.6.1-.2.1-.4.2-.5.3-.2.1-.3.3-.4.4-.1.2-.1.4-.1.6s0 .4.1.5.2.3.3.4.3.2.4.2c.2 0 .3.1.5.1.3 0 .7-.1 1-.2.3-.1.5-.4.7-.6v.4c0 .1 0 .3.1.4h.8v.2zM70.5 74.2v-4.3h-3.2c0 .5-.1 1-.1 1.4s-.1.7-.2 1-.1.5-.2.6c-.1.2-.1.3-.2.4s-.2.1-.2.2h-.6v.7h.2c.2 0 .5 0 .7-.1s.4-.2.5-.3c.1-.2.3-.4.4-.6.1-.3.2-.6.3-1 .1-.4.1-.9.2-1.5h1.4v3.6l1-.1zM74.3 72.8c0 .1 0 .3-.1.4s-.1.2-.2.2-.2.1-.4.1h-.9v-1.3h1c.2 0 .3.1.4.2.1.1.2.2.2.4m1 0c0-.3-.1-.5-.2-.6-.1-.2-.3-.3-.5-.4s-.4-.1-.7-.2h-1.3v-1.7h-1v4.3h2.1c.2 0 .4-.1.6-.1.2-.1.3-.1.5-.2.1-.1.3-.2.4-.4.1-.3.1-.5.1-.7M80.2 74.2v-4.3h-1v1.7h-2v-1.7h-1v4.3h1v-1.8h2v1.8zM83.9 72.8c0 .1 0 .3-.1.4s-.1.2-.2.2-.2.1-.4.1h-.7v-1.3H83.4c.2 0 .3.1.4.2 0 .1.1.2.1.4m1 0c0-.3-.1-.5-.2-.6-.1-.2-.3-.3-.5-.4s-.4-.1-.7-.2h-1.1v-1.7h-1v4.3h2c.2 0 .4-.1.6-.1.2-.1.3-.1.5-.2.1-.1.3-.2.4-.4v-.7m1.5-2.9h-1v4.3h1v-4.3zM91.2 68h-.7c0 .2 0 .4-.1.5s-.1.2-.3.3c-.1.1-.3.1-.5.1h-.3c-.1 0-.2-.1-.2-.1-.1-.2-.1-.2-.1-.4V68h-.8c0 .2 0 .4.1.5 0 .2.1.3.2.4s.3.2.5.3c.2.1.4.1.7.1.3 0 .6 0 .8-.1.2-.1.4-.2.5-.3.1-.1.2-.3.2-.4-.1-.2 0-.3 0-.5m.5 6.2v-4.3h-1l-2.1 3v-3h-1v4.3h1l2.1-3v3h1z"/><path class="st0" d="M34.3 84.1v-1h-3.4v-2.3h2.5v-1.1h-2.5v-2.1h3.4v-1.1h-4.8v7.6z"/><path class="st1" d="M40.3 82.8c0 .1 0 .3-.1.3l-.2.2c-.1 0-.2.1-.4.1H38.3v-1.2h1.2c.2 0 .3 0 .4.1.1 0 .2.1.3.2s.1.2.1.3m-.1-1.8c0 .2-.1.4-.2.5-.1.1-.3.1-.6.1h-1v-1.1h1.3c.1 0 .2 0 .2.1.1 0 .1.1.2.2 0 0 .1.1.1.2m1.1 1.8c0-.2 0-.3-.1-.4 0-.1-.1-.2-.2-.3 0-.1-.1-.1-.2-.2-.1 0-.2-.1-.3-.1H40.2h.1c.1 0 .1 0 .2-.1.1 0 .2-.1.2-.2.1-.1.2-.2.2-.3.1-.1.1-.2.1-.4s0-.4-.1-.5-.1-.2-.3-.3c-.1-.1-.2-.1-.3-.2-.1 0-.2 0-.4-.1H37.2V84h2.3c.2 0 .3 0 .5-.1.2 0 .3-.1.5-.1.1-.1.3-.1.4-.2.1-.1.2-.2.3-.4.1 0 .1-.2.1-.4M45.3 81.7c0 .2 0 .4-.1.6s-.1.4-.2.5c-.1.2-.3.3-.4.4-.2.1-.4.1-.6.1h-.3c-.1 0-.2 0-.3-.1v-1.8c0-.2.1-.4.2-.5.1-.1.3-.3.4-.3.2-.1.3-.1.5-.1s.3 0 .4.1l.3.3c.1.1.1.2.2.4-.1.1-.1.3-.1.4m1 0c0-.3 0-.5-.1-.7l-.3-.6c-.1-.2-.3-.3-.5-.4s-.5-.1-.7-.1-.4 0-.5.1c-.2.1-.3.2-.5.3-.2.1-.3.3-.4.4v-.8h-1V86h1v-1.9c.1 0 .3 0 .4.1h.4c.3 0 .5 0 .8-.1.2-.1.4-.2.6-.4.2-.2.3-.3.4-.5.1-.2.2-.4.3-.7.1-.3.1-.6.1-.8M50.1 81.7H48c0-.2 0-.5.1-.6.1-.2.2-.3.4-.4s.4-.1.6-.1c.3 0 .5.1.6.2.2.1.3.2.3.4.1 0 .1.2.1.5zm1 .1c0-.4-.1-.8-.2-1.1-.1-.3-.4-.5-.7-.7s-.7-.2-1.1-.2c-.3 0-.6.1-.9.2-.3.1-.5.3-.7.4-.2.2-.3.4-.4.7-.1.2-.1.5-.1.9s.1.8.2 1.1c.1.3.3.5.5.7s.5.3.8.4.7.1 1 .1h1c.2 0 .3-.1.5-.1v-.6c-.2 0-.4 0-.6.1h-1.1c-.2 0-.3-.1-.5-.1s-.3-.1-.4-.2l-.3-.3c-.1-.4-.1-.6-.1-.8h3V82c.1 0 .1-.1.1-.2M55.5 78h-.7c0 .2 0 .4-.1.5s-.1.2-.3.3c-.1.1-.3.1-.5.1h-.3c-.1 0-.2-.1-.2-.1-.1-.1-.1-.2-.1-.3v-.4h-.8c0 .2 0 .4.1.5 0 .2.1.3.2.4.1.1.3.2.5.3.2.1.4.1.7.1s.6 0 .8-.1.4-.2.5-.3c.1-.1.2-.3.2-.4V78m.5 6.1v-4.3h-1l-2.1 3v-3h-1v4.3h1l2.1-3v3h1zM60.4 83.4h-.8c-.2 0-.5 0-.7-.1s-.4-.1-.5-.2c-.2-.1-.3-.3-.4-.4V82c0-.3.1-.6.2-.8.1-.2.3-.4.5-.4.2-.1.5-.1.8-.1h.8V80c-.2-.1-.3-.1-.5-.1h-.5c-.5 0-.9.1-1.3.2-.3.2-.6.4-.8.7-.1.3-.2.7-.2 1.2 0 .4.1.8.2 1 .1.3.3.5.5.7s.5.3.8.4.6.1 1 .1h.5c.2 0 .3-.1.5-.1l-.1-.7zM65.2 84.1l-.3-.8c-.1-.3-.3-.6-.4-.8-.1-.2-.2-.4-.4-.5-.1-.1-.3-.2-.4-.2.1 0 .2-.1.3-.1.1-.1.2-.1.3-.3.1-.1.2-.3.2-.5 0-.1.1-.2.1-.3 0-.1.1-.1.1-.2h.4v-.7h-.4c-.2 0-.3 0-.4.1-.1 0-.2.1-.2.2-.1.1-.1.3-.2.4-.1.2-.2.4-.2.6-.1.2-.2.3-.2.3-.1.1-.2.1-.2.2H62.4v-1.8h-1V84h1v-1.9h.6c.1 0 .3 0 .4.1.1.1.2.1.3.2s.2.2.2.4c.1.1.1.3.2.5l.3.7h.8v.1zM70.1 84.1v-4.3h-1l-2 3.1v-3.1h-1v4.3h.9l2.1-3v3zM74.9 78h-.7c0 .2 0 .4-.1.5s-.1.2-.3.3c-.1.1-.3.1-.5.1H73c-.1 0-.2-.1-.2-.1-.1-.1-.1-.2-.1-.3v-.4h-.8c0 .2 0 .4.1.5 0 .2.1.3.2.4s.3.2.5.3c.2.1.4.1.7.1.3 0 .6 0 .8-.1.2-.1.4-.2.5-.3.1-.1.2-.3.2-.4-.1-.3 0-.5 0-.6m.4 6.1v-4.3h-1l-2.1 3v-3h-1v4.3h1l2.1-3v3h1z"/><path class="st0" d="M33.2 90.1c.2 0 .4-.1.5-.3.2-.1.3-.3.5-.6.1-.3.3-.6.4-.9.1-.2.1-.3.2-.4.1-.1.1-.2.2-.2s.1-.1.2-.1H35.8v-1s-.1 0-.2-.1H35c-.2 0-.4 0-.6.1-.1.1-.3.2-.4.3-.1.1-.2.3-.3.6-.1.4-.3.8-.4 1.1-.1.3-.3.5-.4.7-.1.2-.3.3-.4.4-.1.1-.2.1-.3.2h-1.3v-3.3h-1.4v7.6h1.4v-3.3h.9c.2 0 .5 0 .6.1.2.1.3.2.5.4.1.2.3.4.4.7.1.3.3.6.4 1l.5 1.1h1.6l-.4-1.2c-.2-.5-.4-.9-.6-1.2-.2-.3-.4-.6-.5-.9-.2-.2-.3-.4-.5-.6-.2-.1-.4-.2-.6-.2"/><path class="st1" d="M40.6 92c0 .2 0 .4-.1.6s-.1.3-.2.5c-.1.1-.2.3-.4.3-.2.1-.3.1-.6.1-.2 0-.4 0-.6-.1-.2-.1-.3-.2-.4-.3-.1-.1-.2-.3-.2-.5-.1-.2-.1-.4-.1-.6s0-.4.1-.6.1-.3.2-.5c.1-.1.2-.3.4-.3.2-.1.3-.1.6-.1.2 0 .4 0 .6.1.2.1.3.2.4.3.1.1.2.3.2.5.1.2.1.4.1.6m1-.1c0-.5-.1-.9-.3-1.2-.2-.3-.4-.6-.8-.7-.3-.2-.7-.3-1.2-.3-.3 0-.6.1-.9.2-.3.1-.5.3-.7.5s-.4.4-.5.7c-.1.3-.2.6-.2.9 0 .5.1.9.3 1.2.2.3.4.6.8.8.3.2.7.3 1.2.3.3 0 .6-.1.9-.2.3-.1.5-.3.7-.5s.4-.4.5-.7c.1-.3.2-.6.2-1M46.6 94.1v-4.3h-1v1.8h-2.1v-1.8h-1v4.3h1v-1.8h2.1v1.8zM51 90.6v-.8h-3.2v4.3h1v-3.5zM54.8 91.7c0 .2 0 .4-.1.6s-.1.4-.2.5c-.1.2-.3.3-.4.4-.2.1-.4.1-.6.1h-.3c-.1 0-.2 0-.3-.1v-1.8c0-.2.1-.3.2-.5.1-.1.3-.3.4-.3.2-.1.3-.1.5-.1s.3 0 .4.1l.3.3c.1.1.1.2.2.4-.2.1-.1.2-.1.4m.9-.1c0-.3 0-.5-.1-.7l-.3-.6c-.1-.2-.3-.3-.5-.4s-.5-.1-.7-.1-.4 0-.5.1c-.2.1-.3.2-.5.3-.2.1-.3.3-.4.4v-.8h-1v6.1h1V94c.1 0 .3 0 .4.1h.4c.3 0 .5 0 .8-.1.2-.1.4-.2.6-.4.2-.2.3-.3.4-.5.1-.2.2-.4.3-.7.1-.2.1-.5.1-.8M59.5 91.6h-2.1c0-.2 0-.5.1-.6.1-.2.2-.3.4-.4s.4-.1.6-.1c.3 0 .5.1.6.2s.3.2.3.4c.1.1.1.3.1.5zm1 .2c0-.4-.1-.8-.2-1.1-.1-.3-.4-.5-.7-.7s-.7-.2-1.1-.2c-.3 0-.6.1-.9.2-.3.1-.5.3-.7.4-.2.2-.3.4-.4.7-.1.3-.1.6-.1.9 0 .4.1.8.2 1.1.1.3.3.5.5.7s.5.3.8.4.7.1 1 .1h1c.2 0 .3-.1.5-.1v-.7c-.2 0-.4 0-.6.1h-1.1c-.2 0-.3-.1-.5-.1s-.3-.1-.4-.2l-.3-.3c-.1-.1-.1-.3-.1-.5h3v-.3c.1-.3.1-.3.1-.4M64.6 93.4h-.8c-.2 0-.5 0-.7-.1s-.4-.1-.5-.2c-.2-.1-.3-.3-.4-.4-.1-.2-.1-.4-.1-.7 0-.3.1-.6.2-.8.1-.2.3-.4.5-.4.2-.1.5-.1.8-.1h.8V90c-.2-.1-.3-.1-.5-.1h-.5c-.5 0-.9.1-1.3.2-.3.2-.6.4-.8.7-.2.3-.3.7-.3 1.2 0 .4.1.8.2 1 .1.3.3.5.5.7s.5.3.8.4.6.1 1 .1h.5c.2 0 .3-.1.5-.1l.1-.7zM68.6 93.4h-.8c-.2 0-.5 0-.7-.1s-.4-.1-.5-.2c-.2-.1-.3-.3-.4-.4-.1-.2-.1-.4-.1-.7 0-.3.1-.6.2-.8.1-.2.3-.4.5-.4.2-.1.5-.1.8-.1h.8V90c-.2-.1-.3-.1-.5-.1h-.5c-.5 0-.9.1-1.3.2-.3.2-.6.4-.8.7-.2.3-.3.7-.3 1.2 0 .4.1.8.2 1 .1.3.3.5.5.7s.5.3.8.4.6.1 1 .1h.5c.2 0 .3-.1.5-.1v-.7h.1z"/></svg>