<?xml version="1.0" encoding="utf-8"?>
<!-- Generator: Adobe Illustrator 22.0.1, SVG Export Plug-In . SVG Version: 6.00 Build 0)  -->
<svg version="1.1" xmlns="http://www.w3.org/2000/svg" xmlns:xlink="http://www.w3.org/1999/xlink" x="0px" y="0px"
	 viewBox="0 0 515 515" style="enable-background:new 0 0 515 515;" xml:space="preserve">
<style type="text/css">
	.st0{fill:#FFE073;}
	.st1{fill:#FFC600;}
	.st2{fill:#FFFFFF;}
	.st3{fill:none;stroke:#FFFFFF;stroke-width:22;stroke-linecap:round;stroke-miterlimit:10;}
</style>
<g id="Слой_2">
</g>
<g id="Layer_1">
	<polygon class="st0" points="201.3,505.4 160.5,485.4 100.5,452.4 18.5,336.4 18.5,214.4 43.5,131.4 115.5,56.4 206.5,19.4 	"/>
	<polyline class="st1" points="375.5,38.4 454.5,105.4 513.4,234.2 480.5,366.3 403.5,460.4 326.5,505.4 198.5,499.4 198.5,16.3 
		367.5,28.9 	"/>
	<g>
		<g>
			<path class="st2" d="M439.5,77.4c-48.4-48.4-112.6-75-181-75s-132.7,26.6-181,75c-48.4,48.4-75,112.6-75,181s26.6,132.7,75,181
				c48.4,48.4,112.6,75,181,75s132.7-26.6,181-75c48.4-48.4,75-112.6,75-181S487.9,125.8,439.5,77.4z M258.5,494
				C128.6,494,22.9,388.3,22.9,258.4S128.6,22.8,258.5,22.8s235.6,105.7,235.6,235.6S388.4,494,258.5,494z"/>
		</g>
	</g>
	<g>
		<g>
			<path class="st2" d="M412.6,397.1c-4-4-10.5-4-14.4,0c-37.2,37.5-86.8,58.1-139.6,58.1c-5.6,0-10.2,4.6-10.2,10.2
				s4.6,10.2,10.2,10.2c58.3,0,113-22.8,154.1-64.1C416.6,407.6,416.6,401.1,412.6,397.1z"/>
		</g>
	</g>
	<g>
		<g>
			<path class="st2" d="M442.7,353.7c-4.9-2.8-11.1-1.2-13.9,3.7c-1.4,2.4-2.9,4.9-4.4,7.2c-3,4.7-1.7,11.1,3.1,14.1
				c1.7,1.1,3.6,1.6,5.5,1.6c3.4,0,6.6-1.7,8.6-4.7c1.7-2.6,3.3-5.3,4.9-8C449.2,362.7,447.5,356.5,442.7,353.7z"/>
		</g>
	</g>
	<line class="st3" x1="198.5" y1="467.4" x2="198.5" y2="204.4"/>
	<line class="st3" x1="201.3" y1="202.5" x2="463.3" y2="91.3"/>
	<line class="st3" x1="198.9" y1="200.6" x2="308.9" y2="120.7"/>
	<line class="st3" x1="347.6" y1="88.6" x2="368.3" y2="73.5"/>
	<line class="st3" x1="196.7" y1="200.4" x2="71.3" y2="102.4"/>
</g>
</svg>
