<?xml version="1.0" encoding="utf-8"?>
<!-- Generator: Adobe Illustrator 22.0.1, SVG Export Plug-In . SVG Version: 6.00 Build 0)  -->
<svg version="1.1" id="Слой_1" xmlns="http://www.w3.org/2000/svg" xmlns:xlink="http://www.w3.org/1999/xlink" x="0px" y="0px"
	 viewBox="0 0 189.2 200.4" style="enable-background:new 0 0 189.2 200.4;" xml:space="preserve">
<style type="text/css">
	.st0{display:none;}
	.st1{display:inline;enable-background:new    ;}
	.st2{display:inline;fill:none;}
	.st3{enable-background:new    ;}
	.st4{fill:#BCB3AD;}
	.st5{fill:#966EB4;}
	.st6{fill:#333333;}
	.st7{fill:#CFBA82;}
	.st8{fill:none;stroke:#FFFFFF;stroke-width:5;stroke-miterlimit:10;}
	.st9{display:inline;opacity:0.5;}
</style>
<g id="Слой_1_2_">
	<g id="Слой_1_1_" class="st0">
		<g class="st1">
		</g>
		<rect x="33.7" y="191.9" class="st2" width="155.3" height="10.7"/>
	</g>
	<g id="Слой_8">
		<g class="st3">
			<path class="st4" d="M36.4,199.4v-5.7h1.3c0.9,0,1.6,0.1,2,0.2c0.6,0.2,1.1,0.5,1.4,1c0.3,0.5,0.5,1.1,0.5,1.7
				c0,0.6-0.1,1.1-0.4,1.5c-0.3,0.4-0.6,0.8-1,1s-1,0.3-1.8,0.3H36.4z M37,198.9h0.7c0.9,0,1.5,0,1.8-0.1c0.5-0.1,0.8-0.4,1.1-0.8
				c0.3-0.4,0.4-0.8,0.4-1.3c0-0.6-0.1-1-0.4-1.4c-0.3-0.4-0.7-0.7-1.2-0.8c-0.4-0.1-1-0.2-1.9-0.2H37V198.9z"/>
			<path class="st4" d="M42.8,193.7h0.6v3.5c0,0.4,0,0.7,0,0.8c0,0.2,0.1,0.4,0.2,0.6s0.3,0.3,0.5,0.4c0.2,0.1,0.5,0.2,0.7,0.2
				s0.4,0,0.6-0.1c0.2-0.1,0.3-0.2,0.5-0.3c0.1-0.1,0.2-0.3,0.3-0.5c0-0.1,0.1-0.4,0.1-0.9v-3.5h0.6v3.5c0,0.5-0.1,0.9-0.2,1.2
				s-0.3,0.6-0.7,0.8c-0.3,0.2-0.7,0.4-1.2,0.4s-0.9-0.1-1.3-0.3c-0.4-0.2-0.6-0.5-0.7-0.9c-0.1-0.2-0.1-0.6-0.1-1.2v-3.7H42.8z"/>
			<path class="st4" d="M47.9,194.2v-0.6h3.4v0.6h-1.4v5.2h-0.6v-5.2H47.9z"/>
			<path class="st4" d="M57.9,194.7l-0.5,0.3c-0.3-0.3-0.6-0.6-1-0.7c-0.4-0.2-0.8-0.3-1.2-0.3c-0.5,0-1,0.1-1.4,0.3s-0.8,0.5-1,0.9
				s-0.3,0.8-0.3,1.3c0,0.7,0.3,1.3,0.8,1.8s1.2,0.7,2,0.7c0.9,0,1.6-0.3,2.2-0.9l0.5,0.3c-0.3,0.4-0.7,0.6-1.2,0.8s-1,0.3-1.6,0.3
				c-1.1,0-1.9-0.3-2.6-1c-0.5-0.6-0.8-1.2-0.8-2s0.3-1.5,1-2.1c0.6-0.6,1.4-0.9,2.4-0.9c0.6,0,1.1,0.1,1.6,0.3
				C57.3,194.1,57.6,194.4,57.9,194.7z"/>
			<path class="st4" d="M59.2,193.7h0.6v2.4H63v-2.4h0.6v5.7H63v-2.8h-3.2v2.8h-0.6V193.7z"/>
			<path class="st4" d="M69.5,193.7h0.6v3.9c0,0.6-0.1,1-0.2,1.2s-0.3,0.4-0.5,0.6c-0.2,0.1-0.5,0.2-0.8,0.2s-0.5,0-0.7-0.1
				s-0.5-0.2-0.8-0.5l0.3-0.5c0.3,0.2,0.6,0.4,0.8,0.4c0.1,0.1,0.3,0.1,0.4,0.1c0.2,0,0.3,0,0.5-0.1c0.1-0.1,0.2-0.2,0.3-0.4
				c0.1-0.2,0.1-0.5,0.1-1C69.5,197.5,69.5,193.7,69.5,193.7z"/>
			<path class="st4" d="M71.7,193.7h3.6v0.6h-2.9v1.8h2.9v0.6h-2.9v2.3h2.9v0.6h-3.5L71.7,193.7L71.7,193.7z"/>
			<path class="st4" d="M76,193.7h0.6l1.3,4.1l1.8-4.1h0.1l1.8,4.1l1.3-4.1h0.6l-1.8,5.7h-0.1l-1.8-4.3l-1.9,4.3h-0.1L76,193.7z"/>
			<path class="st4" d="M84.5,193.7h0.6v5.7h-0.6V193.7z"/>
			<path class="st4" d="M86,198.4l0.5-0.3c0.4,0.6,0.8,0.9,1.3,0.9c0.2,0,0.4,0,0.6-0.1s0.3-0.2,0.4-0.4s0.1-0.3,0.1-0.5
				s-0.1-0.4-0.2-0.6c-0.2-0.3-0.5-0.6-1.1-0.9c-0.5-0.4-0.8-0.6-1-0.8c-0.2-0.3-0.3-0.6-0.3-0.9c0-0.3,0.1-0.5,0.2-0.7
				s0.3-0.4,0.5-0.5s0.5-0.2,0.8-0.2s0.6,0.1,0.8,0.2c0.3,0.1,0.5,0.4,0.8,0.7l-0.5,0.4c-0.2-0.3-0.4-0.5-0.6-0.6S88,194,87.8,194
				c-0.3,0-0.5,0.1-0.6,0.2c-0.2,0.1-0.2,0.3-0.2,0.5c0,0.1,0,0.2,0.1,0.4c0.1,0.1,0.2,0.2,0.3,0.4c0.1,0.1,0.3,0.3,0.8,0.6
				c0.5,0.4,0.9,0.7,1.1,1s0.3,0.6,0.3,0.9c0,0.4-0.2,0.8-0.5,1.1s-0.8,0.5-1.2,0.5c-0.4,0-0.7-0.1-1-0.3
				C86.5,199.1,86.2,198.8,86,198.4z"/>
			<path class="st4" d="M90.9,193.7h0.6v2.4h3.2v-2.4h0.6v5.7h-0.6v-2.8h-3.2v2.8h-0.6V193.7z"/>
			<path class="st4" d="M99.2,193.7h0.6v2.4h3.2v-2.4h0.6v5.7H103v-2.8h-3.2v2.8h-0.6C99.2,199.4,99.2,193.7,99.2,193.7z"/>
			<path class="st4" d="M105.2,193.7h0.6v3.5c0,0.4,0,0.7,0,0.8c0,0.2,0.1,0.4,0.2,0.6s0.3,0.3,0.5,0.4c0.2,0.1,0.5,0.2,0.7,0.2
				s0.4,0,0.6-0.1s0.3-0.2,0.5-0.3c0.1-0.1,0.2-0.3,0.3-0.5c0-0.1,0.1-0.4,0.1-0.9v-3.5h0.6v3.5c0,0.5-0.1,0.9-0.2,1.2
				s-0.3,0.6-0.7,0.8c-0.3,0.2-0.7,0.4-1.2,0.4s-0.9-0.1-1.3-0.3s-0.6-0.5-0.7-0.9c-0.1-0.2-0.1-0.6-0.1-1.2L105.2,193.7
				L105.2,193.7z"/>
			<path class="st4" d="M110.5,199.4l0.9-5.7h0.1l2.5,4.7l2.5-4.7h0.1l0.9,5.7h-0.6l-0.6-4.1l-2.2,4.1H114l-2.2-4.1l-0.6,4.1H110.5z
				"/>
			<path class="st4" d="M121.3,193.7l2.9,5.7h-0.7l-1-1.9h-2.7l-1,1.9h-0.7l2.9-5.7H121.3z M121.2,194.9l-1.1,2.1h2.1L121.2,194.9z"
				/>
			<path class="st4" d="M125.2,199.4v-5.7h0.1l4.1,4.4v-4.4h0.6v5.7h-0.1l-4.1-4.4v4.4H125.2z"/>
			<path class="st4" d="M131.5,193.7h0.6v5.7h-0.6V193.7z"/>
			<path class="st4" d="M132.9,194.2v-0.6h3.4v0.6h-1.4v5.2h-0.6v-5.2H132.9z"/>
			<path class="st4" d="M139.8,193.7l2.9,5.7H142l-1-1.9h-2.7l-1,1.9h-0.7l2.9-5.7H139.8z M139.7,194.9l-1.1,2.1h2.1L139.7,194.9z"
				/>
			<path class="st4" d="M143.7,193.7h1.2c0.7,0,1.2,0,1.4,0.1c0.4,0.1,0.7,0.2,0.9,0.5s0.3,0.6,0.3,0.9c0,0.3-0.1,0.6-0.2,0.8
				c-0.2,0.2-0.4,0.4-0.7,0.5s-0.7,0.2-1.2,0.2l2.2,2.7h-0.8l-2.2-2.7h-0.4v2.7h-0.6v-5.7H143.7z M144.3,194.2v2h1.1
				c0.4,0,0.7,0,0.9-0.1s0.4-0.2,0.5-0.3s0.2-0.3,0.2-0.5s-0.1-0.4-0.2-0.5c-0.1-0.2-0.3-0.3-0.4-0.3c-0.2-0.1-0.5-0.1-0.9-0.1h-1.2
				V194.2z"/>
			<path class="st4" d="M148.8,193.7h0.6v5.7h-0.6V193.7z"/>
			<path class="st4" d="M153.4,193.7l2.9,5.7h-0.7l-1-1.9h-2.7l-1,1.9h-0.7l2.9-5.7H153.4z M153.3,194.9l-1.1,2.1h2.1L153.3,194.9z"
				/>
			<path class="st4" d="M157.2,199.4v-5.7h0.1l4.1,4.4v-4.4h0.6v5.7h0l-4.1-4.4v4.4H157.2z"/>
			<path class="st4" d="M166,193.7h3.1v0.6h-2.5v1.8h2.5v0.6h-2.5v2.8H166V193.7z"/>
			<path class="st4" d="M170.3,193.7h0.6v3.5c0,0.4,0,0.7,0,0.8c0,0.2,0.1,0.4,0.2,0.6c0.1,0.2,0.3,0.3,0.5,0.4
				c0.2,0.1,0.5,0.2,0.7,0.2s0.4,0,0.6-0.1c0.2-0.1,0.3-0.2,0.5-0.3c0.1-0.1,0.2-0.3,0.3-0.5c0-0.1,0.1-0.4,0.1-0.9v-3.5h0.6v3.5
				c0,0.5-0.1,0.9-0.2,1.2c-0.1,0.3-0.3,0.6-0.7,0.8c-0.3,0.2-0.7,0.4-1.2,0.4s-0.9-0.1-1.3-0.3c-0.4-0.2-0.6-0.5-0.7-0.9
				c-0.1-0.2-0.1-0.6-0.1-1.2L170.3,193.7L170.3,193.7z"/>
			<path class="st4" d="M175.9,199.4v-5.7h0.1l4.1,4.4v-4.4h0.6v5.7h-0.1l-4.1-4.4v4.4H175.9z"/>
			<path class="st4" d="M182.3,199.4v-5.7h1.3c0.9,0,1.6,0.1,2,0.2c0.6,0.2,1.1,0.5,1.4,1c0.3,0.5,0.5,1.1,0.5,1.7
				c0,0.6-0.1,1.1-0.4,1.5s-0.6,0.8-1,1s-1,0.3-1.8,0.3H182.3z M182.9,198.9h0.7c0.9,0,1.5,0,1.8-0.1c0.5-0.1,0.8-0.4,1.1-0.8
				c0.3-0.4,0.4-0.8,0.4-1.3c0-0.6-0.1-1-0.4-1.4s-0.7-0.7-1.2-0.8c-0.4-0.1-1-0.2-1.9-0.2H183v4.6H182.9z"/>
		</g>
	</g>
	<g id="Слой_7">
		<g class="st3">
			<path class="st5" d="M36.5,187.1L36.5,187.1h1.3c0.1,0,0.1,0,0.1-0.1s0-0.4-0.1-1s-0.2-1.1-0.3-1.7s-0.2-1.1-0.3-1.4
				c0-0.1,0-0.1-0.1-0.1H37h-0.7c-0.1,0-0.1,0-0.1,0l-0.1-0.1v-0.1c0.1-0.1,0.2-0.4,0.4-0.7s0.4-0.6,0.5-0.7l0.1-0.1
				c0.1,0,0.1,0.1,0.2,0.2c0,0,0,0.1,0.1,0.2c0,0.1,0.1,0.2,0.1,0.2l0.1,0.1h3c0.6,0,1,0.2,1.3,0.7c0.1,0.2,0.2,0.8,0.2,1.6
				s0.1,1.7,0.1,2.5c0,0.4,0,0.7,0,0.8s0,0.2,0,0.3c-0.1,0.3-0.2,0.6-0.4,0.9c0,0,0,0-0.1,0.1c0,0,0,0-0.1,0h-0.1v-0.1
				c0-0.1,0-0.5,0-1.1c0-1-0.1-1.8-0.1-2.4c0-0.7-0.1-1.1-0.1-1.4c-0.1-0.3-0.1-0.5-0.3-0.6s-0.3-0.2-0.4-0.2h-2.3
				c-0.1,0-0.1,0-0.1,0s0,0,0,0.1l0,0v0.1c0.1,0.4,0.2,0.9,0.2,1.5s0.2,1.1,0.2,1.4c0,0.1,0,0.2,0,0.3s0,0.2,0,0.2
				c0,0.2-0.1,0.5-0.2,0.8c-0.1,0.3-0.2,0.6-0.2,0.8c0,0.1-0.1,0.2-0.3,0.2H36h-0.1c0,0,0,0,0-0.1v-0.1
				C36.1,187.7,36.3,187.4,36.5,187.1L36.5,187.1z"/>
			<path class="st5" d="M45.5,183.8c0-0.1-0.1-0.2-0.2-0.3c-0.1-0.2-0.4-0.4-0.8-0.6c-0.4-0.3-0.7-0.5-1-0.6l-0.1-0.1v-0.1
				c0-0.1,0.1-0.3,0.3-0.5s0.3-0.4,0.3-0.5h0.1l0,0c0.4,0.2,0.8,0.5,1.2,0.8s0.7,0.6,0.9,0.8c0.1,0.1,0.2,0.3,0.2,0.4
				c0,0.1,0.1,0.3,0.1,0.4c0,0.2-0.1,0.5-0.2,0.8s-0.4,0.7-0.6,1.2c-0.1,0.1-0.1,0.2-0.1,0.2l-0.1,0.1c-0.1,0.1-0.2,0.2-0.4,0.4
				c-0.2,0.1-0.3,0.2-0.4,0.2c0,0-0.1,0-0.1-0.1v-0.1c0.2-0.4,0.4-0.8,0.6-1.2c0.2-0.4,0.2-0.7,0.2-0.9
				C45.5,183.9,45.5,183.9,45.5,183.8z"/>
			<path class="st5" d="M50.7,182.8c0-0.1-0.1-0.1-0.1-0.1H48c-0.1,0-0.1,0-0.2-0.1l-0.1-0.1c0-0.1,0.1-0.3,0.3-0.7s0.4-0.7,0.5-0.8
				l0.1-0.1c0.1,0,0.1,0.1,0.1,0.2c0,0.2,0.1,0.3,0.1,0.3c0,0.1,0.1,0.1,0.2,0.1h1.6c0,0,0.1,0,0.1-0.1c0.1-0.1,0.2-0.2,0.4-0.4
				s0.3-0.2,0.4-0.2c0.1,0,0.1,0,0.1,0.1s0,0.1,0,0.2s0,0.1,0.1,0.2c0,0.1,0.1,0.1,0.2,0.1h0.5h0.1l0.1,0.1v0.1
				c-0.2,0.4-0.3,0.6-0.4,0.8c0,0,0,0.1-0.1,0.1H52c-0.1,0-0.2,0-0.3,0.1s-0.1,0.2-0.1,0.3s0,0.3,0,0.7c0,0.6,0,1.4,0.1,2.5
				c0,0.5,0,0.8,0,0.9c0,0.2,0,0.3-0.1,0.4c-0.1,0.2-0.1,0.3-0.2,0.4c-0.1,0.1-0.1,0.3-0.2,0.4c0,0,0,0-0.1,0.1s0,0-0.1,0
				c0,0,0,0-0.1,0s0-0.1,0-0.1C50.8,186.8,50.7,185,50.7,182.8C50.8,182.9,50.7,182.9,50.7,182.8z"/>
			<path class="st5" d="M53.9,187.6c0.1-0.2,0.2-0.3,0.2-0.4c0,0,0-0.1,0.1-0.1c0,0,0,0,0.1,0h1.5c0.1,0,0.1,0,0.1-0.1s0-0.1,0-0.3
				c0-0.3,0-0.6,0-0.8c0-0.4,0-0.9-0.1-1.4c0-0.3-0.1-0.6-0.2-0.8s-0.2-0.4-0.4-0.6c-0.2-0.2-0.7-0.5-1.4-1c0,0,0,0-0.1-0.1v-0.1
				v-0.1c0.1-0.1,0.1-0.2,0.3-0.4c0.1-0.2,0.2-0.3,0.3-0.4l0.1-0.1c0.1,0,0.1,0,0.2,0.1c0.1,0.1,0.3,0.2,0.5,0.4s0.4,0.3,0.6,0.4
				c0.2,0.2,0.3,0.3,0.4,0.4c0.1,0.1,0.2,0.2,0.3,0.4c0.1,0.1,0.1,0.3,0.1,0.5s0.1,0.5,0.1,0.7c0,0.4,0,1.1,0,2c0,0.3,0,0.5-0.1,0.7
				s-0.2,0.5-0.3,0.7s-0.2,0.5-0.4,0.7c0,0.1-0.1,0.1-0.1,0.1s-0.1,0-0.2,0h-2c-0.1,0-0.1,0-0.1-0.1c0,0,0,0,0-0.1
				C53.8,187.9,53.8,187.8,53.9,187.6z"/>
			<path class="st5" d="M59.1,187.3C59.2,187.3,59.2,187.2,59.1,187.3c0.1-0.1,0.1-0.1,0.2-0.1c1-0.3,1.6-0.7,2.1-1.1
				c0.2-0.3,0.4-0.6,0.5-1s0.2-0.8,0.2-1.3c0-0.2,0-0.3-0.1-0.5c0-0.2-0.1-0.3-0.1-0.3c0-0.1-0.1-0.1-0.1-0.2c-0.1,0-0.1,0-0.2,0
				h-2.8c-0.1,0-0.1,0-0.2-0.1c-0.1-0.1-0.1-0.1-0.2-0.2c-0.1-0.1-0.1-0.4-0.1-0.6c0-0.2,0-0.5-0.1-0.9c0-0.4-0.1-0.6-0.2-0.8v-0.1
				c0,0,0-0.1,0.1-0.2c0.1-0.1,0.1-0.3,0.3-0.4s0.2-0.3,0.3-0.3c0,0,0,0,0.1,0c0,0,0.1,0,0.1,0.1c0.1,0.1,0.1,0.3,0.2,0.6
				s0.1,0.5,0.1,0.7c0,0.4,0,0.6,0,0.8c0,0.1,0,0.2,0.1,0.3c0,0.1,0.1,0.1,0.1,0.1c0.1,0,0.1,0,0.2,0H62c0.3,0,0.6,0.1,0.7,0.4
				s0.2,0.6,0.2,1c0,0.2,0,0.4-0.1,0.7c0,0.2-0.1,0.4-0.1,0.5s-0.1,0.2-0.1,0.3c-0.1,0.3-0.2,0.6-0.4,1s-0.4,0.8-0.6,1.1
				s-0.4,0.6-0.6,0.8c-0.2,0.2-0.5,0.4-0.9,0.5s-0.8,0.3-1.2,0.4c-0.1,0-0.2,0-0.2,0h-0.1c0,0,0,0,0-0.1s0.1-0.2,0.2-0.4
				C59,187.6,59,187.5,59.1,187.3C59.1,187.4,59.1,187.3,59.1,187.3z"/>
			<path class="st5" d="M66.2,188.5C66.2,188.4,66.2,188.4,66.2,188.5c0-2.2-0.1-3.7-0.1-4.5c0-0.1,0-0.2-0.1-0.3
				c0-0.1-0.1-0.2-0.2-0.3c-0.2-0.2-0.4-0.4-0.7-0.6c-0.3-0.2-0.6-0.4-0.8-0.5l-0.1-0.1c0,0,0,0,0-0.1V182v-0.1
				c0.1-0.1,0.2-0.3,0.3-0.5c0.1-0.2,0.2-0.3,0.3-0.4l0,0c0,0,0,0,0.1,0c0,0,0,0,0.1,0s0.1,0,0.1,0c0.4,0.2,0.9,0.6,1.4,1.1
				c0.2,0.2,0.3,0.4,0.4,0.5c0.1,0.2,0.1,0.4,0.1,0.6c0,0.1,0,0.4,0,0.8c0,0.4,0,0.7,0,1c0,1.1,0,1.8,0,2.4v0.1v0.1
				c-0.1,0.1-0.2,0.3-0.3,0.5c-0.1,0.2-0.2,0.3-0.3,0.3C66.3,188.5,66.3,188.5,66.2,188.5C66.3,188.5,66.2,188.5,66.2,188.5z"/>
			<path class="st5" d="M72.7,182.7H69c-0.1,0-0.2,0-0.3-0.1c-0.1,0-0.1-0.1-0.1-0.2v-0.1c0.1-0.2,0.2-0.4,0.5-0.7s0.4-0.5,0.5-0.6
				c0.1,0,0.1-0.1,0.1-0.1c0.1,0,0.1,0,0.1,0.1v0.1c0,0,0,0.1,0,0.2c0,0,0,0.1,0.1,0.1l0.1,0.1c0.1,0,0.1,0,0.2,0H73
				c0.2,0,0.3,0,0.5,0.1c0.1,0,0.3,0.1,0.4,0.3c0.2,0.1,0.3,0.3,0.4,0.5s0.1,0.5,0.2,0.7c0.1,0.9,0.1,2.3,0.1,4.1c0,0.1,0,0.1,0,0.2
				v0.1c0,0.1-0.1,0.3-0.2,0.5s-0.2,0.4-0.3,0.4H74h-0.1v-0.1v-1.1c0-0.9,0-1.7-0.1-2.2s-0.1-1-0.1-1.4
				C73.5,183,73.2,182.7,72.7,182.7z M69.3,184.8c0.1-0.1,0.1-0.3,0.2-0.4s0.2-0.3,0.3-0.5c0,0,0,0,0.1,0s0.1,0.1,0.1,0.2
				c0,0.3,0.1,0.8,0.1,1.6s0,1.4,0,1.7c0,0.1,0,0.2-0.1,0.3c-0.1,0.3-0.3,0.6-0.4,0.8c0,0,0,0.1-0.1,0.1c0,0,0,0-0.1,0
				c0,0,0,0-0.1,0s0-0.1,0-0.1c-0.1-2-0.2-3.1-0.2-3.3C69.3,184.9,69.3,184.8,69.3,184.8z"/>
			<path class="st5" d="M79.1,187.1L79.1,187.1h1.3c0.1,0,0.1,0,0.1-0.1s0-0.4-0.1-1s-0.2-1.1-0.3-1.7s-0.2-1.1-0.3-1.4
				c0-0.1,0-0.1-0.1-0.1h-0.1h-0.7c-0.1,0-0.1,0-0.1,0l-0.1-0.1v-0.1c0.1-0.1,0.2-0.4,0.4-0.7s0.4-0.6,0.5-0.7l0.1-0.1
				c0.1,0,0.1,0.1,0.2,0.2c0,0,0,0.1,0.1,0.2c0,0.1,0.1,0.2,0.1,0.2l0.1,0.1h3c0.6,0,1,0.2,1.3,0.7c0.1,0.2,0.2,0.8,0.2,1.6
				s0.1,1.7,0.1,2.5c0,0.4,0,0.7,0,0.8s0,0.2,0,0.3c-0.1,0.3-0.2,0.6-0.4,0.9c0,0,0,0-0.1,0.1c0,0,0,0-0.1,0h-0.1v-0.1
				c0-0.1,0-0.5,0-1.1c0-1-0.1-1.8-0.1-2.4c0-0.7-0.1-1.1-0.1-1.4c-0.1-0.3-0.1-0.5-0.3-0.6s-0.3-0.2-0.4-0.2h-2.3
				c-0.1,0-0.1,0-0.1,0s0,0,0,0.1l0,0v0.1c0.1,0.4,0.2,0.9,0.2,1.5s0.2,1.1,0.2,1.4c0,0.1,0,0.2,0,0.3s0,0.2,0,0.2
				c0,0.2-0.1,0.5-0.2,0.8s-0.2,0.6-0.2,0.8c0,0.1-0.1,0.2-0.3,0.2h-1.8h-0.1c0,0,0,0,0-0.1v-0.1C78.7,187.7,78.9,187.4,79.1,187.1
				L79.1,187.1z"/>
			<path class="st5" d="M88,183.8c0-0.1-0.1-0.2-0.2-0.3c-0.1-0.2-0.4-0.4-0.8-0.6c-0.4-0.3-0.7-0.5-1-0.6l-0.1-0.1v-0.1
				c0-0.1,0.1-0.3,0.3-0.5s0.3-0.4,0.3-0.5h0.1l0,0c0.4,0.2,0.8,0.5,1.2,0.8c0.4,0.3,0.7,0.6,0.9,0.8c0.1,0.1,0.2,0.3,0.2,0.4
				c0,0.1,0.1,0.3,0.1,0.4c0,0.2-0.1,0.5-0.2,0.8s-0.4,0.7-0.6,1.2c-0.1,0.1-0.1,0.2-0.1,0.2l-0.1,0.1c-0.1,0.1-0.2,0.2-0.4,0.4
				c-0.2,0.1-0.3,0.2-0.4,0.2c0,0-0.1,0-0.1-0.1v-0.1c0.2-0.4,0.4-0.8,0.6-1.2s0.2-0.7,0.2-0.9C88.1,183.9,88.1,183.9,88,183.8z"/>
			<path class="st5" d="M93.3,182.8c0-0.1-0.1-0.1-0.1-0.1h-2.6c-0.1,0-0.1,0-0.2-0.1l-0.1-0.1c0-0.1,0.1-0.3,0.3-0.7
				s0.4-0.7,0.5-0.8l0.1-0.1c0.1,0,0.1,0.1,0.1,0.2c0,0.2,0.1,0.3,0.1,0.3c0,0.1,0.1,0.1,0.2,0.1h1.6c0,0,0.1,0,0.1-0.1
				c0.1-0.1,0.2-0.2,0.4-0.4s0.3-0.2,0.4-0.2s0.1,0,0.1,0.1s0,0.1,0,0.2s0,0.1,0.1,0.2c0,0.1,0.1,0.1,0.2,0.1H95h0.1l0.1,0.1v0.1
				c-0.2,0.4-0.3,0.6-0.4,0.8c0,0,0,0.1-0.1,0.1h-0.1c-0.1,0-0.2,0-0.3,0.1c-0.1,0.1-0.1,0.2-0.1,0.3s0,0.3,0,0.7
				c0,0.6,0,1.4,0.1,2.5c0,0.5,0,0.8,0,0.9c0,0.2,0,0.3-0.1,0.4c-0.1,0.2-0.1,0.3-0.2,0.4c-0.1,0.1-0.1,0.3-0.2,0.4c0,0,0,0-0.1,0.1
				s0,0-0.1,0c0,0,0,0-0.1,0s0-0.1,0-0.1C93.4,186.8,93.3,185,93.3,182.8C93.3,182.9,93.3,182.9,93.3,182.8z"/>
			<path class="st5" d="M98.5,188.5C98.5,188.4,98.5,188.4,98.5,188.5c0-2.2-0.1-3.7-0.1-4.5c0-0.1,0-0.2-0.1-0.3s-0.1-0.2-0.2-0.3
				c-0.2-0.2-0.4-0.4-0.7-0.6c-0.3-0.2-0.6-0.4-0.8-0.5l-0.1-0.1c0,0,0,0,0-0.1V182v-0.1c0.1-0.1,0.2-0.3,0.3-0.5
				c0.1-0.2,0.2-0.3,0.3-0.4l0,0c0,0,0,0,0.1,0c0,0,0,0,0.1,0s0.1,0,0.1,0c0.4,0.2,0.9,0.6,1.4,1.1c0.2,0.2,0.3,0.4,0.4,0.5
				c0.1,0.2,0.1,0.4,0.1,0.6c0,0.1,0,0.4,0,0.8c0,0.4,0,0.7,0,1c0,1.1,0,1.8,0,2.4v0.1v0.1c-0.1,0.1-0.2,0.3-0.3,0.5
				c-0.1,0.2-0.2,0.3-0.3,0.3C98.6,188.5,98.6,188.5,98.5,188.5L98.5,188.5z"/>
			<path class="st5" d="M105,182.7h-3.8c-0.1,0-0.2,0-0.3-0.1c-0.1,0-0.1-0.1-0.1-0.2v-0.1c0.1-0.2,0.2-0.4,0.5-0.7
				c0.2-0.3,0.4-0.5,0.5-0.6c0.1,0,0.1-0.1,0.1-0.1c0.1,0,0.1,0,0.1,0.1v0.1c0,0,0,0.1,0,0.2c0,0,0,0.1,0.1,0.1l0.1,0.1
				c0.1,0,0.1,0,0.2,0h2.8c0.2,0,0.3,0,0.5,0.1c0.1,0,0.3,0.1,0.4,0.3c0.2,0.1,0.3,0.3,0.4,0.5s0.1,0.5,0.2,0.7
				c0.1,0.9,0.1,2.3,0.1,4.1c0,0.1,0,0.1,0,0.2v0.1c0,0.1-0.1,0.3-0.2,0.5s-0.2,0.4-0.3,0.4h-0.1h-0.1v-0.1v-1.1
				c0-0.9,0-1.7-0.1-2.2s-0.1-1-0.1-1.4C105.8,183,105.5,182.7,105,182.7z M101.6,184.8c0.1-0.1,0.1-0.3,0.2-0.4
				c0.1-0.2,0.2-0.3,0.3-0.5c0,0,0,0,0.1,0s0.1,0.1,0.1,0.2c0,0.3,0.1,0.8,0.1,1.6s0,1.4,0,1.7c0,0.1,0,0.2-0.1,0.3
				c-0.1,0.3-0.3,0.6-0.4,0.8c0,0,0,0.1-0.1,0.1c0,0,0,0-0.1,0c0,0,0,0-0.1,0s0-0.1,0-0.1c-0.1-2-0.2-3.1-0.2-3.3
				C101.5,184.9,101.5,184.8,101.6,184.8z"/>
			<path class="st5" d="M110.3,183.8c0-0.1-0.1-0.2-0.2-0.3c-0.1-0.2-0.4-0.4-0.8-0.6c-0.4-0.3-0.7-0.5-1-0.6l-0.1-0.1v-0.1
				c0-0.1,0.1-0.3,0.3-0.5c0.2-0.3,0.3-0.4,0.3-0.5h0.1l0,0c0.4,0.2,0.8,0.5,1.2,0.8s0.7,0.6,0.9,0.8c0.1,0.1,0.2,0.3,0.2,0.4
				c0,0.1,0.1,0.3,0.1,0.4c0,0.2-0.1,0.5-0.2,0.8s-0.4,0.7-0.6,1.2c-0.1,0.1-0.1,0.2-0.1,0.2l-0.1,0.1c-0.1,0.1-0.2,0.2-0.4,0.4
				s-0.3,0.2-0.4,0.2c0,0-0.1,0-0.1-0.1v-0.1c0.2-0.4,0.4-0.8,0.6-1.2s0.2-0.7,0.2-0.9C110.4,183.9,110.3,183.9,110.3,183.8z"/>
			<path class="st5" d="M115.7,187.1L115.7,187.1h1.3c0.1,0,0.1,0,0.1-0.1s0-0.4-0.1-1s-0.2-1.1-0.3-1.7c-0.1-0.6-0.2-1.1-0.3-1.4
				c0-0.1,0-0.1-0.1-0.1s-0.1,0-0.1,0h-0.7c-0.1,0-0.1,0-0.1,0l-0.1-0.1v-0.1c0.1-0.1,0.2-0.4,0.4-0.7c0.2-0.3,0.4-0.6,0.5-0.7
				l0.1-0.1c0.1,0,0.1,0.1,0.2,0.2c0,0,0,0.1,0.1,0.2s0.1,0.2,0.1,0.2l0.1,0.1h3c0.6,0,1,0.2,1.3,0.7c0.1,0.2,0.2,0.8,0.2,1.6
				s0.1,1.7,0.1,2.5c0,0.4,0,0.7,0,0.8s0,0.2,0,0.3c-0.1,0.3-0.2,0.6-0.4,0.9c0,0,0,0-0.1,0.1s0,0-0.1,0h-0.1v-0.1
				c0-0.1,0-0.5,0-1.1c0-1-0.1-1.8-0.1-2.4c0-0.7-0.1-1.1-0.1-1.4c-0.1-0.3-0.1-0.5-0.3-0.6s-0.3-0.2-0.4-0.2h-2.3
				c-0.1,0-0.1,0-0.1,0s0,0,0,0.1l0,0v0.1c0.1,0.4,0.2,0.9,0.2,1.5s0.2,1.1,0.2,1.4c0,0.1,0,0.2,0,0.3s0,0.2,0,0.2
				c0,0.2-0.1,0.5-0.2,0.8s-0.2,0.6-0.2,0.8c0,0.1-0.1,0.2-0.3,0.2h-1.8c0,0,0,0-0.1,0s0,0,0-0.1v-0.1
				C115.3,187.7,115.5,187.4,115.7,187.1L115.7,187.1z"/>
			<path class="st5" d="M124.6,183.8c0-0.1-0.1-0.2-0.2-0.3c-0.1-0.2-0.4-0.4-0.8-0.6c-0.4-0.3-0.7-0.5-1-0.6l-0.1-0.1v-0.1
				c0-0.1,0.1-0.3,0.3-0.5s0.3-0.4,0.3-0.5h0.1l0,0c0.4,0.2,0.8,0.5,1.2,0.8s0.7,0.6,0.9,0.8c0.1,0.1,0.2,0.3,0.2,0.4
				c0,0.1,0.1,0.3,0.1,0.4c0,0.2-0.1,0.5-0.2,0.8c-0.2,0.3-0.4,0.7-0.6,1.2c-0.1,0.1-0.1,0.2-0.1,0.2l-0.1,0.1
				c-0.1,0.1-0.2,0.2-0.4,0.4c-0.2,0.1-0.3,0.2-0.4,0.2c0,0-0.1,0-0.1-0.1v-0.1c0.2-0.4,0.4-0.8,0.6-1.2s0.2-0.7,0.2-0.9
				C124.7,183.9,124.7,183.9,124.6,183.8z"/>
			<path class="st5" d="M130.2,183.1c-0.3-0.3-0.6-0.4-0.9-0.4h-2.1c-0.1,0-0.2,0-0.2-0.1c-0.1,0-0.1-0.1-0.1-0.1v-0.1
				c0-0.1,0.2-0.3,0.4-0.7s0.4-0.6,0.5-0.7c0,0,0,0,0.1-0.1h0.1c0.1,0,0.1,0.1,0.1,0.2c0,0,0,0.1,0,0.2s0.1,0.2,0.1,0.2
				c0.1,0,0.1,0,0.2,0h1.2c0.2,0,0.4,0,0.6,0.1c0.2,0.1,0.4,0.3,0.6,0.5c0.2,0.2,0.4,0.6,0.5,1s0.2,0.9,0.2,1.6
				c0,0.7,0.1,1.5,0.1,2.4c0,0.1,0,0.1,0,0.2s0,0.1,0,0.1c-0.1,0.4-0.3,0.7-0.4,1c0,0.1-0.1,0.1-0.1,0.1H131v-0.1
				c0-0.1,0-0.5-0.1-1.2c0-0.7,0-1.2-0.1-1.7s-0.1-0.9-0.1-1.2C130.6,183.8,130.5,183.4,130.2,183.1z"/>
			<path class="st5" d="M134.2,185.8c-0.1-0.5-0.2-0.9-0.3-1.3c-0.1-0.4-0.2-0.8-0.3-1.2c-0.1-0.5-0.3-0.9-0.5-1.2V182
				c0,0,0-0.1,0.1-0.1c0.2-0.3,0.4-0.6,0.7-0.9c0,0,0,0,0.1,0c0,0,0.1,0,0.1,0.1c0.3,0.5,0.5,1.4,0.7,2.5c0,0.1,0,0.3,0.1,0.6
				c0.2,1.2,0.3,1.9,0.4,2.2c0.1,0.2,0.1,0.4,0.2,0.5c0,0.1,0.1,0.2,0.2,0.2c0.1,0.1,0.2,0.1,0.3,0.1s0.2,0,0.4,0
				c0.3,0,0.6-0.1,1-0.2c0.4-0.1,0.6-0.3,0.8-0.4c0.3-0.3,0.5-0.6,0.6-1s0.2-0.8,0.2-1.2s-0.1-0.7-0.2-1s-0.3-0.5-0.5-0.7
				s-0.5-0.3-0.8-0.3s-0.5,0.1-0.7,0.2c-0.2,0.1-0.4,0.3-0.6,0.5c-0.1,0.1-0.1,0.1-0.2,0.1h-0.1c0,0,0,0,0-0.1c0,0,0.1-0.2,0.2-0.5
				c0.1-0.3,0.2-0.5,0.2-0.5s0,0,0-0.1l0.1-0.1c0.2-0.2,0.5-0.3,0.7-0.4s0.5-0.1,0.7-0.1c0.4,0,0.7,0.1,1,0.4c0.3,0.2,0.5,0.6,0.7,1
				s0.2,0.8,0.2,1.2c0,0.5-0.1,1-0.2,1.4c-0.1,0.4-0.3,0.8-0.6,1.3c-0.3,0.6-0.8,1.1-1.3,1.4c-0.5,0.4-1.1,0.5-1.7,0.5
				c-0.4,0-0.8-0.2-0.9-0.5c-0.1-0.1-0.1-0.2-0.2-0.4c0-0.1-0.1-0.3-0.1-0.5C134.4,186.7,134.3,186.3,134.2,185.8z"/>
			<path class="st5" d="M142.6,183.8c0-0.1-0.1-0.2-0.2-0.3c-0.1-0.2-0.4-0.4-0.8-0.6c-0.4-0.3-0.7-0.5-1-0.6l-0.1-0.1v-0.1
				c0-0.1,0.1-0.3,0.3-0.5s0.3-0.4,0.3-0.5h0.1l0,0c0.4,0.2,0.8,0.5,1.2,0.8s0.7,0.6,0.9,0.8c0.1,0.1,0.2,0.3,0.2,0.4
				c0,0.1,0.1,0.3,0.1,0.4c0,0.2-0.1,0.5-0.2,0.8c-0.2,0.3-0.4,0.7-0.7,1.2c-0.1,0.1-0.1,0.2-0.1,0.2l-0.1,0.1
				c-0.1,0.1-0.2,0.2-0.4,0.4c-0.2,0.1-0.3,0.2-0.4,0.2c0,0-0.1,0-0.1-0.1v-0.1c0.2-0.4,0.4-0.8,0.6-1.2c0.2-0.4,0.2-0.7,0.2-0.9
				C142.7,183.9,142.7,183.9,142.6,183.8z"/>
			<path class="st5" d="M145.1,187.6c0.1-0.2,0.2-0.3,0.2-0.4c0,0,0-0.1,0.1-0.1c0,0,0,0,0.1,0h1.5c0.1,0,0.1,0,0.1-0.1s0-0.1,0-0.3
				c0-0.3,0-0.6,0-0.8c0-0.4,0-0.9-0.1-1.4c0-0.3-0.1-0.6-0.2-0.8s-0.2-0.4-0.4-0.6c-0.2-0.2-0.7-0.5-1.4-1c0,0,0,0-0.1-0.1v-0.1
				v-0.1c0.1-0.1,0.1-0.2,0.3-0.4c0.1-0.2,0.2-0.3,0.3-0.4l0.1-0.1c0.1,0,0.1,0,0.2,0.1c0.1,0.1,0.3,0.2,0.5,0.4s0.4,0.3,0.6,0.4
				c0.2,0.2,0.3,0.3,0.4,0.4c0.1,0.1,0.2,0.2,0.3,0.4c0.1,0.1,0.1,0.3,0.1,0.5s0.1,0.5,0.1,0.7c0,0.4,0,1.1,0,2c0,0.3,0,0.5-0.1,0.7
				s-0.2,0.5-0.3,0.7c-0.1,0.3-0.2,0.5-0.4,0.7c0,0.1-0.1,0.1-0.1,0.1s-0.1,0-0.2,0h-2c-0.1,0-0.1,0-0.1-0.1c0,0,0,0,0-0.1
				C144.9,187.9,145,187.8,145.1,187.6z"/>
			<path class="st5" d="M150.4,183.9c-0.1-0.3-0.2-0.5-0.3-0.8c-0.1-0.2-0.2-0.4-0.4-0.7c-0.1-0.1-0.1-0.1-0.1-0.2l0,0
				c0,0,0,0,0-0.1V182c0.2-0.4,0.5-0.8,0.7-1c0,0,0,0,0.1,0c0,0,0,0,0.1,0c0.3,0.3,0.5,0.8,0.7,1.3s0.3,1,0.3,1.4l0,0l0,0
				c0.3-0.7,0.6-1.3,0.9-1.7c0.4-0.4,0.8-0.7,1.3-0.7c0.3,0,0.6,0.1,0.8,0.3s0.4,0.4,0.6,0.7c0.2,0.3,0.3,0.6,0.4,0.9
				c0.1,0.3,0.2,0.7,0.2,1.2s0.1,0.9,0.1,1.3c0,0.1,0,0.2,0,0.4s0,0.3-0.1,0.5c0,0.2-0.1,0.4-0.2,0.7c-0.1,0.3-0.2,0.5-0.3,0.6
				c0,0.1-0.1,0.1-0.1,0.2s-0.1,0-0.2,0h-3.2c-0.1,0-0.1,0-0.1-0.1v-0.1c0-0.1,0.1-0.2,0.3-0.4c0.1-0.2,0.2-0.3,0.3-0.4
				c0,0,0,0,0-0.1c0,0,0-0.1,0.1-0.1s0.1,0,0.1,0h2.5c0.1,0,0.1,0,0.1,0s0.1-0.1,0.1-0.2c0-0.2,0-0.5,0-0.9s-0.1-0.8-0.1-1.2
				c-0.1-0.4-0.2-0.8-0.3-1c-0.1-0.3-0.3-0.6-0.5-0.8s-0.5-0.3-0.8-0.3c-0.2,0-0.5,0.1-0.7,0.2c-0.2,0.2-0.4,0.4-0.6,0.6
				c-0.2,0.2-0.3,0.5-0.4,0.8c-0.1,0.2-0.1,0.4-0.2,0.7c-0.1,0.3-0.1,0.5-0.2,0.7c-0.1,0.2-0.1,0.5-0.2,0.9
				c-0.1,0.4-0.2,0.6-0.2,0.8c0,0.1-0.1,0.2-0.1,0.2c-0.1,0.2-0.3,0.4-0.4,0.6s-0.2,0.3-0.3,0.4c0,0,0,0-0.1,0c0,0-0.1,0-0.1-0.1
				c0,0,0-0.1,0.1-0.3c0-0.1,0.1-0.3,0.1-0.5c0.2-0.6,0.3-1.1,0.4-1.6c0.1-0.5,0.2-0.9,0.2-1.3C150.5,184.5,150.4,184.2,150.4,183.9
				z"/>
			<path class="st5" d="M159.1,188.5C159,188.4,159,188.4,159.1,188.5c0-2.2-0.1-3.7-0.1-4.5c0-0.1,0-0.2-0.1-0.3
				c0-0.1-0.1-0.2-0.2-0.3c-0.2-0.2-0.4-0.4-0.7-0.6s-0.6-0.4-0.8-0.5l-0.1-0.1c0,0,0,0,0-0.1V182v-0.1c0.1-0.1,0.2-0.3,0.3-0.5
				s0.2-0.3,0.3-0.4l0,0c0,0,0,0,0.1,0s0,0,0.1,0s0.1,0,0.1,0c0.4,0.2,0.9,0.6,1.4,1.1c0.2,0.2,0.3,0.4,0.4,0.5
				c0.1,0.2,0.1,0.4,0.1,0.6c0,0.1,0,0.4,0,0.8c0,0.4,0,0.7,0,1c0,1.1,0,1.8,0,2.4v0.1v0.1c-0.1,0.1-0.2,0.3-0.3,0.5
				s-0.2,0.3-0.3,0.3C159.2,188.5,159.1,188.5,159.1,188.5L159.1,188.5z"/>
			<path class="st5" d="M165.6,182.7h-3.8c-0.1,0-0.2,0-0.3-0.1c-0.1,0-0.1-0.1-0.1-0.2v-0.1c0.1-0.2,0.2-0.4,0.4-0.7
				s0.4-0.5,0.5-0.6c0.1,0,0.1-0.1,0.1-0.1c0.1,0,0.1,0,0.1,0.1v0.1c0,0,0,0.1,0,0.2s0,0.1,0.1,0.1l0.1,0.1c0.1,0,0.1,0,0.2,0h2.8
				c0.2,0,0.3,0,0.5,0.1c0.1,0,0.3,0.1,0.4,0.3c0.2,0.1,0.3,0.3,0.4,0.5c0.1,0.2,0.1,0.5,0.2,0.7c0.1,0.9,0.1,2.3,0.1,4.1
				c0,0.1,0,0.1,0,0.2v0.1c0,0.1-0.1,0.3-0.2,0.5c-0.1,0.2-0.2,0.4-0.3,0.4h-0.1h-0.1v-0.1v-1.1c0-0.9,0-1.7-0.1-2.2s-0.1-1-0.1-1.4
				C166.4,183,166.1,182.7,165.6,182.7z M162.1,184.8c0.1-0.1,0.1-0.3,0.2-0.4c0.1-0.2,0.2-0.3,0.3-0.5c0,0,0,0,0.1,0
				s0.1,0.1,0.1,0.2c0,0.3,0.1,0.8,0.1,1.6s0,1.4,0,1.7c0,0.1,0,0.2-0.1,0.3c-0.1,0.3-0.3,0.6-0.4,0.8c0,0,0,0.1-0.1,0.1
				c0,0,0,0-0.1,0c0,0,0,0-0.1,0s0-0.1,0-0.1c-0.1-2-0.2-3.1-0.2-3.3C162.1,184.9,162.1,184.8,162.1,184.8z"/>
			<path class="st5" d="M173.5,187.1c0-1-0.1-1.9-0.1-2.8c0-0.2,0-0.4-0.1-0.6c0-0.1-0.1-0.3-0.3-0.4c-0.2-0.2-0.4-0.4-0.7-0.6
				c-0.3-0.2-0.6-0.4-0.8-0.5c-0.1,0-0.1-0.1-0.1-0.2c0,0,0,0,0-0.1c0,0,0-0.1,0.1-0.1c0.2-0.3,0.4-0.6,0.6-0.9l0.1-0.1l0,0
				c0,0,0,0,0.1,0c0.2,0.1,0.4,0.3,0.7,0.5s0.5,0.4,0.7,0.6c0.1,0.1,0.3,0.3,0.3,0.4s0.1,0.3,0.2,0.6c0.1,0.5,0.1,2,0.1,4.4
				c0,1.1,0,1.9,0,2.3c0,0.1,0,0.2,0,0.3s0,0.1-0.1,0.2c-0.1,0.3-0.3,0.5-0.5,0.7h-0.1h-0.1v-0.1
				C173.5,189.3,173.5,188.1,173.5,187.1z"/>
			<path class="st5" d="M178.9,183.1c-0.3-0.3-0.6-0.4-0.9-0.4h-2.1c-0.1,0-0.2,0-0.2-0.1c-0.1,0-0.1-0.1-0.1-0.1v-0.1
				c0-0.1,0.2-0.3,0.4-0.7s0.4-0.6,0.5-0.7c0,0,0,0,0.1-0.1h0.1c0.1,0,0.1,0.1,0.1,0.2c0,0,0,0.1,0,0.2s0.1,0.2,0.1,0.2s0.1,0,0.2,0
				h1.2c0.2,0,0.4,0,0.6,0.1s0.4,0.3,0.6,0.5c0.2,0.2,0.4,0.6,0.5,1s0.2,0.9,0.2,1.6c0,0.7,0.1,1.5,0.1,2.4c0,0.1,0,0.1,0,0.2
				s0,0.1,0,0.1c-0.1,0.4-0.3,0.7-0.4,1c0,0.1-0.1,0.1-0.1,0.1h-0.1v-0.1c0-0.1,0-0.5-0.1-1.2c0-0.7,0-1.2-0.1-1.7s-0.1-0.9-0.1-1.2
				C179.4,183.8,179.2,183.4,178.9,183.1z"/>
			<path class="st5" d="M182.4,182.8c-0.1,0-0.2-0.1-0.3-0.1s-0.1,0-0.2,0c-0.1,0-0.1-0.1-0.1-0.1v-0.1c0.1-0.3,0.3-0.5,0.5-0.8
				s0.3-0.5,0.5-0.6c0.1-0.1,0.1-0.1,0.2-0.1h0.1c0,0,0,0.1,0.1,0.1c0,0,0,0.1,0,0.2c0,0.1,0.1,0.1,0.1,0.2s0.1,0.1,0.2,0.1h3.6
				c0.2,0,0.4,0.1,0.5,0.2c0.1,0.1,0.3,0.3,0.3,0.5s0.1,0.4,0.1,0.6c0,0.4,0,0.8-0.1,1.2s-0.2,0.8-0.4,1.2c-0.4,1.1-1,2-1.7,2.4
				c-0.2,0.1-0.5,0.3-0.8,0.5s-0.5,0.3-0.6,0.3s-0.1,0-0.1-0.1s0.1-0.2,0.2-0.5s0.2-0.4,0.2-0.5s0.1-0.1,0.1-0.1s0.1,0,0.1-0.1
				c0.4-0.1,0.7-0.2,0.9-0.4c0.2-0.1,0.5-0.3,0.7-0.5s0.3-0.5,0.4-0.8c0.1-0.2,0.1-0.4,0.2-0.8c0.1-0.3,0.1-0.7,0.1-0.9
				c0-0.3,0-0.6-0.1-0.7c-0.1-0.2-0.2-0.3-0.5-0.3h-3c0,0-0.1,0-0.1,0.1l-0.1,0.1c0,0.7,0,1.7,0,3v1.7c0,1.2,0,2,0,2.2v0.1
				c0,0,0,0.1,0,0.2c-0.1,0.1-0.1,0.3-0.2,0.4c-0.1,0.2-0.2,0.3-0.3,0.4l-0.1,0.1h-0.1V191c0-0.3,0-0.6,0-1s0-0.7,0-0.9
				c0-1.4,0-2.6-0.1-3.4s-0.1-1.7-0.2-2.6C182.5,182.9,182.5,182.8,182.4,182.8z"/>
		</g>
	</g>
	<g id="Слой_6">
		<g class="st3">
			<path class="st6" d="M46.7,152.7c0-4.4,3.6-7.8,8.6-7.8c5.6,0,8.3,3.7,8.3,7.6c0,4.5-3.7,7.7-8.3,7.7
				C49.9,160.3,46.7,156.7,46.7,152.7z M61.2,153.2c0-3.7-1.8-7.6-6.3-7.6c-2.5,0-5.7,1.6-5.7,6.4c0,3.3,1.7,7.5,6.5,7.5
				C58.4,159.6,61.2,157.6,61.2,153.2z"/>
			<path class="st6" d="M37.7,151.5c0,0.6,0.1,0.6,0.8,0.6h1.6c1,0,1.8,0,2-0.1c0.3-0.1,0.5-0.2,0.6-0.8l0.2-0.9
				c0.1-0.1,0.5-0.1,0.6,0c0,0.5-0.1,1.4-0.1,2.2s0.1,1.6,0.1,2.2c-0.1,0.1-0.5,0.1-0.6,0l-0.2-0.9c-0.1-0.4-0.3-0.7-0.8-0.8
				c-0.3-0.1-0.9-0.1-1.9-0.1h-1.6c-0.7,0-0.8,0-0.8,0.6v3.1c0,2.3,0,2.7,1.5,2.8l0.8,0.1c0.1,0.1,0.1,0.5,0,0.6
				c-1.4,0-2.2-0.1-3.2-0.1c-1.1,0-1.9,0-3,0.1c-0.1-0.1-0.2-0.4,0-0.6l0.6-0.1c1.4-0.2,1.4-0.4,1.4-2.8v-8c0-2.3,0-2.6-1.4-2.8
				h-0.4c-0.1-0.1-0.1-0.5,0-0.6c1,0,1.8,0.1,2.8,0.1h4.4c1.5,0,2.9,0,3.2-0.1c0,1,0,2.1,0.1,2.9c-0.1,0.1-0.4,0.2-0.6,0.1
				c-0.2-1-0.5-1.8-1.7-2.1c-0.5-0.1-1.3-0.1-2.3-0.1h-1.5c-0.7,0-0.7,0-0.7,0.9L37.7,151.5L37.7,151.5z"/>
			<path class="st6" d="M80.7,156.1c0,0.7,0,3.3,0.1,3.9c0,0.1-0.2,0.2-0.5,0.2c-0.3-0.4-1-1.2-3.1-3.4l-5.6-5.9
				c-0.6-0.7-2.3-2.5-2.8-3l0,0c-0.1,0.3-0.1,0.8-0.1,1.4v4.8c0,1,0,3.9,0.4,4.6c0.1,0.2,0.6,0.4,1.2,0.4l0.7,0.1
				c0.1,0.2,0.1,0.4,0,0.6c-1.1,0-1.9-0.1-2.8-0.1c-1,0-1.7,0-2.5,0.1c-0.2-0.1-0.2-0.4,0-0.6l0.6-0.1c0.6-0.1,0.9-0.2,1.1-0.4
				c0.3-0.8,0.3-3.5,0.3-4.6v-6.4c0-0.6,0-1.1-0.5-1.6c-0.3-0.3-0.9-0.5-1.5-0.5h-0.4c-0.1-0.1-0.1-0.5,0-0.6c1,0.1,2.3,0.1,2.7,0.1
				c0.4,0,0.8,0,1.1-0.1c0.5,1.1,3.3,4.1,4.1,4.9l2.3,2.4c1.7,1.7,2.8,3,4,4l0,0c0.1-0.1,0.1-0.5,0.1-0.9v-4.8c0-1,0-3.9-0.5-4.6
				c-0.1-0.2-0.5-0.3-1.5-0.4h-0.4c-0.2-0.1-0.1-0.5,0-0.6c1.1,0,1.9,0.1,2.8,0.1c1,0,1.7,0,2.5-0.1c0.2,0.1,0.2,0.4,0,0.6h-0.3
				c-0.8,0.1-1.3,0.3-1.3,0.5c-0.4,0.8-0.4,3.6-0.4,4.6L80.7,156.1L80.7,156.1z"/>
			<path class="st6" d="M86.6,148.2c0-1.6-0.1-2-1.1-2.2l-0.5-0.1c-0.2-0.1-0.2-0.5,0-0.6c2-0.1,4-0.2,6-0.2s3.7,0.1,5.3,0.7
				c3.2,1.1,4.9,3.6,4.9,6.5c0,2.8-1.5,5.2-4.2,6.6c-1.6,0.8-3.5,1.1-5.4,1.1c-1.5,0-3.1-0.2-3.9-0.2c-1,0-1.9,0-3,0.1
				c-0.1-0.1-0.2-0.4,0-0.6l0.6-0.1c1.4-0.2,1.4-0.4,1.4-2.8L86.6,148.2L86.6,148.2z M88.6,156.1c0,1.2,0,1.9,0.4,2.4
				c0.5,0.7,1.4,0.9,3,0.9c4.7,0,6.8-2.8,6.8-6.9c0-2.4-1.3-6.6-7.6-6.6c-1.4,0-2.2,0.2-2.4,0.3c-0.2,0.1-0.2,0.7-0.2,1.7V156.1
				L88.6,156.1z"/>
			<path class="st6" d="M107.6,160.3c-2,0-3.3-0.6-3.8-0.8c-0.3-0.5-0.6-2.1-0.6-3.1c0.1-0.2,0.5-0.2,0.6-0.1
				c0.4,1.1,1.3,3.3,4.1,3.3c2,0,3-1.2,3-2.6c0-1-0.2-2.1-2-3.1l-2.3-1.4c-1.2-0.7-2.6-2-2.6-3.8c0-2.1,1.8-3.8,4.9-3.8
				c0.7,0,1.6,0.1,2.2,0.3c0.3,0.1,0.6,0.1,0.8,0.1c0.2,0.5,0.4,1.8,0.4,2.7c-0.1,0.1-0.5,0.2-0.6,0.1c-0.3-1.1-1-2.5-3.3-2.5
				c-2.4,0-2.9,1.4-2.9,2.5c0,1.3,1.2,2.2,2,2.7l1.9,1.1c1.5,0.9,3,2.2,3,4.3C112.8,158.6,110.8,160.3,107.6,160.3z"/>
		</g>
	</g>
	<g id="Слой_2_1_">
		<rect x="0.6" y="0.3" class="st7" width="99.5" height="99.5"/>
	</g>
	<g id="Слой_3">
		<line class="st8" x1="50" y1="106.9" x2="110" y2="46.9"/>
	</g>
	<g id="Слой_4">
		<g class="st3">
			<path class="st6" d="M27.9,112c0-2.6,0-2.8-1.5-2.9h-0.6c-0.1-0.1-0.1-0.5,0-0.6c1.4,0,2.2,0.1,3.2,0.1s1.8,0,2.8-0.1
				c0.1,0.1,0.2,0.5,0,0.6h-0.4c-1.4,0.2-1.5,0.5-1.5,2.9v8.5c0,1.8-0.1,3.4-0.6,4.5c-0.8,1.8-2.5,3.3-4.8,3.3c-0.3,0-1,0-1-0.5
				c0-0.4,0.4-1.1,0.9-1.1c0.3,0,0.6,0,0.9,0.1s0.7,0.2,1,0.2c0.5,0,0.8-0.3,1-0.6c0.6-1.1,0.6-4.5,0.6-5.8V112L27.9,112z"/>
			<path class="st6" d="M34.1,116.3c0-4.6,3.6-8.1,8.6-8.1c5.6,0,8.4,3.8,8.4,7.9c0,4.6-3.7,8-8.4,8
				C37.3,124.1,34.1,120.4,34.1,116.3z M48.6,116.7c0-3.8-1.8-7.9-6.4-7.9c-2.5,0-5.8,1.6-5.8,6.7c0,3.4,1.7,7.8,6.5,7.8
				C45.9,123.3,48.6,121.3,48.6,116.7z"/>
			<path class="st6" d="M53.3,116.3c0-4.6,3.6-8.1,8.6-8.1c5.6,0,8.4,3.8,8.4,7.9c0,4.6-3.7,8-8.4,8
				C56.5,124.1,53.3,120.4,53.3,116.3z M67.8,116.7c0-3.8-1.8-7.9-6.4-7.9c-2.5,0-5.8,1.6-5.8,6.7c0,3.4,1.7,7.8,6.5,7.8
				C65.1,123.3,67.8,121.3,67.8,116.7z"/>
			<path class="st6" d="M74.5,111.5c0-1.6-0.1-2.1-1.1-2.2l-0.5-0.1c-0.2-0.1-0.2-0.5,0-0.6c2.1-0.1,4-0.2,6.1-0.2
				c2,0,3.7,0.1,5.3,0.7c3.3,1.1,4.9,3.7,4.9,6.8c0,2.9-1.5,5.4-4.2,6.9c-1.6,0.8-3.6,1.1-5.4,1.1c-1.5,0-3.1-0.2-3.9-0.2
				c-1,0-1.9,0-3,0.1c-0.1-0.1-0.2-0.4,0-0.6l0.6-0.1c1.4-0.2,1.4-0.5,1.4-2.9L74.5,111.5L74.5,111.5z M76.4,119.7
				c0,1.2,0.1,2,0.5,2.5c0.5,0.7,1.4,0.9,3,0.9c4.7,0,6.8-2.9,6.8-7.2c0-2.5-1.3-6.8-7.6-6.8c-1.4,0-2.2,0.2-2.4,0.3
				c-0.2,0.1-0.2,0.7-0.2,1.7L76.4,119.7L76.4,119.7z"/>
			<path class="st6" d="M95.6,124.1c-2,0-3.3-0.6-3.8-0.9c-0.3-0.5-0.6-2.1-0.7-3.2c0.1-0.2,0.5-0.2,0.6-0.1
				c0.4,1.2,1.4,3.4,4.2,3.4c2,0,3-1.3,3-2.6c0-1-0.2-2.1-2-3.2l-2.3-1.4c-1.2-0.8-2.6-2.1-2.6-4c0-2.2,1.8-4,4.9-4
				c0.7,0,1.6,0.1,2.2,0.3c0.3,0.1,0.7,0.1,0.8,0.1c0.2,0.6,0.4,1.8,0.4,2.8c-0.1,0.1-0.5,0.2-0.6,0.1c-0.3-1.1-1-2.6-3.3-2.6
				c-2.4,0-2.9,1.5-2.9,2.6c0,1.3,1.2,2.3,2.1,2.8l1.9,1.2c1.5,0.9,3,2.2,3,4.4C100.8,122.3,98.7,124.1,95.6,124.1z"/>
		</g>
	</g>
	<g id="Слой_5">
		<g class="st3">
			<path class="st6" d="M37.9,134.4c-1.2,0-1.2,0-1.2,0.7v3.1c0,2.3,0.1,2.6,1.5,2.8l0.7,0.1c0.1,0.1,0.1,0.5,0,0.6
				c-1.3,0-2.1-0.1-3.1-0.1s-1.9,0-2.8,0.1c-0.1-0.1-0.2-0.4,0-0.6l0.4-0.1c1.4-0.2,1.4-0.4,1.4-2.8v-8c0-2.3-0.2-2.7-1.4-2.8h-0.6
				c-0.1-0.1-0.1-0.5,0-0.6c1.2,0,2,0.1,3,0.1c0.9,0,1.8,0,2.8-0.1c0.1,0.1,0.2,0.5,0,0.6h-0.5c-1.4,0.1-1.5,0.5-1.5,2.8v2.6
				c0,0.7,0,0.7,1.2,0.7h6.9c1.2,0,1.2,0,1.2-0.7v-2.6c0-2.3,0-2.7-1.5-2.8h-0.5c-0.1-0.1-0.1-0.5,0-0.6c1.1,0,1.9,0.1,2.9,0.1
				c0.9,0,1.8,0,2.9-0.1c0.1,0.1,0.2,0.5,0,0.6h-0.5c-1.4,0.1-1.5,0.5-1.5,2.8v8c0,2.3,0,2.6,1.5,2.8l0.6,0.1c0.1,0.1,0.1,0.5,0,0.6
				c-1.2,0-2-0.1-2.9-0.1c-1,0-1.9,0-2.9,0.1c-0.1-0.1-0.2-0.4,0-0.6l0.5-0.1c1.5-0.2,1.5-0.4,1.5-2.8v-3.1c0-0.7,0-0.7-1.2-0.7
				H37.9z"/>
			<path class="st6" d="M65.5,132.5c0-1.4,0.3-3.9-0.2-4.6c-0.2-0.3-0.6-0.4-1.2-0.5h-0.6c-0.1-0.2-0.1-0.4,0-0.5
				c0.9,0,1.8,0.1,2.8,0.1s1.7,0,2.5-0.1c0.2,0.1,0.2,0.4,0,0.5h-0.6c-0.6,0-1.1,0.2-1.2,0.5c-0.3,0.7-0.3,3.3-0.3,4.5v2.5
				c0,1.9-0.3,4-1.7,5.3c-1,1-2.8,1.6-4.6,1.6c-1.7,0-3.3-0.3-4.5-1.2c-1.3-1-1.9-2.6-1.9-5.2v-5.2c0-2.3,0-2.7-1.5-2.8h-0.6
				c-0.1-0.1-0.1-0.5,0-0.5c1.2,0,2,0.1,3,0.1s1.8,0,3-0.1c0.1,0.1,0.2,0.4,0,0.5h-0.6c-1.4,0.1-1.5,0.5-1.5,2.8v4.8
				c0,3.6,1.2,5.9,4.9,5.9c3.5,0,4.8-2.5,4.8-5.9V132.5L65.5,132.5z"/>
			<path class="st6" d="M78.6,135.7c0.6,1,1.1,2.1,1.7,3l0,0c0.7-1,1.3-2.2,1.9-3.3l2.3-4.2c1.1-2,1.8-3.2,1.8-4.3
				c0.8,0.1,1.3,0.1,1.8,0.1c0.6,0,1.4,0,2.2-0.1c0.1,0.1,0.1,0.5,0,0.6h-0.5c-1.5,0.1-1.7,0.6-1.7,2.1c0,2.4,0.1,6.5,0.3,9.7
				c0.1,1.1,0,1.7,1.2,1.8l0.8,0.1c0.1,0.1,0.1,0.5,0,0.6c-1,0-2-0.1-2.9-0.1c-0.8,0-1.9,0-2.9,0.1c-0.2-0.1-0.2-0.4,0-0.6l0.7-0.1
				c1.2-0.1,1.2-0.5,1.2-1.9l-0.1-9.3l0,0c-0.2,0.2-1.1,2-1.6,2.9l-2.2,3.9c-1.1,2-2.2,4-2.6,5.1c0,0.1-0.1,0.1-0.2,0.1
				c0,0-0.2,0-0.2-0.1c-0.4-1.2-1.6-3.4-2.1-4.4l-2.2-4.3c-0.5-1-1-2.2-1.5-3.2l0,0c-0.1,1.4-0.2,2.7-0.2,4
				c-0.1,1.4-0.2,3.3-0.2,5.2c0,1.6,0.1,2,1.1,2.1l0.9,0.1c0.2,0.1,0.1,0.5,0,0.6c-0.8,0-1.8-0.1-2.7-0.1c-0.8,0-1.6,0-2.5,0.1
				c-0.1-0.1-0.2-0.4,0-0.6l0.5-0.1c1-0.1,1.4-0.3,1.5-1.8s0.3-2.7,0.4-4.9c0.1-1.8,0.2-3.7,0.3-5c0-1.4-0.1-1.7-1.6-1.9h-0.4
				c-0.1-0.1-0.1-0.5,0.1-0.6c0.7,0,1.3,0.1,1.9,0.1s1.2,0,2-0.1c-0.1,0.9,0.5,2.2,1.3,3.7L78.6,135.7z"/>
			<path class="st6" d="M101.1,136.4c-0.2-0.5-0.3-0.6-1-0.6h-3.7c-0.6,0-0.8,0.1-0.9,0.5l-0.8,2.3c-0.4,1-0.5,1.6-0.5,1.8
				c0,0.3,0.1,0.4,0.7,0.4l0.8,0.1c0.2,0.1,0.2,0.5,0,0.6c-0.6,0-1.4,0-2.5-0.1c-0.8,0-1.7,0-2.3,0.1c-0.1-0.1-0.2-0.4,0-0.6
				l0.8-0.1c0.6,0,1.1-0.3,1.5-1.1c0.4-1,1.1-2.5,2.1-5l2.5-6c0.3-0.8,0.5-1.2,0.4-1.6c0.6-0.2,1-0.6,1.3-0.8c0.1,0,0.3,0,0.4,0.2
				c0.3,1,0.7,2,1.1,3l3.3,8.9c0.7,1.9,1,2.2,2.1,2.4l0.7,0.1c0.2,0.1,0.1,0.5,0,0.6c-1,0-1.8-0.1-2.9-0.1c-1.2,0-2.1,0-2.8,0.1
				c-0.2-0.1-0.2-0.4,0-0.6l0.7-0.1c0.5,0,0.8-0.2,0.8-0.4s-0.1-0.6-0.3-1.2L101.1,136.4z M96.3,134.5c-0.2,0.5-0.2,0.5,0.5,0.5h3
				c0.7,0,0.8-0.1,0.5-0.7l-1.3-3.6c-0.2-0.5-0.4-1.1-0.6-1.4l0,0c-0.1,0.1-0.3,0.6-0.6,1.3L96.3,134.5z"/>
			<path class="st6" d="M122.5,137.8c0,0.7,0,3.3,0.1,3.9c0,0.1-0.2,0.2-0.5,0.2c-0.3-0.4-1-1.2-3.1-3.4l-5.6-5.9
				c-0.7-0.7-2.3-2.5-2.8-3l0,0c-0.1,0.3-0.1,0.8-0.1,1.4v4.8c0,1,0,3.9,0.4,4.6c0.1,0.2,0.6,0.4,1.2,0.4l0.8,0.1
				c0.1,0.2,0.1,0.4,0,0.6c-1.1,0-1.9-0.1-2.8-0.1c-1,0-1.7,0-2.5,0.1c-0.2-0.1-0.2-0.4,0-0.6l0.7-0.1c0.6-0.1,0.9-0.2,1.1-0.4
				c0.3-0.8,0.3-3.5,0.3-4.6v-6.4c0-0.6,0-1.1-0.5-1.6c-0.3-0.3-0.9-0.5-1.5-0.5h-0.4c-0.1-0.1-0.1-0.5,0-0.6c1,0.1,2.3,0.1,2.7,0.1
				c0.4,0,0.8,0,1.1-0.1c0.5,1.1,3.3,4.1,4.1,4.9l2.3,2.4c1.7,1.7,2.9,3,4,4l0,0c0.1-0.1,0.1-0.5,0.1-0.9v-4.8c0-1,0-3.9-0.5-4.6
				c-0.1-0.2-0.5-0.3-1.5-0.4h-0.4c-0.2-0.1-0.1-0.5,0-0.6c1.1,0,1.9,0.1,2.9,0.1s1.7,0,2.5-0.1c0.2,0.1,0.2,0.4,0,0.6h-0.3
				c-0.8,0.1-1.3,0.3-1.4,0.5c-0.4,0.8-0.4,3.6-0.4,4.6L122.5,137.8L122.5,137.8z"/>
			<path class="st6" d="M128.4,130.3c0-2.4,0-2.7-1.5-2.8h-0.6c-0.1-0.1-0.1-0.5,0-0.6c1.2,0,2,0.1,3,0.1s1.8,0,3-0.1
				c0.1,0.1,0.2,0.5,0,0.6h-0.6c-1.4,0.1-1.5,0.5-1.5,2.8v7.9c0,2.4,0,2.7,1.5,2.8l0.6,0.1c0.1,0.1,0.1,0.5,0,0.6
				c-1.2,0-2-0.1-3-0.1s-1.8,0-3,0.1c-0.1-0.1-0.2-0.4,0-0.6l0.6-0.1c1.4-0.2,1.5-0.5,1.5-2.8V130.3z"/>
			<path class="st6" d="M142.6,138.3c0,2.3-0.2,2.7,1.3,2.8l0.8,0.1c0.1,0.1,0.1,0.5,0,0.6c-1.4,0-2.2-0.1-3.2-0.1s-1.8,0-3.4,0.1
				c-0.1-0.1-0.2-0.4,0-0.6l0.9-0.1c1.4-0.1,1.5-0.4,1.5-2.8v-9.9c0-0.7,0-0.7-0.7-0.7h-1.3c-1,0-2.4,0-3,0.6
				c-0.6,0.5-0.8,1-1.1,1.5c-0.2,0.1-0.5,0-0.6-0.2c0.4-1,0.8-2.4,0.9-3.3c0.1,0,0.4-0.1,0.5,0c0.1,0.7,0.9,0.7,2.1,0.7h9.8
				c1.3,0,1.5,0,1.9-0.6c0.1,0,0.4,0,0.4,0.1c-0.3,0.9-0.4,2.7-0.4,3.4c-0.1,0.2-0.5,0.2-0.6,0c-0.1-0.6-0.2-1.4-0.6-1.6
				c-0.6-0.4-1.5-0.6-2.8-0.6h-1.7c-0.7,0-0.7,0-0.7,0.8V138.3L142.6,138.3z"/>
			<path class="st6" d="M159.3,136.4c-0.2-0.5-0.3-0.6-1-0.6h-3.7c-0.6,0-0.8,0.1-0.9,0.5l-0.8,2.3c-0.4,1-0.5,1.6-0.5,1.8
				c0,0.3,0.1,0.4,0.7,0.4l0.8,0.1c0.2,0.1,0.2,0.5,0,0.6c-0.6,0-1.4,0-2.5-0.1c-0.8,0-1.7,0-2.3,0.1c-0.1-0.1-0.2-0.4,0-0.6
				l0.8-0.1c0.6,0,1.1-0.3,1.5-1.1c0.4-1,1.1-2.5,2.1-5l2.5-6c0.3-0.8,0.5-1.2,0.4-1.6c0.6-0.2,1-0.6,1.3-0.8c0.1,0,0.3,0,0.4,0.2
				c0.3,1,0.7,2,1.1,3l3.3,8.9c0.7,1.9,1,2.2,2.1,2.4l0.7,0.1c0.2,0.1,0.1,0.5,0,0.6c-1,0-1.8-0.1-2.9-0.1c-1.2,0-2.1,0-2.8,0.1
				c-0.2-0.1-0.2-0.4,0-0.6l0.7-0.1c0.5,0,0.8-0.2,0.8-0.4s-0.1-0.6-0.3-1.2L159.3,136.4z M154.5,134.5c-0.2,0.5-0.2,0.5,0.5,0.5h3
				c0.7,0,0.8-0.1,0.5-0.7l-1.3-3.6c-0.2-0.5-0.4-1.1-0.6-1.4l0,0c-0.1,0.1-0.3,0.6-0.6,1.3L154.5,134.5z"/>
			<path class="st6" d="M167.7,130.3c0-2.4,0-2.7-1.5-2.8h-0.6c-0.1-0.1-0.1-0.5,0-0.6c1.2,0,2,0.1,3,0.1s1.8,0,3-0.1
				c0.1,0.1,0.2,0.5,0,0.6H171c-1.4,0.1-1.5,0.5-1.5,2.8v7.9c0,2.4,0,2.7,1.5,2.8l0.6,0.1c0.1,0.1,0.1,0.5,0,0.6c-1.2,0-2-0.1-3-0.1
				s-1.8,0-3,0.1c-0.1-0.1-0.2-0.4,0-0.6l0.6-0.1c1.4-0.2,1.5-0.5,1.5-2.8V130.3z"/>
			<path class="st6" d="M175.8,130.3c0-2.1-0.1-2.5-1.1-2.6l-0.8-0.1c-0.2-0.1-0.2-0.5,0-0.6c1.4-0.1,3-0.2,5.4-0.2
				c1.5,0,2.9,0.1,4,0.7c1.2,0.6,2,1.6,2,3.1c0,2.1-1.8,3.3-3,3.7c-0.1,0.1,0,0.4,0.1,0.5c1.9,2.9,3.2,4.6,4.9,5.9
				c0.4,0.3,1,0.6,1.7,0.6c0.1,0,0.1,0.2,0,0.3c-0.2,0.1-0.6,0.1-1.1,0.1c-2.1,0-3.3-0.6-5-2.8c-0.6-0.8-1.6-2.4-2.4-3.4
				c-0.4-0.5-0.8-0.7-1.7-0.7c-1.1,0-1.1,0-1.1,0.5v2.8c0,2.3,0,2.6,1.5,2.8l0.5,0.1c0.1,0.1,0.1,0.5,0,0.6c-1.1,0-1.9-0.1-2.9-0.1
				s-1.9,0-3,0.1c-0.1-0.1-0.2-0.4,0-0.6l0.6-0.1c1.4-0.2,1.5-0.4,1.5-2.8L175.8,130.3L175.8,130.3z M177.8,133.5
				c0,0.4,0,0.6,0.1,0.7c0.1,0.1,0.4,0.1,1.7,0.1c0.9,0,1.8-0.1,2.5-0.6s1.2-1.2,1.2-2.8c0-1.8-1.2-3.4-3.9-3.4
				c-1.5,0-1.6,0.1-1.6,0.7V133.5z"/>
		</g>
	</g>
</g>
<g id="Слой_2_2_" class="st0">
	<g class="st9">
	</g>
</g>
</svg>
