<svg id="Слой_2_1_" xmlns="http://www.w3.org/2000/svg" viewBox="0 0 408.2 296.3"><style>.st0{enable-background:new}.st1{fill:none;stroke:#000;stroke-miterlimit:10}</style><path d="M45.7 250c3.2-.3 5.7-.6 7.6-1.1l-1.1-3c-2-5.9-3.3-9.7-3.9-11.4-.6-1.7-1.2-3.2-1.7-4.7-.6-1.5-1-2.5-1.2-2.9-.6 0-1.6 0-3.1.1s-3.4.1-5.6.2c-2.2.1-4 .2-5.5.3-1.5.1-2.5.2-3.2.3-.1.3-.4 1.3-.9 3s-1.1 3.7-1.7 5.9c-.6 2.3-1.2 4.5-1.7 6.7s-.9 4.1-1.1 5.5c.8.2 1.7.4 2.8.6 1.1.2 2.3.3 3.7.5l.3 1.6c-.5-.1-1.2-.1-2.1-.1-.9 0-2.1-.1-3.6-.1-2.3-.1-4.1-.1-5.6-.1-1.3 0-2.8 0-4.7.1s-3.2.1-4 .2l.2-1.6c2.2-.3 4.3-.6 6.5-1.1.6-1.1 1.8-3.8 3.5-8.1s3.7-9.4 5.9-15.2c2.2-5.8 4.1-10.8 5.6-14.9s2.7-7.4 3.7-9.9c-.7-.2-1.4-.4-2.3-.5-.9-.1-2-.3-3.4-.5h-.2l-.1-1.6c.5 0 1.2.1 2 .1s1.9.1 3.3.1c2 0 3.5.1 4.5.1 2 0 4.3 0 6.8-.1 1.7 0 3-.1 3.9-.1 1 0 1.7-.1 2.2-.1l-.2 1.6c-2.4.3-4.3.6-5.7 1 .2.7.6 1.9 1.2 3.7.6 1.8 1.2 3.7 2 5.9s1.6 4.6 2.5 7.2c.9 2.6 1.7 4.7 2.3 6.3.5 1.3 1.1 3 2 5.4.9 2.3 1.8 4.7 2.7 7.1 1 2.4 1.9 4.7 2.9 6.9s1.8 4.1 2.6 5.6c1.6.3 3.8.7 6.6 1.1l.2 1.6c-.2-.1-.7-.1-1.5-.1s-2-.1-3.6-.1c-2.5-.1-5-.1-7.4-.1-1.6 0-3.7 0-6.4.1-1.8 0-3.1.1-4.1.1-1 0-1.7.1-2.2.1l.3-1.6zm-1.8-28.3c-.4-1.1-1-3-2-5.8-.9-2.6-1.8-5.3-2.8-8.2-1-2.9-1.6-4.7-1.8-5.6h-.2c-.6 1.8-1.1 3.2-1.5 4.3-.4 1.1-1.3 3.6-2.7 7.4-.9 2.5-1.7 4.7-2.4 6.7s-1.2 3.3-1.4 3.9l15.8.3c-.3-.9-.6-1.9-1-3zM108.5 219.3c0-3.5 0-6.7-.1-9.9 0-1.7 0-3.4-.1-5.1-.1-1.7-.1-2.8-.2-3.4-.9-.2-2.1-.3-3.9-.6-1.7-.2-3.1-.4-4.2-.5l-.2-1.6c.9 0 2.7.1 5.3.2 2.6.1 5.2.1 7.8.1 2.9 0 5.6 0 8.3-.1 1.6 0 2.8-.1 3.7-.1.9 0 1.5-.1 1.9-.1l-.4 1.6c-.6.1-1.9.2-3.9.5-2.2.3-3.8.5-5 .6-.1.6-.1 1.6-.2 3.3-.1 1.6-.1 3.3-.2 5-.1 3.1-.1 6.8-.1 11v2.7c0 6.5 0 11.8.1 16 0 2.4.1 4.5.2 6.4 0 1.9.1 3.1.2 3.5 4.2 0 7.8-.4 10.9-1.1 3.1-.8 5.5-1.7 7.1-2.7.4-1 .8-2 1.2-3.3.4-1.2.8-2.5 1.1-4 .2-.6.3-1.1.4-1.4l1.8-.3c-.9 3.7-1.6 7.6-2.3 11.6-.7 4-1.2 8.4-1.7 13.2l-1.7-.4c0-.3 0-1.3.2-3.2.1-1.7.2-2.9.2-3.6v-2c-.4 0-1.5-.1-3.4-.2s-4.3-.1-7.1-.2-5.1-.1-7-.1h-4.5c-2.2 0-4.5 0-7 .1-1.6 0-2.8.1-3.7.1-.9 0-1.6.1-2.1.1l.3-1.6c.9 0 1.5-.1 1.7-.1.3 0 1-.1 2.1-.3 1.2-.2 2-.3 2.7-.4.6-.1 1.1-.2 1.5-.3 0-.8.1-2.3.2-4.5s.1-4.4.1-6.6c0-4.2.1-8.9.1-14.2v-4.1zM181.6 222v-6.5c0-2.6-.1-4.6-.1-6.2-.1-1.6-.1-3.2-.2-4.9-.1-1.7-.1-2.8-.2-3.4-.5-.1-1.5-.3-3-.5s-2.7-.3-3.5-.5c-.7 0-1.1-.1-1.3-.2l-.3-1.6c1.8 0 3.9.1 6.5.2s4.9.1 6.8.1c4.2 0 7.9 0 11.2-.1 3.1 0 5.5-.1 7.4-.2 1.9-.1 3-.2 3.5-.3.3-1 .5-2.2.6-3.5l1.7-.3c-.1.4-.2 1.2-.4 2.5s-.3 2.8-.4 4.3c-.1 1.5-.3 3.2-.4 5-.2 1.8-.3 3.1-.3 3.7l-1.7-.5v-5.4c-.3-.5-1.1-1-2.5-1.4-1.4-.4-2.9-.7-4.7-1-1.7-.3-3.5-.5-5.3-.6-1.8-.1-3.3-.2-4.4-.2-.1.2-.1 1.1-.2 2.8-.1 1.7-.1 3.6-.2 5.9s-.1 4.5-.2 6.7v6.1c3.4 0 6.6-.1 9.6-.3 3.1-.2 5-.5 5.9-.9.4-1 .6-2.1.8-3.2l1.6-.2c-.1.3-.1.8-.3 1.8-.1.9-.3 2.4-.6 4.5-.7 5-1 7.6-1.1 7.8l-1.4-.6c.1-2.1.2-3.8.2-5-1.1-.6-3-1-5.6-1.2-2.6-.3-5.6-.4-9.1-.4v6.5c0 2.4.1 4.9.2 7.5.1 2.6.1 4.9.2 6.9 0 2 .1 3.3.2 3.8 4.1 0 7.7-.2 10.9-.6 3.1-.4 5.5-1.1 7.2-2 .3-1.2.7-2.7 1.1-4.5.3-1 .4-1.7.5-2.1l1.7-.5c-.1.5-.3 1.5-.6 3.2-.3 1.7-.5 3.3-.8 5-.3 1.7-.5 3.5-.7 5.3-.2 1.8-.4 3.1-.4 3.9l-1.6-.3c0-2.3 0-3.8-.1-4.6-.5-.1-1.7-.2-3.7-.3-2-.1-4.2-.1-6.5-.2s-4.7-.1-7.3-.2c-2.6-.1-4.6-.1-6.1-.1-1.6 0-3.5 0-5.9.1-2.4.1-4.2.1-5.6.2l.4-1.6c.9 0 2.1-.2 3.9-.4s3-.4 3.9-.6c.1-.4.2-1.4.2-3.2 0-1.8.1-3.6.2-5.4 0-1.9.1-4.3.1-7.2V222zM336.1 220c0-2.9 0-6-.1-9.5-.1-1.9-.1-3.8-.2-5.8-.1-1.9-.1-3.2-.2-3.8-.7-.2-1.9-.3-3.6-.6-1.8-.2-3.2-.4-4.3-.5l-.4-1.6c.3 0 .9.1 1.7.1.9 0 2 .1 3.5.1 2.6 0 5.2.1 8 .1 2.6 0 5.2 0 7.7-.1s4-.1 4.6-.2l-.4 1.6c-1.1.1-2.4.3-4 .5s-2.7.4-3.3.6c-.1.5-.1 1.5-.2 2.9s-.2 2.9-.2 4.3c-.1 1.5-.1 3.2-.1 5.2v8.7h2.1c6.2.1 11 .1 14.5.1 3.9 0 7.1 0 9.7-.1 2.6 0 4.2-.1 4.9-.2v-3.5c0-4.6 0-8-.1-10.2 0-1.8 0-3.3-.1-4.6-.1-1.3-.2-2.1-.3-2.6-.7-.2-1.8-.4-3.4-.6-1.6-.3-3-.4-4.1-.5l-.4-1.6c.3 0 .9.1 1.7.1.8 0 2 .1 3.5.1 2.5 0 5.1.1 7.8.1s5.3 0 7.8-.1 4.1-.1 4.7-.2l-.5 1.6c-.5.1-1 .1-1.5.2-.6.1-1.8.2-3.7.5-1.1.2-1.9.3-2.4.4-.1.3-.2 1.4-.3 3.2-.1 1.9-.1 3.9-.1 6.1-.1 4.2-.2 7.4-.2 9.7v5.3c0 5.4 0 10.1.2 14.1 0 2.5.1 4.5.2 6.2.1 1.7.2 2.8.3 3.4.8.2 2.1.4 3.9.6 1.8.3 3 .4 3.7.5l.4 1.6c-.4-.1-1-.1-1.8-.1-.9 0-2.1-.1-3.6-.1-2.6-.1-4.9-.1-7.2-.1-2 0-4.2 0-6.7.1-1.6 0-2.9.1-3.8.1-1 0-1.7.1-2.3.1l.4-1.6c.4 0 .7-.1 1.1-.1.4 0 1.2-.1 2.3-.3 1.2-.2 2.1-.3 2.7-.4.6-.1 1.1-.2 1.4-.2.1-.6.2-1.6.3-3 .1-1.4.1-3.1.1-5 0-2.5.1-6.5.1-12v-4.4c-1.1.1-3.1.1-6 .3-2.9.1-6.3.3-10.2.5-3.9.2-7.3.4-10.2.6-2.9.2-4.5.3-4.8.3v8c0 2 .1 4 .2 6.1.1 2.1.2 3.9.2 5.3.1 1.5.1 2.6.2 3.3 1.1.3 2.3.5 3.9.7 1.5.2 2.7.3 3.4.4l.4 1.6c-.4-.1-1-.1-1.8-.1-.9 0-2.1-.1-3.7-.1-2.5-.1-4.7-.1-6.8-.1-2.3 0-4.7 0-7.2.1-1.6 0-2.9.1-3.8.1-1 0-1.7.1-2.2.1l.5-1.6c.9 0 2.2-.2 4-.5 1.8-.3 3.1-.5 3.8-.6 0-.9.1-2.3.2-4.3s.1-4 .1-5.9c0-3.6.1-7.5.1-11.7V220zM267.7 223c0 5.2 0 10 .1 14.5 0 2.6.1 5 .2 7.3 0 2.3.1 3.7.2 4.2.9.2 2.2.3 4 .5 1.8.2 3.6.4 5.6.6l.4 1.6c-.6-.1-1.4-.1-2.4-.1-1.1 0-2.5-.1-4.4-.1-2.8-.1-5.3-.1-7.5-.1-2.3 0-4.6 0-7.1.1-1.6 0-2.8.1-3.7.1-.9 0-1.6.1-2.1.1l.3-1.6 1.5-.2c2.3-.3 3.7-.5 4.4-.6l2.1-.3c0-.8.1-2.4.2-4.7s.1-4.7.1-7.1c0-4.4.1-9.3.1-14.5v-3c0-2.8 0-5.9-.1-9.3-.1-1.9-.1-3.7-.2-5.6-.1-1.9-.1-3.2-.2-3.8-.6-.2-1.6-.4-3.1-.6s-3-.3-4.7-.5h-.3l-.2-1.6h6.8c5.1 0 8.4-.1 9.9-.1 8.5 0 14.6.7 18.1 2.2 1.6.7 2.8 1.4 3.8 2.3 1 .9 1.8 1.7 2.3 2.6.5.9.8 1.7 1 2.4.2.8.3 1.4.3 2 0 2.4-.5 4.6-1.4 6.6-.9 2-2.2 3.8-3.8 5.4-1.2 1.2-2.5 2.2-4 3.1-1.5.9-3 1.6-4.5 2.2-1.5.6-2.9 1-4.2 1.4-1.3.4-2.3.6-3.1.7l.2-1.9c1.1-.3 2.2-.7 3.4-1.2 1.2-.5 2.4-1.3 3.7-2.4 1.3-1.1 2.4-2.5 3.3-4.4.9-1.9 1.4-4.1 1.4-6.8 0-2.3-.5-4.4-1.6-6.1-1.1-1.8-2.6-3.1-4.5-4.1-1.2-.6-2.6-1-4.4-1.2-1.8-.3-3.5-.4-5.3-.4-.1.6-.1 1.6-.2 3.2s-.1 3.2-.2 4.9c-.1 3.1-.1 6.9-.1 11.3v3zM9.1 295.7c0-.2.1-.5.1-.9.1-.4.1-.9.2-1.4.1-.6.1-1.1.2-1.6 0-.5.1-.9.1-1.2v-1.5c0-.3 0-.7.1-1.3v-1.5-.5-.2l.7.2c0 .3 0 .8.1 1.4.1.6.1 1.1.1 1.3.4 1 1.1 1.9 2 2.5.9.6 1.8.9 2.9.9 1.3 0 2.3-.4 3.2-1.1s1.3-1.7 1.3-2.8c0-.6-.1-1.1-.3-1.6-.2-.5-.5-.9-.9-1.3s-.8-.7-1.2-1.1c-.4-.3-1-.7-1.6-1.1H16c-.9-.6-1.7-1.1-2.3-1.6-.6-.5-1.2-1-1.7-1.5-.5-.6-.9-1.2-1.1-1.8-.3-.7-.4-1.4-.4-2.3 0-.6.1-1.3.4-1.9.3-.6.6-1.2 1.2-1.8.5-.5 1.2-1 2-1.3.8-.3 1.8-.5 2.9-.5.8 0 1.6.1 2.3.2.7.1 1.4.2 1.9.4.1-.3.2-.9.4-1.7.1-.4.1-.7.2-.9l.7-.1c-.5 3.6-.8 6.4-.8 8.6l-.7-.3c0-.8 0-1.6-.1-2.4-.2-.6-.7-1.3-1.5-1.9-.8-.6-1.7-.9-2.7-.9-1.2 0-2.2.3-2.8 1-.7.6-1 1.4-1 2.2 0 .8.3 1.5.9 2.1s1.6 1.3 2.9 2.1c.2.1.5.3.7.4.8.5 1.5 1 2.1 1.4.6.4 1.1.9 1.6 1.5s.9 1.2 1.1 1.9.4 1.6.4 2.5c0 1.1-.2 2-.6 2.9-.4.8-.9 1.6-1.6 2.2-.7.6-1.5 1-2.5 1.3-.9.3-1.9.5-3 .5-.8 0-1.6-.1-2.4-.2s-1.5-.3-1.9-.6c-.1.3-.2.7-.3 1.4-.1.7-.3 1.3-.4 1.8l-.8.1zM48.4 292.3c-1.6-.5-3.1-1.4-4.4-2.8-1.1-1.1-1.9-2.3-2.3-3.5s-.7-2.5-.7-4c0-1.6.3-3.1.9-4.5s1.5-2.7 2.7-3.8 2.6-2 4.4-2.6c1.7-.6 3.6-1 5.7-1 1.8 0 3.3.2 4.7.5 1.4.4 2.7 1 4 2 1.2.9 2.1 2 2.8 3.4.7 1.4 1 2.9 1 4.4 0 1.9-.3 3.6-1 5.2s-1.6 2.9-2.9 4c-1.2 1.1-2.7 2-4.3 2.6s-3.4.9-5.4.9c-1.8 0-3.6-.3-5.2-.8zm9.9-1.2c1-.5 1.9-1.1 2.6-2 .8-.8 1.3-1.8 1.8-2.9s.6-2.3.6-3.5c0-1.6-.3-3.1-.8-4.5s-1.2-2.6-2.2-3.6-2-1.8-3.2-2.4-2.4-.8-3.7-.8c-1.1 0-2.2.2-3.3.6-1.1.4-2 1-2.9 1.7-.9.8-1.6 1.8-2.1 2.9-.5 1.2-.8 2.6-.8 4.1 0 1.4.3 2.8.8 4.1s1.3 2.5 2.2 3.6 2.1 1.9 3.4 2.5c1.3.6 2.7.9 4.2.9 1.4 0 2.5-.3 3.4-.7zM158 280.4v-2.7-2.6c0-.7 0-1.4-.1-2.1 0-.7-.1-1.2-.1-1.4-.2 0-.6-.1-1.3-.2-.6-.1-1.1-.1-1.5-.2-.3 0-.4 0-.5-.1l-.1-.7c.7 0 1.6 0 2.7.1h7.6c1.3 0 2.3 0 3.1-.1.8 0 1.3-.1 1.5-.1.1-.4.2-.9.3-1.5l.7-.1c0 .1-.1.5-.2 1.1-.1.6-.1 1.2-.2 1.8-.1.6-.1 1.3-.2 2.1s-.1 1.3-.1 1.6l-.7-.2v-2.3c-.1-.2-.5-.4-1.1-.6-.6-.2-1.2-.3-1.9-.4-.7-.1-1.5-.2-2.2-.3-.8-.1-1.4-.1-1.8-.1 0 .1 0 .5-.1 1.2 0 .7 0 1.5-.1 2.5 0 1-.1 1.9-.1 2.8v2.5c1.4 0 2.7 0 4-.1s2.1-.2 2.5-.4c.1-.4.3-.9.3-1.3l.7-.1c0 .1-.1.3-.1.7-.1.4-.1 1-.3 1.9-.3 2.1-.4 3.2-.4 3.3l-.6-.3c0-.9.1-1.6.1-2.1-.5-.2-1.2-.4-2.3-.5-1.1-.1-2.4-.2-3.8-.2v2.7c0 1 0 2.1.1 3.1 0 1.1.1 2 .1 2.9 0 .8 0 1.4.1 1.6 1.7 0 3.2-.1 4.5-.3 1.3-.2 2.3-.4 3-.8.1-.5.3-1.1.5-1.9.1-.4.2-.7.2-.9l.7-.2c0 .2-.1.6-.2 1.3l-.3 2.1c-.1.7-.2 1.4-.3 2.2-.1.8-.2 1.3-.2 1.6l-.7-.1v-1.9c-.2 0-.7-.1-1.6-.1-.8 0-1.7-.1-2.7-.1s-2 0-3-.1h-5c-.9 0-1.8.1-2.3.1l.2-.7c.4 0 .9-.1 1.6-.2.7-.1 1.3-.2 1.6-.3 0-.1.1-.6.1-1.3 0-.7 0-1.5.1-2.3v-3V280.4zM382.4 277.4c0-.3 0-.7-.1-1.3 0-.6-.1-1-.1-1.3-.2-.4-.5-.8-.9-1.2-.4-.4-1-.8-1.6-1.2-.7-.4-1.4-.7-2.3-.9-.9-.2-1.8-.3-2.7-.3-1.4 0-2.7.2-3.8.7-1.2.5-2.1 1.1-3 2-.8.8-1.4 1.8-1.9 2.9-.4 1.1-.7 2.3-.7 3.5 0 1.5.3 2.9.9 4.3s1.4 2.6 2.5 3.6 2.3 1.9 3.7 2.5c1.4.6 3 .9 4.6.9 1.4 0 2.7-.1 4-.4 1.3-.3 2.4-.7 3.5-1.3l-.4 1.3c-.5.4-1.6.8-3.2 1.3-1.6.4-3.5.6-5.7.6h-1.4c-.5 0-1.1-.1-1.8-.2s-1.4-.2-2.1-.4c-.7-.2-1.3-.4-1.9-.7-2-1-3.6-2.4-4.8-4-1.2-1.7-1.7-3.5-1.7-5.6 0-2 .5-3.9 1.4-5.5.9-1.6 2.1-2.9 3.6-3.9s3-1.7 4.5-2.1c1.5-.4 3.1-.5 4.9-.5 1.2 0 2.5.1 3.7.3s2.2.4 2.8.5c.1-.1.1-.4.3-.9s.2-.9.3-1.3c.1-.3.1-.5.1-.6l.7-.2c-.4 3.1-.6 6.3-.7 9.7l-.7-.3zM316.4 270.6c.7 0 1.4 0 2.3-.1 1.2 0 2.2 0 2.9-.1s1.4-.1 2-.1c.2.3.6.8 1.3 1.7.7.9 1.5 2 2.5 3.2 1 1.2 1.8 2.3 2.5 3.1.7.8 1.1 1.3 1.2 1.5.1.1.4.4.7.8.4.4.8.9 1.2 1.4.5.6 1 1.3 1.5 1.8s.9 1.1 1.4 1.6c.4.5.9 1 1.2 1.4.4.4.6.7.8.8v-4.3c0-1.4 0-3-.1-4.7 0-1.7-.1-3.2-.2-4.5-.1-1.3-.2-2.2-.4-2.5-.3-.1-.8-.1-1.5-.3-.7-.1-1.2-.2-1.7-.2l-.2-.7h8.7l-.1.7c-.1 0-.3.1-.8.2-.8.1-1.3.2-1.6.3-.1.3-.2.6-.2 1.1-.1.5-.1 1-.1 1.6s-.1 1.1-.1 1.8c0 .6-.1 1.1-.1 1.5v2.3c0 .9-.1 2.1-.1 3.9 0 .9-.1 2.1-.1 3.4 0 1.4-.1 2.5-.1 3.4 0 .9-.1 1.7-.1 2.4s-.1 1.1-.1 1.3c-.2-.1-.6-.6-1.2-1.3s-1.4-1.5-2.1-2.4c-.8-.9-1.8-2-2.9-3.3s-1.9-2.3-2.5-2.9c-.2-.3-.5-.6-.9-1.1s-.6-.7-.7-.8c-.1-.1-.5-.5-1.1-1.3-.6-.8-1.4-1.7-2.4-2.9-.9-1.1-1.7-2.1-2.5-3-.8-.9-1.3-1.5-1.5-1.7v.7c0 .8 0 2.2.1 4.1 0 1.9.1 3.8.2 5.7.1 1.9.1 3.6.2 5.1.1 1.5.2 2.4.3 2.6.2.1.5.1 1.1.2s1.2.1 1.9.2h.3l.1.7H318.5c-1 0-1.6.1-2 .1l.1-.7.6-.1c.9-.1 1.6-.2 2-.3.1-.3.2-1.4.3-3.3.1-1.9.2-3.9.3-6.2s.1-4.4.2-6.6c.1-2.2.1-3.5.1-3.9-.4-.1-.9-.2-1.6-.2s-1.3-.1-1.9-.1l-.2-1zM295.6 281.7v6.3c0 .9 0 1.6.1 2.4 0 .7 0 1.2.1 1.3.3.1.8.2 1.4.2.6.1 1.2.1 1.9.2l.2.7H288.6l.1-.7h.5c.2 0 .5-.1 1.1-.1s.9-.1 1.2-.2.4-.1.6-.1c0-.3 0-.9.1-1.8v-2.7-7.6-4c0-.8 0-1.6-.1-2.4s0-1.3-.1-1.6c-.1 0-.3-.1-.6-.1s-.6-.1-1.1-.2c-.6-.1-1.1-.1-1.6-.2l-.2-.7c.3 0 1 0 2.2.1s2.4 0 3.8 0h4.8l-.2.7c-.1 0-.6.1-1.3.2-.9.1-1.6.2-2 .3-.1.3-.1 1.1-.1 2.5v7.5zM106.5 277.4c0-.3 0-.7-.1-1.3 0-.6-.1-1-.1-1.3-.2-.4-.5-.8-.9-1.2-.4-.4-1-.8-1.6-1.2-.7-.4-1.4-.7-2.3-.9-.9-.2-1.8-.3-2.7-.3-1.4 0-2.6.2-3.8.7-1.2.5-2.1 1.1-3 2-.8.8-1.4 1.8-1.9 2.9-.4 1.1-.7 2.3-.7 3.5 0 1.5.3 2.9.9 4.3.6 1.4 1.4 2.6 2.5 3.6 1.1 1.1 2.3 1.9 3.7 2.5 1.4.6 3 .9 4.6.9 1.4 0 2.7-.1 4-.4 1.3-.3 2.4-.7 3.5-1.3l-.4 1.3c-.5.4-1.6.8-3.2 1.3-1.6.4-3.5.6-5.7.6h-1.4c-.5 0-1.1-.1-1.8-.2s-1.4-.2-2.1-.4c-.7-.2-1.3-.4-1.9-.7-2-1-3.6-2.4-4.8-4-1.1-1.7-1.7-3.5-1.7-5.6 0-2 .5-3.9 1.4-5.5.9-1.6 2.1-2.9 3.6-3.9s3-1.7 4.5-2.1 3.1-.5 4.9-.5c1.2 0 2.5.1 3.7.3 1.3.2 2.2.4 2.8.5.1-.1.1-.4.3-.9.1-.5.2-.9.3-1.3.1-.3.1-.5.1-.6l.7-.2c-.4 3.1-.6 6.3-.7 9.7l-.7-.3zM132.6 281.7v6.3c0 .9 0 1.6.1 2.4 0 .7 0 1.2.1 1.3.3.1.8.2 1.4.2.6.1 1.2.1 1.9.2l.2.7H125.6l.1-.7h.5c.2 0 .5-.1 1.1-.1s.9-.1 1.2-.2.4-.1.6-.1c0-.3 0-.9.1-1.8v-2.7-7.6-4c0-.8 0-1.6-.1-2.4s0-1.3-.1-1.6c-.1 0-.3-.1-.6-.1s-.6-.1-1.1-.2c-.6-.1-1.1-.1-1.6-.2l-.2-.7c.3 0 1 0 2.2.1s2.4 0 3.8 0h4.8l-.2.7c-.1 0-.6.1-1.3.2-.9.1-1.6.2-2 .3-.1.3-.1 1.1-.1 2.5v7.5zM197.3 279.6v-4.5c0-.9 0-1.6-.1-2.2 0-.5 0-.9-.1-1.1-2.2 0-4 .1-5.3.4s-2.2.6-2.8.9c-.1.3-.2.6-.2.9-.1.4-.2.8-.3 1.5 0 .3-.1.5-.1.6l-.7.2c0-.3 0-.5.1-.7.1-1.3.2-2.6.3-3.8.1-1.2.1-2.4.1-3.4l.7.1v.2c.1.9.1 1.5.2 1.8.1 0 .5.1 1.2.1s1.5.1 2.5.1c.9 0 2 .1 3.2.1h6.4c1.1 0 2.3-.1 3.4-.1s2-.1 2.7-.1 1-.1 1.1-.1c0-.1.1-.3.2-.6s.1-.6.2-.9c0-.1.1-.3.1-.4l.8-.1c0 .2-.1.7-.2 1.5s-.2 1.6-.3 2.3c-.1.7-.2 1.6-.3 2.5s-.2 1.6-.2 1.8l-.7-.2V275v-1.8c-.2-.1-.6-.3-1.1-.5-.6-.2-1.3-.3-2.1-.4s-1.7-.2-2.5-.3c-.9-.1-1.7-.1-2.4-.1 0 .2 0 .6-.1 1.3 0 .7 0 1.4-.1 2.1V286.5c0 1.3 0 2.3.1 3.1 0 .8 0 1.5.1 2.1.2 0 .6.1 1.2.2s1.3.1 2.2.2c.2 0 .4 0 .6.1l.1.7H193l.2-.7c.2 0 .6-.1 1.1-.1.5-.1 1.5-.2 3-.3 0-.5 0-1.3.1-2.3 0-1.1 0-2 .1-2.8V279.6zM236.3 284.7v-1c0-.3 0-.7-.1-1-.1-.2-.4-.8-1.1-1.9-.7-1-1.4-2.2-2.3-3.5-.9-1.3-1.7-2.5-2.5-3.6s-1.4-1.8-1.7-2.1c-.1-.1-.3-.1-.5-.2s-.6-.1-.9-.2c-.3-.1-.6-.1-.7-.1l-.1-.7c.3 0 .9.1 1.8.1H234.5c.8 0 1.4-.1 1.6-.1l-.2.7c-.2 0-.6.1-1.2.2-.8.1-1.2.2-1.5.3.5.9 1 1.8 1.6 2.7.6.9 1.4 2.2 2.5 3.8.5.8.9 1.5 1.2 1.9.3.5.5.8.7 1.1.1-.1.4-.7 1-1.6.6-.9 1.1-1.7 1.5-2.4.5-.8.9-1.5 1.3-2.2s.8-1.4 1.1-2c.3-.6.4-1 .5-1.2-.3-.1-.7-.1-1.2-.2s-.9-.2-1.2-.2l-.1-.7c.2 0 .7 0 1.5.1h4.7c.7 0 1.2-.1 1.6-.1l-.1.7-.5.1c-.8.1-1.3.2-1.7.3-.2.1-.6.6-1.4 1.5s-1.6 2.1-2.5 3.4c-1 1.3-1.8 2.6-2.5 3.7s-1.1 1.8-1.2 2.1c0 .3-.1.6-.1 1v5.3c0 .6 0 1.1.1 1.7 0 .6 0 1 .1 1.2.1 0 .4.1.8.1s.8.1 1.2.2c.5.1.9.1 1.1.2l.1.7c-.3 0-1 0-2.1-.1h-5.8c-.9 0-1.5.1-2 .1l.2-.7c.4 0 .9-.1 1.4-.2.6-.1 1-.2 1.3-.3 0-.1 0-.4.1-.9 0-.5 0-1 .1-1.5v-4.5zM397.6 293l-.1-3.4 3.6-.7.2 3.4-3.7.7z" class="st0"/><path class="st1" d="M4.4 4.1v249.3M311.3 4.1v249.3M404.8 4.1v249.3M235 4.1v249.3M159.2 4.1v249.3M83.9 4.1v249.3"/></svg>