<svg xmlns="http://www.w3.org/2000/svg" xmlns:xlink="http://www.w3.org/1999/xlink" xml:space="preserve" width="4110" height="1315" version="1.1" style="shape-rendering:geometricPrecision; text-rendering:geometricPrecision; image-rendering:optimizeQuality; fill-rule:evenodd; clip-rule:evenodd"><rect id="backgroundrect" width="100%" height="100%" x="0" y="0" fill="none" stroke="none" style="" class=""/>
 <defs>
  <style type="text/css">
   <![CDATA[
    .fil0 {fill:#0072B9;fill-rule:nonzero}
    .fil4 {fill:#3B96D1;fill-rule:nonzero}
    .fil2 {fill:#5FB2E3;fill-rule:nonzero}
    .fil1 {fill:#81D4F7;fill-rule:nonzero}
    .fil3 {fill:white;fill-rule:nonzero}
   ]]>
  </style>
 </defs>
 
<g class="currentLayer" style=""><title>Layer 1</title><g id="Layer_x0020_1" class="">
  <metadata id="CorelCorpID_0Corel-Layer" transform="translate(-13.213623046875,-12.057319641113281) translate(-253.3333282470703,-246.66665649414062) "/>
  <path class="fil0" d="M1569.4530487060547,285.2760238647461 l0,-1 c0,-59 47,-106 110,-106 c36,0 61,11 83,29 l-33,40 c-15,-12 -29,-19 -49,-19 c-29,0 -52,24 -52,56 l0,1 c0,33 23,57 55,57 c14,0 25,-3 33,-8 l0,-25 l-40,0 l0,-41 l94,0 l0,92 c-22,18 -51,32 -89,32 c-64,0 -111,-44 -111,-106 z" id="svg_1"/>
  <polygon class="fil0" points="1812.4530029296875,182.2760238647461 1976.4530029296875,182.2760238647461 1976.4530029296875,230.2760238647461 1868.4530029296875,230.2760238647461 1868.4530029296875,261.2760238647461 1966.4530029296875,261.2760238647461 1966.4530029296875,306.2760238647461 1868.4530029296875,306.2760238647461 1868.4530029296875,338.2760238647461 1978.4530029296875,338.2760238647461 1978.4530029296875,387.2760238647461 1812.4530029296875,387.2760238647461 " id="svg_2"/>
  <polygon class="fil0" points="2019.4530029296875,182.2760238647461 2071.453125,182.2760238647461 2155.453125,290.2760238647461 2155.453125,182.2760238647461 2211.453125,182.2760238647461 2211.453125,387.2760238647461 2162.453125,387.2760238647461 2075.453125,275.2760238647461 2075.453125,387.2760238647461 2019.4530029296875,387.2760238647461 " id="svg_3"/>
  <polygon class="fil0" points="2259.453125,182.2760238647461 2423.453125,182.2760238647461 2423.453125,230.2760238647461 2315.453125,230.2760238647461 2315.453125,261.2760238647461 2413.453125,261.2760238647461 2413.453125,306.2760238647461 2315.453125,306.2760238647461 2315.453125,338.2760238647461 2425.453125,338.2760238647461 2425.453125,387.2760238647461 2259.453125,387.2760238647461 " id="svg_4"/>
  <path class="fil0" d="M2450.4530487060547,356.2760238647461 l32,-38 c20,16 43,24 66,24 c15,0 24,-5 24,-14 l0,-1 c0,-9 -7,-13 -35,-20 c-43,-10 -77,-22 -77,-64 l0,-1 c0,-38 30,-65 79,-65 c35,0 62,9 84,27 l-28,40 c-19,-13 -39,-20 -57,-20 c-14,0 -20,6 -20,13 l0,1 c0,9 7,13 36,20 c47,10 76,25 76,64 l0,1 c0,42 -33,66 -83,66 c-36,0 -70,-11 -96,-34 z" id="svg_5"/>
  <polygon class="fil0" points="2669.453125,387.2760238647461 2726.453125,387.2760238647461 2726.453125,182.2760238647461 2669.453125,182.2760238647461 " id="svg_6"/>
  <path class="fil0" d="M2759.4530487060547,356.2760238647461 l31,-38 c20,16 43,24 66,24 c15,0 24,-5 24,-14 l0,-1 c0,-9 -7,-13 -35,-20 c-43,-10 -77,-22 -77,-64 l0,-1 c0,-38 30,-65 79,-65 c35,0 62,9 84,27 l-28,40 c-19,-13 -39,-20 -57,-20 c-14,0 -20,6 -20,13 l0,1 c0,9 7,13 36,20 c47,10 76,25 76,64 l0,1 c0,42 -33,66 -83,66 c-36,0 -70,-11 -96,-34 z" id="svg_7"/>
  <path class="fil0" d="M1576.4530487060547,543.2760238647461 l88,0 c51,0 85,27 85,71 l0,1 c0,48 -37,74 -87,74 l-28,0 l0,58 l-57,0 l0,-204 zm84,101 c20,0 32,-11 32,-27 l0,-1 c0,-17 -13,-27 -33,-27 l-27,0 l0,54 l27,0 z" id="svg_8"/>
  <polygon class="fil0" points="1784.4530029296875,543.2760543823242 1841.4530029296875,543.2760543823242 1841.4530029296875,620.2760543823242 1913.4530029296875,620.2760543823242 1913.4530029296875,543.2760543823242 1970.4530029296875,543.2760543823242 1970.4530029296875,748.2760543823242 1913.4530029296875,748.2760543823242 1913.4530029296875,670.2760543823242 1841.4530029296875,670.2760543823242 1841.4530029296875,748.2760543823242 1784.4530029296875,748.2760543823242 " id="svg_9"/>
  <polygon class="fil0" points="2019.4530029296875,748.2760543823242 2076.453125,748.2760543823242 2076.453125,543.2760543823242 2019.4530029296875,543.2760543823242 " id="svg_10"/>
  <polygon class="fil0" points="2125.453125,543.2760543823242 2181.453125,543.2760543823242 2181.453125,698.2760543823242 2280.453125,698.2760543823242 2280.453125,748.2760543823242 2125.453125,748.2760543823242 " id="svg_11"/>
  <path class="fil0" d="M2387.4530487060547,542.2760238647461 l55,0 l87,206 l-61,0 l-15,-37 l-79,0 l-15,37 l-59,0 l87,-206 zm50,125 l-23,-58 l-23,58 l46,0 z" id="svg_12"/>
  <polygon class="fil0" points="2560.453125,543.2760543823242 2613.453125,543.2760543823242 2697.453125,651.2760543823242 2697.453125,543.2760543823242 2753.453125,543.2760543823242 2753.453125,748.2760543823242 2703.453125,748.2760543823242 2616.453125,636.2760543823242 2616.453125,748.2760543823242 2560.453125,748.2760543823242 " id="svg_13"/>
  <polygon class="fil0" points="2850.453125,593.2760543823242 2789.453125,593.2760543823242 2789.453125,543.2760543823242 2968.453125,543.2760543823242 2968.453125,593.2760543823242 2907.453125,593.2760543823242 2907.453125,748.2760543823242 2850.453125,748.2760543823242 " id="svg_14"/>
  <polygon class="fil0" points="3005.453125,543.2760543823242 3061.453125,543.2760543823242 3061.453125,620.2760543823242 3134.453125,620.2760543823242 3134.453125,543.2760543823242 3190.453125,543.2760543823242 3190.453125,748.2760543823242 3134.453125,748.2760543823242 3134.453125,670.2760543823242 3061.453125,670.2760543823242 3061.453125,748.2760543823242 3005.453125,748.2760543823242 " id="svg_15"/>
  <path class="fil0" d="M3238.4530487060547,543.2760238647461 l97,0 c31,0 53,8 66,22 c12,12 18,27 18,48 l0,1 c0,31 -17,52 -42,63 l49,71 l-65,0 l-41,-62 l-25,0 l0,62 l-57,0 l0,-204 zm94,98 c19,0 30,-9 30,-24 l0,-1 c0,-16 -12,-24 -31,-24 l-37,0 l0,49 l38,0 z" id="svg_16"/>
  <path class="fil0" d="M3453.4530487060547,646.2760238647461 l0,-1 c0,-59 47,-106 110,-106 c63,0 110,47 110,106 l0,1 c0,59 -47,106 -110,106 c-63,0 -110,-47 -110,-106 zm162,0 l0,-1 c0,-30 -21,-55 -52,-55 c-31,0 -52,25 -52,55 l0,1 c0,29 21,55 53,55 c31,0 52,-25 52,-55 z" id="svg_17"/>
  <path class="fil0" d="M3714.4530487060547,543.2760238647461 l88,0 c51,0 85,27 85,71 l0,1 c0,48 -37,74 -87,74 l-28,0 l0,58 l-57,0 l0,-204 zm84,101 c20,0 32,-11 32,-27 l0,-1 c0,-17 -13,-27 -33,-27 l-27,0 l0,54 l27,0 z" id="svg_18"/>
  <polygon class="fil0" points="3976.453125,671.2760543823242 3898.453125,543.2760543823242 3962.453125,543.2760543823242 4004.453125,618.2760543823242 4047.453125,543.2760543823242 4110.452880859375,543.2760543823242 4032.453125,670.2760543823242 4032.453125,748.2760543823242 3976.453125,748.2760543823242 " id="svg_19"/>
  <path class="fil0" d="M1569.4530487060547,1007.2760238647461 l0,-1 c0,-59 47,-106 110,-106 c36,0 61,11 83,29 l-33,40 c-15,-12 -29,-19 -49,-19 c-29,0 -52,24 -52,56 l0,1 c0,33 23,57 55,57 c14,0 25,-3 33,-8 l0,-25 l-40,0 l0,-41 l94,0 l0,92 c-22,18 -51,32 -89,32 c-64,0 -111,-44 -111,-106 z" id="svg_20"/>
  <path class="fil0" d="M1812.4530487060547,905.2760238647461 l97,0 c31,0 53,8 67,22 c12,12 18,27 18,48 l0,1 c0,31 -17,52 -42,63 l49,71 l-65,0 l-41,-62 l-25,0 l0,62 l-57,0 l0,-204 zm94,98 c19,0 30,-9 30,-24 l0,-1 c0,-16 -12,-24 -31,-24 l-37,0 l0,49 l38,0 z" id="svg_21"/>
  <path class="fil0" d="M2027.4530487060547,1007.2760238647461 l0,-1 c0,-59 47,-106 110,-106 c63,0 110,47 110,106 l0,1 c0,59 -47,106 -110,106 c-63,0 -110,-47 -110,-106 zm162,0 l0,-1 c0,-30 -21,-55 -52,-55 c-31,0 -52,25 -52,55 l0,1 c0,29 21,55 52,55 c31,0 52,-25 52,-55 z" id="svg_22"/>
  <path class="fil0" d="M2285.4530487060547,1019.2760238647461 l0,-115 l57,0 l0,113 c0,29 15,43 38,43 c23,0 38,-13 38,-42 l0,-115 l57,0 l0,113 c0,66 -38,95 -96,95 c-58,0 -94,-29 -94,-93 z" id="svg_23"/>
  <path class="fil0" d="M2520.4530487060547,905.2760238647461 l88,0 c51,0 85,27 85,71 l0,1 c0,48 -37,74 -87,74 l-28,0 l0,58 l-57,0 l0,-204 zm84,101 c20,0 32,-11 32,-27 l0,-1 c0,-17 -13,-27 -33,-27 l-27,0 l0,54 l27,0 z" id="svg_24"/>
  <path class="fil1" d="M397.4530487060547,1047.276023864746 c225,296 374,351 527,142 c-97,-10 -219,-40 -369,-87 c-59,-19 -111,-37 -158,-55 z" id="svg_25"/>
  <path class="fil1" d="M407.4530487060547,213.2760238647461 c20,-11 52,-17 97,-15 c1,-1 1,-2 2,-3 c23,-40 45,-73 68,-100 c-398,68 -756,301 -473,594 c2,2 4,5 6,7 c48,-89 154,-186 255,-302 c-9,-89 -5,-153 46,-180 z" id="svg_26"/>
  <path class="fil1" d="M884.4530487060547,77.2760238647461 c127,131 223,393 261,520 c13,44 25,86 34,125 c50,-104 92,-197 107,-244 c83,-262 -128,-383 -402,-402 z" id="svg_27"/>
  <path class="fil2" d="M397.4530487060547,1047.276023864746 c-81,-97 -175,-217 -291,-352 c-66,123 -24,231 291,352 z" id="svg_28"/>
  <path class="fil2" d="M574.4530487060547,95.2760238647461 c104,-18 212,-24 311,-18 c-91,-93 -197,-119 -311,18 z" id="svg_29"/>
  <path class="fil2" d="M1180.4530487060547,723.2760238647461 c-89,183 -206,401 -256,467 c278,28 344,-109 256,-467 z" id="svg_30"/>
  <path class="fil3" d="M1067.4530487060547,468.2760238647461 c-26,-61 -122,-141 -295,-204 c-119,-44 -206,-62 -268,-65 c-46,-2 -77,4 -97,15 c-51,27 -55,91 -46,180 c10,99 38,229 37,375 c-3,422 356,197 498,65 c153,-141 214,-265 171,-366 zm-192,245 c-150,109 -358,162 -380,-135 c-26,-346 128,-338 315,-238 c104,56 147,96 174,138 c45,69 -4,158 -109,235 z" id="svg_31"/>
  <path class="fil0" d="M875.4530487060547,713.2760238647461 c105,-76 154,-165 109,-235 c-27,-41 -70,-82 -174,-138 c-187,-101 -341,-109 -315,238 c22,297 231,243 380,135 z" id="svg_32"/>
  <path class="fil4" d="M884.4530487060547,77.2760238647461 c-99,-7 -206,0 -311,18 c-22,27 -45,60 -68,100 c-1,1 -1,2 -2,3 c61,3 148,22 268,65 c173,64 269,143 295,204 c43,101 -18,225 -171,366 c-143,132 -501,356 -498,-65 c1,-146 -27,-276 -37,-375 c-101,116 -207,213 -255,302 c116,136 210,255 291,352 c46,18 99,36 158,55 c150,48 272,77 369,87 c50,-66 167,-284 256,-467 c-10,-39 -21,-81 -34,-125 c-38,-127 -134,-390 -261,-520 z" id="svg_33"/>
 </g></g></svg>