<?xml version="1.0" encoding="UTF-8" standalone="no"?>
<!-- Generator: Adobe Illustrator 22.0.1, SVG Export Plug-In . SVG Version: 6.00 Build 0)  -->

<svg
   xmlns:dc="http://purl.org/dc/elements/1.1/"
   xmlns:cc="http://creativecommons.org/ns#"
   xmlns:rdf="http://www.w3.org/1999/02/22-rdf-syntax-ns#"
   xmlns:svg="http://www.w3.org/2000/svg"
   xmlns="http://www.w3.org/2000/svg"
   xmlns:sodipodi="http://sodipodi.sourceforge.net/DTD/sodipodi-0.dtd"
   xmlns:inkscape="http://www.inkscape.org/namespaces/inkscape"
   version="1.1"
   id="Слой_1"
   x="0px"
   y="0px"
   viewBox="0 0 1715 550"
   xml:space="preserve"
   sodipodi:docname="logo.svg"
   inkscape:version="0.92.2 (5c3e80d, 2017-08-06)"
   width="1715"
   height="550"><metadata
     id="metadata94"><rdf:RDF><cc:Work
         rdf:about=""><dc:format>image/svg+xml</dc:format><dc:type
           rdf:resource="http://purl.org/dc/dcmitype/StillImage" /><dc:title /></cc:Work></rdf:RDF></metadata><defs
     id="defs92" /><sodipodi:namedview
     pagecolor="#333333"
     bordercolor="#666666"
     borderopacity="1"
     objecttolerance="10"
     gridtolerance="10"
     guidetolerance="10"
     inkscape:pageopacity="0"
     inkscape:pageshadow="2"
     inkscape:window-width="1366"
     inkscape:window-height="706"
     id="namedview90"
     showgrid="false"
     inkscape:zoom="0.51"
     inkscape:cx="994.89038"
     inkscape:cy="228.46345"
     inkscape:window-x="-8"
     inkscape:window-y="-8"
     inkscape:window-maximized="1"
     inkscape:current-layer="Слой_1" /><style
     type="text/css"
     id="style53">
	.st0{fill:#FFE073;}
	.st1{fill:#FFC600;}
	.st2{fill:#FFFFFF;}
	.st3{fill:none;stroke:#FFFFFF;stroke-width:22;stroke-linecap:round;stroke-miterlimit:10;}
</style><g
     id="Слой_2_1_"
     transform="translate(0,35)" /><g
     id="Layer_1"
     transform="translate(0,34.6)"><polygon
       class="st0"
       points="201.3,505.4 160.5,485.4 100.5,452.4 18.5,336.4 18.5,214.4 43.5,131.4 115.5,56.4 206.5,19.4 "
       id="polygon56"
       style="fill:#ffe073" /><polyline
       class="st1"
       points="375.5,38.4 454.5,105.4 513.4,234.2 480.5,366.3 403.5,460.4 326.5,505.4 198.5,499.4 198.5,16.3    367.5,28.9  "
       id="polyline58"
       style="fill:#ffc600" /><g
       id="g64"><g
         id="g62"><path
           class="st2"
           d="M 439.5,77.4 C 391.1,29 326.9,2.4 258.5,2.4 c -68.4,0 -132.7,26.6 -181,75 -48.4,48.4 -75,112.6 -75,181 0,68.4 26.6,132.7 75,181 48.4,48.4 112.6,75 181,75 68.4,0 132.7,-26.6 181,-75 48.4,-48.4 75,-112.6 75,-181 0,-68.4 -26.6,-132.6 -75,-181 z M 258.5,494 C 128.6,494 22.9,388.3 22.9,258.4 22.9,128.5 128.6,22.8 258.5,22.8 388.4,22.8 494.1,128.5 494.1,258.4 494.1,388.3 388.4,494 258.5,494 Z"
           id="path60"
           inkscape:connector-curvature="0"
           style="fill:#ffffff" /></g></g><g
       id="g70"><g
         id="g68"><path
           class="st2"
           d="m 412.6,397.1 c -4,-4 -10.5,-4 -14.4,0 -37.2,37.5 -86.8,58.1 -139.6,58.1 -5.6,0 -10.2,4.6 -10.2,10.2 0,5.6 4.6,10.2 10.2,10.2 58.3,0 113,-22.8 154.1,-64.1 3.9,-3.9 3.9,-10.4 -0.1,-14.4 z"
           id="path66"
           inkscape:connector-curvature="0"
           style="fill:#ffffff" /></g></g><g
       id="g76"><g
         id="g74"><path
           class="st2"
           d="m 442.7,353.7 c -4.9,-2.8 -11.1,-1.2 -13.9,3.7 -1.4,2.4 -2.9,4.9 -4.4,7.2 -3,4.7 -1.7,11.1 3.1,14.1 1.7,1.1 3.6,1.6 5.5,1.6 3.4,0 6.6,-1.7 8.6,-4.7 1.7,-2.6 3.3,-5.3 4.9,-8 2.7,-4.9 1,-11.1 -3.8,-13.9 z"
           id="path72"
           inkscape:connector-curvature="0"
           style="fill:#ffffff" /></g></g><line
       class="st3"
       x1="198.5"
       y1="450.39999"
       x2="198.5"
       y2="204.39999"
       id="line78"
       style="fill:none;stroke:#ffffff;stroke-width:22;stroke-linecap:round;stroke-miterlimit:10" /><line
       class="st3"
       x1="201.3"
       y1="202.5"
       x2="463.29999"
       y2="91.300003"
       id="line80"
       style="fill:none;stroke:#ffffff;stroke-width:22;stroke-linecap:round;stroke-miterlimit:10" /><line
       class="st3"
       x1="198.89999"
       y1="200.60001"
       x2="302.79999"
       y2="125.2"
       id="line82"
       style="fill:none;stroke:#ffffff;stroke-width:22;stroke-linecap:round;stroke-miterlimit:10" /><line
       class="st3"
       x1="332.29999"
       y1="99.699997"
       x2="355.89999"
       y2="82.5"
       id="line84"
       style="fill:none;stroke:#ffffff;stroke-width:22;stroke-linecap:round;stroke-miterlimit:10" /><line
       class="st3"
       x1="196.7"
       y1="200.39999"
       x2="71.300003"
       y2="102.4"
       id="line86"
       style="fill:none;stroke:#ffffff;stroke-width:22;stroke-linecap:round;stroke-miterlimit:10" /></g><text
     xml:space="preserve"
     style="font-style:normal;font-weight:normal;font-size:26.66666603px;line-height:1.25;font-family:sans-serif;letter-spacing:0px;word-spacing:0px;fill:#000000;fill-opacity:1;stroke:none;stroke-width:0.75391263"
     x="225.85515"
     y="370.22739"
     id="text108"><tspan
       sodipodi:role="line"
       id="tspan106"
       x="225.85515"
       y="393.82114"
       style="font-style:normal;font-variant:normal;font-weight:normal;font-stretch:normal;font-size:26.66666603px;font-family:'zero 5';-inkscape-font-specification:'zero 5, ';fill:#ffffff;stroke-width:0.75391263" /></text>
<g
     aria-label="центр"
     style="font-style:normal;font-weight:normal;font-size:227.19529724px;line-height:1.25;font-family:sans-serif;letter-spacing:0px;word-spacing:0px;fill:#000000;fill-opacity:1;stroke:none;stroke-width:5.67988348"
     id="text112"><path
       d="M 737.80918,398.47958 H 653.46046 V 244.03825 q 0,-38.01633 -26.53223,-38.01633 Q 600,206.02192 600,244.03825 v 161.17339 q 0,38.01633 36.82831,38.01633 h 171.07348 q 11.0881,0 17.42415,-5.14805 6.33605,-5.54405 6.33605,-16.63214 0,-11.4841 -6.33605,-17.02815 -6.33605,-5.94005 -17.42415,-5.94005 H 790.87364 V 244.03825 q 0,-38.01633 -26.53223,-38.01633 -26.53223,0 -26.53223,38.01633 z"
       style="font-style:normal;font-variant:normal;font-weight:normal;font-stretch:normal;font-size:396.00341797px;font-family:aMavickFont;-inkscape-font-specification:aMavickFont;fill:#ffffff;stroke-width:5.67988348"
       id="path92" /><path
       d="m 974.10567,209.18995 h -59.79652 q -22.57219,0 -29.70025,9.10807 -7.12806,8.71208 -7.12806,28.11625 v 163.15341 q 0,19.00816 7.12806,26.53222 7.52406,7.12807 28.90825,7.12807 h 62.17253 q 38.01632,0 38.01632,-24.55222 0,-24.94821 -38.01632,-24.94821 h -45.14439 v -43.95638 h 37.62033 q 37.62028,0 37.62028,-24.55221 0,-24.55221 -37.62028,-24.55221 h -37.62033 v -41.97637 h 43.56038 q 38.01633,0 38.01633,-24.55221 0,-24.94821 -38.01633,-24.94821 z"
       style="font-style:normal;font-variant:normal;font-weight:normal;font-stretch:normal;font-size:396.00341797px;font-family:aMavickFont;-inkscape-font-specification:aMavickFont;fill:#ffffff;stroke-width:5.67988348"
       id="path94" /><path
       d="m 1123.1329,408.37967 v -59.79652 h 98.2089 v 59.79652 q 0,37.62032 26.5322,37.62032 26.5322,0 26.5322,-37.62032 V 244.03825 q 0,-38.01633 -26.5322,-38.01633 -26.5322,0 -26.5322,38.01633 v 55.04447 h -98.2089 v -55.04447 q 0,-38.01633 -26.5322,-38.01633 -26.5322,0 -26.5322,38.01633 v 164.34142 q 0,37.62032 26.5322,37.62032 26.5322,0 26.5322,-37.62032 z"
       style="font-style:normal;font-variant:normal;font-weight:normal;font-stretch:normal;font-size:396.00341797px;font-family:aMavickFont;-inkscape-font-specification:aMavickFont;fill:#ffffff;stroke-width:5.67988348"
       id="path96" /><path
       d="m 1359.4727,258.69037 h 19.8001 v 149.6893 q 0,37.62032 26.5323,37.62032 26.5322,0 26.5322,-37.62032 v -149.6893 h 19.8002 q 38.0163,0 38.0163,-24.55221 0,-24.94821 -38.0163,-24.94821 h -92.6648 q -38.0164,0 -38.0164,24.94821 0,24.55221 38.0164,24.55221 z"
       style="font-style:normal;font-variant:normal;font-weight:normal;font-stretch:normal;font-size:396.00341797px;font-family:aMavickFont;-inkscape-font-specification:aMavickFont;fill:#ffffff;stroke-width:5.67988348"
       id="path98" /><path
       d="m 1616.3551,319.6749 h -22.9682 v -61.38053 h 22.9682 q 36.8284,0 36.8284,30.49226 0,30.88827 -36.8284,30.88827 z m -22.9682,88.70477 v -40.39235 h 36.0363 q 38.8084,0 60.1926,-20.98818 Q 1711,325.61495 1711,288.78663 q 0,-36.43231 -22.9682,-57.8165 -22.5722,-21.78018 -62.9646,-21.78018 h -47.9164 q -22.5722,0 -29.7003,9.10807 -7.128,8.71208 -7.128,28.11625 v 161.9654 q 0,37.62032 26.5322,37.62032 26.5322,0 26.5322,-37.62032 z"
       style="font-style:normal;font-variant:normal;font-weight:normal;font-stretch:normal;font-size:396.00341797px;font-family:aMavickFont;-inkscape-font-specification:aMavickFont;fill:#ffffff;stroke-width:5.67988348"
       id="path100" /></g><g
     aria-label="ресурсный"
     style="font-style:normal;font-weight:normal;font-size:208.04389954px;line-height:1.25;font-family:sans-serif;letter-spacing:0px;word-spacing:0px;fill:#000000;fill-opacity:1;stroke:none;stroke-width:5.20109749"
     id="text145"><path
       d="M 639.94443,97.774263 H 627.87788 V 65.527459 h 12.06655 q 19.34808,0 19.34808,16.01938 0,16.227424 -19.34808,16.227424 z M 627.87788,144.3761 v -21.22048 h 18.932 q 20.3883,0 31.62267,-11.02633 11.23437,-11.23437 11.23437,-30.582451 0,-19.140039 -12.06655,-30.374409 -11.8585,-11.442415 -33.07898,-11.442415 h -25.17331 q -11.8585,0 -15.60329,4.78501 Q 600,49.091991 600,59.286142 V 144.3761 q 0,19.76417 13.93894,19.76417 13.93894,0 13.93894,-19.76417 z"
       style="font-style:normal;font-variant:normal;font-weight:normal;font-stretch:normal;font-family:aMavickFont;-inkscape-font-specification:aMavickFont;fill:#ffffff;stroke-width:5.20109749"
       id="path73" /><path
       d="m 768.19374,39.730015 h -31.41463 q -11.8585,0 -15.60329,4.78501 -3.74479,4.576966 -3.74479,14.771117 v 85.714088 q 0,9.98611 3.74479,13.93894 3.95283,3.74479 15.1872,3.74479 h 32.6629 q 19.97221,0 19.97221,-12.89872 0,-13.10677 -19.97221,-13.10677 H 745.30891 V 113.5856 h 19.76417 q 19.76417,0 19.76417,-12.89872 0,-12.898724 -19.76417,-12.898724 H 745.30891 V 65.735503 h 22.88483 q 19.97221,0 19.97221,-12.898722 0,-13.106766 -19.97221,-13.106766 z"
       style="font-style:normal;font-variant:normal;font-weight:normal;font-stretch:normal;font-family:aMavickFont;-inkscape-font-specification:aMavickFont;fill:#ffffff;stroke-width:5.20109749"
       id="path75" /><path
       d="m 877.27701,164.14027 q 17.0596,0 27.46179,-6.03328 10.4022,-6.24131 10.4022,-14.14698 0,-4.78501 -3.53675,-8.32176 -3.53675,-3.74479 -7.69763,-3.74479 -4.785,0 -10.81828,3.12066 -6.03327,2.91262 -14.56307,2.91262 -13.7309,0 -22.05265,-9.57002 -8.32176,-9.57002 -8.32176,-26.42158 0,-17.267642 8.11371,-27.25375 8.32176,-10.194151 21.42852,-10.194151 7.69763,0 13.7309,2.496527 6.03327,2.288483 10.61024,2.288483 4.57697,0 8.11371,-3.536746 3.53675,-3.74479 3.53675,-8.5298 0,-3.74479 -2.70457,-7.073493 -2.70457,-3.536746 -7.48958,-6.033273 -4.78501,-2.70457 -11.44242,-4.368922 -6.6574,-1.664351 -14.56307,-1.664351 -12.48263,0 -23.30092,4.576966 -10.61024,4.368922 -18.5159,12.690678 -7.90567,8.113712 -12.48264,19.972214 -4.57696,11.650459 -4.57696,26.005488 0,14.56307 4.16087,26.21353 4.36893,11.65046 12.06655,19.76417 7.90567,8.11371 18.72395,12.48264 10.81828,4.36892 23.71701,4.36892 z"
       style="font-style:normal;font-variant:normal;font-weight:normal;font-stretch:normal;font-family:aMavickFont;-inkscape-font-specification:aMavickFont;fill:#ffffff;stroke-width:5.20109749"
       id="path77" /><path
       d="m 983.65571,187.0251 q 4.16087,0 7.48958,-1.8724 3.3287,-1.66435 6.44936,-9.57002 L 1042.3241,60.534405 q 1.0402,-2.496527 1.4563,-4.993053 0.4161,-2.496527 0.4161,-4.576966 0,-6.033273 -3.3287,-9.361976 -3.1207,-3.536746 -9.57,-3.536746 -5.4092,0 -8.3218,3.120659 -2.9126,2.912614 -5.6172,9.986107 l -22.05264,58.66838 h -0.62413 l -24.13309,-59.7086 q -2.70457,-6.449361 -5.40914,-9.153931 -2.70457,-2.912615 -7.48958,-2.912615 -6.03327,0 -9.77806,3.952834 -3.53675,3.952834 -3.53675,9.986107 0,4.160878 1.66435,7.905669 l 34.74333,85.922126 -7.90567,19.76417 q -1.66435,3.95284 -1.66435,8.11372 0,6.03327 3.12066,9.57002 3.12066,3.74479 9.36198,3.74479 z"
       style="font-style:normal;font-variant:normal;font-weight:normal;font-stretch:normal;font-family:aMavickFont;-inkscape-font-specification:aMavickFont;fill:#ffffff;stroke-width:5.20109749"
       id="path79" /><path
       d="m 1112.9192,97.774263 h -12.0665 V 65.527459 h 12.0665 q 19.3481,0 19.3481,16.01938 0,16.227424 -19.3481,16.227424 z m -12.0665,46.601837 v -21.22048 h 18.932 q 20.3883,0 31.6226,-11.02633 11.2344,-11.23437 11.2344,-30.582451 0,-19.140039 -12.0665,-30.374409 -11.8585,-11.442415 -33.079,-11.442415 h -25.1733 q -11.8585,0 -15.6033,4.78501 -3.7448,4.576966 -3.7448,14.771117 V 144.3761 q 0,19.76417 13.9389,19.76417 13.939,0 13.939,-19.76417 z"
       style="font-style:normal;font-variant:normal;font-weight:normal;font-stretch:normal;font-family:aMavickFont;-inkscape-font-specification:aMavickFont;fill:#ffffff;stroke-width:5.20109749"
       id="path81" /><path
       d="m 1249.0742,164.14027 q 17.0596,0 27.4618,-6.03328 10.4022,-6.24131 10.4022,-14.14698 0,-4.78501 -3.5368,-8.32176 -3.5367,-3.74479 -7.6976,-3.74479 -4.785,0 -10.8183,3.12066 -6.0332,2.91262 -14.563,2.91262 -13.7309,0 -22.0527,-9.57002 -8.3217,-9.57002 -8.3217,-26.42158 0,-17.267642 8.1137,-27.25375 8.3217,-10.194151 21.4285,-10.194151 7.6976,0 13.7309,2.496527 6.0333,2.288483 10.6102,2.288483 4.577,0 8.1137,-3.536746 3.5368,-3.74479 3.5368,-8.5298 0,-3.74479 -2.7046,-7.073493 -2.7046,-3.536746 -7.4896,-6.033273 -4.785,-2.70457 -11.4424,-4.368922 -6.6574,-1.664351 -14.5631,-1.664351 -12.4826,0 -23.3009,4.576966 -10.6102,4.368922 -18.5159,12.690678 -7.9056,8.113712 -12.4826,19.972214 -4.577,11.650459 -4.577,26.005488 0,14.56307 4.1609,26.21353 4.3689,11.65046 12.0665,19.76417 7.9057,8.11371 18.724,12.48264 10.8183,4.36892 23.717,4.36892 z"
       style="font-style:normal;font-variant:normal;font-weight:normal;font-stretch:normal;font-family:aMavickFont;-inkscape-font-specification:aMavickFont;fill:#ffffff;stroke-width:5.20109749"
       id="path83" /><path
       d="m 1345.4668,144.3761 v -31.41463 h 51.5949 v 31.41463 q 0,19.76417 13.9389,19.76417 13.939,0 13.939,-19.76417 V 58.037878 q 0,-19.972214 -13.939,-19.972214 -13.9389,0 -13.9389,19.972214 v 28.918103 h -51.5949 V 58.037878 q 0,-19.972214 -13.9389,-19.972214 -13.939,0 -13.939,19.972214 V 144.3761 q 0,19.76417 13.939,19.76417 13.9389,0 13.9389,-19.76417 z"
       style="font-style:normal;font-variant:normal;font-weight:normal;font-stretch:normal;font-family:aMavickFont;-inkscape-font-specification:aMavickFont;fill:#ffffff;stroke-width:5.20109749"
       id="path85" /><path
       d="m 1476.2874,136.88652 v -32.24681 h 8.9459 q 19.14,0 19.14,16.22743 0,16.01938 -19.14,16.01938 z m 0,-57.836208 V 58.037878 q 0,-19.972214 -13.9389,-19.972214 -13.939,0 -13.939,19.972214 v 84.881912 q 0,10.19415 3.7448,14.97916 3.7448,4.78501 15.6033,4.78501 h 21.0124 q 21.0125,0 32.871,-11.44241 12.0665,-11.44242 12.0665,-30.37441 0,-19.34809 -11.2343,-30.582457 -11.0264,-11.234371 -31.4147,-11.234371 z M 1577.3967,144.3761 V 58.037878 q 0,-19.972214 -14.1469,-19.972214 -13.939,0 -13.939,19.972214 V 144.3761 q 0,19.76417 13.939,19.76417 14.1469,0 14.1469,-19.76417 z"
       style="font-style:normal;font-variant:normal;font-weight:normal;font-stretch:normal;font-family:aMavickFont;-inkscape-font-specification:aMavickFont;fill:#ffffff;stroke-width:5.20109749"
       id="path87" /><path
       d="m 1657.3246,38.273708 q -12.6907,0 -20.5963,-6.033273 -7.9057,-6.241317 -7.9057,-13.938941 0,-4.368922 2.2885,-6.865449 2.4965,-2.7045707 6.6574,-2.7045707 4.1609,0 5.6172,1.8723947 1.6643,1.664352 2.9126,3.744791 1.4563,2.080439 3.5367,3.952834 2.2885,1.664351 7.4896,1.664351 5.2011,0 7.2816,-1.664351 2.2884,-1.872395 3.5367,-3.952834 1.2483,-2.080439 2.7046,-3.744791 1.6643,-1.8723947 5.8252,-1.8723947 4.3689,0 6.6574,2.7045707 2.4965,2.496527 2.4965,6.865449 0,7.905668 -7.9056,13.938941 -7.9057,6.033273 -20.5964,6.033273 z m 25.7975,49.514448 V 144.3761 q 0,19.76417 13.9389,19.76417 13.9389,0 13.9389,-19.76417 V 56.997659 q 0,-9.153932 -3.1206,-13.938941 -2.9126,-4.993054 -9.7781,-4.993054 -4.785,0 -8.1137,2.496527 -3.3287,2.288483 -6.6574,6.657405 l -51.8029,68.446444 V 58.037878 q 0,-19.972214 -13.939,-19.972214 -13.9389,0 -13.9389,19.972214 v 89.458882 q 0,8.5298 2.9126,12.69067 2.9126,3.95284 9.57,3.95284 4.577,0 8.3218,-1.8724 3.9528,-2.08044 7.9056,-7.48958 z"
       style="font-style:normal;font-variant:normal;font-weight:normal;font-stretch:normal;font-family:aMavickFont;-inkscape-font-specification:aMavickFont;fill:#ffffff;stroke-width:5.20109749"
       id="path89" /></g><g
     aria-label="еврейского просвещения"
     style="font-style:normal;font-variant:normal;font-weight:normal;font-stretch:normal;font-size:85.57611847px;line-height:1.25;font-family:aMavickFont;-inkscape-font-specification:aMavickFont;letter-spacing:0px;word-spacing:0px;fill:#ffffff;fill-opacity:1;stroke:none;stroke-width:2.1394031"
     id="text149"><path
       d="m 620.88055,497.82551 h -12.92199 q -4.87784,0 -6.41821,1.96826 -1.54037,1.88267 -1.54037,6.0759 v 35.25736 q 0,4.10765 1.54037,5.7336 1.62594,1.54037 6.24705,1.54037 h 13.43545 q 8.21531,0 8.21531,-5.30572 0,-5.39129 -8.21531,-5.39129 h -9.75567 v -9.49895 h 8.12973 q 8.12973,0 8.12973,-5.30572 0,-5.30572 -8.12973,-5.30572 h -8.12973 v -9.07107 h 9.41337 q 8.21531,0 8.21531,-5.30572 0,-5.3913 -8.21531,-5.3913 z"
       style="stroke-width:2.1394031"
       id="path103" /><path
       d="m 649.23432,548.401 h 11.38163 q 8.81434,0 13.43545,-4.10765 4.62111,-4.19323 4.62111,-11.1249 0,-4.70668 -1.96825,-7.27397 -1.96825,-2.65286 -6.41821,-4.10765 v -0.17115 q 3.5942,-1.7971 4.79226,-4.62111 1.19807,-2.82402 1.19807,-6.58937 0,-5.7336 -4.87784,-9.15664 -4.79226,-3.42305 -12.57969,-3.42305 h -9.41337 q -4.87784,0 -6.41821,1.96826 -1.54037,1.88267 -1.54037,6.0759 v 35.25736 q 0,4.10765 1.54037,5.7336 1.62594,1.54037 6.24705,1.54037 z m 3.67978,-9.92683 v -11.89508 h 5.56244 q 4.62111,0 6.33264,1.45479 1.71152,1.36922 1.71152,4.79227 0,2.73843 -1.71152,4.19323 -1.71153,1.45479 -6.16148,1.45479 z m 0,-20.88057 v -9.92683 h 4.96341 q 6.76052,0 6.76052,4.87784 0,2.73843 -1.4548,3.9365 -1.45479,1.11249 -5.30572,1.11249 z"
       style="stroke-width:2.1394031"
       id="path105" /><path
       d="m 707.52236,521.70125 h -4.96342 v -13.2643 h 4.96342 q 7.95858,0 7.95858,6.58936 0,6.67494 -7.95858,6.67494 z m -4.96342,19.16905 v -8.72876 h 7.78743 q 8.38646,0 13.00757,-4.53554 4.62111,-4.62111 4.62111,-12.57969 0,-7.873 -4.96341,-12.49411 -4.87784,-4.70669 -13.60661,-4.70669 h -10.35471 q -4.87784,0 -6.41821,1.96826 -1.54037,1.88267 -1.54037,6.0759 v 35.00063 q 0,8.12973 5.7336,8.12973 5.7336,0 5.7336,-8.12973 z"
       style="stroke-width:2.1394031"
       id="path107" /><path
       d="m 760.27603,497.82551 h -12.922 q -4.87784,0 -6.41821,1.96826 -1.54037,1.88267 -1.54037,6.0759 v 35.25736 q 0,4.10765 1.54037,5.7336 1.62595,1.54037 6.24706,1.54037 h 13.43545 q 8.21531,0 8.21531,-5.30572 0,-5.39129 -8.21531,-5.39129 h -9.75568 v -9.49895 h 8.12974 q 8.12973,0 8.12973,-5.30572 0,-5.30572 -8.12973,-5.30572 h -8.12974 v -9.07107 h 9.41338 q 8.2153,0 8.2153,-5.30572 0,-5.3913 -8.2153,-5.3913 z"
       style="stroke-width:2.1394031"
       id="path109" /><path
       d="m 803.09217,497.22648 q -5.22015,0 -8.47204,-2.48171 -3.25189,-2.56728 -3.25189,-5.7336 0,-1.79709 0.94133,-2.82401 1.02692,-1.11249 2.73844,-1.11249 1.71152,0 2.31056,0.77019 0.6846,0.68461 1.19806,1.54037 0.59903,0.85576 1.45479,1.62594 0.94134,0.68461 3.08075,0.68461 2.1394,0 2.99516,-0.68461 0.94134,-0.77018 1.45479,-1.62594 0.51346,-0.85576 1.11249,-1.54037 0.68461,-0.77019 2.39613,-0.77019 1.7971,0 2.73844,1.11249 1.02691,1.02692 1.02691,2.82401 0,3.2519 -3.25189,5.7336 -3.25189,2.48171 -8.47203,2.48171 z m 10.61143,20.36712 v 23.2767 q 0,8.12973 5.7336,8.12973 5.7336,0 5.7336,-8.12973 v -35.94197 q 0,-3.76535 -1.28364,-5.7336 -1.19806,-2.05382 -4.02208,-2.05382 -1.96825,0 -3.33746,1.02691 -1.36922,0.94134 -2.73844,2.73844 l -21.30845,28.15454 v -23.70459 q 0,-8.2153 -5.7336,-8.2153 -5.7336,0 -5.7336,8.2153 v 36.79773 q 0,3.50863 1.19806,5.22015 1.19807,1.62594 3.9365,1.62594 1.88268,0 3.42305,-0.77018 1.62594,-0.85576 3.25189,-3.08074 z"
       style="stroke-width:2.1394031"
       id="path111" /><path
       d="m 862.47531,549.00003 q 7.01724,0 11.29604,-2.4817 4.27881,-2.56729 4.27881,-5.81918 0,-1.96825 -1.45479,-3.42304 -1.4548,-1.54037 -3.16632,-1.54037 -1.96825,0 -4.44996,1.28364 -2.48171,1.19806 -5.99033,1.19806 -5.64802,0 -9.07106,-3.9365 -3.42305,-3.9365 -3.42305,-10.86817 0,-7.10281 3.33747,-11.21047 3.42304,-4.19323 8.81434,-4.19323 3.16632,0 5.64802,1.02692 2.48171,0.94133 4.36439,0.94133 1.88267,0 3.33746,-1.45479 1.4548,-1.54037 1.4548,-3.50862 0,-1.54037 -1.11249,-2.90959 -1.11249,-1.45479 -3.08074,-2.48171 -1.96825,-1.11249 -4.70669,-1.7971 -2.73843,-0.6846 -5.99033,-0.6846 -5.13456,0 -9.58452,1.88267 -4.36438,1.7971 -7.61628,5.22014 -3.25189,3.33747 -5.13456,8.21531 -1.88268,4.79226 -1.88268,10.69702 0,5.99032 1.71152,10.78259 1.7971,4.79226 4.96342,8.12973 3.25189,3.33747 7.70185,5.13457 4.44996,1.79709 9.75568,1.79709 z"
       style="stroke-width:2.1394031"
       id="path113" /><path
       d="m 890.65794,505.35621 v 35.51409 q 0,8.12973 5.7336,8.12973 5.7336,0 5.7336,-8.12973 v -11.98065 l 2.05382,-1.62595 15.23255,17.71426 q 1.54037,1.88267 2.90959,2.99516 1.45479,1.02691 3.33747,1.02691 1.88267,0 3.5942,-1.54037 1.71152,-1.54037 1.71152,-3.76535 0,-2.31055 -2.90959,-5.7336 l -15.48928,-17.37195 11.72393,-11.55277 q 2.90959,-2.90959 3.67977,-4.10766 0.85576,-1.19806 0.85576,-2.31055 0,-2.13941 -1.79709,-3.76535 -1.71153,-1.71152 -3.85093,-1.71152 -1.54037,0 -3.08074,1.19806 -1.54037,1.19807 -3.25189,2.90959 l -14.71909,15.14697 v -11.03932 q 0,-8.2153 -5.7336,-8.2153 -5.7336,0 -5.7336,8.2153 z"
       style="stroke-width:2.1394031"
       id="path115" /><path
       d="m 942.54111,523.15605 q 0,5.90475 1.71152,10.69701 1.7971,4.70669 4.96342,8.12973 3.16631,3.33747 7.61627,5.22015 4.44996,1.79709 9.92683,1.79709 5.47687,0 9.92683,-1.79709 4.53554,-1.88268 7.70185,-5.22015 3.16632,-3.42304 4.87784,-8.12973 1.71152,-4.79226 1.71152,-10.69701 0,-5.90476 -1.79709,-10.69702 -1.71153,-4.79226 -4.96342,-8.21531 -3.16632,-3.42304 -7.61627,-5.22014 -4.44996,-1.88267 -9.84126,-1.88267 -5.39129,0 -9.84125,1.88267 -4.44996,1.7971 -7.70185,5.22014 -3.16632,3.42305 -4.96342,8.21531 -1.71152,4.79226 -1.71152,10.69702 z m 12.49411,0 q 0,-7.27397 3.33747,-11.38163 3.33747,-4.19323 8.64319,-4.19323 5.3913,0 8.72877,4.19323 3.33746,4.10766 3.33746,11.38163 0,7.01724 -3.42304,11.03932 -3.33747,4.02207 -8.64319,4.02207 -5.30572,0 -8.64319,-4.02207 -3.33747,-4.02208 -3.33747,-11.03932 z"
       style="stroke-width:2.1394031"
       id="path117" /><path
       d="m 1003.478,505.86967 v 35.00063 q 0,8.12973 5.7336,8.12973 5.7336,0 5.7336,-8.12973 v -32.34777 h 9.4134 q 8.2153,0 8.2153,-5.30572 0,-5.3913 -8.2153,-5.3913 h -12.922 q -4.8779,0 -6.4182,1.96826 -1.5404,1.88267 -1.5404,6.0759 z"
       style="stroke-width:2.1394031"
       id="path119" /><path
       d="m 1044.6642,523.15605 q 0,5.90475 1.7115,10.69701 1.7971,4.70669 4.9634,8.12973 3.1663,3.33747 7.6163,5.22015 4.45,1.79709 9.9268,1.79709 5.4769,0 9.9269,-1.79709 4.5355,-1.88268 7.7018,-5.22015 3.1663,-3.42304 4.8778,-8.12973 1.7116,-4.79226 1.7116,-10.69701 0,-5.90476 -1.7971,-10.69702 -1.7115,-4.79226 -4.9634,-8.21531 -3.1664,-3.42304 -7.6163,-5.22014 -4.45,-1.88267 -9.8413,-1.88267 -5.3913,0 -9.8412,1.88267 -4.45,1.7971 -7.7019,5.22014 -3.1663,3.42305 -4.9634,8.21531 -1.7115,4.79226 -1.7115,10.69702 z m 12.4941,0 q 0,-7.27397 3.3375,-11.38163 3.3374,-4.19323 8.6432,-4.19323 5.3913,0 8.7287,4.19323 3.3375,4.10766 3.3375,11.38163 0,7.01724 -3.4231,11.03932 -3.3374,4.02207 -8.6431,4.02207 -5.3058,0 -8.6432,-4.02207 -3.3375,-4.02208 -3.3375,-11.03932 z"
       style="stroke-width:2.1394031"
       id="path121" /><path
       d="m 1148.8291,540.8703 v -32.86123 h 21.2228 v 32.86123 q 0,8.12973 5.7336,8.12973 5.7336,0 5.7336,-8.12973 v -34.91505 q 0,-8.12974 -7.873,-8.12974 h -28.4112 q -7.873,0 -7.873,8.12974 v 34.91505 q 0,8.12973 5.7336,8.12973 5.7336,0 5.7336,-8.12973 z"
       style="stroke-width:2.1394031"
       id="path123" /><path
       d="m 1209.4463,521.70125 h -4.9634 v -13.2643 h 4.9634 q 7.9586,0 7.9586,6.58936 0,6.67494 -7.9586,6.67494 z m -4.9634,19.16905 v -8.72876 h 7.7875 q 8.3864,0 13.0075,-4.53554 4.6211,-4.62111 4.6211,-12.57969 0,-7.873 -4.9634,-12.49411 -4.8778,-4.70669 -13.6066,-4.70669 h -10.3547 q -4.8778,0 -6.4182,1.96826 -1.5404,1.88267 -1.5404,6.0759 v 35.00063 q 0,8.12973 5.7336,8.12973 5.7336,0 5.7336,-8.12973 z"
       style="stroke-width:2.1394031"
       id="path125" /><path
       d="m 1240.7204,523.15605 q 0,5.90475 1.7115,10.69701 1.7971,4.70669 4.9634,8.12973 3.1664,3.33747 7.6163,5.22015 4.45,1.79709 9.9268,1.79709 5.4769,0 9.9269,-1.79709 4.5355,-1.88268 7.7018,-5.22015 3.1663,-3.42304 4.8779,-8.12973 1.7115,-4.79226 1.7115,-10.69701 0,-5.90476 -1.7971,-10.69702 -1.7115,-4.79226 -4.9634,-8.21531 -3.1663,-3.42304 -7.6163,-5.22014 -4.45,-1.88267 -9.8413,-1.88267 -5.3913,0 -9.8412,1.88267 -4.45,1.7971 -7.7019,5.22014 -3.1663,3.42305 -4.9634,8.21531 -1.7115,4.79226 -1.7115,10.69702 z m 12.4941,0 q 0,-7.27397 3.3375,-11.38163 3.3375,-4.19323 8.6432,-4.19323 5.3913,0 8.7287,4.19323 3.3375,4.10766 3.3375,11.38163 0,7.01724 -3.423,11.03932 -3.3375,4.02207 -8.6432,4.02207 -5.3057,0 -8.6432,-4.02207 -3.3375,-4.02208 -3.3375,-11.03932 z"
       style="stroke-width:2.1394031"
       id="path127" /><path
       d="m 1325.7897,549.00003 q 7.0173,0 11.2961,-2.4817 4.2788,-2.56729 4.2788,-5.81918 0,-1.96825 -1.4548,-3.42304 -1.4548,-1.54037 -3.1663,-1.54037 -1.9683,0 -4.45,1.28364 -2.4817,1.19806 -5.9903,1.19806 -5.648,0 -9.0711,-3.9365 -3.423,-3.9365 -3.423,-10.86817 0,-7.10281 3.3374,-11.21047 3.4231,-4.19323 8.8144,-4.19323 3.1663,0 5.648,1.02692 2.4817,0.94133 4.3644,0.94133 1.8827,0 3.3375,-1.45479 1.4548,-1.54037 1.4548,-3.50862 0,-1.54037 -1.1125,-2.90959 -1.1125,-1.45479 -3.0808,-2.48171 -1.9682,-1.11249 -4.7067,-1.7971 -2.7384,-0.6846 -5.9903,-0.6846 -5.1346,0 -9.5845,1.88267 -4.3644,1.7971 -7.6163,5.22014 -3.2519,3.33747 -5.1346,8.21531 -1.8826,4.79226 -1.8826,10.69702 0,5.99032 1.7115,10.78259 1.7971,4.79226 4.9634,8.12973 3.2519,3.33747 7.7019,5.13457 4.4499,1.79709 9.7556,1.79709 z"
       style="stroke-width:2.1394031"
       id="path129" /><path
       d="m 1361.5887,548.401 h 11.3816 q 8.8143,0 13.4354,-4.10765 4.6211,-4.19323 4.6211,-11.1249 0,-4.70668 -1.9682,-7.27397 -1.9683,-2.65286 -6.4182,-4.10765 v -0.17115 q 3.5942,-1.7971 4.7923,-4.62111 1.198,-2.82402 1.198,-6.58937 0,-5.7336 -4.8778,-9.15664 -4.7923,-3.42305 -12.5797,-3.42305 h -9.4134 q -4.8778,0 -6.4182,1.96826 -1.5404,1.88267 -1.5404,6.0759 v 35.25736 q 0,4.10765 1.5404,5.7336 1.626,1.54037 6.2471,1.54037 z m 3.6797,-9.92683 v -11.89508 h 5.5625 q 4.6211,0 6.3326,1.45479 1.7115,1.36922 1.7115,4.79227 0,2.73843 -1.7115,4.19323 -1.7115,1.45479 -6.1615,1.45479 z m 0,-20.88057 v -9.92683 h 4.9635 q 6.7605,0 6.7605,4.87784 0,2.73843 -1.4548,3.9365 -1.4548,1.11249 -5.3057,1.11249 z"
       style="stroke-width:2.1394031"
       id="path131" /><path
       d="m 1424.3267,497.82551 h -12.922 q -4.8779,0 -6.4182,1.96826 -1.5404,1.88267 -1.5404,6.0759 v 35.25736 q 0,4.10765 1.5404,5.7336 1.6259,1.54037 6.247,1.54037 h 13.4355 q 8.2153,0 8.2153,-5.30572 0,-5.39129 -8.2153,-5.39129 h -9.7557 v -9.49895 h 8.1297 q 8.1297,0 8.1297,-5.30572 0,-5.30572 -8.1297,-5.30572 h -8.1297 v -9.07107 h 9.4134 q 8.2153,0 8.2153,-5.30572 0,-5.3913 -8.2153,-5.3913 z"
       style="stroke-width:2.1394031"
       id="path133" /><path
       d="m 1480.0648,538.7309 h 13.4354 v -33.37469 q 0,-8.2153 5.7336,-8.2153 5.8192,0 5.8192,8.2153 v 33.37469 h 3.8509 q 2.3961,0 3.7654,1.28364 1.3692,1.28364 1.3692,3.85093 0,2.4817 -1.3692,3.50862 -1.3693,1.02691 -3.7654,1.02691 h -56.1379 q -7.873,0 -7.873,-8.21531 v -34.82948 q 0,-8.2153 5.7336,-8.2153 5.7336,0 5.7336,8.2153 v 33.37469 h 13.4354 v -33.37469 q 0,-4.10765 1.1125,-6.16148 1.1125,-2.05382 4.0221,-2.05382 2.9096,0 4.0221,2.05382 1.1125,2.05383 1.1125,6.16148 z"
       style="stroke-width:2.1394031"
       id="path135" /><path
       d="m 1543.4981,497.82551 h -12.922 q -4.8778,0 -6.4182,1.96826 -1.5404,1.88267 -1.5404,6.0759 v 35.25736 q 0,4.10765 1.5404,5.7336 1.6259,1.54037 6.2471,1.54037 h 13.4354 q 8.2153,0 8.2153,-5.30572 0,-5.39129 -8.2153,-5.39129 h -9.7557 v -9.49895 h 8.1298 q 8.1297,0 8.1297,-5.30572 0,-5.30572 -8.1297,-5.30572 h -8.1298 v -9.07107 h 9.4134 q 8.2153,0 8.2153,-5.30572 0,-5.3913 -8.2153,-5.3913 z"
       style="stroke-width:2.1394031"
       id="path137" /><path
       d="m 1575.7028,540.8703 v -12.92199 h 21.2228 v 12.92199 q 0,8.12973 5.7336,8.12973 5.7336,0 5.7336,-8.12973 v -35.51409 q 0,-8.2153 -5.7336,-8.2153 -5.7336,0 -5.7336,8.2153 v 11.89508 h -21.2228 v -11.89508 q 0,-8.2153 -5.7336,-8.2153 -5.7336,0 -5.7336,8.2153 v 35.51409 q 0,8.12973 5.7336,8.12973 5.7336,0 5.7336,-8.12973 z"
       style="stroke-width:2.1394031"
       id="path139" /><path
       d="m 1650.9081,517.5936 v 23.2767 q 0,8.12973 5.7336,8.12973 5.7336,0 5.7336,-8.12973 v -35.94197 q 0,-3.76535 -1.2836,-5.7336 -1.1981,-2.05382 -4.0221,-2.05382 -1.9682,0 -3.3375,1.02691 -1.3692,0.94134 -2.7384,2.73844 l -21.3085,28.15454 v -23.70459 q 0,-8.2153 -5.7336,-8.2153 -5.7336,0 -5.7336,8.2153 v 36.79773 q 0,3.50863 1.1981,5.22015 1.1981,1.62594 3.9365,1.62594 1.8827,0 3.4231,-0.77018 1.6259,-0.85576 3.2518,-3.08074 z"
       style="stroke-width:2.1394031"
       id="path141" /><path
       d="m 1699.4472,508.43695 v 12.32296 h -5.3057 q -3.5087,0 -5.4769,-1.62594 -1.8827,-1.71152 -1.8827,-4.70669 0,-2.82401 1.8827,-4.36438 1.8827,-1.62595 5.3057,-1.62595 z m 11.5527,32.43335 v -35.00063 q 0,-4.19323 -1.6259,-6.0759 -1.5404,-1.96826 -6.3326,-1.96826 h -8.9855 q -9.3278,0 -14.2912,4.36439 -4.9634,4.36438 -4.9634,11.38162 0,5.47687 3.1663,9.15665 3.1663,3.59419 8.8999,4.53553 l -9.0711,10.09798 q -3.423,3.76535 -3.423,6.58936 0,2.22498 1.5403,3.67978 1.626,1.36921 4.0221,1.36921 1.7115,0 3.0808,-0.85576 1.3692,-0.94133 2.9951,-2.82401 l 13.4355,-16.94407 v 12.49411 q 0,8.12973 5.8191,8.12973 5.7336,0 5.7336,-8.12973 z"
       style="stroke-width:2.1394031"
       id="path143" /></g></svg>